<?xml version="1.0" standalone="no"?>
<!DOCTYPE svg PUBLIC "-//W3C//DTD SVG 1.1//EN"
"http://www.w3.org/Graphics/SVG/1.1/DTD/svg11.dtd">
<svg width="242.079" height="58.7717" viewBox="0 0 5043.31 1224.41" version="1.1"
xmlns="http://www.w3.org/2000/svg"
xmlns:xlink="http://www.w3.org/1999/xlink">
<g fill-rule="evenodd"><path d="M 80.7077,1143.7 L 80.7077,80.7067 L 828.74,80.7067 L 828.74,1143.7 L 80.7077,1143.7 z " style="fill-opacity:1.000000;fill:rgb(103,198,105);stroke:rgb(0,0,0);stroke-width:2"/></g>
<g fill-rule="evenodd"><path d="M 907.48,1143.7 L 907.48,80.7067 L 1655.51,80.7067 L 1655.51,1143.7 L 907.48,1143.7 z " style="fill-opacity:1.000000;fill:rgb(115,81,255);stroke:rgb(0,0,0);stroke-width:2"/></g>
<g fill-rule="evenodd"><path d="M 1734.25,1143.7 L 1734.25,80.7067 L 2482.28,80.7067 L 2482.28,1143.7 L 1734.25,1143.7 z " style="fill-opacity:1.000000;fill:rgb(74,236,41);stroke:rgb(0,0,0);stroke-width:2"/></g>
<g fill-rule="evenodd"><path d="M 2561.02,1143.7 L 2561.02,80.7067 L 3309.05,80.7067 L 3309.05,1143.7 L 2561.02,1143.7 z " style="fill-opacity:1.000000;fill:rgb(205,186,171);stroke:rgb(0,0,0);stroke-width:2"/></g>
<g fill-rule="evenodd"><path d="M 3387.79,1143.7 L 3387.79,80.7067 L 4135.83,80.7067 L 4135.83,1143.7 L 3387.79,1143.7 z " style="fill-opacity:1.000000;fill:rgb(242,251,227);stroke:rgb(0,0,0);stroke-width:2"/></g>
<g fill-rule="evenodd"><path d="M 4214.57,1143.7 L 4214.57,80.7067 L 4962.6,80.7067 L 4962.6,1143.7 L 4214.57,1143.7 z " style="fill-opacity:1.000000;fill:rgb(70,124,194);stroke:rgb(0,0,0);stroke-width:2"/></g>
</svg>
