M48
; DRILL file {KiCad 8.0.7} date 2025-02-07T22:16:17+0100
; FORMAT={-:-/ absolute / inch / decimal}
; #@! TF.CreationDate,2025-02-07T22:16:17+01:00
; #@! TF.GenerationSoftware,Kicad,Pcbnew,8.0.7
; #@! TF.FileFunction,Plated,1,2,PTH
FMAT,2
INCH
; #@! TA.AperFunction,Plated,PTH,ViaDrill
T1C0.0197
; #@! TA.AperFunction,Plated,PTH,ComponentDrill
T2C0.0315
; #@! TA.AperFunction,Plated,PTH,ComponentDrill
T3C0.0394
%
G90
G05
T1
X4.3346Y-3.6476
X4.4685Y-4.1909
X4.9488Y-3.8287
X4.9488Y-3.9626
X6.3307Y-4.0059
X6.5512Y-4.0059
T2
X4.3049Y-3.8957
X4.3837Y-3.8957
X4.7734Y-3.8957
X4.8522Y-3.8957
X6.3998Y-3.9132
X6.4785Y-3.9132
X6.6203Y-3.9114
X6.699Y-3.9114
T3
X4.2953Y-4.0807
X4.3031Y-3.5059
X4.3346Y-4.4453
X4.3346Y-4.5453
X4.3346Y-4.6453
X4.3953Y-4.0807
X4.4449Y-3.5059
X4.4449Y-3.6059
X4.4449Y-3.7059
X4.5256Y-3.936
X4.5984Y-3.6988
X4.6256Y-3.936
X4.7008Y-4.1022
X4.7008Y-4.2022
X4.7008Y-4.3022
X4.8228Y-4.6949
X4.8976Y-3.5081
X4.8976Y-3.6081
X4.8976Y-3.7081
X5.0Y-4.1033
X5.1063Y-4.5846
X5.1575Y-3.6988
X5.2598Y-4.1028
X5.2598Y-4.2028
X5.2598Y-4.3028
X5.4567Y-3.5087
X5.4567Y-3.6087
X5.4567Y-3.7087
X5.5591Y-4.1004
X5.6614Y-3.9094
X5.7165Y-3.6988
X5.8189Y-4.1033
X5.8189Y-4.2033
X5.8189Y-4.3033
X6.0157Y-3.5093
X6.0157Y-3.6093
X6.0157Y-3.7093
X6.1181Y-4.1004
X6.2756Y-3.6988
X6.378Y-4.1033
X6.378Y-4.2033
X6.378Y-4.3033
X6.5748Y-3.5098
X6.5748Y-3.6098
X6.5748Y-3.7098
X6.6772Y-4.1555
M30
