M48
; DRILL file {KiCad 8.0.7} date 2025-02-07T22:31:21+0100
; FORMAT={-:-/ absolute / inch / decimal}
; #@! TF.CreationDate,2025-02-07T22:31:21+01:00
; #@! TF.GenerationSoftware,Kicad,Pcbnew,8.0.7
; #@! TF.FileFunction,Plated,1,2,PTH
FMAT,2
INCH
; #@! TA.AperFunction,Plated,PTH,ComponentDrill
T1C0.0394
%
G90
G05
T1
X5.1929Y-4.9154
X5.2008Y-3.4232
X5.2717Y-4.6319
X5.3425Y-3.4232
X5.3425Y-4.3484
X5.4134Y-4.065
X5.4843Y-3.4232
X5.4843Y-3.7815
X5.626Y-3.4232
X5.7677Y-3.4232
X5.8386Y-4.9075
X5.9094Y-3.4232
X5.9094Y-4.624
X5.9813Y-4.3396
X6.0512Y-3.4232
X6.0512Y-4.0571
X6.122Y-3.7736
X6.1929Y-3.4232
X6.3346Y-3.4232
X6.4764Y-3.4232
X6.5Y-4.9075
X6.5709Y-4.6319
X6.6181Y-3.4232
X6.6417Y-4.3406
X6.7126Y-4.0571
X6.7598Y-3.4232
X6.9016Y-3.4232
X7.0039Y-4.4862
X7.0039Y-4.628
X7.0039Y-4.7697
X7.0039Y-4.9114
X7.0433Y-3.4232
M30
