M48
; DRILL file {KiCad 9.0.7+1} date 2026-03-02T00:28:33+0100
; FORMAT={-:-/ absolute / metric / decimal}
; #@! TF.CreationDate,2026-03-02T00:28:33+01:00
; #@! TF.GenerationSoftware,Kicad,Pcbnew,9.0.7+1
; #@! TF.FileFunction,Plated,1,4,PTH
FMAT,2
METRIC
; #@! TA.AperFunction,Plated,PTH,ViaDrill
T1C0.100
; #@! TA.AperFunction,Plated,PTH,ViaDrill
T2C0.250
; #@! TA.AperFunction,Plated,PTH,ViaDrill
T3C0.300
; #@! TA.AperFunction,Plated,PTH,ViaDrill
T4C0.500
; #@! TA.AperFunction,Plated,PTH,ViaDrill
T5C0.625
; #@! TA.AperFunction,Plated,PTH,ComponentDrill
T6C0.800
; #@! TA.AperFunction,Plated,PTH,ComponentDrill
T7C0.889
; #@! TA.AperFunction,Plated,PTH,ViaDrill
T8C0.938
; #@! TA.AperFunction,Plated,PTH,ComponentDrill
T9C0.950
; #@! TA.AperFunction,Plated,PTH,ViaDrill
T10C1.000
; #@! TA.AperFunction,Plated,PTH,ComponentDrill
T11C1.000
; #@! TA.AperFunction,Plated,PTH,ComponentDrill
T12C1.100
; #@! TA.AperFunction,Plated,PTH,ComponentDrill
T13C1.200
; #@! TA.AperFunction,Plated,PTH,ViaDrill
T14C1.250
; #@! TA.AperFunction,Plated,PTH,ComponentDrill
T15C1.300
; #@! TA.AperFunction,Plated,PTH,ComponentDrill
T16C1.500
; #@! TA.AperFunction,Plated,PTH,ComponentDrill
T17C1.702
; #@! TA.AperFunction,Plated,PTH,ComponentDrill
T18C3.000
; #@! TA.AperFunction,Plated,PTH,ComponentDrill
T19C3.400
%
G90
G05
T1
X100.0Y-80.1
X120.0Y-83.5
X124.8Y-107.2
X124.8Y-107.6
X138.0Y-66.5
X138.0Y-76.0
X138.0Y-88.5
X138.0Y-102.5
X141.65Y-107.25
X146.0Y-106.3
X147.25Y-107.85
X148.0Y-49.5
X148.0Y-53.0
X149.5Y-53.0
X150.5Y-53.0
X155.5Y-40.0
X159.5Y-40.0
X159.5Y-63.5
X159.5Y-81.0
X159.5Y-83.5
X159.5Y-86.0
X179.55Y-63.4
X179.8Y-68.6
X181.0Y-102.3
X181.0Y-105.4
X182.0Y-102.3
X182.2Y-81.4
X183.0Y-102.3
X183.0Y-114.0
X184.351Y-98.449
X185.0Y-106.3
X185.0Y-109.4
X186.9Y-122.6
X188.0Y-132.0
X189.0Y-110.3
X189.0Y-113.4
X191.0Y-114.0
X191.0Y-123.5
X203.5Y-136.0
T2
X77.0Y-137.725
X77.0Y-141.2
X78.865Y-125.125
X79.0Y-145.525
X79.075Y-141.2
X79.925Y-131.525
X79.925Y-135.725
X80.8Y-141.2
X81.0Y-145.525
X81.0Y-149.8
X82.0Y-131.525
X82.0Y-135.725
X82.875Y-141.2
X83.0Y-145.6
X85.5Y-72.5
X85.5Y-74.575
X87.5Y-72.5
X87.5Y-74.575
X88.5Y-137.725
X88.5Y-141.2
X90.365Y-125.125
X90.5Y-145.525
X90.575Y-141.2
X91.4Y-68.55
X91.425Y-131.525
X91.425Y-135.725
X92.3Y-141.2
X92.5Y-145.525
X92.5Y-149.8
X93.5Y-131.525
X93.5Y-135.725
X93.625Y-155.705
X94.375Y-141.2
X94.5Y-145.6
X94.6Y-68.55
X94.6Y-79.05
X95.525Y-151.895
X97.6Y-151.895
X97.8Y-79.05
X98.575Y-151.895
X99.6Y-151.9
X100.0Y-137.725
X100.0Y-141.2
X101.675Y-151.895
X101.865Y-125.125
X102.0Y-145.525
X102.075Y-141.2
X102.925Y-131.525
X102.925Y-135.725
X103.135Y-88.175
X103.8Y-141.2
X104.0Y-145.525
X104.0Y-149.8
X105.0Y-131.525
X105.0Y-135.725
X105.875Y-141.2
X106.0Y-145.6
X107.26Y-79.125
X107.26Y-81.2
X107.26Y-82.1
X107.26Y-82.9
X107.26Y-84.975
X107.26Y-87.05
X107.86Y-87.05
X107.86Y-89.05
X108.53Y-82.1
X108.53Y-87.05
X109.19Y-82.1
X109.8Y-82.1
X109.8Y-87.05
X109.8Y-89.05
X109.8Y-91.2
X110.5Y-95.2
X110.55Y-97.225
X111.07Y-82.1
X111.5Y-137.725
X111.5Y-141.2
X112.45Y-97.225
X112.5Y-89.8
X112.5Y-95.2
X113.365Y-125.125
X113.5Y-145.525
X113.575Y-141.2
X114.425Y-131.525
X114.425Y-135.725
X114.55Y-87.9
X115.3Y-141.2
X115.5Y-145.525
X115.5Y-149.8
X115.525Y-155.705
X116.5Y-131.525
X116.5Y-135.725
X117.325Y-151.9
X117.375Y-141.2
X117.5Y-145.6
X118.5Y-160.537
X119.4Y-151.9
X120.475Y-151.895
X121.6Y-151.9
X123.675Y-151.9
X144.019Y-44.981
X146.5Y-44.475
X148.5Y-58.5
X151.1Y-58.5
X153.5Y-41.225
X158.2Y-42.3
X158.295Y-46.2
X158.295Y-48.275
X158.295Y-49.237
X158.295Y-50.237
X158.295Y-52.312
X159.565Y-49.237
X160.2Y-49.237
X160.835Y-49.237
X161.0Y-41.225
X161.0Y-45.1
X162.105Y-49.237
X163.0Y-40.925
X163.0Y-41.525
X163.0Y-44.8
X163.0Y-45.4
X163.95Y-42.8
X163.95Y-43.4
X163.95Y-46.675
X163.95Y-47.275
X176.36Y-50.425
X179.0Y-45.6
X180.4Y-91.15
X180.6Y-130.8
X180.6Y-136.8
X183.9Y-89.9
X183.9Y-92.4
X183.925Y-88.0
X183.925Y-94.3
X184.5Y-134.725
X184.798Y-75.616
X184.8Y-72.4
X184.9Y-132.705
X185.325Y-132.07
X185.325Y-133.34
X185.325Y-134.61
X186.5Y-134.725
X186.83Y-72.4
X186.83Y-75.616
X190.275Y-130.8
X190.275Y-133.34
X190.275Y-134.61
X190.7Y-134.005
X194.8Y-130.8
X194.8Y-136.8
X199.725Y-125.1
X199.725Y-128.11
X199.725Y-134.4
X199.725Y-137.41
X203.495Y-130.075
X203.495Y-139.375
X204.1Y-130.5
X204.1Y-139.8
X204.765Y-125.125
X204.765Y-130.075
X204.765Y-134.425
X204.765Y-139.375
X205.1Y-134.0
X205.4Y-124.7
X206.021Y-129.981
X206.035Y-125.125
X206.035Y-139.375
X206.1Y-130.5
X207.0Y-134.0
X207.305Y-125.125
X207.305Y-134.425
X213.6Y-72.314
X213.6Y-74.389
X215.6Y-72.314
X215.6Y-74.389
X216.11Y-93.562
X216.11Y-95.637
X218.1Y-93.562
X218.1Y-95.637
X219.269Y-65.95
X219.269Y-67.934
X221.344Y-65.95
X221.344Y-67.934
X222.0Y-93.562
X222.0Y-95.637
X224.0Y-93.562
X224.0Y-95.637
T3
X83.7Y-93.9
X87.7Y-83.05
X87.7Y-85.55
X87.7Y-88.05
X90.056Y-97.05
X125.587Y-52.872
X128.66Y-46.624
X134.587Y-50.272
X137.087Y-50.272
X139.587Y-50.272
X175.5Y-150.0
X178.0Y-150.0
X180.5Y-150.0
X186.45Y-153.648
X189.5Y-147.197
X209.888Y-107.52
X212.388Y-116.02
X212.388Y-118.6
X212.388Y-121.02
X215.848Y-110.25
T4
X129.5Y-145.95
X129.5Y-147.2
X129.5Y-148.45
X129.5Y-149.7
X129.5Y-150.95
X130.75Y-145.95
X130.75Y-147.2
X130.75Y-148.45
X130.75Y-149.7
X130.75Y-150.95
X132.0Y-145.95
X132.0Y-147.2
X133.25Y-147.2
X134.5Y-148.45
X134.5Y-149.7
X134.5Y-150.95
X135.75Y-147.2
X135.75Y-148.45
X135.75Y-149.7
X137.0Y-145.95
X137.0Y-147.2
X137.0Y-148.45
X138.25Y-143.45
X138.25Y-144.7
X138.25Y-145.95
X138.25Y-147.2
X152.4Y-153.9
X152.4Y-155.2
X152.4Y-156.5
X152.4Y-157.8
X152.4Y-159.1
X152.4Y-160.4
X152.4Y-161.7
X153.7Y-153.9
X153.7Y-155.2
X153.7Y-156.5
X153.7Y-157.8
X153.7Y-159.1
X153.7Y-160.4
X153.7Y-161.7
X155.0Y-153.9
X155.0Y-155.2
X155.0Y-156.5
X155.0Y-157.8
X155.0Y-159.1
X155.0Y-160.4
X155.0Y-161.7
X156.3Y-153.9
X156.3Y-155.2
X156.3Y-156.5
X156.3Y-157.8
X156.3Y-159.1
X156.3Y-160.4
X156.3Y-161.7
X157.6Y-153.9
X157.6Y-155.2
X157.6Y-156.5
X157.6Y-157.8
X157.6Y-159.1
X157.6Y-160.4
X157.6Y-161.7
X158.9Y-153.9
X158.9Y-155.2
X158.9Y-156.5
X158.9Y-157.8
X158.9Y-159.1
X158.9Y-160.4
X158.9Y-161.7
X160.2Y-153.9
X160.2Y-155.2
X160.2Y-156.5
X160.2Y-157.8
X160.2Y-159.1
X160.2Y-160.4
X160.2Y-161.7
X161.5Y-153.9
X161.5Y-155.2
X161.5Y-156.5
X161.5Y-157.8
X161.5Y-159.1
X161.5Y-160.4
X161.5Y-161.7
X163.0Y-143.45
X163.0Y-144.7
X163.0Y-145.95
X164.25Y-143.45
X164.25Y-144.7
X164.25Y-145.95
X164.25Y-147.2
X165.5Y-143.45
X165.5Y-144.7
X165.5Y-145.95
X165.5Y-147.2
X165.5Y-148.45
X166.75Y-143.45
X166.75Y-144.7
X166.75Y-145.95
X166.75Y-147.2
X168.0Y-143.45
X168.0Y-144.7
X168.0Y-145.95
X168.0Y-147.2
X169.25Y-145.95
X169.25Y-147.2
X169.25Y-148.45
X169.25Y-149.7
X169.25Y-150.95
X170.5Y-145.95
X170.5Y-147.2
X170.5Y-148.45
X170.5Y-149.7
X170.5Y-150.95
T5
X77.0Y-107.75
X83.4Y-119.05
X94.9Y-119.05
X99.7Y-94.7
X106.4Y-119.05
X117.9Y-119.05
X138.4Y-63.0
X192.8Y-140.05
X201.8Y-125.1
X201.8Y-128.1
X201.8Y-134.4
X201.8Y-137.41
X214.7Y-128.5
X214.7Y-131.0
X214.7Y-133.5
X214.7Y-136.0
X216.4Y-128.5
X216.4Y-131.0
X216.4Y-133.5
X216.4Y-136.0
T6
X77.847Y-76.5
X81.347Y-76.5
X108.653Y-158.5
X112.153Y-158.5
X132.6Y-151.532
X132.6Y-154.032
X148.73Y-71.52
X151.182Y-83.76
X151.182Y-85.76
X151.27Y-71.52
X153.182Y-83.76
X153.182Y-85.76
X155.182Y-83.76
X155.182Y-85.76
X167.6Y-151.655
X167.6Y-153.655
X217.818Y-72.41
X217.818Y-75.91
T7
X170.32Y-43.59
X172.55Y-56.54
X172.86Y-43.59
X173.82Y-54.0
X175.09Y-56.54
X176.36Y-54.0
X177.63Y-56.54
X178.9Y-54.0
X180.17Y-56.54
X181.13Y-43.59
X181.44Y-54.0
X183.67Y-43.59
T8
X79.5Y-107.2
X79.5Y-109.3
X79.5Y-113.0
X83.4Y-116.85
X91.0Y-107.2
X91.0Y-109.3
X91.0Y-113.0
X94.9Y-116.85
X99.8Y-96.7
X102.5Y-99.2
X102.5Y-104.145
X102.5Y-107.2
X102.5Y-109.3
X102.5Y-113.0
X106.4Y-116.85
X111.5Y-105.5
X114.0Y-103.5
X114.0Y-105.5
X114.0Y-107.2
X114.0Y-109.3
X114.0Y-113.0
X117.9Y-116.85
T9
X77.0Y-111.0
X77.0Y-133.625
X77.0Y-143.6
X79.5Y-111.0
X79.5Y-133.625
X79.5Y-143.6
X82.0Y-111.0
X82.0Y-133.625
X82.0Y-143.6
X88.5Y-111.0
X88.5Y-133.625
X88.5Y-143.625
X91.0Y-111.0
X91.0Y-133.625
X91.0Y-143.625
X93.5Y-111.0
X93.5Y-133.625
X93.5Y-143.625
X100.0Y-101.375
X100.0Y-111.0
X100.0Y-133.625
X100.0Y-143.625
X102.5Y-101.375
X102.5Y-111.0
X102.5Y-133.625
X102.5Y-143.625
X105.0Y-101.375
X105.0Y-111.0
X105.0Y-133.625
X105.0Y-143.625
X111.5Y-101.375
X111.5Y-111.0
X111.5Y-133.625
X111.5Y-143.625
X114.0Y-101.375
X114.0Y-111.0
X114.0Y-133.625
X114.0Y-143.625
X116.5Y-101.375
X116.5Y-111.0
X116.5Y-133.625
X116.5Y-143.625
X223.0Y-81.6
X223.0Y-84.1
X223.0Y-86.6
X223.0Y-89.1
X223.0Y-91.6
X223.2Y-126.0
X223.2Y-128.5
X223.2Y-131.0
X223.2Y-133.5
X223.2Y-136.0
X223.4Y-59.3
X223.4Y-61.8
X223.4Y-64.3
X223.4Y-66.8
T10
X126.5Y-154.5
T11
X77.0Y-122.0
X77.065Y-66.5
X82.0Y-122.0
X82.065Y-66.5
X88.5Y-122.0
X89.805Y-72.506
X89.805Y-75.046
X92.345Y-72.506
X92.345Y-75.046
X93.5Y-122.0
X94.292Y-87.55
X94.292Y-90.09
X94.292Y-92.63
X94.292Y-95.17
X94.292Y-97.71
X94.292Y-100.25
X94.885Y-72.506
X94.885Y-75.046
X97.425Y-72.506
X97.425Y-75.046
X100.0Y-91.4
X100.0Y-122.0
X105.0Y-91.4
X105.0Y-122.0
X107.435Y-54.0
X111.5Y-122.0
X112.435Y-54.0
X116.5Y-122.0
X122.31Y-56.804
X124.85Y-56.804
X127.39Y-56.804
X129.93Y-56.804
X130.0Y-143.7
X130.0Y-161.7
X131.095Y-64.44
X131.095Y-66.98
X131.095Y-69.52
X131.095Y-72.06
X131.095Y-74.6
X131.095Y-77.14
X131.095Y-79.68
X131.095Y-82.22
X131.095Y-84.76
X131.095Y-87.3
X131.095Y-89.84
X131.095Y-92.38
X131.095Y-94.92
X131.095Y-97.46
X131.095Y-100.0
X131.095Y-102.54
X131.095Y-105.08
X131.095Y-107.62
X131.095Y-110.16
X131.095Y-112.7
X131.095Y-115.24
X131.095Y-117.78
X131.095Y-120.32
X131.095Y-122.86
X131.095Y-125.4
X131.095Y-127.94
X131.095Y-130.48
X131.095Y-133.02
X131.095Y-135.56
X132.47Y-56.804
X133.635Y-64.44
X133.635Y-66.98
X133.635Y-69.52
X133.635Y-72.06
X133.635Y-74.6
X133.635Y-77.14
X133.635Y-79.68
X133.635Y-82.22
X133.635Y-84.76
X133.635Y-87.3
X133.635Y-89.84
X133.635Y-92.38
X133.635Y-94.92
X133.635Y-97.46
X133.635Y-100.0
X133.635Y-102.54
X133.635Y-105.08
X133.635Y-107.62
X133.635Y-110.16
X133.635Y-112.7
X133.635Y-115.24
X133.635Y-117.78
X133.635Y-120.32
X133.635Y-122.86
X133.635Y-125.4
X133.635Y-127.94
X133.635Y-130.48
X133.635Y-133.02
X133.635Y-135.56
X135.01Y-56.804
X144.92Y-51.5
X147.46Y-51.5
X150.0Y-51.5
X152.54Y-51.5
X155.08Y-51.5
X160.46Y-38.2
X163.0Y-38.2
X165.54Y-38.2
X166.355Y-64.44
X166.355Y-66.98
X166.355Y-69.52
X166.355Y-72.06
X166.355Y-74.6
X166.355Y-77.14
X166.355Y-79.68
X166.355Y-82.22
X166.355Y-84.76
X166.355Y-87.3
X166.355Y-89.84
X166.355Y-92.38
X166.355Y-94.92
X166.355Y-97.46
X166.355Y-100.0
X166.355Y-102.54
X166.355Y-105.08
X166.355Y-107.62
X166.355Y-110.16
X166.355Y-112.7
X166.355Y-115.24
X166.355Y-117.78
X166.355Y-120.32
X166.355Y-122.86
X166.355Y-125.4
X166.355Y-127.94
X166.355Y-130.48
X166.355Y-133.02
X166.355Y-135.56
X168.895Y-64.44
X168.895Y-66.98
X168.895Y-69.52
X168.895Y-72.06
X168.895Y-74.6
X168.895Y-77.14
X168.895Y-79.68
X168.895Y-82.22
X168.895Y-84.76
X168.895Y-87.3
X168.895Y-89.84
X168.895Y-92.38
X168.895Y-94.92
X168.895Y-97.46
X168.895Y-100.0
X168.895Y-102.54
X168.895Y-105.08
X168.895Y-107.62
X168.895Y-110.16
X168.895Y-112.7
X168.895Y-115.24
X168.895Y-117.78
X168.895Y-120.32
X168.895Y-122.86
X168.895Y-125.4
X168.895Y-127.94
X168.895Y-130.48
X168.895Y-133.02
X168.895Y-135.56
X170.0Y-143.7
X170.0Y-161.7
X180.1Y-143.468
X182.64Y-143.468
X185.18Y-143.468
X187.72Y-143.468
X189.7Y-62.25
X189.7Y-64.79
X189.7Y-67.33
X189.7Y-69.87
X189.7Y-72.41
X190.26Y-143.468
X192.8Y-143.468
X205.668Y-103.9
X205.668Y-106.44
X205.668Y-108.98
X205.668Y-111.52
X205.668Y-114.06
X205.668Y-116.6
X211.5Y-62.25
X211.5Y-64.79
X211.5Y-67.33
X211.5Y-69.87
X211.5Y-72.41
X217.1Y-81.52
X217.1Y-84.06
X217.1Y-86.6
X217.1Y-89.14
X217.1Y-91.68
T12
X142.38Y-70.79
X142.38Y-73.33
X142.38Y-75.87
X142.38Y-78.41
X142.38Y-80.95
X142.38Y-83.49
X142.38Y-86.03
X142.38Y-88.57
X142.38Y-91.11
X142.38Y-93.65
X142.38Y-96.19
X142.38Y-98.73
X142.38Y-101.27
X142.38Y-103.81
X142.38Y-106.35
X142.38Y-108.89
X142.38Y-111.43
X142.38Y-113.97
X142.38Y-116.51
X142.38Y-119.05
X142.38Y-121.59
X142.38Y-124.13
X142.38Y-126.67
X142.38Y-129.21
X144.92Y-116.51
X145.431Y-77.089
X145.431Y-79.629
X145.431Y-82.169
X145.431Y-84.709
X145.431Y-87.249
X147.46Y-116.51
X150.0Y-116.51
X152.54Y-116.51
X155.08Y-73.33
X155.08Y-116.51
X157.62Y-70.79
X157.62Y-73.33
X157.62Y-75.87
X157.62Y-78.41
X157.62Y-80.95
X157.62Y-83.49
X157.62Y-86.03
X157.62Y-88.57
X157.62Y-91.11
X157.62Y-93.65
X157.62Y-96.19
X157.62Y-98.73
X157.62Y-101.27
X157.62Y-103.81
X157.62Y-106.35
X157.62Y-108.89
X157.62Y-111.43
X157.62Y-113.97
X157.62Y-116.51
X157.62Y-119.05
X157.62Y-121.59
X157.62Y-124.13
X157.62Y-126.67
X157.62Y-129.21
T13
X80.322Y-92.2
X80.322Y-95.7
X126.86Y-42.834
X130.36Y-42.834
X184.75Y-157.438
X188.25Y-157.438
X219.638Y-108.45
X219.638Y-111.95
T14
X77.052Y-57.472
X77.052Y-59.472
X86.144Y-90.9
X86.144Y-97.0
X107.255Y-44.8
X107.255Y-46.8
X125.56Y-48.656
X131.66Y-48.656
X144.92Y-54.5
X144.92Y-56.5
X144.92Y-58.5
X183.45Y-151.616
X189.55Y-151.616
X213.816Y-107.15
X213.816Y-113.25
T15
X77.065Y-54.3
X82.145Y-54.3
X107.267Y-41.7
X112.347Y-41.7
T16
X122.444Y-77.14
X122.444Y-82.22
X122.444Y-87.3
X122.444Y-92.38
X122.444Y-97.46
X122.444Y-102.54
X122.444Y-112.7
X122.444Y-117.78
X122.444Y-122.86
X122.444Y-127.94
X122.5Y-66.98
X126.0Y-64.44
X126.0Y-74.6
X126.0Y-79.68
X126.0Y-84.76
X126.0Y-89.84
X126.0Y-94.92
X126.0Y-100.0
X126.0Y-110.16
X126.0Y-115.24
X126.0Y-120.32
X126.0Y-125.4
X126.0Y-130.48
X174.0Y-64.44
X174.0Y-69.52
X174.0Y-79.68
X174.0Y-84.76
X174.0Y-89.84
X174.0Y-94.92
X174.0Y-100.0
X174.0Y-110.16
X174.0Y-115.24
X174.0Y-120.32
X174.0Y-125.4
X174.0Y-130.48
X177.5Y-66.98
X177.556Y-72.06
X177.556Y-82.22
X177.556Y-87.3
X177.556Y-92.38
X177.556Y-97.46
X177.556Y-102.54
X177.556Y-112.7
X177.556Y-117.78
X177.556Y-122.86
X177.556Y-127.94
T17
X169.145Y-50.7
X184.845Y-50.7
T18
X134.5Y-144.5
X165.5Y-160.9
T19
X81.99Y-155.29
X82.01Y-44.71
X94.145Y-83.994
X94.145Y-103.806
X118.754Y-56.657
X138.566Y-56.657
X150.0Y-66.0
X150.0Y-106.35
X176.544Y-143.615
X196.356Y-143.615
X205.815Y-100.344
X205.815Y-120.156
X217.99Y-44.71
X217.99Y-155.29
T19
G00X77.216Y-83.994
M15
G01X78.816Y-83.994
M16
G05
G00X77.216Y-103.806
M15
G01X78.816Y-103.806
M16
G05
G00X118.754Y-39.728
M15
G01X118.754Y-41.328
M16
G05
G00X138.566Y-39.728
M15
G01X138.566Y-41.328
M16
G05
G00X176.544Y-160.544
M15
G01X176.544Y-158.944
M16
G05
G00X196.356Y-160.544
M15
G01X196.356Y-158.944
M16
G05
G00X222.744Y-100.344
M15
G01X221.144Y-100.344
M16
G05
G00X222.744Y-120.156
M15
G01X221.144Y-120.156
M16
G05
M30
