%TF.GenerationSoftware,KiCad,Pcbnew,9.0.7+1*%
%TF.CreationDate,2026-03-02T00:28:31+01:00*%
%TF.ProjectId,1_logic_board,315f6c6f-6769-4635-9f62-6f6172642e6b,rev?*%
%TF.SameCoordinates,Original*%
%TF.FileFunction,Soldermask,Top*%
%TF.FilePolarity,Negative*%
%FSLAX46Y46*%
G04 Gerber Fmt 4.6, Leading zero omitted, Abs format (unit mm)*
G04 Created by KiCad (PCBNEW 9.0.7+1) date 2026-03-02 00:28:31*
%MOMM*%
%LPD*%
G01*
G04 APERTURE LIST*
G04 Aperture macros list*
%AMRoundRect*
0 Rectangle with rounded corners*
0 $1 Rounding radius*
0 $2 $3 $4 $5 $6 $7 $8 $9 X,Y pos of 4 corners*
0 Add a 4 corners polygon primitive as box body*
4,1,4,$2,$3,$4,$5,$6,$7,$8,$9,$2,$3,0*
0 Add four circle primitives for the rounded corners*
1,1,$1+$1,$2,$3*
1,1,$1+$1,$4,$5*
1,1,$1+$1,$6,$7*
1,1,$1+$1,$8,$9*
0 Add four rect primitives between the rounded corners*
20,1,$1+$1,$2,$3,$4,$5,0*
20,1,$1+$1,$4,$5,$6,$7,0*
20,1,$1+$1,$6,$7,$8,$9,0*
20,1,$1+$1,$8,$9,$2,$3,0*%
%AMRotRect*
0 Rectangle, with rotation*
0 The origin of the aperture is its center*
0 $1 length*
0 $2 width*
0 $3 Rotation angle, in degrees counterclockwise*
0 Add horizontal line*
21,1,$1,$2,0,0,$3*%
%AMFreePoly0*
4,1,6,1.000000,0.000000,0.500000,-0.750000,-0.500000,-0.750000,-0.500000,0.750000,0.500000,0.750000,1.000000,0.000000,1.000000,0.000000,$1*%
%AMFreePoly1*
4,1,23,0.500000,-0.750000,0.000000,-0.750000,0.000000,-0.745722,-0.065263,-0.745722,-0.191342,-0.711940,-0.304381,-0.646677,-0.396677,-0.554381,-0.461940,-0.441342,-0.495722,-0.315263,-0.495722,-0.250000,-0.500000,-0.250000,-0.500000,0.250000,-0.495722,0.250000,-0.495722,0.315263,-0.461940,0.441342,-0.396677,0.554381,-0.304381,0.646677,-0.191342,0.711940,-0.065263,0.745722,0.000000,0.745722,
0.000000,0.750000,0.500000,0.750000,0.500000,-0.750000,0.500000,-0.750000,$1*%
%AMFreePoly2*
4,1,23,0.000000,0.745722,0.065263,0.745722,0.191342,0.711940,0.304381,0.646677,0.396677,0.554381,0.461940,0.441342,0.495722,0.315263,0.495722,0.250000,0.500000,0.250000,0.500000,-0.250000,0.495722,-0.250000,0.495722,-0.315263,0.461940,-0.441342,0.396677,-0.554381,0.304381,-0.646677,0.191342,-0.711940,0.065263,-0.745722,0.000000,-0.745722,0.000000,-0.750000,-0.500000,-0.750000,
-0.500000,0.750000,0.000000,0.750000,0.000000,0.745722,0.000000,0.745722,$1*%
G04 Aperture macros list end*
%ADD10C,2.500000*%
%ADD11R,7.200000X1.000000*%
%ADD12RotRect,2.400000X1.200000X315.000000*%
%ADD13RotRect,2.400000X1.200000X45.000000*%
%ADD14R,0.875736X1.572792*%
%ADD15RotRect,2.400000X1.200000X225.000000*%
%ADD16RotRect,2.400000X1.200000X135.000000*%
%ADD17RoundRect,0.250000X0.350000X0.450000X-0.350000X0.450000X-0.350000X-0.450000X0.350000X-0.450000X0*%
%ADD18C,4.504000*%
%ADD19RoundRect,0.249999X-1.425001X0.450001X-1.425001X-0.450001X1.425001X-0.450001X1.425001X0.450001X0*%
%ADD20RoundRect,0.250000X-0.450000X0.350000X-0.450000X-0.350000X0.450000X-0.350000X0.450000X0.350000X0*%
%ADD21FreePoly0,270.000000*%
%ADD22FreePoly0,90.000000*%
%ADD23R,1.700000X1.700000*%
%ADD24C,1.700000*%
%ADD25RoundRect,0.250000X-0.350000X-0.450000X0.350000X-0.450000X0.350000X0.450000X-0.350000X0.450000X0*%
%ADD26RoundRect,0.250000X-0.600000X-0.725000X0.600000X-0.725000X0.600000X0.725000X-0.600000X0.725000X0*%
%ADD27O,1.700000X1.950000*%
%ADD28RoundRect,0.250000X-0.550000X-0.550000X0.550000X-0.550000X0.550000X0.550000X-0.550000X0.550000X0*%
%ADD29C,1.600000*%
%ADD30RoundRect,0.250000X0.500000X1.050000X-0.500000X1.050000X-0.500000X-1.050000X0.500000X-1.050000X0*%
%ADD31O,6.204000X4.504000*%
%ADD32C,3.000000*%
%ADD33RoundRect,0.075000X0.275000X-0.390000X0.275000X0.390000X-0.275000X0.390000X-0.275000X-0.390000X0*%
%ADD34RoundRect,0.075000X0.275000X-0.075000X0.275000X0.075000X-0.275000X0.075000X-0.275000X-0.075000X0*%
%ADD35RoundRect,0.250000X-0.725000X0.600000X-0.725000X-0.600000X0.725000X-0.600000X0.725000X0.600000X0*%
%ADD36O,1.950000X1.700000*%
%ADD37RoundRect,0.250000X0.337500X0.475000X-0.337500X0.475000X-0.337500X-0.475000X0.337500X-0.475000X0*%
%ADD38RoundRect,0.250000X-0.337500X-0.475000X0.337500X-0.475000X0.337500X0.475000X-0.337500X0.475000X0*%
%ADD39RoundRect,0.250000X0.450000X-0.350000X0.450000X0.350000X-0.450000X0.350000X-0.450000X-0.350000X0*%
%ADD40FreePoly1,270.000000*%
%ADD41FreePoly2,270.000000*%
%ADD42RoundRect,0.150000X0.150000X-0.825000X0.150000X0.825000X-0.150000X0.825000X-0.150000X-0.825000X0*%
%ADD43RoundRect,0.250000X0.550000X-0.550000X0.550000X0.550000X-0.550000X0.550000X-0.550000X-0.550000X0*%
%ADD44RoundRect,0.250000X0.325000X0.450000X-0.325000X0.450000X-0.325000X-0.450000X0.325000X-0.450000X0*%
%ADD45RoundRect,0.250000X-0.450000X0.325000X-0.450000X-0.325000X0.450000X-0.325000X0.450000X0.325000X0*%
%ADD46RoundRect,0.249999X0.450001X1.425001X-0.450001X1.425001X-0.450001X-1.425001X0.450001X-1.425001X0*%
%ADD47RoundRect,0.125000X0.125000X-0.537500X0.125000X0.537500X-0.125000X0.537500X-0.125000X-0.537500X0*%
%ADD48RoundRect,0.250001X0.949999X0.949999X-0.949999X0.949999X-0.949999X-0.949999X0.949999X-0.949999X0*%
%ADD49C,2.400000*%
%ADD50RoundRect,0.250000X0.475000X-0.337500X0.475000X0.337500X-0.475000X0.337500X-0.475000X-0.337500X0*%
%ADD51RoundRect,0.250000X0.750000X0.750000X-0.750000X0.750000X-0.750000X-0.750000X0.750000X-0.750000X0*%
%ADD52C,2.000000*%
%ADD53RoundRect,0.250001X-0.949999X0.949999X-0.949999X-0.949999X0.949999X-0.949999X0.949999X0.949999X0*%
%ADD54RoundRect,0.250000X-0.550000X0.550000X-0.550000X-0.550000X0.550000X-0.550000X0.550000X0.550000X0*%
%ADD55RoundRect,0.250000X-0.650000X1.500000X-0.650000X-1.500000X0.650000X-1.500000X0.650000X1.500000X0*%
%ADD56RoundRect,0.250000X-0.475000X0.337500X-0.475000X-0.337500X0.475000X-0.337500X0.475000X0.337500X0*%
%ADD57O,4.504000X6.204000*%
%ADD58RoundRect,0.249999X-0.450001X-1.425001X0.450001X-1.425001X0.450001X1.425001X-0.450001X1.425001X0*%
%ADD59FreePoly1,0.000000*%
%ADD60FreePoly2,0.000000*%
%ADD61RoundRect,0.125000X-0.125000X0.537500X-0.125000X-0.537500X0.125000X-0.537500X0.125000X0.537500X0*%
%ADD62FreePoly1,180.000000*%
%ADD63FreePoly2,180.000000*%
%ADD64RoundRect,0.250000X-1.500000X-0.650000X1.500000X-0.650000X1.500000X0.650000X-1.500000X0.650000X0*%
%ADD65RoundRect,0.250000X0.450000X-0.325000X0.450000X0.325000X-0.450000X0.325000X-0.450000X-0.325000X0*%
%ADD66RoundRect,0.250000X-0.325000X-0.450000X0.325000X-0.450000X0.325000X0.450000X-0.325000X0.450000X0*%
%ADD67FreePoly1,90.000000*%
%ADD68FreePoly2,90.000000*%
%ADD69RoundRect,0.250000X0.550000X0.550000X-0.550000X0.550000X-0.550000X-0.550000X0.550000X-0.550000X0*%
%ADD70RoundRect,0.150000X-0.825000X-0.150000X0.825000X-0.150000X0.825000X0.150000X-0.825000X0.150000X0*%
%ADD71R,1.600000X1.600000*%
%ADD72R,1.300000X1.300000*%
%ADD73C,1.300000*%
%ADD74RoundRect,0.250000X-0.750000X-0.750000X0.750000X-0.750000X0.750000X0.750000X-0.750000X0.750000X0*%
%ADD75RoundRect,0.250001X0.949999X-0.949999X0.949999X0.949999X-0.949999X0.949999X-0.949999X-0.949999X0*%
%ADD76C,4.204000*%
%ADD77RoundRect,0.249999X1.425001X-0.450001X1.425001X0.450001X-1.425001X0.450001X-1.425001X-0.450001X0*%
%ADD78RoundRect,0.150000X-0.587500X-0.150000X0.587500X-0.150000X0.587500X0.150000X-0.587500X0.150000X0*%
%ADD79RoundRect,0.150000X0.825000X0.150000X-0.825000X0.150000X-0.825000X-0.150000X0.825000X-0.150000X0*%
%ADD80RoundRect,0.075000X-0.275000X0.390000X-0.275000X-0.390000X0.275000X-0.390000X0.275000X0.390000X0*%
%ADD81RoundRect,0.075000X-0.275000X0.075000X-0.275000X-0.075000X0.275000X-0.075000X0.275000X0.075000X0*%
%ADD82C,1.397000*%
%ADD83C,2.209800*%
%ADD84RoundRect,0.125000X0.537500X0.125000X-0.537500X0.125000X-0.537500X-0.125000X0.537500X-0.125000X0*%
%ADD85RoundRect,0.250000X1.050000X1.050000X-1.050000X1.050000X-1.050000X-1.050000X1.050000X-1.050000X0*%
%ADD86C,2.600000*%
%ADD87RoundRect,0.250001X-0.949999X-0.949999X0.949999X-0.949999X0.949999X0.949999X-0.949999X0.949999X0*%
%ADD88RoundRect,0.250000X-0.300000X2.050000X-0.300000X-2.050000X0.300000X-2.050000X0.300000X2.050000X0*%
%ADD89RoundRect,0.250002X-5.149998X4.449998X-5.149998X-4.449998X5.149998X-4.449998X5.149998X4.449998X0*%
%ADD90RoundRect,0.125000X-0.537500X-0.125000X0.537500X-0.125000X0.537500X0.125000X-0.537500X0.125000X0*%
G04 APERTURE END LIST*
%TO.C,JP1*%
G36*
X127250000Y-156000000D02*
G01*
X125750000Y-156000000D01*
X125750000Y-161000000D01*
X127250000Y-161000000D01*
X127250000Y-156000000D01*
G37*
%TO.C,JP13*%
G36*
X177548000Y-151466000D02*
G01*
X176048000Y-151466000D01*
X176048000Y-151766000D01*
X177548000Y-151766000D01*
X177548000Y-151466000D01*
G37*
%TO.C,JP2*%
G36*
X193550000Y-139250000D02*
G01*
X192050000Y-139250000D01*
X192050000Y-139550000D01*
X193550000Y-139550000D01*
X193550000Y-139250000D01*
G37*
%TO.C,JP7*%
G36*
X213666000Y-119152000D02*
G01*
X213966000Y-119152000D01*
X213966000Y-120652000D01*
X213666000Y-120652000D01*
X213666000Y-119152000D01*
G37*
%TO.C,JP12*%
G36*
X86294000Y-87563400D02*
G01*
X85994000Y-87563400D01*
X85994000Y-86063400D01*
X86294000Y-86063400D01*
X86294000Y-87563400D01*
G37*
%TO.C,JP11*%
G36*
X86294000Y-84998000D02*
G01*
X85994000Y-84998000D01*
X85994000Y-83498000D01*
X86294000Y-83498000D01*
X86294000Y-84998000D01*
G37*
%TO.C,JP10*%
G36*
X134996354Y-48805602D02*
G01*
X136496354Y-48805602D01*
X136496354Y-48505602D01*
X134996354Y-48505602D01*
X134996354Y-48805602D01*
G37*
%TO.C,JP8*%
G36*
X213666000Y-116586600D02*
G01*
X213966000Y-116586600D01*
X213966000Y-118086600D01*
X213666000Y-118086600D01*
X213666000Y-116586600D01*
G37*
%TO.C,JP9*%
G36*
X137561754Y-48805602D02*
G01*
X139061754Y-48805602D01*
X139061754Y-48505602D01*
X137561754Y-48505602D01*
X137561754Y-48805602D01*
G37*
%TO.C,JP3*%
G36*
X183350000Y-139250000D02*
G01*
X181850000Y-139250000D01*
X181850000Y-139550000D01*
X183350000Y-139550000D01*
X183350000Y-139250000D01*
G37*
%TO.C,JP14*%
G36*
X180113400Y-151466000D02*
G01*
X178613400Y-151466000D01*
X178613400Y-151766000D01*
X180113400Y-151766000D01*
X180113400Y-151466000D01*
G37*
%TD*%
D10*
%TO.C,REF\u002A\u002A*%
X206800000Y-63800000D03*
%TD*%
D11*
%TO.C,L1*%
X144063604Y-144400000D03*
D12*
X146363604Y-145200000D03*
D13*
X141763604Y-145200000D03*
D14*
X147225736Y-145686396D03*
X140901472Y-145686396D03*
X147225736Y-149313604D03*
X140901472Y-149313604D03*
D15*
X146363604Y-149800000D03*
D16*
X141763604Y-149800000D03*
D11*
X144063604Y-150600000D03*
%TD*%
D17*
%TO.C,R14*%
X214700000Y-133500000D03*
X212700000Y-133500000D03*
%TD*%
D18*
%TO.C,*%
X94145000Y-83994000D03*
%TD*%
D19*
%TO.C,R65*%
X86144000Y-90900000D03*
X86144000Y-97000000D03*
%TD*%
D20*
%TO.C,R2*%
X143500000Y-132700000D03*
X143500000Y-134700000D03*
%TD*%
D21*
%TO.C,JP1*%
X126500000Y-156500000D03*
D22*
X126500000Y-160500000D03*
%TD*%
D23*
%TO.C,J40*%
X166355000Y-64440000D03*
D24*
X168895000Y-64440000D03*
X166355000Y-66980000D03*
X168895000Y-66980000D03*
X166355000Y-69520000D03*
X168895000Y-69520000D03*
X166355000Y-72060000D03*
X168895000Y-72060000D03*
X166355000Y-74600000D03*
X168895000Y-74600000D03*
X166355000Y-77140000D03*
X168895000Y-77140000D03*
X166355000Y-79680000D03*
X168895000Y-79680000D03*
X166355000Y-82220000D03*
X168895000Y-82220000D03*
X166355000Y-84760000D03*
X168895000Y-84760000D03*
X166355000Y-87300000D03*
X168895000Y-87300000D03*
X166355000Y-89840000D03*
X168895000Y-89840000D03*
X166355000Y-92380000D03*
X168895000Y-92380000D03*
X166355000Y-94920000D03*
X168895000Y-94920000D03*
X166355000Y-97460000D03*
X168895000Y-97460000D03*
X166355000Y-100000000D03*
X168895000Y-100000000D03*
X166355000Y-102540000D03*
X168895000Y-102540000D03*
X166355000Y-105080000D03*
X168895000Y-105080000D03*
X166355000Y-107620000D03*
X168895000Y-107620000D03*
X166355000Y-110160000D03*
X168895000Y-110160000D03*
X166355000Y-112700000D03*
X168895000Y-112700000D03*
X166355000Y-115240000D03*
X168895000Y-115240000D03*
X166355000Y-117780000D03*
X168895000Y-117780000D03*
X166355000Y-120320000D03*
X168895000Y-120320000D03*
X166355000Y-122860000D03*
X168895000Y-122860000D03*
X166355000Y-125400000D03*
X168895000Y-125400000D03*
X166355000Y-127940000D03*
X168895000Y-127940000D03*
X166355000Y-130480000D03*
X168895000Y-130480000D03*
X166355000Y-133020000D03*
X168895000Y-133020000D03*
X166355000Y-135560000D03*
X168895000Y-135560000D03*
%TD*%
D25*
%TO.C,R21*%
X192800000Y-132900000D03*
X194800000Y-132900000D03*
%TD*%
D26*
%TO.C,J9*%
X88500000Y-143625000D03*
D27*
X91000000Y-143625000D03*
X93500000Y-143625000D03*
%TD*%
D28*
%TO.C,C75*%
X77847349Y-76500000D03*
D29*
X81347349Y-76500000D03*
%TD*%
D18*
%TO.C,*%
X81990128Y-155290128D03*
%TD*%
D30*
%TO.C,D1*%
X151400000Y-133700000D03*
X154400000Y-133700000D03*
%TD*%
D31*
%TO.C,*%
X78016000Y-83994000D03*
%TD*%
D10*
%TO.C,REF\u002A\u002A*%
X202300000Y-93400000D03*
%TD*%
D26*
%TO.C,J12*%
X100000000Y-101375000D03*
D27*
X102500000Y-101375000D03*
X105000000Y-101375000D03*
%TD*%
D10*
%TO.C,REF\u002A\u002A*%
X88903000Y-39595600D03*
%TD*%
D20*
%TO.C,R58*%
X123585754Y-51574268D03*
X123585754Y-53574268D03*
%TD*%
D17*
%TO.C,R9*%
X211000000Y-128500000D03*
X209000000Y-128500000D03*
%TD*%
D32*
%TO.C,TP44*%
X177556000Y-127940000D03*
%TD*%
%TO.C,TP39*%
X122444000Y-122860000D03*
%TD*%
D33*
%TO.C,D27*%
X112600000Y-87900000D03*
D34*
X112600000Y-87015000D03*
%TD*%
D20*
%TO.C,R61*%
X138311754Y-51211602D03*
X138311754Y-53211602D03*
%TD*%
D35*
%TO.C,J7*%
X223200000Y-126000000D03*
D36*
X223200000Y-128500000D03*
X223200000Y-131000000D03*
X223200000Y-133500000D03*
X223200000Y-136000000D03*
%TD*%
D32*
%TO.C,TP27*%
X122444000Y-102540000D03*
%TD*%
D37*
%TO.C,C88*%
X201800000Y-137410000D03*
X199725000Y-137410000D03*
%TD*%
D38*
%TO.C,C66*%
X212759834Y-101100000D03*
X214834834Y-101100000D03*
%TD*%
D31*
%TO.C,*%
X221944000Y-120156000D03*
%TD*%
D18*
%TO.C,*%
X217990128Y-44709872D03*
%TD*%
D39*
%TO.C,R112*%
X160900000Y-58400000D03*
X160900000Y-56400000D03*
%TD*%
D25*
%TO.C,R63*%
X89062666Y-98974000D03*
X91062666Y-98974000D03*
%TD*%
D40*
%TO.C,JP13*%
X176798000Y-150966000D03*
D41*
X176798000Y-152266000D03*
%TD*%
D37*
%TO.C,C89*%
X201800000Y-134400000D03*
X199725000Y-134400000D03*
%TD*%
D42*
%TO.C,U8*%
X203495000Y-130075000D03*
X204765000Y-130075000D03*
X206035000Y-130075000D03*
X207305000Y-130075000D03*
X207305000Y-125125000D03*
X206035000Y-125125000D03*
X204765000Y-125125000D03*
X203495000Y-125125000D03*
%TD*%
D33*
%TO.C,D19*%
X180400000Y-92485000D03*
D34*
X180400000Y-91600000D03*
%TD*%
D32*
%TO.C,TP3*%
X122500000Y-66980000D03*
%TD*%
D43*
%TO.C,C12*%
X132600000Y-154032379D03*
D29*
X132600000Y-151532379D03*
%TD*%
D23*
%TO.C,J5*%
X170000000Y-143700000D03*
%TD*%
D25*
%TO.C,R66*%
X88700000Y-84248000D03*
X90700000Y-84248000D03*
%TD*%
D44*
%TO.C,F17*%
X183925000Y-88000000D03*
X181875000Y-88000000D03*
%TD*%
D42*
%TO.C,U19*%
X158295000Y-54187500D03*
X159565000Y-54187500D03*
X160835000Y-54187500D03*
X162105000Y-54187500D03*
X162105000Y-49237500D03*
X160835000Y-49237500D03*
X159565000Y-49237500D03*
X158295000Y-49237500D03*
%TD*%
D25*
%TO.C,R23*%
X180600000Y-134800000D03*
X182600000Y-134800000D03*
%TD*%
D23*
%TO.C,J31*%
X205668000Y-103900000D03*
D24*
X205668000Y-106440000D03*
X205668000Y-108980000D03*
X205668000Y-111520000D03*
X205668000Y-114060000D03*
X205668000Y-116600000D03*
%TD*%
D45*
%TO.C,F25*%
X186830000Y-73566000D03*
X186830000Y-75616000D03*
%TD*%
D18*
%TO.C,*%
X150000000Y-66000000D03*
%TD*%
D32*
%TO.C,TP29*%
X126000000Y-110160000D03*
%TD*%
%TO.C,TP20*%
X177556000Y-92380000D03*
%TD*%
D46*
%TO.C,R60*%
X131659754Y-48655602D03*
X125559754Y-48655602D03*
%TD*%
D18*
%TO.C,*%
X205815000Y-100344000D03*
%TD*%
D32*
%TO.C,TP18*%
X174000000Y-89840000D03*
%TD*%
D47*
%TO.C,U7*%
X185525000Y-148689500D03*
X186175000Y-148689500D03*
X186825000Y-148689500D03*
X187475000Y-148689500D03*
X187475000Y-146414500D03*
X186825000Y-146414500D03*
X186175000Y-146414500D03*
X185525000Y-146414500D03*
%TD*%
D48*
%TO.C,J32*%
X130359754Y-42833602D03*
D49*
X126859754Y-42833602D03*
%TD*%
D50*
%TO.C,C68*%
X119509754Y-49711768D03*
X119509754Y-47636768D03*
%TD*%
D17*
%TO.C,R8*%
X214700000Y-128500000D03*
X212700000Y-128500000D03*
%TD*%
D37*
%TO.C,C69*%
X87200166Y-101012000D03*
X85125166Y-101012000D03*
%TD*%
D51*
%TO.C,C81*%
X93500000Y-122000000D03*
D52*
X88500000Y-122000000D03*
%TD*%
D26*
%TO.C,J13*%
X77000000Y-111000000D03*
D27*
X79500000Y-111000000D03*
X82000000Y-111000000D03*
%TD*%
D53*
%TO.C,J34*%
X80322000Y-92200000D03*
D49*
X80322000Y-95700000D03*
%TD*%
D32*
%TO.C,TP34*%
X174000000Y-115240000D03*
%TD*%
D39*
%TO.C,R4*%
X142000000Y-155900000D03*
X142000000Y-153900000D03*
%TD*%
D33*
%TO.C,D26*%
X114550000Y-87900000D03*
D34*
X114550000Y-87015000D03*
%TD*%
D10*
%TO.C,REF\u002A\u002A*%
X100333000Y-61185600D03*
%TD*%
D25*
%TO.C,R19*%
X192800000Y-136800000D03*
X194800000Y-136800000D03*
%TD*%
D54*
%TO.C,C49*%
X217818000Y-72410000D03*
D29*
X217818000Y-75910000D03*
%TD*%
D20*
%TO.C,R45*%
X163950000Y-46975000D03*
X163950000Y-48975000D03*
%TD*%
D45*
%TO.C,F26*%
X184798000Y-73566000D03*
X184798000Y-75616000D03*
%TD*%
D32*
%TO.C,TP23*%
X122444000Y-97460000D03*
%TD*%
D55*
%TO.C,D3*%
X112500000Y-91200000D03*
X112500000Y-96200000D03*
%TD*%
D40*
%TO.C,JP2*%
X192800000Y-138750000D03*
D41*
X192800000Y-140050000D03*
%TD*%
D32*
%TO.C,TP42*%
X174000000Y-125400000D03*
%TD*%
D45*
%TO.C,F27*%
X163950000Y-50775000D03*
X163950000Y-52825000D03*
%TD*%
D56*
%TO.C,C9*%
X144000000Y-153862500D03*
X144000000Y-155937500D03*
%TD*%
D32*
%TO.C,TP11*%
X122444000Y-82220000D03*
%TD*%
D51*
%TO.C,C77*%
X105000000Y-91400000D03*
D52*
X100000000Y-91400000D03*
%TD*%
D17*
%TO.C,R54*%
X210897334Y-103138000D03*
X208897334Y-103138000D03*
%TD*%
D37*
%TO.C,C87*%
X201800000Y-125100000D03*
X199725000Y-125100000D03*
%TD*%
D32*
%TO.C,TP33*%
X126000000Y-115240000D03*
%TD*%
D57*
%TO.C,*%
X176544000Y-159744000D03*
%TD*%
D58*
%TO.C,R70*%
X183450000Y-151616000D03*
X189550000Y-151616000D03*
%TD*%
D35*
%TO.C,J18*%
X223000000Y-81600000D03*
D36*
X223000000Y-84100000D03*
X223000000Y-86600000D03*
X223000000Y-89100000D03*
X223000000Y-91600000D03*
%TD*%
D51*
%TO.C,C85*%
X116500000Y-122000000D03*
D52*
X111500000Y-122000000D03*
%TD*%
D26*
%TO.C,J14*%
X88500000Y-111000000D03*
D27*
X91000000Y-111000000D03*
X93500000Y-111000000D03*
%TD*%
D59*
%TO.C,JP7*%
X213166000Y-119902000D03*
D60*
X214466000Y-119902000D03*
%TD*%
D32*
%TO.C,TP26*%
X174000000Y-100000000D03*
%TD*%
D33*
%TO.C,D31*%
X164400000Y-58400000D03*
D34*
X164400000Y-57515000D03*
%TD*%
D56*
%TO.C,C72*%
X195600000Y-150559834D03*
X195600000Y-152634834D03*
%TD*%
D25*
%TO.C,R83*%
X180600000Y-130800000D03*
X182600000Y-130800000D03*
%TD*%
D32*
%TO.C,TP22*%
X174000000Y-94920000D03*
%TD*%
D26*
%TO.C,J25*%
X100000000Y-133625000D03*
D27*
X102500000Y-133625000D03*
X105000000Y-133625000D03*
%TD*%
D32*
%TO.C,TP35*%
X122444000Y-117780000D03*
%TD*%
D38*
%TO.C,C59*%
X144920000Y-56500000D03*
X146995000Y-56500000D03*
%TD*%
D61*
%TO.C,U5*%
X129584754Y-51582102D03*
X128934754Y-51582102D03*
X128284754Y-51582102D03*
X127634754Y-51582102D03*
X127634754Y-53857102D03*
X128284754Y-53857102D03*
X128934754Y-53857102D03*
X129584754Y-53857102D03*
%TD*%
D26*
%TO.C,J11*%
X111500000Y-143625000D03*
D27*
X114000000Y-143625000D03*
X116500000Y-143625000D03*
%TD*%
D20*
%TO.C,R44*%
X164800000Y-43100000D03*
X164800000Y-45100000D03*
%TD*%
D62*
%TO.C,JP12*%
X86794000Y-86813400D03*
D63*
X85494000Y-86813400D03*
%TD*%
D23*
%TO.C,J37*%
X192800000Y-143468000D03*
D24*
X190260000Y-143468000D03*
X187720000Y-143468000D03*
X185180000Y-143468000D03*
X182640000Y-143468000D03*
X180100000Y-143468000D03*
%TD*%
D64*
%TO.C,D2*%
X158250000Y-144300000D03*
X163250000Y-144300000D03*
%TD*%
D62*
%TO.C,JP11*%
X86794000Y-84248000D03*
D63*
X85494000Y-84248000D03*
%TD*%
D65*
%TO.C,F24*%
X109800000Y-91200000D03*
X109800000Y-89150000D03*
%TD*%
D66*
%TO.C,F9*%
X104000000Y-149800000D03*
X106050000Y-149800000D03*
%TD*%
D32*
%TO.C,TP7*%
X126000000Y-74600000D03*
%TD*%
D26*
%TO.C,J15*%
X100000000Y-111000000D03*
D27*
X102500000Y-111000000D03*
X105000000Y-111000000D03*
%TD*%
D67*
%TO.C,JP10*%
X135746354Y-49305602D03*
D68*
X135746354Y-48005602D03*
%TD*%
D23*
%TO.C,J38*%
X89805200Y-75045600D03*
D24*
X89805200Y-72505600D03*
X92345200Y-75045600D03*
X92345200Y-72505600D03*
X94885200Y-75045600D03*
X94885200Y-72505600D03*
X97425200Y-75045600D03*
X97425200Y-72505600D03*
%TD*%
D26*
%TO.C,J16*%
X111500000Y-111000000D03*
D27*
X114000000Y-111000000D03*
X116500000Y-111000000D03*
%TD*%
D23*
%TO.C,J20*%
X211500000Y-62250000D03*
D24*
X211500000Y-64790000D03*
X211500000Y-67330000D03*
X211500000Y-69870000D03*
X211500000Y-72410000D03*
%TD*%
D69*
%TO.C,C5*%
X112152651Y-158500000D03*
D29*
X108652651Y-158500000D03*
%TD*%
D17*
%TO.C,R57*%
X211260000Y-117336600D03*
X209260000Y-117336600D03*
%TD*%
D33*
%TO.C,D12*%
X107600000Y-149800000D03*
D34*
X107600000Y-148915000D03*
%TD*%
D17*
%TO.C,R81*%
X194800000Y-130800000D03*
X192800000Y-130800000D03*
%TD*%
D32*
%TO.C,TP24*%
X177556000Y-97460000D03*
%TD*%
D18*
%TO.C,*%
X118753754Y-56656602D03*
%TD*%
D25*
%TO.C,R87*%
X97600000Y-149800000D03*
X99600000Y-149800000D03*
%TD*%
D57*
%TO.C,*%
X138565754Y-40527602D03*
%TD*%
D17*
%TO.C,R17*%
X214700000Y-136000000D03*
X212700000Y-136000000D03*
%TD*%
D32*
%TO.C,TP43*%
X122444000Y-127940000D03*
%TD*%
D39*
%TO.C,R1*%
X156500000Y-134700000D03*
X156500000Y-132700000D03*
%TD*%
D25*
%TO.C,R64*%
X89062666Y-101012000D03*
X91062666Y-101012000D03*
%TD*%
D26*
%TO.C,J19*%
X111500000Y-101375000D03*
D27*
X114000000Y-101375000D03*
X116500000Y-101375000D03*
%TD*%
D17*
%TO.C,R56*%
X211260000Y-119902000D03*
X209260000Y-119902000D03*
%TD*%
%TO.C,R13*%
X218400000Y-133500000D03*
X216400000Y-133500000D03*
%TD*%
D70*
%TO.C,U11*%
X93625000Y-151895000D03*
X93625000Y-153165000D03*
X93625000Y-154435000D03*
X93625000Y-155705000D03*
X98575000Y-155705000D03*
X98575000Y-154435000D03*
X98575000Y-153165000D03*
X98575000Y-151895000D03*
%TD*%
D18*
%TO.C,*%
X217990128Y-155290128D03*
%TD*%
D25*
%TO.C,R91*%
X120600000Y-149800000D03*
X122600000Y-149800000D03*
%TD*%
D32*
%TO.C,TP8*%
X122444000Y-77140000D03*
%TD*%
D26*
%TO.C,J10*%
X100000000Y-143625000D03*
D27*
X102500000Y-143625000D03*
X105000000Y-143625000D03*
%TD*%
D17*
%TO.C,R15*%
X211000000Y-133500000D03*
X209000000Y-133500000D03*
%TD*%
D32*
%TO.C,TP41*%
X126000000Y-125400000D03*
%TD*%
D23*
%TO.C,J22*%
X165540000Y-38200000D03*
D24*
X163000000Y-38200000D03*
X160460000Y-38200000D03*
%TD*%
D71*
%TO.C,U1*%
X142380000Y-70790000D03*
D29*
X142380000Y-73330000D03*
X142380000Y-75870000D03*
X142380000Y-78410000D03*
X142380000Y-80950000D03*
X142380000Y-83490000D03*
X142380000Y-86030000D03*
X142380000Y-88570000D03*
X142380000Y-91110000D03*
X142380000Y-93650000D03*
X142380000Y-96190000D03*
X142380000Y-98730000D03*
X142380000Y-101270000D03*
X142380000Y-103810000D03*
X142380000Y-106350000D03*
X142380000Y-108890000D03*
X142380000Y-111430000D03*
X142380000Y-113970000D03*
X142380000Y-116510000D03*
X142380000Y-119050000D03*
X142380000Y-121590000D03*
X142380000Y-124130000D03*
X142380000Y-126670000D03*
X142380000Y-129210000D03*
X157620000Y-129210000D03*
X157620000Y-126670000D03*
X157620000Y-124130000D03*
X157620000Y-121590000D03*
X157620000Y-119050000D03*
X157620000Y-116510000D03*
X157620000Y-113970000D03*
X157620000Y-111430000D03*
X157620000Y-108890000D03*
X157620000Y-106350000D03*
X157620000Y-103810000D03*
X157620000Y-101270000D03*
X157620000Y-98730000D03*
X157620000Y-96190000D03*
X157620000Y-93650000D03*
X157620000Y-91110000D03*
X157620000Y-88570000D03*
X157620000Y-86030000D03*
X157620000Y-83490000D03*
X157620000Y-80950000D03*
X157620000Y-78410000D03*
X157620000Y-75870000D03*
X157620000Y-73330000D03*
X157620000Y-70790000D03*
X155080000Y-73330000D03*
X144920000Y-116510000D03*
X147460000Y-116510000D03*
X150000000Y-116510000D03*
X152540000Y-116510000D03*
X155080000Y-116510000D03*
D71*
X145430800Y-77089200D03*
D29*
X145430800Y-79629200D03*
X145430800Y-82169200D03*
X145430800Y-84709200D03*
X145430800Y-87249200D03*
D72*
X155181600Y-83760000D03*
D73*
X153181600Y-83760000D03*
X151181600Y-83760000D03*
X151181600Y-85760000D03*
X153181600Y-85760000D03*
X155181600Y-85760000D03*
X151270000Y-71520000D03*
X148730000Y-71520000D03*
%TD*%
D66*
%TO.C,F10*%
X115500000Y-149800000D03*
X117550000Y-149800000D03*
%TD*%
D18*
%TO.C,*%
X196356000Y-143615000D03*
%TD*%
D42*
%TO.C,U18*%
X107260000Y-87050000D03*
X108530000Y-87050000D03*
X109800000Y-87050000D03*
X111070000Y-87050000D03*
X111070000Y-82100000D03*
X109800000Y-82100000D03*
X108530000Y-82100000D03*
X107260000Y-82100000D03*
%TD*%
D25*
%TO.C,R85*%
X86200000Y-149800000D03*
X88200000Y-149800000D03*
%TD*%
D17*
%TO.C,R22*%
X182600000Y-136800000D03*
X180600000Y-136800000D03*
%TD*%
%TO.C,R24*%
X182600000Y-132900000D03*
X180600000Y-132900000D03*
%TD*%
D38*
%TO.C,C65*%
X212759834Y-103138000D03*
X214834834Y-103138000D03*
%TD*%
D59*
%TO.C,JP8*%
X213166000Y-117336600D03*
D60*
X214466000Y-117336600D03*
%TD*%
D32*
%TO.C,TP12*%
X177556000Y-82220000D03*
%TD*%
D23*
%TO.C,J27*%
X144920000Y-51500000D03*
D24*
X147460000Y-51500000D03*
X150000000Y-51500000D03*
X152540000Y-51500000D03*
X155080000Y-51500000D03*
%TD*%
D17*
%TO.C,R12*%
X211000000Y-131000000D03*
X209000000Y-131000000D03*
%TD*%
%TO.C,R16*%
X218400000Y-136000000D03*
X216400000Y-136000000D03*
%TD*%
D26*
%TO.C,J26*%
X111500000Y-133625000D03*
D27*
X114000000Y-133625000D03*
X116500000Y-133625000D03*
%TD*%
D32*
%TO.C,TP17*%
X126000000Y-89840000D03*
%TD*%
D20*
%TO.C,R3*%
X145500000Y-132700000D03*
X145500000Y-134700000D03*
%TD*%
D17*
%TO.C,R38*%
X183900000Y-89900000D03*
X181900000Y-89900000D03*
%TD*%
D32*
%TO.C,TP37*%
X126000000Y-120320000D03*
%TD*%
D74*
%TO.C,C3*%
X77065000Y-66500000D03*
D52*
X82065000Y-66500000D03*
%TD*%
D35*
%TO.C,J17*%
X223400000Y-59300000D03*
D36*
X223400000Y-61800000D03*
X223400000Y-64300000D03*
X223400000Y-66800000D03*
%TD*%
D25*
%TO.C,R89*%
X109200000Y-149800000D03*
X111200000Y-149800000D03*
%TD*%
D44*
%TO.C,F16*%
X183925000Y-94300000D03*
X181875000Y-94300000D03*
%TD*%
D75*
%TO.C,J30*%
X219638000Y-111950000D03*
D49*
X219638000Y-108450000D03*
%TD*%
D37*
%TO.C,C70*%
X87200166Y-103050000D03*
X85125166Y-103050000D03*
%TD*%
D32*
%TO.C,TP15*%
X122444000Y-87300000D03*
%TD*%
D23*
%TO.C,J35*%
X94292000Y-100250000D03*
D24*
X94292000Y-97710000D03*
X94292000Y-95170000D03*
X94292000Y-92630000D03*
X94292000Y-90090000D03*
X94292000Y-87550000D03*
%TD*%
D32*
%TO.C,TP36*%
X177556000Y-117780000D03*
%TD*%
D76*
%TO.C,*%
X165500000Y-160900000D03*
%TD*%
D17*
%TO.C,R90*%
X113400000Y-152530000D03*
X111400000Y-152530000D03*
%TD*%
D10*
%TO.C,REF\u002A\u002A*%
X202300000Y-79800000D03*
%TD*%
D32*
%TO.C,TP1*%
X126000000Y-64440000D03*
%TD*%
D74*
%TO.C,C8*%
X107434672Y-54000000D03*
D52*
X112434672Y-54000000D03*
%TD*%
D77*
%TO.C,R55*%
X213816000Y-113250000D03*
X213816000Y-107150000D03*
%TD*%
D78*
%TO.C,Q1*%
X147462500Y-132750000D03*
X147462500Y-134650000D03*
X149337500Y-133700000D03*
%TD*%
D32*
%TO.C,TP38*%
X174000000Y-120320000D03*
%TD*%
D17*
%TO.C,R53*%
X210897334Y-105176000D03*
X208897334Y-105176000D03*
%TD*%
D33*
%TO.C,D11*%
X96100000Y-149800000D03*
D34*
X96100000Y-148915000D03*
%TD*%
D20*
%TO.C,R62*%
X135746354Y-51211602D03*
X135746354Y-53211602D03*
%TD*%
D66*
%TO.C,F8*%
X92500000Y-149800000D03*
X94550000Y-149800000D03*
%TD*%
D18*
%TO.C,*%
X150000000Y-106350000D03*
%TD*%
D67*
%TO.C,JP9*%
X138311754Y-49305602D03*
D68*
X138311754Y-48005602D03*
%TD*%
D17*
%TO.C,R7*%
X218400000Y-128500000D03*
X216400000Y-128500000D03*
%TD*%
D79*
%TO.C,U10*%
X190275000Y-134610000D03*
X190275000Y-133340000D03*
X190275000Y-132070000D03*
X190275000Y-130800000D03*
X185325000Y-130800000D03*
X185325000Y-132070000D03*
X185325000Y-133340000D03*
X185325000Y-134610000D03*
%TD*%
D25*
%TO.C,R92*%
X122600000Y-153800000D03*
X124600000Y-153800000D03*
%TD*%
D23*
%TO.C,J4*%
X130000000Y-161700000D03*
%TD*%
D70*
%TO.C,U12*%
X115525000Y-151895000D03*
X115525000Y-153165000D03*
X115525000Y-154435000D03*
X115525000Y-155705000D03*
X120475000Y-155705000D03*
X120475000Y-154435000D03*
X120475000Y-153165000D03*
X120475000Y-151895000D03*
%TD*%
D32*
%TO.C,TP16*%
X177556000Y-87300000D03*
%TD*%
D25*
%TO.C,R67*%
X88700000Y-86813400D03*
X90700000Y-86813400D03*
%TD*%
D39*
%TO.C,R68*%
X191524000Y-148697334D03*
X191524000Y-146697334D03*
%TD*%
D23*
%TO.C,J21*%
X189700000Y-62250000D03*
D24*
X189700000Y-64790000D03*
X189700000Y-67330000D03*
X189700000Y-69870000D03*
X189700000Y-72410000D03*
%TD*%
D57*
%TO.C,*%
X196356000Y-159744000D03*
%TD*%
D26*
%TO.C,J23*%
X77000000Y-133625000D03*
D27*
X79500000Y-133625000D03*
X82000000Y-133625000D03*
%TD*%
D32*
%TO.C,TP25*%
X126000000Y-100000000D03*
%TD*%
D38*
%TO.C,C60*%
X144920000Y-58500000D03*
X146995000Y-58500000D03*
%TD*%
D32*
%TO.C,TP21*%
X126000000Y-94920000D03*
%TD*%
D31*
%TO.C,*%
X221944000Y-100344000D03*
%TD*%
D56*
%TO.C,C71*%
X193562000Y-150559834D03*
X193562000Y-152634834D03*
%TD*%
D25*
%TO.C,R42*%
X161000000Y-41225000D03*
X163000000Y-41225000D03*
%TD*%
D80*
%TO.C,D30*%
X164400000Y-54600000D03*
D81*
X164400000Y-55485000D03*
%TD*%
D39*
%TO.C,R71*%
X176798000Y-149060000D03*
X176798000Y-147060000D03*
%TD*%
D32*
%TO.C,TP13*%
X126000000Y-84760000D03*
%TD*%
D18*
%TO.C,*%
X138565754Y-56656602D03*
%TD*%
D25*
%TO.C,R37*%
X181900000Y-92400000D03*
X183900000Y-92400000D03*
%TD*%
D32*
%TO.C,TP19*%
X122444000Y-92380000D03*
%TD*%
D56*
%TO.C,C10*%
X144000000Y-157662500D03*
X144000000Y-159737500D03*
%TD*%
D45*
%TO.C,F28*%
X162800000Y-56350000D03*
X162800000Y-58400000D03*
%TD*%
D32*
%TO.C,TP31*%
X122444000Y-112700000D03*
%TD*%
D18*
%TO.C,*%
X176544000Y-143615000D03*
%TD*%
D32*
%TO.C,TP46*%
X174000000Y-130480000D03*
%TD*%
D82*
%TO.C,J28*%
X181440000Y-54000000D03*
X180170000Y-56540000D03*
X178900000Y-54000000D03*
X177630000Y-56540000D03*
X176360000Y-54000000D03*
X175090000Y-56540000D03*
X173820000Y-54000000D03*
X172550000Y-56540000D03*
X183670001Y-43590000D03*
X181130001Y-43590064D03*
X172859999Y-43590064D03*
X170319999Y-43590000D03*
D83*
X184845000Y-50699999D03*
X169145000Y-50699999D03*
%TD*%
D40*
%TO.C,JP3*%
X182600000Y-138750000D03*
D41*
X182600000Y-140050000D03*
%TD*%
D38*
%TO.C,C58*%
X144920000Y-54500000D03*
X146995000Y-54500000D03*
%TD*%
D32*
%TO.C,TP28*%
X177556000Y-102540000D03*
%TD*%
D26*
%TO.C,J24*%
X88500000Y-133625000D03*
D27*
X91000000Y-133625000D03*
X93500000Y-133625000D03*
%TD*%
D56*
%TO.C,C4*%
X118500000Y-158462500D03*
X118500000Y-160537500D03*
%TD*%
D18*
%TO.C,*%
X82009872Y-44709872D03*
%TD*%
D84*
%TO.C,U4*%
X210889500Y-111175000D03*
X210889500Y-110525000D03*
X210889500Y-109875000D03*
X210889500Y-109225000D03*
X208614500Y-109225000D03*
X208614500Y-109875000D03*
X208614500Y-110525000D03*
X208614500Y-111175000D03*
%TD*%
D18*
%TO.C,*%
X205815000Y-120156000D03*
%TD*%
D66*
%TO.C,F7*%
X81000000Y-149800000D03*
X83050000Y-149800000D03*
%TD*%
D32*
%TO.C,TP32*%
X177556000Y-112700000D03*
%TD*%
D17*
%TO.C,R20*%
X194800000Y-134800000D03*
X192800000Y-134800000D03*
%TD*%
D23*
%TO.C,J3*%
X170000000Y-161700000D03*
%TD*%
D17*
%TO.C,R86*%
X91500000Y-152530000D03*
X89500000Y-152530000D03*
%TD*%
D37*
%TO.C,C86*%
X201800000Y-128110000D03*
X199725000Y-128110000D03*
%TD*%
D43*
%TO.C,C11*%
X167600000Y-153655112D03*
D29*
X167600000Y-151655112D03*
%TD*%
D50*
%TO.C,C67*%
X121547754Y-49711768D03*
X121547754Y-47636768D03*
%TD*%
D17*
%TO.C,R11*%
X214700000Y-131000000D03*
X212700000Y-131000000D03*
%TD*%
D33*
%TO.C,D13*%
X119100000Y-149800000D03*
D34*
X119100000Y-148915000D03*
%TD*%
D18*
%TO.C,*%
X94145000Y-103806000D03*
%TD*%
D39*
%TO.C,R5*%
X142000000Y-159700000D03*
X142000000Y-157700000D03*
%TD*%
%TO.C,R69*%
X193562000Y-148697334D03*
X193562000Y-146697334D03*
%TD*%
D32*
%TO.C,TP14*%
X174000000Y-84760000D03*
%TD*%
D42*
%TO.C,U9*%
X203495000Y-139375000D03*
X204765000Y-139375000D03*
X206035000Y-139375000D03*
X207305000Y-139375000D03*
X207305000Y-134425000D03*
X206035000Y-134425000D03*
X204765000Y-134425000D03*
X203495000Y-134425000D03*
%TD*%
D32*
%TO.C,TP9*%
X126000000Y-79680000D03*
%TD*%
D20*
%TO.C,R59*%
X121547754Y-51574268D03*
X121547754Y-53574268D03*
%TD*%
D85*
%TO.C,J2*%
X112347349Y-41700000D03*
D86*
X107267349Y-41700000D03*
%TD*%
D23*
%TO.C,J6*%
X130000000Y-143700000D03*
%TD*%
D25*
%TO.C,R43*%
X161000000Y-45100000D03*
X163000000Y-45100000D03*
%TD*%
D40*
%TO.C,JP14*%
X179363400Y-150966000D03*
D41*
X179363400Y-152266000D03*
%TD*%
D26*
%TO.C,J8*%
X77000000Y-143600000D03*
D27*
X79500000Y-143600000D03*
X82000000Y-143600000D03*
%TD*%
D80*
%TO.C,D20*%
X180400000Y-89800000D03*
D81*
X180400000Y-90685000D03*
%TD*%
D85*
%TO.C,J1*%
X82145000Y-54300000D03*
D86*
X77065000Y-54300000D03*
%TD*%
D39*
%TO.C,R6*%
X146000000Y-155900000D03*
X146000000Y-153900000D03*
%TD*%
D32*
%TO.C,TP5*%
X174000000Y-69520000D03*
%TD*%
D23*
%TO.C,J33*%
X122309754Y-56803602D03*
D24*
X124849754Y-56803602D03*
X127389754Y-56803602D03*
X129929754Y-56803602D03*
X132469754Y-56803602D03*
X135009754Y-56803602D03*
%TD*%
D32*
%TO.C,TP4*%
X177500000Y-66980000D03*
%TD*%
D51*
%TO.C,C83*%
X105000000Y-122000000D03*
D52*
X100000000Y-122000000D03*
%TD*%
D20*
%TO.C,R113*%
X158900000Y-56400000D03*
X158900000Y-58400000D03*
%TD*%
D33*
%TO.C,D10*%
X84600000Y-149800000D03*
D34*
X84600000Y-148915000D03*
%TD*%
D32*
%TO.C,TP10*%
X174000000Y-79680000D03*
%TD*%
D51*
%TO.C,C79*%
X82000000Y-122000000D03*
D52*
X77000000Y-122000000D03*
%TD*%
D23*
%TO.C,J39*%
X131095000Y-64440000D03*
D24*
X133635000Y-64440000D03*
X131095000Y-66980000D03*
X133635000Y-66980000D03*
X131095000Y-69520000D03*
X133635000Y-69520000D03*
X131095000Y-72060000D03*
X133635000Y-72060000D03*
X131095000Y-74600000D03*
X133635000Y-74600000D03*
X131095000Y-77140000D03*
X133635000Y-77140000D03*
X131095000Y-79680000D03*
X133635000Y-79680000D03*
X131095000Y-82220000D03*
X133635000Y-82220000D03*
X131095000Y-84760000D03*
X133635000Y-84760000D03*
X131095000Y-87300000D03*
X133635000Y-87300000D03*
X131095000Y-89840000D03*
X133635000Y-89840000D03*
X131095000Y-92380000D03*
X133635000Y-92380000D03*
X131095000Y-94920000D03*
X133635000Y-94920000D03*
X131095000Y-97460000D03*
X133635000Y-97460000D03*
X131095000Y-100000000D03*
X133635000Y-100000000D03*
X131095000Y-102540000D03*
X133635000Y-102540000D03*
X131095000Y-105080000D03*
X133635000Y-105080000D03*
X131095000Y-107620000D03*
X133635000Y-107620000D03*
X131095000Y-110160000D03*
X133635000Y-110160000D03*
X131095000Y-112700000D03*
X133635000Y-112700000D03*
X131095000Y-115240000D03*
X133635000Y-115240000D03*
X131095000Y-117780000D03*
X133635000Y-117780000D03*
X131095000Y-120320000D03*
X133635000Y-120320000D03*
X131095000Y-122860000D03*
X133635000Y-122860000D03*
X131095000Y-125400000D03*
X133635000Y-125400000D03*
X131095000Y-127940000D03*
X133635000Y-127940000D03*
X131095000Y-130480000D03*
X133635000Y-130480000D03*
X131095000Y-133020000D03*
X133635000Y-133020000D03*
X131095000Y-135560000D03*
X133635000Y-135560000D03*
%TD*%
D32*
%TO.C,TP30*%
X174000000Y-110160000D03*
%TD*%
D87*
%TO.C,J36*%
X184750000Y-157438000D03*
D49*
X188250000Y-157438000D03*
%TD*%
D76*
%TO.C,*%
X134500000Y-144500000D03*
%TD*%
D88*
%TO.C,U2*%
X160379000Y-148701000D03*
X158679000Y-148701000D03*
X156979000Y-148701000D03*
D89*
X156979000Y-157851000D03*
D88*
X155279000Y-148701000D03*
X153579000Y-148701000D03*
%TD*%
D39*
%TO.C,R72*%
X179363400Y-149060000D03*
X179363400Y-147060000D03*
%TD*%
D32*
%TO.C,TP6*%
X177556000Y-72060000D03*
%TD*%
%TO.C,TP45*%
X126000000Y-130480000D03*
%TD*%
D17*
%TO.C,R10*%
X218400000Y-131000000D03*
X216400000Y-131000000D03*
%TD*%
D32*
%TO.C,TP40*%
X177556000Y-122860000D03*
%TD*%
D23*
%TO.C,J29*%
X217100000Y-81520000D03*
D24*
X217100000Y-84060000D03*
X217100000Y-86600000D03*
X217100000Y-89140000D03*
X217100000Y-91680000D03*
%TD*%
D25*
%TO.C,R88*%
X100700000Y-153800000D03*
X102700000Y-153800000D03*
%TD*%
D90*
%TO.C,U6*%
X89070500Y-92975000D03*
X89070500Y-93625000D03*
X89070500Y-94275000D03*
X89070500Y-94925000D03*
X91345500Y-94925000D03*
X91345500Y-94275000D03*
X91345500Y-93625000D03*
X91345500Y-92975000D03*
%TD*%
D32*
%TO.C,TP2*%
X174000000Y-64440000D03*
%TD*%
D57*
%TO.C,*%
X118753754Y-40527602D03*
%TD*%
D17*
%TO.C,R18*%
X211000000Y-136000000D03*
X209000000Y-136000000D03*
%TD*%
D31*
%TO.C,*%
X78016000Y-103806000D03*
%TD*%
M02*
