M48
; DRILL file {KiCad 8.0.8} date 2025-02-14T08:42:21+0100
; FORMAT={-:-/ absolute / metric / decimal}
; #@! TF.CreationDate,2025-02-14T08:42:21+01:00
; #@! TF.GenerationSoftware,Kicad,Pcbnew,8.0.8
; #@! TF.FileFunction,Plated,1,2,PTH
FMAT,2
METRIC
; #@! TA.AperFunction,Plated,PTH,ViaDrill
T1C0.800
; #@! TA.AperFunction,Plated,PTH,ComponentDrill
T2C0.800
; #@! TA.AperFunction,Plated,PTH,ComponentDrill
T3C1.000
%
G90
G05
T1
X120.6Y-109.6
X125.8Y-109.6
X127.237Y-91.2
X133.963Y-91.2
X146.438Y-91.2
X153.362Y-91.2
X165.0Y-91.2
X172.6Y-91.2
X179.0Y-105.2
X182.8Y-105.2
T2
X128.2Y-112.355
X128.2Y-114.355
X133.8Y-112.355
X133.8Y-114.355
X146.6Y-112.355
X146.6Y-114.355
X152.2Y-112.355
X152.2Y-114.355
T3
X122.775Y-95.91
X122.775Y-98.45
X122.8Y-80.0
X122.8Y-92.4
X122.8Y-102.4
X122.825Y-83.95
X122.825Y-86.49
X128.1Y-78.4
X133.1Y-78.4
X138.4Y-80.0
X138.4Y-90.6
X138.4Y-94.06
X138.4Y-96.6
X138.4Y-99.14
X138.4Y-102.8
X138.4Y-111.86
X138.4Y-114.4
X138.425Y-83.95
X138.425Y-86.49
X142.0Y-80.0
X142.0Y-90.6
X142.0Y-94.06
X142.0Y-96.6
X142.0Y-99.14
X142.0Y-102.8
X142.0Y-111.86
X142.0Y-114.4
X142.025Y-83.95
X142.025Y-86.49
X147.3Y-78.4
X152.3Y-78.4
X157.6Y-80.0
X157.6Y-90.6
X157.6Y-94.06
X157.6Y-96.6
X157.6Y-99.14
X157.6Y-102.8
X157.625Y-83.95
X157.625Y-86.49
X161.2Y-80.0
X161.2Y-90.6
X161.2Y-94.06
X161.2Y-96.6
X161.2Y-99.14
X161.2Y-102.8
X161.225Y-83.95
X161.225Y-86.49
X162.6Y-107.4
X162.6Y-111.06
X162.6Y-113.6
X162.6Y-116.14
X166.5Y-78.4
X171.5Y-78.4
X172.0Y-105.2
X175.0Y-105.2
X176.8Y-80.0
X176.825Y-83.95
X176.825Y-86.49
X178.2Y-90.6
X178.2Y-94.075
X178.2Y-96.615
X178.2Y-99.155
X178.2Y-102.8
X178.2Y-107.4
X178.2Y-111.06
X178.2Y-113.6
X178.2Y-116.14
M30
