%TF.GenerationSoftware,KiCad,Pcbnew,9.0.7+1*%
%TF.CreationDate,2026-03-01T17:33:32+01:00*%
%TF.ProjectId,sensor_temperature,73656e73-6f72-45f7-9465-6d7065726174,rev?*%
%TF.SameCoordinates,Original*%
%TF.FileFunction,Legend,Top*%
%TF.FilePolarity,Positive*%
%FSLAX46Y46*%
G04 Gerber Fmt 4.6, Leading zero omitted, Abs format (unit mm)*
G04 Created by KiCad (PCBNEW 9.0.7+1) date 2026-03-01 17:33:32*
%MOMM*%
%LPD*%
G01*
G04 APERTURE LIST*
%ADD10C,0.100000*%
%ADD11C,0.150000*%
%ADD12C,0.120000*%
G04 APERTURE END LIST*
D10*
X148259800Y-98675311D02*
X148283609Y-98603883D01*
X148283609Y-98603883D02*
X148283609Y-98484835D01*
X148283609Y-98484835D02*
X148259800Y-98437216D01*
X148259800Y-98437216D02*
X148235990Y-98413407D01*
X148235990Y-98413407D02*
X148188371Y-98389597D01*
X148188371Y-98389597D02*
X148140752Y-98389597D01*
X148140752Y-98389597D02*
X148093133Y-98413407D01*
X148093133Y-98413407D02*
X148069323Y-98437216D01*
X148069323Y-98437216D02*
X148045514Y-98484835D01*
X148045514Y-98484835D02*
X148021704Y-98580073D01*
X148021704Y-98580073D02*
X147997895Y-98627692D01*
X147997895Y-98627692D02*
X147974085Y-98651502D01*
X147974085Y-98651502D02*
X147926466Y-98675311D01*
X147926466Y-98675311D02*
X147878847Y-98675311D01*
X147878847Y-98675311D02*
X147831228Y-98651502D01*
X147831228Y-98651502D02*
X147807419Y-98627692D01*
X147807419Y-98627692D02*
X147783609Y-98580073D01*
X147783609Y-98580073D02*
X147783609Y-98461026D01*
X147783609Y-98461026D02*
X147807419Y-98389597D01*
X148283609Y-98175312D02*
X147783609Y-98175312D01*
X147783609Y-98175312D02*
X147783609Y-98056264D01*
X147783609Y-98056264D02*
X147807419Y-97984836D01*
X147807419Y-97984836D02*
X147855038Y-97937217D01*
X147855038Y-97937217D02*
X147902657Y-97913407D01*
X147902657Y-97913407D02*
X147997895Y-97889598D01*
X147997895Y-97889598D02*
X148069323Y-97889598D01*
X148069323Y-97889598D02*
X148164561Y-97913407D01*
X148164561Y-97913407D02*
X148212180Y-97937217D01*
X148212180Y-97937217D02*
X148259800Y-97984836D01*
X148259800Y-97984836D02*
X148283609Y-98056264D01*
X148283609Y-98056264D02*
X148283609Y-98175312D01*
X148140752Y-97699121D02*
X148140752Y-97461026D01*
X148283609Y-97746740D02*
X147783609Y-97580074D01*
X147783609Y-97580074D02*
X148283609Y-97413407D01*
X155209800Y-98675311D02*
X155233609Y-98603883D01*
X155233609Y-98603883D02*
X155233609Y-98484835D01*
X155233609Y-98484835D02*
X155209800Y-98437216D01*
X155209800Y-98437216D02*
X155185990Y-98413407D01*
X155185990Y-98413407D02*
X155138371Y-98389597D01*
X155138371Y-98389597D02*
X155090752Y-98389597D01*
X155090752Y-98389597D02*
X155043133Y-98413407D01*
X155043133Y-98413407D02*
X155019323Y-98437216D01*
X155019323Y-98437216D02*
X154995514Y-98484835D01*
X154995514Y-98484835D02*
X154971704Y-98580073D01*
X154971704Y-98580073D02*
X154947895Y-98627692D01*
X154947895Y-98627692D02*
X154924085Y-98651502D01*
X154924085Y-98651502D02*
X154876466Y-98675311D01*
X154876466Y-98675311D02*
X154828847Y-98675311D01*
X154828847Y-98675311D02*
X154781228Y-98651502D01*
X154781228Y-98651502D02*
X154757419Y-98627692D01*
X154757419Y-98627692D02*
X154733609Y-98580073D01*
X154733609Y-98580073D02*
X154733609Y-98461026D01*
X154733609Y-98461026D02*
X154757419Y-98389597D01*
X155233609Y-98175312D02*
X154733609Y-98175312D01*
X154733609Y-98175312D02*
X154733609Y-98056264D01*
X154733609Y-98056264D02*
X154757419Y-97984836D01*
X154757419Y-97984836D02*
X154805038Y-97937217D01*
X154805038Y-97937217D02*
X154852657Y-97913407D01*
X154852657Y-97913407D02*
X154947895Y-97889598D01*
X154947895Y-97889598D02*
X155019323Y-97889598D01*
X155019323Y-97889598D02*
X155114561Y-97913407D01*
X155114561Y-97913407D02*
X155162180Y-97937217D01*
X155162180Y-97937217D02*
X155209800Y-97984836D01*
X155209800Y-97984836D02*
X155233609Y-98056264D01*
X155233609Y-98056264D02*
X155233609Y-98175312D01*
X155090752Y-97699121D02*
X155090752Y-97461026D01*
X155233609Y-97746740D02*
X154733609Y-97580074D01*
X154733609Y-97580074D02*
X155233609Y-97413407D01*
X161350276Y-91850877D02*
X161683609Y-91850877D01*
X161159800Y-91969925D02*
X161516942Y-92088972D01*
X161516942Y-92088972D02*
X161516942Y-91779449D01*
X161635990Y-91588973D02*
X161659800Y-91565163D01*
X161659800Y-91565163D02*
X161683609Y-91588973D01*
X161683609Y-91588973D02*
X161659800Y-91612782D01*
X161659800Y-91612782D02*
X161635990Y-91588973D01*
X161635990Y-91588973D02*
X161683609Y-91588973D01*
X161183609Y-91398497D02*
X161183609Y-91065164D01*
X161183609Y-91065164D02*
X161683609Y-91279449D01*
X161683609Y-90874688D02*
X161183609Y-90874688D01*
X161493133Y-90827069D02*
X161683609Y-90684212D01*
X161350276Y-90684212D02*
X161540752Y-90874688D01*
X161726109Y-99547618D02*
X161726109Y-99833332D01*
X161726109Y-99690475D02*
X161226109Y-99690475D01*
X161226109Y-99690475D02*
X161297538Y-99738094D01*
X161297538Y-99738094D02*
X161345157Y-99785713D01*
X161345157Y-99785713D02*
X161368966Y-99833332D01*
X161226109Y-99238095D02*
X161226109Y-99190476D01*
X161226109Y-99190476D02*
X161249919Y-99142857D01*
X161249919Y-99142857D02*
X161273728Y-99119047D01*
X161273728Y-99119047D02*
X161321347Y-99095238D01*
X161321347Y-99095238D02*
X161416585Y-99071428D01*
X161416585Y-99071428D02*
X161535633Y-99071428D01*
X161535633Y-99071428D02*
X161630871Y-99095238D01*
X161630871Y-99095238D02*
X161678490Y-99119047D01*
X161678490Y-99119047D02*
X161702300Y-99142857D01*
X161702300Y-99142857D02*
X161726109Y-99190476D01*
X161726109Y-99190476D02*
X161726109Y-99238095D01*
X161726109Y-99238095D02*
X161702300Y-99285714D01*
X161702300Y-99285714D02*
X161678490Y-99309523D01*
X161678490Y-99309523D02*
X161630871Y-99333333D01*
X161630871Y-99333333D02*
X161535633Y-99357142D01*
X161535633Y-99357142D02*
X161416585Y-99357142D01*
X161416585Y-99357142D02*
X161321347Y-99333333D01*
X161321347Y-99333333D02*
X161273728Y-99309523D01*
X161273728Y-99309523D02*
X161249919Y-99285714D01*
X161249919Y-99285714D02*
X161226109Y-99238095D01*
X161726109Y-98857143D02*
X161226109Y-98857143D01*
X161535633Y-98809524D02*
X161726109Y-98666667D01*
X161392776Y-98666667D02*
X161583252Y-98857143D01*
X148259800Y-96151502D02*
X148283609Y-96080074D01*
X148283609Y-96080074D02*
X148283609Y-95961026D01*
X148283609Y-95961026D02*
X148259800Y-95913407D01*
X148259800Y-95913407D02*
X148235990Y-95889598D01*
X148235990Y-95889598D02*
X148188371Y-95865788D01*
X148188371Y-95865788D02*
X148140752Y-95865788D01*
X148140752Y-95865788D02*
X148093133Y-95889598D01*
X148093133Y-95889598D02*
X148069323Y-95913407D01*
X148069323Y-95913407D02*
X148045514Y-95961026D01*
X148045514Y-95961026D02*
X148021704Y-96056264D01*
X148021704Y-96056264D02*
X147997895Y-96103883D01*
X147997895Y-96103883D02*
X147974085Y-96127693D01*
X147974085Y-96127693D02*
X147926466Y-96151502D01*
X147926466Y-96151502D02*
X147878847Y-96151502D01*
X147878847Y-96151502D02*
X147831228Y-96127693D01*
X147831228Y-96127693D02*
X147807419Y-96103883D01*
X147807419Y-96103883D02*
X147783609Y-96056264D01*
X147783609Y-96056264D02*
X147783609Y-95937217D01*
X147783609Y-95937217D02*
X147807419Y-95865788D01*
X148235990Y-95365789D02*
X148259800Y-95389598D01*
X148259800Y-95389598D02*
X148283609Y-95461027D01*
X148283609Y-95461027D02*
X148283609Y-95508646D01*
X148283609Y-95508646D02*
X148259800Y-95580074D01*
X148259800Y-95580074D02*
X148212180Y-95627693D01*
X148212180Y-95627693D02*
X148164561Y-95651503D01*
X148164561Y-95651503D02*
X148069323Y-95675312D01*
X148069323Y-95675312D02*
X147997895Y-95675312D01*
X147997895Y-95675312D02*
X147902657Y-95651503D01*
X147902657Y-95651503D02*
X147855038Y-95627693D01*
X147855038Y-95627693D02*
X147807419Y-95580074D01*
X147807419Y-95580074D02*
X147783609Y-95508646D01*
X147783609Y-95508646D02*
X147783609Y-95461027D01*
X147783609Y-95461027D02*
X147807419Y-95389598D01*
X147807419Y-95389598D02*
X147831228Y-95365789D01*
X148283609Y-94913408D02*
X148283609Y-95151503D01*
X148283609Y-95151503D02*
X147783609Y-95151503D01*
X159874688Y-93790752D02*
X160112783Y-93790752D01*
X159827069Y-93933609D02*
X159993735Y-93433609D01*
X159993735Y-93433609D02*
X160160402Y-93933609D01*
X160303259Y-93481228D02*
X160327068Y-93457419D01*
X160327068Y-93457419D02*
X160374687Y-93433609D01*
X160374687Y-93433609D02*
X160493735Y-93433609D01*
X160493735Y-93433609D02*
X160541354Y-93457419D01*
X160541354Y-93457419D02*
X160565163Y-93481228D01*
X160565163Y-93481228D02*
X160588973Y-93528847D01*
X160588973Y-93528847D02*
X160588973Y-93576466D01*
X160588973Y-93576466D02*
X160565163Y-93647895D01*
X160565163Y-93647895D02*
X160279449Y-93933609D01*
X160279449Y-93933609D02*
X160588973Y-93933609D01*
X167619047Y-90149919D02*
X167571428Y-90126109D01*
X167571428Y-90126109D02*
X167499999Y-90126109D01*
X167499999Y-90126109D02*
X167428571Y-90149919D01*
X167428571Y-90149919D02*
X167380952Y-90197538D01*
X167380952Y-90197538D02*
X167357142Y-90245157D01*
X167357142Y-90245157D02*
X167333333Y-90340395D01*
X167333333Y-90340395D02*
X167333333Y-90411823D01*
X167333333Y-90411823D02*
X167357142Y-90507061D01*
X167357142Y-90507061D02*
X167380952Y-90554680D01*
X167380952Y-90554680D02*
X167428571Y-90602300D01*
X167428571Y-90602300D02*
X167499999Y-90626109D01*
X167499999Y-90626109D02*
X167547618Y-90626109D01*
X167547618Y-90626109D02*
X167619047Y-90602300D01*
X167619047Y-90602300D02*
X167642856Y-90578490D01*
X167642856Y-90578490D02*
X167642856Y-90411823D01*
X167642856Y-90411823D02*
X167547618Y-90411823D01*
X167857142Y-90626109D02*
X167857142Y-90126109D01*
X167857142Y-90126109D02*
X168142856Y-90626109D01*
X168142856Y-90626109D02*
X168142856Y-90126109D01*
X168380952Y-90626109D02*
X168380952Y-90126109D01*
X168380952Y-90126109D02*
X168500000Y-90126109D01*
X168500000Y-90126109D02*
X168571428Y-90149919D01*
X168571428Y-90149919D02*
X168619047Y-90197538D01*
X168619047Y-90197538D02*
X168642857Y-90245157D01*
X168642857Y-90245157D02*
X168666666Y-90340395D01*
X168666666Y-90340395D02*
X168666666Y-90411823D01*
X168666666Y-90411823D02*
X168642857Y-90507061D01*
X168642857Y-90507061D02*
X168619047Y-90554680D01*
X168619047Y-90554680D02*
X168571428Y-90602300D01*
X168571428Y-90602300D02*
X168500000Y-90626109D01*
X168500000Y-90626109D02*
X168380952Y-90626109D01*
X157874688Y-93790752D02*
X158112783Y-93790752D01*
X157827069Y-93933609D02*
X157993735Y-93433609D01*
X157993735Y-93433609D02*
X158160402Y-93933609D01*
X158588973Y-93933609D02*
X158303259Y-93933609D01*
X158446116Y-93933609D02*
X158446116Y-93433609D01*
X158446116Y-93433609D02*
X158398497Y-93505038D01*
X158398497Y-93505038D02*
X158350878Y-93552657D01*
X158350878Y-93552657D02*
X158303259Y-93576466D01*
X147807419Y-90908646D02*
X147783609Y-90956265D01*
X147783609Y-90956265D02*
X147783609Y-91027694D01*
X147783609Y-91027694D02*
X147807419Y-91099122D01*
X147807419Y-91099122D02*
X147855038Y-91146741D01*
X147855038Y-91146741D02*
X147902657Y-91170551D01*
X147902657Y-91170551D02*
X147997895Y-91194360D01*
X147997895Y-91194360D02*
X148069323Y-91194360D01*
X148069323Y-91194360D02*
X148164561Y-91170551D01*
X148164561Y-91170551D02*
X148212180Y-91146741D01*
X148212180Y-91146741D02*
X148259800Y-91099122D01*
X148259800Y-91099122D02*
X148283609Y-91027694D01*
X148283609Y-91027694D02*
X148283609Y-90980075D01*
X148283609Y-90980075D02*
X148259800Y-90908646D01*
X148259800Y-90908646D02*
X148235990Y-90884837D01*
X148235990Y-90884837D02*
X148069323Y-90884837D01*
X148069323Y-90884837D02*
X148069323Y-90980075D01*
X148283609Y-90670551D02*
X147783609Y-90670551D01*
X147783609Y-90670551D02*
X148283609Y-90384837D01*
X148283609Y-90384837D02*
X147783609Y-90384837D01*
X148283609Y-90146741D02*
X147783609Y-90146741D01*
X147783609Y-90146741D02*
X147783609Y-90027693D01*
X147783609Y-90027693D02*
X147807419Y-89956265D01*
X147807419Y-89956265D02*
X147855038Y-89908646D01*
X147855038Y-89908646D02*
X147902657Y-89884836D01*
X147902657Y-89884836D02*
X147997895Y-89861027D01*
X147997895Y-89861027D02*
X148069323Y-89861027D01*
X148069323Y-89861027D02*
X148164561Y-89884836D01*
X148164561Y-89884836D02*
X148212180Y-89908646D01*
X148212180Y-89908646D02*
X148259800Y-89956265D01*
X148259800Y-89956265D02*
X148283609Y-90027693D01*
X148283609Y-90027693D02*
X148283609Y-90146741D01*
X148283609Y-93489598D02*
X147783609Y-93489598D01*
X148283609Y-93251503D02*
X147783609Y-93251503D01*
X147783609Y-93251503D02*
X148283609Y-92965789D01*
X148283609Y-92965789D02*
X147783609Y-92965789D01*
X147783609Y-92799121D02*
X147783609Y-92513407D01*
X148283609Y-92656264D02*
X147783609Y-92656264D01*
X154733609Y-101125311D02*
X154733609Y-100815787D01*
X154733609Y-100815787D02*
X154924085Y-100982454D01*
X154924085Y-100982454D02*
X154924085Y-100911025D01*
X154924085Y-100911025D02*
X154947895Y-100863406D01*
X154947895Y-100863406D02*
X154971704Y-100839597D01*
X154971704Y-100839597D02*
X155019323Y-100815787D01*
X155019323Y-100815787D02*
X155138371Y-100815787D01*
X155138371Y-100815787D02*
X155185990Y-100839597D01*
X155185990Y-100839597D02*
X155209800Y-100863406D01*
X155209800Y-100863406D02*
X155233609Y-100911025D01*
X155233609Y-100911025D02*
X155233609Y-101053882D01*
X155233609Y-101053882D02*
X155209800Y-101101501D01*
X155209800Y-101101501D02*
X155185990Y-101125311D01*
X154733609Y-100672930D02*
X155233609Y-100506264D01*
X155233609Y-100506264D02*
X154733609Y-100339597D01*
X154733609Y-100220550D02*
X154733609Y-99911026D01*
X154733609Y-99911026D02*
X154924085Y-100077693D01*
X154924085Y-100077693D02*
X154924085Y-100006264D01*
X154924085Y-100006264D02*
X154947895Y-99958645D01*
X154947895Y-99958645D02*
X154971704Y-99934836D01*
X154971704Y-99934836D02*
X155019323Y-99911026D01*
X155019323Y-99911026D02*
X155138371Y-99911026D01*
X155138371Y-99911026D02*
X155185990Y-99934836D01*
X155185990Y-99934836D02*
X155209800Y-99958645D01*
X155209800Y-99958645D02*
X155233609Y-100006264D01*
X155233609Y-100006264D02*
X155233609Y-100149121D01*
X155233609Y-100149121D02*
X155209800Y-100196740D01*
X155209800Y-100196740D02*
X155185990Y-100220550D01*
X154757419Y-90908646D02*
X154733609Y-90956265D01*
X154733609Y-90956265D02*
X154733609Y-91027694D01*
X154733609Y-91027694D02*
X154757419Y-91099122D01*
X154757419Y-91099122D02*
X154805038Y-91146741D01*
X154805038Y-91146741D02*
X154852657Y-91170551D01*
X154852657Y-91170551D02*
X154947895Y-91194360D01*
X154947895Y-91194360D02*
X155019323Y-91194360D01*
X155019323Y-91194360D02*
X155114561Y-91170551D01*
X155114561Y-91170551D02*
X155162180Y-91146741D01*
X155162180Y-91146741D02*
X155209800Y-91099122D01*
X155209800Y-91099122D02*
X155233609Y-91027694D01*
X155233609Y-91027694D02*
X155233609Y-90980075D01*
X155233609Y-90980075D02*
X155209800Y-90908646D01*
X155209800Y-90908646D02*
X155185990Y-90884837D01*
X155185990Y-90884837D02*
X155019323Y-90884837D01*
X155019323Y-90884837D02*
X155019323Y-90980075D01*
X155233609Y-90670551D02*
X154733609Y-90670551D01*
X154733609Y-90670551D02*
X155233609Y-90384837D01*
X155233609Y-90384837D02*
X154733609Y-90384837D01*
X155233609Y-90146741D02*
X154733609Y-90146741D01*
X154733609Y-90146741D02*
X154733609Y-90027693D01*
X154733609Y-90027693D02*
X154757419Y-89956265D01*
X154757419Y-89956265D02*
X154805038Y-89908646D01*
X154805038Y-89908646D02*
X154852657Y-89884836D01*
X154852657Y-89884836D02*
X154947895Y-89861027D01*
X154947895Y-89861027D02*
X155019323Y-89861027D01*
X155019323Y-89861027D02*
X155114561Y-89884836D01*
X155114561Y-89884836D02*
X155162180Y-89908646D01*
X155162180Y-89908646D02*
X155209800Y-89956265D01*
X155209800Y-89956265D02*
X155233609Y-90027693D01*
X155233609Y-90027693D02*
X155233609Y-90146741D01*
X165428572Y-100076109D02*
X165142858Y-100076109D01*
X165285715Y-100076109D02*
X165285715Y-99576109D01*
X165285715Y-99576109D02*
X165238096Y-99647538D01*
X165238096Y-99647538D02*
X165190477Y-99695157D01*
X165190477Y-99695157D02*
X165142858Y-99718966D01*
X165738095Y-99576109D02*
X165785714Y-99576109D01*
X165785714Y-99576109D02*
X165833333Y-99599919D01*
X165833333Y-99599919D02*
X165857143Y-99623728D01*
X165857143Y-99623728D02*
X165880952Y-99671347D01*
X165880952Y-99671347D02*
X165904762Y-99766585D01*
X165904762Y-99766585D02*
X165904762Y-99885633D01*
X165904762Y-99885633D02*
X165880952Y-99980871D01*
X165880952Y-99980871D02*
X165857143Y-100028490D01*
X165857143Y-100028490D02*
X165833333Y-100052300D01*
X165833333Y-100052300D02*
X165785714Y-100076109D01*
X165785714Y-100076109D02*
X165738095Y-100076109D01*
X165738095Y-100076109D02*
X165690476Y-100052300D01*
X165690476Y-100052300D02*
X165666667Y-100028490D01*
X165666667Y-100028490D02*
X165642857Y-99980871D01*
X165642857Y-99980871D02*
X165619048Y-99885633D01*
X165619048Y-99885633D02*
X165619048Y-99766585D01*
X165619048Y-99766585D02*
X165642857Y-99671347D01*
X165642857Y-99671347D02*
X165666667Y-99623728D01*
X165666667Y-99623728D02*
X165690476Y-99599919D01*
X165690476Y-99599919D02*
X165738095Y-99576109D01*
X166119047Y-99742776D02*
X166119047Y-100242776D01*
X166357142Y-100004680D02*
X166380952Y-100052300D01*
X166380952Y-100052300D02*
X166428571Y-100076109D01*
X166119047Y-100004680D02*
X166142857Y-100052300D01*
X166142857Y-100052300D02*
X166190476Y-100076109D01*
X166190476Y-100076109D02*
X166285714Y-100076109D01*
X166285714Y-100076109D02*
X166333333Y-100052300D01*
X166333333Y-100052300D02*
X166357142Y-100004680D01*
X166357142Y-100004680D02*
X166357142Y-99742776D01*
X166809524Y-99814204D02*
X166642857Y-99814204D01*
X166642857Y-100076109D02*
X166642857Y-99576109D01*
X166642857Y-99576109D02*
X166880952Y-99576109D01*
X155233609Y-93489598D02*
X154733609Y-93489598D01*
X155233609Y-93251503D02*
X154733609Y-93251503D01*
X154733609Y-93251503D02*
X155233609Y-92965789D01*
X155233609Y-92965789D02*
X154733609Y-92965789D01*
X154733609Y-92799121D02*
X154733609Y-92513407D01*
X155233609Y-92656264D02*
X154733609Y-92656264D01*
X165226191Y-90926109D02*
X164940477Y-90926109D01*
X165083334Y-90926109D02*
X165083334Y-90426109D01*
X165083334Y-90426109D02*
X165035715Y-90497538D01*
X165035715Y-90497538D02*
X164988096Y-90545157D01*
X164988096Y-90545157D02*
X164940477Y-90568966D01*
X165535714Y-90426109D02*
X165583333Y-90426109D01*
X165583333Y-90426109D02*
X165630952Y-90449919D01*
X165630952Y-90449919D02*
X165654762Y-90473728D01*
X165654762Y-90473728D02*
X165678571Y-90521347D01*
X165678571Y-90521347D02*
X165702381Y-90616585D01*
X165702381Y-90616585D02*
X165702381Y-90735633D01*
X165702381Y-90735633D02*
X165678571Y-90830871D01*
X165678571Y-90830871D02*
X165654762Y-90878490D01*
X165654762Y-90878490D02*
X165630952Y-90902300D01*
X165630952Y-90902300D02*
X165583333Y-90926109D01*
X165583333Y-90926109D02*
X165535714Y-90926109D01*
X165535714Y-90926109D02*
X165488095Y-90902300D01*
X165488095Y-90902300D02*
X165464286Y-90878490D01*
X165464286Y-90878490D02*
X165440476Y-90830871D01*
X165440476Y-90830871D02*
X165416667Y-90735633D01*
X165416667Y-90735633D02*
X165416667Y-90616585D01*
X165416667Y-90616585D02*
X165440476Y-90521347D01*
X165440476Y-90521347D02*
X165464286Y-90473728D01*
X165464286Y-90473728D02*
X165488095Y-90449919D01*
X165488095Y-90449919D02*
X165535714Y-90426109D01*
X166011904Y-90426109D02*
X166059523Y-90426109D01*
X166059523Y-90426109D02*
X166107142Y-90449919D01*
X166107142Y-90449919D02*
X166130952Y-90473728D01*
X166130952Y-90473728D02*
X166154761Y-90521347D01*
X166154761Y-90521347D02*
X166178571Y-90616585D01*
X166178571Y-90616585D02*
X166178571Y-90735633D01*
X166178571Y-90735633D02*
X166154761Y-90830871D01*
X166154761Y-90830871D02*
X166130952Y-90878490D01*
X166130952Y-90878490D02*
X166107142Y-90902300D01*
X166107142Y-90902300D02*
X166059523Y-90926109D01*
X166059523Y-90926109D02*
X166011904Y-90926109D01*
X166011904Y-90926109D02*
X165964285Y-90902300D01*
X165964285Y-90902300D02*
X165940476Y-90878490D01*
X165940476Y-90878490D02*
X165916666Y-90830871D01*
X165916666Y-90830871D02*
X165892857Y-90735633D01*
X165892857Y-90735633D02*
X165892857Y-90616585D01*
X165892857Y-90616585D02*
X165916666Y-90521347D01*
X165916666Y-90521347D02*
X165940476Y-90473728D01*
X165940476Y-90473728D02*
X165964285Y-90449919D01*
X165964285Y-90449919D02*
X166011904Y-90426109D01*
X166392856Y-90592776D02*
X166392856Y-90926109D01*
X166392856Y-90640395D02*
X166416666Y-90616585D01*
X166416666Y-90616585D02*
X166464285Y-90592776D01*
X166464285Y-90592776D02*
X166535713Y-90592776D01*
X166535713Y-90592776D02*
X166583332Y-90616585D01*
X166583332Y-90616585D02*
X166607142Y-90664204D01*
X166607142Y-90664204D02*
X166607142Y-90926109D01*
X167011904Y-90664204D02*
X166845237Y-90664204D01*
X166845237Y-90926109D02*
X166845237Y-90426109D01*
X166845237Y-90426109D02*
X167083332Y-90426109D01*
X155209800Y-96151502D02*
X155233609Y-96080074D01*
X155233609Y-96080074D02*
X155233609Y-95961026D01*
X155233609Y-95961026D02*
X155209800Y-95913407D01*
X155209800Y-95913407D02*
X155185990Y-95889598D01*
X155185990Y-95889598D02*
X155138371Y-95865788D01*
X155138371Y-95865788D02*
X155090752Y-95865788D01*
X155090752Y-95865788D02*
X155043133Y-95889598D01*
X155043133Y-95889598D02*
X155019323Y-95913407D01*
X155019323Y-95913407D02*
X154995514Y-95961026D01*
X154995514Y-95961026D02*
X154971704Y-96056264D01*
X154971704Y-96056264D02*
X154947895Y-96103883D01*
X154947895Y-96103883D02*
X154924085Y-96127693D01*
X154924085Y-96127693D02*
X154876466Y-96151502D01*
X154876466Y-96151502D02*
X154828847Y-96151502D01*
X154828847Y-96151502D02*
X154781228Y-96127693D01*
X154781228Y-96127693D02*
X154757419Y-96103883D01*
X154757419Y-96103883D02*
X154733609Y-96056264D01*
X154733609Y-96056264D02*
X154733609Y-95937217D01*
X154733609Y-95937217D02*
X154757419Y-95865788D01*
X155185990Y-95365789D02*
X155209800Y-95389598D01*
X155209800Y-95389598D02*
X155233609Y-95461027D01*
X155233609Y-95461027D02*
X155233609Y-95508646D01*
X155233609Y-95508646D02*
X155209800Y-95580074D01*
X155209800Y-95580074D02*
X155162180Y-95627693D01*
X155162180Y-95627693D02*
X155114561Y-95651503D01*
X155114561Y-95651503D02*
X155019323Y-95675312D01*
X155019323Y-95675312D02*
X154947895Y-95675312D01*
X154947895Y-95675312D02*
X154852657Y-95651503D01*
X154852657Y-95651503D02*
X154805038Y-95627693D01*
X154805038Y-95627693D02*
X154757419Y-95580074D01*
X154757419Y-95580074D02*
X154733609Y-95508646D01*
X154733609Y-95508646D02*
X154733609Y-95461027D01*
X154733609Y-95461027D02*
X154757419Y-95389598D01*
X154757419Y-95389598D02*
X154781228Y-95365789D01*
X155233609Y-94913408D02*
X155233609Y-95151503D01*
X155233609Y-95151503D02*
X154733609Y-95151503D01*
X147783609Y-101125311D02*
X147783609Y-100815787D01*
X147783609Y-100815787D02*
X147974085Y-100982454D01*
X147974085Y-100982454D02*
X147974085Y-100911025D01*
X147974085Y-100911025D02*
X147997895Y-100863406D01*
X147997895Y-100863406D02*
X148021704Y-100839597D01*
X148021704Y-100839597D02*
X148069323Y-100815787D01*
X148069323Y-100815787D02*
X148188371Y-100815787D01*
X148188371Y-100815787D02*
X148235990Y-100839597D01*
X148235990Y-100839597D02*
X148259800Y-100863406D01*
X148259800Y-100863406D02*
X148283609Y-100911025D01*
X148283609Y-100911025D02*
X148283609Y-101053882D01*
X148283609Y-101053882D02*
X148259800Y-101101501D01*
X148259800Y-101101501D02*
X148235990Y-101125311D01*
X147783609Y-100672930D02*
X148283609Y-100506264D01*
X148283609Y-100506264D02*
X147783609Y-100339597D01*
X147783609Y-100220550D02*
X147783609Y-99911026D01*
X147783609Y-99911026D02*
X147974085Y-100077693D01*
X147974085Y-100077693D02*
X147974085Y-100006264D01*
X147974085Y-100006264D02*
X147997895Y-99958645D01*
X147997895Y-99958645D02*
X148021704Y-99934836D01*
X148021704Y-99934836D02*
X148069323Y-99911026D01*
X148069323Y-99911026D02*
X148188371Y-99911026D01*
X148188371Y-99911026D02*
X148235990Y-99934836D01*
X148235990Y-99934836D02*
X148259800Y-99958645D01*
X148259800Y-99958645D02*
X148283609Y-100006264D01*
X148283609Y-100006264D02*
X148283609Y-100149121D01*
X148283609Y-100149121D02*
X148259800Y-100196740D01*
X148259800Y-100196740D02*
X148235990Y-100220550D01*
X155874688Y-93790752D02*
X156112783Y-93790752D01*
X155827069Y-93933609D02*
X155993735Y-93433609D01*
X155993735Y-93433609D02*
X156160402Y-93933609D01*
X156422306Y-93433609D02*
X156469925Y-93433609D01*
X156469925Y-93433609D02*
X156517544Y-93457419D01*
X156517544Y-93457419D02*
X156541354Y-93481228D01*
X156541354Y-93481228D02*
X156565163Y-93528847D01*
X156565163Y-93528847D02*
X156588973Y-93624085D01*
X156588973Y-93624085D02*
X156588973Y-93743133D01*
X156588973Y-93743133D02*
X156565163Y-93838371D01*
X156565163Y-93838371D02*
X156541354Y-93885990D01*
X156541354Y-93885990D02*
X156517544Y-93909800D01*
X156517544Y-93909800D02*
X156469925Y-93933609D01*
X156469925Y-93933609D02*
X156422306Y-93933609D01*
X156422306Y-93933609D02*
X156374687Y-93909800D01*
X156374687Y-93909800D02*
X156350878Y-93885990D01*
X156350878Y-93885990D02*
X156327068Y-93838371D01*
X156327068Y-93838371D02*
X156303259Y-93743133D01*
X156303259Y-93743133D02*
X156303259Y-93624085D01*
X156303259Y-93624085D02*
X156327068Y-93528847D01*
X156327068Y-93528847D02*
X156350878Y-93481228D01*
X156350878Y-93481228D02*
X156374687Y-93457419D01*
X156374687Y-93457419D02*
X156422306Y-93433609D01*
X167380953Y-100326109D02*
X167690477Y-100326109D01*
X167690477Y-100326109D02*
X167523810Y-100516585D01*
X167523810Y-100516585D02*
X167595239Y-100516585D01*
X167595239Y-100516585D02*
X167642858Y-100540395D01*
X167642858Y-100540395D02*
X167666667Y-100564204D01*
X167666667Y-100564204D02*
X167690477Y-100611823D01*
X167690477Y-100611823D02*
X167690477Y-100730871D01*
X167690477Y-100730871D02*
X167666667Y-100778490D01*
X167666667Y-100778490D02*
X167642858Y-100802300D01*
X167642858Y-100802300D02*
X167595239Y-100826109D01*
X167595239Y-100826109D02*
X167452382Y-100826109D01*
X167452382Y-100826109D02*
X167404763Y-100802300D01*
X167404763Y-100802300D02*
X167380953Y-100778490D01*
X167833334Y-100326109D02*
X168000000Y-100826109D01*
X168000000Y-100826109D02*
X168166667Y-100326109D01*
X168285714Y-100326109D02*
X168595238Y-100326109D01*
X168595238Y-100326109D02*
X168428571Y-100516585D01*
X168428571Y-100516585D02*
X168500000Y-100516585D01*
X168500000Y-100516585D02*
X168547619Y-100540395D01*
X168547619Y-100540395D02*
X168571428Y-100564204D01*
X168571428Y-100564204D02*
X168595238Y-100611823D01*
X168595238Y-100611823D02*
X168595238Y-100730871D01*
X168595238Y-100730871D02*
X168571428Y-100778490D01*
X168571428Y-100778490D02*
X168547619Y-100802300D01*
X168547619Y-100802300D02*
X168500000Y-100826109D01*
X168500000Y-100826109D02*
X168357143Y-100826109D01*
X168357143Y-100826109D02*
X168309524Y-100802300D01*
X168309524Y-100802300D02*
X168285714Y-100778490D01*
X158166666Y-97726109D02*
X158000000Y-97488014D01*
X157880952Y-97726109D02*
X157880952Y-97226109D01*
X157880952Y-97226109D02*
X158071428Y-97226109D01*
X158071428Y-97226109D02*
X158119047Y-97249919D01*
X158119047Y-97249919D02*
X158142857Y-97273728D01*
X158142857Y-97273728D02*
X158166666Y-97321347D01*
X158166666Y-97321347D02*
X158166666Y-97392776D01*
X158166666Y-97392776D02*
X158142857Y-97440395D01*
X158142857Y-97440395D02*
X158119047Y-97464204D01*
X158119047Y-97464204D02*
X158071428Y-97488014D01*
X158071428Y-97488014D02*
X157880952Y-97488014D01*
X158619047Y-97226109D02*
X158380952Y-97226109D01*
X158380952Y-97226109D02*
X158357143Y-97464204D01*
X158357143Y-97464204D02*
X158380952Y-97440395D01*
X158380952Y-97440395D02*
X158428571Y-97416585D01*
X158428571Y-97416585D02*
X158547619Y-97416585D01*
X158547619Y-97416585D02*
X158595238Y-97440395D01*
X158595238Y-97440395D02*
X158619047Y-97464204D01*
X158619047Y-97464204D02*
X158642857Y-97511823D01*
X158642857Y-97511823D02*
X158642857Y-97630871D01*
X158642857Y-97630871D02*
X158619047Y-97678490D01*
X158619047Y-97678490D02*
X158595238Y-97702300D01*
X158595238Y-97702300D02*
X158547619Y-97726109D01*
X158547619Y-97726109D02*
X158428571Y-97726109D01*
X158428571Y-97726109D02*
X158380952Y-97702300D01*
X158380952Y-97702300D02*
X158357143Y-97678490D01*
X160166666Y-89726109D02*
X160000000Y-89488014D01*
X159880952Y-89726109D02*
X159880952Y-89226109D01*
X159880952Y-89226109D02*
X160071428Y-89226109D01*
X160071428Y-89226109D02*
X160119047Y-89249919D01*
X160119047Y-89249919D02*
X160142857Y-89273728D01*
X160142857Y-89273728D02*
X160166666Y-89321347D01*
X160166666Y-89321347D02*
X160166666Y-89392776D01*
X160166666Y-89392776D02*
X160142857Y-89440395D01*
X160142857Y-89440395D02*
X160119047Y-89464204D01*
X160119047Y-89464204D02*
X160071428Y-89488014D01*
X160071428Y-89488014D02*
X159880952Y-89488014D01*
X160642857Y-89726109D02*
X160357143Y-89726109D01*
X160500000Y-89726109D02*
X160500000Y-89226109D01*
X160500000Y-89226109D02*
X160452381Y-89297538D01*
X160452381Y-89297538D02*
X160404762Y-89345157D01*
X160404762Y-89345157D02*
X160357143Y-89368966D01*
X158166666Y-89726109D02*
X158000000Y-89488014D01*
X157880952Y-89726109D02*
X157880952Y-89226109D01*
X157880952Y-89226109D02*
X158071428Y-89226109D01*
X158071428Y-89226109D02*
X158119047Y-89249919D01*
X158119047Y-89249919D02*
X158142857Y-89273728D01*
X158142857Y-89273728D02*
X158166666Y-89321347D01*
X158166666Y-89321347D02*
X158166666Y-89392776D01*
X158166666Y-89392776D02*
X158142857Y-89440395D01*
X158142857Y-89440395D02*
X158119047Y-89464204D01*
X158119047Y-89464204D02*
X158071428Y-89488014D01*
X158071428Y-89488014D02*
X157880952Y-89488014D01*
X158357143Y-89273728D02*
X158380952Y-89249919D01*
X158380952Y-89249919D02*
X158428571Y-89226109D01*
X158428571Y-89226109D02*
X158547619Y-89226109D01*
X158547619Y-89226109D02*
X158595238Y-89249919D01*
X158595238Y-89249919D02*
X158619047Y-89273728D01*
X158619047Y-89273728D02*
X158642857Y-89321347D01*
X158642857Y-89321347D02*
X158642857Y-89368966D01*
X158642857Y-89368966D02*
X158619047Y-89440395D01*
X158619047Y-89440395D02*
X158333333Y-89726109D01*
X158333333Y-89726109D02*
X158642857Y-89726109D01*
D11*
X164233095Y-94704819D02*
X164233095Y-95514342D01*
X164233095Y-95514342D02*
X164280714Y-95609580D01*
X164280714Y-95609580D02*
X164328333Y-95657200D01*
X164328333Y-95657200D02*
X164423571Y-95704819D01*
X164423571Y-95704819D02*
X164614047Y-95704819D01*
X164614047Y-95704819D02*
X164709285Y-95657200D01*
X164709285Y-95657200D02*
X164756904Y-95609580D01*
X164756904Y-95609580D02*
X164804523Y-95514342D01*
X164804523Y-95514342D02*
X164804523Y-94704819D01*
X165804523Y-95704819D02*
X165233095Y-95704819D01*
X165518809Y-95704819D02*
X165518809Y-94704819D01*
X165518809Y-94704819D02*
X165423571Y-94847676D01*
X165423571Y-94847676D02*
X165328333Y-94942914D01*
X165328333Y-94942914D02*
X165233095Y-94990533D01*
D10*
X160166666Y-97726109D02*
X160000000Y-97488014D01*
X159880952Y-97726109D02*
X159880952Y-97226109D01*
X159880952Y-97226109D02*
X160071428Y-97226109D01*
X160071428Y-97226109D02*
X160119047Y-97249919D01*
X160119047Y-97249919D02*
X160142857Y-97273728D01*
X160142857Y-97273728D02*
X160166666Y-97321347D01*
X160166666Y-97321347D02*
X160166666Y-97392776D01*
X160166666Y-97392776D02*
X160142857Y-97440395D01*
X160142857Y-97440395D02*
X160119047Y-97464204D01*
X160119047Y-97464204D02*
X160071428Y-97488014D01*
X160071428Y-97488014D02*
X159880952Y-97488014D01*
X160595238Y-97226109D02*
X160500000Y-97226109D01*
X160500000Y-97226109D02*
X160452381Y-97249919D01*
X160452381Y-97249919D02*
X160428571Y-97273728D01*
X160428571Y-97273728D02*
X160380952Y-97345157D01*
X160380952Y-97345157D02*
X160357143Y-97440395D01*
X160357143Y-97440395D02*
X160357143Y-97630871D01*
X160357143Y-97630871D02*
X160380952Y-97678490D01*
X160380952Y-97678490D02*
X160404762Y-97702300D01*
X160404762Y-97702300D02*
X160452381Y-97726109D01*
X160452381Y-97726109D02*
X160547619Y-97726109D01*
X160547619Y-97726109D02*
X160595238Y-97702300D01*
X160595238Y-97702300D02*
X160619047Y-97678490D01*
X160619047Y-97678490D02*
X160642857Y-97630871D01*
X160642857Y-97630871D02*
X160642857Y-97511823D01*
X160642857Y-97511823D02*
X160619047Y-97464204D01*
X160619047Y-97464204D02*
X160595238Y-97440395D01*
X160595238Y-97440395D02*
X160547619Y-97416585D01*
X160547619Y-97416585D02*
X160452381Y-97416585D01*
X160452381Y-97416585D02*
X160404762Y-97440395D01*
X160404762Y-97440395D02*
X160380952Y-97464204D01*
X160380952Y-97464204D02*
X160357143Y-97511823D01*
X156166666Y-89726109D02*
X156000000Y-89488014D01*
X155880952Y-89726109D02*
X155880952Y-89226109D01*
X155880952Y-89226109D02*
X156071428Y-89226109D01*
X156071428Y-89226109D02*
X156119047Y-89249919D01*
X156119047Y-89249919D02*
X156142857Y-89273728D01*
X156142857Y-89273728D02*
X156166666Y-89321347D01*
X156166666Y-89321347D02*
X156166666Y-89392776D01*
X156166666Y-89392776D02*
X156142857Y-89440395D01*
X156142857Y-89440395D02*
X156119047Y-89464204D01*
X156119047Y-89464204D02*
X156071428Y-89488014D01*
X156071428Y-89488014D02*
X155880952Y-89488014D01*
X156333333Y-89226109D02*
X156642857Y-89226109D01*
X156642857Y-89226109D02*
X156476190Y-89416585D01*
X156476190Y-89416585D02*
X156547619Y-89416585D01*
X156547619Y-89416585D02*
X156595238Y-89440395D01*
X156595238Y-89440395D02*
X156619047Y-89464204D01*
X156619047Y-89464204D02*
X156642857Y-89511823D01*
X156642857Y-89511823D02*
X156642857Y-89630871D01*
X156642857Y-89630871D02*
X156619047Y-89678490D01*
X156619047Y-89678490D02*
X156595238Y-89702300D01*
X156595238Y-89702300D02*
X156547619Y-89726109D01*
X156547619Y-89726109D02*
X156404762Y-89726109D01*
X156404762Y-89726109D02*
X156357143Y-89702300D01*
X156357143Y-89702300D02*
X156333333Y-89678490D01*
X163916666Y-90878490D02*
X163892857Y-90902300D01*
X163892857Y-90902300D02*
X163821428Y-90926109D01*
X163821428Y-90926109D02*
X163773809Y-90926109D01*
X163773809Y-90926109D02*
X163702381Y-90902300D01*
X163702381Y-90902300D02*
X163654762Y-90854680D01*
X163654762Y-90854680D02*
X163630952Y-90807061D01*
X163630952Y-90807061D02*
X163607143Y-90711823D01*
X163607143Y-90711823D02*
X163607143Y-90640395D01*
X163607143Y-90640395D02*
X163630952Y-90545157D01*
X163630952Y-90545157D02*
X163654762Y-90497538D01*
X163654762Y-90497538D02*
X163702381Y-90449919D01*
X163702381Y-90449919D02*
X163773809Y-90426109D01*
X163773809Y-90426109D02*
X163821428Y-90426109D01*
X163821428Y-90426109D02*
X163892857Y-90449919D01*
X163892857Y-90449919D02*
X163916666Y-90473728D01*
X164392857Y-90926109D02*
X164107143Y-90926109D01*
X164250000Y-90926109D02*
X164250000Y-90426109D01*
X164250000Y-90426109D02*
X164202381Y-90497538D01*
X164202381Y-90497538D02*
X164154762Y-90545157D01*
X164154762Y-90545157D02*
X164107143Y-90568966D01*
X163916666Y-100028490D02*
X163892857Y-100052300D01*
X163892857Y-100052300D02*
X163821428Y-100076109D01*
X163821428Y-100076109D02*
X163773809Y-100076109D01*
X163773809Y-100076109D02*
X163702381Y-100052300D01*
X163702381Y-100052300D02*
X163654762Y-100004680D01*
X163654762Y-100004680D02*
X163630952Y-99957061D01*
X163630952Y-99957061D02*
X163607143Y-99861823D01*
X163607143Y-99861823D02*
X163607143Y-99790395D01*
X163607143Y-99790395D02*
X163630952Y-99695157D01*
X163630952Y-99695157D02*
X163654762Y-99647538D01*
X163654762Y-99647538D02*
X163702381Y-99599919D01*
X163702381Y-99599919D02*
X163773809Y-99576109D01*
X163773809Y-99576109D02*
X163821428Y-99576109D01*
X163821428Y-99576109D02*
X163892857Y-99599919D01*
X163892857Y-99599919D02*
X163916666Y-99623728D01*
X164107143Y-99623728D02*
X164130952Y-99599919D01*
X164130952Y-99599919D02*
X164178571Y-99576109D01*
X164178571Y-99576109D02*
X164297619Y-99576109D01*
X164297619Y-99576109D02*
X164345238Y-99599919D01*
X164345238Y-99599919D02*
X164369047Y-99623728D01*
X164369047Y-99623728D02*
X164392857Y-99671347D01*
X164392857Y-99671347D02*
X164392857Y-99718966D01*
X164392857Y-99718966D02*
X164369047Y-99790395D01*
X164369047Y-99790395D02*
X164083333Y-100076109D01*
X164083333Y-100076109D02*
X164392857Y-100076109D01*
X156166666Y-97726109D02*
X156000000Y-97488014D01*
X155880952Y-97726109D02*
X155880952Y-97226109D01*
X155880952Y-97226109D02*
X156071428Y-97226109D01*
X156071428Y-97226109D02*
X156119047Y-97249919D01*
X156119047Y-97249919D02*
X156142857Y-97273728D01*
X156142857Y-97273728D02*
X156166666Y-97321347D01*
X156166666Y-97321347D02*
X156166666Y-97392776D01*
X156166666Y-97392776D02*
X156142857Y-97440395D01*
X156142857Y-97440395D02*
X156119047Y-97464204D01*
X156119047Y-97464204D02*
X156071428Y-97488014D01*
X156071428Y-97488014D02*
X155880952Y-97488014D01*
X156595238Y-97392776D02*
X156595238Y-97726109D01*
X156476190Y-97202300D02*
X156357143Y-97559442D01*
X156357143Y-97559442D02*
X156666666Y-97559442D01*
D12*
%TO.C,JP2*%
X157550000Y-94200000D02*
X158950000Y-94200000D01*
X157550000Y-96800000D02*
X157550000Y-94200000D01*
X158950000Y-94200000D02*
X158950000Y-96800000D01*
X158950000Y-96800000D02*
X157550000Y-96800000D01*
%TO.C,R5*%
X157515000Y-99727064D02*
X157515000Y-99272936D01*
X158985000Y-99727064D02*
X158985000Y-99272936D01*
%TO.C,R1*%
X159515000Y-91727064D02*
X159515000Y-91272936D01*
X160985000Y-91727064D02*
X160985000Y-91272936D01*
%TO.C,JP1*%
X155550000Y-94200000D02*
X156950000Y-94200000D01*
X155550000Y-96800000D02*
X155550000Y-94200000D01*
X156950000Y-94200000D02*
X156950000Y-96800000D01*
X156950000Y-96800000D02*
X155550000Y-96800000D01*
%TO.C,J1*%
X141590000Y-87940000D02*
X141590000Y-103060000D01*
X141590000Y-103060000D02*
X147560000Y-103060000D01*
X142350000Y-88700000D02*
X142350000Y-95500000D01*
X142350000Y-102300000D02*
X142350000Y-95500000D01*
X145300000Y-87950000D02*
X145300000Y-88700000D01*
X145300000Y-88700000D02*
X142350000Y-88700000D01*
X145300000Y-102300000D02*
X142350000Y-102300000D01*
X145300000Y-103050000D02*
X145300000Y-102300000D01*
X146800000Y-87950000D02*
X146800000Y-89750000D01*
X146800000Y-89750000D02*
X147550000Y-89750000D01*
X146800000Y-91250000D02*
X146800000Y-99750000D01*
X146800000Y-99750000D02*
X147550000Y-99750000D01*
X146800000Y-101250000D02*
X146800000Y-103050000D01*
X146800000Y-103050000D02*
X147550000Y-103050000D01*
X147550000Y-87950000D02*
X146800000Y-87950000D01*
X147550000Y-89750000D02*
X147550000Y-87950000D01*
X147550000Y-91250000D02*
X146800000Y-91250000D01*
X147550000Y-99750000D02*
X147550000Y-91250000D01*
X147550000Y-101250000D02*
X146800000Y-101250000D01*
X147550000Y-103050000D02*
X147550000Y-101250000D01*
X147560000Y-87940000D02*
X141590000Y-87940000D01*
X147560000Y-103060000D02*
X147560000Y-87940000D01*
%TO.C,R2*%
X157515000Y-91727064D02*
X157515000Y-91272936D01*
X158985000Y-91727064D02*
X158985000Y-91272936D01*
%TO.C,U1*%
X162440000Y-93190000D02*
X162535000Y-93190000D01*
X162440000Y-97310000D02*
X162440000Y-93190000D01*
X162535000Y-97310000D02*
X162440000Y-97310000D01*
X167465000Y-93190000D02*
X167560000Y-93190000D01*
X167560000Y-93190000D02*
X167560000Y-97310000D01*
X167560000Y-97310000D02*
X167465000Y-97310000D01*
X167800000Y-92890000D02*
X167470000Y-92650000D01*
X167800000Y-92410000D01*
X167800000Y-92890000D01*
G36*
X167800000Y-92890000D02*
G01*
X167470000Y-92650000D01*
X167800000Y-92410000D01*
X167800000Y-92890000D01*
G37*
%TO.C,R6*%
X159515000Y-99727064D02*
X159515000Y-99272936D01*
X160985000Y-99727064D02*
X160985000Y-99272936D01*
%TO.C,R3*%
X155515000Y-91727064D02*
X155515000Y-91272936D01*
X156985000Y-91727064D02*
X156985000Y-91272936D01*
%TO.C,C1*%
X164738748Y-88765000D02*
X165261252Y-88765000D01*
X164738748Y-90235000D02*
X165261252Y-90235000D01*
%TO.C,TP2*%
X168700000Y-101750000D02*
G75*
G02*
X167300000Y-101750000I-700000J0D01*
G01*
X167300000Y-101750000D02*
G75*
G02*
X168700000Y-101750000I700000J0D01*
G01*
%TO.C,JP3*%
X159550000Y-94200000D02*
X160950000Y-94200000D01*
X159550000Y-96800000D02*
X159550000Y-94200000D01*
X160950000Y-94200000D02*
X160950000Y-96800000D01*
X160950000Y-96800000D02*
X159550000Y-96800000D01*
%TO.C,TP1*%
X168700000Y-89250000D02*
G75*
G02*
X167300000Y-89250000I-700000J0D01*
G01*
X167300000Y-89250000D02*
G75*
G02*
X168700000Y-89250000I700000J0D01*
G01*
%TO.C,J2*%
X148490000Y-87940000D02*
X148490000Y-103060000D01*
X148490000Y-103060000D02*
X154460000Y-103060000D01*
X149250000Y-88700000D02*
X149250000Y-95500000D01*
X149250000Y-102300000D02*
X149250000Y-95500000D01*
X152200000Y-87950000D02*
X152200000Y-88700000D01*
X152200000Y-88700000D02*
X149250000Y-88700000D01*
X152200000Y-102300000D02*
X149250000Y-102300000D01*
X152200000Y-103050000D02*
X152200000Y-102300000D01*
X153700000Y-87950000D02*
X153700000Y-89750000D01*
X153700000Y-89750000D02*
X154450000Y-89750000D01*
X153700000Y-91250000D02*
X153700000Y-99750000D01*
X153700000Y-99750000D02*
X154450000Y-99750000D01*
X153700000Y-101250000D02*
X153700000Y-103050000D01*
X153700000Y-103050000D02*
X154450000Y-103050000D01*
X154450000Y-87950000D02*
X153700000Y-87950000D01*
X154450000Y-89750000D02*
X154450000Y-87950000D01*
X154450000Y-91250000D02*
X153700000Y-91250000D01*
X154450000Y-99750000D02*
X154450000Y-91250000D01*
X154450000Y-101250000D02*
X153700000Y-101250000D01*
X154450000Y-103050000D02*
X154450000Y-101250000D01*
X154460000Y-87940000D02*
X148490000Y-87940000D01*
X154460000Y-103060000D02*
X154460000Y-87940000D01*
%TO.C,C2*%
X165261252Y-100265000D02*
X164738748Y-100265000D01*
X165261252Y-101735000D02*
X164738748Y-101735000D01*
%TO.C,R4*%
X155515000Y-99727064D02*
X155515000Y-99272936D01*
X156985000Y-99727064D02*
X156985000Y-99272936D01*
%TD*%
M02*
