%TF.GenerationSoftware,KiCad,Pcbnew,9.0.7+1*%
%TF.CreationDate,2026-03-01T17:33:32+01:00*%
%TF.ProjectId,sensor_temperature,73656e73-6f72-45f7-9465-6d7065726174,rev?*%
%TF.SameCoordinates,Original*%
%TF.FileFunction,Copper,L1,Top*%
%TF.FilePolarity,Positive*%
%FSLAX46Y46*%
G04 Gerber Fmt 4.6, Leading zero omitted, Abs format (unit mm)*
G04 Created by KiCad (PCBNEW 9.0.7+1) date 2026-03-01 17:33:32*
%MOMM*%
%LPD*%
G01*
G04 APERTURE LIST*
G04 Aperture macros list*
%AMRoundRect*
0 Rectangle with rounded corners*
0 $1 Rounding radius*
0 $2 $3 $4 $5 $6 $7 $8 $9 X,Y pos of 4 corners*
0 Add a 4 corners polygon primitive as box body*
4,1,4,$2,$3,$4,$5,$6,$7,$8,$9,$2,$3,0*
0 Add four circle primitives for the rounded corners*
1,1,$1+$1,$2,$3*
1,1,$1+$1,$4,$5*
1,1,$1+$1,$6,$7*
1,1,$1+$1,$8,$9*
0 Add four rect primitives between the rounded corners*
20,1,$1+$1,$2,$3,$4,$5,0*
20,1,$1+$1,$4,$5,$6,$7,0*
20,1,$1+$1,$6,$7,$8,$9,0*
20,1,$1+$1,$8,$9,$2,$3,0*%
%AMFreePoly0*
4,1,6,1.000000,0.000000,0.500000,-0.650000,-0.500000,-0.650000,-0.500000,0.650000,0.500000,0.650000,1.000000,0.000000,1.000000,0.000000,$1*%
%AMFreePoly1*
4,1,6,0.500000,-0.650000,-0.650000,-0.650000,-0.150000,0.000000,-0.650000,0.650000,0.500000,0.650000,0.500000,-0.650000,0.500000,-0.650000,$1*%
G04 Aperture macros list end*
%TA.AperFunction,SMDPad,CuDef*%
%ADD10FreePoly0,90.000000*%
%TD*%
%TA.AperFunction,SMDPad,CuDef*%
%ADD11FreePoly1,90.000000*%
%TD*%
%TA.AperFunction,SMDPad,CuDef*%
%ADD12RoundRect,0.250000X0.450000X-0.350000X0.450000X0.350000X-0.450000X0.350000X-0.450000X-0.350000X0*%
%TD*%
%TA.AperFunction,SMDPad,CuDef*%
%ADD13RoundRect,0.229166X0.470834X-0.320834X0.470834X0.320834X-0.470834X0.320834X-0.470834X-0.320834X0*%
%TD*%
%TA.AperFunction,ComponentPad*%
%ADD14RoundRect,0.250000X-0.725000X0.600000X-0.725000X-0.600000X0.725000X-0.600000X0.725000X0.600000X0*%
%TD*%
%TA.AperFunction,ComponentPad*%
%ADD15O,1.950000X1.700000*%
%TD*%
%TA.AperFunction,SMDPad,CuDef*%
%ADD16RoundRect,0.150000X-0.150000X0.825000X-0.150000X-0.825000X0.150000X-0.825000X0.150000X0.825000X0*%
%TD*%
%TA.AperFunction,SMDPad,CuDef*%
%ADD17RoundRect,0.250000X-0.337500X-0.475000X0.337500X-0.475000X0.337500X0.475000X-0.337500X0.475000X0*%
%TD*%
%TA.AperFunction,SMDPad,CuDef*%
%ADD18C,1.000000*%
%TD*%
%TA.AperFunction,SMDPad,CuDef*%
%ADD19RoundRect,0.250000X0.337500X0.475000X-0.337500X0.475000X-0.337500X-0.475000X0.337500X-0.475000X0*%
%TD*%
%TA.AperFunction,Conductor*%
%ADD20C,0.200000*%
%TD*%
%TA.AperFunction,Conductor*%
%ADD21C,0.600000*%
%TD*%
G04 APERTURE END LIST*
D10*
%TO.P,JP2,1,A*%
%TO.N,Net-(JP2-A)*%
X158250000Y-96225000D03*
D11*
%TO.P,JP2,2,B*%
%TO.N,+3V3*%
X158250000Y-94775000D03*
%TD*%
D12*
%TO.P,R5,1*%
%TO.N,GND*%
X158250000Y-100500000D03*
D13*
%TO.P,R5,2*%
%TO.N,Net-(JP2-A)*%
X158250000Y-98450000D03*
%TD*%
%TO.P,R1,1*%
%TO.N,Net-(J1-Pin_4)*%
X160250000Y-92550000D03*
D12*
%TO.P,R1,2*%
%TO.N,+3V3*%
X160250000Y-90500000D03*
%TD*%
D10*
%TO.P,JP1,1,A*%
%TO.N,Net-(JP1-A)*%
X156250000Y-96225000D03*
D11*
%TO.P,JP1,2,B*%
%TO.N,+3V3*%
X156250000Y-94775000D03*
%TD*%
D14*
%TO.P,J1,1,Pin_1*%
%TO.N,GND*%
X145100000Y-90500000D03*
D15*
%TO.P,J1,2,Pin_2*%
%TO.N,Net-(J1-Pin_2)*%
X145100000Y-93000000D03*
%TO.P,J1,3,Pin_3*%
%TO.N,Net-(J1-Pin_3)*%
X145100000Y-95500000D03*
%TO.P,J1,4,Pin_4*%
%TO.N,Net-(J1-Pin_4)*%
X145100000Y-98000000D03*
%TO.P,J1,5,Pin_5*%
%TO.N,+3V3*%
X145100000Y-100500000D03*
%TD*%
D13*
%TO.P,R2,1*%
%TO.N,Net-(J1-Pin_3)*%
X158250000Y-92550000D03*
D12*
%TO.P,R2,2*%
%TO.N,+3V3*%
X158250000Y-90500000D03*
%TD*%
D16*
%TO.P,U1,1,SDA*%
%TO.N,Net-(J1-Pin_4)*%
X166905000Y-92775000D03*
%TO.P,U1,2,SCL*%
%TO.N,Net-(J1-Pin_3)*%
X165635000Y-92775000D03*
%TO.P,U1,3,O.S.*%
%TO.N,Net-(J1-Pin_2)*%
X164365000Y-92775000D03*
%TO.P,U1,4,GND*%
%TO.N,GND*%
X163095000Y-92775000D03*
%TO.P,U1,5,A2*%
%TO.N,Net-(JP3-A)*%
X163095000Y-97725000D03*
%TO.P,U1,6,A1*%
%TO.N,Net-(JP2-A)*%
X164365000Y-97725000D03*
%TO.P,U1,7,A0*%
%TO.N,Net-(JP1-A)*%
X165635000Y-97725000D03*
%TO.P,U1,8,+Vs*%
%TO.N,+3V3*%
X166905000Y-97725000D03*
%TD*%
D12*
%TO.P,R6,1*%
%TO.N,GND*%
X160250000Y-100500000D03*
D13*
%TO.P,R6,2*%
%TO.N,Net-(JP3-A)*%
X160250000Y-98450000D03*
%TD*%
%TO.P,R3,1*%
%TO.N,Net-(J1-Pin_2)*%
X156250000Y-92550000D03*
D12*
%TO.P,R3,2*%
%TO.N,+3V3*%
X156250000Y-90500000D03*
%TD*%
D17*
%TO.P,C1,1*%
%TO.N,GND*%
X163962500Y-89500000D03*
%TO.P,C1,2*%
%TO.N,+3V3*%
X166037500Y-89500000D03*
%TD*%
D18*
%TO.P,TP2,1,1*%
%TO.N,+3V3*%
X168000000Y-101750000D03*
%TD*%
D10*
%TO.P,JP3,1,A*%
%TO.N,Net-(JP3-A)*%
X160250000Y-96225000D03*
D11*
%TO.P,JP3,2,B*%
%TO.N,+3V3*%
X160250000Y-94775000D03*
%TD*%
D18*
%TO.P,TP1,1,1*%
%TO.N,GND*%
X168000000Y-89250000D03*
%TD*%
D14*
%TO.P,J2,1,Pin_1*%
%TO.N,GND*%
X152000000Y-90500000D03*
D15*
%TO.P,J2,2,Pin_2*%
%TO.N,Net-(J1-Pin_2)*%
X152000000Y-93000000D03*
%TO.P,J2,3,Pin_3*%
%TO.N,Net-(J1-Pin_3)*%
X152000000Y-95500000D03*
%TO.P,J2,4,Pin_4*%
%TO.N,Net-(J1-Pin_4)*%
X152000000Y-98000000D03*
%TO.P,J2,5,Pin_5*%
%TO.N,+3V3*%
X152000000Y-100500000D03*
%TD*%
D19*
%TO.P,C2,1*%
%TO.N,GND*%
X166037500Y-101000000D03*
%TO.P,C2,2*%
%TO.N,+3V3*%
X163962500Y-101000000D03*
%TD*%
D12*
%TO.P,R4,1*%
%TO.N,GND*%
X156250000Y-100500000D03*
D13*
%TO.P,R4,2*%
%TO.N,Net-(JP1-A)*%
X156250000Y-98450000D03*
%TD*%
D20*
%TO.N,Net-(JP2-A)*%
X158250000Y-98450000D02*
X159000000Y-99200000D01*
X164365000Y-98435000D02*
X164365000Y-97725000D01*
X159000000Y-99200000D02*
X161100000Y-99200000D01*
X163800000Y-99000000D02*
X164365000Y-98435000D01*
X161100000Y-99200000D02*
X161300000Y-99000000D01*
X161300000Y-99000000D02*
X163800000Y-99000000D01*
%TO.N,Net-(JP3-A)*%
X160250000Y-98450000D02*
X160250000Y-96225000D01*
%TO.N,Net-(J1-Pin_4)*%
X154076000Y-95391100D02*
X154076000Y-96724000D01*
X161291000Y-93291000D02*
X161291000Y-94289268D01*
X152800000Y-98000000D02*
X152000000Y-98000000D01*
X160250000Y-92325000D02*
X160336732Y-92325000D01*
X160250000Y-92500000D02*
X160075000Y-92500000D01*
D21*
X145100000Y-98000000D02*
X152000000Y-98000000D01*
D20*
X160325000Y-92325000D02*
X161291000Y-93291000D01*
X165390999Y-95254000D02*
X166905000Y-93739999D01*
X166905000Y-93739999D02*
X166905000Y-92775000D01*
X161291000Y-94289268D02*
X162255732Y-95254000D01*
X154076000Y-96724000D02*
X152800000Y-98000000D01*
X162255732Y-95254000D02*
X165390999Y-95254000D01*
X158575000Y-94000000D02*
X155467100Y-94000000D01*
X155467100Y-94000000D02*
X154076000Y-95391100D01*
X160250000Y-92325000D02*
X160325000Y-92325000D01*
X160075000Y-92500000D02*
X158575000Y-94000000D01*
%TO.N,Net-(J1-Pin_2)*%
X164365000Y-93749999D02*
X164365000Y-92775000D01*
X162587932Y-94452000D02*
X163662999Y-94452000D01*
X163662999Y-94452000D02*
X164365000Y-93749999D01*
X156250000Y-92325000D02*
X156250000Y-92500000D01*
X162093000Y-92375900D02*
X162093000Y-93957068D01*
X156250000Y-92550000D02*
X153250000Y-92550000D01*
X152800000Y-93000000D02*
X152000000Y-93000000D01*
X157402000Y-91398000D02*
X161115100Y-91398000D01*
D21*
X145100000Y-93000000D02*
X152000000Y-93000000D01*
D20*
X156250000Y-92550000D02*
X157402000Y-91398000D01*
X161115100Y-91398000D02*
X162093000Y-92375900D01*
X153250000Y-92550000D02*
X152800000Y-93000000D01*
X162093000Y-93957068D02*
X162587932Y-94452000D01*
%TO.N,Net-(J1-Pin_3)*%
X161692000Y-94123168D02*
X161692000Y-92542000D01*
X165635000Y-92765000D02*
X165635000Y-93739999D01*
X158250000Y-92500000D02*
X158250000Y-92550000D01*
X153400000Y-95500000D02*
X152000000Y-95500000D01*
X162421832Y-94853000D02*
X161692000Y-94123168D01*
X160949000Y-91799000D02*
X159001000Y-91799000D01*
X155301000Y-93599000D02*
X153400000Y-95500000D01*
X165635000Y-93739999D02*
X164521999Y-94853000D01*
X157201000Y-93599000D02*
X155301000Y-93599000D01*
X161692000Y-92542000D02*
X160949000Y-91799000D01*
X164521999Y-94853000D02*
X162421832Y-94853000D01*
X159001000Y-91799000D02*
X158250000Y-92550000D01*
D21*
X145100000Y-95500000D02*
X152000000Y-95500000D01*
D20*
X158250000Y-92550000D02*
X157201000Y-93599000D01*
D21*
%TO.N,GND*%
X145100000Y-90500000D02*
X152000000Y-90500000D01*
D20*
X144697240Y-99350000D02*
X143824000Y-98476760D01*
X168800000Y-98237500D02*
X166037500Y-101000000D01*
X163095000Y-91800001D02*
X163095000Y-92775000D01*
X164988500Y-88474000D02*
X167224000Y-88474000D01*
X168800000Y-90050000D02*
X168800000Y-98237500D01*
X168000000Y-89250000D02*
X168800000Y-90050000D01*
X153850000Y-99350000D02*
X144697240Y-99350000D01*
X167224000Y-88474000D02*
X168000000Y-89250000D01*
X163962500Y-89500000D02*
X164988500Y-88474000D01*
X153800000Y-89500000D02*
X163962500Y-89500000D01*
X163962500Y-90932501D02*
X163962500Y-89500000D01*
X158250000Y-100500000D02*
X160250000Y-100500000D01*
X152800000Y-90500000D02*
X153800000Y-89500000D01*
X143824000Y-91776000D02*
X145100000Y-90500000D01*
X153850000Y-99350000D02*
X155000000Y-100500000D01*
X163095000Y-91800001D02*
X163962500Y-90932501D01*
X152000000Y-90500000D02*
X152800000Y-90500000D01*
X153849000Y-99349000D02*
X153850000Y-99350000D01*
X156250000Y-100500000D02*
X158250000Y-100500000D01*
X155000000Y-100500000D02*
X156250000Y-100500000D01*
X143824000Y-98476760D02*
X143824000Y-91776000D01*
D21*
%TO.N,+3V3*%
X166697000Y-90497000D02*
X166684500Y-90497000D01*
D20*
X162754032Y-94051000D02*
X163449000Y-94051000D01*
X166460000Y-95655000D02*
X166905000Y-96100000D01*
D21*
X166905000Y-97725000D02*
X166905000Y-96100000D01*
X167706000Y-91676190D02*
X167700000Y-91670190D01*
X166905000Y-96100000D02*
X166905000Y-94674810D01*
X152000000Y-100500000D02*
X154073000Y-100500000D01*
X166905000Y-98995000D02*
X166126000Y-99774000D01*
D20*
X162494000Y-91753000D02*
X162494000Y-93790968D01*
X167699000Y-91499000D02*
X167700000Y-91500000D01*
D21*
X165326000Y-99774000D02*
X164100000Y-101000000D01*
X163319236Y-101643264D02*
X163962500Y-101000000D01*
X154073000Y-100500000D02*
X155216264Y-101643264D01*
D20*
X161209632Y-94775000D02*
X162089632Y-95655000D01*
X167500001Y-102249999D02*
X165212499Y-102249999D01*
X158250000Y-94775000D02*
X160250000Y-94775000D01*
D21*
X167700000Y-91670190D02*
X167700000Y-91500000D01*
D20*
X165212499Y-102249999D02*
X163962500Y-101000000D01*
X162089632Y-95655000D02*
X166460000Y-95655000D01*
X164024032Y-91499000D02*
X167699000Y-91499000D01*
X160250000Y-94775000D02*
X161209632Y-94775000D01*
D21*
X166126000Y-99774000D02*
X165326000Y-99774000D01*
X145100000Y-100500000D02*
X152000000Y-100500000D01*
X166905000Y-94674810D02*
X167706000Y-93873810D01*
D20*
X163696000Y-93804000D02*
X163696000Y-91827032D01*
X156250000Y-94775000D02*
X158250000Y-94775000D01*
X158250000Y-90500000D02*
X160250000Y-90500000D01*
X168000000Y-101750000D02*
X167500001Y-102249999D01*
X162494000Y-93790968D02*
X162754032Y-94051000D01*
D21*
X166684500Y-90497000D02*
X166037500Y-89850000D01*
X166905000Y-97725000D02*
X166905000Y-98995000D01*
D20*
X163696000Y-91827032D02*
X164024032Y-91499000D01*
D21*
X167700000Y-91500000D02*
X166697000Y-90497000D01*
X167706000Y-93873810D02*
X167706000Y-91676190D01*
D20*
X163812500Y-100500000D02*
X163962500Y-100650000D01*
D21*
X164100000Y-101000000D02*
X163962500Y-101000000D01*
D20*
X161241000Y-90500000D02*
X162494000Y-91753000D01*
X156250000Y-90500000D02*
X158250000Y-90500000D01*
X160250000Y-90500000D02*
X161241000Y-90500000D01*
X163449000Y-94051000D02*
X163696000Y-93804000D01*
D21*
X155216264Y-101643264D02*
X163319236Y-101643264D01*
D20*
%TO.N,Net-(JP1-A)*%
X164366100Y-99001000D02*
X164705968Y-99001000D01*
X157402000Y-99602000D02*
X161265100Y-99602000D01*
X165635000Y-98071968D02*
X165635000Y-97725000D01*
X161466100Y-99401000D02*
X163966100Y-99401000D01*
X156250000Y-98450000D02*
X157402000Y-99602000D01*
X163966100Y-99401000D02*
X164366100Y-99001000D01*
X161265100Y-99602000D02*
X161466100Y-99401000D01*
X156250000Y-96225000D02*
X156250000Y-98450000D01*
X164705968Y-99001000D02*
X165635000Y-98071968D01*
%TO.N,Net-(JP2-A)*%
X158250000Y-96225000D02*
X158250000Y-98450000D01*
%TO.N,Net-(JP3-A)*%
X160250000Y-98450000D02*
X162370000Y-98450000D01*
X162370000Y-98450000D02*
X163095000Y-97725000D01*
%TD*%
%TA.AperFunction,Conductor*%
%TO.N,GND*%
G36*
X163108026Y-88319404D02*
G01*
X163143990Y-88368904D01*
X163143990Y-88430090D01*
X163119839Y-88469501D01*
X163032680Y-88556659D01*
X162940643Y-88705875D01*
X162885493Y-88872306D01*
X162875000Y-88975012D01*
X162875000Y-89249999D01*
X162875001Y-89250000D01*
X165049998Y-89250000D01*
X165049999Y-89249999D01*
X165049999Y-88975013D01*
X165039507Y-88872312D01*
X165039504Y-88872300D01*
X164984356Y-88705875D01*
X164892319Y-88556659D01*
X164805161Y-88469501D01*
X164777384Y-88414984D01*
X164786955Y-88354552D01*
X164830220Y-88311287D01*
X164875161Y-88300497D01*
X167390314Y-88300498D01*
X167448501Y-88319404D01*
X167484465Y-88368904D01*
X167485925Y-88382370D01*
X167999999Y-88896444D01*
X168515533Y-88380911D01*
X168515533Y-88368905D01*
X168521941Y-88360084D01*
X168524277Y-88349439D01*
X168539512Y-88335899D01*
X168551497Y-88319405D01*
X168561865Y-88316036D01*
X168570013Y-88308796D01*
X168609683Y-88300498D01*
X168742303Y-88300498D01*
X168757805Y-88301722D01*
X168811705Y-88310281D01*
X168841145Y-88319858D01*
X168882741Y-88341068D01*
X168907788Y-88359276D01*
X168940793Y-88392296D01*
X168958989Y-88417350D01*
X168980179Y-88458951D01*
X168989746Y-88488401D01*
X168998281Y-88542299D01*
X168999499Y-88557783D01*
X168999499Y-88645235D01*
X168980592Y-88703426D01*
X168931092Y-88739390D01*
X168890795Y-88743758D01*
X168862575Y-88740978D01*
X168353554Y-89249999D01*
X168862574Y-89759019D01*
X168890794Y-89756240D01*
X168950558Y-89769352D01*
X168991201Y-89815088D01*
X168999499Y-89854763D01*
X168999500Y-102384108D01*
X168999500Y-102442210D01*
X168998281Y-102457696D01*
X168989742Y-102511611D01*
X168980170Y-102541071D01*
X168958969Y-102582679D01*
X168940764Y-102607737D01*
X168907737Y-102640764D01*
X168882679Y-102658969D01*
X168841071Y-102680170D01*
X168811612Y-102689741D01*
X168757695Y-102698281D01*
X168742211Y-102699500D01*
X167691915Y-102699500D01*
X167633724Y-102680593D01*
X167597760Y-102631093D01*
X167597760Y-102569907D01*
X167633724Y-102520407D01*
X167642415Y-102514764D01*
X167659785Y-102504734D01*
X167684512Y-102490459D01*
X167721321Y-102453649D01*
X167775835Y-102425873D01*
X167810632Y-102426555D01*
X167931007Y-102450500D01*
X167931008Y-102450500D01*
X168068992Y-102450500D01*
X168068993Y-102450500D01*
X168204328Y-102423580D01*
X168331811Y-102370775D01*
X168446542Y-102294114D01*
X168544114Y-102196542D01*
X168620775Y-102081811D01*
X168673580Y-101954328D01*
X168700500Y-101818993D01*
X168700500Y-101681007D01*
X168673580Y-101545672D01*
X168620775Y-101418189D01*
X168620774Y-101418187D01*
X168620771Y-101418182D01*
X168544114Y-101303458D01*
X168446541Y-101205885D01*
X168331817Y-101129228D01*
X168331806Y-101129222D01*
X168204328Y-101076420D01*
X168068995Y-101049500D01*
X168068993Y-101049500D01*
X167931007Y-101049500D01*
X167931004Y-101049500D01*
X167795672Y-101076420D01*
X167795670Y-101076420D01*
X167668193Y-101129222D01*
X167668182Y-101129228D01*
X167553458Y-101205885D01*
X167455885Y-101303458D01*
X167379228Y-101418182D01*
X167379222Y-101418193D01*
X167326420Y-101545670D01*
X167326417Y-101545680D01*
X167316247Y-101596808D01*
X167286350Y-101650192D01*
X167230785Y-101675807D01*
X167170775Y-101663869D01*
X167129243Y-101618939D01*
X167120663Y-101567429D01*
X167125000Y-101524985D01*
X167125000Y-101250001D01*
X167124999Y-101250000D01*
X164950002Y-101250000D01*
X164950001Y-101250001D01*
X164950001Y-101323522D01*
X164942837Y-101345569D01*
X164939211Y-101368467D01*
X164933562Y-101374115D01*
X164931094Y-101381713D01*
X164912337Y-101395340D01*
X164895946Y-101411732D01*
X164888056Y-101412981D01*
X164881594Y-101417677D01*
X164858409Y-101417677D01*
X164835514Y-101421303D01*
X164828397Y-101417677D01*
X164820408Y-101417677D01*
X164780997Y-101393526D01*
X164779496Y-101392025D01*
X164751719Y-101337508D01*
X164750500Y-101322021D01*
X164750500Y-101098322D01*
X164769407Y-101040131D01*
X164779496Y-101028318D01*
X165028818Y-100778996D01*
X165083335Y-100751219D01*
X165098822Y-100750000D01*
X167124998Y-100750000D01*
X167124999Y-100749999D01*
X167124999Y-100475013D01*
X167114507Y-100372312D01*
X167114504Y-100372300D01*
X167059356Y-100205875D01*
X166967319Y-100056659D01*
X166843339Y-99932679D01*
X166838819Y-99929105D01*
X166840115Y-99927465D01*
X166806265Y-99887594D01*
X166801645Y-99826584D01*
X166827836Y-99779977D01*
X167305499Y-99302315D01*
X167317794Y-99281021D01*
X167371392Y-99188186D01*
X167394887Y-99100500D01*
X167405500Y-99060893D01*
X167405500Y-98929108D01*
X167405500Y-97659108D01*
X167405500Y-96866740D01*
X167405500Y-96034108D01*
X167405500Y-94923131D01*
X167424407Y-94864940D01*
X167434490Y-94853133D01*
X168106500Y-94181124D01*
X168113211Y-94169500D01*
X168172390Y-94067000D01*
X168172390Y-94066998D01*
X168172392Y-94066996D01*
X168206500Y-93939702D01*
X168206500Y-93807918D01*
X168206500Y-91610298D01*
X168204892Y-91604298D01*
X168204451Y-91602652D01*
X168203865Y-91600462D01*
X168203865Y-91600446D01*
X168200500Y-91574871D01*
X168200500Y-91434108D01*
X168180224Y-91358438D01*
X168180224Y-91358437D01*
X168166393Y-91306817D01*
X168166392Y-91306816D01*
X168166392Y-91306814D01*
X168100500Y-91192686D01*
X168007314Y-91099500D01*
X168007311Y-91099498D01*
X167020388Y-90112574D01*
X167490979Y-90112574D01*
X167526324Y-90136190D01*
X167708310Y-90211570D01*
X167901506Y-90249999D01*
X167901510Y-90250000D01*
X168098490Y-90250000D01*
X168098493Y-90249999D01*
X168291688Y-90211570D01*
X168291690Y-90211570D01*
X168473675Y-90136190D01*
X168509019Y-90112574D01*
X167999999Y-89603554D01*
X167490979Y-90112574D01*
X167020388Y-90112574D01*
X167004314Y-90096500D01*
X166978055Y-90081339D01*
X166971065Y-90075342D01*
X166970055Y-90073687D01*
X166965523Y-90070209D01*
X166854496Y-89959182D01*
X166826719Y-89904665D01*
X166825500Y-89889178D01*
X166825500Y-89476386D01*
X166844407Y-89418195D01*
X166893907Y-89382231D01*
X166955093Y-89382231D01*
X167004593Y-89418195D01*
X167021598Y-89457072D01*
X167038429Y-89541688D01*
X167038429Y-89541690D01*
X167113810Y-89723678D01*
X167137424Y-89759019D01*
X167646444Y-89249999D01*
X167137424Y-88740979D01*
X167113815Y-88776314D01*
X167113809Y-88776324D01*
X167038429Y-88958309D01*
X167038429Y-88958311D01*
X167021598Y-89042927D01*
X166991701Y-89096311D01*
X166936136Y-89121927D01*
X166876126Y-89109990D01*
X166834594Y-89065060D01*
X166825500Y-89023613D01*
X166825500Y-88970727D01*
X166825499Y-88970725D01*
X166822646Y-88940301D01*
X166777793Y-88812118D01*
X166734773Y-88753828D01*
X166697154Y-88702855D01*
X166697152Y-88702853D01*
X166697150Y-88702850D01*
X166697146Y-88702847D01*
X166697144Y-88702845D01*
X166587883Y-88622207D01*
X166459703Y-88577355D01*
X166459694Y-88577353D01*
X166429274Y-88574500D01*
X166429266Y-88574500D01*
X165645734Y-88574500D01*
X165645725Y-88574500D01*
X165615305Y-88577353D01*
X165615296Y-88577355D01*
X165487116Y-88622207D01*
X165377855Y-88702845D01*
X165377845Y-88702855D01*
X165297207Y-88812116D01*
X165252355Y-88940296D01*
X165252353Y-88940305D01*
X165249500Y-88970725D01*
X165249500Y-90029274D01*
X165252353Y-90059694D01*
X165252355Y-90059703D01*
X165297207Y-90187883D01*
X165377845Y-90297144D01*
X165377847Y-90297146D01*
X165377850Y-90297150D01*
X165377853Y-90297152D01*
X165377855Y-90297154D01*
X165487116Y-90377792D01*
X165487117Y-90377792D01*
X165487118Y-90377793D01*
X165615301Y-90422646D01*
X165645725Y-90425499D01*
X165645727Y-90425500D01*
X165645734Y-90425500D01*
X165864178Y-90425500D01*
X165922369Y-90444407D01*
X165934181Y-90454496D01*
X166163029Y-90683343D01*
X166377186Y-90897500D01*
X166392604Y-90906402D01*
X166395473Y-90908058D01*
X166415976Y-90923790D01*
X166521682Y-91029496D01*
X166549459Y-91084013D01*
X166539888Y-91144445D01*
X166496623Y-91187710D01*
X166451678Y-91198500D01*
X163984467Y-91198500D01*
X163908043Y-91218978D01*
X163908039Y-91218980D01*
X163839521Y-91258539D01*
X163712912Y-91385147D01*
X163658395Y-91412924D01*
X163597963Y-91403352D01*
X163592514Y-91400356D01*
X163505201Y-91348719D01*
X163505202Y-91348719D01*
X163347491Y-91302900D01*
X163345000Y-91302702D01*
X163345000Y-92676000D01*
X163326093Y-92734191D01*
X163276593Y-92770155D01*
X163246000Y-92775000D01*
X162944000Y-92775000D01*
X162885809Y-92756093D01*
X162849845Y-92706593D01*
X162845000Y-92676000D01*
X162845000Y-91302703D01*
X162844999Y-91302702D01*
X162842508Y-91302900D01*
X162684802Y-91348718D01*
X162644003Y-91372846D01*
X162584291Y-91386191D01*
X162528139Y-91361891D01*
X162523606Y-91357635D01*
X161977533Y-90811562D01*
X161425511Y-90259540D01*
X161425508Y-90259538D01*
X161356992Y-90219980D01*
X161356988Y-90219978D01*
X161280564Y-90199500D01*
X161280562Y-90199500D01*
X161148179Y-90199500D01*
X161089988Y-90180593D01*
X161054024Y-90131093D01*
X161050214Y-90114780D01*
X161040573Y-90048607D01*
X161029032Y-90025000D01*
X160989198Y-89943518D01*
X160989198Y-89943517D01*
X160906483Y-89860802D01*
X160884412Y-89850012D01*
X160801395Y-89809427D01*
X160794778Y-89808463D01*
X160733260Y-89799500D01*
X159766740Y-89799500D01*
X159732673Y-89804463D01*
X159698604Y-89809427D01*
X159593518Y-89860801D01*
X159510801Y-89943518D01*
X159459427Y-90048604D01*
X159455773Y-90073687D01*
X159449786Y-90114775D01*
X159422687Y-90169630D01*
X159368519Y-90198082D01*
X159351821Y-90199500D01*
X159148179Y-90199500D01*
X159089988Y-90180593D01*
X159054024Y-90131093D01*
X159050214Y-90114780D01*
X159040573Y-90048607D01*
X159029032Y-90025000D01*
X158989198Y-89943518D01*
X158989198Y-89943517D01*
X158906483Y-89860802D01*
X158884412Y-89850012D01*
X158801395Y-89809427D01*
X158774139Y-89805456D01*
X158733260Y-89799500D01*
X157766740Y-89799500D01*
X157732673Y-89804463D01*
X157698604Y-89809427D01*
X157593518Y-89860801D01*
X157510801Y-89943518D01*
X157459427Y-90048604D01*
X157455773Y-90073687D01*
X157449786Y-90114775D01*
X157422687Y-90169630D01*
X157368519Y-90198082D01*
X157351821Y-90199500D01*
X157148179Y-90199500D01*
X157089988Y-90180593D01*
X157054024Y-90131093D01*
X157050214Y-90114780D01*
X157040573Y-90048607D01*
X157029032Y-90025000D01*
X156989198Y-89943518D01*
X156989198Y-89943517D01*
X156906483Y-89860802D01*
X156884412Y-89850012D01*
X156801395Y-89809427D01*
X156774139Y-89805456D01*
X156733260Y-89799500D01*
X155766740Y-89799500D01*
X155732673Y-89804463D01*
X155698604Y-89809427D01*
X155593518Y-89860801D01*
X155510801Y-89943518D01*
X155459427Y-90048604D01*
X155455773Y-90073687D01*
X155449500Y-90116740D01*
X155449500Y-90883260D01*
X155451575Y-90897499D01*
X155459427Y-90951395D01*
X155497412Y-91029093D01*
X155510802Y-91056483D01*
X155593517Y-91139198D01*
X155647285Y-91165483D01*
X155698604Y-91190572D01*
X155698605Y-91190572D01*
X155698607Y-91190573D01*
X155766740Y-91200500D01*
X155766743Y-91200500D01*
X156733257Y-91200500D01*
X156733260Y-91200500D01*
X156801393Y-91190573D01*
X156906483Y-91139198D01*
X156989198Y-91056483D01*
X157040573Y-90951393D01*
X157050213Y-90885224D01*
X157077313Y-90830370D01*
X157131481Y-90801918D01*
X157148179Y-90800500D01*
X157351821Y-90800500D01*
X157357204Y-90802249D01*
X157362746Y-90801105D01*
X157385869Y-90811562D01*
X157410012Y-90819407D01*
X157413338Y-90823986D01*
X157418495Y-90826318D01*
X157427908Y-90844039D01*
X157445976Y-90868907D01*
X157448776Y-90879484D01*
X157449500Y-90882990D01*
X157449500Y-90883260D01*
X157459427Y-90951393D01*
X157466687Y-90966243D01*
X157469214Y-90978484D01*
X157467149Y-90997076D01*
X157469771Y-91015600D01*
X157463855Y-91026750D01*
X157462463Y-91039296D01*
X157449863Y-91053125D01*
X157441097Y-91069650D01*
X157429757Y-91075194D01*
X157421256Y-91084525D01*
X157402936Y-91088306D01*
X157386129Y-91096524D01*
X157372259Y-91097500D01*
X157362435Y-91097500D01*
X157286011Y-91117978D01*
X157286007Y-91117980D01*
X157217489Y-91157539D01*
X156504523Y-91870504D01*
X156450007Y-91898281D01*
X156434520Y-91899500D01*
X155740537Y-91899500D01*
X155740526Y-91899501D01*
X155692529Y-91905819D01*
X155692521Y-91905821D01*
X155587162Y-91954951D01*
X155504951Y-92037162D01*
X155455821Y-92142521D01*
X155455820Y-92142522D01*
X155453069Y-92163423D01*
X155426727Y-92218648D01*
X155372956Y-92247842D01*
X155354916Y-92249500D01*
X153210435Y-92249500D01*
X153134011Y-92269978D01*
X153134007Y-92269980D01*
X153065487Y-92309540D01*
X153062829Y-92312199D01*
X153060430Y-92313421D01*
X153060339Y-92313491D01*
X153060326Y-92313474D01*
X153008310Y-92339973D01*
X152947879Y-92330398D01*
X152922829Y-92312197D01*
X152794655Y-92184023D01*
X152794651Y-92184020D01*
X152622597Y-92069058D01*
X152573319Y-92048647D01*
X152553560Y-92040462D01*
X152507036Y-92000726D01*
X152492752Y-91941232D01*
X152516167Y-91884704D01*
X152568336Y-91852734D01*
X152591447Y-91849999D01*
X152774986Y-91849999D01*
X152877687Y-91839507D01*
X152877699Y-91839504D01*
X153044124Y-91784356D01*
X153193340Y-91692319D01*
X153317319Y-91568340D01*
X153409356Y-91419124D01*
X153464506Y-91252693D01*
X153475000Y-91149987D01*
X153475000Y-90750001D01*
X153474999Y-90750000D01*
X152404146Y-90750000D01*
X152442630Y-90683343D01*
X152475000Y-90562535D01*
X152475000Y-90437465D01*
X152442630Y-90316657D01*
X152404146Y-90250000D01*
X153474998Y-90250000D01*
X153474999Y-90249999D01*
X153474999Y-89850013D01*
X153464782Y-89750001D01*
X162875001Y-89750001D01*
X162875001Y-90024986D01*
X162885492Y-90127687D01*
X162885495Y-90127699D01*
X162940643Y-90294124D01*
X163032680Y-90443340D01*
X163156659Y-90567319D01*
X163305875Y-90659356D01*
X163472306Y-90714506D01*
X163575013Y-90724999D01*
X163712500Y-90724999D01*
X163712500Y-89750001D01*
X164212500Y-89750001D01*
X164212500Y-90724998D01*
X164212501Y-90724999D01*
X164349986Y-90724999D01*
X164452687Y-90714507D01*
X164452699Y-90714504D01*
X164619124Y-90659356D01*
X164768340Y-90567319D01*
X164892319Y-90443340D01*
X164984356Y-90294124D01*
X165039506Y-90127693D01*
X165050000Y-90024987D01*
X165050000Y-89750001D01*
X165049999Y-89750000D01*
X164212501Y-89750000D01*
X164212500Y-89750001D01*
X163712500Y-89750001D01*
X163712499Y-89750000D01*
X162875002Y-89750000D01*
X162875001Y-89750001D01*
X153464782Y-89750001D01*
X153464507Y-89747312D01*
X153464504Y-89747300D01*
X153409356Y-89580875D01*
X153317319Y-89431659D01*
X153193340Y-89307680D01*
X153044124Y-89215643D01*
X152877693Y-89160493D01*
X152774987Y-89150000D01*
X152250001Y-89150000D01*
X152250000Y-89150001D01*
X152250000Y-90095854D01*
X152183343Y-90057370D01*
X152062535Y-90025000D01*
X151937465Y-90025000D01*
X151816657Y-90057370D01*
X151750000Y-90095854D01*
X151750000Y-89150001D01*
X151749999Y-89150000D01*
X151225013Y-89150000D01*
X151122312Y-89160492D01*
X151122300Y-89160495D01*
X150955875Y-89215643D01*
X150806659Y-89307680D01*
X150682680Y-89431659D01*
X150590643Y-89580875D01*
X150535493Y-89747306D01*
X150525000Y-89850012D01*
X150525000Y-90249999D01*
X150525001Y-90250000D01*
X151595854Y-90250000D01*
X151557370Y-90316657D01*
X151525000Y-90437465D01*
X151525000Y-90562535D01*
X151557370Y-90683343D01*
X151595854Y-90750000D01*
X150525002Y-90750000D01*
X150525001Y-90750001D01*
X150525001Y-91149986D01*
X150535492Y-91252687D01*
X150535495Y-91252699D01*
X150590643Y-91419124D01*
X150682680Y-91568340D01*
X150806659Y-91692319D01*
X150955875Y-91784356D01*
X151122306Y-91839506D01*
X151225012Y-91849999D01*
X151408549Y-91849999D01*
X151466740Y-91868906D01*
X151502704Y-91918406D01*
X151502705Y-91979591D01*
X151466741Y-92029091D01*
X151446437Y-92040463D01*
X151377401Y-92069059D01*
X151205348Y-92184020D01*
X151059020Y-92330348D01*
X150975397Y-92455501D01*
X150927347Y-92493381D01*
X150893081Y-92499500D01*
X146206919Y-92499500D01*
X146148728Y-92480593D01*
X146124603Y-92455501D01*
X146040979Y-92330348D01*
X146040977Y-92330345D01*
X145894655Y-92184023D01*
X145894651Y-92184020D01*
X145722597Y-92069058D01*
X145673319Y-92048647D01*
X145653560Y-92040462D01*
X145607036Y-92000726D01*
X145592752Y-91941232D01*
X145616167Y-91884704D01*
X145668336Y-91852734D01*
X145691447Y-91849999D01*
X145874986Y-91849999D01*
X145977687Y-91839507D01*
X145977699Y-91839504D01*
X146144124Y-91784356D01*
X146293340Y-91692319D01*
X146417319Y-91568340D01*
X146509356Y-91419124D01*
X146564506Y-91252693D01*
X146575000Y-91149987D01*
X146575000Y-90750001D01*
X146574999Y-90750000D01*
X145504146Y-90750000D01*
X145542630Y-90683343D01*
X145575000Y-90562535D01*
X145575000Y-90437465D01*
X145542630Y-90316657D01*
X145504146Y-90250000D01*
X146574998Y-90250000D01*
X146574999Y-90249999D01*
X146574999Y-89850013D01*
X146564507Y-89747312D01*
X146564504Y-89747300D01*
X146509356Y-89580875D01*
X146417319Y-89431659D01*
X146293340Y-89307680D01*
X146144124Y-89215643D01*
X145977693Y-89160493D01*
X145874987Y-89150000D01*
X145350001Y-89150000D01*
X145350000Y-89150001D01*
X145350000Y-90095854D01*
X145283343Y-90057370D01*
X145162535Y-90025000D01*
X145037465Y-90025000D01*
X144916657Y-90057370D01*
X144850000Y-90095854D01*
X144850000Y-89150001D01*
X144849999Y-89150000D01*
X144325013Y-89150000D01*
X144222312Y-89160492D01*
X144222300Y-89160495D01*
X144055875Y-89215643D01*
X143906659Y-89307680D01*
X143782680Y-89431659D01*
X143690643Y-89580875D01*
X143635493Y-89747306D01*
X143625000Y-89850012D01*
X143625000Y-90249999D01*
X143625001Y-90250000D01*
X144695854Y-90250000D01*
X144657370Y-90316657D01*
X144625000Y-90437465D01*
X144625000Y-90562535D01*
X144657370Y-90683343D01*
X144695854Y-90750000D01*
X143625002Y-90750000D01*
X143625001Y-90750001D01*
X143625001Y-91149986D01*
X143635492Y-91252687D01*
X143635495Y-91252699D01*
X143690643Y-91419124D01*
X143782680Y-91568340D01*
X143906659Y-91692319D01*
X144055875Y-91784356D01*
X144222306Y-91839506D01*
X144325012Y-91849999D01*
X144508549Y-91849999D01*
X144566740Y-91868906D01*
X144602704Y-91918406D01*
X144602705Y-91979591D01*
X144566741Y-92029091D01*
X144546437Y-92040463D01*
X144477401Y-92069059D01*
X144305348Y-92184020D01*
X144159020Y-92330348D01*
X144044058Y-92502402D01*
X143964869Y-92693581D01*
X143924500Y-92896532D01*
X143924500Y-93103467D01*
X143964869Y-93306418D01*
X144044058Y-93497597D01*
X144156913Y-93666497D01*
X144159023Y-93669655D01*
X144305345Y-93815977D01*
X144477402Y-93930941D01*
X144668580Y-94010130D01*
X144871535Y-94050500D01*
X144871536Y-94050500D01*
X145328464Y-94050500D01*
X145328465Y-94050500D01*
X145531420Y-94010130D01*
X145722598Y-93930941D01*
X145894655Y-93815977D01*
X146040977Y-93669655D01*
X146124603Y-93544498D01*
X146172653Y-93506619D01*
X146206919Y-93500500D01*
X150893081Y-93500500D01*
X150951272Y-93519407D01*
X150975396Y-93544498D01*
X151059023Y-93669655D01*
X151205345Y-93815977D01*
X151377402Y-93930941D01*
X151568580Y-94010130D01*
X151771535Y-94050500D01*
X151771536Y-94050500D01*
X152228464Y-94050500D01*
X152228465Y-94050500D01*
X152431420Y-94010130D01*
X152622598Y-93930941D01*
X152794655Y-93815977D01*
X152940977Y-93669655D01*
X153055941Y-93497598D01*
X153135130Y-93306420D01*
X153175500Y-93103465D01*
X153175500Y-93090479D01*
X153177968Y-93082881D01*
X153176719Y-93074992D01*
X153187243Y-93054336D01*
X153194407Y-93032288D01*
X153204496Y-93020475D01*
X153345475Y-92879496D01*
X153399992Y-92851719D01*
X153415479Y-92850500D01*
X155354917Y-92850500D01*
X155413108Y-92869407D01*
X155449072Y-92918907D01*
X155453068Y-92936572D01*
X155453877Y-92942711D01*
X155455820Y-92957476D01*
X155455821Y-92957478D01*
X155504951Y-93062837D01*
X155504952Y-93062838D01*
X155504953Y-93062840D01*
X155571611Y-93129498D01*
X155599387Y-93184013D01*
X155589816Y-93244445D01*
X155546551Y-93287710D01*
X155501606Y-93298500D01*
X155261435Y-93298500D01*
X155185013Y-93318978D01*
X155185011Y-93318978D01*
X155185011Y-93318979D01*
X155164949Y-93330562D01*
X155116489Y-93358540D01*
X153304525Y-95170504D01*
X153297407Y-95174130D01*
X153292712Y-95180593D01*
X153270663Y-95187756D01*
X153250008Y-95198281D01*
X153234521Y-95199500D01*
X153203732Y-95199500D01*
X153145541Y-95180593D01*
X153112268Y-95138386D01*
X153055941Y-95002402D01*
X152940979Y-94830348D01*
X152940977Y-94830345D01*
X152794655Y-94684023D01*
X152794651Y-94684020D01*
X152622597Y-94569058D01*
X152431418Y-94489869D01*
X152228467Y-94449500D01*
X152228465Y-94449500D01*
X151771535Y-94449500D01*
X151771532Y-94449500D01*
X151568581Y-94489869D01*
X151377402Y-94569058D01*
X151205348Y-94684020D01*
X151059020Y-94830348D01*
X150975397Y-94955501D01*
X150927347Y-94993381D01*
X150893081Y-94999500D01*
X146206919Y-94999500D01*
X146148728Y-94980593D01*
X146124603Y-94955501D01*
X146040979Y-94830348D01*
X146040977Y-94830345D01*
X145894655Y-94684023D01*
X145894651Y-94684020D01*
X145722597Y-94569058D01*
X145531418Y-94489869D01*
X145328467Y-94449500D01*
X145328465Y-94449500D01*
X144871535Y-94449500D01*
X144871532Y-94449500D01*
X144668581Y-94489869D01*
X144477402Y-94569058D01*
X144305348Y-94684020D01*
X144159020Y-94830348D01*
X144044058Y-95002402D01*
X143964869Y-95193581D01*
X143924500Y-95396532D01*
X143924500Y-95603467D01*
X143964869Y-95806418D01*
X144044058Y-95997597D01*
X144058631Y-96019407D01*
X144159023Y-96169655D01*
X144305345Y-96315977D01*
X144477402Y-96430941D01*
X144668580Y-96510130D01*
X144871535Y-96550500D01*
X144871536Y-96550500D01*
X145328464Y-96550500D01*
X145328465Y-96550500D01*
X145531420Y-96510130D01*
X145722598Y-96430941D01*
X145894655Y-96315977D01*
X146040977Y-96169655D01*
X146124603Y-96044498D01*
X146172653Y-96006619D01*
X146206919Y-96000500D01*
X150893081Y-96000500D01*
X150951272Y-96019407D01*
X150975396Y-96044498D01*
X151059023Y-96169655D01*
X151205345Y-96315977D01*
X151377402Y-96430941D01*
X151568580Y-96510130D01*
X151771535Y-96550500D01*
X151771536Y-96550500D01*
X152228464Y-96550500D01*
X152228465Y-96550500D01*
X152431420Y-96510130D01*
X152622598Y-96430941D01*
X152794655Y-96315977D01*
X152940977Y-96169655D01*
X153055941Y-95997598D01*
X153112268Y-95861614D01*
X153152005Y-95815088D01*
X153203732Y-95800500D01*
X153439563Y-95800500D01*
X153439563Y-95800499D01*
X153515989Y-95780021D01*
X153584511Y-95740460D01*
X153606498Y-95718472D01*
X153661013Y-95690697D01*
X153721445Y-95700268D01*
X153764710Y-95743533D01*
X153775500Y-95788478D01*
X153775500Y-96558520D01*
X153756593Y-96616711D01*
X153746504Y-96628524D01*
X153062833Y-97312194D01*
X153008316Y-97339971D01*
X152947884Y-97330400D01*
X152922828Y-97312196D01*
X152794655Y-97184023D01*
X152622598Y-97069059D01*
X152622599Y-97069059D01*
X152622597Y-97069058D01*
X152431418Y-96989869D01*
X152228467Y-96949500D01*
X152228465Y-96949500D01*
X151771535Y-96949500D01*
X151771532Y-96949500D01*
X151568581Y-96989869D01*
X151377402Y-97069058D01*
X151205348Y-97184020D01*
X151059020Y-97330348D01*
X150975397Y-97455501D01*
X150927347Y-97493381D01*
X150893081Y-97499500D01*
X146206919Y-97499500D01*
X146148728Y-97480593D01*
X146124603Y-97455501D01*
X146040979Y-97330348D01*
X146040977Y-97330345D01*
X145894655Y-97184023D01*
X145722598Y-97069059D01*
X145722599Y-97069059D01*
X145722597Y-97069058D01*
X145531418Y-96989869D01*
X145328467Y-96949500D01*
X145328465Y-96949500D01*
X144871535Y-96949500D01*
X144871532Y-96949500D01*
X144668581Y-96989869D01*
X144477402Y-97069058D01*
X144305348Y-97184020D01*
X144159020Y-97330348D01*
X144044058Y-97502402D01*
X143964869Y-97693581D01*
X143924500Y-97896532D01*
X143924500Y-98103467D01*
X143964869Y-98306418D01*
X144044058Y-98497597D01*
X144146822Y-98651395D01*
X144159023Y-98669655D01*
X144305345Y-98815977D01*
X144477402Y-98930941D01*
X144668580Y-99010130D01*
X144871535Y-99050500D01*
X144871536Y-99050500D01*
X145328464Y-99050500D01*
X145328465Y-99050500D01*
X145531420Y-99010130D01*
X145722598Y-98930941D01*
X145894655Y-98815977D01*
X146040977Y-98669655D01*
X146124603Y-98544498D01*
X146172653Y-98506619D01*
X146206919Y-98500500D01*
X150893081Y-98500500D01*
X150951272Y-98519407D01*
X150975397Y-98544499D01*
X151038073Y-98638302D01*
X151059023Y-98669655D01*
X151205345Y-98815977D01*
X151377402Y-98930941D01*
X151568580Y-99010130D01*
X151771535Y-99050500D01*
X151771536Y-99050500D01*
X152228464Y-99050500D01*
X152228465Y-99050500D01*
X152431420Y-99010130D01*
X152622598Y-98930941D01*
X152794655Y-98815977D01*
X152940977Y-98669655D01*
X153055941Y-98497598D01*
X153135130Y-98306420D01*
X153175500Y-98103465D01*
X153175500Y-98090478D01*
X153194407Y-98032287D01*
X153204490Y-98020480D01*
X154316460Y-96908511D01*
X154356022Y-96839988D01*
X154376500Y-96763562D01*
X154376500Y-96684438D01*
X154376500Y-95556579D01*
X154395407Y-95498388D01*
X154405496Y-95486575D01*
X155325496Y-94566575D01*
X155380013Y-94538798D01*
X155440445Y-94548369D01*
X155483710Y-94591634D01*
X155494500Y-94636579D01*
X155494500Y-95425000D01*
X155500594Y-95460336D01*
X155500595Y-95460337D01*
X155541586Y-95513627D01*
X155562079Y-95571279D01*
X155544771Y-95629965D01*
X155534073Y-95643025D01*
X155514649Y-95662989D01*
X155494500Y-95725000D01*
X155494500Y-95725002D01*
X155494500Y-96725001D01*
X155499663Y-96757599D01*
X155499664Y-96757601D01*
X155537989Y-96810351D01*
X155600000Y-96830500D01*
X155850500Y-96830500D01*
X155908691Y-96849407D01*
X155944655Y-96898907D01*
X155949500Y-96929500D01*
X155949500Y-97700500D01*
X155930593Y-97758691D01*
X155881093Y-97794655D01*
X155850501Y-97799500D01*
X155740538Y-97799500D01*
X155740526Y-97799501D01*
X155692529Y-97805819D01*
X155692521Y-97805821D01*
X155587162Y-97854951D01*
X155504951Y-97937162D01*
X155455821Y-98042521D01*
X155455820Y-98042523D01*
X155449500Y-98090532D01*
X155449500Y-98809462D01*
X155449501Y-98809473D01*
X155455819Y-98857470D01*
X155455821Y-98857478D01*
X155504951Y-98962837D01*
X155504952Y-98962838D01*
X155504953Y-98962840D01*
X155587160Y-99045047D01*
X155587161Y-99045047D01*
X155587162Y-99045048D01*
X155692521Y-99094178D01*
X155692523Y-99094179D01*
X155692524Y-99094179D01*
X155692526Y-99094180D01*
X155740533Y-99100500D01*
X156434520Y-99100499D01*
X156442117Y-99102967D01*
X156450007Y-99101718D01*
X156470662Y-99112242D01*
X156492711Y-99119406D01*
X156504524Y-99129495D01*
X156606025Y-99230996D01*
X156633802Y-99285513D01*
X156624231Y-99345945D01*
X156580966Y-99389210D01*
X156536021Y-99400000D01*
X156500001Y-99400000D01*
X156500000Y-99400001D01*
X156500000Y-100249999D01*
X156500001Y-100250000D01*
X157999999Y-100250000D01*
X158000000Y-100249999D01*
X158000000Y-100001500D01*
X158018907Y-99943309D01*
X158068407Y-99907345D01*
X158099000Y-99902500D01*
X158401000Y-99902500D01*
X158459191Y-99921407D01*
X158495155Y-99970907D01*
X158500000Y-100001500D01*
X158500000Y-100249999D01*
X158500001Y-100250000D01*
X161449998Y-100250000D01*
X161449999Y-100249999D01*
X161449999Y-100100013D01*
X161439507Y-99997312D01*
X161439504Y-99997298D01*
X161422689Y-99946556D01*
X161422552Y-99923099D01*
X161418882Y-99899926D01*
X161422376Y-99893067D01*
X161422332Y-99885371D01*
X161446660Y-99845410D01*
X161449608Y-99842461D01*
X161449611Y-99842460D01*
X161505560Y-99786511D01*
X161561575Y-99730496D01*
X161616092Y-99702719D01*
X161631579Y-99701500D01*
X164005663Y-99701500D01*
X164005663Y-99701499D01*
X164082089Y-99681021D01*
X164150611Y-99641460D01*
X164206560Y-99585511D01*
X164461575Y-99330496D01*
X164516092Y-99302719D01*
X164531579Y-99301500D01*
X164745531Y-99301500D01*
X164745531Y-99301499D01*
X164821957Y-99281021D01*
X164890479Y-99241460D01*
X164946428Y-99185511D01*
X165238090Y-98893847D01*
X165292604Y-98866071D01*
X165351571Y-98874911D01*
X165383607Y-98890573D01*
X165451740Y-98900500D01*
X165451743Y-98900500D01*
X165818257Y-98900500D01*
X165818260Y-98900500D01*
X165886393Y-98890573D01*
X165991483Y-98839198D01*
X166074198Y-98756483D01*
X166125573Y-98651393D01*
X166135500Y-98583260D01*
X166135500Y-96866740D01*
X166125573Y-96798607D01*
X166074198Y-96693517D01*
X165991483Y-96610802D01*
X165968424Y-96599529D01*
X165886395Y-96559427D01*
X165859139Y-96555456D01*
X165818260Y-96549500D01*
X165451740Y-96549500D01*
X165417673Y-96554463D01*
X165383604Y-96559427D01*
X165278518Y-96610801D01*
X165195801Y-96693518D01*
X165144427Y-96798604D01*
X165139780Y-96830500D01*
X165137026Y-96849407D01*
X165134500Y-96866743D01*
X165134500Y-98106489D01*
X165132031Y-98114086D01*
X165133281Y-98121976D01*
X165122756Y-98142631D01*
X165115593Y-98164680D01*
X165105504Y-98176493D01*
X165034504Y-98247493D01*
X164979987Y-98275270D01*
X164919555Y-98265699D01*
X164876290Y-98222434D01*
X164865500Y-98177489D01*
X164865500Y-96866743D01*
X164865500Y-96866740D01*
X164855573Y-96798607D01*
X164804198Y-96693517D01*
X164721483Y-96610802D01*
X164698424Y-96599529D01*
X164616395Y-96559427D01*
X164589139Y-96555456D01*
X164548260Y-96549500D01*
X164181740Y-96549500D01*
X164147673Y-96554463D01*
X164113604Y-96559427D01*
X164008518Y-96610801D01*
X163925801Y-96693518D01*
X163874427Y-96798604D01*
X163869780Y-96830500D01*
X163867026Y-96849407D01*
X163864500Y-96866743D01*
X163864500Y-98469521D01*
X163862031Y-98477118D01*
X163863281Y-98485008D01*
X163852756Y-98505663D01*
X163845593Y-98527712D01*
X163835504Y-98539525D01*
X163764504Y-98610525D01*
X163709987Y-98638302D01*
X163649555Y-98628731D01*
X163606290Y-98585466D01*
X163595500Y-98540521D01*
X163595500Y-96866743D01*
X163595500Y-96866740D01*
X163585573Y-96798607D01*
X163534198Y-96693517D01*
X163451483Y-96610802D01*
X163428424Y-96599529D01*
X163346395Y-96559427D01*
X163319139Y-96555456D01*
X163278260Y-96549500D01*
X162911740Y-96549500D01*
X162877673Y-96554463D01*
X162843604Y-96559427D01*
X162738518Y-96610801D01*
X162655801Y-96693518D01*
X162604427Y-96798604D01*
X162599780Y-96830500D01*
X162597026Y-96849407D01*
X162594500Y-96866743D01*
X162594500Y-97759521D01*
X162575593Y-97817712D01*
X162565504Y-97829525D01*
X162274525Y-98120504D01*
X162220008Y-98148281D01*
X162204521Y-98149500D01*
X161145083Y-98149500D01*
X161086892Y-98130593D01*
X161050928Y-98081093D01*
X161046931Y-98063427D01*
X161044180Y-98042526D01*
X161039405Y-98032287D01*
X160995048Y-97937162D01*
X160995047Y-97937161D01*
X160995047Y-97937160D01*
X160912840Y-97854953D01*
X160912838Y-97854952D01*
X160912837Y-97854951D01*
X160807478Y-97805821D01*
X160807476Y-97805820D01*
X160759467Y-97799500D01*
X160649500Y-97799500D01*
X160591309Y-97780593D01*
X160555345Y-97731093D01*
X160550500Y-97700500D01*
X160550500Y-96929500D01*
X160569407Y-96871309D01*
X160618907Y-96835345D01*
X160649500Y-96830500D01*
X160900002Y-96830500D01*
X160916300Y-96827918D01*
X160932601Y-96825336D01*
X160985351Y-96787011D01*
X161005500Y-96725000D01*
X161005500Y-95725000D01*
X161001191Y-95695158D01*
X160964324Y-95641378D01*
X160964320Y-95641375D01*
X160963827Y-95640854D01*
X160963516Y-95640201D01*
X160959918Y-95634952D01*
X160960749Y-95634382D01*
X160937548Y-95585599D01*
X160948766Y-95525451D01*
X160977523Y-95492697D01*
X160985351Y-95487011D01*
X161005500Y-95425000D01*
X161005500Y-95234847D01*
X161024407Y-95176656D01*
X161073907Y-95140692D01*
X161135093Y-95140692D01*
X161174504Y-95164843D01*
X161849172Y-95839511D01*
X161849171Y-95839511D01*
X161905121Y-95895460D01*
X161973639Y-95935019D01*
X161973643Y-95935021D01*
X162050067Y-95955499D01*
X162050069Y-95955500D01*
X162050070Y-95955500D01*
X166294521Y-95955500D01*
X166302118Y-95957968D01*
X166310008Y-95956719D01*
X166330663Y-95967243D01*
X166352712Y-95974407D01*
X166364525Y-95984496D01*
X166375504Y-95995475D01*
X166403281Y-96049992D01*
X166404500Y-96065479D01*
X166404500Y-98746678D01*
X166385593Y-98804869D01*
X166375504Y-98816682D01*
X165947682Y-99244504D01*
X165893165Y-99272281D01*
X165877678Y-99273500D01*
X165391893Y-99273500D01*
X165260108Y-99273500D01*
X165196461Y-99290554D01*
X165132812Y-99307608D01*
X165060730Y-99349225D01*
X165060726Y-99349227D01*
X165018686Y-99373500D01*
X164970691Y-99421494D01*
X164970681Y-99421503D01*
X164346682Y-100045504D01*
X164292165Y-100073281D01*
X164276678Y-100074500D01*
X163570725Y-100074500D01*
X163540305Y-100077353D01*
X163540296Y-100077355D01*
X163412116Y-100122207D01*
X163302855Y-100202845D01*
X163302845Y-100202855D01*
X163222207Y-100312116D01*
X163177355Y-100440296D01*
X163177353Y-100440305D01*
X163174500Y-100470725D01*
X163174500Y-101039178D01*
X163172031Y-101046775D01*
X163173281Y-101054665D01*
X163162756Y-101075320D01*
X163155593Y-101097369D01*
X163145504Y-101109182D01*
X163140918Y-101113768D01*
X163086401Y-101141545D01*
X163070914Y-101142764D01*
X161530191Y-101142764D01*
X161472000Y-101123857D01*
X161436036Y-101074357D01*
X161436036Y-101013171D01*
X161436217Y-101012622D01*
X161439504Y-101002702D01*
X161439507Y-101002689D01*
X161450000Y-100899987D01*
X161450000Y-100750001D01*
X161449999Y-100750000D01*
X155071822Y-100750000D01*
X155013631Y-100731093D01*
X155001818Y-100721004D01*
X154751539Y-100470725D01*
X154380826Y-100100012D01*
X155050000Y-100100012D01*
X155050000Y-100249999D01*
X155050001Y-100250000D01*
X155999999Y-100250000D01*
X156000000Y-100249999D01*
X156000000Y-99400001D01*
X155999999Y-99400000D01*
X155750013Y-99400000D01*
X155647312Y-99410492D01*
X155647300Y-99410495D01*
X155480875Y-99465643D01*
X155331659Y-99557680D01*
X155207680Y-99681659D01*
X155115643Y-99830875D01*
X155060493Y-99997306D01*
X155050000Y-100100012D01*
X154380826Y-100100012D01*
X154380314Y-100099500D01*
X154380311Y-100099498D01*
X154380309Y-100099496D01*
X154266189Y-100033609D01*
X154266191Y-100033609D01*
X154216799Y-100020375D01*
X154138892Y-99999500D01*
X154138890Y-99999500D01*
X153106919Y-99999500D01*
X153048728Y-99980593D01*
X153024603Y-99955501D01*
X152940979Y-99830348D01*
X152940977Y-99830345D01*
X152794655Y-99684023D01*
X152791117Y-99681659D01*
X152622597Y-99569058D01*
X152431418Y-99489869D01*
X152228467Y-99449500D01*
X152228465Y-99449500D01*
X151771535Y-99449500D01*
X151771532Y-99449500D01*
X151568581Y-99489869D01*
X151377402Y-99569058D01*
X151205348Y-99684020D01*
X151059020Y-99830348D01*
X150975397Y-99955501D01*
X150927347Y-99993381D01*
X150893081Y-99999500D01*
X146206919Y-99999500D01*
X146148728Y-99980593D01*
X146124603Y-99955501D01*
X146040979Y-99830348D01*
X146040977Y-99830345D01*
X145894655Y-99684023D01*
X145891117Y-99681659D01*
X145722597Y-99569058D01*
X145531418Y-99489869D01*
X145328467Y-99449500D01*
X145328465Y-99449500D01*
X144871535Y-99449500D01*
X144871532Y-99449500D01*
X144668581Y-99489869D01*
X144477402Y-99569058D01*
X144305348Y-99684020D01*
X144159020Y-99830348D01*
X144044058Y-100002402D01*
X143964869Y-100193581D01*
X143924500Y-100396532D01*
X143924500Y-100603467D01*
X143964869Y-100806418D01*
X144044058Y-100997597D01*
X144141055Y-101142764D01*
X144159023Y-101169655D01*
X144305345Y-101315977D01*
X144477402Y-101430941D01*
X144668580Y-101510130D01*
X144871535Y-101550500D01*
X144871536Y-101550500D01*
X145328464Y-101550500D01*
X145328465Y-101550500D01*
X145531420Y-101510130D01*
X145722598Y-101430941D01*
X145894655Y-101315977D01*
X146040977Y-101169655D01*
X146124603Y-101044498D01*
X146172653Y-101006619D01*
X146206919Y-101000500D01*
X150893081Y-101000500D01*
X150951272Y-101019407D01*
X150975397Y-101044499D01*
X151040240Y-101141545D01*
X151059023Y-101169655D01*
X151205345Y-101315977D01*
X151377402Y-101430941D01*
X151568580Y-101510130D01*
X151771535Y-101550500D01*
X151771536Y-101550500D01*
X152228464Y-101550500D01*
X152228465Y-101550500D01*
X152431420Y-101510130D01*
X152622598Y-101430941D01*
X152794655Y-101315977D01*
X152940977Y-101169655D01*
X153024603Y-101044498D01*
X153072653Y-101006619D01*
X153106919Y-101000500D01*
X153824678Y-101000500D01*
X153882869Y-101019407D01*
X153894682Y-101029496D01*
X154815764Y-101950578D01*
X154815763Y-101950578D01*
X154908949Y-102043763D01*
X154908951Y-102043765D01*
X154927763Y-102054626D01*
X154946577Y-102065488D01*
X154946600Y-102065501D01*
X154946896Y-102065672D01*
X154987825Y-102111152D01*
X154994204Y-102172004D01*
X154963597Y-102224984D01*
X154955566Y-102231486D01*
X154935358Y-102246168D01*
X154796171Y-102385355D01*
X154680474Y-102544597D01*
X154629090Y-102645445D01*
X154585825Y-102688710D01*
X154540880Y-102699500D01*
X142049500Y-102699500D01*
X141991309Y-102680593D01*
X141955345Y-102631093D01*
X141950500Y-102600500D01*
X141950500Y-88399500D01*
X141969407Y-88341309D01*
X142018907Y-88305345D01*
X142049500Y-88300500D01*
X154540880Y-88300500D01*
X154599071Y-88319407D01*
X154629090Y-88354555D01*
X154678541Y-88451609D01*
X154680476Y-88455405D01*
X154796172Y-88614646D01*
X154935354Y-88753828D01*
X155094595Y-88869524D01*
X155269975Y-88958884D01*
X155457174Y-89019709D01*
X155457175Y-89019709D01*
X155457178Y-89019710D01*
X155651580Y-89050500D01*
X155651583Y-89050500D01*
X160848420Y-89050500D01*
X161042821Y-89019710D01*
X161042822Y-89019709D01*
X161042826Y-89019709D01*
X161230025Y-88958884D01*
X161405405Y-88869524D01*
X161564646Y-88753828D01*
X161703828Y-88614646D01*
X161819524Y-88455405D01*
X161870910Y-88354551D01*
X161914174Y-88311288D01*
X161959119Y-88300497D01*
X163049836Y-88300497D01*
X163108026Y-88319404D01*
G37*
%TD.AperFunction*%
%TD*%
M02*
