%TF.GenerationSoftware,KiCad,Pcbnew,8.0.7*%
%TF.CreationDate,2025-02-07T22:14:00+01:00*%
%TF.ProjectId,Teensy_board_03_LED,5465656e-7379-45f6-926f-6172645f3033,rev?*%
%TF.SameCoordinates,Original*%
%TF.FileFunction,Copper,L2,Bot*%
%TF.FilePolarity,Positive*%
%FSLAX46Y46*%
G04 Gerber Fmt 4.6, Leading zero omitted, Abs format (unit mm)*
G04 Created by KiCad (PCBNEW 8.0.7) date 2025-02-07 22:14:00*
%MOMM*%
%LPD*%
G01*
G04 APERTURE LIST*
G04 Aperture macros list*
%AMRoundRect*
0 Rectangle with rounded corners*
0 $1 Rounding radius*
0 $2 $3 $4 $5 $6 $7 $8 $9 X,Y pos of 4 corners*
0 Add a 4 corners polygon primitive as box body*
4,1,4,$2,$3,$4,$5,$6,$7,$8,$9,$2,$3,0*
0 Add four circle primitives for the rounded corners*
1,1,$1+$1,$2,$3*
1,1,$1+$1,$4,$5*
1,1,$1+$1,$6,$7*
1,1,$1+$1,$8,$9*
0 Add four rect primitives between the rounded corners*
20,1,$1+$1,$2,$3,$4,$5,0*
20,1,$1+$1,$4,$5,$6,$7,0*
20,1,$1+$1,$6,$7,$8,$9,0*
20,1,$1+$1,$8,$9,$2,$3,0*%
G04 Aperture macros list end*
%TA.AperFunction,ComponentPad*%
%ADD10R,1.700000X1.700000*%
%TD*%
%TA.AperFunction,ComponentPad*%
%ADD11O,1.700000X1.700000*%
%TD*%
%TA.AperFunction,SMDPad,CuDef*%
%ADD12RoundRect,0.150000X0.150000X-0.587500X0.150000X0.587500X-0.150000X0.587500X-0.150000X-0.587500X0*%
%TD*%
%TA.AperFunction,SMDPad,CuDef*%
%ADD13RoundRect,0.250000X0.350000X0.450000X-0.350000X0.450000X-0.350000X-0.450000X0.350000X-0.450000X0*%
%TD*%
%TA.AperFunction,SMDPad,CuDef*%
%ADD14RoundRect,0.250000X-0.350000X-0.450000X0.350000X-0.450000X0.350000X0.450000X-0.350000X0.450000X0*%
%TD*%
%TA.AperFunction,SMDPad,CuDef*%
%ADD15RoundRect,0.250000X-0.450000X0.325000X-0.450000X-0.325000X0.450000X-0.325000X0.450000X0.325000X0*%
%TD*%
%TA.AperFunction,SMDPad,CuDef*%
%ADD16RoundRect,0.250000X-0.450000X0.350000X-0.450000X-0.350000X0.450000X-0.350000X0.450000X0.350000X0*%
%TD*%
%TA.AperFunction,Conductor*%
%ADD17C,0.600000*%
%TD*%
G04 APERTURE END LIST*
D10*
%TO.P,J205,1,Pin_1*%
%TO.N,Net-(J205-Pin_1)*%
X127710000Y-118970000D03*
%TD*%
%TO.P,J237,1,Pin_1*%
%TO.N,GND*%
X114350000Y-112100000D03*
%TD*%
%TO.P,J206,1,Pin_1*%
%TO.N,Net-(J206-Pin_1)*%
X127710000Y-115170000D03*
%TD*%
%TO.P,J222,1,Pin_1*%
%TO.N,+3.3V*%
X126650000Y-122770000D03*
D11*
%TO.P,J222,2,Pin_2*%
%TO.N,GND*%
X124110000Y-122770000D03*
%TD*%
D12*
%TO.P,Q5,1,G*%
%TO.N,Net-(Q5-G)*%
X121060000Y-116107500D03*
%TO.P,Q5,2,S*%
%TO.N,GND*%
X119160000Y-116107500D03*
%TO.P,Q5,3,D*%
%TO.N,Net-(D1-K)*%
X120110000Y-114232500D03*
%TD*%
D13*
%TO.P,R27,1*%
%TO.N,Net-(J205-Pin_1)*%
X124910000Y-118970000D03*
%TO.P,R27,2*%
%TO.N,Net-(Q2-G)*%
X122910000Y-118970000D03*
%TD*%
%TO.P,R74,1*%
%TO.N,Net-(J206-Pin_1)*%
X124910000Y-115170000D03*
%TO.P,R74,2*%
%TO.N,Net-(Q5-G)*%
X122910000Y-115170000D03*
%TD*%
D14*
%TO.P,R28,1*%
%TO.N,GND*%
X119110000Y-122832500D03*
%TO.P,R28,2*%
%TO.N,Net-(Q2-G)*%
X121110000Y-122832500D03*
%TD*%
D15*
%TO.P,D1,1,K*%
%TO.N,Net-(D1-K)*%
X113310000Y-115770000D03*
%TO.P,D1,2,A*%
%TO.N,Net-(D1-A)*%
X113310000Y-117820000D03*
%TD*%
D16*
%TO.P,R7,1*%
%TO.N,Net-(D1-A)*%
X113310000Y-119595000D03*
%TO.P,R7,2*%
%TO.N,+3.3V*%
X113310000Y-121595000D03*
%TD*%
D12*
%TO.P,Q2,1,G*%
%TO.N,Net-(Q2-G)*%
X121060000Y-120770000D03*
%TO.P,Q2,2,S*%
%TO.N,GND*%
X119160000Y-120770000D03*
%TO.P,Q2,3,D*%
%TO.N,Net-(D3-K)*%
X120110000Y-118895000D03*
%TD*%
D15*
%TO.P,D3,1,K*%
%TO.N,Net-(D3-K)*%
X115510000Y-115770000D03*
%TO.P,D3,2,A*%
%TO.N,Net-(D3-A)*%
X115510000Y-117820000D03*
%TD*%
D16*
%TO.P,R29,1*%
%TO.N,Net-(D3-A)*%
X115510000Y-119595000D03*
%TO.P,R29,2*%
%TO.N,+3.3V*%
X115510000Y-121595000D03*
%TD*%
D14*
%TO.P,R30,1*%
%TO.N,GND*%
X119110000Y-112170000D03*
%TO.P,R30,2*%
%TO.N,Net-(Q5-G)*%
X121110000Y-112170000D03*
%TD*%
D17*
%TO.N,GND*%
X124110000Y-122770000D02*
X122580000Y-124300000D01*
X119840000Y-124300000D02*
X119110000Y-123570000D01*
X119910000Y-110770000D02*
X126910000Y-110770000D01*
X126910000Y-110770000D02*
X129510000Y-113370000D01*
X119110000Y-111570000D02*
X119910000Y-110770000D01*
X119160000Y-116107500D02*
X119160000Y-112220000D01*
X119110000Y-112170000D02*
X114420000Y-112170000D01*
X128910000Y-120970000D02*
X124910000Y-120970000D01*
X119160000Y-122782500D02*
X119110000Y-122832500D01*
X124110000Y-121770000D02*
X124110000Y-122770000D01*
X119160000Y-112220000D02*
X119110000Y-112170000D01*
X119160000Y-120770000D02*
X119160000Y-122782500D01*
X129510000Y-113370000D02*
X129510000Y-120370000D01*
X119110000Y-123570000D02*
X119110000Y-122832500D01*
X114420000Y-112170000D02*
X114350000Y-112100000D01*
X129510000Y-120370000D02*
X128910000Y-120970000D01*
X119110000Y-112170000D02*
X119110000Y-111570000D01*
X122580000Y-124300000D02*
X119840000Y-124300000D01*
X124910000Y-120970000D02*
X124110000Y-121770000D01*
%TO.N,+3.3V*%
X125450000Y-125200000D02*
X126650000Y-124000000D01*
X126650000Y-124000000D02*
X126650000Y-122770000D01*
X115510000Y-121595000D02*
X115510000Y-123170000D01*
X115510000Y-123170000D02*
X117540000Y-125200000D01*
X117540000Y-125200000D02*
X125450000Y-125200000D01*
X113310000Y-121595000D02*
X115510000Y-121595000D01*
%TO.N,Net-(D1-A)*%
X113310000Y-117820000D02*
X113310000Y-119595000D01*
%TO.N,Net-(D3-A)*%
X115510000Y-117820000D02*
X115510000Y-119595000D01*
%TO.N,Net-(Q2-G)*%
X121060000Y-122782500D02*
X121060000Y-120770000D01*
X121110000Y-122832500D02*
X121060000Y-122782500D01*
X121910000Y-118970000D02*
X122910000Y-118970000D01*
X121060000Y-120770000D02*
X121060000Y-119820000D01*
X121060000Y-119820000D02*
X121910000Y-118970000D01*
%TO.N,Net-(Q5-G)*%
X121510000Y-115170000D02*
X121460000Y-115170000D01*
X121060000Y-116107500D02*
X121060000Y-115620000D01*
X121060000Y-112220000D02*
X121110000Y-112170000D01*
X121460000Y-115170000D02*
X121060000Y-114770000D01*
X121510000Y-115170000D02*
X122910000Y-115170000D01*
X121060000Y-114770000D02*
X121060000Y-112220000D01*
X121060000Y-116107500D02*
X121060000Y-114770000D01*
X121060000Y-115620000D02*
X121510000Y-115170000D01*
%TO.N,Net-(D1-K)*%
X120110000Y-117170000D02*
X120110000Y-114232500D01*
X114110000Y-114370000D02*
X116710000Y-114370000D01*
X116710000Y-114370000D02*
X117310000Y-114970000D01*
X119910000Y-117370000D02*
X120110000Y-117170000D01*
X117310000Y-116170000D02*
X118510000Y-117370000D01*
X113310000Y-115170000D02*
X114110000Y-114370000D01*
X113310000Y-115770000D02*
X113310000Y-115170000D01*
X118510000Y-117370000D02*
X119910000Y-117370000D01*
X117310000Y-114970000D02*
X117310000Y-116170000D01*
%TO.N,Net-(D3-K)*%
X120110000Y-118895000D02*
X117635000Y-118895000D01*
X116910000Y-117170000D02*
X115510000Y-115770000D01*
X116910000Y-118170000D02*
X116910000Y-117170000D01*
X117635000Y-118895000D02*
X116910000Y-118170000D01*
%TO.N,Net-(J206-Pin_1)*%
X124910000Y-115170000D02*
X127710000Y-115170000D01*
%TO.N,Net-(J205-Pin_1)*%
X124910000Y-118970000D02*
X127710000Y-118970000D01*
%TD*%
%TA.AperFunction,Conductor*%
%TO.N,GND*%
G36*
X130092539Y-110270185D02*
G01*
X130138294Y-110322989D01*
X130149500Y-110374500D01*
X130149500Y-126125500D01*
X130129815Y-126192539D01*
X130077011Y-126238294D01*
X130025500Y-126249500D01*
X112524500Y-126249500D01*
X112457461Y-126229815D01*
X112411706Y-126177011D01*
X112400500Y-126125500D01*
X112400500Y-122755087D01*
X112420185Y-122688048D01*
X112472989Y-122642293D01*
X112542147Y-122632349D01*
X112563495Y-122637379D01*
X112707203Y-122684999D01*
X112809991Y-122695500D01*
X113810008Y-122695499D01*
X113810016Y-122695498D01*
X113810019Y-122695498D01*
X113833896Y-122693058D01*
X113912797Y-122684999D01*
X113998895Y-122656467D01*
X114011584Y-122652999D01*
X114039396Y-122646963D01*
X114366718Y-122525042D01*
X114436410Y-122520089D01*
X114453276Y-122525041D01*
X114498234Y-122541787D01*
X114554186Y-122583634D01*
X114567699Y-122606374D01*
X114698247Y-122891546D01*
X114709500Y-122943160D01*
X114709500Y-123248846D01*
X114740261Y-123403489D01*
X114740264Y-123403501D01*
X114800602Y-123549172D01*
X114800609Y-123549185D01*
X114888210Y-123680288D01*
X114888213Y-123680292D01*
X117029707Y-125821786D01*
X117029711Y-125821789D01*
X117160814Y-125909390D01*
X117160818Y-125909392D01*
X117160821Y-125909394D01*
X117306503Y-125969738D01*
X117461153Y-126000499D01*
X117461157Y-126000500D01*
X117461158Y-126000500D01*
X125528844Y-126000500D01*
X125528845Y-126000499D01*
X125683497Y-125969737D01*
X125829179Y-125909394D01*
X125960289Y-125821789D01*
X126884799Y-124897277D01*
X126891692Y-124890889D01*
X126918490Y-124867890D01*
X126945845Y-124836618D01*
X126951465Y-124830610D01*
X127160286Y-124621790D01*
X127160289Y-124621789D01*
X127271789Y-124510289D01*
X127359394Y-124379179D01*
X127363620Y-124368974D01*
X127384852Y-124334785D01*
X127544057Y-124152796D01*
X127600298Y-124117025D01*
X127600215Y-124116802D01*
X127601264Y-124116410D01*
X127603012Y-124115299D01*
X127607160Y-124114211D01*
X127607481Y-124114091D01*
X127607483Y-124114091D01*
X127742331Y-124063796D01*
X127857546Y-123977546D01*
X127943796Y-123862331D01*
X127994091Y-123727483D01*
X128000500Y-123667873D01*
X128000499Y-121872128D01*
X127994091Y-121812517D01*
X127993002Y-121809598D01*
X127943797Y-121677671D01*
X127943793Y-121677664D01*
X127857547Y-121562455D01*
X127857544Y-121562452D01*
X127742335Y-121476206D01*
X127742328Y-121476202D01*
X127607482Y-121425908D01*
X127607483Y-121425908D01*
X127547883Y-121419501D01*
X127547881Y-121419500D01*
X127547873Y-121419500D01*
X127547864Y-121419500D01*
X125752129Y-121419500D01*
X125752123Y-121419501D01*
X125692516Y-121425908D01*
X125557671Y-121476202D01*
X125557664Y-121476206D01*
X125442455Y-121562452D01*
X125442452Y-121562455D01*
X125356206Y-121677664D01*
X125356202Y-121677671D01*
X125306997Y-121809598D01*
X125265126Y-121865532D01*
X125199661Y-121889949D01*
X125131388Y-121875097D01*
X125103134Y-121853946D01*
X124981082Y-121731894D01*
X124787578Y-121596399D01*
X124573492Y-121496570D01*
X124573486Y-121496567D01*
X124360000Y-121439364D01*
X124360000Y-122336988D01*
X124302993Y-122304075D01*
X124175826Y-122270000D01*
X124044174Y-122270000D01*
X123917007Y-122304075D01*
X123860000Y-122336988D01*
X123860000Y-121439364D01*
X123859999Y-121439364D01*
X123646513Y-121496567D01*
X123646507Y-121496570D01*
X123432422Y-121596399D01*
X123432420Y-121596400D01*
X123238926Y-121731886D01*
X123238920Y-121731891D01*
X123071891Y-121898920D01*
X123071886Y-121898926D01*
X122936400Y-122092420D01*
X122936399Y-122092422D01*
X122836570Y-122306507D01*
X122836567Y-122306513D01*
X122779364Y-122519999D01*
X122779364Y-122520000D01*
X123676988Y-122520000D01*
X123644075Y-122577007D01*
X123610000Y-122704174D01*
X123610000Y-122835826D01*
X123644075Y-122962993D01*
X123676988Y-123020000D01*
X122779364Y-123020000D01*
X122836567Y-123233486D01*
X122836570Y-123233492D01*
X122936399Y-123447578D01*
X123071894Y-123641082D01*
X123238917Y-123808105D01*
X123432421Y-123943600D01*
X123646507Y-124043429D01*
X123646516Y-124043433D01*
X123860000Y-124100634D01*
X123860000Y-123203012D01*
X123917007Y-123235925D01*
X124044174Y-123270000D01*
X124175826Y-123270000D01*
X124302993Y-123235925D01*
X124360000Y-123203012D01*
X124360000Y-124100633D01*
X124573483Y-124043433D01*
X124573492Y-124043429D01*
X124787578Y-123943600D01*
X124981078Y-123808108D01*
X125103133Y-123686053D01*
X125164456Y-123652568D01*
X125234148Y-123657552D01*
X125290082Y-123699423D01*
X125306997Y-123730401D01*
X125312021Y-123743871D01*
X125314776Y-123753341D01*
X125314802Y-123753333D01*
X125316644Y-123759136D01*
X125316646Y-123759144D01*
X125316648Y-123759150D01*
X125316649Y-123759151D01*
X125323624Y-123775399D01*
X125325862Y-123780981D01*
X125356202Y-123862328D01*
X125356205Y-123862334D01*
X125358473Y-123865363D01*
X125371257Y-123887481D01*
X125371374Y-123887421D01*
X125372646Y-123889884D01*
X125373142Y-123890741D01*
X125373400Y-123891342D01*
X125373407Y-123891356D01*
X125418524Y-123965222D01*
X125436670Y-124032694D01*
X125415456Y-124099266D01*
X125400383Y-124117538D01*
X125154741Y-124363181D01*
X125093418Y-124396666D01*
X125067060Y-124399500D01*
X117922940Y-124399500D01*
X117855901Y-124379815D01*
X117835259Y-124363181D01*
X116804564Y-123332486D01*
X118010001Y-123332486D01*
X118020494Y-123435197D01*
X118075641Y-123601619D01*
X118075643Y-123601624D01*
X118167684Y-123750845D01*
X118291654Y-123874815D01*
X118440875Y-123966856D01*
X118440880Y-123966858D01*
X118607302Y-124022005D01*
X118607309Y-124022006D01*
X118710019Y-124032499D01*
X118859999Y-124032499D01*
X118860000Y-124032498D01*
X118860000Y-123082500D01*
X118010001Y-123082500D01*
X118010001Y-123332486D01*
X116804564Y-123332486D01*
X116395838Y-122923760D01*
X116362353Y-122862437D01*
X116367337Y-122792745D01*
X116370772Y-122784465D01*
X116520943Y-122456426D01*
X116546010Y-122420357D01*
X116552712Y-122413656D01*
X116602761Y-122332513D01*
X118010000Y-122332513D01*
X118010000Y-122582500D01*
X118860000Y-122582500D01*
X118860000Y-121603862D01*
X118879685Y-121536823D01*
X118896319Y-121516181D01*
X118910000Y-121502500D01*
X118910000Y-121020000D01*
X118360000Y-121020000D01*
X118360000Y-121423149D01*
X118362899Y-121459989D01*
X118407102Y-121612137D01*
X118406902Y-121682006D01*
X118368959Y-121740676D01*
X118353123Y-121752269D01*
X118291656Y-121790182D01*
X118167684Y-121914154D01*
X118075643Y-122063375D01*
X118075641Y-122063380D01*
X118020494Y-122229802D01*
X118020493Y-122229809D01*
X118010000Y-122332513D01*
X116602761Y-122332513D01*
X116644814Y-122264334D01*
X116699999Y-122097797D01*
X116710500Y-121995009D01*
X116710499Y-121194992D01*
X116699999Y-121092203D01*
X116644814Y-120925666D01*
X116552712Y-120776344D01*
X116459049Y-120682681D01*
X116425564Y-120621358D01*
X116430548Y-120551666D01*
X116459049Y-120507319D01*
X116552712Y-120413656D01*
X116644814Y-120264334D01*
X116699999Y-120097797D01*
X116710500Y-119995009D01*
X116710499Y-119401938D01*
X116730183Y-119334900D01*
X116782987Y-119289145D01*
X116852146Y-119279201D01*
X116915702Y-119308226D01*
X116922180Y-119314258D01*
X117124707Y-119516786D01*
X117124711Y-119516789D01*
X117255814Y-119604390D01*
X117255827Y-119604397D01*
X117401498Y-119664735D01*
X117401503Y-119664737D01*
X117556153Y-119695499D01*
X117556156Y-119695500D01*
X117556158Y-119695500D01*
X117713843Y-119695500D01*
X118325453Y-119695500D01*
X118392492Y-119715185D01*
X118438247Y-119767989D01*
X118448191Y-119837147D01*
X118432186Y-119882620D01*
X118408716Y-119922305D01*
X118408716Y-119922306D01*
X118362900Y-120080004D01*
X118362899Y-120080010D01*
X118360000Y-120116850D01*
X118360000Y-120520000D01*
X119960000Y-120520000D01*
X119960000Y-120257000D01*
X119979685Y-120189961D01*
X120032489Y-120144206D01*
X120084000Y-120133000D01*
X120135500Y-120133000D01*
X120202539Y-120152685D01*
X120248294Y-120205489D01*
X120259500Y-120257000D01*
X120259500Y-121421952D01*
X120254066Y-121458256D01*
X120160293Y-121764508D01*
X120121844Y-121822847D01*
X120057958Y-121851137D01*
X119988918Y-121840397D01*
X119954046Y-121815885D01*
X119923237Y-121785076D01*
X119925093Y-121783219D01*
X119891784Y-121736176D01*
X119888648Y-121666377D01*
X119902342Y-121632813D01*
X119911283Y-121617694D01*
X119911283Y-121617693D01*
X119957099Y-121459995D01*
X119957100Y-121459989D01*
X119959999Y-121423149D01*
X119960000Y-121423134D01*
X119960000Y-121020000D01*
X119410000Y-121020000D01*
X119410000Y-122036138D01*
X119390315Y-122103177D01*
X119373681Y-122123819D01*
X119360000Y-122137500D01*
X119360000Y-124032499D01*
X119509972Y-124032499D01*
X119509986Y-124032498D01*
X119612697Y-124022005D01*
X119779119Y-123966858D01*
X119779124Y-123966856D01*
X119928342Y-123874817D01*
X120021964Y-123781195D01*
X120083287Y-123747710D01*
X120152979Y-123752694D01*
X120197327Y-123781195D01*
X120291344Y-123875212D01*
X120440666Y-123967314D01*
X120607203Y-124022499D01*
X120709991Y-124033000D01*
X121510008Y-124032999D01*
X121510016Y-124032998D01*
X121510019Y-124032998D01*
X121566302Y-124027248D01*
X121612797Y-124022499D01*
X121779334Y-123967314D01*
X121928656Y-123875212D01*
X122052712Y-123751156D01*
X122144814Y-123601834D01*
X122199999Y-123435297D01*
X122210500Y-123332509D01*
X122210499Y-122332492D01*
X122199999Y-122229703D01*
X122153346Y-122088915D01*
X122151544Y-122082984D01*
X122149069Y-122074041D01*
X122148709Y-122073219D01*
X122145028Y-122063627D01*
X122144816Y-122063172D01*
X122144814Y-122063166D01*
X122144810Y-122063159D01*
X122141763Y-122056624D01*
X122141798Y-122056607D01*
X122139577Y-122052371D01*
X121870918Y-121439013D01*
X121860500Y-121389263D01*
X121860500Y-120202939D01*
X121880185Y-120135900D01*
X121896810Y-120115267D01*
X121965129Y-120046948D01*
X122026447Y-120013466D01*
X122096139Y-120018450D01*
X122117898Y-120029090D01*
X122240666Y-120104814D01*
X122407203Y-120159999D01*
X122509991Y-120170500D01*
X123310008Y-120170499D01*
X123310016Y-120170498D01*
X123310019Y-120170498D01*
X123366302Y-120164748D01*
X123412797Y-120159999D01*
X123579334Y-120104814D01*
X123728656Y-120012712D01*
X123822319Y-119919049D01*
X123883642Y-119885564D01*
X123953334Y-119890548D01*
X123997681Y-119919049D01*
X124091344Y-120012712D01*
X124240666Y-120104814D01*
X124407203Y-120159999D01*
X124509991Y-120170500D01*
X125310008Y-120170499D01*
X125310016Y-120170498D01*
X125310019Y-120170498D01*
X125366302Y-120164748D01*
X125412797Y-120159999D01*
X125579334Y-120104814D01*
X125728656Y-120012712D01*
X125735355Y-120006012D01*
X125771420Y-119980945D01*
X125947813Y-119900195D01*
X126016960Y-119890190D01*
X126066784Y-119908835D01*
X126369659Y-120104814D01*
X126577331Y-120239191D01*
X126577415Y-120239245D01*
X126577449Y-120239267D01*
X126577983Y-120239611D01*
X126577992Y-120239615D01*
X126577997Y-120239618D01*
X126585040Y-120242850D01*
X126607633Y-120256283D01*
X126617667Y-120263795D01*
X126617668Y-120263795D01*
X126617669Y-120263796D01*
X126682904Y-120288126D01*
X126691275Y-120291603D01*
X126708750Y-120299623D01*
X126715099Y-120301500D01*
X126717711Y-120302120D01*
X126732370Y-120306576D01*
X126752517Y-120314091D01*
X126812127Y-120320500D01*
X128607872Y-120320499D01*
X128667483Y-120314091D01*
X128802331Y-120263796D01*
X128917546Y-120177546D01*
X129003796Y-120062331D01*
X129054091Y-119927483D01*
X129060500Y-119867873D01*
X129060499Y-118072128D01*
X129054091Y-118012517D01*
X129034150Y-117959053D01*
X129003797Y-117877671D01*
X129003793Y-117877664D01*
X128917547Y-117762455D01*
X128917544Y-117762452D01*
X128802335Y-117676206D01*
X128802328Y-117676202D01*
X128667482Y-117625908D01*
X128667483Y-117625908D01*
X128607883Y-117619501D01*
X128607881Y-117619500D01*
X128607873Y-117619500D01*
X128607864Y-117619500D01*
X126812129Y-117619500D01*
X126812125Y-117619501D01*
X126752516Y-117625909D01*
X126729495Y-117634494D01*
X126715061Y-117638897D01*
X126708142Y-117640554D01*
X126708138Y-117640556D01*
X126690564Y-117648647D01*
X126682043Y-117652192D01*
X126617671Y-117676202D01*
X126617667Y-117676204D01*
X126607325Y-117683946D01*
X126584892Y-117697304D01*
X126577453Y-117700729D01*
X126066787Y-118031160D01*
X125999809Y-118051052D01*
X125947810Y-118039801D01*
X125771421Y-117959053D01*
X125735354Y-117933986D01*
X125728657Y-117927289D01*
X125728656Y-117927288D01*
X125635888Y-117870069D01*
X125579336Y-117835187D01*
X125579331Y-117835185D01*
X125577862Y-117834698D01*
X125412797Y-117780001D01*
X125412795Y-117780000D01*
X125310010Y-117769500D01*
X124509998Y-117769500D01*
X124509980Y-117769501D01*
X124407203Y-117780000D01*
X124407200Y-117780001D01*
X124240668Y-117835185D01*
X124240663Y-117835187D01*
X124091342Y-117927289D01*
X123997681Y-118020951D01*
X123936358Y-118054436D01*
X123866666Y-118049452D01*
X123822319Y-118020951D01*
X123728657Y-117927289D01*
X123728656Y-117927288D01*
X123635888Y-117870069D01*
X123579336Y-117835187D01*
X123579331Y-117835185D01*
X123577862Y-117834698D01*
X123412797Y-117780001D01*
X123412795Y-117780000D01*
X123310010Y-117769500D01*
X122509998Y-117769500D01*
X122509980Y-117769501D01*
X122407203Y-117780000D01*
X122407200Y-117780001D01*
X122240668Y-117835185D01*
X122240663Y-117835187D01*
X122091342Y-117927289D01*
X121967288Y-118051343D01*
X121963289Y-118056401D01*
X121929816Y-118085820D01*
X121788546Y-118170568D01*
X121748948Y-118185851D01*
X121676508Y-118200260D01*
X121676502Y-118200262D01*
X121530824Y-118260604D01*
X121530814Y-118260609D01*
X121399711Y-118348210D01*
X121399707Y-118348213D01*
X121122181Y-118625740D01*
X121060858Y-118659225D01*
X120991166Y-118654241D01*
X120935233Y-118612369D01*
X120910816Y-118546905D01*
X120910500Y-118538059D01*
X120910500Y-118241813D01*
X120910499Y-118241798D01*
X120907598Y-118204932D01*
X120907597Y-118204926D01*
X120869013Y-118072123D01*
X120861744Y-118047102D01*
X120778081Y-117905635D01*
X120778079Y-117905633D01*
X120778076Y-117905629D01*
X120729943Y-117857496D01*
X120696458Y-117796173D01*
X120701442Y-117726481D01*
X120728045Y-117685089D01*
X120727928Y-117684993D01*
X120728757Y-117683982D01*
X120729948Y-117682129D01*
X120731789Y-117680289D01*
X120819394Y-117549179D01*
X120872054Y-117422046D01*
X120915895Y-117367644D01*
X120982189Y-117345579D01*
X120986615Y-117345500D01*
X121275686Y-117345500D01*
X121275694Y-117345500D01*
X121312569Y-117342598D01*
X121312571Y-117342597D01*
X121312573Y-117342597D01*
X121354191Y-117330505D01*
X121470398Y-117296744D01*
X121611865Y-117213081D01*
X121728081Y-117096865D01*
X121811744Y-116955398D01*
X121845505Y-116839191D01*
X121857597Y-116797573D01*
X121857598Y-116797567D01*
X121860499Y-116760701D01*
X121860500Y-116760694D01*
X121860500Y-116287986D01*
X121880185Y-116220947D01*
X121932989Y-116175192D01*
X122002147Y-116165248D01*
X122036106Y-116175236D01*
X122048584Y-116180948D01*
X122084642Y-116206010D01*
X122091344Y-116212712D01*
X122240666Y-116304814D01*
X122407203Y-116359999D01*
X122509991Y-116370500D01*
X123310008Y-116370499D01*
X123310016Y-116370498D01*
X123310019Y-116370498D01*
X123366302Y-116364748D01*
X123412797Y-116359999D01*
X123579334Y-116304814D01*
X123728656Y-116212712D01*
X123822319Y-116119049D01*
X123883642Y-116085564D01*
X123953334Y-116090548D01*
X123997681Y-116119049D01*
X124091344Y-116212712D01*
X124240666Y-116304814D01*
X124407203Y-116359999D01*
X124509991Y-116370500D01*
X125310008Y-116370499D01*
X125310016Y-116370498D01*
X125310019Y-116370498D01*
X125366302Y-116364748D01*
X125412797Y-116359999D01*
X125579334Y-116304814D01*
X125728656Y-116212712D01*
X125735355Y-116206012D01*
X125771420Y-116180945D01*
X125947813Y-116100195D01*
X126016960Y-116090190D01*
X126066784Y-116108835D01*
X126369659Y-116304814D01*
X126577331Y-116439191D01*
X126577415Y-116439245D01*
X126577449Y-116439267D01*
X126577983Y-116439611D01*
X126577992Y-116439615D01*
X126577997Y-116439618D01*
X126585040Y-116442850D01*
X126607633Y-116456283D01*
X126617667Y-116463795D01*
X126617668Y-116463795D01*
X126617669Y-116463796D01*
X126682904Y-116488126D01*
X126691275Y-116491603D01*
X126708750Y-116499623D01*
X126715099Y-116501500D01*
X126717711Y-116502120D01*
X126732370Y-116506576D01*
X126752517Y-116514091D01*
X126812127Y-116520500D01*
X128607872Y-116520499D01*
X128667483Y-116514091D01*
X128802331Y-116463796D01*
X128917546Y-116377546D01*
X129003796Y-116262331D01*
X129054091Y-116127483D01*
X129060500Y-116067873D01*
X129060499Y-114272128D01*
X129054091Y-114212517D01*
X129052476Y-114208188D01*
X129003797Y-114077671D01*
X129003793Y-114077664D01*
X128917547Y-113962455D01*
X128917544Y-113962452D01*
X128802335Y-113876206D01*
X128802328Y-113876202D01*
X128667482Y-113825908D01*
X128667483Y-113825908D01*
X128607883Y-113819501D01*
X128607881Y-113819500D01*
X128607873Y-113819500D01*
X128607864Y-113819500D01*
X126812129Y-113819500D01*
X126812125Y-113819501D01*
X126752516Y-113825909D01*
X126729495Y-113834494D01*
X126715061Y-113838897D01*
X126708142Y-113840554D01*
X126708138Y-113840556D01*
X126690564Y-113848647D01*
X126682043Y-113852192D01*
X126617671Y-113876202D01*
X126617667Y-113876204D01*
X126607325Y-113883946D01*
X126584892Y-113897304D01*
X126577453Y-113900729D01*
X126066787Y-114231160D01*
X125999809Y-114251052D01*
X125947810Y-114239801D01*
X125771421Y-114159053D01*
X125735354Y-114133986D01*
X125728657Y-114127289D01*
X125728656Y-114127288D01*
X125579334Y-114035186D01*
X125412797Y-113980001D01*
X125412795Y-113980000D01*
X125310010Y-113969500D01*
X124509998Y-113969500D01*
X124509980Y-113969501D01*
X124407203Y-113980000D01*
X124407200Y-113980001D01*
X124240668Y-114035185D01*
X124240663Y-114035187D01*
X124091342Y-114127289D01*
X123997681Y-114220951D01*
X123936358Y-114254436D01*
X123866666Y-114249452D01*
X123822319Y-114220951D01*
X123728657Y-114127289D01*
X123728656Y-114127288D01*
X123579334Y-114035186D01*
X123412797Y-113980001D01*
X123412795Y-113980000D01*
X123310010Y-113969500D01*
X122509998Y-113969500D01*
X122509980Y-113969501D01*
X122407203Y-113980000D01*
X122407200Y-113980001D01*
X122240668Y-114035185D01*
X122240659Y-114035189D01*
X122091344Y-114127287D01*
X122084643Y-114133988D01*
X122048577Y-114159051D01*
X122036112Y-114164757D01*
X121966962Y-114174763D01*
X121903381Y-114145794D01*
X121865554Y-114087050D01*
X121860500Y-114052009D01*
X121860500Y-113613234D01*
X121870918Y-113563484D01*
X121880139Y-113542432D01*
X122139568Y-112950145D01*
X122141791Y-112945907D01*
X122141756Y-112945891D01*
X122144811Y-112939338D01*
X122144814Y-112939334D01*
X122144815Y-112939329D01*
X122145019Y-112938893D01*
X122148706Y-112929284D01*
X122149070Y-112928455D01*
X122159598Y-112894771D01*
X122160210Y-112892868D01*
X122199999Y-112772797D01*
X122210500Y-112670009D01*
X122210499Y-111669992D01*
X122199999Y-111567203D01*
X122144814Y-111400666D01*
X122052712Y-111251344D01*
X121928656Y-111127288D01*
X121779334Y-111035186D01*
X121612797Y-110980001D01*
X121612795Y-110980000D01*
X121510010Y-110969500D01*
X120709998Y-110969500D01*
X120709980Y-110969501D01*
X120607203Y-110980000D01*
X120607200Y-110980001D01*
X120440668Y-111035185D01*
X120440663Y-111035187D01*
X120291345Y-111127287D01*
X120197327Y-111221305D01*
X120136003Y-111254789D01*
X120066312Y-111249805D01*
X120021965Y-111221304D01*
X119928345Y-111127684D01*
X119779124Y-111035643D01*
X119779119Y-111035641D01*
X119612697Y-110980494D01*
X119612690Y-110980493D01*
X119509986Y-110970000D01*
X119360000Y-110970000D01*
X119360000Y-113360951D01*
X119355076Y-113395546D01*
X119312402Y-113542426D01*
X119312401Y-113542432D01*
X119309500Y-113579298D01*
X119309500Y-115983500D01*
X119289815Y-116050539D01*
X119237011Y-116096294D01*
X119185500Y-116107500D01*
X119034000Y-116107500D01*
X118966961Y-116087815D01*
X118921206Y-116035011D01*
X118910000Y-115983500D01*
X118910000Y-114872703D01*
X118907503Y-114872900D01*
X118749806Y-114918716D01*
X118749803Y-114918717D01*
X118608447Y-115002314D01*
X118608438Y-115002321D01*
X118492321Y-115118438D01*
X118492314Y-115118447D01*
X118408717Y-115259803D01*
X118408716Y-115259806D01*
X118362900Y-115417504D01*
X118362899Y-115417510D01*
X118360000Y-115454350D01*
X118360000Y-115788560D01*
X118340315Y-115855599D01*
X118287511Y-115901354D01*
X118218353Y-115911298D01*
X118154797Y-115882273D01*
X118148319Y-115876241D01*
X118146819Y-115874741D01*
X118113334Y-115813418D01*
X118110500Y-115787060D01*
X118110500Y-114891161D01*
X118110500Y-114891158D01*
X118107785Y-114877511D01*
X118079737Y-114736503D01*
X118078679Y-114733949D01*
X118047928Y-114659709D01*
X118019397Y-114590827D01*
X118019390Y-114590814D01*
X117931790Y-114459712D01*
X117931789Y-114459711D01*
X117820289Y-114348211D01*
X117524087Y-114052009D01*
X117220292Y-113748213D01*
X117220288Y-113748210D01*
X117089185Y-113660609D01*
X117089172Y-113660602D01*
X116943501Y-113600264D01*
X116943489Y-113600261D01*
X116788845Y-113569500D01*
X116788842Y-113569500D01*
X115579344Y-113569500D01*
X115512305Y-113549815D01*
X115466550Y-113497011D01*
X115456606Y-113427853D01*
X115485631Y-113364297D01*
X115505032Y-113346234D01*
X115557190Y-113307187D01*
X115643350Y-113192093D01*
X115643354Y-113192086D01*
X115693596Y-113057379D01*
X115693598Y-113057372D01*
X115699999Y-112997844D01*
X115700000Y-112997827D01*
X115700000Y-112669986D01*
X118010001Y-112669986D01*
X118020494Y-112772697D01*
X118075641Y-112939119D01*
X118075643Y-112939124D01*
X118167684Y-113088345D01*
X118291654Y-113212315D01*
X118440875Y-113304356D01*
X118440880Y-113304358D01*
X118607302Y-113359505D01*
X118607309Y-113359506D01*
X118710019Y-113369999D01*
X118859999Y-113369999D01*
X118860000Y-113369998D01*
X118860000Y-112420000D01*
X118010001Y-112420000D01*
X118010001Y-112669986D01*
X115700000Y-112669986D01*
X115700000Y-112350000D01*
X114783012Y-112350000D01*
X114815925Y-112292993D01*
X114850000Y-112165826D01*
X114850000Y-112034174D01*
X114815925Y-111907007D01*
X114783012Y-111850000D01*
X115700000Y-111850000D01*
X115700000Y-111670013D01*
X118010000Y-111670013D01*
X118010000Y-111920000D01*
X118860000Y-111920000D01*
X118860000Y-110970000D01*
X118710027Y-110970000D01*
X118710012Y-110970001D01*
X118607302Y-110980494D01*
X118440880Y-111035641D01*
X118440875Y-111035643D01*
X118291654Y-111127684D01*
X118167684Y-111251654D01*
X118075643Y-111400875D01*
X118075641Y-111400880D01*
X118020494Y-111567302D01*
X118020493Y-111567309D01*
X118010000Y-111670013D01*
X115700000Y-111670013D01*
X115700000Y-111202172D01*
X115699999Y-111202155D01*
X115693598Y-111142627D01*
X115693596Y-111142620D01*
X115643354Y-111007913D01*
X115643350Y-111007906D01*
X115557190Y-110892812D01*
X115557187Y-110892809D01*
X115442093Y-110806649D01*
X115442086Y-110806645D01*
X115307379Y-110756403D01*
X115307372Y-110756401D01*
X115247844Y-110750000D01*
X114600000Y-110750000D01*
X114600000Y-111666988D01*
X114542993Y-111634075D01*
X114415826Y-111600000D01*
X114284174Y-111600000D01*
X114157007Y-111634075D01*
X114100000Y-111666988D01*
X114100000Y-110750000D01*
X113452155Y-110750000D01*
X113392627Y-110756401D01*
X113392620Y-110756403D01*
X113257913Y-110806645D01*
X113257906Y-110806649D01*
X113142812Y-110892809D01*
X113142809Y-110892812D01*
X113056649Y-111007906D01*
X113056645Y-111007913D01*
X113006403Y-111142620D01*
X113006401Y-111142627D01*
X113000000Y-111202155D01*
X113000000Y-111850000D01*
X113916988Y-111850000D01*
X113884075Y-111907007D01*
X113850000Y-112034174D01*
X113850000Y-112165826D01*
X113884075Y-112292993D01*
X113916988Y-112350000D01*
X113000000Y-112350000D01*
X113000000Y-112997844D01*
X113006401Y-113057372D01*
X113006403Y-113057379D01*
X113056645Y-113192086D01*
X113056649Y-113192093D01*
X113142809Y-113307187D01*
X113142812Y-113307190D01*
X113257906Y-113393350D01*
X113257913Y-113393354D01*
X113392620Y-113443596D01*
X113392627Y-113443598D01*
X113452155Y-113449999D01*
X113452172Y-113450000D01*
X113637241Y-113450000D01*
X113704280Y-113469685D01*
X113750035Y-113522489D01*
X113759979Y-113591647D01*
X113730954Y-113655203D01*
X113706132Y-113677102D01*
X113599711Y-113748210D01*
X113599707Y-113748213D01*
X113139732Y-114208188D01*
X113131030Y-114216101D01*
X113104385Y-114238114D01*
X113052503Y-114295217D01*
X113048408Y-114299512D01*
X112799711Y-114548211D01*
X112757108Y-114590814D01*
X112688212Y-114659709D01*
X112688208Y-114659713D01*
X112667605Y-114690548D01*
X112613992Y-114735352D01*
X112603511Y-114739360D01*
X112563506Y-114752617D01*
X112493677Y-114755020D01*
X112433635Y-114719289D01*
X112402442Y-114656769D01*
X112400500Y-114634912D01*
X112400500Y-110374500D01*
X112420185Y-110307461D01*
X112472989Y-110261706D01*
X112524500Y-110250500D01*
X130025500Y-110250500D01*
X130092539Y-110270185D01*
G37*
%TD.AperFunction*%
%TD*%
%TA.AperFunction,Conductor*%
%TO.N,+3.3V*%
G36*
X126658057Y-122778488D02*
G01*
X126658882Y-122779405D01*
X127332336Y-123612346D01*
X127334873Y-123620934D01*
X127332044Y-123627406D01*
X126538026Y-124535058D01*
X126530000Y-124539028D01*
X126521516Y-124536160D01*
X126520947Y-124535627D01*
X126106514Y-124121194D01*
X126104802Y-124119020D01*
X125804800Y-123627859D01*
X125803412Y-123619012D01*
X125806510Y-123613489D01*
X126641512Y-122778487D01*
X126649784Y-122775061D01*
X126658057Y-122778488D01*
G37*
%TD.AperFunction*%
%TD*%
%TA.AperFunction,Conductor*%
%TO.N,+3.3V*%
G36*
X115517871Y-121601158D02*
G01*
X116103675Y-122133916D01*
X116107490Y-122142017D01*
X116106441Y-122147441D01*
X115813127Y-122788170D01*
X115806568Y-122794266D01*
X115802489Y-122795000D01*
X115217511Y-122795000D01*
X115209238Y-122791573D01*
X115206873Y-122788170D01*
X114913558Y-122147441D01*
X114913230Y-122138492D01*
X114916321Y-122133919D01*
X115502128Y-121601158D01*
X115510554Y-121598128D01*
X115517871Y-121601158D01*
G37*
%TD.AperFunction*%
%TD*%
%TA.AperFunction,Conductor*%
%TO.N,+3.3V*%
G36*
X113862951Y-121016741D02*
G01*
X114602384Y-121292163D01*
X114608941Y-121298262D01*
X114610000Y-121303127D01*
X114610000Y-121886872D01*
X114606573Y-121895145D01*
X114602384Y-121897836D01*
X113862952Y-122173257D01*
X113854003Y-122172934D01*
X113850347Y-122170311D01*
X113536891Y-121837190D01*
X113316543Y-121603016D01*
X113313370Y-121594644D01*
X113316543Y-121586983D01*
X113850347Y-121019687D01*
X113858512Y-121016011D01*
X113862951Y-121016741D01*
G37*
%TD.AperFunction*%
%TD*%
%TA.AperFunction,Conductor*%
%TO.N,+3.3V*%
G36*
X114965996Y-121017065D02*
G01*
X114969652Y-121019688D01*
X115503455Y-121586982D01*
X115506629Y-121595356D01*
X115503455Y-121603018D01*
X114969652Y-122170311D01*
X114961487Y-122173988D01*
X114957047Y-122173257D01*
X114217616Y-121897836D01*
X114211059Y-121891737D01*
X114210000Y-121886872D01*
X114210000Y-121303127D01*
X114213427Y-121294854D01*
X114217615Y-121292163D01*
X114957047Y-121016742D01*
X114965996Y-121017065D01*
G37*
%TD.AperFunction*%
%TD*%
%TA.AperFunction,Conductor*%
%TO.N,Net-(D1-A)*%
G36*
X113610762Y-118398427D02*
G01*
X113613127Y-118401830D01*
X113906441Y-119042557D01*
X113906769Y-119051506D01*
X113903675Y-119056083D01*
X113317872Y-119588840D01*
X113309446Y-119591871D01*
X113302128Y-119588840D01*
X112974594Y-119290965D01*
X112716323Y-119056081D01*
X112712509Y-119047981D01*
X112713557Y-119042560D01*
X113006873Y-118401829D01*
X113013432Y-118395734D01*
X113017511Y-118395000D01*
X113602489Y-118395000D01*
X113610762Y-118398427D01*
G37*
%TD.AperFunction*%
%TD*%
%TA.AperFunction,Conductor*%
%TO.N,Net-(D1-A)*%
G36*
X113317988Y-117826465D02*
G01*
X113878894Y-118350666D01*
X113882598Y-118358818D01*
X113881582Y-118363999D01*
X113613099Y-118963085D01*
X113606588Y-118969233D01*
X113602422Y-118970000D01*
X113017578Y-118970000D01*
X113009305Y-118966573D01*
X113006901Y-118963085D01*
X112738416Y-118363997D01*
X112738161Y-118355048D01*
X112741102Y-118350670D01*
X113302011Y-117826465D01*
X113310396Y-117823321D01*
X113317988Y-117826465D01*
G37*
%TD.AperFunction*%
%TD*%
%TA.AperFunction,Conductor*%
%TO.N,Net-(D3-A)*%
G36*
X115517988Y-117826465D02*
G01*
X116078894Y-118350666D01*
X116082598Y-118358818D01*
X116081582Y-118363999D01*
X115813099Y-118963085D01*
X115806588Y-118969233D01*
X115802422Y-118970000D01*
X115217578Y-118970000D01*
X115209305Y-118966573D01*
X115206901Y-118963085D01*
X114938416Y-118363997D01*
X114938161Y-118355048D01*
X114941102Y-118350670D01*
X115502011Y-117826465D01*
X115510396Y-117823321D01*
X115517988Y-117826465D01*
G37*
%TD.AperFunction*%
%TD*%
%TA.AperFunction,Conductor*%
%TO.N,Net-(D3-A)*%
G36*
X115810762Y-118398427D02*
G01*
X115813127Y-118401830D01*
X116106441Y-119042557D01*
X116106769Y-119051506D01*
X116103675Y-119056083D01*
X115517872Y-119588840D01*
X115509446Y-119591871D01*
X115502128Y-119588840D01*
X115174594Y-119290965D01*
X114916323Y-119056081D01*
X114912509Y-119047981D01*
X114913557Y-119042560D01*
X115206873Y-118401829D01*
X115213432Y-118395734D01*
X115217511Y-118395000D01*
X115802489Y-118395000D01*
X115810762Y-118398427D01*
G37*
%TD.AperFunction*%
%TD*%
%TA.AperFunction,Conductor*%
%TO.N,Net-(Q2-G)*%
G36*
X121360625Y-121535927D02*
G01*
X121363069Y-121539506D01*
X121686040Y-122276857D01*
X121686220Y-122285810D01*
X121683372Y-122290043D01*
X121118019Y-122825898D01*
X121109657Y-122829102D01*
X121101952Y-122825927D01*
X120534329Y-122291815D01*
X120530652Y-122283650D01*
X120531159Y-122279875D01*
X120757466Y-121540774D01*
X120763165Y-121533867D01*
X120768653Y-121532500D01*
X121352352Y-121532500D01*
X121360625Y-121535927D01*
G37*
%TD.AperFunction*%
%TD*%
%TA.AperFunction,Conductor*%
%TO.N,Net-(Q2-G)*%
G36*
X122332868Y-118443230D02*
G01*
X122902389Y-118961721D01*
X122906200Y-118969825D01*
X122903469Y-118977902D01*
X122390015Y-119588696D01*
X122382068Y-119592823D01*
X122374488Y-119590847D01*
X121981628Y-119324176D01*
X121979926Y-119322769D01*
X121567043Y-118909886D01*
X121563616Y-118901613D01*
X121567043Y-118893340D01*
X121569290Y-118891585D01*
X122318974Y-118441848D01*
X122327830Y-118440532D01*
X122332868Y-118443230D01*
G37*
%TD.AperFunction*%
%TD*%
%TA.AperFunction,Conductor*%
%TO.N,Net-(Q5-G)*%
G36*
X122371081Y-114576322D02*
G01*
X122605965Y-114834594D01*
X122903840Y-115162128D01*
X122906871Y-115170554D01*
X122903840Y-115177872D01*
X122371083Y-115763675D01*
X122362981Y-115767490D01*
X122357557Y-115766441D01*
X121716830Y-115473126D01*
X121710734Y-115466567D01*
X121710000Y-115462488D01*
X121710000Y-114877511D01*
X121713427Y-114869238D01*
X121716828Y-114866873D01*
X122357558Y-114573557D01*
X122366506Y-114573230D01*
X122371081Y-114576322D01*
G37*
%TD.AperFunction*%
%TD*%
%TA.AperFunction,Conductor*%
%TO.N,Net-(Q5-G)*%
G36*
X121118019Y-112176601D02*
G01*
X121681503Y-112710684D01*
X121683372Y-112712455D01*
X121687019Y-112720634D01*
X121686040Y-112725641D01*
X121363069Y-113462994D01*
X121356611Y-113469197D01*
X121352352Y-113470000D01*
X120768653Y-113470000D01*
X120760380Y-113466573D01*
X120757466Y-113461725D01*
X120531160Y-112722628D01*
X120532014Y-112713717D01*
X120534326Y-112710686D01*
X121101953Y-112176571D01*
X121110326Y-112173398D01*
X121118019Y-112176601D01*
G37*
%TD.AperFunction*%
%TD*%
%TA.AperFunction,Conductor*%
%TO.N,Net-(D1-K)*%
G36*
X113495050Y-114577252D02*
G01*
X113495455Y-114577639D01*
X113908640Y-114990824D01*
X113911783Y-114996535D01*
X113989144Y-115341197D01*
X113987612Y-115350019D01*
X113983880Y-115353711D01*
X113318823Y-115764816D01*
X113309984Y-115766251D01*
X113302995Y-115761441D01*
X113025866Y-115353711D01*
X112923172Y-115202622D01*
X112921356Y-115193854D01*
X112924187Y-115188180D01*
X113478523Y-114578043D01*
X113486622Y-114574225D01*
X113495050Y-114577252D01*
G37*
%TD.AperFunction*%
%TD*%
%TA.AperFunction,Conductor*%
%TO.N,Net-(D3-K)*%
G36*
X116210559Y-115660207D02*
G01*
X116213964Y-115664068D01*
X116586776Y-116345000D01*
X116676352Y-116508607D01*
X116677319Y-116517510D01*
X116674362Y-116522499D01*
X116262782Y-116934079D01*
X116254509Y-116937506D01*
X116248454Y-116935817D01*
X115280413Y-116350194D01*
X115275108Y-116342979D01*
X115275652Y-116335724D01*
X115506796Y-115775345D01*
X115513119Y-115769004D01*
X115515755Y-115768255D01*
X116201848Y-115658135D01*
X116210559Y-115660207D01*
G37*
%TD.AperFunction*%
%TD*%
%TA.AperFunction,Conductor*%
%TO.N,Net-(J206-Pin_1)*%
G36*
X125462440Y-114573557D02*
G01*
X126103170Y-114866873D01*
X126109266Y-114873432D01*
X126110000Y-114877511D01*
X126110000Y-115462488D01*
X126106573Y-115470761D01*
X126103170Y-115473126D01*
X125462442Y-115766441D01*
X125453493Y-115766769D01*
X125448917Y-115763676D01*
X124916158Y-115177871D01*
X124913128Y-115169446D01*
X124916159Y-115162128D01*
X125448918Y-114576322D01*
X125457018Y-114572509D01*
X125462440Y-114573557D01*
G37*
%TD.AperFunction*%
%TD*%
%TA.AperFunction,Conductor*%
%TO.N,Net-(J206-Pin_1)*%
G36*
X126866687Y-114326680D02*
G01*
X127702712Y-115161722D01*
X127706144Y-115169993D01*
X127702722Y-115178268D01*
X127702712Y-115178278D01*
X126866687Y-116013319D01*
X126858412Y-116016741D01*
X126852063Y-116014864D01*
X126015344Y-115473457D01*
X126010260Y-115466085D01*
X126010000Y-115463634D01*
X126010000Y-114876365D01*
X126013427Y-114868092D01*
X126015344Y-114866542D01*
X126852064Y-114325134D01*
X126860870Y-114323518D01*
X126866687Y-114326680D01*
G37*
%TD.AperFunction*%
%TD*%
%TA.AperFunction,Conductor*%
%TO.N,Net-(J205-Pin_1)*%
G36*
X126866687Y-118126680D02*
G01*
X127702712Y-118961722D01*
X127706144Y-118969993D01*
X127702722Y-118978268D01*
X127702712Y-118978278D01*
X126866687Y-119813319D01*
X126858412Y-119816741D01*
X126852063Y-119814864D01*
X126015344Y-119273457D01*
X126010260Y-119266085D01*
X126010000Y-119263634D01*
X126010000Y-118676365D01*
X126013427Y-118668092D01*
X126015344Y-118666542D01*
X126852064Y-118125134D01*
X126860870Y-118123518D01*
X126866687Y-118126680D01*
G37*
%TD.AperFunction*%
%TD*%
%TA.AperFunction,Conductor*%
%TO.N,Net-(J205-Pin_1)*%
G36*
X125462440Y-118373557D02*
G01*
X126103170Y-118666873D01*
X126109266Y-118673432D01*
X126110000Y-118677511D01*
X126110000Y-119262488D01*
X126106573Y-119270761D01*
X126103170Y-119273126D01*
X125462442Y-119566441D01*
X125453493Y-119566769D01*
X125448917Y-119563676D01*
X124916158Y-118977871D01*
X124913128Y-118969446D01*
X124916159Y-118962128D01*
X125448918Y-118376322D01*
X125457018Y-118372509D01*
X125462440Y-118373557D01*
G37*
%TD.AperFunction*%
%TD*%
M02*
