%TF.GenerationSoftware,KiCad,Pcbnew,9.0.7+1*%
%TF.CreationDate,2026-03-01T17:30:10+01:00*%
%TF.ProjectId,2_power_board,325f706f-7765-4725-9f62-6f6172642e6b,rev?*%
%TF.SameCoordinates,Original*%
%TF.FileFunction,Copper,L1,Top*%
%TF.FilePolarity,Positive*%
%FSLAX46Y46*%
G04 Gerber Fmt 4.6, Leading zero omitted, Abs format (unit mm)*
G04 Created by KiCad (PCBNEW 9.0.7+1) date 2026-03-01 17:30:10*
%MOMM*%
%LPD*%
G01*
G04 APERTURE LIST*
G04 Aperture macros list*
%AMRoundRect*
0 Rectangle with rounded corners*
0 $1 Rounding radius*
0 $2 $3 $4 $5 $6 $7 $8 $9 X,Y pos of 4 corners*
0 Add a 4 corners polygon primitive as box body*
4,1,4,$2,$3,$4,$5,$6,$7,$8,$9,$2,$3,0*
0 Add four circle primitives for the rounded corners*
1,1,$1+$1,$2,$3*
1,1,$1+$1,$4,$5*
1,1,$1+$1,$6,$7*
1,1,$1+$1,$8,$9*
0 Add four rect primitives between the rounded corners*
20,1,$1+$1,$2,$3,$4,$5,0*
20,1,$1+$1,$4,$5,$6,$7,0*
20,1,$1+$1,$6,$7,$8,$9,0*
20,1,$1+$1,$8,$9,$2,$3,0*%
%AMHorizOval*
0 Thick line with rounded ends*
0 $1 width*
0 $2 $3 position (X,Y) of the first rounded end (center of the circle)*
0 $4 $5 position (X,Y) of the second rounded end (center of the circle)*
0 Add line between two ends*
20,1,$1,$2,$3,$4,$5,0*
0 Add two circle primitives to create the rounded ends*
1,1,$1,$2,$3*
1,1,$1,$4,$5*%
G04 Aperture macros list end*
%TA.AperFunction,ComponentPad*%
%ADD10RoundRect,0.250000X-1.050000X-1.050000X1.050000X-1.050000X1.050000X1.050000X-1.050000X1.050000X0*%
%TD*%
%TA.AperFunction,ComponentPad*%
%ADD11C,2.600000*%
%TD*%
%TA.AperFunction,ComponentPad*%
%ADD12R,1.500000X1.500000*%
%TD*%
%TA.AperFunction,ComponentPad*%
%ADD13C,1.500000*%
%TD*%
%TA.AperFunction,ComponentPad*%
%ADD14HorizOval,0.800000X0.000000X0.000000X0.000000X0.000000X0*%
%TD*%
%TA.AperFunction,ComponentPad*%
%ADD15HorizOval,0.800000X0.000000X0.000000X0.000000X0.000000X0*%
%TD*%
%TA.AperFunction,ComponentPad*%
%ADD16C,0.800000*%
%TD*%
%TA.AperFunction,ComponentPad*%
%ADD17O,9.000000X6.000000*%
%TD*%
%TA.AperFunction,SMDPad,CuDef*%
%ADD18RoundRect,0.250000X-0.475000X0.337500X-0.475000X-0.337500X0.475000X-0.337500X0.475000X0.337500X0*%
%TD*%
%TA.AperFunction,SMDPad,CuDef*%
%ADD19R,1.380000X1.890000*%
%TD*%
%TA.AperFunction,ComponentPad*%
%ADD20RoundRect,0.250000X0.600000X0.725000X-0.600000X0.725000X-0.600000X-0.725000X0.600000X-0.725000X0*%
%TD*%
%TA.AperFunction,ComponentPad*%
%ADD21O,1.700000X1.950000*%
%TD*%
%TA.AperFunction,ComponentPad*%
%ADD22RoundRect,0.250001X-0.949999X0.949999X-0.949999X-0.949999X0.949999X-0.949999X0.949999X0.949999X0*%
%TD*%
%TA.AperFunction,ComponentPad*%
%ADD23C,2.400000*%
%TD*%
%TA.AperFunction,SMDPad,CuDef*%
%ADD24RoundRect,1.250000X-3.750000X1.250000X-3.750000X-1.250000X3.750000X-1.250000X3.750000X1.250000X0*%
%TD*%
%TA.AperFunction,SMDPad,CuDef*%
%ADD25RoundRect,0.250000X0.337500X0.475000X-0.337500X0.475000X-0.337500X-0.475000X0.337500X-0.475000X0*%
%TD*%
%TA.AperFunction,SMDPad,CuDef*%
%ADD26RoundRect,0.250000X-0.450000X0.350000X-0.450000X-0.350000X0.450000X-0.350000X0.450000X0.350000X0*%
%TD*%
%TA.AperFunction,Conductor*%
%ADD27C,2.500000*%
%TD*%
%TA.AperFunction,Conductor*%
%ADD28C,5.000000*%
%TD*%
%TA.AperFunction,Conductor*%
%ADD29C,0.200000*%
%TD*%
%TA.AperFunction,Conductor*%
%ADD30C,2.000000*%
%TD*%
G04 APERTURE END LIST*
D10*
%TO.P,J5,1,Pin_1*%
%TO.N,VBAT-*%
X157155001Y-117522501D03*
D11*
%TO.P,J5,2,Pin_2*%
%TO.N,VTMDC*%
X162235001Y-117522501D03*
%TD*%
D12*
%TO.P,U1,1,VCC*%
%TO.N,+3.3V*%
X137290001Y-110912001D03*
D13*
%TO.P,U1,2,GND*%
%TO.N,GND*%
X139200001Y-110912001D03*
%TO.P,U1,3,VIOUT*%
%TO.N,Net-(U1-VIOUT)*%
X141110001Y-110912001D03*
D14*
%TO.P,U1,4,IP+*%
%TO.N,VBAT+*%
X140250001Y-88882001D03*
D15*
X140250001Y-90142001D03*
D16*
X141000001Y-87852001D03*
X141000001Y-91172001D03*
X142200001Y-87462001D03*
X142200001Y-91562001D03*
X143530001Y-87462001D03*
X143530001Y-91562001D03*
D17*
X144200001Y-89512001D03*
D16*
X144870001Y-87462001D03*
X144870001Y-91562001D03*
X146200001Y-87462001D03*
X146200001Y-91562001D03*
X147400001Y-87852001D03*
X147400001Y-91172001D03*
X148150001Y-88882001D03*
X148150001Y-90142001D03*
%TO.P,U1,5,IP-*%
%TO.N,Net-(J2-V+)*%
X130250001Y-88882001D03*
X130250001Y-90142001D03*
X131000001Y-87852001D03*
X131000001Y-91172001D03*
X132200001Y-87462001D03*
X132200001Y-91562001D03*
X133530001Y-87462001D03*
X133530001Y-91562001D03*
D17*
X134200001Y-89512001D03*
D16*
X134870001Y-87462001D03*
X134870001Y-91562001D03*
X136200001Y-87462001D03*
X136200001Y-91562001D03*
X137400001Y-87852001D03*
X137400001Y-91172001D03*
D15*
X138150001Y-88882001D03*
D14*
X138150001Y-90142001D03*
%TD*%
D18*
%TO.P,C3,1*%
%TO.N,GND*%
X137150001Y-112874501D03*
%TO.P,C3,2*%
%TO.N,+3.3V*%
X137150001Y-114949501D03*
%TD*%
D19*
%TO.P,D1,1,K*%
%TO.N,VTMDC*%
X150950001Y-97790001D03*
%TO.P,D1,2,A*%
%TO.N,VBAT+*%
X150950001Y-93310001D03*
%TD*%
D20*
%TO.P,J3,1,Pin_1*%
%TO.N,GND*%
X141700000Y-119800000D03*
D21*
%TO.P,J3,2,Pin_2*%
%TO.N,+3.3V*%
X139200000Y-119800000D03*
%TO.P,J3,3,Pin_3*%
%TO.N,Net-(J3-Pin_3)*%
X136700000Y-119800000D03*
%TD*%
D22*
%TO.P,C1,1*%
%TO.N,VBAT+*%
X161200001Y-92000001D03*
D23*
%TO.P,C1,2*%
%TO.N,VBAT-*%
X161200001Y-99500001D03*
%TD*%
D24*
%TO.P,J1,1,V+*%
%TO.N,VBAT+*%
X175000001Y-92000001D03*
%TO.P,J1,2,V-*%
%TO.N,VBAT-*%
X175000001Y-107000001D03*
%TD*%
D18*
%TO.P,C2,1*%
%TO.N,GND*%
X139200001Y-112874501D03*
%TO.P,C2,2*%
%TO.N,Net-(J3-Pin_3)*%
X139200001Y-114949501D03*
%TD*%
D25*
%TO.P,C4,1*%
%TO.N,VTMDC*%
X160732501Y-110772501D03*
%TO.P,C4,2*%
%TO.N,VBAT-*%
X158657501Y-110772501D03*
%TD*%
D26*
%TO.P,R1,1*%
%TO.N,Net-(U1-VIOUT)*%
X141250001Y-112912001D03*
%TO.P,R1,2*%
%TO.N,Net-(J3-Pin_3)*%
X141250001Y-114912001D03*
%TD*%
D24*
%TO.P,J2,1,V+*%
%TO.N,Net-(J2-V+)*%
X124000001Y-92000001D03*
%TO.P,J2,2,V-*%
%TO.N,VBAT-*%
X124000001Y-107000001D03*
%TD*%
D27*
%TO.N,VBAT-*%
X157894001Y-110772501D02*
X157155001Y-111511501D01*
X157155001Y-117522501D02*
X160706001Y-121073501D01*
X149321500Y-102200000D02*
X157894001Y-110772501D01*
X132600000Y-102200000D02*
X149321500Y-102200000D01*
X163705874Y-121073501D02*
X168700001Y-116079374D01*
X157155001Y-111511501D02*
X157155001Y-117522501D01*
X127799999Y-107000001D02*
X132600000Y-102200000D01*
X168700001Y-116079374D02*
X168700001Y-107000001D01*
X160706001Y-121073501D02*
X163705874Y-121073501D01*
D28*
X168700001Y-107000001D02*
X161200001Y-99500001D01*
X175000001Y-107000001D02*
X168700001Y-107000001D01*
D27*
X124000001Y-107000001D02*
X127799999Y-107000001D01*
D28*
%TO.N,VBAT+*%
X175000001Y-92000001D02*
X161200001Y-92000001D01*
X148662001Y-89512001D02*
X144200001Y-89512001D01*
X161200001Y-92000001D02*
X151150001Y-92000001D01*
X151150001Y-92000001D02*
X148662001Y-89512001D01*
D29*
%TO.N,Net-(J3-Pin_3)*%
X139200001Y-114949501D02*
X141212501Y-114949501D01*
X139200001Y-114999999D02*
X136700000Y-117500000D01*
X141212501Y-114949501D02*
X141250001Y-114912001D01*
X139200001Y-114949501D02*
X139200001Y-114999999D01*
X136700000Y-117500000D02*
X136700000Y-119800000D01*
%TO.N,GND*%
X142400000Y-119100000D02*
X142400000Y-110715660D01*
X139200001Y-110912001D02*
X139200001Y-112874501D01*
X140251001Y-109861001D02*
X141545340Y-109861001D01*
X141545340Y-109861001D02*
X142242170Y-110557830D01*
X141700000Y-119800000D02*
X142400000Y-119100000D01*
X137150001Y-112874501D02*
X139200001Y-112874501D01*
X142400000Y-110715660D02*
X142242170Y-110557830D01*
X139200001Y-110912001D02*
X140251001Y-109861001D01*
X142242170Y-110557830D02*
X142251001Y-110566662D01*
%TO.N,+3.3V*%
X136124001Y-113923501D02*
X137150001Y-114949501D01*
X136223240Y-121076000D02*
X137924000Y-121076000D01*
X137924000Y-121076000D02*
X139200000Y-119800000D01*
X137150001Y-114949501D02*
X135549000Y-116550502D01*
X137290001Y-110912001D02*
X136124001Y-112078001D01*
X135549000Y-116550502D02*
X135549000Y-120401760D01*
X135549000Y-120401760D02*
X136223240Y-121076000D01*
X136124001Y-112078001D02*
X136124001Y-113923501D01*
D30*
%TO.N,VTMDC*%
X162235001Y-111862501D02*
X162235001Y-117522501D01*
X161145001Y-107985001D02*
X161145001Y-110772501D01*
X161145001Y-110772501D02*
X162235001Y-111862501D01*
X150950001Y-97790001D02*
X161145001Y-107985001D01*
D28*
%TO.N,Net-(J2-V+)*%
X128750001Y-92000001D02*
X124000001Y-92000001D01*
X134200001Y-89512001D02*
X131238001Y-89512001D01*
X131238001Y-89512001D02*
X128750001Y-92000001D01*
D29*
%TO.N,Net-(U1-VIOUT)*%
X141110001Y-112772001D02*
X141250001Y-112912001D01*
X141110001Y-110912001D02*
X141110001Y-112772001D01*
%TD*%
%TA.AperFunction,Conductor*%
%TO.N,VBAT-*%
G36*
X174934109Y-76500501D02*
G01*
X174997877Y-76500501D01*
X175002108Y-76500572D01*
X175507565Y-76517839D01*
X175515988Y-76518416D01*
X176016995Y-76569921D01*
X176025333Y-76571067D01*
X176521643Y-76656640D01*
X176521649Y-76656641D01*
X176529938Y-76658363D01*
X177019241Y-76777603D01*
X177027355Y-76779876D01*
X177467585Y-76919599D01*
X177507400Y-76932236D01*
X177515355Y-76935062D01*
X177983906Y-77119836D01*
X177991614Y-77123184D01*
X178446439Y-77339490D01*
X178453931Y-77343371D01*
X178600008Y-77425506D01*
X178892926Y-77590206D01*
X178900160Y-77594605D01*
X179321284Y-77870820D01*
X179328193Y-77875698D01*
X179729473Y-78179999D01*
X179736030Y-78185333D01*
X180115629Y-78516326D01*
X180121800Y-78522090D01*
X180477910Y-78878200D01*
X180483689Y-78884388D01*
X180814658Y-79263959D01*
X180820002Y-79270527D01*
X181124302Y-79671807D01*
X181129185Y-79678724D01*
X181405395Y-80099840D01*
X181409794Y-80107074D01*
X181656622Y-80546057D01*
X181660517Y-80553575D01*
X181876802Y-81008357D01*
X181880176Y-81016123D01*
X182064932Y-81484636D01*
X182067767Y-81492614D01*
X182220117Y-81972627D01*
X182222401Y-81980780D01*
X182341635Y-82470062D01*
X182343358Y-82478352D01*
X182428928Y-82974643D01*
X182430081Y-82983031D01*
X182481582Y-83484000D01*
X182482160Y-83492447D01*
X182489939Y-83720174D01*
X182499429Y-83997969D01*
X182499501Y-84002168D01*
X182499502Y-114934110D01*
X182499502Y-114997876D01*
X182499430Y-115002110D01*
X182482163Y-115507555D01*
X182481585Y-115516002D01*
X182430084Y-116016971D01*
X182428931Y-116025359D01*
X182343361Y-116521650D01*
X182341638Y-116529940D01*
X182222404Y-117019222D01*
X182220120Y-117027375D01*
X182067770Y-117507388D01*
X182064935Y-117515366D01*
X181880178Y-117983879D01*
X181876804Y-117991645D01*
X181660519Y-118446427D01*
X181656624Y-118453945D01*
X181409796Y-118892927D01*
X181405397Y-118900161D01*
X181129187Y-119321278D01*
X181124304Y-119328196D01*
X180820010Y-119729466D01*
X180814667Y-119736033D01*
X180483684Y-120115622D01*
X180477904Y-120121810D01*
X180121810Y-120477904D01*
X180115622Y-120483684D01*
X179736033Y-120814667D01*
X179729466Y-120820010D01*
X179571654Y-120939683D01*
X179328193Y-121124305D01*
X179321278Y-121129187D01*
X178900161Y-121405397D01*
X178892927Y-121409796D01*
X178453945Y-121656624D01*
X178446427Y-121660519D01*
X177991645Y-121876804D01*
X177983879Y-121880178D01*
X177515366Y-122064935D01*
X177507388Y-122067770D01*
X177027375Y-122220120D01*
X177019222Y-122222404D01*
X176529940Y-122341638D01*
X176521650Y-122343361D01*
X176025359Y-122428931D01*
X176016971Y-122430084D01*
X175516002Y-122481585D01*
X175507555Y-122482163D01*
X175041608Y-122498080D01*
X175002108Y-122499430D01*
X174997877Y-122499502D01*
X146824000Y-122499502D01*
X146756961Y-122479817D01*
X146711206Y-122427013D01*
X146700000Y-122375502D01*
X146700000Y-116422514D01*
X155355001Y-116422514D01*
X155355001Y-117272501D01*
X156555000Y-117272501D01*
X156529980Y-117332903D01*
X156505001Y-117458482D01*
X156505001Y-117586520D01*
X156529980Y-117712099D01*
X156555000Y-117772501D01*
X155355002Y-117772501D01*
X155355002Y-118622487D01*
X155365495Y-118725198D01*
X155420642Y-118891620D01*
X155420644Y-118891625D01*
X155512685Y-119040846D01*
X155636655Y-119164816D01*
X155785876Y-119256857D01*
X155785881Y-119256859D01*
X155952303Y-119312006D01*
X155952310Y-119312007D01*
X156055020Y-119322500D01*
X156905000Y-119322500D01*
X156905001Y-119322499D01*
X156905001Y-118122502D01*
X156965403Y-118147522D01*
X157090982Y-118172501D01*
X157219020Y-118172501D01*
X157344599Y-118147522D01*
X157405001Y-118122502D01*
X157405001Y-119322500D01*
X158254973Y-119322500D01*
X158254987Y-119322499D01*
X158357698Y-119312006D01*
X158524120Y-119256859D01*
X158524125Y-119256857D01*
X158673346Y-119164816D01*
X158797316Y-119040846D01*
X158889357Y-118891625D01*
X158889359Y-118891620D01*
X158944506Y-118725198D01*
X158944507Y-118725191D01*
X158955000Y-118622487D01*
X158955001Y-118622474D01*
X158955001Y-117772501D01*
X157755002Y-117772501D01*
X157780022Y-117712099D01*
X157805001Y-117586520D01*
X157805001Y-117458482D01*
X157780022Y-117332903D01*
X157755002Y-117272501D01*
X158955000Y-117272501D01*
X158955000Y-116422529D01*
X158954999Y-116422514D01*
X158944506Y-116319803D01*
X158889359Y-116153381D01*
X158889357Y-116153376D01*
X158797316Y-116004155D01*
X158673346Y-115880185D01*
X158524125Y-115788144D01*
X158524120Y-115788142D01*
X158357698Y-115732995D01*
X158357691Y-115732994D01*
X158254987Y-115722501D01*
X157405001Y-115722501D01*
X157405001Y-116922499D01*
X157344599Y-116897480D01*
X157219020Y-116872501D01*
X157090982Y-116872501D01*
X156965403Y-116897480D01*
X156905001Y-116922499D01*
X156905001Y-115722501D01*
X156055029Y-115722501D01*
X156055013Y-115722502D01*
X155952303Y-115732995D01*
X155785881Y-115788142D01*
X155785876Y-115788144D01*
X155636655Y-115880185D01*
X155512685Y-116004155D01*
X155420644Y-116153376D01*
X155420642Y-116153381D01*
X155365495Y-116319803D01*
X155365494Y-116319810D01*
X155355001Y-116422514D01*
X146700000Y-116422514D01*
X146700000Y-111297487D01*
X157570002Y-111297487D01*
X157580495Y-111400198D01*
X157635642Y-111566620D01*
X157635644Y-111566625D01*
X157727685Y-111715846D01*
X157851655Y-111839816D01*
X158000876Y-111931857D01*
X158000881Y-111931859D01*
X158167303Y-111987006D01*
X158167310Y-111987007D01*
X158270020Y-111997500D01*
X158407500Y-111997500D01*
X158407501Y-111997499D01*
X158407501Y-111022501D01*
X157570002Y-111022501D01*
X157570002Y-111297487D01*
X146700000Y-111297487D01*
X146700000Y-110247514D01*
X157570001Y-110247514D01*
X157570001Y-110522501D01*
X158407501Y-110522501D01*
X158407501Y-109547501D01*
X158270028Y-109547501D01*
X158270013Y-109547502D01*
X158167303Y-109557995D01*
X158000881Y-109613142D01*
X158000876Y-109613144D01*
X157851655Y-109705185D01*
X157727685Y-109829155D01*
X157635644Y-109978376D01*
X157635642Y-109978381D01*
X157580495Y-110144803D01*
X157580494Y-110144810D01*
X157570001Y-110247514D01*
X146700000Y-110247514D01*
X146700000Y-109400000D01*
X142800000Y-105500000D01*
X135600000Y-105500000D01*
X135599999Y-105500000D01*
X131700000Y-109399999D01*
X131700000Y-122375502D01*
X131680315Y-122442541D01*
X131627511Y-122488296D01*
X131576000Y-122499502D01*
X124002125Y-122499502D01*
X123997893Y-122499430D01*
X123955922Y-122497996D01*
X123492446Y-122482163D01*
X123483999Y-122481585D01*
X122983030Y-122430084D01*
X122974642Y-122428931D01*
X122478350Y-122343361D01*
X122470060Y-122341638D01*
X121980779Y-122222404D01*
X121972626Y-122220120D01*
X121492599Y-122067766D01*
X121484628Y-122064933D01*
X121016107Y-121880172D01*
X121008368Y-121876810D01*
X121008355Y-121876804D01*
X120553571Y-121660518D01*
X120546055Y-121656624D01*
X120107073Y-121409796D01*
X120099839Y-121405397D01*
X119678722Y-121129188D01*
X119671805Y-121124305D01*
X119664398Y-121118688D01*
X119270516Y-120819998D01*
X119263964Y-120814667D01*
X118884386Y-120483691D01*
X118878198Y-120477912D01*
X118522088Y-120121802D01*
X118516309Y-120115614D01*
X118261163Y-119823001D01*
X118185329Y-119736031D01*
X118180005Y-119729487D01*
X117875689Y-119328187D01*
X117870812Y-119321278D01*
X117864731Y-119312007D01*
X117594602Y-118900161D01*
X117590204Y-118892928D01*
X117495890Y-118725191D01*
X117343369Y-118453933D01*
X117339488Y-118446441D01*
X117123182Y-117991616D01*
X117119834Y-117983908D01*
X116935060Y-117515357D01*
X116932234Y-117507402D01*
X116916707Y-117458482D01*
X116779873Y-117027356D01*
X116777600Y-117019242D01*
X116658360Y-116529939D01*
X116656638Y-116521650D01*
X116638291Y-116415241D01*
X116571064Y-116025334D01*
X116569918Y-116016996D01*
X116518413Y-115515989D01*
X116517836Y-115507554D01*
X116515528Y-115439996D01*
X116500572Y-115002167D01*
X116500500Y-114997934D01*
X116500500Y-114852487D01*
X121749501Y-114852487D01*
X121749501Y-115147514D01*
X121781572Y-115391114D01*
X121788008Y-115439994D01*
X121864362Y-115724952D01*
X121864365Y-115724962D01*
X121977255Y-115997501D01*
X121977259Y-115997511D01*
X122124762Y-116252994D01*
X122304353Y-116487041D01*
X122304359Y-116487048D01*
X122512953Y-116695642D01*
X122512960Y-116695648D01*
X122747007Y-116875239D01*
X123002490Y-117022742D01*
X123002491Y-117022742D01*
X123002494Y-117022744D01*
X123275049Y-117135640D01*
X123560008Y-117211994D01*
X123852495Y-117250501D01*
X123852502Y-117250501D01*
X124147500Y-117250501D01*
X124147507Y-117250501D01*
X124439994Y-117211994D01*
X124724953Y-117135640D01*
X124997508Y-117022744D01*
X125252995Y-116875239D01*
X125487043Y-116695647D01*
X125695647Y-116487043D01*
X125875239Y-116252995D01*
X126022744Y-115997508D01*
X126135640Y-115724953D01*
X126211994Y-115439994D01*
X126250501Y-115147507D01*
X126250501Y-114852495D01*
X126211994Y-114560008D01*
X126135640Y-114275049D01*
X126022744Y-114002494D01*
X125875239Y-113747007D01*
X125695647Y-113512959D01*
X125695642Y-113512953D01*
X125487048Y-113304359D01*
X125487041Y-113304353D01*
X125252994Y-113124762D01*
X124997511Y-112977259D01*
X124997501Y-112977255D01*
X124724962Y-112864365D01*
X124724955Y-112864363D01*
X124724953Y-112864362D01*
X124439994Y-112788008D01*
X124391114Y-112781572D01*
X124147514Y-112749501D01*
X124147507Y-112749501D01*
X123852495Y-112749501D01*
X123852487Y-112749501D01*
X123574086Y-112786154D01*
X123560008Y-112788008D01*
X123275049Y-112864362D01*
X123275039Y-112864365D01*
X123002500Y-112977255D01*
X123002490Y-112977259D01*
X122747007Y-113124762D01*
X122512960Y-113304353D01*
X122512953Y-113304359D01*
X122304359Y-113512953D01*
X122304353Y-113512960D01*
X122124762Y-113747007D01*
X121977259Y-114002490D01*
X121977255Y-114002500D01*
X121864365Y-114275039D01*
X121864362Y-114275049D01*
X121788009Y-114560005D01*
X121788007Y-114560016D01*
X121749501Y-114852487D01*
X116500500Y-114852487D01*
X116500500Y-108337382D01*
X118500002Y-108337382D01*
X118506128Y-108446488D01*
X118506129Y-108446496D01*
X118554888Y-108704193D01*
X118554890Y-108704203D01*
X118641520Y-108951776D01*
X118764077Y-109183664D01*
X118764081Y-109183670D01*
X118919830Y-109394704D01*
X119105297Y-109580171D01*
X119316331Y-109735920D01*
X119316337Y-109735924D01*
X119548225Y-109858481D01*
X119795798Y-109945111D01*
X119795808Y-109945113D01*
X120053504Y-109993872D01*
X120053511Y-109993873D01*
X120162628Y-110000000D01*
X123750000Y-110000000D01*
X124250001Y-110000000D01*
X127837363Y-110000000D01*
X127837382Y-109999999D01*
X127946488Y-109993873D01*
X127946496Y-109993872D01*
X128204193Y-109945113D01*
X128204203Y-109945111D01*
X128451776Y-109858481D01*
X128683664Y-109735924D01*
X128683670Y-109735920D01*
X128894704Y-109580171D01*
X129080171Y-109394704D01*
X129235920Y-109183670D01*
X129235924Y-109183664D01*
X129358481Y-108951776D01*
X129445111Y-108704203D01*
X129445113Y-108704193D01*
X129493872Y-108446497D01*
X129493873Y-108446490D01*
X129500000Y-108337381D01*
X129500001Y-108337365D01*
X129500001Y-107250001D01*
X124250001Y-107250001D01*
X124250001Y-110000000D01*
X123750000Y-110000000D01*
X123750001Y-109999999D01*
X123750001Y-107250001D01*
X118500002Y-107250001D01*
X118500002Y-108337382D01*
X116500500Y-108337382D01*
X116500500Y-105662620D01*
X118500001Y-105662620D01*
X118500001Y-106750001D01*
X123750001Y-106750001D01*
X124250001Y-106750001D01*
X129500000Y-106750001D01*
X129500000Y-105662639D01*
X129499999Y-105662619D01*
X129493873Y-105553513D01*
X129493872Y-105553505D01*
X129445113Y-105295808D01*
X129445111Y-105295798D01*
X129358481Y-105048225D01*
X129235924Y-104816337D01*
X129235920Y-104816331D01*
X129080171Y-104605297D01*
X128894704Y-104419830D01*
X128683670Y-104264081D01*
X128683664Y-104264077D01*
X128451776Y-104141520D01*
X128204203Y-104054890D01*
X128204193Y-104054888D01*
X127946497Y-104006129D01*
X127946490Y-104006128D01*
X127837381Y-104000001D01*
X124250001Y-104000001D01*
X124250001Y-106750001D01*
X123750001Y-106750001D01*
X123750001Y-104000001D01*
X120162639Y-104000001D01*
X120162619Y-104000002D01*
X120053513Y-104006128D01*
X120053505Y-104006129D01*
X119795808Y-104054888D01*
X119795798Y-104054890D01*
X119548225Y-104141520D01*
X119316337Y-104264077D01*
X119316331Y-104264081D01*
X119105297Y-104419830D01*
X118919830Y-104605297D01*
X118764081Y-104816331D01*
X118764077Y-104816337D01*
X118641520Y-105048225D01*
X118554890Y-105295798D01*
X118554888Y-105295808D01*
X118506129Y-105553504D01*
X118506128Y-105553511D01*
X118500001Y-105662620D01*
X116500500Y-105662620D01*
X116500500Y-99378712D01*
X122149501Y-99378712D01*
X122149501Y-99621289D01*
X122181162Y-99861786D01*
X122243948Y-100096105D01*
X122245562Y-100100001D01*
X122336777Y-100320213D01*
X122458065Y-100530290D01*
X122458067Y-100530293D01*
X122458068Y-100530294D01*
X122605734Y-100722737D01*
X122605740Y-100722744D01*
X122777257Y-100894261D01*
X122777264Y-100894267D01*
X122806279Y-100916531D01*
X122969712Y-101041937D01*
X123179789Y-101163225D01*
X123403901Y-101256055D01*
X123638212Y-101318839D01*
X123818587Y-101342585D01*
X123878712Y-101350501D01*
X123878713Y-101350501D01*
X124121290Y-101350501D01*
X124169389Y-101344168D01*
X124361790Y-101318839D01*
X124596101Y-101256055D01*
X124820213Y-101163225D01*
X125030290Y-101041937D01*
X125222739Y-100894266D01*
X125394266Y-100722739D01*
X125541937Y-100530290D01*
X125663225Y-100320213D01*
X125756055Y-100096101D01*
X125818839Y-99861790D01*
X125850501Y-99621289D01*
X125850501Y-99378713D01*
X125818839Y-99138212D01*
X125756055Y-98903901D01*
X125663225Y-98679789D01*
X125541937Y-98469712D01*
X125394266Y-98277263D01*
X125394261Y-98277257D01*
X125222744Y-98105740D01*
X125222737Y-98105734D01*
X125030294Y-97958068D01*
X125030293Y-97958067D01*
X125030290Y-97958065D01*
X124820213Y-97836777D01*
X124820206Y-97836774D01*
X124657510Y-97769383D01*
X124596105Y-97743948D01*
X124361786Y-97681162D01*
X124192533Y-97658880D01*
X148949502Y-97658880D01*
X148949502Y-97921121D01*
X148977532Y-98134043D01*
X148983730Y-98181117D01*
X149009493Y-98277264D01*
X149051603Y-98434420D01*
X149151955Y-98676691D01*
X149151959Y-98676700D01*
X149253150Y-98851968D01*
X149269276Y-98902984D01*
X149270114Y-98912416D01*
X149278262Y-98940890D01*
X149326092Y-99108050D01*
X149420303Y-99288408D01*
X149420305Y-99288410D01*
X149548891Y-99446110D01*
X149614984Y-99500001D01*
X149706594Y-99574699D01*
X149886952Y-99668910D01*
X150014132Y-99705300D01*
X150067700Y-99736834D01*
X159108182Y-108777316D01*
X159141667Y-108838639D01*
X159144501Y-108864997D01*
X159144501Y-109423501D01*
X159124816Y-109490540D01*
X159072012Y-109536295D01*
X159020501Y-109547501D01*
X158907501Y-109547501D01*
X158907501Y-111997500D01*
X159044973Y-111997500D01*
X159044987Y-111997499D01*
X159147698Y-111987006D01*
X159314120Y-111931859D01*
X159314124Y-111931857D01*
X159353824Y-111907369D01*
X159421216Y-111888927D01*
X159487880Y-111909848D01*
X159517300Y-111937420D01*
X159637716Y-112094350D01*
X159637722Y-112094357D01*
X160198182Y-112654816D01*
X160231667Y-112716139D01*
X160234501Y-112742497D01*
X160234501Y-116353242D01*
X160217888Y-116415241D01*
X160167323Y-116502822D01*
X160167315Y-116502839D01*
X160051914Y-116781440D01*
X159973862Y-117072734D01*
X159934502Y-117371707D01*
X159934501Y-117371724D01*
X159934501Y-117673277D01*
X159934502Y-117673294D01*
X159973862Y-117972267D01*
X160051914Y-118263561D01*
X160167315Y-118542162D01*
X160167319Y-118542172D01*
X160318100Y-118803332D01*
X160501680Y-119042579D01*
X160501686Y-119042586D01*
X160714915Y-119255815D01*
X160714922Y-119255821D01*
X160954169Y-119439401D01*
X161215329Y-119590182D01*
X161215330Y-119590182D01*
X161215333Y-119590184D01*
X161401073Y-119667120D01*
X161493940Y-119705587D01*
X161493941Y-119705587D01*
X161493943Y-119705588D01*
X161785233Y-119783639D01*
X162084218Y-119823001D01*
X162084225Y-119823001D01*
X162385777Y-119823001D01*
X162385784Y-119823001D01*
X162684769Y-119783639D01*
X162976059Y-119705588D01*
X163254669Y-119590184D01*
X163515833Y-119439401D01*
X163755081Y-119255820D01*
X163968320Y-119042581D01*
X164151901Y-118803333D01*
X164302684Y-118542169D01*
X164418088Y-118263559D01*
X164496139Y-117972269D01*
X164535501Y-117673284D01*
X164535501Y-117371718D01*
X164496139Y-117072733D01*
X164418088Y-116781443D01*
X164302684Y-116502833D01*
X164284939Y-116472097D01*
X164252114Y-116415241D01*
X164235501Y-116353242D01*
X164235501Y-114852487D01*
X172749501Y-114852487D01*
X172749501Y-115147514D01*
X172781572Y-115391114D01*
X172788008Y-115439994D01*
X172864362Y-115724952D01*
X172864365Y-115724962D01*
X172977255Y-115997501D01*
X172977259Y-115997511D01*
X173124762Y-116252994D01*
X173304353Y-116487041D01*
X173304359Y-116487048D01*
X173512953Y-116695642D01*
X173512960Y-116695648D01*
X173747007Y-116875239D01*
X174002490Y-117022742D01*
X174002491Y-117022742D01*
X174002494Y-117022744D01*
X174275049Y-117135640D01*
X174560008Y-117211994D01*
X174852495Y-117250501D01*
X174852502Y-117250501D01*
X175147500Y-117250501D01*
X175147507Y-117250501D01*
X175439994Y-117211994D01*
X175724953Y-117135640D01*
X175997508Y-117022744D01*
X176252995Y-116875239D01*
X176487043Y-116695647D01*
X176695647Y-116487043D01*
X176875239Y-116252995D01*
X177022744Y-115997508D01*
X177135640Y-115724953D01*
X177211994Y-115439994D01*
X177250501Y-115147507D01*
X177250501Y-114852495D01*
X177211994Y-114560008D01*
X177135640Y-114275049D01*
X177022744Y-114002494D01*
X176875239Y-113747007D01*
X176695647Y-113512959D01*
X176695642Y-113512953D01*
X176487048Y-113304359D01*
X176487041Y-113304353D01*
X176252994Y-113124762D01*
X175997511Y-112977259D01*
X175997501Y-112977255D01*
X175724962Y-112864365D01*
X175724955Y-112864363D01*
X175724953Y-112864362D01*
X175439994Y-112788008D01*
X175391114Y-112781572D01*
X175147514Y-112749501D01*
X175147507Y-112749501D01*
X174852495Y-112749501D01*
X174852487Y-112749501D01*
X174574086Y-112786154D01*
X174560008Y-112788008D01*
X174275049Y-112864362D01*
X174275039Y-112864365D01*
X174002500Y-112977255D01*
X174002490Y-112977259D01*
X173747007Y-113124762D01*
X173512960Y-113304353D01*
X173512953Y-113304359D01*
X173304359Y-113512953D01*
X173304353Y-113512960D01*
X173124762Y-113747007D01*
X172977259Y-114002490D01*
X172977255Y-114002500D01*
X172864365Y-114275039D01*
X172864362Y-114275049D01*
X172788009Y-114560005D01*
X172788007Y-114560016D01*
X172749501Y-114852487D01*
X164235501Y-114852487D01*
X164235501Y-111731387D01*
X164235500Y-111731373D01*
X164212289Y-111555074D01*
X164212289Y-111555073D01*
X164210085Y-111538336D01*
X164201272Y-111471386D01*
X164133399Y-111218082D01*
X164052387Y-111022501D01*
X164033049Y-110975815D01*
X164033042Y-110975800D01*
X163948058Y-110828603D01*
X163948056Y-110828600D01*
X163945645Y-110824424D01*
X163901925Y-110748698D01*
X163821925Y-110644441D01*
X163742284Y-110540650D01*
X163742279Y-110540644D01*
X163181820Y-109980185D01*
X163148335Y-109918862D01*
X163145501Y-109892504D01*
X163145501Y-108337382D01*
X169500002Y-108337382D01*
X169506128Y-108446488D01*
X169506129Y-108446496D01*
X169554888Y-108704193D01*
X169554890Y-108704203D01*
X169641520Y-108951776D01*
X169764077Y-109183664D01*
X169764081Y-109183670D01*
X169919830Y-109394704D01*
X170105297Y-109580171D01*
X170316331Y-109735920D01*
X170316337Y-109735924D01*
X170548225Y-109858481D01*
X170795798Y-109945111D01*
X170795808Y-109945113D01*
X171053504Y-109993872D01*
X171053511Y-109993873D01*
X171162628Y-110000000D01*
X174750000Y-110000000D01*
X175250001Y-110000000D01*
X178837363Y-110000000D01*
X178837382Y-109999999D01*
X178946488Y-109993873D01*
X178946496Y-109993872D01*
X179204193Y-109945113D01*
X179204203Y-109945111D01*
X179451776Y-109858481D01*
X179683664Y-109735924D01*
X179683670Y-109735920D01*
X179894704Y-109580171D01*
X180080171Y-109394704D01*
X180235920Y-109183670D01*
X180235924Y-109183664D01*
X180358481Y-108951776D01*
X180445111Y-108704203D01*
X180445113Y-108704193D01*
X180493872Y-108446497D01*
X180493873Y-108446490D01*
X180500000Y-108337381D01*
X180500001Y-108337365D01*
X180500001Y-107250001D01*
X175250001Y-107250001D01*
X175250001Y-110000000D01*
X174750000Y-110000000D01*
X174750001Y-109999999D01*
X174750001Y-107250001D01*
X169500002Y-107250001D01*
X169500002Y-108337382D01*
X163145501Y-108337382D01*
X163145501Y-107853887D01*
X163145500Y-107853873D01*
X163128386Y-107723883D01*
X163128386Y-107723882D01*
X163111272Y-107593888D01*
X163111272Y-107593885D01*
X163043399Y-107340582D01*
X163027814Y-107302956D01*
X163004260Y-107246091D01*
X162943046Y-107098310D01*
X162943042Y-107098300D01*
X162811928Y-106871202D01*
X162709971Y-106738330D01*
X162709971Y-106738329D01*
X162709969Y-106738328D01*
X162652283Y-106663149D01*
X162652279Y-106663144D01*
X161737697Y-105748562D01*
X161651755Y-105662620D01*
X169500001Y-105662620D01*
X169500001Y-106750001D01*
X174750001Y-106750001D01*
X175250001Y-106750001D01*
X180500000Y-106750001D01*
X180500000Y-105662639D01*
X180499999Y-105662619D01*
X180493873Y-105553513D01*
X180493872Y-105553505D01*
X180445113Y-105295808D01*
X180445111Y-105295798D01*
X180358481Y-105048225D01*
X180235924Y-104816337D01*
X180235920Y-104816331D01*
X180080171Y-104605297D01*
X179894704Y-104419830D01*
X179683670Y-104264081D01*
X179683664Y-104264077D01*
X179451776Y-104141520D01*
X179204203Y-104054890D01*
X179204193Y-104054888D01*
X178946497Y-104006129D01*
X178946490Y-104006128D01*
X178837381Y-104000001D01*
X175250001Y-104000001D01*
X175250001Y-106750001D01*
X174750001Y-106750001D01*
X174750001Y-104000001D01*
X171162639Y-104000001D01*
X171162619Y-104000002D01*
X171053513Y-104006128D01*
X171053505Y-104006129D01*
X170795808Y-104054888D01*
X170795798Y-104054890D01*
X170548225Y-104141520D01*
X170316337Y-104264077D01*
X170316331Y-104264081D01*
X170105297Y-104419830D01*
X169919830Y-104605297D01*
X169764081Y-104816331D01*
X169764077Y-104816337D01*
X169641520Y-105048225D01*
X169554890Y-105295798D01*
X169554888Y-105295808D01*
X169506129Y-105553504D01*
X169506128Y-105553511D01*
X169500001Y-105662620D01*
X161651755Y-105662620D01*
X156894819Y-100905685D01*
X155377710Y-99388576D01*
X159500001Y-99388576D01*
X159500001Y-99611425D01*
X159529086Y-99832355D01*
X159529089Y-99832368D01*
X159586764Y-100047619D01*
X159672046Y-100253503D01*
X159672055Y-100253521D01*
X159783465Y-100446492D01*
X159783474Y-100446505D01*
X159834041Y-100512404D01*
X159834044Y-100512404D01*
X160635388Y-99711060D01*
X160640890Y-99731592D01*
X160719882Y-99868409D01*
X160831593Y-99980120D01*
X160968410Y-100059112D01*
X160988941Y-100064613D01*
X160187596Y-100865956D01*
X160187596Y-100865957D01*
X160253508Y-100916534D01*
X160446486Y-101027950D01*
X160446498Y-101027955D01*
X160652382Y-101113237D01*
X160867633Y-101170912D01*
X160867646Y-101170915D01*
X161088576Y-101200001D01*
X161311426Y-101200001D01*
X161532355Y-101170915D01*
X161532368Y-101170912D01*
X161747619Y-101113237D01*
X161953503Y-101027955D01*
X161953515Y-101027950D01*
X162146499Y-100916531D01*
X162212404Y-100865958D01*
X162212405Y-100865957D01*
X161411060Y-100064613D01*
X161431592Y-100059112D01*
X161568409Y-99980120D01*
X161680120Y-99868409D01*
X161759112Y-99731592D01*
X161764613Y-99711060D01*
X162565957Y-100512405D01*
X162565958Y-100512404D01*
X162616531Y-100446499D01*
X162727950Y-100253515D01*
X162727955Y-100253503D01*
X162813237Y-100047619D01*
X162870912Y-99832368D01*
X162870915Y-99832355D01*
X162900001Y-99611425D01*
X162900001Y-99388575D01*
X162898703Y-99378712D01*
X173149501Y-99378712D01*
X173149501Y-99621289D01*
X173181162Y-99861786D01*
X173243948Y-100096105D01*
X173245562Y-100100001D01*
X173336777Y-100320213D01*
X173458065Y-100530290D01*
X173458067Y-100530293D01*
X173458068Y-100530294D01*
X173605734Y-100722737D01*
X173605740Y-100722744D01*
X173777257Y-100894261D01*
X173777264Y-100894267D01*
X173806279Y-100916531D01*
X173969712Y-101041937D01*
X174179789Y-101163225D01*
X174403901Y-101256055D01*
X174638212Y-101318839D01*
X174818587Y-101342585D01*
X174878712Y-101350501D01*
X174878713Y-101350501D01*
X175121290Y-101350501D01*
X175169389Y-101344168D01*
X175361790Y-101318839D01*
X175596101Y-101256055D01*
X175820213Y-101163225D01*
X176030290Y-101041937D01*
X176222739Y-100894266D01*
X176394266Y-100722739D01*
X176541937Y-100530290D01*
X176663225Y-100320213D01*
X176756055Y-100096101D01*
X176818839Y-99861790D01*
X176850501Y-99621289D01*
X176850501Y-99378713D01*
X176818839Y-99138212D01*
X176756055Y-98903901D01*
X176663225Y-98679789D01*
X176541937Y-98469712D01*
X176394266Y-98277263D01*
X176394261Y-98277257D01*
X176222744Y-98105740D01*
X176222737Y-98105734D01*
X176030294Y-97958068D01*
X176030293Y-97958067D01*
X176030290Y-97958065D01*
X175820213Y-97836777D01*
X175820206Y-97836774D01*
X175596105Y-97743948D01*
X175361786Y-97681162D01*
X175121290Y-97649501D01*
X175121289Y-97649501D01*
X174878713Y-97649501D01*
X174878712Y-97649501D01*
X174638215Y-97681162D01*
X174403896Y-97743948D01*
X174179795Y-97836774D01*
X174179786Y-97836778D01*
X173969707Y-97958068D01*
X173777264Y-98105734D01*
X173777257Y-98105740D01*
X173605740Y-98277257D01*
X173605734Y-98277264D01*
X173458068Y-98469707D01*
X173336778Y-98679786D01*
X173336774Y-98679795D01*
X173243948Y-98903896D01*
X173181162Y-99138215D01*
X173149501Y-99378712D01*
X162898703Y-99378712D01*
X162870915Y-99167646D01*
X162870912Y-99167633D01*
X162813237Y-98952382D01*
X162727955Y-98746498D01*
X162727950Y-98746486D01*
X162616534Y-98553508D01*
X162565957Y-98487596D01*
X162565956Y-98487596D01*
X161764613Y-99288940D01*
X161759112Y-99268410D01*
X161680120Y-99131593D01*
X161568409Y-99019882D01*
X161431592Y-98940890D01*
X161411059Y-98935388D01*
X162212404Y-98134044D01*
X162212404Y-98134041D01*
X162146505Y-98083474D01*
X162146492Y-98083465D01*
X161953521Y-97972055D01*
X161953503Y-97972046D01*
X161747619Y-97886764D01*
X161532368Y-97829089D01*
X161532355Y-97829086D01*
X161311426Y-97800001D01*
X161088576Y-97800001D01*
X160867646Y-97829086D01*
X160867633Y-97829089D01*
X160652382Y-97886764D01*
X160446498Y-97972046D01*
X160446480Y-97972055D01*
X160253512Y-98083463D01*
X160187596Y-98134043D01*
X160988942Y-98935388D01*
X160968410Y-98940890D01*
X160831593Y-99019882D01*
X160719882Y-99131593D01*
X160640890Y-99268410D01*
X160635388Y-99288941D01*
X159834043Y-98487596D01*
X159783463Y-98553512D01*
X159672055Y-98746480D01*
X159672046Y-98746498D01*
X159586764Y-98952382D01*
X159529089Y-99167633D01*
X159529086Y-99167646D01*
X159500001Y-99388576D01*
X155377710Y-99388576D01*
X152641834Y-96652700D01*
X152610300Y-96599132D01*
X152573910Y-96471952D01*
X152479699Y-96291594D01*
X152455959Y-96262480D01*
X152351110Y-96133891D01*
X152193410Y-96005305D01*
X152193411Y-96005305D01*
X152193408Y-96005303D01*
X152013050Y-95911092D01*
X152013049Y-95911091D01*
X152013046Y-95911090D01*
X151895830Y-95877551D01*
X151817419Y-95855115D01*
X151817416Y-95855114D01*
X151817414Y-95855114D01*
X151744632Y-95848643D01*
X151698038Y-95844501D01*
X151698034Y-95844501D01*
X151434961Y-95844501D01*
X151402868Y-95840276D01*
X151341115Y-95823729D01*
X151081122Y-95789502D01*
X151081121Y-95789502D01*
X150818881Y-95789502D01*
X150818880Y-95789502D01*
X150558880Y-95823730D01*
X150497131Y-95840276D01*
X150465038Y-95844501D01*
X150201972Y-95844501D01*
X150201966Y-95844501D01*
X150201965Y-95844502D01*
X150190317Y-95845537D01*
X150082585Y-95855114D01*
X149886955Y-95911090D01*
X149796773Y-95958197D01*
X149706594Y-96005303D01*
X149706592Y-96005304D01*
X149706591Y-96005305D01*
X149548891Y-96133891D01*
X149420305Y-96291591D01*
X149326091Y-96471954D01*
X149270114Y-96667586D01*
X149270112Y-96667595D01*
X149269275Y-96677017D01*
X149253150Y-96728031D01*
X149151963Y-96903293D01*
X149151955Y-96903310D01*
X149051603Y-97145581D01*
X148983729Y-97398888D01*
X148949502Y-97658880D01*
X124192533Y-97658880D01*
X124121290Y-97649501D01*
X124121289Y-97649501D01*
X123878713Y-97649501D01*
X123878712Y-97649501D01*
X123638215Y-97681162D01*
X123403896Y-97743948D01*
X123179795Y-97836774D01*
X123179786Y-97836778D01*
X122969707Y-97958068D01*
X122777264Y-98105734D01*
X122777257Y-98105740D01*
X122605740Y-98277257D01*
X122605734Y-98277264D01*
X122458068Y-98469707D01*
X122336778Y-98679786D01*
X122336774Y-98679795D01*
X122243948Y-98903896D01*
X122181162Y-99138215D01*
X122149501Y-99378712D01*
X116500500Y-99378712D01*
X116500500Y-90663979D01*
X117999501Y-90663979D01*
X117999501Y-93336021D01*
X118009877Y-93513234D01*
X118064951Y-93809470D01*
X118064953Y-93809480D01*
X118159014Y-94095709D01*
X118159019Y-94095721D01*
X118290394Y-94366867D01*
X118290397Y-94366872D01*
X118456744Y-94618094D01*
X118655094Y-94844907D01*
X118881907Y-95043257D01*
X119133129Y-95209604D01*
X119133134Y-95209607D01*
X119264972Y-95273485D01*
X119404285Y-95340985D01*
X119498226Y-95371856D01*
X119690521Y-95435048D01*
X119690525Y-95435048D01*
X119690532Y-95435051D01*
X119986763Y-95490124D01*
X120163980Y-95500501D01*
X123821897Y-95500500D01*
X123821919Y-95500501D01*
X123828032Y-95500501D01*
X128921967Y-95500501D01*
X128921970Y-95500501D01*
X129264251Y-95466790D01*
X129601579Y-95399691D01*
X129930706Y-95299851D01*
X130248463Y-95168232D01*
X130551788Y-95006101D01*
X130611639Y-94966110D01*
X130837761Y-94815021D01*
X131103628Y-94596829D01*
X132174775Y-93525679D01*
X132236096Y-93492196D01*
X132274605Y-93489959D01*
X132503469Y-93512501D01*
X132503473Y-93512501D01*
X135896530Y-93512501D01*
X135896533Y-93512501D01*
X136287704Y-93473974D01*
X136362749Y-93459046D01*
X136673195Y-93397296D01*
X136673206Y-93397293D01*
X136673206Y-93397292D01*
X136673216Y-93397291D01*
X137049354Y-93283191D01*
X137412498Y-93132772D01*
X137759150Y-92947483D01*
X138085970Y-92729108D01*
X138389813Y-92479751D01*
X138667751Y-92201813D01*
X138917108Y-91897970D01*
X139096900Y-91628892D01*
X139150511Y-91584089D01*
X139219836Y-91575382D01*
X139282863Y-91605536D01*
X139303100Y-91628891D01*
X139482888Y-91897961D01*
X139482898Y-91897975D01*
X139732255Y-92201818D01*
X140010183Y-92479746D01*
X140010188Y-92479750D01*
X140010189Y-92479751D01*
X140314032Y-92729108D01*
X140640852Y-92947483D01*
X140640861Y-92947488D01*
X140640863Y-92947489D01*
X140987496Y-93132768D01*
X140987498Y-93132768D01*
X140987504Y-93132772D01*
X141350648Y-93283191D01*
X141726786Y-93397291D01*
X141726792Y-93397292D01*
X141726795Y-93397293D01*
X141726806Y-93397296D01*
X142112298Y-93473974D01*
X142503469Y-93512501D01*
X142503472Y-93512501D01*
X145896530Y-93512501D01*
X145896533Y-93512501D01*
X146287704Y-93473974D01*
X146362749Y-93459046D01*
X146673195Y-93397296D01*
X146673206Y-93397293D01*
X146673206Y-93397292D01*
X146673216Y-93397291D01*
X147049354Y-93283191D01*
X147279257Y-93187961D01*
X147348723Y-93180493D01*
X147411202Y-93211768D01*
X147414360Y-93214815D01*
X148009016Y-93809470D01*
X148551164Y-94351618D01*
X148551206Y-94351662D01*
X148796368Y-94596824D01*
X148796373Y-94596828D01*
X148796374Y-94596829D01*
X148942399Y-94716669D01*
X149062240Y-94815020D01*
X149348213Y-95006101D01*
X149348222Y-95006106D01*
X149348224Y-95006107D01*
X149651531Y-95168228D01*
X149651533Y-95168228D01*
X149651539Y-95168232D01*
X149969296Y-95299851D01*
X150298423Y-95399691D01*
X150635751Y-95466790D01*
X150978032Y-95500501D01*
X150978035Y-95500501D01*
X175178084Y-95500501D01*
X175178104Y-95500500D01*
X178836021Y-95500500D01*
X179013239Y-95490124D01*
X179309470Y-95435051D01*
X179309477Y-95435048D01*
X179309480Y-95435048D01*
X179417072Y-95399691D01*
X179595717Y-95340985D01*
X179866871Y-95209605D01*
X180118096Y-95043256D01*
X180344907Y-94844907D01*
X180543256Y-94618096D01*
X180709605Y-94366871D01*
X180840985Y-94095717D01*
X180935051Y-93809470D01*
X180990124Y-93513239D01*
X181000501Y-93336022D01*
X181000500Y-90663981D01*
X180990124Y-90486763D01*
X180935051Y-90190532D01*
X180935048Y-90190525D01*
X180935048Y-90190521D01*
X180840987Y-89904292D01*
X180840985Y-89904285D01*
X180773485Y-89764972D01*
X180709607Y-89633134D01*
X180709604Y-89633129D01*
X180543257Y-89381907D01*
X180344907Y-89155094D01*
X180118094Y-88956744D01*
X179866872Y-88790397D01*
X179866867Y-88790394D01*
X179595721Y-88659019D01*
X179595717Y-88659017D01*
X179595713Y-88659015D01*
X179595709Y-88659014D01*
X179309480Y-88564953D01*
X179309470Y-88564951D01*
X179013234Y-88509877D01*
X178836022Y-88499501D01*
X175171974Y-88499501D01*
X175171970Y-88499501D01*
X161371970Y-88499501D01*
X152651317Y-88499501D01*
X152584278Y-88479816D01*
X152563636Y-88463182D01*
X151015633Y-86915177D01*
X150749766Y-86696985D01*
X150749762Y-86696982D01*
X150749761Y-86696981D01*
X150744205Y-86693268D01*
X150463801Y-86505909D01*
X150463783Y-86505898D01*
X150160470Y-86343773D01*
X150160465Y-86343771D01*
X149842707Y-86212151D01*
X149513573Y-86112309D01*
X149176249Y-86045211D01*
X149176250Y-86045211D01*
X148918457Y-86019822D01*
X148833970Y-86011501D01*
X148833967Y-86011501D01*
X147668570Y-86011501D01*
X147610117Y-85996859D01*
X147412505Y-85891234D01*
X147412498Y-85891230D01*
X147412491Y-85891227D01*
X147049355Y-85740811D01*
X146673206Y-85626708D01*
X146673195Y-85626705D01*
X146287703Y-85550027D01*
X145993090Y-85521011D01*
X145896533Y-85511501D01*
X142503469Y-85511501D01*
X142414252Y-85520288D01*
X142112298Y-85550027D01*
X141726806Y-85626705D01*
X141726795Y-85626708D01*
X141350646Y-85740811D01*
X140987501Y-85891231D01*
X140987496Y-85891233D01*
X140640863Y-86076512D01*
X140640845Y-86076523D01*
X140314040Y-86294888D01*
X140314026Y-86294898D01*
X140010183Y-86544255D01*
X139732255Y-86822183D01*
X139482898Y-87126026D01*
X139482888Y-87126040D01*
X139303103Y-87395107D01*
X139249491Y-87439912D01*
X139180166Y-87448619D01*
X139117138Y-87418464D01*
X139096899Y-87395107D01*
X139048579Y-87322792D01*
X138917108Y-87126032D01*
X138667751Y-86822189D01*
X138667750Y-86822188D01*
X138667746Y-86822183D01*
X138389818Y-86544255D01*
X138085975Y-86294898D01*
X138085974Y-86294897D01*
X138085970Y-86294894D01*
X137759150Y-86076519D01*
X137759145Y-86076516D01*
X137759138Y-86076512D01*
X137412505Y-85891233D01*
X137412500Y-85891231D01*
X137412490Y-85891227D01*
X137306136Y-85847173D01*
X137049355Y-85740811D01*
X136673206Y-85626708D01*
X136673195Y-85626705D01*
X136287703Y-85550027D01*
X135993090Y-85521011D01*
X135896533Y-85511501D01*
X132503469Y-85511501D01*
X132414252Y-85520288D01*
X132112298Y-85550027D01*
X131726806Y-85626705D01*
X131726795Y-85626708D01*
X131350646Y-85740811D01*
X130987510Y-85891227D01*
X130987496Y-85891234D01*
X130701225Y-86044248D01*
X130666964Y-86056507D01*
X130386433Y-86112309D01*
X130386423Y-86112311D01*
X130386420Y-86112312D01*
X130059442Y-86211500D01*
X130057301Y-86212149D01*
X129739536Y-86343771D01*
X129739531Y-86343773D01*
X129436224Y-86505894D01*
X129436206Y-86505905D01*
X129150248Y-86696976D01*
X129150235Y-86696986D01*
X129046065Y-86782477D01*
X128884368Y-86915177D01*
X128641173Y-87158374D01*
X127336365Y-88463182D01*
X127275042Y-88496667D01*
X127248684Y-88499501D01*
X120163980Y-88499501D01*
X119986767Y-88509877D01*
X119690531Y-88564951D01*
X119690521Y-88564953D01*
X119404292Y-88659014D01*
X119404280Y-88659019D01*
X119133134Y-88790394D01*
X119133129Y-88790397D01*
X118881907Y-88956744D01*
X118655094Y-89155094D01*
X118456744Y-89381907D01*
X118290397Y-89633129D01*
X118290394Y-89633134D01*
X118159019Y-89904280D01*
X118159014Y-89904292D01*
X118064953Y-90190521D01*
X118064951Y-90190531D01*
X118009877Y-90486767D01*
X117999501Y-90663979D01*
X116500500Y-90663979D01*
X116500500Y-84002125D01*
X116500572Y-83997892D01*
X116505539Y-83852487D01*
X121749501Y-83852487D01*
X121749501Y-84147514D01*
X121781572Y-84391114D01*
X121788008Y-84439994D01*
X121788009Y-84439996D01*
X121864362Y-84724952D01*
X121864365Y-84724962D01*
X121977255Y-84997501D01*
X121977259Y-84997511D01*
X122124762Y-85252994D01*
X122304353Y-85487041D01*
X122304359Y-85487048D01*
X122512953Y-85695642D01*
X122512960Y-85695648D01*
X122747007Y-85875239D01*
X123002490Y-86022742D01*
X123002491Y-86022742D01*
X123002494Y-86022744D01*
X123275049Y-86135640D01*
X123560008Y-86211994D01*
X123852495Y-86250501D01*
X123852502Y-86250501D01*
X124147500Y-86250501D01*
X124147507Y-86250501D01*
X124439994Y-86211994D01*
X124724953Y-86135640D01*
X124997508Y-86022744D01*
X125252995Y-85875239D01*
X125487043Y-85695647D01*
X125695647Y-85487043D01*
X125875239Y-85252995D01*
X126022744Y-84997508D01*
X126135640Y-84724953D01*
X126211994Y-84439994D01*
X126250501Y-84147507D01*
X126250501Y-83852495D01*
X126250500Y-83852487D01*
X172749501Y-83852487D01*
X172749501Y-84147514D01*
X172781572Y-84391114D01*
X172788008Y-84439994D01*
X172788009Y-84439996D01*
X172864362Y-84724952D01*
X172864365Y-84724962D01*
X172977255Y-84997501D01*
X172977259Y-84997511D01*
X173124762Y-85252994D01*
X173304353Y-85487041D01*
X173304359Y-85487048D01*
X173512953Y-85695642D01*
X173512960Y-85695648D01*
X173747007Y-85875239D01*
X174002490Y-86022742D01*
X174002491Y-86022742D01*
X174002494Y-86022744D01*
X174275049Y-86135640D01*
X174560008Y-86211994D01*
X174852495Y-86250501D01*
X174852502Y-86250501D01*
X175147500Y-86250501D01*
X175147507Y-86250501D01*
X175439994Y-86211994D01*
X175724953Y-86135640D01*
X175997508Y-86022744D01*
X176252995Y-85875239D01*
X176487043Y-85695647D01*
X176695647Y-85487043D01*
X176875239Y-85252995D01*
X177022744Y-84997508D01*
X177135640Y-84724953D01*
X177211994Y-84439994D01*
X177250501Y-84147507D01*
X177250501Y-83852495D01*
X177211994Y-83560008D01*
X177135640Y-83275049D01*
X177022744Y-83002494D01*
X177011506Y-82983030D01*
X176875239Y-82747007D01*
X176695648Y-82512960D01*
X176695642Y-82512953D01*
X176487048Y-82304359D01*
X176487041Y-82304353D01*
X176252994Y-82124762D01*
X175997511Y-81977259D01*
X175997501Y-81977255D01*
X175724962Y-81864365D01*
X175724955Y-81864363D01*
X175724953Y-81864362D01*
X175439994Y-81788008D01*
X175391114Y-81781572D01*
X175147514Y-81749501D01*
X175147507Y-81749501D01*
X174852495Y-81749501D01*
X174852487Y-81749501D01*
X174574086Y-81786154D01*
X174560008Y-81788008D01*
X174275049Y-81864362D01*
X174275039Y-81864365D01*
X174002500Y-81977255D01*
X174002490Y-81977259D01*
X173747007Y-82124762D01*
X173512960Y-82304353D01*
X173512953Y-82304359D01*
X173304359Y-82512953D01*
X173304353Y-82512960D01*
X173124762Y-82747007D01*
X172977259Y-83002490D01*
X172977255Y-83002500D01*
X172864365Y-83275039D01*
X172864362Y-83275049D01*
X172807245Y-83488216D01*
X172788009Y-83560005D01*
X172788007Y-83560016D01*
X172749501Y-83852487D01*
X126250500Y-83852487D01*
X126211994Y-83560008D01*
X126135640Y-83275049D01*
X126022744Y-83002494D01*
X126011506Y-82983030D01*
X125875239Y-82747007D01*
X125695648Y-82512960D01*
X125695642Y-82512953D01*
X125487048Y-82304359D01*
X125487041Y-82304353D01*
X125252994Y-82124762D01*
X124997511Y-81977259D01*
X124997501Y-81977255D01*
X124724962Y-81864365D01*
X124724955Y-81864363D01*
X124724953Y-81864362D01*
X124439994Y-81788008D01*
X124391114Y-81781572D01*
X124147514Y-81749501D01*
X124147507Y-81749501D01*
X123852495Y-81749501D01*
X123852487Y-81749501D01*
X123574086Y-81786154D01*
X123560008Y-81788008D01*
X123275049Y-81864362D01*
X123275039Y-81864365D01*
X123002500Y-81977255D01*
X123002490Y-81977259D01*
X122747007Y-82124762D01*
X122512960Y-82304353D01*
X122512953Y-82304359D01*
X122304359Y-82512953D01*
X122304353Y-82512960D01*
X122124762Y-82747007D01*
X121977259Y-83002490D01*
X121977255Y-83002500D01*
X121864365Y-83275039D01*
X121864362Y-83275049D01*
X121807245Y-83488216D01*
X121788009Y-83560005D01*
X121788007Y-83560016D01*
X121749501Y-83852487D01*
X116505539Y-83852487D01*
X116505822Y-83844203D01*
X116515530Y-83560016D01*
X116517838Y-83492433D01*
X116518416Y-83484000D01*
X116569920Y-82983001D01*
X116571066Y-82974671D01*
X116656641Y-82478345D01*
X116658363Y-82470061D01*
X116777604Y-81980752D01*
X116779873Y-81972653D01*
X116932237Y-81492592D01*
X116935065Y-81484636D01*
X117119839Y-81016082D01*
X117123178Y-81008395D01*
X117339494Y-80553548D01*
X117343364Y-80546079D01*
X117590212Y-80107061D01*
X117594597Y-80099850D01*
X117870828Y-79678701D01*
X117875680Y-79671827D01*
X118180017Y-79270499D01*
X118185318Y-79263984D01*
X118516324Y-78884371D01*
X118522074Y-78878214D01*
X118878214Y-78522074D01*
X118884371Y-78516324D01*
X119263984Y-78185318D01*
X119270499Y-78180017D01*
X119671827Y-77875680D01*
X119678701Y-77870828D01*
X120099850Y-77594597D01*
X120107061Y-77590212D01*
X120546079Y-77343364D01*
X120553548Y-77339494D01*
X121008395Y-77123178D01*
X121016082Y-77119839D01*
X121484654Y-76935058D01*
X121492592Y-76932237D01*
X121972653Y-76779873D01*
X121980752Y-76777604D01*
X122470068Y-76658361D01*
X122478345Y-76656641D01*
X122974671Y-76571066D01*
X122983001Y-76569920D01*
X123484014Y-76518414D01*
X123492433Y-76517838D01*
X123997891Y-76500571D01*
X124002124Y-76500500D01*
X174909443Y-76500500D01*
X174934108Y-76500500D01*
X174934109Y-76500501D01*
G37*
%TD.AperFunction*%
%TD*%
%TA.AperFunction,Conductor*%
%TO.N,GND*%
G36*
X139143040Y-112644186D02*
G01*
X139188795Y-112696990D01*
X139200001Y-112748501D01*
X139200001Y-113000501D01*
X139180316Y-113067540D01*
X139127512Y-113113295D01*
X139076001Y-113124501D01*
X137274001Y-113124501D01*
X137206962Y-113104816D01*
X137161207Y-113052012D01*
X137150001Y-113000501D01*
X137150001Y-112748501D01*
X137169686Y-112681462D01*
X137222490Y-112635707D01*
X137274001Y-112624501D01*
X139076001Y-112624501D01*
X139143040Y-112644186D01*
G37*
%TD.AperFunction*%
%TA.AperFunction,Conductor*%
G36*
X142815677Y-108019685D02*
G01*
X142836319Y-108036319D01*
X144163681Y-109363681D01*
X144197166Y-109425004D01*
X144200000Y-109451362D01*
X144200000Y-122375502D01*
X144180315Y-122442541D01*
X144127511Y-122488296D01*
X144076000Y-122499502D01*
X134324000Y-122499502D01*
X134256961Y-122479817D01*
X134211206Y-122427013D01*
X134200000Y-122375502D01*
X134200000Y-120480814D01*
X134948498Y-120480814D01*
X134989227Y-120632816D01*
X134989423Y-120633545D01*
X135007282Y-120664477D01*
X135014915Y-120677697D01*
X135068479Y-120770474D01*
X135068481Y-120770477D01*
X135187349Y-120889345D01*
X135187355Y-120889350D01*
X135738379Y-121440374D01*
X135738389Y-121440385D01*
X135742719Y-121444715D01*
X135742720Y-121444716D01*
X135854524Y-121556520D01*
X135854526Y-121556521D01*
X135854530Y-121556524D01*
X135991449Y-121635573D01*
X135991456Y-121635577D01*
X136103259Y-121665534D01*
X136144182Y-121676500D01*
X136144183Y-121676500D01*
X137837331Y-121676500D01*
X137837347Y-121676501D01*
X137844943Y-121676501D01*
X138003054Y-121676501D01*
X138003057Y-121676501D01*
X138155785Y-121635577D01*
X138205904Y-121606639D01*
X138292716Y-121556520D01*
X138404520Y-121444716D01*
X138404520Y-121444714D01*
X138414728Y-121434507D01*
X138414730Y-121434504D01*
X138621133Y-121228100D01*
X138682454Y-121194617D01*
X138747126Y-121197851D01*
X138883757Y-121242246D01*
X139093713Y-121275500D01*
X139093714Y-121275500D01*
X139306286Y-121275500D01*
X139306287Y-121275500D01*
X139516243Y-121242246D01*
X139718412Y-121176557D01*
X139907816Y-121080051D01*
X139965141Y-121038402D01*
X140079784Y-120955110D01*
X140079784Y-120955109D01*
X140079792Y-120955104D01*
X140218967Y-120815928D01*
X140280286Y-120782446D01*
X140349978Y-120787430D01*
X140405912Y-120829301D01*
X140412184Y-120838515D01*
X140507684Y-120993345D01*
X140631654Y-121117315D01*
X140780875Y-121209356D01*
X140780880Y-121209358D01*
X140947302Y-121264505D01*
X140947309Y-121264506D01*
X141050019Y-121274999D01*
X141449999Y-121274999D01*
X141450000Y-121274998D01*
X141450000Y-120204145D01*
X141516657Y-120242630D01*
X141637465Y-120275000D01*
X141762535Y-120275000D01*
X141883343Y-120242630D01*
X141950000Y-120204145D01*
X141950000Y-121274999D01*
X142349972Y-121274999D01*
X142349986Y-121274998D01*
X142452697Y-121264505D01*
X142619119Y-121209358D01*
X142619124Y-121209356D01*
X142768345Y-121117315D01*
X142892315Y-120993345D01*
X142984356Y-120844124D01*
X142984358Y-120844119D01*
X143039505Y-120677697D01*
X143039506Y-120677690D01*
X143049999Y-120574986D01*
X143050000Y-120574973D01*
X143050000Y-120050000D01*
X142104146Y-120050000D01*
X142142630Y-119983343D01*
X142175000Y-119862535D01*
X142175000Y-119737465D01*
X142142630Y-119616657D01*
X142104146Y-119550000D01*
X143049999Y-119550000D01*
X143049999Y-119025028D01*
X143049998Y-119025013D01*
X143039505Y-118922302D01*
X142984358Y-118755880D01*
X142984356Y-118755875D01*
X142892315Y-118606654D01*
X142768345Y-118482684D01*
X142619124Y-118390643D01*
X142619119Y-118390641D01*
X142452697Y-118335494D01*
X142452690Y-118335493D01*
X142349986Y-118325000D01*
X141950000Y-118325000D01*
X141950000Y-119395854D01*
X141883343Y-119357370D01*
X141762535Y-119325000D01*
X141637465Y-119325000D01*
X141516657Y-119357370D01*
X141450000Y-119395854D01*
X141450000Y-118325000D01*
X141050028Y-118325000D01*
X141050012Y-118325001D01*
X140947302Y-118335494D01*
X140780880Y-118390641D01*
X140780875Y-118390643D01*
X140631654Y-118482684D01*
X140507683Y-118606655D01*
X140507680Y-118606659D01*
X140412183Y-118761484D01*
X140360235Y-118808209D01*
X140291273Y-118819430D01*
X140227191Y-118791587D01*
X140218964Y-118784068D01*
X140079786Y-118644890D01*
X139907820Y-118519951D01*
X139718414Y-118423444D01*
X139718413Y-118423443D01*
X139718412Y-118423443D01*
X139516243Y-118357754D01*
X139516241Y-118357753D01*
X139516240Y-118357753D01*
X139354957Y-118332208D01*
X139306287Y-118324500D01*
X139093713Y-118324500D01*
X139045042Y-118332208D01*
X138883760Y-118357753D01*
X138681585Y-118423444D01*
X138492179Y-118519951D01*
X138320213Y-118644890D01*
X138169894Y-118795209D01*
X138169890Y-118795214D01*
X138050318Y-118959793D01*
X137994989Y-119002459D01*
X137925375Y-119008438D01*
X137863580Y-118975833D01*
X137849682Y-118959793D01*
X137730109Y-118795214D01*
X137730105Y-118795209D01*
X137579786Y-118644890D01*
X137407815Y-118519948D01*
X137407814Y-118519947D01*
X137368205Y-118499765D01*
X137317409Y-118451791D01*
X137300500Y-118389281D01*
X137300500Y-117800096D01*
X137320185Y-117733057D01*
X137336814Y-117712420D01*
X138975415Y-116073818D01*
X139036738Y-116040334D01*
X139063096Y-116037500D01*
X139725003Y-116037500D01*
X139725009Y-116037500D01*
X139827798Y-116027000D01*
X139994335Y-115971815D01*
X140143657Y-115879713D01*
X140162463Y-115860906D01*
X140223783Y-115827421D01*
X140293475Y-115832404D01*
X140327053Y-115851320D01*
X140331338Y-115854708D01*
X140331343Y-115854711D01*
X140331345Y-115854713D01*
X140480667Y-115946815D01*
X140647204Y-116002000D01*
X140749992Y-116012501D01*
X141750009Y-116012500D01*
X141750017Y-116012499D01*
X141750020Y-116012499D01*
X141806303Y-116006749D01*
X141852798Y-116002000D01*
X142019335Y-115946815D01*
X142168657Y-115854713D01*
X142292713Y-115730657D01*
X142384815Y-115581335D01*
X142440000Y-115414798D01*
X142450501Y-115312010D01*
X142450500Y-114511993D01*
X142440000Y-114409204D01*
X142384815Y-114242667D01*
X142292713Y-114093345D01*
X142199050Y-113999682D01*
X142165565Y-113938359D01*
X142170549Y-113868667D01*
X142199050Y-113824320D01*
X142292713Y-113730657D01*
X142384815Y-113581335D01*
X142440000Y-113414798D01*
X142450501Y-113312010D01*
X142450500Y-112511993D01*
X142440000Y-112409204D01*
X142384815Y-112242667D01*
X142292713Y-112093345D01*
X142168657Y-111969289D01*
X142168653Y-111969286D01*
X142087221Y-111919058D01*
X142040496Y-111867110D01*
X142029275Y-111798148D01*
X142057118Y-111734066D01*
X142062835Y-111727810D01*
X142063823Y-111726653D01*
X142063823Y-111726652D01*
X142063829Y-111726647D01*
X142179525Y-111567406D01*
X142268885Y-111392026D01*
X142329710Y-111204827D01*
X142337189Y-111157607D01*
X142360501Y-111010423D01*
X142360501Y-110813578D01*
X142329710Y-110619174D01*
X142268883Y-110431971D01*
X142179524Y-110256595D01*
X142063829Y-110097355D01*
X141924647Y-109958173D01*
X141765406Y-109842477D01*
X141759041Y-109839234D01*
X141590030Y-109753118D01*
X141402827Y-109692291D01*
X141208423Y-109661501D01*
X141208418Y-109661501D01*
X141011584Y-109661501D01*
X141011579Y-109661501D01*
X140817174Y-109692291D01*
X140629971Y-109753118D01*
X140454595Y-109842477D01*
X140363742Y-109908486D01*
X140295355Y-109958173D01*
X140295353Y-109958175D01*
X140295352Y-109958175D01*
X140156175Y-110097352D01*
X140156175Y-110097353D01*
X140156173Y-110097355D01*
X140143995Y-110114117D01*
X140040477Y-110256595D01*
X139951118Y-110431971D01*
X139920626Y-110525816D01*
X139890376Y-110575178D01*
X139600001Y-110865553D01*
X139600001Y-110859340D01*
X139572742Y-110757607D01*
X139520081Y-110666395D01*
X139445607Y-110591921D01*
X139354395Y-110539260D01*
X139252662Y-110512001D01*
X139246447Y-110512001D01*
X139890126Y-109868321D01*
X139890126Y-109868320D01*
X139855146Y-109842906D01*
X139679836Y-109753582D01*
X139492706Y-109692779D01*
X139298383Y-109662001D01*
X139101619Y-109662001D01*
X138907295Y-109692779D01*
X138720165Y-109753582D01*
X138552064Y-109839234D01*
X138483395Y-109852130D01*
X138418654Y-109825854D01*
X138403886Y-109810658D01*
X138403818Y-109810726D01*
X138397545Y-109804453D01*
X138282336Y-109718207D01*
X138282329Y-109718203D01*
X138147483Y-109667909D01*
X138147484Y-109667909D01*
X138087884Y-109661502D01*
X138087882Y-109661501D01*
X138087874Y-109661501D01*
X138087865Y-109661501D01*
X136492130Y-109661501D01*
X136492124Y-109661502D01*
X136432517Y-109667909D01*
X136297672Y-109718203D01*
X136297665Y-109718207D01*
X136182456Y-109804453D01*
X136182453Y-109804456D01*
X136096207Y-109919665D01*
X136096203Y-109919672D01*
X136045909Y-110054518D01*
X136039502Y-110114117D01*
X136039501Y-110114136D01*
X136039501Y-111261903D01*
X136019816Y-111328942D01*
X136003182Y-111349584D01*
X135643482Y-111709283D01*
X135643480Y-111709286D01*
X135629174Y-111734066D01*
X135608726Y-111769484D01*
X135593362Y-111796095D01*
X135593360Y-111796097D01*
X135564426Y-111846210D01*
X135564425Y-111846211D01*
X135558825Y-111867110D01*
X135523500Y-111998944D01*
X135523500Y-111998946D01*
X135523500Y-112167047D01*
X135523501Y-112167060D01*
X135523501Y-113836831D01*
X135523500Y-113836849D01*
X135523500Y-114002555D01*
X135523499Y-114002555D01*
X135564424Y-114155286D01*
X135593359Y-114205401D01*
X135593360Y-114205405D01*
X135593361Y-114205405D01*
X135643480Y-114292215D01*
X135643482Y-114292218D01*
X135762350Y-114411086D01*
X135762356Y-114411091D01*
X135888182Y-114536917D01*
X135921667Y-114598240D01*
X135924501Y-114624598D01*
X135924501Y-115274403D01*
X135904816Y-115341442D01*
X135888182Y-115362084D01*
X135068481Y-116181784D01*
X135068479Y-116181787D01*
X135018361Y-116268596D01*
X135018359Y-116268598D01*
X134989425Y-116318711D01*
X134989424Y-116318712D01*
X134989423Y-116318717D01*
X134948499Y-116471445D01*
X134948499Y-116629559D01*
X134948499Y-116629561D01*
X134948500Y-116639555D01*
X134948500Y-120315090D01*
X134948499Y-120315108D01*
X134948499Y-120480814D01*
X134948498Y-120480814D01*
X134200000Y-120480814D01*
X134200000Y-109451362D01*
X134219685Y-109384323D01*
X134236319Y-109363681D01*
X135563681Y-108036319D01*
X135625004Y-108002834D01*
X135651362Y-108000000D01*
X142748638Y-108000000D01*
X142815677Y-108019685D01*
G37*
%TD.AperFunction*%
%TD*%
M02*
