%TF.GenerationSoftware,KiCad,Pcbnew,9.0.7+1*%
%TF.CreationDate,2026-03-01T17:33:32+01:00*%
%TF.ProjectId,sensor_temperature,73656e73-6f72-45f7-9465-6d7065726174,rev?*%
%TF.SameCoordinates,Original*%
%TF.FileFunction,Soldermask,Top*%
%TF.FilePolarity,Negative*%
%FSLAX46Y46*%
G04 Gerber Fmt 4.6, Leading zero omitted, Abs format (unit mm)*
G04 Created by KiCad (PCBNEW 9.0.7+1) date 2026-03-01 17:33:32*
%MOMM*%
%LPD*%
G01*
G04 APERTURE LIST*
G04 Aperture macros list*
%AMRoundRect*
0 Rectangle with rounded corners*
0 $1 Rounding radius*
0 $2 $3 $4 $5 $6 $7 $8 $9 X,Y pos of 4 corners*
0 Add a 4 corners polygon primitive as box body*
4,1,4,$2,$3,$4,$5,$6,$7,$8,$9,$2,$3,0*
0 Add four circle primitives for the rounded corners*
1,1,$1+$1,$2,$3*
1,1,$1+$1,$4,$5*
1,1,$1+$1,$6,$7*
1,1,$1+$1,$8,$9*
0 Add four rect primitives between the rounded corners*
20,1,$1+$1,$2,$3,$4,$5,0*
20,1,$1+$1,$4,$5,$6,$7,0*
20,1,$1+$1,$6,$7,$8,$9,0*
20,1,$1+$1,$8,$9,$2,$3,0*%
%AMFreePoly0*
4,1,6,1.000000,0.000000,0.500000,-0.650000,-0.500000,-0.650000,-0.500000,0.650000,0.500000,0.650000,1.000000,0.000000,1.000000,0.000000,$1*%
%AMFreePoly1*
4,1,6,0.500000,-0.650000,-0.650000,-0.650000,-0.150000,0.000000,-0.650000,0.650000,0.500000,0.650000,0.500000,-0.650000,0.500000,-0.650000,$1*%
G04 Aperture macros list end*
%ADD10FreePoly0,90.000000*%
%ADD11FreePoly1,90.000000*%
%ADD12RoundRect,0.250000X0.450000X-0.350000X0.450000X0.350000X-0.450000X0.350000X-0.450000X-0.350000X0*%
%ADD13RoundRect,0.229166X0.470834X-0.320834X0.470834X0.320834X-0.470834X0.320834X-0.470834X-0.320834X0*%
%ADD14RoundRect,0.250000X-0.725000X0.600000X-0.725000X-0.600000X0.725000X-0.600000X0.725000X0.600000X0*%
%ADD15O,1.950000X1.700000*%
%ADD16RoundRect,0.150000X-0.150000X0.825000X-0.150000X-0.825000X0.150000X-0.825000X0.150000X0.825000X0*%
%ADD17RoundRect,0.250000X-0.337500X-0.475000X0.337500X-0.475000X0.337500X0.475000X-0.337500X0.475000X0*%
%ADD18C,1.000000*%
%ADD19RoundRect,0.250000X0.337500X0.475000X-0.337500X0.475000X-0.337500X-0.475000X0.337500X-0.475000X0*%
G04 APERTURE END LIST*
%TO.C,JP2*%
G36*
X157800000Y-96725000D02*
G01*
X158700000Y-96725000D01*
X158700000Y-94275000D01*
X157800000Y-94275000D01*
X157800000Y-96725000D01*
G37*
%TO.C,JP1*%
G36*
X155800000Y-96725000D02*
G01*
X156700000Y-96725000D01*
X156700000Y-94275000D01*
X155800000Y-94275000D01*
X155800000Y-96725000D01*
G37*
%TO.C,JP3*%
G36*
X159800000Y-96725000D02*
G01*
X160700000Y-96725000D01*
X160700000Y-94275000D01*
X159800000Y-94275000D01*
X159800000Y-96725000D01*
G37*
%TD*%
D10*
%TO.C,JP2*%
X158250000Y-96225000D03*
D11*
X158250000Y-94775000D03*
%TD*%
D12*
%TO.C,R5*%
X158250000Y-100500000D03*
D13*
X158250000Y-98450000D03*
%TD*%
%TO.C,R1*%
X160250000Y-92550000D03*
D12*
X160250000Y-90500000D03*
%TD*%
D10*
%TO.C,JP1*%
X156250000Y-96225000D03*
D11*
X156250000Y-94775000D03*
%TD*%
D14*
%TO.C,J1*%
X145100000Y-90500000D03*
D15*
X145100000Y-93000000D03*
X145100000Y-95500000D03*
X145100000Y-98000000D03*
X145100000Y-100500000D03*
%TD*%
D13*
%TO.C,R2*%
X158250000Y-92550000D03*
D12*
X158250000Y-90500000D03*
%TD*%
D16*
%TO.C,U1*%
X166905000Y-92775000D03*
X165635000Y-92775000D03*
X164365000Y-92775000D03*
X163095000Y-92775000D03*
X163095000Y-97725000D03*
X164365000Y-97725000D03*
X165635000Y-97725000D03*
X166905000Y-97725000D03*
%TD*%
D12*
%TO.C,R6*%
X160250000Y-100500000D03*
D13*
X160250000Y-98450000D03*
%TD*%
%TO.C,R3*%
X156250000Y-92550000D03*
D12*
X156250000Y-90500000D03*
%TD*%
D17*
%TO.C,C1*%
X163962500Y-89500000D03*
X166037500Y-89500000D03*
%TD*%
D18*
%TO.C,TP2*%
X168000000Y-101750000D03*
%TD*%
D10*
%TO.C,JP3*%
X160250000Y-96225000D03*
D11*
X160250000Y-94775000D03*
%TD*%
D18*
%TO.C,TP1*%
X168000000Y-89250000D03*
%TD*%
D14*
%TO.C,J2*%
X152000000Y-90500000D03*
D15*
X152000000Y-93000000D03*
X152000000Y-95500000D03*
X152000000Y-98000000D03*
X152000000Y-100500000D03*
%TD*%
D19*
%TO.C,C2*%
X166037500Y-101000000D03*
X163962500Y-101000000D03*
%TD*%
D12*
%TO.C,R4*%
X156250000Y-100500000D03*
D13*
X156250000Y-98450000D03*
%TD*%
M02*
