%TF.GenerationSoftware,KiCad,Pcbnew,8.0.7*%
%TF.CreationDate,2025-01-29T15:16:54+01:00*%
%TF.ProjectId,Battery_connection,42617474-6572-4795-9f63-6f6e6e656374,rev?*%
%TF.SameCoordinates,Original*%
%TF.FileFunction,Drillmap*%
%TF.FilePolarity,Positive*%
%FSLAX45Y45*%
G04 Gerber Fmt 4.5, Leading zero omitted, Abs format (unit mm)*
G04 Created by KiCad (PCBNEW 8.0.7) date 2025-01-29 15:16:54*
%MOMM*%
%LPD*%
G01*
G04 APERTURE LIST*
%ADD10C,0.050000*%
%ADD11C,0.200000*%
G04 APERTURE END LIST*
D10*
X12725000Y-9450000D02*
G75*
G02*
X12375000Y-9450000I-175000J0D01*
G01*
X12375000Y-9450000D02*
G75*
G02*
X12725000Y-9450000I175000J0D01*
G01*
X18525000Y-11700000D02*
G75*
G02*
X18175000Y-11700000I-175000J0D01*
G01*
X18175000Y-11700000D02*
G75*
G02*
X18525000Y-11700000I175000J0D01*
G01*
X18525000Y-9450000D02*
G75*
G02*
X18175000Y-9450000I-175000J0D01*
G01*
X18175000Y-9450000D02*
G75*
G02*
X18525000Y-9450000I175000J0D01*
G01*
X18525000Y-7900000D02*
G75*
G02*
X18175000Y-7900000I-175000J0D01*
G01*
X18175000Y-7900000D02*
G75*
G02*
X18525000Y-7900000I175000J0D01*
G01*
X12725000Y-7900000D02*
G75*
G02*
X12375000Y-7900000I-175000J0D01*
G01*
X12375000Y-7900000D02*
G75*
G02*
X12725000Y-7900000I175000J0D01*
G01*
X12725000Y-11700000D02*
G75*
G02*
X12375000Y-11700000I-175000J0D01*
G01*
X12375000Y-11700000D02*
G75*
G02*
X12725000Y-11700000I175000J0D01*
G01*
X12150000Y-7500000D02*
X18750000Y-7500000D01*
X18750000Y-12100000D01*
X12150000Y-12100000D01*
X12150000Y-7500000D01*
D11*
X12408277Y-12413984D02*
X12408277Y-12213984D01*
X12408277Y-12213984D02*
X12455896Y-12213984D01*
X12455896Y-12213984D02*
X12484467Y-12223508D01*
X12484467Y-12223508D02*
X12503515Y-12242555D01*
X12503515Y-12242555D02*
X12513039Y-12261603D01*
X12513039Y-12261603D02*
X12522562Y-12299698D01*
X12522562Y-12299698D02*
X12522562Y-12328269D01*
X12522562Y-12328269D02*
X12513039Y-12366365D01*
X12513039Y-12366365D02*
X12503515Y-12385412D01*
X12503515Y-12385412D02*
X12484467Y-12404460D01*
X12484467Y-12404460D02*
X12455896Y-12413984D01*
X12455896Y-12413984D02*
X12408277Y-12413984D01*
X12608277Y-12413984D02*
X12608277Y-12280650D01*
X12608277Y-12318746D02*
X12617801Y-12299698D01*
X12617801Y-12299698D02*
X12627324Y-12290174D01*
X12627324Y-12290174D02*
X12646372Y-12280650D01*
X12646372Y-12280650D02*
X12665420Y-12280650D01*
X12732086Y-12413984D02*
X12732086Y-12280650D01*
X12732086Y-12213984D02*
X12722562Y-12223508D01*
X12722562Y-12223508D02*
X12732086Y-12233031D01*
X12732086Y-12233031D02*
X12741610Y-12223508D01*
X12741610Y-12223508D02*
X12732086Y-12213984D01*
X12732086Y-12213984D02*
X12732086Y-12233031D01*
X12855896Y-12413984D02*
X12836848Y-12404460D01*
X12836848Y-12404460D02*
X12827324Y-12385412D01*
X12827324Y-12385412D02*
X12827324Y-12213984D01*
X12960658Y-12413984D02*
X12941610Y-12404460D01*
X12941610Y-12404460D02*
X12932086Y-12385412D01*
X12932086Y-12385412D02*
X12932086Y-12213984D01*
X13189229Y-12413984D02*
X13189229Y-12213984D01*
X13189229Y-12213984D02*
X13255896Y-12356841D01*
X13255896Y-12356841D02*
X13322562Y-12213984D01*
X13322562Y-12213984D02*
X13322562Y-12413984D01*
X13503515Y-12413984D02*
X13503515Y-12309222D01*
X13503515Y-12309222D02*
X13493991Y-12290174D01*
X13493991Y-12290174D02*
X13474943Y-12280650D01*
X13474943Y-12280650D02*
X13436848Y-12280650D01*
X13436848Y-12280650D02*
X13417801Y-12290174D01*
X13503515Y-12404460D02*
X13484467Y-12413984D01*
X13484467Y-12413984D02*
X13436848Y-12413984D01*
X13436848Y-12413984D02*
X13417801Y-12404460D01*
X13417801Y-12404460D02*
X13408277Y-12385412D01*
X13408277Y-12385412D02*
X13408277Y-12366365D01*
X13408277Y-12366365D02*
X13417801Y-12347317D01*
X13417801Y-12347317D02*
X13436848Y-12337793D01*
X13436848Y-12337793D02*
X13484467Y-12337793D01*
X13484467Y-12337793D02*
X13503515Y-12328269D01*
X13598753Y-12280650D02*
X13598753Y-12480650D01*
X13598753Y-12290174D02*
X13617801Y-12280650D01*
X13617801Y-12280650D02*
X13655896Y-12280650D01*
X13655896Y-12280650D02*
X13674943Y-12290174D01*
X13674943Y-12290174D02*
X13684467Y-12299698D01*
X13684467Y-12299698D02*
X13693991Y-12318746D01*
X13693991Y-12318746D02*
X13693991Y-12375888D01*
X13693991Y-12375888D02*
X13684467Y-12394936D01*
X13684467Y-12394936D02*
X13674943Y-12404460D01*
X13674943Y-12404460D02*
X13655896Y-12413984D01*
X13655896Y-12413984D02*
X13617801Y-12413984D01*
X13617801Y-12413984D02*
X13598753Y-12404460D01*
X13779705Y-12394936D02*
X13789229Y-12404460D01*
X13789229Y-12404460D02*
X13779705Y-12413984D01*
X13779705Y-12413984D02*
X13770182Y-12404460D01*
X13770182Y-12404460D02*
X13779705Y-12394936D01*
X13779705Y-12394936D02*
X13779705Y-12413984D01*
X13779705Y-12290174D02*
X13789229Y-12299698D01*
X13789229Y-12299698D02*
X13779705Y-12309222D01*
X13779705Y-12309222D02*
X13770182Y-12299698D01*
X13770182Y-12299698D02*
X13779705Y-12290174D01*
X13779705Y-12290174D02*
X13779705Y-12309222D01*
M02*
