M48
; DRILL file {KiCad 8.0.7} date 2025-01-29T16:28:36+0100
; FORMAT={-:-/ absolute / inch / decimal}
; #@! TF.CreationDate,2025-01-29T16:28:36+01:00
; #@! TF.GenerationSoftware,Kicad,Pcbnew,8.0.7
; #@! TF.FileFunction,Plated,1,2,PTH
FMAT,2
INCH
; #@! TA.AperFunction,Plated,PTH,ComponentDrill
T1C0.0315
; #@! TA.AperFunction,Plated,PTH,ComponentDrill
T2C0.0394
; #@! TA.AperFunction,Plated,PTH,ComponentDrill
T3C0.0472
; #@! TA.AperFunction,Plated,PTH,ComponentDrill
T4C0.0512
; #@! TA.AperFunction,Plated,PTH,ComponentDrill
T5C0.0787
%
G90
G05
T1
X5.9508Y-3.3421
X5.9508Y-3.4173
X5.9508Y-3.4925
T2
X5.8837Y-3.0906
X5.9837Y-3.0906
X6.0837Y-3.0906
T3
X5.3543Y-3.4252
X5.3543Y-3.7205
T4
X5.2559Y-4.4094
X5.4559Y-4.4094
X5.7283Y-4.4094
X5.9283Y-4.4094
X6.2402Y-4.4094
X6.4402Y-4.4094
X6.7126Y-4.4094
X6.9126Y-4.4094
T5
G00X6.7933Y-3.1417
M15
G01X6.7933Y-3.2992
M16
G05
G00X6.7933Y-3.5354
M15
G01X6.7933Y-3.6929
M16
G05
M30
