M48
; DRILL file {KiCad 8.0.8} date 2025-02-10T10:39:43+0100
; FORMAT={-:-/ absolute / inch / decimal}
; #@! TF.CreationDate,2025-02-10T10:39:43+01:00
; #@! TF.GenerationSoftware,Kicad,Pcbnew,8.0.8
; #@! TF.FileFunction,Plated,1,2,PTH
FMAT,2
INCH
; #@! TA.AperFunction,Plated,PTH,ViaDrill
T1C0.0315
; #@! TA.AperFunction,Plated,PTH,ComponentDrill
T2C0.0315
; #@! TA.AperFunction,Plated,PTH,ComponentDrill
T3C0.0394
%
G90
G05
T1
X5.1457Y-3.7933
X5.1457Y-3.935
X5.6496Y-3.7933
X5.6496Y-3.935
X6.1535Y-3.7933
X6.1535Y-3.935
X6.6575Y-3.7933
X6.6575Y-3.935
T2
X6.0197Y-4.1555
X6.0197Y-4.4705
X6.0754Y-4.0998
X6.0754Y-4.5262
X6.626Y-4.3384
X6.626Y-4.4171
X6.8071Y-4.0864
X6.8071Y-4.1652
X6.8465Y-4.3305
X6.8465Y-4.4092
X7.0276Y-4.0864
X7.0276Y-4.1652
T3
X4.7561Y-3.7539
X4.8228Y-3.8957
X4.8228Y-4.3886
X4.8228Y-4.4886
X4.8228Y-4.5886
X4.8252Y-4.0421
X4.8252Y-4.1421
X4.8252Y-4.2421
X4.8561Y-3.7539
X4.9561Y-3.7539
X4.9724Y-4.2421
X4.9724Y-4.3886
X5.0457Y-3.3445
X5.122Y-4.0421
X5.122Y-4.1421
X5.122Y-4.2421
X5.122Y-4.3886
X5.122Y-4.4886
X5.122Y-4.5886
X5.26Y-3.7539
X5.2717Y-4.2421
X5.2717Y-4.3886
X5.36Y-3.7539
X5.4213Y-4.0421
X5.4213Y-4.1421
X5.4213Y-4.2421
X5.4213Y-4.3886
X5.4213Y-4.4886
X5.4213Y-4.5886
X5.46Y-3.7539
X5.5496Y-3.3445
X5.5709Y-4.2421
X5.5709Y-4.3886
X5.5721Y-4.587
X5.7205Y-4.0421
X5.7205Y-4.1421
X5.7205Y-4.2421
X5.7205Y-4.3886
X5.7205Y-4.4886
X5.7205Y-4.5886
X5.764Y-3.7539
X5.864Y-3.7539
X5.8701Y-4.2421
X5.8701Y-4.3886
X5.964Y-3.7539
X6.0177Y-4.314
X6.0535Y-3.3445
X6.1177Y-4.314
X6.2679Y-3.7539
X6.3679Y-3.7539
X6.4679Y-3.7539
X6.5575Y-3.3445
X6.627Y-4.0748
X6.627Y-4.1748
X6.7719Y-3.7539
X6.8719Y-3.7539
X6.8719Y-3.8967
X6.9719Y-3.7539
X6.9719Y-3.8967
X7.0285Y-4.3189
X7.0285Y-4.4189
X7.0614Y-3.3445
M30
