%TF.GenerationSoftware,KiCad,Pcbnew,8.0.8*%
%TF.CreationDate,2025-02-10T10:54:52+01:00*%
%TF.ProjectId,Teensy_board_01_encoder_prot_out,5465656e-7379-45f6-926f-6172645f3031,rev?*%
%TF.SameCoordinates,Original*%
%TF.FileFunction,Copper,L1,Top*%
%TF.FilePolarity,Positive*%
%FSLAX46Y46*%
G04 Gerber Fmt 4.6, Leading zero omitted, Abs format (unit mm)*
G04 Created by KiCad (PCBNEW 8.0.8) date 2025-02-10 10:54:52*
%MOMM*%
%LPD*%
G01*
G04 APERTURE LIST*
G04 Aperture macros list*
%AMRotRect*
0 Rectangle, with rotation*
0 The origin of the aperture is its center*
0 $1 length*
0 $2 width*
0 $3 Rotation angle, in degrees counterclockwise*
0 Add horizontal line*
21,1,$1,$2,0,0,$3*%
G04 Aperture macros list end*
%TA.AperFunction,ComponentPad*%
%ADD10R,1.700000X1.700000*%
%TD*%
%TA.AperFunction,ComponentPad*%
%ADD11R,1.600000X1.600000*%
%TD*%
%TA.AperFunction,ComponentPad*%
%ADD12C,1.600000*%
%TD*%
%TA.AperFunction,ComponentPad*%
%ADD13O,1.700000X1.700000*%
%TD*%
%TA.AperFunction,ComponentPad*%
%ADD14RotRect,1.600000X1.600000X45.000000*%
%TD*%
%TA.AperFunction,ComponentPad*%
%ADD15RotRect,1.600000X1.600000X315.000000*%
%TD*%
%TA.AperFunction,ViaPad*%
%ADD16C,1.600000*%
%TD*%
%TA.AperFunction,Conductor*%
%ADD17C,0.600000*%
%TD*%
G04 APERTURE END LIST*
D10*
%TO.P,J209,1,Pin_1*%
%TO.N,/Communication & pheripherals/OUT_Protection/IN_3*%
X153760000Y-84950000D03*
%TD*%
D11*
%TO.P,C54,1*%
%TO.N,+5V*%
X168300000Y-110194888D03*
D12*
%TO.P,C54,2*%
%TO.N,GND*%
X168300000Y-112194888D03*
%TD*%
D10*
%TO.P,J96,1,Pin_1*%
%TO.N,+3.3V*%
X168325000Y-103500000D03*
D13*
%TO.P,J96,2,Pin_2*%
%TO.N,GND*%
X168325000Y-106040000D03*
%TD*%
D10*
%TO.P,J102,1,Pin_1*%
%TO.N,+5V*%
X178525000Y-109700000D03*
D13*
%TO.P,J102,2,Pin_2*%
%TO.N,GND*%
X178525000Y-112240000D03*
%TD*%
D10*
%TO.P,J28,1,Pin_1*%
%TO.N,/Communication & pheripherals/OUT_Protection/OUT_2*%
X138685000Y-95350000D03*
D13*
%TO.P,J28,2,Pin_2*%
%TO.N,Net-(J28-Pin_2)*%
X136145000Y-95350000D03*
%TO.P,J28,3,Pin_3*%
%TO.N,GND*%
X133605000Y-95350000D03*
%TD*%
D10*
%TO.P,J161,1,Pin_1*%
%TO.N,Net-(J161-Pin_1)*%
X126300000Y-107750000D03*
%TD*%
%TO.P,J12,1,Pin_1*%
%TO.N,Net-(J12-Pin_1)*%
X145300000Y-107750000D03*
D13*
%TO.P,J12,2,Pin_2*%
%TO.N,+3.3V*%
X145300000Y-105210000D03*
%TO.P,J12,3,Pin_3*%
%TO.N,GND*%
X145300000Y-102670000D03*
%TD*%
D10*
%TO.P,J156,1,Pin_1*%
%TO.N,Net-(J156-Pin_1)*%
X133900000Y-111470000D03*
%TD*%
%TO.P,J25,1,Pin_1*%
%TO.N,/Communication & pheripherals/OUT_Protection/OUT_1*%
X125885000Y-95350000D03*
D13*
%TO.P,J25,2,Pin_2*%
%TO.N,Net-(J25-Pin_2)*%
X123345000Y-95350000D03*
%TO.P,J25,3,Pin_3*%
%TO.N,GND*%
X120805000Y-95350000D03*
%TD*%
D11*
%TO.P,C52,1*%
%TO.N,+5V*%
X173900000Y-109994888D03*
D12*
%TO.P,C52,2*%
%TO.N,GND*%
X173900000Y-111994888D03*
%TD*%
D11*
%TO.P,C46,1*%
%TO.N,+3.3V*%
X172900000Y-103794888D03*
D12*
%TO.P,C46,2*%
%TO.N,GND*%
X172900000Y-105794888D03*
%TD*%
D10*
%TO.P,J158,1,Pin_1*%
%TO.N,Net-(J12-Pin_1)*%
X149100000Y-107750000D03*
%TD*%
%TO.P,J42,1,Pin_1*%
%TO.N,Net-(J155-Pin_1)*%
X137700000Y-111470000D03*
D13*
%TO.P,J42,2,Pin_2*%
%TO.N,+3.3V*%
X137700000Y-114010000D03*
%TO.P,J42,3,Pin_3*%
%TO.N,GND*%
X137700000Y-116550000D03*
%TD*%
D10*
%TO.P,J208,1,Pin_1*%
%TO.N,/Communication & pheripherals/OUT_Protection/IN_2*%
X140960000Y-84950000D03*
%TD*%
%TO.P,J29,1,Pin_1*%
%TO.N,/Communication & pheripherals/OUT_Protection/OUT_5*%
X177085000Y-95350000D03*
D13*
%TO.P,J29,2,Pin_2*%
%TO.N,Net-(J29-Pin_2)*%
X174545000Y-95350000D03*
%TO.P,J29,3,Pin_3*%
%TO.N,GND*%
X172005000Y-95350000D03*
%TD*%
D10*
%TO.P,J26,1,Pin_1*%
%TO.N,/Communication & pheripherals/OUT_Protection/OUT_3*%
X151485000Y-95350000D03*
D13*
%TO.P,J26,2,Pin_2*%
%TO.N,Net-(J26-Pin_2)*%
X148945000Y-95350000D03*
%TO.P,J26,3,Pin_3*%
%TO.N,GND*%
X146405000Y-95350000D03*
%TD*%
D10*
%TO.P,J43,1,Pin_1*%
%TO.N,Net-(J156-Pin_1)*%
X130100000Y-111470000D03*
D13*
%TO.P,J43,2,Pin_2*%
%TO.N,+3.3V*%
X130100000Y-114010000D03*
%TO.P,J43,3,Pin_3*%
%TO.N,GND*%
X130100000Y-116550000D03*
%TD*%
D11*
%TO.P,C47,1*%
%TO.N,+3.3V*%
X178500000Y-103794888D03*
D12*
%TO.P,C47,2*%
%TO.N,GND*%
X178500000Y-105794888D03*
%TD*%
D10*
%TO.P,J20,1,Pin_1*%
%TO.N,Net-(J159-Pin_1)*%
X137700000Y-107750000D03*
D13*
%TO.P,J20,2,Pin_2*%
%TO.N,+3.3V*%
X137700000Y-105210000D03*
%TO.P,J20,3,Pin_3*%
%TO.N,GND*%
X137700000Y-102670000D03*
%TD*%
D10*
%TO.P,J39,1,Pin_1*%
%TO.N,Net-(J39-Pin_1)*%
X177085000Y-98975000D03*
D13*
%TO.P,J39,2,Pin_2*%
%TO.N,Net-(J29-Pin_2)*%
X174545000Y-98975000D03*
%TD*%
D10*
%TO.P,J98,1,Pin_1*%
%TO.N,+3.3V*%
X152850000Y-109575000D03*
D13*
%TO.P,J98,2,Pin_2*%
%TO.N,GND*%
X155390000Y-109575000D03*
%TD*%
D10*
%TO.P,J159,1,Pin_1*%
%TO.N,Net-(J159-Pin_1)*%
X141500000Y-107750000D03*
%TD*%
D14*
%TO.P,C59,1*%
%TO.N,+3.3V*%
X152900000Y-105550000D03*
D12*
%TO.P,C59,2*%
%TO.N,GND*%
X154314214Y-104135786D03*
%TD*%
D10*
%TO.P,J160,1,Pin_1*%
%TO.N,Net-(J160-Pin_1)*%
X133900000Y-107750000D03*
%TD*%
%TO.P,J210,1,Pin_1*%
%TO.N,/Communication & pheripherals/OUT_Protection/IN_4*%
X166560000Y-84950000D03*
%TD*%
%TO.P,J236,1,Pin_1*%
%TO.N,GND*%
X122500000Y-98950000D03*
%TD*%
%TO.P,J155,1,Pin_1*%
%TO.N,Net-(J155-Pin_1)*%
X141500000Y-111470000D03*
%TD*%
%TO.P,J154,1,Pin_1*%
%TO.N,Net-(J154-Pin_1)*%
X149100000Y-111470000D03*
%TD*%
D15*
%TO.P,C61,1*%
%TO.N,+3.3V*%
X152900000Y-113550000D03*
D12*
%TO.P,C61,2*%
%TO.N,GND*%
X154314214Y-114964214D03*
%TD*%
D10*
%TO.P,J207,1,Pin_1*%
%TO.N,/Communication & pheripherals/OUT_Protection/IN_1*%
X128160000Y-84950000D03*
%TD*%
%TO.P,J27,1,Pin_1*%
%TO.N,/Communication & pheripherals/OUT_Protection/OUT_4*%
X164285000Y-95350000D03*
D13*
%TO.P,J27,2,Pin_2*%
%TO.N,Net-(J27-Pin_2)*%
X161745000Y-95350000D03*
%TO.P,J27,3,Pin_3*%
%TO.N,GND*%
X159205000Y-95350000D03*
%TD*%
D10*
%TO.P,J224,1,Pin_1*%
%TO.N,GND*%
X141530736Y-116509264D03*
%TD*%
%TO.P,J22,1,Pin_1*%
%TO.N,Net-(J161-Pin_1)*%
X122560000Y-107750000D03*
D13*
%TO.P,J22,2,Pin_2*%
%TO.N,+3.3V*%
X122560000Y-105210000D03*
%TO.P,J22,3,Pin_3*%
%TO.N,GND*%
X122560000Y-102670000D03*
%TD*%
D10*
%TO.P,J5,1,Pin_1*%
%TO.N,Net-(J154-Pin_1)*%
X145300000Y-111470000D03*
D13*
%TO.P,J5,2,Pin_2*%
%TO.N,+3.3V*%
X145300000Y-114010000D03*
%TO.P,J5,3,Pin_3*%
%TO.N,GND*%
X145300000Y-116550000D03*
%TD*%
D10*
%TO.P,J211,1,Pin_1*%
%TO.N,/Communication & pheripherals/OUT_Protection/IN_5*%
X179360000Y-84950000D03*
%TD*%
%TO.P,J21,1,Pin_1*%
%TO.N,Net-(J160-Pin_1)*%
X130100000Y-107750000D03*
D13*
%TO.P,J21,2,Pin_2*%
%TO.N,+3.3V*%
X130100000Y-105210000D03*
%TO.P,J21,3,Pin_3*%
%TO.N,GND*%
X130100000Y-102670000D03*
%TD*%
D10*
%TO.P,J157,1,Pin_1*%
%TO.N,Net-(J157-Pin_1)*%
X126300000Y-111470000D03*
%TD*%
%TO.P,J44,1,Pin_1*%
%TO.N,Net-(J157-Pin_1)*%
X122500000Y-111470000D03*
D13*
%TO.P,J44,2,Pin_2*%
%TO.N,+3.3V*%
X122500000Y-114010000D03*
%TO.P,J44,3,Pin_3*%
%TO.N,GND*%
X122500000Y-116550000D03*
%TD*%
D16*
%TO.N,GND*%
X143500000Y-99950000D03*
X169100000Y-96350000D03*
X130700000Y-99950000D03*
X169100000Y-99950000D03*
X156300000Y-99950000D03*
X143500000Y-96350000D03*
X130700000Y-96350000D03*
X156300000Y-96350000D03*
%TD*%
D17*
%TO.N,GND*%
X169100000Y-96350000D02*
X169100000Y-99950000D01*
X156300000Y-96350000D02*
X156300000Y-99950000D01*
X130700000Y-96350000D02*
X130700000Y-99950000D01*
X143500000Y-96350000D02*
X143500000Y-99950000D01*
%TD*%
%TA.AperFunction,Conductor*%
%TO.N,GND*%
G36*
X169735518Y-96613100D02*
G01*
X169828997Y-96651947D01*
X169835322Y-96658286D01*
X169835586Y-96666511D01*
X169402695Y-97942060D01*
X169396792Y-97948793D01*
X169391616Y-97950000D01*
X168808384Y-97950000D01*
X168800111Y-97946573D01*
X168797305Y-97942060D01*
X168364413Y-96666511D01*
X168364999Y-96657575D01*
X168371001Y-96651947D01*
X169095512Y-96350864D01*
X169104461Y-96350854D01*
X169735518Y-96613100D01*
G37*
%TD.AperFunction*%
%TD*%
%TA.AperFunction,Conductor*%
%TO.N,GND*%
G36*
X169399889Y-98353427D02*
G01*
X169402695Y-98357940D01*
X169835586Y-99633488D01*
X169835000Y-99642424D01*
X169828997Y-99648052D01*
X169104490Y-99949134D01*
X169095536Y-99949144D01*
X169095510Y-99949134D01*
X168371002Y-99648052D01*
X168364677Y-99641713D01*
X168364413Y-99633489D01*
X168797305Y-98357939D01*
X168803208Y-98351207D01*
X168808384Y-98350000D01*
X169391616Y-98350000D01*
X169399889Y-98353427D01*
G37*
%TD.AperFunction*%
%TD*%
%TA.AperFunction,Conductor*%
%TO.N,GND*%
G36*
X156599889Y-98353427D02*
G01*
X156602695Y-98357940D01*
X157035586Y-99633488D01*
X157035000Y-99642424D01*
X157028997Y-99648052D01*
X156304490Y-99949134D01*
X156295536Y-99949144D01*
X156295510Y-99949134D01*
X155571002Y-99648052D01*
X155564677Y-99641713D01*
X155564413Y-99633489D01*
X155997305Y-98357939D01*
X156003208Y-98351207D01*
X156008384Y-98350000D01*
X156591616Y-98350000D01*
X156599889Y-98353427D01*
G37*
%TD.AperFunction*%
%TD*%
%TA.AperFunction,Conductor*%
%TO.N,GND*%
G36*
X156935518Y-96613100D02*
G01*
X157028997Y-96651947D01*
X157035322Y-96658286D01*
X157035586Y-96666511D01*
X156602695Y-97942060D01*
X156596792Y-97948793D01*
X156591616Y-97950000D01*
X156008384Y-97950000D01*
X156000111Y-97946573D01*
X155997305Y-97942060D01*
X155564413Y-96666511D01*
X155564999Y-96657575D01*
X155571001Y-96651947D01*
X156295512Y-96350864D01*
X156304461Y-96350854D01*
X156935518Y-96613100D01*
G37*
%TD.AperFunction*%
%TD*%
%TA.AperFunction,Conductor*%
%TO.N,GND*%
G36*
X131335518Y-96613100D02*
G01*
X131428997Y-96651947D01*
X131435322Y-96658286D01*
X131435586Y-96666511D01*
X131002695Y-97942060D01*
X130996792Y-97948793D01*
X130991616Y-97950000D01*
X130408384Y-97950000D01*
X130400111Y-97946573D01*
X130397305Y-97942060D01*
X129964413Y-96666511D01*
X129964999Y-96657575D01*
X129971001Y-96651947D01*
X130695512Y-96350864D01*
X130704461Y-96350854D01*
X131335518Y-96613100D01*
G37*
%TD.AperFunction*%
%TD*%
%TA.AperFunction,Conductor*%
%TO.N,GND*%
G36*
X130999889Y-98353427D02*
G01*
X131002695Y-98357940D01*
X131435586Y-99633488D01*
X131435000Y-99642424D01*
X131428997Y-99648052D01*
X130704490Y-99949134D01*
X130695536Y-99949144D01*
X130695510Y-99949134D01*
X129971002Y-99648052D01*
X129964677Y-99641713D01*
X129964413Y-99633489D01*
X130397305Y-98357939D01*
X130403208Y-98351207D01*
X130408384Y-98350000D01*
X130991616Y-98350000D01*
X130999889Y-98353427D01*
G37*
%TD.AperFunction*%
%TD*%
%TA.AperFunction,Conductor*%
%TO.N,GND*%
G36*
X144135518Y-96613100D02*
G01*
X144228997Y-96651947D01*
X144235322Y-96658286D01*
X144235586Y-96666511D01*
X143802695Y-97942060D01*
X143796792Y-97948793D01*
X143791616Y-97950000D01*
X143208384Y-97950000D01*
X143200111Y-97946573D01*
X143197305Y-97942060D01*
X142764413Y-96666511D01*
X142764999Y-96657575D01*
X142771001Y-96651947D01*
X143495512Y-96350864D01*
X143504461Y-96350854D01*
X144135518Y-96613100D01*
G37*
%TD.AperFunction*%
%TD*%
%TA.AperFunction,Conductor*%
%TO.N,GND*%
G36*
X143799889Y-98353427D02*
G01*
X143802695Y-98357940D01*
X144235586Y-99633488D01*
X144235000Y-99642424D01*
X144228997Y-99648052D01*
X143504490Y-99949134D01*
X143495536Y-99949144D01*
X143495510Y-99949134D01*
X142771002Y-99648052D01*
X142764677Y-99641713D01*
X142764413Y-99633489D01*
X143197305Y-98357939D01*
X143203208Y-98351207D01*
X143208384Y-98350000D01*
X143791616Y-98350000D01*
X143799889Y-98353427D01*
G37*
%TD.AperFunction*%
%TD*%
M02*
