%TF.GenerationSoftware,KiCad,Pcbnew,9.0.7+1*%
%TF.CreationDate,2026-03-01T17:30:11+01:00*%
%TF.ProjectId,2_power_board,325f706f-7765-4725-9f62-6f6172642e6b,rev?*%
%TF.SameCoordinates,Original*%
%TF.FileFunction,Legend,Top*%
%TF.FilePolarity,Positive*%
%FSLAX46Y46*%
G04 Gerber Fmt 4.6, Leading zero omitted, Abs format (unit mm)*
G04 Created by KiCad (PCBNEW 9.0.7+1) date 2026-03-01 17:30:11*
%MOMM*%
%LPD*%
G01*
G04 APERTURE LIST*
%ADD10C,0.150000*%
%ADD11C,0.100000*%
%ADD12C,0.120000*%
%ADD13C,0.127000*%
%ADD14C,0.200000*%
G04 APERTURE END LIST*
D10*
X138438096Y-93666820D02*
X138438096Y-94476343D01*
X138438096Y-94476343D02*
X138485715Y-94571581D01*
X138485715Y-94571581D02*
X138533334Y-94619201D01*
X138533334Y-94619201D02*
X138628572Y-94666820D01*
X138628572Y-94666820D02*
X138819048Y-94666820D01*
X138819048Y-94666820D02*
X138914286Y-94619201D01*
X138914286Y-94619201D02*
X138961905Y-94571581D01*
X138961905Y-94571581D02*
X139009524Y-94476343D01*
X139009524Y-94476343D02*
X139009524Y-93666820D01*
X140009524Y-94666820D02*
X139438096Y-94666820D01*
X139723810Y-94666820D02*
X139723810Y-93666820D01*
X139723810Y-93666820D02*
X139628572Y-93809677D01*
X139628572Y-93809677D02*
X139533334Y-93904915D01*
X139533334Y-93904915D02*
X139438096Y-93952534D01*
D11*
X137066667Y-114090491D02*
X137042858Y-114114301D01*
X137042858Y-114114301D02*
X136971429Y-114138110D01*
X136971429Y-114138110D02*
X136923810Y-114138110D01*
X136923810Y-114138110D02*
X136852382Y-114114301D01*
X136852382Y-114114301D02*
X136804763Y-114066681D01*
X136804763Y-114066681D02*
X136780953Y-114019062D01*
X136780953Y-114019062D02*
X136757144Y-113923824D01*
X136757144Y-113923824D02*
X136757144Y-113852396D01*
X136757144Y-113852396D02*
X136780953Y-113757158D01*
X136780953Y-113757158D02*
X136804763Y-113709539D01*
X136804763Y-113709539D02*
X136852382Y-113661920D01*
X136852382Y-113661920D02*
X136923810Y-113638110D01*
X136923810Y-113638110D02*
X136971429Y-113638110D01*
X136971429Y-113638110D02*
X137042858Y-113661920D01*
X137042858Y-113661920D02*
X137066667Y-113685729D01*
X137233334Y-113638110D02*
X137542858Y-113638110D01*
X137542858Y-113638110D02*
X137376191Y-113828586D01*
X137376191Y-113828586D02*
X137447620Y-113828586D01*
X137447620Y-113828586D02*
X137495239Y-113852396D01*
X137495239Y-113852396D02*
X137519048Y-113876205D01*
X137519048Y-113876205D02*
X137542858Y-113923824D01*
X137542858Y-113923824D02*
X137542858Y-114042872D01*
X137542858Y-114042872D02*
X137519048Y-114090491D01*
X137519048Y-114090491D02*
X137495239Y-114114301D01*
X137495239Y-114114301D02*
X137447620Y-114138110D01*
X137447620Y-114138110D02*
X137304763Y-114138110D01*
X137304763Y-114138110D02*
X137257144Y-114114301D01*
X137257144Y-114114301D02*
X137233334Y-114090491D01*
D10*
X151312296Y-96140476D02*
X150512296Y-96140476D01*
X150512296Y-96140476D02*
X150512296Y-95950000D01*
X150512296Y-95950000D02*
X150550391Y-95835714D01*
X150550391Y-95835714D02*
X150626581Y-95759524D01*
X150626581Y-95759524D02*
X150702772Y-95721429D01*
X150702772Y-95721429D02*
X150855153Y-95683333D01*
X150855153Y-95683333D02*
X150969439Y-95683333D01*
X150969439Y-95683333D02*
X151121820Y-95721429D01*
X151121820Y-95721429D02*
X151198010Y-95759524D01*
X151198010Y-95759524D02*
X151274201Y-95835714D01*
X151274201Y-95835714D02*
X151312296Y-95950000D01*
X151312296Y-95950000D02*
X151312296Y-96140476D01*
X151312296Y-94921429D02*
X151312296Y-95378572D01*
X151312296Y-95150000D02*
X150512296Y-95150000D01*
X150512296Y-95150000D02*
X150626581Y-95226191D01*
X150626581Y-95226191D02*
X150702772Y-95302381D01*
X150702772Y-95302381D02*
X150740867Y-95378572D01*
D11*
X139116667Y-114090491D02*
X139092858Y-114114301D01*
X139092858Y-114114301D02*
X139021429Y-114138110D01*
X139021429Y-114138110D02*
X138973810Y-114138110D01*
X138973810Y-114138110D02*
X138902382Y-114114301D01*
X138902382Y-114114301D02*
X138854763Y-114066681D01*
X138854763Y-114066681D02*
X138830953Y-114019062D01*
X138830953Y-114019062D02*
X138807144Y-113923824D01*
X138807144Y-113923824D02*
X138807144Y-113852396D01*
X138807144Y-113852396D02*
X138830953Y-113757158D01*
X138830953Y-113757158D02*
X138854763Y-113709539D01*
X138854763Y-113709539D02*
X138902382Y-113661920D01*
X138902382Y-113661920D02*
X138973810Y-113638110D01*
X138973810Y-113638110D02*
X139021429Y-113638110D01*
X139021429Y-113638110D02*
X139092858Y-113661920D01*
X139092858Y-113661920D02*
X139116667Y-113685729D01*
X139307144Y-113685729D02*
X139330953Y-113661920D01*
X139330953Y-113661920D02*
X139378572Y-113638110D01*
X139378572Y-113638110D02*
X139497620Y-113638110D01*
X139497620Y-113638110D02*
X139545239Y-113661920D01*
X139545239Y-113661920D02*
X139569048Y-113685729D01*
X139569048Y-113685729D02*
X139592858Y-113733348D01*
X139592858Y-113733348D02*
X139592858Y-113780967D01*
X139592858Y-113780967D02*
X139569048Y-113852396D01*
X139569048Y-113852396D02*
X139283334Y-114138110D01*
X139283334Y-114138110D02*
X139592858Y-114138110D01*
X159873491Y-110855834D02*
X159897301Y-110879643D01*
X159897301Y-110879643D02*
X159921110Y-110951072D01*
X159921110Y-110951072D02*
X159921110Y-110998691D01*
X159921110Y-110998691D02*
X159897301Y-111070119D01*
X159897301Y-111070119D02*
X159849681Y-111117738D01*
X159849681Y-111117738D02*
X159802062Y-111141548D01*
X159802062Y-111141548D02*
X159706824Y-111165357D01*
X159706824Y-111165357D02*
X159635396Y-111165357D01*
X159635396Y-111165357D02*
X159540158Y-111141548D01*
X159540158Y-111141548D02*
X159492539Y-111117738D01*
X159492539Y-111117738D02*
X159444920Y-111070119D01*
X159444920Y-111070119D02*
X159421110Y-110998691D01*
X159421110Y-110998691D02*
X159421110Y-110951072D01*
X159421110Y-110951072D02*
X159444920Y-110879643D01*
X159444920Y-110879643D02*
X159468729Y-110855834D01*
X159587777Y-110427262D02*
X159921110Y-110427262D01*
X159397301Y-110546310D02*
X159754443Y-110665357D01*
X159754443Y-110665357D02*
X159754443Y-110355834D01*
X141166667Y-114138110D02*
X141000001Y-113900015D01*
X140880953Y-114138110D02*
X140880953Y-113638110D01*
X140880953Y-113638110D02*
X141071429Y-113638110D01*
X141071429Y-113638110D02*
X141119048Y-113661920D01*
X141119048Y-113661920D02*
X141142858Y-113685729D01*
X141142858Y-113685729D02*
X141166667Y-113733348D01*
X141166667Y-113733348D02*
X141166667Y-113804777D01*
X141166667Y-113804777D02*
X141142858Y-113852396D01*
X141142858Y-113852396D02*
X141119048Y-113876205D01*
X141119048Y-113876205D02*
X141071429Y-113900015D01*
X141071429Y-113900015D02*
X140880953Y-113900015D01*
X141642858Y-114138110D02*
X141357144Y-114138110D01*
X141500001Y-114138110D02*
X141500001Y-113638110D01*
X141500001Y-113638110D02*
X141452382Y-113709539D01*
X141452382Y-113709539D02*
X141404763Y-113757158D01*
X141404763Y-113757158D02*
X141357144Y-113780967D01*
D12*
%TO.C,J5*%
X154495001Y-112202501D02*
X164895001Y-112202501D01*
X154495001Y-115222501D02*
X164895001Y-115222501D01*
X154495001Y-120122501D02*
X164895001Y-120122501D01*
X154495001Y-121622501D02*
X164895001Y-121622501D01*
X154495001Y-122242501D02*
X154495001Y-112202501D01*
X156855001Y-122242501D02*
X154495001Y-122242501D01*
X164895001Y-112202501D02*
X164895001Y-122242501D01*
X164895001Y-122242501D02*
X157455001Y-122242501D01*
X157595001Y-122852501D02*
X156715001Y-122852501D01*
X157155001Y-122242501D01*
X157595001Y-122852501D01*
G36*
X157595001Y-122852501D02*
G01*
X156715001Y-122852501D01*
X157155001Y-122242501D01*
X157595001Y-122852501D01*
G37*
%TO.C,U1*%
X132080001Y-103732001D02*
X132080001Y-92812001D01*
X134080001Y-103732001D02*
X132080001Y-103732001D01*
X134080001Y-108132001D02*
X134080001Y-103732001D01*
X136320001Y-94892001D02*
X136320001Y-92812001D01*
X136320001Y-94892001D02*
X142080001Y-94892001D01*
X137035001Y-108132001D02*
X137035001Y-110012001D01*
X137545001Y-108132001D02*
X137545001Y-110012001D01*
X138945001Y-108132001D02*
X138945001Y-110012001D01*
X139455001Y-108132001D02*
X139455001Y-110012001D01*
X140855001Y-108132001D02*
X140855001Y-110012001D01*
X141365001Y-108132001D02*
X141365001Y-110012001D01*
X142080001Y-94892001D02*
X142080001Y-92812001D01*
X144320001Y-103732001D02*
X146320001Y-103732001D01*
X144320001Y-108132001D02*
X134080001Y-108132001D01*
X144320001Y-108132001D02*
X144320001Y-103732001D01*
X146320001Y-103732001D02*
X146320001Y-92812001D01*
%TO.C,C3*%
X136415001Y-113650749D02*
X136415001Y-114173253D01*
X137885001Y-113650749D02*
X137885001Y-114173253D01*
D13*
%TO.C,D1*%
X149600001Y-92870001D02*
X149600001Y-98230001D01*
X149900001Y-92870001D02*
X149600001Y-92870001D01*
X149900001Y-98230001D02*
X149600001Y-98230001D01*
X152000001Y-92870001D02*
X152300001Y-92870001D01*
X152000001Y-98230001D02*
X152300001Y-98230001D01*
X152300001Y-98230001D02*
X152300001Y-92870001D01*
D14*
X151050001Y-99360001D02*
G75*
G02*
X150850001Y-99360001I-100000J0D01*
G01*
X150850001Y-99360001D02*
G75*
G02*
X151050001Y-99360001I100000J0D01*
G01*
D12*
%TO.C,J3*%
X134150000Y-120000000D02*
X134900000Y-120000000D01*
X134900000Y-117050000D02*
X139200000Y-117050000D01*
X134900000Y-120000000D02*
X134900000Y-117050000D01*
X143300000Y-122550000D02*
X144550000Y-122550000D01*
X143500000Y-117050000D02*
X139200000Y-117050000D01*
X143500000Y-120000000D02*
X143500000Y-117050000D01*
X144250000Y-120000000D02*
X143500000Y-120000000D01*
X144550000Y-122550000D02*
X144550000Y-121300000D01*
X135950000Y-122250000D02*
X134150000Y-122250000D01*
X134150000Y-121500000D01*
X135950000Y-121500000D01*
X135950000Y-122250000D01*
X140950000Y-122250000D02*
X137450000Y-122250000D01*
X137450000Y-121500000D01*
X140950000Y-121500000D01*
X140950000Y-122250000D01*
X144250000Y-122250000D02*
X142450000Y-122250000D01*
X142450000Y-121500000D01*
X144250000Y-121500000D01*
X144250000Y-122250000D01*
X144260000Y-122260000D02*
X134140000Y-122260000D01*
X134140000Y-116290000D01*
X144260000Y-116290000D01*
X144260000Y-122260000D01*
%TO.C,C1*%
X159760001Y-98070001D02*
X153458001Y-98070001D01*
X159760001Y-98110001D02*
X153471001Y-98110001D01*
X159760001Y-98150001D02*
X153483001Y-98150001D01*
X159760001Y-98190001D02*
X153495001Y-98190001D01*
X159760001Y-98230001D02*
X153508001Y-98230001D01*
X159760001Y-98270001D02*
X153521001Y-98270001D01*
X159760001Y-98310001D02*
X153534001Y-98310001D01*
X159760001Y-98350001D02*
X153548001Y-98350001D01*
X159760001Y-98390001D02*
X153561001Y-98390001D01*
X159760001Y-98430001D02*
X153575001Y-98430001D01*
X159760001Y-98470001D02*
X153589001Y-98470001D01*
X159760001Y-98510001D02*
X153603001Y-98510001D01*
X159760001Y-98550001D02*
X153618001Y-98550001D01*
X159760001Y-98590001D02*
X153633001Y-98590001D01*
X159760001Y-98630001D02*
X153648001Y-98630001D01*
X159760001Y-98670001D02*
X153663001Y-98670001D01*
X159760001Y-98710001D02*
X153679001Y-98710001D01*
X159760001Y-98750001D02*
X153695001Y-98750001D01*
X159760001Y-98790001D02*
X153711001Y-98790001D01*
X159760001Y-98830001D02*
X153727001Y-98830001D01*
X159760001Y-98870001D02*
X153743001Y-98870001D01*
X159760001Y-98910001D02*
X153760001Y-98910001D01*
X159760001Y-98950001D02*
X153777001Y-98950001D01*
X159760001Y-98990001D02*
X153794001Y-98990001D01*
X159760001Y-99030001D02*
X153812001Y-99030001D01*
X159760001Y-99070001D02*
X153830001Y-99070001D01*
X159760001Y-99110001D02*
X153848001Y-99110001D01*
X159760001Y-99150001D02*
X153866001Y-99150001D01*
X159760001Y-99190001D02*
X153885001Y-99190001D01*
X159760001Y-99230001D02*
X153904001Y-99230001D01*
X159760001Y-99270001D02*
X153923001Y-99270001D01*
X159760001Y-99310001D02*
X153942001Y-99310001D01*
X159760001Y-99350001D02*
X153962001Y-99350001D01*
X159760001Y-99390001D02*
X153982001Y-99390001D01*
X159760001Y-99430001D02*
X154002001Y-99430001D01*
X159760001Y-99470001D02*
X154022001Y-99470001D01*
X159760001Y-99510001D02*
X154043001Y-99510001D01*
X159760001Y-99550001D02*
X154064001Y-99550001D01*
X159760001Y-99590001D02*
X154085001Y-99590001D01*
X159760001Y-99630001D02*
X154107001Y-99630001D01*
X159760001Y-99670001D02*
X154129001Y-99670001D01*
X159760001Y-99710001D02*
X154151001Y-99710001D01*
X159760001Y-99750001D02*
X154174001Y-99750001D01*
X159760001Y-99790001D02*
X154196001Y-99790001D01*
X159760001Y-99830001D02*
X154219001Y-99830001D01*
X159760001Y-99870001D02*
X154243001Y-99870001D01*
X159760001Y-99910001D02*
X154267001Y-99910001D01*
X159760001Y-99950001D02*
X154291001Y-99950001D01*
X159760001Y-99990001D02*
X154315001Y-99990001D01*
X159760001Y-100030001D02*
X154340001Y-100030001D01*
X159760001Y-100070001D02*
X154365001Y-100070001D01*
X159760001Y-100110001D02*
X154390001Y-100110001D01*
X159760001Y-100150001D02*
X154415001Y-100150001D01*
X159760001Y-100190001D02*
X154441001Y-100190001D01*
X159760001Y-100230001D02*
X154468001Y-100230001D01*
X159760001Y-100270001D02*
X154494001Y-100270001D01*
X159760001Y-100310001D02*
X154521001Y-100310001D01*
X159760001Y-100350001D02*
X154549001Y-100350001D01*
X159760001Y-100390001D02*
X154576001Y-100390001D01*
X159760001Y-100430001D02*
X154604001Y-100430001D01*
X159760001Y-100470001D02*
X154633001Y-100470001D01*
X159760001Y-100510001D02*
X154661001Y-100510001D01*
X159760001Y-100550001D02*
X154691001Y-100550001D01*
X159760001Y-100590001D02*
X154720001Y-100590001D01*
X159760001Y-100630001D02*
X154750001Y-100630001D01*
X159760001Y-100670001D02*
X154780001Y-100670001D01*
X159760001Y-100710001D02*
X154811001Y-100710001D01*
X159760001Y-100750001D02*
X154842001Y-100750001D01*
X159760001Y-100790001D02*
X154873001Y-100790001D01*
X159760001Y-100830001D02*
X154905001Y-100830001D01*
X159760001Y-100870001D02*
X154938001Y-100870001D01*
X159760001Y-100910001D02*
X154970001Y-100910001D01*
X161965001Y-103830001D02*
X160435001Y-103830001D01*
X162297001Y-103790001D02*
X160103001Y-103790001D01*
X162551001Y-103750001D02*
X159849001Y-103750001D01*
X162764001Y-103710001D02*
X159636001Y-103710001D01*
X162951001Y-103670001D02*
X159449001Y-103670001D01*
X163120001Y-103630001D02*
X159280001Y-103630001D01*
X163274001Y-103590001D02*
X159126001Y-103590001D01*
X163417001Y-103550001D02*
X158983001Y-103550001D01*
X163551001Y-103510001D02*
X158849001Y-103510001D01*
X163677001Y-103470001D02*
X158723001Y-103470001D01*
X163797001Y-103430001D02*
X158603001Y-103430001D01*
X163910001Y-103390001D02*
X158490001Y-103390001D01*
X164019001Y-103350001D02*
X158381001Y-103350001D01*
X164123001Y-103310001D02*
X158277001Y-103310001D01*
X164223001Y-103270001D02*
X158177001Y-103270001D01*
X164320001Y-103230001D02*
X158080001Y-103230001D01*
X164413001Y-103190001D02*
X157987001Y-103190001D01*
X164503001Y-103150001D02*
X157897001Y-103150001D01*
X164590001Y-103110001D02*
X157810001Y-103110001D01*
X164675001Y-103070001D02*
X157725001Y-103070001D01*
X164757001Y-103030001D02*
X157643001Y-103030001D01*
X164837001Y-102990001D02*
X157563001Y-102990001D01*
X164914001Y-102950001D02*
X157486001Y-102950001D01*
X164990001Y-102910001D02*
X157410001Y-102910001D01*
X165064001Y-102870001D02*
X157336001Y-102870001D01*
X165136001Y-102830001D02*
X157264001Y-102830001D01*
X165206001Y-102790001D02*
X157194001Y-102790001D01*
X165275001Y-102750001D02*
X157125001Y-102750001D01*
X165342001Y-102710001D02*
X157058001Y-102710001D01*
X165408001Y-102670001D02*
X156992001Y-102670001D01*
X165473001Y-102630001D02*
X156927001Y-102630001D01*
X165536001Y-102590001D02*
X156864001Y-102590001D01*
X165598001Y-102550001D02*
X156802001Y-102550001D01*
X165659001Y-102510001D02*
X156741001Y-102510001D01*
X165718001Y-102470001D02*
X156682001Y-102470001D01*
X165755001Y-87060510D02*
X165755001Y-88660510D01*
X165776001Y-102430001D02*
X156624001Y-102430001D01*
X165834001Y-102390001D02*
X156566001Y-102390001D01*
X165890001Y-102350001D02*
X156510001Y-102350001D01*
X165945001Y-102310001D02*
X156455001Y-102310001D01*
X166000001Y-102270001D02*
X156400001Y-102270001D01*
X166053001Y-102230001D02*
X156347001Y-102230001D01*
X166106001Y-102190001D02*
X156294001Y-102190001D01*
X166157001Y-102150001D02*
X156243001Y-102150001D01*
X166208001Y-102110001D02*
X156192001Y-102110001D01*
X166258001Y-102070001D02*
X156142001Y-102070001D01*
X166307001Y-102030001D02*
X156093001Y-102030001D01*
X166356001Y-101990001D02*
X156044001Y-101990001D01*
X166404001Y-101950001D02*
X155996001Y-101950001D01*
X166450001Y-101910001D02*
X155950001Y-101910001D01*
X166497001Y-101870001D02*
X155903001Y-101870001D01*
X166542001Y-101830001D02*
X155858001Y-101830001D01*
X166555001Y-87860510D02*
X164955001Y-87860510D01*
X166587001Y-101790001D02*
X155813001Y-101790001D01*
X166631001Y-101750001D02*
X155769001Y-101750001D01*
X166675001Y-101710001D02*
X155725001Y-101710001D01*
X166718001Y-101670001D02*
X155682001Y-101670001D01*
X166760001Y-101630001D02*
X155640001Y-101630001D01*
X166802001Y-101590001D02*
X155598001Y-101590001D01*
X166843001Y-101550001D02*
X155557001Y-101550001D01*
X166883001Y-101510001D02*
X155517001Y-101510001D01*
X166923001Y-101470001D02*
X155477001Y-101470001D01*
X166963001Y-101430001D02*
X155437001Y-101430001D01*
X167002001Y-101390001D02*
X155398001Y-101390001D01*
X167040001Y-101350001D02*
X155360001Y-101350001D01*
X167078001Y-101310001D02*
X155322001Y-101310001D01*
X167115001Y-101270001D02*
X155285001Y-101270001D01*
X167152001Y-101230001D02*
X155248001Y-101230001D01*
X167188001Y-101190001D02*
X155212001Y-101190001D01*
X167224001Y-101150001D02*
X155176001Y-101150001D01*
X167260001Y-101110001D02*
X155140001Y-101110001D01*
X167294001Y-101070001D02*
X155106001Y-101070001D01*
X167329001Y-101030001D02*
X155071001Y-101030001D01*
X167363001Y-100990001D02*
X155037001Y-100990001D01*
X167397001Y-100950001D02*
X155003001Y-100950001D01*
X167430001Y-100910001D02*
X162640001Y-100910001D01*
X167462001Y-100870001D02*
X162640001Y-100870001D01*
X167495001Y-100830001D02*
X162640001Y-100830001D01*
X167527001Y-100790001D02*
X162640001Y-100790001D01*
X167558001Y-100750001D02*
X162640001Y-100750001D01*
X167589001Y-100710001D02*
X162640001Y-100710001D01*
X167620001Y-100670001D02*
X162640001Y-100670001D01*
X167650001Y-100630001D02*
X162640001Y-100630001D01*
X167680001Y-100590001D02*
X162640001Y-100590001D01*
X167709001Y-100550001D02*
X162640001Y-100550001D01*
X167739001Y-100510001D02*
X162640001Y-100510001D01*
X167767001Y-100470001D02*
X162640001Y-100470001D01*
X167796001Y-100430001D02*
X162640001Y-100430001D01*
X167824001Y-100390001D02*
X162640001Y-100390001D01*
X167851001Y-100350001D02*
X162640001Y-100350001D01*
X167879001Y-100310001D02*
X162640001Y-100310001D01*
X167906001Y-100270001D02*
X162640001Y-100270001D01*
X167932001Y-100230001D02*
X162640001Y-100230001D01*
X167959001Y-100190001D02*
X162640001Y-100190001D01*
X167985001Y-100150001D02*
X162640001Y-100150001D01*
X168010001Y-100110001D02*
X162640001Y-100110001D01*
X168035001Y-100070001D02*
X162640001Y-100070001D01*
X168060001Y-100030001D02*
X162640001Y-100030001D01*
X168085001Y-99990001D02*
X162640001Y-99990001D01*
X168109001Y-99950001D02*
X162640001Y-99950001D01*
X168133001Y-99910001D02*
X162640001Y-99910001D01*
X168157001Y-99870001D02*
X162640001Y-99870001D01*
X168181001Y-99830001D02*
X162640001Y-99830001D01*
X168204001Y-99790001D02*
X162640001Y-99790001D01*
X168226001Y-99750001D02*
X162640001Y-99750001D01*
X168249001Y-99710001D02*
X162640001Y-99710001D01*
X168271001Y-99670001D02*
X162640001Y-99670001D01*
X168293001Y-99630001D02*
X162640001Y-99630001D01*
X168315001Y-99590001D02*
X162640001Y-99590001D01*
X168336001Y-99550001D02*
X162640001Y-99550001D01*
X168357001Y-99510001D02*
X162640001Y-99510001D01*
X168378001Y-99470001D02*
X162640001Y-99470001D01*
X168398001Y-99430001D02*
X162640001Y-99430001D01*
X168418001Y-99390001D02*
X162640001Y-99390001D01*
X168438001Y-99350001D02*
X162640001Y-99350001D01*
X168458001Y-99310001D02*
X162640001Y-99310001D01*
X168477001Y-99270001D02*
X162640001Y-99270001D01*
X168496001Y-99230001D02*
X162640001Y-99230001D01*
X168515001Y-99190001D02*
X162640001Y-99190001D01*
X168534001Y-99150001D02*
X162640001Y-99150001D01*
X168552001Y-99110001D02*
X162640001Y-99110001D01*
X168570001Y-99070001D02*
X162640001Y-99070001D01*
X168588001Y-99030001D02*
X162640001Y-99030001D01*
X168606001Y-98990001D02*
X162640001Y-98990001D01*
X168623001Y-98950001D02*
X162640001Y-98950001D01*
X168640001Y-98910001D02*
X162640001Y-98910001D01*
X168657001Y-98870001D02*
X162640001Y-98870001D01*
X168673001Y-98830001D02*
X162640001Y-98830001D01*
X168689001Y-98790001D02*
X162640001Y-98790001D01*
X168705001Y-98750001D02*
X162640001Y-98750001D01*
X168721001Y-98710001D02*
X162640001Y-98710001D01*
X168737001Y-98670001D02*
X162640001Y-98670001D01*
X168752001Y-98630001D02*
X162640001Y-98630001D01*
X168767001Y-98590001D02*
X162640001Y-98590001D01*
X168782001Y-98550001D02*
X162640001Y-98550001D01*
X168797001Y-98510001D02*
X162640001Y-98510001D01*
X168811001Y-98470001D02*
X162640001Y-98470001D01*
X168825001Y-98430001D02*
X162640001Y-98430001D01*
X168839001Y-98390001D02*
X162640001Y-98390001D01*
X168852001Y-98350001D02*
X162640001Y-98350001D01*
X168866001Y-98310001D02*
X162640001Y-98310001D01*
X168879001Y-98270001D02*
X162640001Y-98270001D01*
X168892001Y-98230001D02*
X162640001Y-98230001D01*
X168905001Y-98190001D02*
X162640001Y-98190001D01*
X168917001Y-98150001D02*
X162640001Y-98150001D01*
X168929001Y-98110001D02*
X162640001Y-98110001D01*
X168942001Y-98070001D02*
X162640001Y-98070001D01*
X168953001Y-98030001D02*
X153447001Y-98030001D01*
X168965001Y-97990001D02*
X153435001Y-97990001D01*
X168976001Y-97950001D02*
X153424001Y-97950001D01*
X168987001Y-97910001D02*
X153413001Y-97910001D01*
X168998001Y-97870001D02*
X153402001Y-97870001D01*
X169009001Y-97830001D02*
X153391001Y-97830001D01*
X169020001Y-97790001D02*
X153380001Y-97790001D01*
X169030001Y-97750001D02*
X153370001Y-97750001D01*
X169040001Y-97710001D02*
X153360001Y-97710001D01*
X169050001Y-97670001D02*
X153350001Y-97670001D01*
X169059001Y-97630001D02*
X153341001Y-97630001D01*
X169069001Y-97590001D02*
X153331001Y-97590001D01*
X169078001Y-97550001D02*
X153322001Y-97550001D01*
X169087001Y-97510001D02*
X153313001Y-97510001D01*
X169096001Y-97470001D02*
X153304001Y-97470001D01*
X169104001Y-97430001D02*
X153296001Y-97430001D01*
X169113001Y-97390001D02*
X153287001Y-97390001D01*
X169121001Y-97350001D02*
X153279001Y-97350001D01*
X169129001Y-97310001D02*
X153271001Y-97310001D01*
X169136001Y-97270001D02*
X153264001Y-97270001D01*
X169144001Y-97230001D02*
X153256001Y-97230001D01*
X169151001Y-97190001D02*
X153249001Y-97190001D01*
X169158001Y-97150001D02*
X153242001Y-97150001D01*
X169165001Y-97110001D02*
X153235001Y-97110001D01*
X169172001Y-97070001D02*
X153228001Y-97070001D01*
X169178001Y-97030001D02*
X153222001Y-97030001D01*
X169185001Y-96990001D02*
X153215001Y-96990001D01*
X169191001Y-96950001D02*
X153209001Y-96950001D01*
X169197001Y-96910001D02*
X153203001Y-96910001D01*
X169202001Y-96870001D02*
X153198001Y-96870001D01*
X169208001Y-96830001D02*
X153192001Y-96830001D01*
X169213001Y-96790001D02*
X153187001Y-96790001D01*
X169218001Y-96750001D02*
X153182001Y-96750001D01*
X169223001Y-96710001D02*
X153177001Y-96710001D01*
X169228001Y-96670001D02*
X153172001Y-96670001D01*
X169232001Y-96630001D02*
X153168001Y-96630001D01*
X169236001Y-96590001D02*
X153164001Y-96590001D01*
X169240001Y-96550001D02*
X153160001Y-96550001D01*
X169244001Y-96510001D02*
X153156001Y-96510001D01*
X169248001Y-96470001D02*
X153152001Y-96470001D01*
X169251001Y-96430001D02*
X153149001Y-96430001D01*
X169255001Y-96390001D02*
X153145001Y-96390001D01*
X169258001Y-96350001D02*
X153142001Y-96350001D01*
X169261001Y-96310001D02*
X153139001Y-96310001D01*
X169263001Y-96270001D02*
X153137001Y-96270001D01*
X169266001Y-96230001D02*
X153134001Y-96230001D01*
X169268001Y-96190001D02*
X153132001Y-96190001D01*
X169270001Y-96150001D02*
X153130001Y-96150001D01*
X169272001Y-96110001D02*
X153128001Y-96110001D01*
X169274001Y-96070001D02*
X153126001Y-96070001D01*
X169275001Y-96030001D02*
X153125001Y-96030001D01*
X169276001Y-95990001D02*
X153124001Y-95990001D01*
X169278001Y-95910001D02*
X153122001Y-95910001D01*
X169278001Y-95950001D02*
X153122001Y-95950001D01*
X169279001Y-95870001D02*
X153121001Y-95870001D01*
X169280001Y-95750001D02*
X153120001Y-95750001D01*
X169280001Y-95790001D02*
X153120001Y-95790001D01*
X169280001Y-95830001D02*
X153120001Y-95830001D01*
X169320001Y-95750001D02*
G75*
G02*
X153080001Y-95750001I-8120000J0D01*
G01*
X153080001Y-95750001D02*
G75*
G02*
X169320001Y-95750001I8120000J0D01*
G01*
%TO.C,C2*%
X138465001Y-113650749D02*
X138465001Y-114173253D01*
X139935001Y-113650749D02*
X139935001Y-114173253D01*
%TO.C,C4*%
X159956253Y-110037501D02*
X159433749Y-110037501D01*
X159956253Y-111507501D02*
X159433749Y-111507501D01*
%TO.C,R1*%
X140515001Y-113684937D02*
X140515001Y-114139065D01*
X141985001Y-113684937D02*
X141985001Y-114139065D01*
%TD*%
M02*
