M48
; DRILL file {KiCad 9.0.7+1} date 2026-03-01T17:30:14+0100
; FORMAT={-:-/ absolute / metric / decimal}
; #@! TF.CreationDate,2026-03-01T17:30:14+01:00
; #@! TF.GenerationSoftware,Kicad,Pcbnew,9.0.7+1
; #@! TF.FileFunction,Plated,1,2,PTH
FMAT,2
METRIC
; #@! TA.AperFunction,Plated,PTH,ComponentDrill
T1C0.500
; #@! TA.AperFunction,Plated,PTH,ComponentDrill
T2C0.800
; #@! TA.AperFunction,Plated,PTH,ComponentDrill
T3C0.950
; #@! TA.AperFunction,Plated,PTH,ComponentDrill
T4C1.200
; #@! TA.AperFunction,Plated,PTH,ComponentDrill
T5C1.300
; #@! TA.AperFunction,Plated,PTH,ComponentDrill
T6C2.000
%
G90
G05
T1
X130.25Y-88.882
X130.25Y-90.142
X131.0Y-87.852
X131.0Y-91.172
X132.2Y-87.462
X132.2Y-91.562
X133.53Y-87.462
X133.53Y-91.562
X134.87Y-87.462
X134.87Y-91.562
X136.2Y-87.462
X136.2Y-91.562
X137.4Y-87.852
X137.4Y-91.172
X138.15Y-88.882
X138.15Y-90.142
X140.25Y-88.882
X140.25Y-90.142
X141.0Y-87.852
X141.0Y-91.172
X142.2Y-87.462
X142.2Y-91.562
X143.53Y-87.462
X143.53Y-91.562
X144.87Y-87.462
X144.87Y-91.562
X146.2Y-87.462
X146.2Y-91.562
X147.4Y-87.852
X147.4Y-91.172
X148.15Y-88.882
X148.15Y-90.142
T2
X137.29Y-110.912
X139.2Y-110.912
X141.11Y-110.912
T3
X136.7Y-119.8
X139.2Y-119.8
X141.7Y-119.8
T4
X161.2Y-92.0
X161.2Y-99.5
T5
X157.155Y-117.523
X162.235Y-117.523
T6
G00X132.2Y-89.512
M15
G01X136.2Y-89.512
M16
G05
G00X142.2Y-89.512
M15
G01X146.2Y-89.512
M16
G05
M30
