M48
; DRILL file {KiCad 8.0.7} date 2025-02-07T22:03:55+0100
; FORMAT={-:-/ absolute / inch / decimal}
; #@! TF.CreationDate,2025-02-07T22:03:55+01:00
; #@! TF.GenerationSoftware,Kicad,Pcbnew,8.0.7
; #@! TF.FileFunction,Plated,1,2,PTH
FMAT,2
INCH
; #@! TA.AperFunction,Plated,PTH,ComponentDrill
T1C0.0315
; #@! TA.AperFunction,Plated,PTH,ComponentDrill
T2C0.0394
%
G90
G05
T1
X5.2349Y-3.61
X5.2349Y-4.0364
X5.2906Y-3.6657
X5.2906Y-3.9807
T2
X5.1925Y-3.8222
X5.2925Y-3.8222
X5.4402Y-3.7476
X5.4402Y-3.8941
X5.5898Y-3.5476
X5.5898Y-3.6476
X5.5898Y-3.7476
X5.5898Y-3.8941
X5.5898Y-3.9941
X5.5898Y-4.0941
X5.7382Y-3.5492
X5.7394Y-3.7476
X5.7394Y-3.8941
X5.889Y-3.5476
X5.889Y-3.6476
X5.889Y-3.7476
X5.889Y-3.8941
X5.889Y-3.9941
X5.889Y-4.0941
X6.0386Y-3.7476
X6.0386Y-3.8941
X6.1882Y-3.5476
X6.1882Y-3.6476
X6.1882Y-3.7476
X6.1882Y-3.8941
X6.1882Y-3.9941
X6.1882Y-4.0941
X6.3378Y-3.7476
X6.3378Y-3.8941
X6.4851Y-3.8941
X6.4851Y-3.9941
X6.4851Y-4.0941
X6.4874Y-3.5476
X6.4874Y-3.6476
X6.4874Y-3.7476
M30
