%TF.GenerationSoftware,KiCad,Pcbnew,8.0.7*%
%TF.CreationDate,2025-02-07T22:13:03+01:00*%
%TF.ProjectId,Teensy_board_04_prot_out,5465656e-7379-45f6-926f-6172645f3034,rev?*%
%TF.SameCoordinates,Original*%
%TF.FileFunction,Copper,L1,Top*%
%TF.FilePolarity,Positive*%
%FSLAX46Y46*%
G04 Gerber Fmt 4.6, Leading zero omitted, Abs format (unit mm)*
G04 Created by KiCad (PCBNEW 8.0.7) date 2025-02-07 22:13:03*
%MOMM*%
%LPD*%
G01*
G04 APERTURE LIST*
%TA.AperFunction,ComponentPad*%
%ADD10R,1.600000X1.600000*%
%TD*%
%TA.AperFunction,ComponentPad*%
%ADD11C,1.600000*%
%TD*%
%TA.AperFunction,ComponentPad*%
%ADD12R,1.700000X1.700000*%
%TD*%
%TA.AperFunction,ComponentPad*%
%ADD13O,1.700000X1.700000*%
%TD*%
%TA.AperFunction,ViaPad*%
%ADD14C,1.200000*%
%TD*%
%TA.AperFunction,Conductor*%
%ADD15C,0.600000*%
%TD*%
G04 APERTURE END LIST*
D10*
%TO.P,C52,1*%
%TO.N,+5V*%
X124025000Y-120500000D03*
D11*
%TO.P,C52,2*%
%TO.N,GND*%
X124025000Y-118500000D03*
%TD*%
D12*
%TO.P,J210,1,Pin_1*%
%TO.N,/Communication & pheripherals/OUT_Protection/IN_4*%
X155250000Y-111820000D03*
%TD*%
%TO.P,J207,1,Pin_1*%
%TO.N,/Communication & pheripherals/OUT_Protection/IN_1*%
X160850000Y-106620000D03*
%TD*%
%TO.P,J209,1,Pin_1*%
%TO.N,/Communication & pheripherals/OUT_Protection/IN_3*%
X173050000Y-111820000D03*
%TD*%
D10*
%TO.P,C54,1*%
%TO.N,+5V*%
X118450000Y-120500000D03*
D11*
%TO.P,C54,2*%
%TO.N,GND*%
X118450000Y-118500000D03*
%TD*%
D12*
%TO.P,J29,1,Pin_1*%
%TO.N,/Communication & pheripherals/OUT_Protection/OUT_5*%
X135825000Y-98970000D03*
D13*
%TO.P,J29,2,Pin_2*%
%TO.N,Net-(J29-Pin_2)*%
X135825000Y-101510000D03*
%TO.P,J29,3,Pin_3*%
%TO.N,GND*%
X135825000Y-104050000D03*
%TD*%
D12*
%TO.P,J96,1,Pin_1*%
%TO.N,+3.3V*%
X113700000Y-112000000D03*
D13*
%TO.P,J96,2,Pin_2*%
%TO.N,GND*%
X113700000Y-114540000D03*
%TD*%
D12*
%TO.P,J39,1,Pin_1*%
%TO.N,Net-(J39-Pin_1)*%
X135850000Y-110300000D03*
D13*
%TO.P,J39,2,Pin_2*%
%TO.N,Net-(J29-Pin_2)*%
X135850000Y-107760000D03*
%TD*%
D12*
%TO.P,J28,1,Pin_1*%
%TO.N,/Communication & pheripherals/OUT_Protection/OUT_2*%
X155250000Y-102495000D03*
D13*
%TO.P,J28,2,Pin_2*%
%TO.N,Net-(J28-Pin_2)*%
X155250000Y-105035000D03*
%TO.P,J28,3,Pin_3*%
%TO.N,GND*%
X155250000Y-107575000D03*
%TD*%
D10*
%TO.P,C47,1*%
%TO.N,+3.3V*%
X118450000Y-112500000D03*
D11*
%TO.P,C47,2*%
%TO.N,GND*%
X118450000Y-114500000D03*
%TD*%
D12*
%TO.P,J211,1,Pin_1*%
%TO.N,/Communication & pheripherals/OUT_Protection/IN_5*%
X123625000Y-108250000D03*
%TD*%
%TO.P,J236,1,Pin_1*%
%TO.N,GND*%
X135950000Y-116550000D03*
%TD*%
%TO.P,J102,1,Pin_1*%
%TO.N,+5V*%
X113700000Y-120750000D03*
D13*
%TO.P,J102,2,Pin_2*%
%TO.N,GND*%
X113700000Y-118210000D03*
%TD*%
D12*
%TO.P,J27,1,Pin_1*%
%TO.N,/Communication & pheripherals/OUT_Protection/OUT_4*%
X143050000Y-115575000D03*
D13*
%TO.P,J27,2,Pin_2*%
%TO.N,Net-(J27-Pin_2)*%
X143050000Y-113035000D03*
%TO.P,J27,3,Pin_3*%
%TO.N,GND*%
X143050000Y-110495000D03*
%TD*%
D12*
%TO.P,J208,1,Pin_1*%
%TO.N,/Communication & pheripherals/OUT_Protection/IN_2*%
X143050000Y-106620000D03*
%TD*%
%TO.P,J25,1,Pin_1*%
%TO.N,/Communication & pheripherals/OUT_Protection/OUT_1*%
X173050000Y-102420000D03*
D13*
%TO.P,J25,2,Pin_2*%
%TO.N,Net-(J25-Pin_2)*%
X173050000Y-104960000D03*
%TO.P,J25,3,Pin_3*%
%TO.N,GND*%
X173050000Y-107500000D03*
%TD*%
D12*
%TO.P,J26,1,Pin_1*%
%TO.N,/Communication & pheripherals/OUT_Protection/OUT_3*%
X160850000Y-115560000D03*
D13*
%TO.P,J26,2,Pin_2*%
%TO.N,Net-(J26-Pin_2)*%
X160850000Y-113020000D03*
%TO.P,J26,3,Pin_3*%
%TO.N,GND*%
X160850000Y-110480000D03*
%TD*%
D10*
%TO.P,C46,1*%
%TO.N,+3.3V*%
X124025000Y-112500000D03*
D11*
%TO.P,C46,2*%
%TO.N,GND*%
X124025000Y-114500000D03*
%TD*%
D14*
%TO.N,GND*%
X140050000Y-115900000D03*
X129200000Y-115900000D03*
X129200000Y-118500000D03*
X140050000Y-117500000D03*
%TO.N,+5V*%
X131350000Y-114050000D03*
X145750000Y-107750000D03*
X131375000Y-115750000D03*
X147350000Y-107650000D03*
X147350000Y-107650000D03*
%TO.N,+3.3V*%
X128450000Y-110750000D03*
X166050000Y-106700000D03*
X148250000Y-105950000D03*
X146350000Y-105950000D03*
X152050000Y-111700000D03*
X150450000Y-111700000D03*
X168250000Y-111700000D03*
%TD*%
D15*
%TO.N,GND*%
X129200000Y-118500000D02*
X130200000Y-119500000D01*
X131850000Y-118550000D02*
X137400000Y-118550000D01*
X138050000Y-119500000D02*
X140050000Y-117500000D01*
X129200000Y-115900000D02*
X131850000Y-118550000D01*
X130200000Y-119500000D02*
X138050000Y-119500000D01*
X137400000Y-118550000D02*
X140050000Y-115900000D01*
%TO.N,+5V*%
X134550000Y-114050000D02*
X137585811Y-114050000D01*
X145250000Y-108250000D02*
X141850000Y-108250000D01*
X142685811Y-108950000D02*
X144550000Y-108950000D01*
X141850000Y-108250000D02*
X137050000Y-113050000D01*
X137585811Y-114050000D02*
X142685811Y-108950000D01*
X145850000Y-107650000D02*
X145750000Y-107750000D01*
X145750000Y-107750000D02*
X145250000Y-108250000D01*
X132350000Y-113050000D02*
X131350000Y-114050000D01*
X137050000Y-113050000D02*
X132350000Y-113050000D01*
X131375000Y-115750000D02*
X132850000Y-115750000D01*
X144550000Y-108950000D02*
X145750000Y-107750000D01*
X132850000Y-115750000D02*
X134550000Y-114050000D01*
X147350000Y-107650000D02*
X145850000Y-107650000D01*
%TO.N,+3.3V*%
X157650000Y-108700000D02*
X164050000Y-108700000D01*
X152050000Y-111600000D02*
X154150000Y-109500000D01*
X146350000Y-105950000D02*
X146050000Y-105950000D01*
X164050000Y-108700000D02*
X166050000Y-106700000D01*
X148250000Y-106700000D02*
X150450000Y-108900000D01*
X129800000Y-112100000D02*
X128450000Y-110750000D01*
X168250000Y-111700000D02*
X168250000Y-108900000D01*
X139275000Y-109525000D02*
X136700000Y-112100000D01*
X146050000Y-105950000D02*
X144750000Y-104650000D01*
X154150000Y-109500000D02*
X156850000Y-109500000D01*
X139275000Y-106525000D02*
X139275000Y-109525000D01*
X150450000Y-108900000D02*
X150450000Y-111700000D01*
X156850000Y-109500000D02*
X157650000Y-108700000D01*
X144750000Y-104650000D02*
X141150000Y-104650000D01*
X168250000Y-108900000D02*
X166050000Y-106700000D01*
X141150000Y-104650000D02*
X139275000Y-106525000D01*
X136700000Y-112100000D02*
X129800000Y-112100000D01*
X148250000Y-105950000D02*
X148250000Y-106700000D01*
X152050000Y-111700000D02*
X152050000Y-111600000D01*
%TD*%
%TA.AperFunction,Conductor*%
%TO.N,GND*%
G36*
X129753864Y-118274288D02*
G01*
X129759470Y-118279185D01*
X130256103Y-119128602D01*
X130257321Y-119137472D01*
X130254276Y-119142779D01*
X129842779Y-119554276D01*
X129834506Y-119557703D01*
X129828602Y-119556103D01*
X129221550Y-119201175D01*
X128979185Y-119059470D01*
X128973772Y-119052336D01*
X128974273Y-119044910D01*
X129197437Y-118503791D01*
X129203759Y-118497451D01*
X129744910Y-118274274D01*
X129753864Y-118274288D01*
G37*
%TD.AperFunction*%
%TD*%
%TA.AperFunction,Conductor*%
%TO.N,GND*%
G36*
X139505090Y-117274274D02*
G01*
X140046207Y-117497437D01*
X140052548Y-117503759D01*
X140052562Y-117503792D01*
X140275725Y-118044909D01*
X140275711Y-118053864D01*
X140270814Y-118059470D01*
X139421398Y-118556103D01*
X139412527Y-118557321D01*
X139407220Y-118554276D01*
X138995723Y-118142779D01*
X138992296Y-118134506D01*
X138993894Y-118128605D01*
X139490530Y-117279183D01*
X139497663Y-117273772D01*
X139505090Y-117274274D01*
G37*
%TD.AperFunction*%
%TD*%
%TA.AperFunction,Conductor*%
%TO.N,GND*%
G36*
X129753864Y-115674288D02*
G01*
X129759470Y-115679185D01*
X130256103Y-116528602D01*
X130257321Y-116537472D01*
X130254276Y-116542779D01*
X129842779Y-116954276D01*
X129834506Y-116957703D01*
X129828602Y-116956103D01*
X129221550Y-116601175D01*
X128979185Y-116459470D01*
X128973772Y-116452336D01*
X128974273Y-116444910D01*
X129197437Y-115903791D01*
X129203759Y-115897451D01*
X129744910Y-115674274D01*
X129753864Y-115674288D01*
G37*
%TD.AperFunction*%
%TD*%
%TA.AperFunction,Conductor*%
%TO.N,GND*%
G36*
X139505090Y-115674274D02*
G01*
X140046207Y-115897437D01*
X140052548Y-115903759D01*
X140052562Y-115903792D01*
X140275725Y-116444909D01*
X140275711Y-116453864D01*
X140270814Y-116459470D01*
X139421398Y-116956103D01*
X139412527Y-116957321D01*
X139407220Y-116954276D01*
X138995723Y-116542779D01*
X138992296Y-116534506D01*
X138993894Y-116528605D01*
X139490530Y-115679183D01*
X139497663Y-115673772D01*
X139505090Y-115674274D01*
G37*
%TD.AperFunction*%
%TD*%
%TA.AperFunction,Conductor*%
%TO.N,+5V*%
G36*
X145334020Y-107334016D02*
G01*
X145334389Y-107334368D01*
X145693227Y-107692363D01*
X145749340Y-107748344D01*
X145751893Y-107752166D01*
X145974193Y-108291194D01*
X145974179Y-108300149D01*
X145967838Y-108306471D01*
X145965682Y-108307126D01*
X144771111Y-108547185D01*
X144762325Y-108545455D01*
X144757335Y-108538019D01*
X144757106Y-108535714D01*
X144757106Y-107954530D01*
X144760155Y-107946652D01*
X145317492Y-107334786D01*
X145325596Y-107330979D01*
X145334020Y-107334016D01*
G37*
%TD.AperFunction*%
%TD*%
%TA.AperFunction,Conductor*%
%TO.N,+5V*%
G36*
X131992779Y-112995723D02*
G01*
X132404276Y-113407220D01*
X132407703Y-113415493D01*
X132406103Y-113421398D01*
X131909470Y-114270814D01*
X131902336Y-114276227D01*
X131894909Y-114275725D01*
X131353792Y-114052562D01*
X131347451Y-114046240D01*
X131347437Y-114046207D01*
X131124274Y-113505090D01*
X131124288Y-113496135D01*
X131129183Y-113490530D01*
X131978604Y-112993895D01*
X131987472Y-112992678D01*
X131992779Y-112995723D01*
G37*
%TD.AperFunction*%
%TD*%
%TA.AperFunction,Conductor*%
%TO.N,+5V*%
G36*
X132566267Y-115447711D02*
G01*
X132573400Y-115453123D01*
X132575000Y-115459028D01*
X132575000Y-116040971D01*
X132571573Y-116049244D01*
X132566266Y-116052289D01*
X131614464Y-116301745D01*
X131605593Y-116300527D01*
X131600697Y-116294922D01*
X131375868Y-115754492D01*
X131375855Y-115745541D01*
X131600697Y-115205076D01*
X131607037Y-115198756D01*
X131614462Y-115198254D01*
X132566267Y-115447711D01*
G37*
%TD.AperFunction*%
%TD*%
%TA.AperFunction,Conductor*%
%TO.N,+5V*%
G36*
X145205090Y-107524274D02*
G01*
X145746207Y-107747437D01*
X145752548Y-107753759D01*
X145752562Y-107753792D01*
X145975725Y-108294909D01*
X145975711Y-108303864D01*
X145970814Y-108309470D01*
X145121398Y-108806103D01*
X145112527Y-108807321D01*
X145107220Y-108804276D01*
X144695723Y-108392779D01*
X144692296Y-108384506D01*
X144693894Y-108378605D01*
X145190530Y-107529183D01*
X145197663Y-107523772D01*
X145205090Y-107524274D01*
G37*
%TD.AperFunction*%
%TD*%
%TA.AperFunction,Conductor*%
%TO.N,+5V*%
G36*
X147119406Y-107099472D02*
G01*
X147124303Y-107105078D01*
X147349130Y-107645506D01*
X147349144Y-107654461D01*
X147349130Y-107654494D01*
X147124303Y-108194921D01*
X147117962Y-108201243D01*
X147110535Y-108201745D01*
X146158734Y-107952289D01*
X146151600Y-107946876D01*
X146150000Y-107940971D01*
X146150000Y-107359028D01*
X146153427Y-107350755D01*
X146158731Y-107347711D01*
X147110537Y-107098254D01*
X147119406Y-107099472D01*
G37*
%TD.AperFunction*%
%TD*%
%TA.AperFunction,Conductor*%
%TO.N,+5V*%
G36*
X147119406Y-107099472D02*
G01*
X147124303Y-107105078D01*
X147349130Y-107645506D01*
X147349144Y-107654461D01*
X147349130Y-107654494D01*
X147124303Y-108194921D01*
X147117962Y-108201243D01*
X147110535Y-108201745D01*
X146158734Y-107952289D01*
X146151600Y-107946876D01*
X146150000Y-107940971D01*
X146150000Y-107359028D01*
X146153427Y-107350755D01*
X146158731Y-107347711D01*
X147110537Y-107098254D01*
X147119406Y-107099472D01*
G37*
%TD.AperFunction*%
%TD*%
%TA.AperFunction,Conductor*%
%TO.N,+5V*%
G36*
X145763629Y-107152309D02*
G01*
X146920364Y-107348348D01*
X146927948Y-107353110D01*
X146930109Y-107359884D01*
X146930109Y-107941874D01*
X146926682Y-107950147D01*
X146922496Y-107952837D01*
X145990170Y-108300391D01*
X145981221Y-108300070D01*
X145975281Y-108293922D01*
X145946248Y-108224135D01*
X145749900Y-107752164D01*
X145749003Y-107747658D01*
X145749976Y-107163824D01*
X145753417Y-107155559D01*
X145761695Y-107152146D01*
X145763629Y-107152309D01*
G37*
%TD.AperFunction*%
%TD*%
%TA.AperFunction,Conductor*%
%TO.N,+3.3V*%
G36*
X152633276Y-110606112D02*
G01*
X153044788Y-111017624D01*
X153048215Y-111025897D01*
X153047010Y-111031068D01*
X152609165Y-111919791D01*
X152602435Y-111925698D01*
X152594209Y-111925436D01*
X152051462Y-111701601D01*
X152047636Y-111699044D01*
X151874546Y-111525377D01*
X151635726Y-111285759D01*
X151632314Y-111277483D01*
X151635755Y-111269215D01*
X151637457Y-111267812D01*
X152618453Y-110604691D01*
X152627224Y-110602898D01*
X152633276Y-110606112D01*
G37*
%TD.AperFunction*%
%TD*%
%TA.AperFunction,Conductor*%
%TO.N,+3.3V*%
G36*
X165505090Y-106474274D02*
G01*
X166046207Y-106697437D01*
X166052548Y-106703759D01*
X166052562Y-106703792D01*
X166275725Y-107244909D01*
X166275711Y-107253864D01*
X166270814Y-107259470D01*
X165421398Y-107756103D01*
X165412527Y-107757321D01*
X165407220Y-107754276D01*
X164995723Y-107342779D01*
X164992296Y-107334506D01*
X164993894Y-107328605D01*
X165490530Y-106479183D01*
X165497663Y-106473772D01*
X165505090Y-106474274D01*
G37*
%TD.AperFunction*%
%TD*%
%TA.AperFunction,Conductor*%
%TO.N,+3.3V*%
G36*
X129003864Y-110524288D02*
G01*
X129009470Y-110529185D01*
X129506103Y-111378602D01*
X129507321Y-111387472D01*
X129504276Y-111392779D01*
X129092779Y-111804276D01*
X129084506Y-111807703D01*
X129078602Y-111806103D01*
X128471550Y-111451175D01*
X128229185Y-111309470D01*
X128223772Y-111302336D01*
X128224273Y-111294910D01*
X128447437Y-110753791D01*
X128453759Y-110747451D01*
X128994910Y-110524274D01*
X129003864Y-110524288D01*
G37*
%TD.AperFunction*%
%TD*%
%TA.AperFunction,Conductor*%
%TO.N,+3.3V*%
G36*
X168549244Y-110503427D02*
G01*
X168552289Y-110508734D01*
X168801745Y-111460535D01*
X168800527Y-111469406D01*
X168794921Y-111474303D01*
X168254494Y-111699130D01*
X168245539Y-111699144D01*
X168245506Y-111699130D01*
X167705078Y-111474303D01*
X167698756Y-111467962D01*
X167698254Y-111460537D01*
X167947711Y-110508734D01*
X167953124Y-110501600D01*
X167959029Y-110500000D01*
X168540971Y-110500000D01*
X168549244Y-110503427D01*
G37*
%TD.AperFunction*%
%TD*%
%TA.AperFunction,Conductor*%
%TO.N,+3.3V*%
G36*
X145600287Y-105071443D02*
G01*
X146386823Y-105331845D01*
X146567679Y-105391722D01*
X146574456Y-105397575D01*
X146575109Y-105406506D01*
X146574818Y-105407290D01*
X146351601Y-105948537D01*
X146349044Y-105952363D01*
X145934660Y-106365369D01*
X145926382Y-106368782D01*
X145918114Y-106365341D01*
X145917526Y-106364705D01*
X145176243Y-105501668D01*
X145173452Y-105493160D01*
X145176844Y-105485773D01*
X145588340Y-105074277D01*
X145596612Y-105070851D01*
X145600287Y-105071443D01*
G37*
%TD.AperFunction*%
%TD*%
%TA.AperFunction,Conductor*%
%TO.N,+3.3V*%
G36*
X150749244Y-110503427D02*
G01*
X150752289Y-110508734D01*
X151001745Y-111460535D01*
X151000527Y-111469406D01*
X150994921Y-111474303D01*
X150454494Y-111699130D01*
X150445539Y-111699144D01*
X150445506Y-111699130D01*
X149905078Y-111474303D01*
X149898756Y-111467962D01*
X149898254Y-111460537D01*
X150147711Y-110508734D01*
X150153124Y-110501600D01*
X150159029Y-110500000D01*
X150740971Y-110500000D01*
X150749244Y-110503427D01*
G37*
%TD.AperFunction*%
%TD*%
%TA.AperFunction,Conductor*%
%TO.N,+3.3V*%
G36*
X166603864Y-106474288D02*
G01*
X166609470Y-106479185D01*
X167106103Y-107328602D01*
X167107321Y-107337472D01*
X167104276Y-107342779D01*
X166692779Y-107754276D01*
X166684506Y-107757703D01*
X166678602Y-107756103D01*
X166071550Y-107401175D01*
X165829185Y-107259470D01*
X165823772Y-107252336D01*
X165824273Y-107244910D01*
X166047437Y-106703791D01*
X166053759Y-106697451D01*
X166594910Y-106474274D01*
X166603864Y-106474288D01*
G37*
%TD.AperFunction*%
%TD*%
%TA.AperFunction,Conductor*%
%TO.N,+3.3V*%
G36*
X148837324Y-105949985D02*
G01*
X148845593Y-105953422D01*
X148849010Y-105961699D01*
X148848971Y-105962634D01*
X148780678Y-106801781D01*
X148777290Y-106809105D01*
X148366438Y-107219957D01*
X148358165Y-107223384D01*
X148349892Y-107219957D01*
X148348262Y-107217914D01*
X147703034Y-106191323D01*
X147701533Y-106182495D01*
X147706714Y-106175191D01*
X147708438Y-106174298D01*
X148247132Y-105950191D01*
X148251631Y-105949295D01*
X148837324Y-105949985D01*
G37*
%TD.AperFunction*%
%TD*%
M02*
