M48
; DRILL file {KiCad 8.0.7} date 2025-02-07T22:13:05+0100
; FORMAT={-:-/ absolute / inch / decimal}
; #@! TF.CreationDate,2025-02-07T22:13:05+01:00
; #@! TF.GenerationSoftware,Kicad,Pcbnew,8.0.7
; #@! TF.FileFunction,Plated,1,2,PTH
FMAT,2
INCH
; #@! TA.AperFunction,Plated,PTH,ViaDrill
T1C0.0197
; #@! TA.AperFunction,Plated,PTH,ComponentDrill
T2C0.0315
; #@! TA.AperFunction,Plated,PTH,ComponentDrill
T3C0.0394
%
G90
G05
T1
X5.0571Y-4.3602
X5.0866Y-4.563
X5.0866Y-4.6654
X5.1713Y-4.4902
X5.1722Y-4.5571
X5.5138Y-4.563
X5.5138Y-4.626
X5.7382Y-4.2421
X5.7618Y-4.1713
X5.8012Y-4.2382
X5.8012Y-4.2382
X5.8366Y-4.1713
X5.9232Y-4.3976
X5.9862Y-4.3976
X6.5374Y-4.2008
X6.624Y-4.3976
T2
X4.6634Y-4.4291
X4.6634Y-4.5079
X4.6634Y-4.6654
X4.6634Y-4.7441
X4.8829Y-4.4291
X4.8829Y-4.5079
X4.8829Y-4.6654
X4.8829Y-4.7441
T3
X4.4764Y-4.4094
X4.4764Y-4.5094
X4.4764Y-4.6539
X4.4764Y-4.7539
X4.8671Y-4.2618
X5.3474Y-3.8965
X5.3474Y-3.9965
X5.3474Y-4.0965
X5.3484Y-4.2425
X5.3484Y-4.3425
X5.3524Y-4.5886
X5.6319Y-4.1976
X5.6319Y-4.3502
X5.6319Y-4.4502
X5.6319Y-4.5502
X6.1122Y-4.0352
X6.1122Y-4.1352
X6.1122Y-4.2352
X6.1122Y-4.4024
X6.3327Y-4.1976
X6.3327Y-4.3496
X6.3327Y-4.4496
X6.3327Y-4.5496
X6.813Y-4.0323
X6.813Y-4.1323
X6.813Y-4.2323
X6.813Y-4.4024
M30
