%TF.GenerationSoftware,KiCad,Pcbnew,8.0.7*%
%TF.CreationDate,2025-01-25T13:59:45+01:00*%
%TF.ProjectId,ADC_Buffer,4144435f-4275-4666-9665-722e6b696361,rev?*%
%TF.SameCoordinates,Original*%
%TF.FileFunction,Copper,L2,Bot*%
%TF.FilePolarity,Positive*%
%FSLAX46Y46*%
G04 Gerber Fmt 4.6, Leading zero omitted, Abs format (unit mm)*
G04 Created by KiCad (PCBNEW 8.0.7) date 2025-01-25 13:59:45*
%MOMM*%
%LPD*%
G01*
G04 APERTURE LIST*
G04 Aperture macros list*
%AMRoundRect*
0 Rectangle with rounded corners*
0 $1 Rounding radius*
0 $2 $3 $4 $5 $6 $7 $8 $9 X,Y pos of 4 corners*
0 Add a 4 corners polygon primitive as box body*
4,1,4,$2,$3,$4,$5,$6,$7,$8,$9,$2,$3,0*
0 Add four circle primitives for the rounded corners*
1,1,$1+$1,$2,$3*
1,1,$1+$1,$4,$5*
1,1,$1+$1,$6,$7*
1,1,$1+$1,$8,$9*
0 Add four rect primitives between the rounded corners*
20,1,$1+$1,$2,$3,$4,$5,0*
20,1,$1+$1,$4,$5,$6,$7,0*
20,1,$1+$1,$6,$7,$8,$9,0*
20,1,$1+$1,$8,$9,$2,$3,0*%
G04 Aperture macros list end*
%TA.AperFunction,ComponentPad*%
%ADD10R,1.700000X1.700000*%
%TD*%
%TA.AperFunction,ComponentPad*%
%ADD11O,1.700000X1.700000*%
%TD*%
%TA.AperFunction,SMDPad,CuDef*%
%ADD12R,1.200000X1.200000*%
%TD*%
%TA.AperFunction,SMDPad,CuDef*%
%ADD13R,1.600000X1.500000*%
%TD*%
%TA.AperFunction,SMDPad,CuDef*%
%ADD14R,1.500000X1.600000*%
%TD*%
%TA.AperFunction,SMDPad,CuDef*%
%ADD15RoundRect,0.250000X-0.450000X0.350000X-0.450000X-0.350000X0.450000X-0.350000X0.450000X0.350000X0*%
%TD*%
%TA.AperFunction,SMDPad,CuDef*%
%ADD16RoundRect,0.250000X-0.350000X-0.450000X0.350000X-0.450000X0.350000X0.450000X-0.350000X0.450000X0*%
%TD*%
%TA.AperFunction,SMDPad,CuDef*%
%ADD17RoundRect,0.250000X0.450000X-0.350000X0.450000X0.350000X-0.450000X0.350000X-0.450000X-0.350000X0*%
%TD*%
%TA.AperFunction,SMDPad,CuDef*%
%ADD18R,1.528000X0.650000*%
%TD*%
%TA.AperFunction,SMDPad,CuDef*%
%ADD19RoundRect,0.250000X-0.337500X-0.475000X0.337500X-0.475000X0.337500X0.475000X-0.337500X0.475000X0*%
%TD*%
%TA.AperFunction,Conductor*%
%ADD20C,0.800000*%
%TD*%
%TA.AperFunction,Conductor*%
%ADD21C,0.600000*%
%TD*%
%TA.AperFunction,Conductor*%
%ADD22C,0.400000*%
%TD*%
%TA.AperFunction,Conductor*%
%ADD23C,0.200000*%
%TD*%
%TA.AperFunction,Conductor*%
%ADD24C,0.300000*%
%TD*%
G04 APERTURE END LIST*
D10*
%TO.P,J6,1,Pin_1*%
%TO.N,Net-(J6-Pin_1)*%
X131922000Y-84000000D03*
D11*
%TO.P,J6,2,Pin_2*%
%TO.N,GND*%
X129382000Y-84000000D03*
%TD*%
D10*
%TO.P,J5,1,Pin_1*%
%TO.N,Net-(IC1--IN)*%
X131922000Y-88000000D03*
D11*
%TO.P,J5,2,Pin_2*%
%TO.N,GND*%
X129382000Y-88000000D03*
%TD*%
D10*
%TO.P,J4,1,Pin_1*%
%TO.N,VCC*%
X131922000Y-92000000D03*
D11*
%TO.P,J4,2,Pin_2*%
%TO.N,GND*%
X129382000Y-92000000D03*
%TD*%
D12*
%TO.P,RV1,1,1*%
%TO.N,Net-(R5-Pad1)*%
X144922000Y-87250000D03*
D13*
%TO.P,RV1,2,2*%
%TO.N,GND*%
X145922000Y-90500000D03*
D12*
%TO.P,RV1,3,3*%
%TO.N,Net-(IC1-+IN)*%
X146922000Y-87250000D03*
%TD*%
%TO.P,RV2,1,1*%
%TO.N,Net-(R6-Pad1)*%
X142422000Y-82750000D03*
D14*
%TO.P,RV2,2,2*%
%TO.N,Net-(IC1-+IN)*%
X139172000Y-83750000D03*
D12*
%TO.P,RV2,3,3*%
%TO.N,Net-(J6-Pin_1)*%
X142422000Y-84750000D03*
%TD*%
D15*
%TO.P,R6,1*%
%TO.N,Net-(R6-Pad1)*%
X144922000Y-82750000D03*
%TO.P,R6,2*%
%TO.N,Net-(IC1-+IN)*%
X144922000Y-84750000D03*
%TD*%
%TO.P,R5,1*%
%TO.N,Net-(R5-Pad1)*%
X142422000Y-88750000D03*
%TO.P,R5,2*%
%TO.N,GND*%
X142422000Y-90750000D03*
%TD*%
D16*
%TO.P,R4,1*%
%TO.N,GND*%
X140422000Y-92750000D03*
%TO.P,R4,2*%
%TO.N,Net-(R3-Pad1)*%
X142422000Y-92750000D03*
%TD*%
%TO.P,R3,1*%
%TO.N,Net-(R3-Pad1)*%
X144172000Y-92750000D03*
%TO.P,R3,2*%
%TO.N,Net-(IC1-+IN)*%
X146172000Y-92750000D03*
%TD*%
D15*
%TO.P,R2,1*%
%TO.N,Net-(R1-Pad2)*%
X134922000Y-82500000D03*
%TO.P,R2,2*%
%TO.N,Net-(IC1-+IN)*%
X134922000Y-84500000D03*
%TD*%
D17*
%TO.P,R1,1*%
%TO.N,Net-(J6-Pin_1)*%
X136922000Y-84500000D03*
%TO.P,R1,2*%
%TO.N,Net-(R1-Pad2)*%
X136922000Y-82500000D03*
%TD*%
D18*
%TO.P,IC1,1,NC_1*%
%TO.N,unconnected-(IC1-NC_1-Pad1)*%
X140422000Y-87000000D03*
%TO.P,IC1,2,-IN*%
%TO.N,Net-(IC1--IN)*%
X140422000Y-88270000D03*
%TO.P,IC1,3,+IN*%
%TO.N,Net-(IC1-+IN)*%
X140422000Y-89540000D03*
%TO.P,IC1,4,V-*%
%TO.N,GND*%
X140422000Y-90810000D03*
%TO.P,IC1,5,NC_2*%
%TO.N,unconnected-(IC1-NC_2-Pad5)*%
X135000000Y-90810000D03*
%TO.P,IC1,6,OUTPUT*%
%TO.N,Net-(IC1--IN)*%
X135000000Y-89540000D03*
%TO.P,IC1,7,V+*%
%TO.N,VCC*%
X135000000Y-88270000D03*
%TO.P,IC1,8,NC_3*%
%TO.N,unconnected-(IC1-NC_3-Pad8)*%
X135000000Y-87000000D03*
%TD*%
D19*
%TO.P,C1,1*%
%TO.N,VCC*%
X136573500Y-92750000D03*
%TO.P,C1,2*%
%TO.N,GND*%
X138648500Y-92750000D03*
%TD*%
D20*
%TO.N,Net-(R5-Pad1)*%
X142422000Y-88750000D02*
X143422000Y-88750000D01*
X143422000Y-88750000D02*
X144922000Y-87250000D01*
%TO.N,GND*%
X138648500Y-92750000D02*
X138648500Y-93273500D01*
X138648500Y-93273500D02*
X137822000Y-94100000D01*
X137822000Y-94100000D02*
X130022000Y-94100000D01*
X130022000Y-94100000D02*
X129372000Y-93450000D01*
X129372000Y-93450000D02*
X129372000Y-92000000D01*
X129372000Y-92000000D02*
X129382000Y-91990000D01*
X129382000Y-91990000D02*
X129382000Y-88000000D01*
%TO.N,Net-(R3-Pad1)*%
X144172000Y-92750000D02*
X142422000Y-92750000D01*
%TO.N,Net-(IC1-+IN)*%
X146172000Y-92750000D02*
X146672000Y-92750000D01*
X146672000Y-92750000D02*
X147422000Y-92000000D01*
X147422000Y-92000000D02*
X147422000Y-89000000D01*
X147422000Y-89000000D02*
X146922000Y-88500000D01*
X146922000Y-88000000D02*
X146922000Y-88500000D01*
X146922000Y-87250000D02*
X146922000Y-88000000D01*
%TO.N,Net-(IC1--IN)*%
X131922000Y-88000000D02*
X131922000Y-89000000D01*
X131922000Y-89000000D02*
X132462000Y-89540000D01*
X135000000Y-89540000D02*
X132462000Y-89540000D01*
%TO.N,GND*%
X140422000Y-92750000D02*
X138648500Y-92750000D01*
D21*
%TO.N,Net-(R1-Pad2)*%
X134922000Y-82500000D02*
X136922000Y-82500000D01*
D22*
%TO.N,Net-(J6-Pin_1)*%
X136922000Y-84500000D02*
X135772000Y-85650000D01*
X135772000Y-85650000D02*
X133572000Y-85650000D01*
X133572000Y-85650000D02*
X131922000Y-84000000D01*
D23*
%TO.N,Net-(IC1-+IN)*%
X134922000Y-84500000D02*
X135822000Y-83600000D01*
X135822000Y-83600000D02*
X139022000Y-83600000D01*
X139022000Y-83600000D02*
X139172000Y-83750000D01*
D20*
%TO.N,Net-(J6-Pin_1)*%
X141922000Y-85250000D02*
X137672000Y-85250000D01*
X137672000Y-85250000D02*
X136922000Y-84500000D01*
X142422000Y-84750000D02*
X141922000Y-85250000D01*
D23*
%TO.N,Net-(IC1-+IN)*%
X139172000Y-83750000D02*
X138922000Y-84000000D01*
D24*
X139172000Y-83750000D02*
X143922000Y-83750000D01*
X143922000Y-83750000D02*
X144922000Y-84750000D01*
D20*
%TO.N,Net-(R6-Pad1)*%
X144922000Y-82750000D02*
X142422000Y-82750000D01*
%TO.N,Net-(IC1-+IN)*%
X146922000Y-87250000D02*
X146922000Y-85500000D01*
X146922000Y-85500000D02*
X146172000Y-84750000D01*
X146172000Y-84750000D02*
X144922000Y-84750000D01*
%TO.N,VCC*%
X136573500Y-92750000D02*
X132662000Y-92750000D01*
X132662000Y-92750000D02*
X131912000Y-92000000D01*
D22*
%TO.N,Net-(IC1--IN)*%
X131922000Y-86750000D02*
X131922000Y-88000000D01*
X136922000Y-86250000D02*
X132422000Y-86250000D01*
X131922000Y-86750000D02*
X132422000Y-86250000D01*
X140422000Y-88270000D02*
X138942000Y-88270000D01*
X138942000Y-88270000D02*
X136922000Y-86250000D01*
%TO.N,Net-(IC1-+IN)*%
X146922000Y-88000000D02*
X146922000Y-88250000D01*
X146922000Y-88500000D02*
X146672000Y-88500000D01*
X146672000Y-88500000D02*
X145672000Y-88500000D01*
X146922000Y-88250000D02*
X146672000Y-88500000D01*
X144422000Y-89750000D02*
X144672000Y-89500000D01*
X145672000Y-88500000D02*
X144672000Y-89500000D01*
X143672000Y-89750000D02*
X144422000Y-89750000D01*
D23*
X142172000Y-89750000D02*
X143672000Y-89750000D01*
X140422000Y-89540000D02*
X140632000Y-89750000D01*
X140632000Y-89750000D02*
X142172000Y-89750000D01*
D20*
%TO.N,VCC*%
X135000000Y-88270000D02*
X136192000Y-88270000D01*
X136192000Y-88270000D02*
X136573500Y-88651500D01*
X136573500Y-88651500D02*
X136573500Y-92750000D01*
%TO.N,GND*%
X142422000Y-90750000D02*
X145672000Y-90750000D01*
X145672000Y-90750000D02*
X145922000Y-90500000D01*
X140422000Y-90810000D02*
X142362000Y-90810000D01*
X142362000Y-90810000D02*
X142422000Y-90750000D01*
X140422000Y-92750000D02*
X140422000Y-90810000D01*
X129382000Y-84000000D02*
X129382000Y-88000000D01*
%TD*%
%TA.AperFunction,Conductor*%
%TO.N,Net-(R5-Pad1)*%
G36*
X142974183Y-88170489D02*
G01*
X143347977Y-88254283D01*
X143353691Y-88257427D01*
X143905513Y-88809249D01*
X143908940Y-88817522D01*
X143905513Y-88825795D01*
X143902488Y-88827979D01*
X143075768Y-89242887D01*
X143066837Y-89243535D01*
X143063413Y-89241724D01*
X142431579Y-88758572D01*
X142427089Y-88750824D01*
X142429392Y-88742171D01*
X142430146Y-88741281D01*
X142963100Y-88173895D01*
X142971260Y-88170213D01*
X142974183Y-88170489D01*
G37*
%TD.AperFunction*%
%TD*%
%TA.AperFunction,Conductor*%
%TO.N,Net-(R5-Pad1)*%
G36*
X144330582Y-87005012D02*
G01*
X144828721Y-87210519D01*
X144918208Y-87247437D01*
X144924549Y-87253760D01*
X144924562Y-87253791D01*
X145166986Y-87841415D01*
X145166973Y-87850370D01*
X145162970Y-87855398D01*
X144188643Y-88551345D01*
X144179920Y-88553365D01*
X144173570Y-88550097D01*
X143621902Y-87998429D01*
X143618475Y-87990156D01*
X143620653Y-87983357D01*
X144316603Y-87009027D01*
X144324199Y-87004288D01*
X144330582Y-87005012D01*
G37*
%TD.AperFunction*%
%TD*%
%TA.AperFunction,Conductor*%
%TO.N,GND*%
G36*
X138643281Y-92747807D02*
G01*
X138650471Y-92753142D01*
X138651374Y-92755006D01*
X138921966Y-93468438D01*
X138921695Y-93477389D01*
X138919837Y-93480285D01*
X138322652Y-94163842D01*
X138314628Y-94167817D01*
X138306143Y-94164955D01*
X138305568Y-94164417D01*
X137753728Y-93612577D01*
X137750301Y-93604304D01*
X137750826Y-93600839D01*
X138057718Y-92612376D01*
X138063443Y-92605493D01*
X138071736Y-92604498D01*
X138643281Y-92747807D01*
G37*
%TD.AperFunction*%
%TD*%
%TA.AperFunction,Conductor*%
%TO.N,GND*%
G36*
X130105953Y-92299839D02*
G01*
X130157253Y-92321115D01*
X130163582Y-92327449D01*
X130163877Y-92335602D01*
X129831084Y-93339895D01*
X129828251Y-93344488D01*
X129276822Y-93895917D01*
X129268549Y-93899344D01*
X129260276Y-93895917D01*
X129257769Y-93892192D01*
X129025870Y-93342528D01*
X128601273Y-92336117D01*
X128601216Y-92327165D01*
X128607506Y-92320792D01*
X129376811Y-92001154D01*
X129385760Y-92001146D01*
X130105953Y-92299839D01*
G37*
%TD.AperFunction*%
%TD*%
%TA.AperFunction,Conductor*%
%TO.N,GND*%
G36*
X129781401Y-90303427D02*
G01*
X129784394Y-90308542D01*
X130164499Y-91664734D01*
X130163432Y-91673625D01*
X130157722Y-91678697D01*
X129386489Y-91999134D01*
X129377534Y-91999143D01*
X129377511Y-91999134D01*
X128606277Y-91678697D01*
X128599952Y-91672358D01*
X128599500Y-91664735D01*
X128979606Y-90308542D01*
X128985139Y-90301501D01*
X128990872Y-90300000D01*
X129773128Y-90300000D01*
X129781401Y-90303427D01*
G37*
%TD.AperFunction*%
%TD*%
%TA.AperFunction,Conductor*%
%TO.N,GND*%
G36*
X129386484Y-88000863D02*
G01*
X130157722Y-88321302D01*
X130164047Y-88327641D01*
X130164499Y-88335265D01*
X129784394Y-89691458D01*
X129778861Y-89698499D01*
X129773128Y-89700000D01*
X128990872Y-89700000D01*
X128982599Y-89696573D01*
X128979606Y-89691458D01*
X128599500Y-88335265D01*
X128600567Y-88326374D01*
X128606275Y-88321303D01*
X129377511Y-88000864D01*
X129386466Y-88000856D01*
X129386484Y-88000863D01*
G37*
%TD.AperFunction*%
%TD*%
%TA.AperFunction,Conductor*%
%TO.N,Net-(R3-Pad1)*%
G36*
X143629157Y-92153024D02*
G01*
X143632315Y-92155480D01*
X144165840Y-92742128D01*
X144168871Y-92750554D01*
X144165840Y-92757872D01*
X143632315Y-93344519D01*
X143624213Y-93348334D01*
X143620244Y-93347837D01*
X142980285Y-93152528D01*
X142973372Y-93146836D01*
X142972000Y-93141338D01*
X142972000Y-92358661D01*
X142975427Y-92350388D01*
X142980283Y-92347472D01*
X143620246Y-92152162D01*
X143629157Y-92153024D01*
G37*
%TD.AperFunction*%
%TD*%
%TA.AperFunction,Conductor*%
%TO.N,Net-(R3-Pad1)*%
G36*
X142973751Y-92152161D02*
G01*
X143613715Y-92347471D01*
X143620628Y-92353163D01*
X143622000Y-92358661D01*
X143622000Y-93141338D01*
X143618573Y-93149611D01*
X143613715Y-93152528D01*
X142973755Y-93347837D01*
X142964842Y-93346975D01*
X142961684Y-93344519D01*
X142784425Y-93149611D01*
X142428158Y-92757871D01*
X142425128Y-92749446D01*
X142428159Y-92742128D01*
X142961686Y-92155478D01*
X142969786Y-92151665D01*
X142973751Y-92152161D01*
G37*
%TD.AperFunction*%
%TD*%
%TA.AperFunction,Conductor*%
%TO.N,Net-(IC1-+IN)*%
G36*
X146916254Y-91945922D02*
G01*
X146917620Y-91947093D01*
X147470190Y-92499663D01*
X147473617Y-92507936D01*
X147470190Y-92516209D01*
X147469549Y-92516804D01*
X146778454Y-93111601D01*
X146769948Y-93114400D01*
X146764729Y-93112721D01*
X146177396Y-92754430D01*
X146172118Y-92747196D01*
X146171821Y-92743578D01*
X146222514Y-92059272D01*
X146226543Y-92051274D01*
X146232386Y-92048574D01*
X146907554Y-91943804D01*
X146916254Y-91945922D01*
G37*
%TD.AperFunction*%
%TD*%
%TA.AperFunction,Conductor*%
%TO.N,Net-(IC1-+IN)*%
G36*
X146930264Y-87257278D02*
G01*
X147288974Y-87616586D01*
X147516895Y-87844887D01*
X147520315Y-87853163D01*
X147519715Y-87856853D01*
X147324667Y-88442000D01*
X147318799Y-88448765D01*
X147313567Y-88450000D01*
X146530433Y-88450000D01*
X146522160Y-88446573D01*
X146519333Y-88442000D01*
X146324284Y-87856853D01*
X146324919Y-87847921D01*
X146327104Y-87844887D01*
X146913721Y-87257292D01*
X146921990Y-87253859D01*
X146930264Y-87257278D01*
G37*
%TD.AperFunction*%
%TD*%
%TA.AperFunction,Conductor*%
%TO.N,Net-(IC1--IN)*%
G36*
X131929585Y-88007797D02*
G01*
X131931014Y-88009014D01*
X132767575Y-88845575D01*
X132771002Y-88853848D01*
X132770776Y-88856135D01*
X132700510Y-89208653D01*
X132697309Y-89214639D01*
X132142897Y-89769051D01*
X132134624Y-89772478D01*
X132126351Y-89769051D01*
X132125887Y-89768560D01*
X131314005Y-88857010D01*
X131311063Y-88848554D01*
X131313252Y-88842387D01*
X131913252Y-88010442D01*
X131920870Y-88005738D01*
X131929585Y-88007797D01*
G37*
%TD.AperFunction*%
%TD*%
%TA.AperFunction,Conductor*%
%TO.N,GND*%
G36*
X139212630Y-92164595D02*
G01*
X139815198Y-92347480D01*
X139822119Y-92353162D01*
X139823500Y-92358676D01*
X139823500Y-93141323D01*
X139820073Y-93149596D01*
X139815198Y-93152519D01*
X139212632Y-93335403D01*
X139203720Y-93334526D01*
X139200752Y-93332266D01*
X138655157Y-92758059D01*
X138651943Y-92749701D01*
X138655157Y-92741941D01*
X139019324Y-92358676D01*
X139200753Y-92167732D01*
X139208935Y-92164096D01*
X139212630Y-92164595D01*
G37*
%TD.AperFunction*%
%TD*%
%TA.AperFunction,Conductor*%
%TO.N,GND*%
G36*
X139879157Y-92153024D02*
G01*
X139882315Y-92155480D01*
X140415840Y-92742128D01*
X140418871Y-92750554D01*
X140415840Y-92757872D01*
X139882315Y-93344519D01*
X139874213Y-93348334D01*
X139870244Y-93347837D01*
X139230285Y-93152528D01*
X139223372Y-93146836D01*
X139222000Y-93141338D01*
X139222000Y-92358661D01*
X139225427Y-92350388D01*
X139230283Y-92347472D01*
X139870246Y-92152162D01*
X139879157Y-92153024D01*
G37*
%TD.AperFunction*%
%TD*%
%TA.AperFunction,Conductor*%
%TO.N,Net-(R1-Pad2)*%
G36*
X135474951Y-81921741D02*
G01*
X136214384Y-82197163D01*
X136220941Y-82203262D01*
X136222000Y-82208127D01*
X136222000Y-82791872D01*
X136218573Y-82800145D01*
X136214384Y-82802836D01*
X135474952Y-83078257D01*
X135466003Y-83077934D01*
X135462347Y-83075311D01*
X135148891Y-82742190D01*
X134928543Y-82508016D01*
X134925370Y-82499644D01*
X134928543Y-82491983D01*
X135462347Y-81924687D01*
X135470512Y-81921011D01*
X135474951Y-81921741D01*
G37*
%TD.AperFunction*%
%TD*%
%TA.AperFunction,Conductor*%
%TO.N,Net-(R1-Pad2)*%
G36*
X136377996Y-81922065D02*
G01*
X136381652Y-81924688D01*
X136915455Y-82491982D01*
X136918629Y-82500356D01*
X136915455Y-82508018D01*
X136381652Y-83075311D01*
X136373487Y-83078988D01*
X136369047Y-83078257D01*
X135629616Y-82802836D01*
X135623059Y-82796737D01*
X135622000Y-82791872D01*
X135622000Y-82208127D01*
X135625427Y-82199854D01*
X135629615Y-82197163D01*
X136369047Y-81921742D01*
X136377996Y-81922065D01*
G37*
%TD.AperFunction*%
%TD*%
%TA.AperFunction,Conductor*%
%TO.N,Net-(J6-Pin_1)*%
G36*
X136916662Y-84498017D02*
G01*
X136924049Y-84503078D01*
X136925062Y-84505003D01*
X137166326Y-85089816D01*
X137166313Y-85098771D01*
X137160615Y-85104806D01*
X136079817Y-85628883D01*
X136070878Y-85629409D01*
X136066439Y-85626628D01*
X135795109Y-85355298D01*
X135791682Y-85347025D01*
X135792645Y-85342377D01*
X136218201Y-84360238D01*
X136224634Y-84354012D01*
X136231348Y-84353444D01*
X136916662Y-84498017D01*
G37*
%TD.AperFunction*%
%TD*%
%TA.AperFunction,Conductor*%
%TO.N,Net-(J6-Pin_1)*%
G36*
X132770444Y-83652268D02*
G01*
X132776638Y-83658300D01*
X133511177Y-85302266D01*
X133511423Y-85311218D01*
X133508768Y-85315312D01*
X133237312Y-85586768D01*
X133229039Y-85590195D01*
X133224267Y-85589177D01*
X132611331Y-85315312D01*
X131580301Y-84854638D01*
X131574146Y-84848135D01*
X131574260Y-84839489D01*
X131919438Y-84003782D01*
X131925761Y-83997447D01*
X132761490Y-83652259D01*
X132770444Y-83652268D01*
G37*
%TD.AperFunction*%
%TD*%
%TA.AperFunction,Conductor*%
%TO.N,Net-(IC1-+IN)*%
G36*
X135944498Y-83505614D02*
G01*
X135950276Y-83512456D01*
X135950828Y-83516009D01*
X135950828Y-83698096D01*
X135950225Y-83701804D01*
X135625472Y-84673818D01*
X135619600Y-84680578D01*
X135611401Y-84681426D01*
X134926853Y-84501538D01*
X134919723Y-84496121D01*
X134918873Y-84494334D01*
X134700090Y-83911522D01*
X134700391Y-83902572D01*
X134706932Y-83896456D01*
X134707462Y-83896272D01*
X135935575Y-83504861D01*
X135944498Y-83505614D01*
G37*
%TD.AperFunction*%
%TD*%
%TA.AperFunction,Conductor*%
%TO.N,Net-(IC1-+IN)*%
G36*
X138429092Y-82957555D02*
G01*
X139129297Y-83703446D01*
X139164838Y-83741305D01*
X139168002Y-83749682D01*
X139164316Y-83757843D01*
X139164153Y-83757994D01*
X138430134Y-84421333D01*
X138421698Y-84424337D01*
X138414136Y-84421044D01*
X137675547Y-83703446D01*
X137672001Y-83695223D01*
X137672000Y-83695054D01*
X137672000Y-83505928D01*
X137675427Y-83497655D01*
X137676773Y-83496499D01*
X138413643Y-82956127D01*
X138422341Y-82953999D01*
X138429092Y-82957555D01*
G37*
%TD.AperFunction*%
%TD*%
%TA.AperFunction,Conductor*%
%TO.N,Net-(J6-Pin_1)*%
G36*
X141829261Y-84355117D02*
G01*
X142418957Y-84747311D01*
X142423948Y-84754746D01*
X142423951Y-84754760D01*
X142540672Y-85338822D01*
X142538933Y-85347606D01*
X142531790Y-85352524D01*
X141236291Y-85646754D01*
X141227465Y-85645245D01*
X141222291Y-85637936D01*
X141222000Y-85635345D01*
X141222000Y-84855482D01*
X141225427Y-84847209D01*
X141226212Y-84846492D01*
X141336354Y-84754760D01*
X141815298Y-84355869D01*
X141823847Y-84353208D01*
X141829261Y-84355117D01*
G37*
%TD.AperFunction*%
%TD*%
%TA.AperFunction,Conductor*%
%TO.N,Net-(J6-Pin_1)*%
G36*
X137622298Y-84257106D02*
G01*
X137627022Y-84261241D01*
X138011045Y-84847078D01*
X138012960Y-84853492D01*
X138012960Y-85632228D01*
X138009533Y-85640501D01*
X138001260Y-85643928D01*
X137996635Y-85642975D01*
X136744463Y-85104160D01*
X136738218Y-85097742D01*
X136737914Y-85089946D01*
X136919256Y-84505617D01*
X136924981Y-84498732D01*
X136926537Y-84498053D01*
X137613357Y-84256617D01*
X137622298Y-84257106D01*
G37*
%TD.AperFunction*%
%TD*%
%TA.AperFunction,Conductor*%
%TO.N,Net-(IC1-+IN)*%
G36*
X139930170Y-83006536D02*
G01*
X140667609Y-83596487D01*
X140671928Y-83604331D01*
X140672000Y-83605623D01*
X140672000Y-83894376D01*
X140668573Y-83902649D01*
X140667609Y-83903512D01*
X139930172Y-84493462D01*
X139921571Y-84495954D01*
X139914595Y-84492605D01*
X139323852Y-83902649D01*
X139179289Y-83758278D01*
X139175858Y-83750008D01*
X139179279Y-83741732D01*
X139179290Y-83741721D01*
X139914596Y-83007393D01*
X139922871Y-83003973D01*
X139930170Y-83006536D01*
G37*
%TD.AperFunction*%
%TD*%
%TA.AperFunction,Conductor*%
%TO.N,Net-(IC1-+IN)*%
G36*
X144044289Y-83656048D02*
G01*
X145160047Y-84145403D01*
X145166246Y-84151863D01*
X145166163Y-84160579D01*
X144925062Y-84744996D01*
X144918739Y-84751337D01*
X144916661Y-84751982D01*
X144231758Y-84896469D01*
X144222956Y-84894824D01*
X144218422Y-84889218D01*
X144163002Y-84744996D01*
X143827565Y-83872065D01*
X143827796Y-83863114D01*
X143830210Y-83859599D01*
X144031319Y-83658490D01*
X144039591Y-83655064D01*
X144044289Y-83656048D01*
G37*
%TD.AperFunction*%
%TD*%
%TA.AperFunction,Conductor*%
%TO.N,Net-(R6-Pad1)*%
G36*
X144378573Y-82172015D02*
G01*
X144380979Y-82173972D01*
X144915455Y-82741982D01*
X144918629Y-82750356D01*
X144915455Y-82758018D01*
X144380979Y-83326027D01*
X144372814Y-83329704D01*
X144369729Y-83329386D01*
X143630971Y-83152152D01*
X143623725Y-83146890D01*
X143622000Y-83140775D01*
X143622000Y-82359224D01*
X143625427Y-82350951D01*
X143630968Y-82347848D01*
X144369729Y-82170613D01*
X144378573Y-82172015D01*
G37*
%TD.AperFunction*%
%TD*%
%TA.AperFunction,Conductor*%
%TO.N,Net-(R6-Pad1)*%
G36*
X143028851Y-82152283D02*
G01*
X143614000Y-82347333D01*
X143620765Y-82353201D01*
X143622000Y-82358433D01*
X143622000Y-83141566D01*
X143618573Y-83149839D01*
X143614000Y-83152666D01*
X143028853Y-83347715D01*
X143019921Y-83347080D01*
X143016887Y-83344895D01*
X142788586Y-83116974D01*
X142429292Y-82758278D01*
X142425859Y-82750010D01*
X142429278Y-82741735D01*
X143016887Y-82155103D01*
X143025163Y-82151684D01*
X143028851Y-82152283D01*
G37*
%TD.AperFunction*%
%TD*%
%TA.AperFunction,Conductor*%
%TO.N,Net-(IC1-+IN)*%
G36*
X147321840Y-86053427D02*
G01*
X147324667Y-86058000D01*
X147519715Y-86643146D01*
X147519080Y-86652078D01*
X147516895Y-86655112D01*
X146930280Y-87242706D01*
X146922010Y-87246140D01*
X146913734Y-87242720D01*
X146913720Y-87242706D01*
X146327104Y-86655112D01*
X146323684Y-86646836D01*
X146324283Y-86643149D01*
X146519333Y-86057999D01*
X146525201Y-86051235D01*
X146530433Y-86050000D01*
X147313567Y-86050000D01*
X147321840Y-86053427D01*
G37*
%TD.AperFunction*%
%TD*%
%TA.AperFunction,Conductor*%
%TO.N,Net-(IC1-+IN)*%
G36*
X145474725Y-84171330D02*
G01*
X146472069Y-84496600D01*
X146478872Y-84502423D01*
X146479564Y-84511351D01*
X146476714Y-84515996D01*
X145925610Y-85067100D01*
X145923171Y-85068969D01*
X145475695Y-85326354D01*
X145466815Y-85327508D01*
X145461333Y-85324222D01*
X144928826Y-84757312D01*
X144925660Y-84748936D01*
X144928835Y-84741283D01*
X145462584Y-84174431D01*
X145470748Y-84170759D01*
X145474725Y-84171330D01*
G37*
%TD.AperFunction*%
%TD*%
%TA.AperFunction,Conductor*%
%TO.N,VCC*%
G36*
X132778703Y-91453391D02*
G01*
X133618823Y-92346622D01*
X133622000Y-92354638D01*
X133622000Y-93136284D01*
X133618573Y-93144557D01*
X133610300Y-93147984D01*
X133608456Y-93147838D01*
X131754066Y-92851937D01*
X131746437Y-92847249D01*
X131744356Y-92838539D01*
X131744461Y-92837971D01*
X131920000Y-92004746D01*
X131925057Y-91997359D01*
X132763799Y-91451599D01*
X132772602Y-91449960D01*
X132778703Y-91453391D01*
G37*
%TD.AperFunction*%
%TD*%
%TA.AperFunction,Conductor*%
%TO.N,VCC*%
G36*
X136018279Y-92165473D02*
G01*
X136021247Y-92167733D01*
X136566842Y-92741941D01*
X136570056Y-92750299D01*
X136566842Y-92758059D01*
X136021247Y-93332266D01*
X136013064Y-93335903D01*
X136009367Y-93335403D01*
X135406802Y-93152519D01*
X135399881Y-93146837D01*
X135398500Y-93141323D01*
X135398500Y-92358676D01*
X135401927Y-92350403D01*
X135406801Y-92347480D01*
X136009368Y-92164596D01*
X136018279Y-92165473D01*
G37*
%TD.AperFunction*%
%TD*%
%TA.AperFunction,Conductor*%
%TO.N,Net-(IC1--IN)*%
G36*
X132106990Y-86298595D02*
G01*
X132380829Y-86572434D01*
X132382245Y-86574149D01*
X132766585Y-87141999D01*
X132768385Y-87150771D01*
X132765169Y-87156830D01*
X131930444Y-87991555D01*
X131922171Y-87994982D01*
X131913898Y-87991555D01*
X131913108Y-87990681D01*
X131233567Y-87158252D01*
X131230989Y-87149676D01*
X131234414Y-87142523D01*
X132090504Y-86298535D01*
X132098800Y-86295168D01*
X132106990Y-86298595D01*
G37*
%TD.AperFunction*%
%TD*%
%TA.AperFunction,Conductor*%
%TO.N,Net-(IC1--IN)*%
G36*
X139662354Y-87946849D02*
G01*
X140223174Y-88185106D01*
X140397651Y-88259231D01*
X140403925Y-88265620D01*
X140403845Y-88274575D01*
X140397651Y-88280769D01*
X139662356Y-88593149D01*
X139653581Y-88593300D01*
X139340500Y-88472884D01*
X139334008Y-88466716D01*
X139333000Y-88461964D01*
X139333000Y-88078035D01*
X139336427Y-88069762D01*
X139340498Y-88067115D01*
X139653582Y-87946699D01*
X139662354Y-87946849D01*
G37*
%TD.AperFunction*%
%TD*%
%TA.AperFunction,Conductor*%
%TO.N,Net-(IC1-+IN)*%
G36*
X141188847Y-89359249D02*
G01*
X141190576Y-89360542D01*
X141507143Y-89646516D01*
X141510985Y-89654604D01*
X141511000Y-89655197D01*
X141511000Y-89838827D01*
X141507573Y-89847100D01*
X141499839Y-89850515D01*
X141188661Y-89864877D01*
X141183547Y-89863958D01*
X141151904Y-89850515D01*
X140692156Y-89655197D01*
X140453644Y-89553868D01*
X140447370Y-89547479D01*
X140447450Y-89538524D01*
X140453839Y-89532250D01*
X140455476Y-89531726D01*
X141180003Y-89357847D01*
X141188847Y-89359249D01*
G37*
%TD.AperFunction*%
%TD*%
%TA.AperFunction,Conductor*%
%TO.N,VCC*%
G36*
X136972433Y-91440927D02*
G01*
X136975569Y-91446609D01*
X137140544Y-92173052D01*
X137139035Y-92181879D01*
X137137431Y-92183893D01*
X136581796Y-92742657D01*
X136573533Y-92746107D01*
X136565250Y-92742703D01*
X136565204Y-92742657D01*
X136009568Y-92183893D01*
X136006164Y-92175610D01*
X136006454Y-92173056D01*
X136171431Y-91446608D01*
X136176604Y-91439300D01*
X136182840Y-91437500D01*
X136964160Y-91437500D01*
X136972433Y-91440927D01*
G37*
%TD.AperFunction*%
%TD*%
%TA.AperFunction,Conductor*%
%TO.N,GND*%
G36*
X145128538Y-89874576D02*
G01*
X145443051Y-90122170D01*
X145912297Y-90491575D01*
X145916678Y-90499385D01*
X145914253Y-90508005D01*
X145913057Y-90509309D01*
X145126046Y-91246211D01*
X145117664Y-91249364D01*
X145116503Y-91249267D01*
X144382154Y-91151353D01*
X144374406Y-91146863D01*
X144372000Y-91139756D01*
X144372000Y-90356398D01*
X144375427Y-90348125D01*
X144377384Y-90346549D01*
X145114993Y-89873918D01*
X145123805Y-89872341D01*
X145128538Y-89874576D01*
G37*
%TD.AperFunction*%
%TD*%
%TA.AperFunction,Conductor*%
%TO.N,GND*%
G36*
X142974268Y-90170612D02*
G01*
X143713030Y-90347848D01*
X143720275Y-90353109D01*
X143722000Y-90359224D01*
X143722000Y-91140775D01*
X143718573Y-91149048D01*
X143713029Y-91152152D01*
X142974270Y-91329386D01*
X142965426Y-91327984D01*
X142963020Y-91326027D01*
X142788705Y-91140775D01*
X142428543Y-90758016D01*
X142425370Y-90749644D01*
X142428543Y-90741983D01*
X142963021Y-90173971D01*
X142971185Y-90170295D01*
X142974268Y-90170612D01*
G37*
%TD.AperFunction*%
%TD*%
%TA.AperFunction,Conductor*%
%TO.N,GND*%
G36*
X141869434Y-90177941D02*
G01*
X141872445Y-90180189D01*
X142416062Y-90742820D01*
X142419346Y-90751151D01*
X142417001Y-90757980D01*
X141976259Y-91344333D01*
X141968548Y-91348887D01*
X141965005Y-91348847D01*
X141131799Y-91211613D01*
X141124192Y-91206888D01*
X141122000Y-91200069D01*
X141122000Y-90418579D01*
X141125427Y-90410306D01*
X141130180Y-90407420D01*
X141860513Y-90177160D01*
X141869434Y-90177941D01*
G37*
%TD.AperFunction*%
%TD*%
%TA.AperFunction,Conductor*%
%TO.N,GND*%
G36*
X140821048Y-91453427D02*
G01*
X140824152Y-91458971D01*
X141001386Y-92197729D01*
X140999984Y-92206573D01*
X140998027Y-92208979D01*
X140430018Y-92743455D01*
X140421644Y-92746629D01*
X140413982Y-92743455D01*
X139845972Y-92208979D01*
X139842295Y-92200814D01*
X139842613Y-92197729D01*
X140019848Y-91458971D01*
X140025110Y-91451725D01*
X140031225Y-91450000D01*
X140812775Y-91450000D01*
X140821048Y-91453427D01*
G37*
%TD.AperFunction*%
%TD*%
%TA.AperFunction,Conductor*%
%TO.N,GND*%
G36*
X129386484Y-84000863D02*
G01*
X130157722Y-84321302D01*
X130164047Y-84327641D01*
X130164499Y-84335265D01*
X129784394Y-85691458D01*
X129778861Y-85698499D01*
X129773128Y-85700000D01*
X128990872Y-85700000D01*
X128982599Y-85696573D01*
X128979606Y-85691458D01*
X128599500Y-84335265D01*
X128600567Y-84326374D01*
X128606275Y-84321303D01*
X129377511Y-84000864D01*
X129386466Y-84000856D01*
X129386484Y-84000863D01*
G37*
%TD.AperFunction*%
%TD*%
%TA.AperFunction,Conductor*%
%TO.N,GND*%
G36*
X129781401Y-86303427D02*
G01*
X129784394Y-86308542D01*
X130164499Y-87664734D01*
X130163432Y-87673625D01*
X130157722Y-87678697D01*
X129386489Y-87999134D01*
X129377534Y-87999143D01*
X129377511Y-87999134D01*
X128606277Y-87678697D01*
X128599952Y-87672358D01*
X128599500Y-87664735D01*
X128979606Y-86308542D01*
X128985139Y-86301501D01*
X128990872Y-86300000D01*
X129773128Y-86300000D01*
X129781401Y-86303427D01*
G37*
%TD.AperFunction*%
%TD*%
%TA.AperFunction,Conductor*%
%TO.N,Net-(IC1-+IN)*%
G36*
X143599989Y-89576013D02*
G01*
X143600037Y-89576124D01*
X143619584Y-89622705D01*
X143671100Y-89745473D01*
X143671141Y-89754428D01*
X143671100Y-89754527D01*
X143600046Y-89923854D01*
X143593685Y-89930157D01*
X143584730Y-89930116D01*
X143584598Y-89930059D01*
X143518559Y-89901389D01*
X143463037Y-89877298D01*
X143463019Y-89877292D01*
X143413597Y-89861413D01*
X143355021Y-89852675D01*
X143355006Y-89852673D01*
X143283323Y-89850364D01*
X143275165Y-89846672D01*
X143272000Y-89838670D01*
X143272000Y-89661329D01*
X143275427Y-89653056D01*
X143283322Y-89649635D01*
X143355013Y-89647325D01*
X143413599Y-89638585D01*
X143463025Y-89622705D01*
X143482109Y-89614424D01*
X143518559Y-89598609D01*
X143547032Y-89586247D01*
X143584599Y-89569939D01*
X143593551Y-89569789D01*
X143599989Y-89576013D01*
G37*
%TD.AperFunction*%
%TD*%
M02*
