<?xml version="1.0" standalone="no"?>
<!DOCTYPE svg PUBLIC "-//W3C//DTD SVG 1.1//EN"
"http://www.w3.org/Graphics/SVG/1.1/DTD/svg11.dtd">
<svg width="259.087" height="181.606" viewBox="0 0 5397.64 3783.46" version="1.1"
xmlns="http://www.w3.org/2000/svg"
xmlns:xlink="http://www.w3.org/1999/xlink">
<circle cx="1449.31" cy="1660.14" r="31.5" style=""/>
<circle cx="1337.91" cy="1548.74" r="31.5" style=""/>
<circle cx="1449.31" cy="2290.14" r="31.5" style=""/>
<circle cx="1337.91" cy="2401.54" r="31.5" style=""/>
<circle cx="3842.91" cy="1423.94" r="39.4" style=""/>
<circle cx="3842.91" cy="1623.94" r="39.4" style=""/>
<circle cx="3842.91" cy="1823.94" r="39.4" style=""/>
<circle cx="3838.31" cy="2116.94" r="39.4" style=""/>
<circle cx="3838.31" cy="2316.94" r="39.4" style=""/>
<circle cx="3838.31" cy="2516.94" r="39.4" style=""/>
<circle cx="3543.71" cy="2116.94" r="39.4" style=""/>
<circle cx="3543.71" cy="1823.94" r="39.4" style=""/>
<circle cx="3244.51" cy="1623.94" r="39.4" style=""/>
<circle cx="3244.51" cy="1823.94" r="39.4" style=""/>
<circle cx="3244.51" cy="2116.94" r="39.4" style=""/>
<circle cx="3244.51" cy="2316.94" r="39.4" style=""/>
<circle cx="3244.51" cy="2516.94" r="39.4" style=""/>
<circle cx="2945.31" cy="2116.94" r="39.4" style=""/>
<circle cx="2945.31" cy="1823.94" r="39.4" style=""/>
<circle cx="2646.11" cy="1623.94" r="39.4" style=""/>
<circle cx="2646.11" cy="1823.94" r="39.4" style=""/>
<circle cx="2646.11" cy="2116.94" r="39.4" style=""/>
<circle cx="2646.11" cy="2316.94" r="39.4" style=""/>
<circle cx="2646.11" cy="2516.94" r="39.4" style=""/>
<circle cx="2346.91" cy="2116.94" r="39.4" style=""/>
<circle cx="2346.91" cy="1823.94" r="39.4" style=""/>
<circle cx="2047.71" cy="1623.94" r="39.4" style=""/>
<circle cx="2047.71" cy="1823.94" r="39.4" style=""/>
<circle cx="2047.71" cy="2116.94" r="39.4" style=""/>
<circle cx="2047.71" cy="2316.94" r="39.4" style=""/>
<circle cx="2047.71" cy="2516.94" r="39.4" style=""/>
<circle cx="1748.51" cy="2116.94" r="39.4" style=""/>
<circle cx="1253.11" cy="1973.14" r="39.4" style=""/>
<circle cx="1453.11" cy="1973.14" r="39.4" style=""/>
<circle cx="1748.51" cy="1823.94" r="39.4" style=""/>
<circle cx="2047.71" cy="1423.94" r="39.4" style=""/>
<circle cx="2344.51" cy="1427.14" r="39.4" style=""/>
<circle cx="2646.11" cy="1423.94" r="39.4" style=""/>
<circle cx="3244.51" cy="1423.94" r="39.4" style=""/>
</svg>
