%TF.GenerationSoftware,KiCad,Pcbnew,8.0.7*%
%TF.CreationDate,2025-02-07T22:17:44+01:00*%
%TF.ProjectId,Teensy_board_06_main_board,5465656e-7379-45f6-926f-6172645f3036,rev?*%
%TF.SameCoordinates,Original*%
%TF.FileFunction,Copper,L2,Bot*%
%TF.FilePolarity,Positive*%
%FSLAX46Y46*%
G04 Gerber Fmt 4.6, Leading zero omitted, Abs format (unit mm)*
G04 Created by KiCad (PCBNEW 8.0.7) date 2025-02-07 22:17:44*
%MOMM*%
%LPD*%
G01*
G04 APERTURE LIST*
G04 Aperture macros list*
%AMRoundRect*
0 Rectangle with rounded corners*
0 $1 Rounding radius*
0 $2 $3 $4 $5 $6 $7 $8 $9 X,Y pos of 4 corners*
0 Add a 4 corners polygon primitive as box body*
4,1,4,$2,$3,$4,$5,$6,$7,$8,$9,$2,$3,0*
0 Add four circle primitives for the rounded corners*
1,1,$1+$1,$2,$3*
1,1,$1+$1,$4,$5*
1,1,$1+$1,$6,$7*
1,1,$1+$1,$8,$9*
0 Add four rect primitives between the rounded corners*
20,1,$1+$1,$2,$3,$4,$5,0*
20,1,$1+$1,$4,$5,$6,$7,0*
20,1,$1+$1,$6,$7,$8,$9,0*
20,1,$1+$1,$8,$9,$2,$3,0*%
%AMFreePoly0*
4,1,19,0.550000,-0.750000,0.000000,-0.750000,0.000000,-0.744911,-0.071157,-0.744911,-0.207708,-0.704816,-0.327430,-0.627875,-0.420627,-0.520320,-0.479746,-0.390866,-0.500000,-0.250000,-0.500000,0.250000,-0.479746,0.390866,-0.420627,0.520320,-0.327430,0.627875,-0.207708,0.704816,-0.071157,0.744911,0.000000,0.744911,0.000000,0.750000,0.550000,0.750000,0.550000,-0.750000,0.550000,-0.750000,
$1*%
%AMFreePoly1*
4,1,19,0.000000,0.744911,0.071157,0.744911,0.207708,0.704816,0.327430,0.627875,0.420627,0.520320,0.479746,0.390866,0.500000,0.250000,0.500000,-0.250000,0.479746,-0.390866,0.420627,-0.520320,0.327430,-0.627875,0.207708,-0.704816,0.071157,-0.744911,0.000000,-0.744911,0.000000,-0.750000,-0.550000,-0.750000,-0.550000,0.750000,0.000000,0.750000,0.000000,0.744911,0.000000,0.744911,
$1*%
G04 Aperture macros list end*
%TA.AperFunction,EtchedComponent*%
%ADD10C,0.000000*%
%TD*%
%TA.AperFunction,ComponentPad*%
%ADD11R,1.700000X1.700000*%
%TD*%
%TA.AperFunction,ComponentPad*%
%ADD12O,1.700000X1.700000*%
%TD*%
%TA.AperFunction,ComponentPad*%
%ADD13R,1.600000X1.600000*%
%TD*%
%TA.AperFunction,ComponentPad*%
%ADD14C,1.600000*%
%TD*%
%TA.AperFunction,SMDPad,CuDef*%
%ADD15RoundRect,0.250000X0.450000X-0.350000X0.450000X0.350000X-0.450000X0.350000X-0.450000X-0.350000X0*%
%TD*%
%TA.AperFunction,SMDPad,CuDef*%
%ADD16RoundRect,0.250000X0.337500X0.475000X-0.337500X0.475000X-0.337500X-0.475000X0.337500X-0.475000X0*%
%TD*%
%TA.AperFunction,SMDPad,CuDef*%
%ADD17RoundRect,0.250000X-0.337500X-0.475000X0.337500X-0.475000X0.337500X0.475000X-0.337500X0.475000X0*%
%TD*%
%TA.AperFunction,SMDPad,CuDef*%
%ADD18RoundRect,0.250000X-0.450000X0.350000X-0.450000X-0.350000X0.450000X-0.350000X0.450000X0.350000X0*%
%TD*%
%TA.AperFunction,SMDPad,CuDef*%
%ADD19FreePoly0,0.000000*%
%TD*%
%TA.AperFunction,SMDPad,CuDef*%
%ADD20R,1.000000X1.500000*%
%TD*%
%TA.AperFunction,SMDPad,CuDef*%
%ADD21FreePoly1,0.000000*%
%TD*%
%TA.AperFunction,SMDPad,CuDef*%
%ADD22FreePoly0,180.000000*%
%TD*%
%TA.AperFunction,SMDPad,CuDef*%
%ADD23FreePoly1,180.000000*%
%TD*%
%TA.AperFunction,Conductor*%
%ADD24C,1.000000*%
%TD*%
%TA.AperFunction,Conductor*%
%ADD25C,0.300000*%
%TD*%
%TA.AperFunction,Conductor*%
%ADD26C,0.400000*%
%TD*%
G04 APERTURE END LIST*
D10*
%TA.AperFunction,EtchedComponent*%
%TO.C,JP12*%
G36*
X137900000Y-86650000D02*
G01*
X137400000Y-86650000D01*
X137400000Y-86050000D01*
X137900000Y-86050000D01*
X137900000Y-86650000D01*
G37*
%TD.AperFunction*%
%TA.AperFunction,EtchedComponent*%
%TO.C,JP11*%
G36*
X133600000Y-86650000D02*
G01*
X133100000Y-86650000D01*
X133100000Y-86050000D01*
X133600000Y-86050000D01*
X133600000Y-86650000D01*
G37*
%TD.AperFunction*%
%TD*%
D11*
%TO.P,J85,1,Pin_1*%
%TO.N,I2C_SCL*%
X137800000Y-67450000D03*
%TD*%
%TO.P,J41,1,Pin_1*%
%TO.N,SPI_CS*%
X141700000Y-99950000D03*
%TD*%
%TO.P,J14,1,Pin_1*%
%TO.N,+3.3V*%
X117900000Y-75350000D03*
D12*
%TO.P,J14,2,Pin_2*%
%TO.N,GND*%
X115360000Y-75350000D03*
%TD*%
D11*
%TO.P,J75,1,Pin_1*%
%TO.N,EN_W_FR*%
X131700000Y-103750000D03*
%TD*%
%TO.P,J86,1,Pin_1*%
%TO.N,I2C_SDA*%
X139800000Y-71250000D03*
%TD*%
%TO.P,J61,1,Pin_1*%
%TO.N,ADC_V_B_C2*%
X145800000Y-67450000D03*
%TD*%
%TO.P,J95,1,Pin_1*%
%TO.N,IBUS_TX*%
X169800000Y-67450000D03*
%TD*%
%TO.P,J74,1,Pin_1*%
%TO.N,EN_W_FL*%
X129700000Y-99950000D03*
%TD*%
%TO.P,J64,1,Pin_1*%
%TO.N,ADC_V_PER*%
X133800000Y-67450000D03*
%TD*%
%TO.P,J67,1,Pin_1*%
%TO.N,ADC_I_M_FR*%
X160300000Y-99950000D03*
%TD*%
%TO.P,J49,1,Pin_1*%
%TO.N,ADC_V_B_C1*%
X147800000Y-71250000D03*
%TD*%
%TO.P,J88,1,Pin_1*%
%TO.N,LED_2*%
X168300000Y-99950000D03*
%TD*%
%TO.P,J83,1,Pin_1*%
%TO.N,GPS_TX*%
X135700000Y-103750000D03*
%TD*%
%TO.P,J60,1,Pin_1*%
%TO.N,EN_W_RR*%
X127700000Y-103750000D03*
%TD*%
%TO.P,J81,1,Pin_1*%
%TO.N,SPI_MISO*%
X145500000Y-99950000D03*
%TD*%
%TO.P,J15,1,Pin_1*%
%TO.N,+5V*%
X117900000Y-71550000D03*
D12*
%TO.P,J15,2,Pin_2*%
%TO.N,GND*%
X115360000Y-71550000D03*
%TD*%
D11*
%TO.P,J93,1,Pin_1*%
%TO.N,PWM_ESC_SERVO*%
X171800000Y-71250000D03*
%TD*%
%TO.P,J72,1,Pin_1*%
%TO.N,ADC_I_JET*%
X157800000Y-67450000D03*
%TD*%
%TO.P,J78,1,Pin_1*%
%TO.N,EN_M_FL*%
X174300000Y-103750000D03*
%TD*%
%TO.P,J80,1,Pin_1*%
%TO.N,SPI_MOSI*%
X143700000Y-103750000D03*
%TD*%
%TO.P,J90,1,Pin_1*%
%TO.N,PWM_ESC_M_FR*%
X163800000Y-71250000D03*
%TD*%
%TO.P,J225,1,Pin_1*%
%TO.N,GND*%
X117900000Y-99950000D03*
%TD*%
%TO.P,J231,1,Pin_1*%
%TO.N,GND*%
X151800000Y-71250000D03*
%TD*%
%TO.P,J77,1,Pin_1*%
%TO.N,EN_M_RR*%
X172300000Y-99950000D03*
%TD*%
%TO.P,J47,1,Pin_1*%
%TO.N,EN_W_RL*%
X125800000Y-99950000D03*
%TD*%
%TO.P,J89,1,Pin_1*%
%TO.N,PWM_ESC_M_RL*%
X139700000Y-103750000D03*
%TD*%
%TO.P,J101,1,Pin_1*%
%TO.N,1_Wire*%
X133700000Y-99950000D03*
%TD*%
%TO.P,J79,1,Pin_1*%
%TO.N,EN_M_FR*%
X165800000Y-67450000D03*
%TD*%
%TO.P,J92,1,Pin_1*%
%TO.N,PWM_ESC_M_RR*%
X131800000Y-71250000D03*
%TD*%
%TO.P,J69,1,Pin_1*%
%TO.N,ADC_I_M_RR*%
X164300000Y-99950000D03*
%TD*%
%TO.P,J82,1,Pin_1*%
%TO.N,SPI_SCK*%
X149800000Y-67450000D03*
%TD*%
%TO.P,J3,1,Pin_1*%
%TO.N,VCC*%
X124100000Y-68375000D03*
D12*
%TO.P,J3,2,Pin_2*%
%TO.N,GND*%
X121560000Y-68375000D03*
%TD*%
D11*
%TO.P,J234,1,Pin_1*%
%TO.N,GND*%
X153800000Y-67450000D03*
%TD*%
%TO.P,J76,1,Pin_1*%
%TO.N,EN_M_RL*%
X170300000Y-103750000D03*
%TD*%
%TO.P,J84,1,Pin_1*%
%TO.N,GPS_RX*%
X137700000Y-99950000D03*
%TD*%
%TO.P,J63,1,Pin_1*%
%TO.N,ADC_V_B_C4*%
X141800000Y-67450000D03*
%TD*%
D13*
%TO.P,C3,1*%
%TO.N,VCC*%
X123500000Y-73350000D03*
D14*
%TO.P,C3,2*%
%TO.N,GND*%
X121500000Y-73350000D03*
%TD*%
D13*
%TO.P,C22,1*%
%TO.N,VCC*%
X153255113Y-101350000D03*
D14*
%TO.P,C22,2*%
%TO.N,GND*%
X151255113Y-101350000D03*
%TD*%
D11*
%TO.P,J71,1,Pin_1*%
%TO.N,ADC_I_TEENSY*%
X159800000Y-71250000D03*
%TD*%
%TO.P,J87,1,Pin_1*%
%TO.N,LED_1*%
X166300000Y-103750000D03*
%TD*%
%TO.P,J73,1,Pin_1*%
%TO.N,ADC_I_SERVO*%
X155800000Y-71250000D03*
%TD*%
D13*
%TO.P,U1,1,GND*%
%TO.N,GND*%
X117890000Y-94370000D03*
D14*
%TO.P,U1,2,0_RX1_CRX2_CS1*%
%TO.N,unconnected-(U1-0_RX1_CRX2_CS1-Pad2)*%
X120430000Y-94370000D03*
%TO.P,U1,3,1_TX1_CTX2_MISO1*%
%TO.N,unconnected-(U1-1_TX1_CTX2_MISO1-Pad3)*%
X122970000Y-94370000D03*
%TO.P,U1,4,2_OUT2*%
%TO.N,EN_W_RL*%
X125510000Y-94370000D03*
%TO.P,U1,5,3_LRCLK2*%
%TO.N,EN_W_RR*%
X128050000Y-94370000D03*
%TO.P,U1,6,4_BCLK2*%
%TO.N,EN_W_FL*%
X130590000Y-94370000D03*
%TO.P,U1,7,5_IN2*%
%TO.N,EN_W_FR*%
X133130000Y-94370000D03*
%TO.P,U1,8,6_OUT1D*%
%TO.N,1_Wire*%
X135670000Y-94370000D03*
%TO.P,U1,9,7_RX2_OUT1A*%
%TO.N,GPS_TX*%
X138210000Y-94370000D03*
%TO.P,U1,10,8_TX2_IN1*%
%TO.N,GPS_RX*%
X140750000Y-94370000D03*
%TO.P,U1,11,9_OUT1C*%
%TO.N,PWM_ESC_M_RL*%
X143290000Y-94370000D03*
%TO.P,U1,12,10_CS_MQSR*%
%TO.N,SPI_CS*%
X145830000Y-94370000D03*
%TO.P,U1,13,11_MOSI_CTX1*%
%TO.N,SPI_MOSI*%
X148370000Y-94370000D03*
%TO.P,U1,14,12_MISO_MQSL*%
%TO.N,SPI_MISO*%
X150910000Y-94370000D03*
%TO.P,U1,15,3V3*%
%TO.N,VCC*%
X153450000Y-94370000D03*
%TO.P,U1,16,24_A10_TX6_SCL2*%
%TO.N,ADC_V_JET*%
X155990000Y-94370000D03*
%TO.P,U1,17,25_A11_RX6_SDA2*%
%TO.N,ADC_I_M_FR*%
X158530000Y-94370000D03*
%TO.P,U1,18,26_A12_MOSI1*%
%TO.N,ADC_I_M_FL*%
X161070000Y-94370000D03*
%TO.P,U1,19,27_A13_SCK1*%
%TO.N,ADC_I_M_RR*%
X163610000Y-94370000D03*
%TO.P,U1,20,28_RX7*%
%TO.N,LED_1*%
X166150000Y-94370000D03*
%TO.P,U1,21,29_TX7*%
%TO.N,LED_2*%
X168690000Y-94370000D03*
%TO.P,U1,22,30_CRX3*%
%TO.N,EN_M_RL*%
X171230000Y-94370000D03*
%TO.P,U1,23,31_CTX3*%
%TO.N,EN_M_RR*%
X173770000Y-94370000D03*
%TO.P,U1,24,32_OUT1B*%
%TO.N,EN_M_FL*%
X176310000Y-94370000D03*
%TO.P,U1,25,33_MCLK2*%
%TO.N,PWM_ESC_SERVO*%
X176310000Y-79130000D03*
%TO.P,U1,26,34_RX8*%
%TO.N,IBUS_TX*%
X173770000Y-79130000D03*
%TO.P,U1,27,35_TX8*%
%TO.N,IBUS_RX*%
X171230000Y-79130000D03*
%TO.P,U1,28,36_CS*%
%TO.N,EN_M_FR*%
X168690000Y-79130000D03*
%TO.P,U1,29,37_CS*%
%TO.N,PWM_ESC_M_FR*%
X166150000Y-79130000D03*
%TO.P,U1,30,38_CS1_IN1*%
%TO.N,ADC_I_M_RL*%
X163610000Y-79130000D03*
%TO.P,U1,31,39_MISO1_OUT1A*%
%TO.N,ADC_I_TEENSY*%
X161070000Y-79130000D03*
%TO.P,U1,32,40_A16*%
%TO.N,ADC_I_JET*%
X158530000Y-79130000D03*
%TO.P,U1,33,41_A17*%
%TO.N,ADC_I_SERVO*%
X155990000Y-79130000D03*
%TO.P,U1,34,GND*%
%TO.N,GND*%
X153450000Y-79130000D03*
%TO.P,U1,35,13_SCK_LED*%
%TO.N,SPI_SCK*%
X150910000Y-79130000D03*
%TO.P,U1,36,14_A0_TX3_SPDIF_OUT*%
%TO.N,ADC_V_B_C1*%
X148370000Y-79130000D03*
%TO.P,U1,37,15_A1_RX3_SPDIF_IN*%
%TO.N,ADC_V_B_C2*%
X145830000Y-79130000D03*
%TO.P,U1,38,16_A2_RX4_SCL1*%
%TO.N,ADC_V_B_C3*%
X143290000Y-79130000D03*
%TO.P,U1,39,17_A3_TX4_SDA1*%
%TO.N,ADC_V_B_C4*%
X140750000Y-79130000D03*
%TO.P,U1,40,18_A4_SDA*%
%TO.N,I2C_SDA*%
X138210000Y-79130000D03*
%TO.P,U1,41,19_A5_SCL*%
%TO.N,I2C_SCL*%
X135670000Y-79130000D03*
%TO.P,U1,42,20_A6_TX5_LRCLK1*%
%TO.N,ADC_V_MCU*%
X133130000Y-79130000D03*
%TO.P,U1,43,21_A7_RX5_BCLK1*%
%TO.N,ADC_V_PER*%
X130590000Y-79130000D03*
%TO.P,U1,44,22_A8_CTX1*%
%TO.N,PWM_ESC_M_RR*%
X128050000Y-79130000D03*
%TO.P,U1,45,23_A9_CRX1_MCLK1*%
%TO.N,PWM_ESC_M_FL*%
X125510000Y-79130000D03*
%TO.P,U1,46,3V3*%
%TO.N,VCC*%
X122970000Y-79130000D03*
%TO.P,U1,47,GND*%
%TO.N,GND*%
X120430000Y-79130000D03*
%TO.P,U1,48,VIN*%
%TO.N,unconnected-(U1-VIN-Pad48)*%
X117890000Y-79130000D03*
%TD*%
D11*
%TO.P,J91,1,Pin_1*%
%TO.N,PWM_ESC_M_FL*%
X129800000Y-67450000D03*
%TD*%
%TO.P,J62,1,Pin_1*%
%TO.N,ADC_V_B_C3*%
X143800000Y-71250000D03*
%TD*%
%TO.P,J66,1,Pin_1*%
%TO.N,ADC_V_JET*%
X158300000Y-103750000D03*
%TD*%
%TO.P,J70,1,Pin_1*%
%TO.N,ADC_I_M_RL*%
X161800000Y-67450000D03*
%TD*%
%TO.P,J65,1,Pin_1*%
%TO.N,ADC_V_MCU*%
X135800000Y-71250000D03*
%TD*%
%TO.P,J94,1,Pin_1*%
%TO.N,IBUS_RX*%
X167800000Y-71250000D03*
%TD*%
%TO.P,J68,1,Pin_1*%
%TO.N,ADC_I_M_FL*%
X162300000Y-103750000D03*
%TD*%
D15*
%TO.P,R2,1*%
%TO.N,Net-(JP12-C)*%
X138300000Y-84150000D03*
%TO.P,R2,2*%
%TO.N,I2C_SDA*%
X138300000Y-82150000D03*
%TD*%
D16*
%TO.P,C5,1*%
%TO.N,VCC*%
X122737500Y-83550000D03*
%TO.P,C5,2*%
%TO.N,GND*%
X120662500Y-83550000D03*
%TD*%
D17*
%TO.P,C2,1*%
%TO.N,VCC*%
X153262500Y-89950000D03*
%TO.P,C2,2*%
%TO.N,GND*%
X155337500Y-89950000D03*
%TD*%
D18*
%TO.P,R1,1*%
%TO.N,I2C_SCL*%
X132700000Y-82150000D03*
%TO.P,R1,2*%
%TO.N,Net-(JP11-C)*%
X132700000Y-84150000D03*
%TD*%
D17*
%TO.P,C1,1*%
%TO.N,VCC*%
X153262500Y-92150000D03*
%TO.P,C1,2*%
%TO.N,GND*%
X155337500Y-92150000D03*
%TD*%
D19*
%TO.P,JP12,1,A*%
%TO.N,+3.3V*%
X137000000Y-86350000D03*
D20*
%TO.P,JP12,2,C*%
%TO.N,Net-(JP12-C)*%
X138300000Y-86350000D03*
D21*
%TO.P,JP12,3,B*%
%TO.N,+5V*%
X139600000Y-86350000D03*
%TD*%
D16*
%TO.P,C4,1*%
%TO.N,VCC*%
X122737500Y-81350000D03*
%TO.P,C4,2*%
%TO.N,GND*%
X120662500Y-81350000D03*
%TD*%
D22*
%TO.P,JP11,1,A*%
%TO.N,+3.3V*%
X134000000Y-86350000D03*
D20*
%TO.P,JP11,2,C*%
%TO.N,Net-(JP11-C)*%
X132700000Y-86350000D03*
D23*
%TO.P,JP11,3,B*%
%TO.N,+5V*%
X131400000Y-86350000D03*
%TD*%
D18*
%TO.P,R3,1*%
%TO.N,+3.3V*%
X135700000Y-90150000D03*
%TO.P,R3,2*%
%TO.N,1_Wire*%
X135700000Y-92150000D03*
%TD*%
D24*
%TO.N,VCC*%
X153255113Y-103150000D02*
X148855113Y-107550000D01*
X123700000Y-78400000D02*
X122970000Y-79130000D01*
X122737500Y-83550000D02*
X122737500Y-81350000D01*
X123500000Y-73350000D02*
X123700000Y-73550000D01*
X153255113Y-94564887D02*
X153450000Y-94370000D01*
X112900000Y-70150000D02*
X116500000Y-66550000D01*
X153262500Y-92150000D02*
X153262500Y-94182500D01*
X112900000Y-102550000D02*
X112900000Y-70150000D01*
X116500000Y-66550000D02*
X122900000Y-66550000D01*
X122737500Y-79362500D02*
X122970000Y-79130000D01*
X123500000Y-73350000D02*
X123700000Y-73150000D01*
X153255113Y-101350000D02*
X153255113Y-94564887D01*
X153262500Y-94182500D02*
X153450000Y-94370000D01*
X153262500Y-89950000D02*
X153262500Y-92150000D01*
X117900000Y-107550000D02*
X112900000Y-102550000D01*
X122900000Y-66550000D02*
X124100000Y-67750000D01*
X124100000Y-67750000D02*
X124100000Y-68375000D01*
X153255113Y-101350000D02*
X153255113Y-103150000D01*
X148855113Y-107550000D02*
X117900000Y-107550000D01*
X123700000Y-68775000D02*
X124100000Y-68375000D01*
X122737500Y-81350000D02*
X122737500Y-79362500D01*
X123700000Y-73150000D02*
X123700000Y-68775000D01*
X123700000Y-73550000D02*
X123700000Y-78400000D01*
%TO.N,GND*%
X117890000Y-99940000D02*
X117900000Y-99950000D01*
X121300000Y-73550000D02*
X121500000Y-73350000D01*
X151800000Y-71250000D02*
X151800000Y-69450000D01*
X151800000Y-69450000D02*
X153800000Y-67450000D01*
X151255113Y-101350000D02*
X151255113Y-97594887D01*
X153450000Y-85900000D02*
X153450000Y-86200000D01*
X121300000Y-78260000D02*
X121300000Y-73550000D01*
X155337500Y-87787500D02*
X153450000Y-85900000D01*
X120662500Y-81350000D02*
X120662500Y-79362500D01*
X120662500Y-79362500D02*
X120430000Y-79130000D01*
X120662500Y-83550000D02*
X120662500Y-81350000D01*
X155337500Y-89950000D02*
X155337500Y-87787500D01*
X151900000Y-87750000D02*
X151700000Y-87950000D01*
X121560000Y-68375000D02*
X121300000Y-68635000D01*
X114300000Y-76410000D02*
X114300000Y-90780000D01*
X121300000Y-68635000D02*
X121300000Y-73150000D01*
X148100000Y-106150000D02*
X151255113Y-102994887D01*
X151700000Y-87950000D02*
X151700000Y-92350000D01*
X121560000Y-68375000D02*
X117075000Y-68375000D01*
X153450000Y-85900000D02*
X153450000Y-79130000D01*
X115360000Y-75350000D02*
X114300000Y-76410000D01*
X117890000Y-94370000D02*
X117890000Y-99940000D01*
X153450000Y-72900000D02*
X151800000Y-71250000D01*
D25*
X151700000Y-92350000D02*
X152200000Y-92850000D01*
D24*
X115500000Y-75210000D02*
X115360000Y-75350000D01*
X151255113Y-97594887D02*
X151850000Y-97000000D01*
X117075000Y-68375000D02*
X115360000Y-70090000D01*
X115360000Y-71550000D02*
X115500000Y-71690000D01*
X115500000Y-71690000D02*
X115500000Y-75210000D01*
X121300000Y-73150000D02*
X121500000Y-73350000D01*
X120430000Y-79130000D02*
X121300000Y-78260000D01*
X115360000Y-70090000D02*
X115360000Y-71550000D01*
X117900000Y-103550000D02*
X120500000Y-106150000D01*
X117900000Y-99950000D02*
X117900000Y-103550000D01*
X151255113Y-102994887D02*
X151255113Y-101350000D01*
X153450000Y-79130000D02*
X153450000Y-72900000D01*
X114300000Y-90780000D02*
X117890000Y-94370000D01*
D25*
X152200000Y-92850000D02*
X152200000Y-96650000D01*
D24*
X120500000Y-106150000D02*
X148100000Y-106150000D01*
X153450000Y-86200000D02*
X151900000Y-87750000D01*
X155337500Y-92150000D02*
X155337500Y-89950000D01*
D25*
X152200000Y-96650000D02*
X151850000Y-97000000D01*
D26*
%TO.N,+5V*%
X134300000Y-83150000D02*
X136700000Y-83150000D01*
X129700000Y-85750000D02*
X129700000Y-83750000D01*
X130300000Y-83150000D02*
X131100000Y-83150000D01*
X140500000Y-83150000D02*
X141300000Y-83950000D01*
X117900000Y-71550000D02*
X119500000Y-73150000D01*
D25*
X134300000Y-83150000D02*
X131100000Y-83150000D01*
D26*
X140100000Y-83150000D02*
X140500000Y-83150000D01*
X131400000Y-87650000D02*
X131400000Y-86350000D01*
X130300000Y-86350000D02*
X129700000Y-85750000D01*
X141300000Y-83950000D02*
X141300000Y-85750000D01*
D25*
X140100000Y-83150000D02*
X136700000Y-83150000D01*
D26*
X118300000Y-77750000D02*
X116700000Y-77750000D01*
X119500000Y-73150000D02*
X119500000Y-76550000D01*
X118100000Y-88550000D02*
X130500000Y-88550000D01*
X129700000Y-83750000D02*
X130300000Y-83150000D01*
X140700000Y-86350000D02*
X139600000Y-86350000D01*
X130500000Y-88550000D02*
X131400000Y-87650000D01*
X141300000Y-85750000D02*
X140700000Y-86350000D01*
X131400000Y-86350000D02*
X130300000Y-86350000D01*
X119500000Y-76550000D02*
X118300000Y-77750000D01*
X116700000Y-77750000D02*
X116100000Y-78350000D01*
X116100000Y-78350000D02*
X116100000Y-86550000D01*
X116100000Y-86550000D02*
X118100000Y-88550000D01*
%TO.N,+3.3V*%
X135300000Y-88350000D02*
X135300000Y-88050000D01*
X134300000Y-89350000D02*
X135300000Y-88350000D01*
X133900000Y-90150000D02*
X135700000Y-90150000D01*
X135300000Y-88050000D02*
X137000000Y-86350000D01*
X117700000Y-89350000D02*
X115300000Y-86950000D01*
X115300000Y-77950000D02*
X117900000Y-75350000D01*
X133100000Y-89350000D02*
X134300000Y-89350000D01*
X115300000Y-86950000D02*
X115300000Y-77950000D01*
X133100000Y-89350000D02*
X133900000Y-90150000D01*
X133100000Y-89350000D02*
X117700000Y-89350000D01*
X134000000Y-88450000D02*
X133100000Y-89350000D01*
X134000000Y-86350000D02*
X134000000Y-88450000D01*
D24*
%TO.N,ADC_V_B_C1*%
X147800000Y-78560000D02*
X148370000Y-79130000D01*
X147800000Y-71250000D02*
X147800000Y-78560000D01*
%TO.N,IBUS_RX*%
X167800000Y-71250000D02*
X167800000Y-75700000D01*
X167800000Y-75700000D02*
X171230000Y-79130000D01*
%TO.N,ADC_V_B_C2*%
X145800000Y-67450000D02*
X145800000Y-79100000D01*
X145800000Y-79100000D02*
X145830000Y-79130000D01*
%TO.N,ADC_V_B_C3*%
X143800000Y-78620000D02*
X143290000Y-79130000D01*
X143800000Y-71250000D02*
X143800000Y-78620000D01*
%TO.N,ADC_V_B_C4*%
X141800000Y-78080000D02*
X140750000Y-79130000D01*
X141800000Y-67450000D02*
X141800000Y-78080000D01*
%TO.N,ADC_V_PER*%
X133800000Y-67450000D02*
X133800000Y-75920000D01*
X133800000Y-75920000D02*
X130590000Y-79130000D01*
%TO.N,ADC_V_MCU*%
X135800000Y-71250000D02*
X135800000Y-76460000D01*
X135800000Y-76460000D02*
X133130000Y-79130000D01*
%TO.N,ADC_V_JET*%
X158300000Y-103750000D02*
X158300000Y-96680000D01*
X158300000Y-96680000D02*
X155990000Y-94370000D01*
%TO.N,ADC_I_M_FR*%
X160300000Y-99950000D02*
X160300000Y-96140000D01*
X160300000Y-96140000D02*
X158530000Y-94370000D01*
%TO.N,ADC_I_SERVO*%
X155800000Y-71250000D02*
X155990000Y-71440000D01*
X155990000Y-71440000D02*
X155990000Y-79130000D01*
%TO.N,ADC_I_JET*%
X157800000Y-67450000D02*
X157800000Y-78400000D01*
X157800000Y-78400000D02*
X158530000Y-79130000D01*
%TO.N,ADC_I_TEENSY*%
X159800000Y-77860000D02*
X161070000Y-79130000D01*
X159800000Y-71250000D02*
X159800000Y-77860000D01*
%TO.N,ADC_I_M_RL*%
X161800000Y-77320000D02*
X163610000Y-79130000D01*
X161800000Y-67450000D02*
X161800000Y-77320000D01*
%TO.N,ADC_I_M_RR*%
X164300000Y-95060000D02*
X163610000Y-94370000D01*
X164300000Y-99950000D02*
X164300000Y-95060000D01*
%TO.N,ADC_I_M_FL*%
X162300000Y-103750000D02*
X162300000Y-95600000D01*
X162300000Y-95600000D02*
X161070000Y-94370000D01*
%TO.N,EN_W_RL*%
X125800000Y-94660000D02*
X125510000Y-94370000D01*
X125800000Y-99950000D02*
X125800000Y-94660000D01*
%TO.N,EN_W_RR*%
X127700000Y-103750000D02*
X127700000Y-94720000D01*
X127700000Y-94720000D02*
X128050000Y-94370000D01*
%TO.N,EN_W_FL*%
X129700000Y-99950000D02*
X129700000Y-95260000D01*
X129700000Y-95260000D02*
X130590000Y-94370000D01*
%TO.N,EN_W_FR*%
X131700000Y-103750000D02*
X131700000Y-95800000D01*
X131700000Y-95800000D02*
X133130000Y-94370000D01*
%TO.N,EN_M_RL*%
X170300000Y-95300000D02*
X171230000Y-94370000D01*
X170300000Y-103750000D02*
X170300000Y-95300000D01*
%TO.N,EN_M_RR*%
X172300000Y-99950000D02*
X172300000Y-95840000D01*
X172300000Y-95840000D02*
X173770000Y-94370000D01*
%TO.N,EN_M_FL*%
X174300000Y-103750000D02*
X174300000Y-96380000D01*
X174300000Y-96380000D02*
X176310000Y-94370000D01*
%TO.N,EN_M_FR*%
X165800000Y-76240000D02*
X168690000Y-79130000D01*
X165800000Y-67450000D02*
X165800000Y-76240000D01*
%TO.N,SPI_CS*%
X141700000Y-98500000D02*
X145830000Y-94370000D01*
X141700000Y-99950000D02*
X141700000Y-98500000D01*
%TO.N,SPI_MOSI*%
X143700000Y-99040000D02*
X148370000Y-94370000D01*
X143700000Y-103750000D02*
X143700000Y-99040000D01*
%TO.N,SPI_MISO*%
X145500000Y-99780000D02*
X150910000Y-94370000D01*
X145500000Y-99950000D02*
X145500000Y-99780000D01*
%TO.N,SPI_SCK*%
X149800000Y-78020000D02*
X150910000Y-79130000D01*
X149800000Y-67450000D02*
X149800000Y-78020000D01*
%TO.N,GPS_TX*%
X135700000Y-96880000D02*
X138210000Y-94370000D01*
X135700000Y-103750000D02*
X135700000Y-96880000D01*
%TO.N,GPS_RX*%
X137700000Y-97420000D02*
X140750000Y-94370000D01*
X137700000Y-99950000D02*
X137700000Y-97420000D01*
%TO.N,I2C_SCL*%
X137800000Y-77000000D02*
X135670000Y-79130000D01*
D26*
X132700000Y-82100000D02*
X135670000Y-79130000D01*
X132700000Y-82150000D02*
X132700000Y-82100000D01*
D24*
X137800000Y-67450000D02*
X137800000Y-77000000D01*
%TO.N,I2C_SDA*%
X139800000Y-71250000D02*
X139800000Y-77540000D01*
D26*
X138300000Y-79220000D02*
X138210000Y-79130000D01*
X138300000Y-82150000D02*
X138300000Y-79220000D01*
D24*
X139800000Y-77540000D02*
X138210000Y-79130000D01*
%TO.N,LED_1*%
X166300000Y-103750000D02*
X166300000Y-94520000D01*
X166300000Y-94520000D02*
X166150000Y-94370000D01*
%TO.N,LED_2*%
X168300000Y-99950000D02*
X168300000Y-94760000D01*
X168300000Y-94760000D02*
X168690000Y-94370000D01*
%TO.N,PWM_ESC_M_RL*%
X139700000Y-97960000D02*
X143290000Y-94370000D01*
X139700000Y-103750000D02*
X139700000Y-97960000D01*
%TO.N,PWM_ESC_M_FR*%
X163800000Y-76780000D02*
X166150000Y-79130000D01*
X163800000Y-71250000D02*
X163800000Y-76780000D01*
%TO.N,PWM_ESC_M_FL*%
X129800000Y-67450000D02*
X129800000Y-74840000D01*
X129800000Y-74840000D02*
X125510000Y-79130000D01*
%TO.N,PWM_ESC_M_RR*%
X131800000Y-71250000D02*
X131800000Y-75380000D01*
X131800000Y-75380000D02*
X128050000Y-79130000D01*
%TO.N,PWM_ESC_SERVO*%
X171800000Y-74620000D02*
X176310000Y-79130000D01*
X171800000Y-71250000D02*
X171800000Y-74620000D01*
D26*
%TO.N,1_Wire*%
X135700000Y-92150000D02*
X135700000Y-94340000D01*
D24*
X133700000Y-99950000D02*
X133700000Y-96340000D01*
D26*
X135700000Y-94340000D02*
X135670000Y-94370000D01*
D24*
X133700000Y-96340000D02*
X135670000Y-94370000D01*
%TO.N,IBUS_TX*%
X169800000Y-75160000D02*
X173770000Y-79130000D01*
X169800000Y-67450000D02*
X169800000Y-75160000D01*
D26*
%TO.N,Net-(JP12-C)*%
X138300000Y-86350000D02*
X138300000Y-84150000D01*
%TO.N,Net-(JP11-C)*%
X132700000Y-86350000D02*
X132700000Y-84150000D01*
%TD*%
%TA.AperFunction,Conductor*%
%TO.N,GND*%
G36*
X177842539Y-64270185D02*
G01*
X177888294Y-64322989D01*
X177899500Y-64374500D01*
X177899500Y-109125500D01*
X177879815Y-109192539D01*
X177827011Y-109238294D01*
X177775500Y-109249500D01*
X112524500Y-109249500D01*
X112457461Y-109229815D01*
X112411706Y-109177011D01*
X112400500Y-109125500D01*
X112400500Y-103764782D01*
X112420185Y-103697743D01*
X112472989Y-103651988D01*
X112542147Y-103642044D01*
X112605703Y-103671069D01*
X112612181Y-103677101D01*
X117119735Y-108184655D01*
X117119764Y-108184686D01*
X117262214Y-108327136D01*
X117262218Y-108327139D01*
X117426079Y-108436628D01*
X117426092Y-108436635D01*
X117554833Y-108489961D01*
X117597744Y-108507735D01*
X117608164Y-108512051D01*
X117704812Y-108531275D01*
X117753135Y-108540887D01*
X117801458Y-108550500D01*
X117801459Y-108550500D01*
X148953655Y-108550500D01*
X148972983Y-108546655D01*
X149050301Y-108531275D01*
X149146949Y-108512051D01*
X149200278Y-108489961D01*
X149329027Y-108436632D01*
X149492895Y-108327139D01*
X149632252Y-108187782D01*
X149632252Y-108187780D01*
X149642460Y-108177573D01*
X149642461Y-108177570D01*
X154032253Y-103787781D01*
X154141745Y-103623914D01*
X154217165Y-103441835D01*
X154255613Y-103248540D01*
X154255613Y-103077483D01*
X154263508Y-103033944D01*
X154304131Y-102925615D01*
X154525784Y-102334540D01*
X154539466Y-102284953D01*
X154542815Y-102274611D01*
X154549204Y-102257482D01*
X154555612Y-102197886D01*
X154555612Y-102197882D01*
X154555613Y-102197873D01*
X154555612Y-102107970D01*
X154555694Y-102103454D01*
X154555944Y-102096580D01*
X154555612Y-102090362D01*
X154555612Y-100589915D01*
X154557067Y-100573489D01*
X154556908Y-100573473D01*
X154557374Y-100569059D01*
X154557677Y-100560132D01*
X154557678Y-100560093D01*
X154556616Y-100505997D01*
X154556413Y-100504282D01*
X154554739Y-100494013D01*
X154549204Y-100442517D01*
X154549203Y-100442515D01*
X154536445Y-100408308D01*
X154531507Y-100391545D01*
X154525784Y-100365460D01*
X154525784Y-100365458D01*
X154263508Y-99666053D01*
X154255613Y-99622514D01*
X154255613Y-96051458D01*
X154262421Y-96010935D01*
X154612724Y-94997867D01*
X154653236Y-94940944D01*
X154718093Y-94914958D01*
X154786704Y-94928161D01*
X154837284Y-94976362D01*
X154842297Y-94985988D01*
X154859431Y-95022732D01*
X154859432Y-95022734D01*
X154989954Y-95209141D01*
X155150858Y-95370045D01*
X155150861Y-95370047D01*
X155337266Y-95500568D01*
X155382869Y-95521833D01*
X155400471Y-95531869D01*
X156456468Y-96254393D01*
X156456471Y-96254395D01*
X156474131Y-96269052D01*
X157263181Y-97058101D01*
X157296666Y-97119424D01*
X157299500Y-97145782D01*
X157299500Y-101913325D01*
X157290160Y-101960538D01*
X156985540Y-102700326D01*
X156966555Y-102763246D01*
X156964025Y-102770754D01*
X156955910Y-102792510D01*
X156955908Y-102792520D01*
X156949501Y-102852116D01*
X156949500Y-102852135D01*
X156949500Y-102947281D01*
X156949418Y-102951779D01*
X156949315Y-102954598D01*
X156949500Y-102958054D01*
X156949500Y-104647870D01*
X156949501Y-104647876D01*
X156955908Y-104707483D01*
X157006202Y-104842328D01*
X157006206Y-104842335D01*
X157092452Y-104957544D01*
X157092455Y-104957547D01*
X157207664Y-105043793D01*
X157207671Y-105043797D01*
X157342517Y-105094091D01*
X157342516Y-105094091D01*
X157349444Y-105094835D01*
X157402127Y-105100500D01*
X159197872Y-105100499D01*
X159257483Y-105094091D01*
X159392331Y-105043796D01*
X159507546Y-104957546D01*
X159593796Y-104842331D01*
X159644091Y-104707483D01*
X159650500Y-104647873D01*
X159650499Y-102925614D01*
X159651799Y-102907704D01*
X159652512Y-102902820D01*
X159652531Y-102893865D01*
X159650663Y-102857580D01*
X159650544Y-102852957D01*
X159650418Y-102850612D01*
X159650095Y-102846574D01*
X159649748Y-102839808D01*
X159649747Y-102839804D01*
X159649747Y-102839802D01*
X159648840Y-102833779D01*
X159648996Y-102833755D01*
X159647817Y-102827178D01*
X159644091Y-102792518D01*
X159634585Y-102767032D01*
X159626844Y-102746277D01*
X159622818Y-102733373D01*
X159614457Y-102700323D01*
X159463841Y-102334541D01*
X159309840Y-101960538D01*
X159300500Y-101913325D01*
X159300500Y-101424499D01*
X159320185Y-101357460D01*
X159372989Y-101311705D01*
X159424495Y-101300499D01*
X161175500Y-101300499D01*
X161242539Y-101320184D01*
X161288294Y-101372988D01*
X161299500Y-101424499D01*
X161299500Y-101913325D01*
X161290160Y-101960538D01*
X160985540Y-102700326D01*
X160966555Y-102763246D01*
X160964025Y-102770754D01*
X160955910Y-102792510D01*
X160955908Y-102792520D01*
X160949501Y-102852116D01*
X160949500Y-102852135D01*
X160949500Y-102947281D01*
X160949418Y-102951779D01*
X160949315Y-102954598D01*
X160949500Y-102958054D01*
X160949500Y-104647870D01*
X160949501Y-104647876D01*
X160955908Y-104707483D01*
X161006202Y-104842328D01*
X161006206Y-104842335D01*
X161092452Y-104957544D01*
X161092455Y-104957547D01*
X161207664Y-105043793D01*
X161207671Y-105043797D01*
X161342517Y-105094091D01*
X161342516Y-105094091D01*
X161349444Y-105094835D01*
X161402127Y-105100500D01*
X163197872Y-105100499D01*
X163257483Y-105094091D01*
X163392331Y-105043796D01*
X163507546Y-104957546D01*
X163593796Y-104842331D01*
X163644091Y-104707483D01*
X163650500Y-104647873D01*
X163650499Y-102925614D01*
X163651799Y-102907704D01*
X163652512Y-102902820D01*
X163652531Y-102893865D01*
X163650663Y-102857580D01*
X163650544Y-102852957D01*
X163650418Y-102850612D01*
X163650095Y-102846574D01*
X163649748Y-102839808D01*
X163649747Y-102839804D01*
X163649747Y-102839802D01*
X163648840Y-102833779D01*
X163648996Y-102833755D01*
X163647817Y-102827178D01*
X163644091Y-102792518D01*
X163634585Y-102767032D01*
X163626844Y-102746277D01*
X163622818Y-102733373D01*
X163614457Y-102700323D01*
X163463841Y-102334541D01*
X163309840Y-101960538D01*
X163300500Y-101913325D01*
X163300500Y-101424499D01*
X163320185Y-101357460D01*
X163372989Y-101311705D01*
X163424495Y-101300499D01*
X165175500Y-101300499D01*
X165242539Y-101320184D01*
X165288294Y-101372988D01*
X165299500Y-101424499D01*
X165299500Y-101913325D01*
X165290160Y-101960538D01*
X164985540Y-102700326D01*
X164966555Y-102763246D01*
X164964025Y-102770754D01*
X164955910Y-102792510D01*
X164955908Y-102792520D01*
X164949501Y-102852116D01*
X164949500Y-102852135D01*
X164949500Y-102947281D01*
X164949418Y-102951779D01*
X164949315Y-102954598D01*
X164949500Y-102958054D01*
X164949500Y-104647870D01*
X164949501Y-104647876D01*
X164955908Y-104707483D01*
X165006202Y-104842328D01*
X165006206Y-104842335D01*
X165092452Y-104957544D01*
X165092455Y-104957547D01*
X165207664Y-105043793D01*
X165207671Y-105043797D01*
X165342517Y-105094091D01*
X165342516Y-105094091D01*
X165349444Y-105094835D01*
X165402127Y-105100500D01*
X167197872Y-105100499D01*
X167257483Y-105094091D01*
X167392331Y-105043796D01*
X167507546Y-104957546D01*
X167593796Y-104842331D01*
X167644091Y-104707483D01*
X167650500Y-104647873D01*
X167650499Y-102925614D01*
X167651799Y-102907704D01*
X167652512Y-102902820D01*
X167652531Y-102893865D01*
X167650663Y-102857580D01*
X167650544Y-102852957D01*
X167650418Y-102850612D01*
X167650095Y-102846574D01*
X167649748Y-102839808D01*
X167649747Y-102839804D01*
X167649747Y-102839802D01*
X167648840Y-102833779D01*
X167648996Y-102833755D01*
X167647817Y-102827178D01*
X167644091Y-102792518D01*
X167634585Y-102767032D01*
X167626844Y-102746277D01*
X167622818Y-102733373D01*
X167614457Y-102700323D01*
X167463841Y-102334541D01*
X167309840Y-101960538D01*
X167300500Y-101913325D01*
X167300500Y-101424499D01*
X167320185Y-101357460D01*
X167372989Y-101311705D01*
X167424495Y-101300499D01*
X169175500Y-101300499D01*
X169242539Y-101320184D01*
X169288294Y-101372988D01*
X169299500Y-101424499D01*
X169299500Y-101913325D01*
X169290160Y-101960538D01*
X168985540Y-102700326D01*
X168966555Y-102763246D01*
X168964025Y-102770754D01*
X168955910Y-102792510D01*
X168955908Y-102792520D01*
X168949501Y-102852116D01*
X168949500Y-102852135D01*
X168949500Y-102947281D01*
X168949418Y-102951779D01*
X168949315Y-102954598D01*
X168949500Y-102958054D01*
X168949500Y-104647870D01*
X168949501Y-104647876D01*
X168955908Y-104707483D01*
X169006202Y-104842328D01*
X169006206Y-104842335D01*
X169092452Y-104957544D01*
X169092455Y-104957547D01*
X169207664Y-105043793D01*
X169207671Y-105043797D01*
X169342517Y-105094091D01*
X169342516Y-105094091D01*
X169349444Y-105094835D01*
X169402127Y-105100500D01*
X171197872Y-105100499D01*
X171257483Y-105094091D01*
X171392331Y-105043796D01*
X171507546Y-104957546D01*
X171593796Y-104842331D01*
X171644091Y-104707483D01*
X171650500Y-104647873D01*
X171650499Y-102925614D01*
X171651799Y-102907704D01*
X171652512Y-102902820D01*
X171652531Y-102893865D01*
X171650663Y-102857580D01*
X171650544Y-102852957D01*
X171650418Y-102850612D01*
X171650095Y-102846574D01*
X171649748Y-102839808D01*
X171649747Y-102839804D01*
X171649747Y-102839802D01*
X171648840Y-102833779D01*
X171648996Y-102833755D01*
X171647817Y-102827178D01*
X171644091Y-102792518D01*
X171634585Y-102767032D01*
X171626844Y-102746277D01*
X171622818Y-102733373D01*
X171614457Y-102700323D01*
X171463841Y-102334541D01*
X171309840Y-101960538D01*
X171300500Y-101913325D01*
X171300500Y-101424499D01*
X171320185Y-101357460D01*
X171372989Y-101311705D01*
X171424495Y-101300499D01*
X173175500Y-101300499D01*
X173242539Y-101320184D01*
X173288294Y-101372988D01*
X173299500Y-101424499D01*
X173299500Y-101913325D01*
X173290160Y-101960538D01*
X172985540Y-102700326D01*
X172966555Y-102763246D01*
X172964025Y-102770754D01*
X172955910Y-102792510D01*
X172955908Y-102792520D01*
X172949501Y-102852116D01*
X172949500Y-102852135D01*
X172949500Y-102947281D01*
X172949418Y-102951779D01*
X172949315Y-102954598D01*
X172949500Y-102958054D01*
X172949500Y-104647870D01*
X172949501Y-104647876D01*
X172955908Y-104707483D01*
X173006202Y-104842328D01*
X173006206Y-104842335D01*
X173092452Y-104957544D01*
X173092455Y-104957547D01*
X173207664Y-105043793D01*
X173207671Y-105043797D01*
X173342517Y-105094091D01*
X173342516Y-105094091D01*
X173349444Y-105094835D01*
X173402127Y-105100500D01*
X175197872Y-105100499D01*
X175257483Y-105094091D01*
X175392331Y-105043796D01*
X175507546Y-104957546D01*
X175593796Y-104842331D01*
X175644091Y-104707483D01*
X175650500Y-104647873D01*
X175650499Y-102925614D01*
X175651799Y-102907704D01*
X175652512Y-102902820D01*
X175652531Y-102893865D01*
X175650663Y-102857580D01*
X175650544Y-102852957D01*
X175650418Y-102850612D01*
X175650095Y-102846574D01*
X175649748Y-102839808D01*
X175649747Y-102839804D01*
X175649747Y-102839802D01*
X175648840Y-102833779D01*
X175648996Y-102833755D01*
X175647817Y-102827178D01*
X175644091Y-102792518D01*
X175634585Y-102767032D01*
X175626844Y-102746277D01*
X175622818Y-102733373D01*
X175614457Y-102700323D01*
X175463841Y-102334541D01*
X175309840Y-101960538D01*
X175300500Y-101913325D01*
X175300500Y-96845782D01*
X175320185Y-96778743D01*
X175336819Y-96758101D01*
X175545966Y-96548954D01*
X175825874Y-96269045D01*
X175843527Y-96254395D01*
X176899525Y-95531870D01*
X176917125Y-95521835D01*
X176962734Y-95500568D01*
X177149139Y-95370047D01*
X177180880Y-95338304D01*
X177186117Y-95333536D01*
X177186081Y-95333497D01*
X177188343Y-95331421D01*
X177188362Y-95331406D01*
X177233857Y-95285328D01*
X177234092Y-95285092D01*
X177310047Y-95209139D01*
X177440568Y-95022734D01*
X177536739Y-94816496D01*
X177595635Y-94596692D01*
X177615468Y-94370000D01*
X177595635Y-94143308D01*
X177536739Y-93923504D01*
X177440568Y-93717266D01*
X177310047Y-93530861D01*
X177310045Y-93530858D01*
X177149141Y-93369954D01*
X176962734Y-93239432D01*
X176962732Y-93239431D01*
X176756497Y-93143261D01*
X176756488Y-93143258D01*
X176536697Y-93084366D01*
X176536693Y-93084365D01*
X176536692Y-93084365D01*
X176536691Y-93084364D01*
X176536686Y-93084364D01*
X176310002Y-93064532D01*
X176309998Y-93064532D01*
X176083313Y-93084364D01*
X176083302Y-93084366D01*
X175863511Y-93143258D01*
X175863502Y-93143261D01*
X175657267Y-93239431D01*
X175657265Y-93239432D01*
X175470858Y-93369954D01*
X175309954Y-93530858D01*
X175179432Y-93717264D01*
X175179430Y-93717268D01*
X175158171Y-93762857D01*
X175148125Y-93780476D01*
X175141237Y-93790542D01*
X175087132Y-93834752D01*
X175017716Y-93842693D01*
X174955025Y-93811843D01*
X174926521Y-93772922D01*
X174900568Y-93717266D01*
X174770047Y-93530861D01*
X174770045Y-93530858D01*
X174609141Y-93369954D01*
X174422734Y-93239432D01*
X174422732Y-93239431D01*
X174216497Y-93143261D01*
X174216488Y-93143258D01*
X173996697Y-93084366D01*
X173996693Y-93084365D01*
X173996692Y-93084365D01*
X173996691Y-93084364D01*
X173996686Y-93084364D01*
X173770002Y-93064532D01*
X173769998Y-93064532D01*
X173543313Y-93084364D01*
X173543302Y-93084366D01*
X173323511Y-93143258D01*
X173323502Y-93143261D01*
X173117267Y-93239431D01*
X173117265Y-93239432D01*
X172930858Y-93369954D01*
X172769954Y-93530858D01*
X172639432Y-93717264D01*
X172639430Y-93717268D01*
X172618171Y-93762857D01*
X172608125Y-93780476D01*
X172601237Y-93790542D01*
X172547132Y-93834752D01*
X172477716Y-93842693D01*
X172415025Y-93811843D01*
X172386521Y-93772922D01*
X172360568Y-93717266D01*
X172230047Y-93530861D01*
X172230045Y-93530858D01*
X172069141Y-93369954D01*
X171882734Y-93239432D01*
X171882732Y-93239431D01*
X171676497Y-93143261D01*
X171676488Y-93143258D01*
X171456697Y-93084366D01*
X171456693Y-93084365D01*
X171456692Y-93084365D01*
X171456691Y-93084364D01*
X171456686Y-93084364D01*
X171230002Y-93064532D01*
X171229998Y-93064532D01*
X171003313Y-93084364D01*
X171003302Y-93084366D01*
X170783511Y-93143258D01*
X170783502Y-93143261D01*
X170577267Y-93239431D01*
X170577265Y-93239432D01*
X170390858Y-93369954D01*
X170229954Y-93530858D01*
X170099432Y-93717265D01*
X170099430Y-93717269D01*
X170072380Y-93775276D01*
X170026206Y-93827714D01*
X169959012Y-93846865D01*
X169892132Y-93826648D01*
X169847617Y-93775273D01*
X169846522Y-93772924D01*
X169820568Y-93717266D01*
X169690047Y-93530861D01*
X169690045Y-93530858D01*
X169529141Y-93369954D01*
X169342734Y-93239432D01*
X169342732Y-93239431D01*
X169136497Y-93143261D01*
X169136488Y-93143258D01*
X168916697Y-93084366D01*
X168916693Y-93084365D01*
X168916692Y-93084365D01*
X168916691Y-93084364D01*
X168916686Y-93084364D01*
X168690002Y-93064532D01*
X168689998Y-93064532D01*
X168463313Y-93084364D01*
X168463302Y-93084366D01*
X168243511Y-93143258D01*
X168243502Y-93143261D01*
X168037267Y-93239431D01*
X168037265Y-93239432D01*
X167850858Y-93369954D01*
X167689954Y-93530858D01*
X167559432Y-93717265D01*
X167559431Y-93717267D01*
X167559429Y-93717272D01*
X167533480Y-93772921D01*
X167532382Y-93775275D01*
X167486209Y-93827714D01*
X167419016Y-93846866D01*
X167352135Y-93826650D01*
X167307618Y-93775275D01*
X167306522Y-93772924D01*
X167280568Y-93717266D01*
X167150047Y-93530861D01*
X167150045Y-93530858D01*
X166989141Y-93369954D01*
X166802734Y-93239432D01*
X166802732Y-93239431D01*
X166596497Y-93143261D01*
X166596488Y-93143258D01*
X166376697Y-93084366D01*
X166376693Y-93084365D01*
X166376692Y-93084365D01*
X166376691Y-93084364D01*
X166376686Y-93084364D01*
X166150002Y-93064532D01*
X166149998Y-93064532D01*
X165923313Y-93084364D01*
X165923302Y-93084366D01*
X165703511Y-93143258D01*
X165703502Y-93143261D01*
X165497267Y-93239431D01*
X165497265Y-93239432D01*
X165310858Y-93369954D01*
X165149954Y-93530858D01*
X165019434Y-93717263D01*
X165019432Y-93717266D01*
X164993480Y-93772921D01*
X164992382Y-93775275D01*
X164946209Y-93827714D01*
X164879015Y-93846865D01*
X164812134Y-93826649D01*
X164767618Y-93775275D01*
X164766522Y-93772924D01*
X164740568Y-93717266D01*
X164610047Y-93530861D01*
X164610045Y-93530858D01*
X164449141Y-93369954D01*
X164262734Y-93239432D01*
X164262732Y-93239431D01*
X164056497Y-93143261D01*
X164056488Y-93143258D01*
X163836697Y-93084366D01*
X163836693Y-93084365D01*
X163836692Y-93084365D01*
X163836691Y-93084364D01*
X163836686Y-93084364D01*
X163610002Y-93064532D01*
X163609998Y-93064532D01*
X163383313Y-93084364D01*
X163383302Y-93084366D01*
X163163511Y-93143258D01*
X163163502Y-93143261D01*
X162957267Y-93239431D01*
X162957265Y-93239432D01*
X162770858Y-93369954D01*
X162609954Y-93530858D01*
X162479432Y-93717265D01*
X162479428Y-93717272D01*
X162453477Y-93772924D01*
X162407304Y-93825363D01*
X162340111Y-93844514D01*
X162273230Y-93824297D01*
X162238760Y-93790542D01*
X162231873Y-93780477D01*
X162231872Y-93780476D01*
X162231871Y-93780474D01*
X162221833Y-93762869D01*
X162200568Y-93717266D01*
X162167605Y-93670189D01*
X162070046Y-93530859D01*
X162038325Y-93499139D01*
X162033528Y-93493873D01*
X162033489Y-93493909D01*
X162031405Y-93491636D01*
X161985353Y-93446164D01*
X161984934Y-93445748D01*
X161909139Y-93369953D01*
X161909138Y-93369952D01*
X161909137Y-93369951D01*
X161722734Y-93239432D01*
X161722732Y-93239431D01*
X161516497Y-93143261D01*
X161516488Y-93143258D01*
X161296697Y-93084366D01*
X161296693Y-93084365D01*
X161296692Y-93084365D01*
X161296691Y-93084364D01*
X161296686Y-93084364D01*
X161070002Y-93064532D01*
X161069998Y-93064532D01*
X160843313Y-93084364D01*
X160843302Y-93084366D01*
X160623511Y-93143258D01*
X160623502Y-93143261D01*
X160417267Y-93239431D01*
X160417265Y-93239432D01*
X160230858Y-93369954D01*
X160069954Y-93530858D01*
X159939432Y-93717265D01*
X159939428Y-93717272D01*
X159913477Y-93772924D01*
X159867304Y-93825363D01*
X159800111Y-93844514D01*
X159733230Y-93824297D01*
X159698760Y-93790542D01*
X159691873Y-93780477D01*
X159691872Y-93780476D01*
X159691871Y-93780474D01*
X159681833Y-93762869D01*
X159660568Y-93717266D01*
X159627605Y-93670189D01*
X159530046Y-93530859D01*
X159498325Y-93499139D01*
X159493528Y-93493873D01*
X159493489Y-93493909D01*
X159491405Y-93491636D01*
X159445353Y-93446164D01*
X159444934Y-93445748D01*
X159369139Y-93369953D01*
X159369138Y-93369952D01*
X159369137Y-93369951D01*
X159182734Y-93239432D01*
X159182732Y-93239431D01*
X158976497Y-93143261D01*
X158976488Y-93143258D01*
X158756697Y-93084366D01*
X158756693Y-93084365D01*
X158756692Y-93084365D01*
X158756691Y-93084364D01*
X158756686Y-93084364D01*
X158530002Y-93064532D01*
X158529998Y-93064532D01*
X158303313Y-93084364D01*
X158303302Y-93084366D01*
X158083511Y-93143258D01*
X158083502Y-93143261D01*
X157877267Y-93239431D01*
X157877265Y-93239432D01*
X157690858Y-93369954D01*
X157529954Y-93530858D01*
X157399432Y-93717265D01*
X157399428Y-93717272D01*
X157373477Y-93772924D01*
X157327304Y-93825363D01*
X157260111Y-93844514D01*
X157193230Y-93824297D01*
X157158760Y-93790542D01*
X157151873Y-93780477D01*
X157151872Y-93780476D01*
X157151871Y-93780474D01*
X157141833Y-93762869D01*
X157120568Y-93717266D01*
X157087605Y-93670189D01*
X156990046Y-93530859D01*
X156958325Y-93499139D01*
X156953528Y-93493873D01*
X156953489Y-93493909D01*
X156951405Y-93491636D01*
X156905353Y-93446164D01*
X156904934Y-93445748D01*
X156829139Y-93369953D01*
X156829138Y-93369952D01*
X156829137Y-93369951D01*
X156642734Y-93239432D01*
X156642732Y-93239431D01*
X156436496Y-93143261D01*
X156425768Y-93140386D01*
X156366109Y-93104018D01*
X156335584Y-93041169D01*
X156343882Y-92971794D01*
X156352331Y-92955514D01*
X156359354Y-92944127D01*
X156359358Y-92944119D01*
X156414505Y-92777697D01*
X156414506Y-92777690D01*
X156424999Y-92674986D01*
X156425000Y-92674973D01*
X156425000Y-92400000D01*
X155461500Y-92400000D01*
X155394461Y-92380315D01*
X155348706Y-92327511D01*
X155337500Y-92276000D01*
X155337500Y-92150000D01*
X155211500Y-92150000D01*
X155144461Y-92130315D01*
X155098706Y-92077511D01*
X155087500Y-92026000D01*
X155087500Y-91900000D01*
X155587500Y-91900000D01*
X156424999Y-91900000D01*
X156424999Y-91625028D01*
X156424998Y-91625013D01*
X156414505Y-91522302D01*
X156359358Y-91355880D01*
X156359356Y-91355875D01*
X156267315Y-91206654D01*
X156198342Y-91137681D01*
X156164857Y-91076358D01*
X156169841Y-91006666D01*
X156198342Y-90962319D01*
X156267315Y-90893345D01*
X156359356Y-90744124D01*
X156359358Y-90744119D01*
X156414505Y-90577697D01*
X156414506Y-90577690D01*
X156424999Y-90474986D01*
X156425000Y-90474973D01*
X156425000Y-90200000D01*
X155587500Y-90200000D01*
X155587500Y-91900000D01*
X155087500Y-91900000D01*
X155087500Y-89700000D01*
X155587500Y-89700000D01*
X156424999Y-89700000D01*
X156424999Y-89425028D01*
X156424998Y-89425013D01*
X156414505Y-89322302D01*
X156359358Y-89155880D01*
X156359356Y-89155875D01*
X156267315Y-89006654D01*
X156143345Y-88882684D01*
X155994124Y-88790643D01*
X155994119Y-88790641D01*
X155827697Y-88735494D01*
X155827690Y-88735493D01*
X155724986Y-88725000D01*
X155587500Y-88725000D01*
X155587500Y-89700000D01*
X155087500Y-89700000D01*
X155087500Y-88725000D01*
X154950027Y-88725000D01*
X154950012Y-88725001D01*
X154847302Y-88735494D01*
X154680880Y-88790641D01*
X154680875Y-88790643D01*
X154531654Y-88882684D01*
X154407683Y-89006655D01*
X154407679Y-89006660D01*
X154405826Y-89009665D01*
X154404018Y-89011290D01*
X154403202Y-89012323D01*
X154403025Y-89012183D01*
X154353874Y-89056385D01*
X154284911Y-89067601D01*
X154220831Y-89039752D01*
X154194753Y-89009653D01*
X154194737Y-89009628D01*
X154192712Y-89006344D01*
X154068656Y-88882288D01*
X153975888Y-88825069D01*
X153919336Y-88790187D01*
X153919331Y-88790185D01*
X153917862Y-88789698D01*
X153752797Y-88735001D01*
X153752795Y-88735000D01*
X153650010Y-88724500D01*
X152874998Y-88724500D01*
X152874980Y-88724501D01*
X152772203Y-88735000D01*
X152772200Y-88735001D01*
X152605668Y-88790185D01*
X152605663Y-88790187D01*
X152456342Y-88882289D01*
X152332289Y-89006342D01*
X152240187Y-89155663D01*
X152240185Y-89155668D01*
X152240115Y-89155880D01*
X152185001Y-89322203D01*
X152185001Y-89322204D01*
X152185000Y-89322204D01*
X152174500Y-89424983D01*
X152174500Y-90439991D01*
X152174407Y-90444784D01*
X152172896Y-90483838D01*
X152172896Y-90483840D01*
X152230700Y-91037114D01*
X152230700Y-91062884D01*
X152172895Y-91616165D01*
X152170158Y-91668901D01*
X152170159Y-91671318D01*
X152170160Y-91671335D01*
X152173804Y-91705584D01*
X152174500Y-91718701D01*
X152174500Y-92639991D01*
X152174407Y-92644784D01*
X152172896Y-92683838D01*
X152172896Y-92683840D01*
X152226040Y-93192504D01*
X152226391Y-93214293D01*
X152201295Y-93562891D01*
X152176847Y-93628344D01*
X152120894Y-93670189D01*
X152051200Y-93675141D01*
X151989893Y-93641627D01*
X151976040Y-93625110D01*
X151958256Y-93599712D01*
X151910047Y-93530861D01*
X151910045Y-93530858D01*
X151749141Y-93369954D01*
X151562734Y-93239432D01*
X151562732Y-93239431D01*
X151356497Y-93143261D01*
X151356488Y-93143258D01*
X151136697Y-93084366D01*
X151136693Y-93084365D01*
X151136692Y-93084365D01*
X151136691Y-93084364D01*
X151136686Y-93084364D01*
X150910002Y-93064532D01*
X150909998Y-93064532D01*
X150683313Y-93084364D01*
X150683302Y-93084366D01*
X150463511Y-93143258D01*
X150463502Y-93143261D01*
X150257267Y-93239431D01*
X150257265Y-93239432D01*
X150070858Y-93369954D01*
X149909954Y-93530858D01*
X149779432Y-93717264D01*
X149779430Y-93717268D01*
X149758171Y-93762857D01*
X149748125Y-93780476D01*
X149741237Y-93790542D01*
X149687132Y-93834752D01*
X149617716Y-93842693D01*
X149555025Y-93811843D01*
X149526521Y-93772922D01*
X149500568Y-93717266D01*
X149370047Y-93530861D01*
X149370045Y-93530858D01*
X149209141Y-93369954D01*
X149022734Y-93239432D01*
X149022732Y-93239431D01*
X148816497Y-93143261D01*
X148816488Y-93143258D01*
X148596697Y-93084366D01*
X148596693Y-93084365D01*
X148596692Y-93084365D01*
X148596691Y-93084364D01*
X148596686Y-93084364D01*
X148370002Y-93064532D01*
X148369998Y-93064532D01*
X148143313Y-93084364D01*
X148143302Y-93084366D01*
X147923511Y-93143258D01*
X147923502Y-93143261D01*
X147717267Y-93239431D01*
X147717265Y-93239432D01*
X147530858Y-93369954D01*
X147369954Y-93530858D01*
X147239432Y-93717264D01*
X147239430Y-93717268D01*
X147218171Y-93762857D01*
X147208125Y-93780476D01*
X147201237Y-93790542D01*
X147147132Y-93834752D01*
X147077716Y-93842693D01*
X147015025Y-93811843D01*
X146986521Y-93772922D01*
X146960568Y-93717266D01*
X146830047Y-93530861D01*
X146830045Y-93530858D01*
X146669141Y-93369954D01*
X146482734Y-93239432D01*
X146482732Y-93239431D01*
X146276497Y-93143261D01*
X146276488Y-93143258D01*
X146056697Y-93084366D01*
X146056693Y-93084365D01*
X146056692Y-93084365D01*
X146056691Y-93084364D01*
X146056686Y-93084364D01*
X145830002Y-93064532D01*
X145829998Y-93064532D01*
X145603313Y-93084364D01*
X145603302Y-93084366D01*
X145383511Y-93143258D01*
X145383502Y-93143261D01*
X145177267Y-93239431D01*
X145177265Y-93239432D01*
X144990858Y-93369954D01*
X144829954Y-93530858D01*
X144699432Y-93717264D01*
X144699430Y-93717268D01*
X144678171Y-93762857D01*
X144668125Y-93780476D01*
X144661237Y-93790542D01*
X144607132Y-93834752D01*
X144537716Y-93842693D01*
X144475025Y-93811843D01*
X144446521Y-93772922D01*
X144420568Y-93717266D01*
X144290047Y-93530861D01*
X144290045Y-93530858D01*
X144129141Y-93369954D01*
X143942734Y-93239432D01*
X143942732Y-93239431D01*
X143736497Y-93143261D01*
X143736488Y-93143258D01*
X143516697Y-93084366D01*
X143516693Y-93084365D01*
X143516692Y-93084365D01*
X143516691Y-93084364D01*
X143516686Y-93084364D01*
X143290002Y-93064532D01*
X143289998Y-93064532D01*
X143063313Y-93084364D01*
X143063302Y-93084366D01*
X142843511Y-93143258D01*
X142843502Y-93143261D01*
X142637267Y-93239431D01*
X142637265Y-93239432D01*
X142450858Y-93369954D01*
X142289954Y-93530858D01*
X142159432Y-93717264D01*
X142159430Y-93717268D01*
X142138171Y-93762857D01*
X142128125Y-93780476D01*
X142121237Y-93790542D01*
X142067132Y-93834752D01*
X141997716Y-93842693D01*
X141935025Y-93811843D01*
X141906521Y-93772922D01*
X141880568Y-93717266D01*
X141750047Y-93530861D01*
X141750045Y-93530858D01*
X141589141Y-93369954D01*
X141402734Y-93239432D01*
X141402732Y-93239431D01*
X141196497Y-93143261D01*
X141196488Y-93143258D01*
X140976697Y-93084366D01*
X140976693Y-93084365D01*
X140976692Y-93084365D01*
X140976691Y-93084364D01*
X140976686Y-93084364D01*
X140750002Y-93064532D01*
X140749998Y-93064532D01*
X140523313Y-93084364D01*
X140523302Y-93084366D01*
X140303511Y-93143258D01*
X140303502Y-93143261D01*
X140097267Y-93239431D01*
X140097265Y-93239432D01*
X139910858Y-93369954D01*
X139749954Y-93530858D01*
X139619432Y-93717264D01*
X139619430Y-93717268D01*
X139598171Y-93762857D01*
X139588125Y-93780476D01*
X139581237Y-93790542D01*
X139527132Y-93834752D01*
X139457716Y-93842693D01*
X139395025Y-93811843D01*
X139366521Y-93772922D01*
X139340568Y-93717266D01*
X139210047Y-93530861D01*
X139210045Y-93530858D01*
X139049141Y-93369954D01*
X138862734Y-93239432D01*
X138862732Y-93239431D01*
X138656497Y-93143261D01*
X138656488Y-93143258D01*
X138436697Y-93084366D01*
X138436693Y-93084365D01*
X138436692Y-93084365D01*
X138436691Y-93084364D01*
X138436686Y-93084364D01*
X138210002Y-93064532D01*
X138209998Y-93064532D01*
X137983313Y-93084364D01*
X137983302Y-93084366D01*
X137763511Y-93143258D01*
X137763502Y-93143261D01*
X137557267Y-93239431D01*
X137557265Y-93239432D01*
X137370858Y-93369954D01*
X137209954Y-93530858D01*
X137079432Y-93717264D01*
X137079430Y-93717268D01*
X137058448Y-93762263D01*
X137012275Y-93814701D01*
X136945081Y-93833852D01*
X136878200Y-93813635D01*
X136832866Y-93760469D01*
X136830762Y-93755469D01*
X136661745Y-93327906D01*
X136623124Y-93230206D01*
X136616785Y-93160624D01*
X136632597Y-93120020D01*
X136689522Y-93026759D01*
X136707673Y-93003693D01*
X136742712Y-92968656D01*
X136834814Y-92819334D01*
X136889999Y-92652797D01*
X136900500Y-92550009D01*
X136900499Y-91749992D01*
X136892215Y-91668901D01*
X136889999Y-91647203D01*
X136889998Y-91647200D01*
X136879712Y-91616160D01*
X136834814Y-91480666D01*
X136742712Y-91331344D01*
X136649049Y-91237681D01*
X136615564Y-91176358D01*
X136620548Y-91106666D01*
X136649049Y-91062319D01*
X136674254Y-91037114D01*
X136742712Y-90968656D01*
X136834814Y-90819334D01*
X136889999Y-90652797D01*
X136900500Y-90550009D01*
X136900499Y-89749992D01*
X136889999Y-89647203D01*
X136834814Y-89480666D01*
X136742712Y-89331344D01*
X136618656Y-89207288D01*
X136469334Y-89115186D01*
X136302797Y-89060001D01*
X136302795Y-89060000D01*
X136200016Y-89049500D01*
X136200009Y-89049500D01*
X135890520Y-89049500D01*
X135823481Y-89029815D01*
X135777726Y-88977011D01*
X135767782Y-88907853D01*
X135796807Y-88844297D01*
X135802839Y-88837819D01*
X135844111Y-88796546D01*
X135844112Y-88796545D01*
X135844112Y-88796544D01*
X135844114Y-88796543D01*
X135920775Y-88681811D01*
X135935333Y-88646666D01*
X135973578Y-88554332D01*
X135973580Y-88554328D01*
X135995467Y-88444297D01*
X136000500Y-88418996D01*
X136000500Y-88391518D01*
X136020185Y-88324479D01*
X136036815Y-88303841D01*
X136715522Y-87625133D01*
X136776843Y-87591650D01*
X136820848Y-87590078D01*
X136928111Y-87605500D01*
X136928114Y-87605500D01*
X137550000Y-87605500D01*
X137621940Y-87600355D01*
X137633726Y-87596893D01*
X137684559Y-87595534D01*
X137684804Y-87593262D01*
X137700497Y-87594949D01*
X137752127Y-87600500D01*
X138847872Y-87600499D01*
X138895721Y-87595355D01*
X138907475Y-87594092D01*
X138907476Y-87594091D01*
X138907483Y-87594091D01*
X138907489Y-87594088D01*
X138908478Y-87593855D01*
X138910536Y-87593762D01*
X138915197Y-87593262D01*
X138915228Y-87593553D01*
X138954651Y-87591791D01*
X139050000Y-87605500D01*
X139050003Y-87605500D01*
X139671886Y-87605500D01*
X139671889Y-87605500D01*
X139814304Y-87585024D01*
X139952259Y-87544517D01*
X140083137Y-87484747D01*
X140198477Y-87410622D01*
X140199915Y-87409804D01*
X140204098Y-87407011D01*
X140269992Y-87349912D01*
X140312832Y-87312791D01*
X140406986Y-87204130D01*
X140469111Y-87107460D01*
X140521913Y-87061706D01*
X140573426Y-87050500D01*
X140768996Y-87050500D01*
X140877457Y-87028925D01*
X140904328Y-87023580D01*
X140968069Y-86997177D01*
X141031807Y-86970777D01*
X141031808Y-86970776D01*
X141031811Y-86970775D01*
X141146543Y-86894114D01*
X141844114Y-86196543D01*
X141920775Y-86081811D01*
X141973580Y-85954329D01*
X141983699Y-85903457D01*
X141989299Y-85875302D01*
X142000500Y-85818995D01*
X142000500Y-83881004D01*
X141973581Y-83745677D01*
X141973580Y-83745676D01*
X141973580Y-83745672D01*
X141920775Y-83618189D01*
X141872321Y-83545672D01*
X141844114Y-83503457D01*
X141844111Y-83503453D01*
X140946545Y-82605887D01*
X140831807Y-82529222D01*
X140704332Y-82476421D01*
X140704322Y-82476418D01*
X140568996Y-82449500D01*
X140568994Y-82449500D01*
X140568993Y-82449500D01*
X140031007Y-82449500D01*
X140031005Y-82449500D01*
X139895677Y-82476418D01*
X139895671Y-82476420D01*
X139862740Y-82490061D01*
X139815287Y-82499500D01*
X139624500Y-82499500D01*
X139557461Y-82479815D01*
X139511706Y-82427011D01*
X139500500Y-82375500D01*
X139500499Y-81749998D01*
X139500498Y-81749980D01*
X139489999Y-81647203D01*
X139489998Y-81647200D01*
X139467589Y-81579575D01*
X139434814Y-81480666D01*
X139342712Y-81331344D01*
X139307680Y-81296312D01*
X139289520Y-81273234D01*
X139249268Y-81207288D01*
X139034057Y-80854701D01*
X139015932Y-80787226D01*
X139022931Y-80748937D01*
X139372402Y-79756050D01*
X139413227Y-79699350D01*
X139478227Y-79673721D01*
X139546764Y-79687303D01*
X139597078Y-79735783D01*
X139601750Y-79744815D01*
X139619431Y-79782732D01*
X139619432Y-79782734D01*
X139749954Y-79969141D01*
X139910858Y-80130045D01*
X139910861Y-80130047D01*
X140097266Y-80260568D01*
X140303504Y-80356739D01*
X140523308Y-80415635D01*
X140685230Y-80429801D01*
X140749998Y-80435468D01*
X140750000Y-80435468D01*
X140750002Y-80435468D01*
X140806673Y-80430509D01*
X140976692Y-80415635D01*
X141196496Y-80356739D01*
X141402734Y-80260568D01*
X141589139Y-80130047D01*
X141750047Y-79969139D01*
X141880568Y-79782734D01*
X141907618Y-79724723D01*
X141953788Y-79672286D01*
X142020981Y-79653133D01*
X142087862Y-79673348D01*
X142132380Y-79724722D01*
X142159432Y-79782734D01*
X142206887Y-79850508D01*
X142289954Y-79969141D01*
X142450858Y-80130045D01*
X142450861Y-80130047D01*
X142637266Y-80260568D01*
X142843504Y-80356739D01*
X143063308Y-80415635D01*
X143225230Y-80429801D01*
X143289998Y-80435468D01*
X143290000Y-80435468D01*
X143290002Y-80435468D01*
X143346673Y-80430509D01*
X143516692Y-80415635D01*
X143736496Y-80356739D01*
X143942734Y-80260568D01*
X144129139Y-80130047D01*
X144290047Y-79969139D01*
X144420568Y-79782734D01*
X144447618Y-79724724D01*
X144493790Y-79672285D01*
X144560983Y-79653133D01*
X144627865Y-79673348D01*
X144672381Y-79724724D01*
X144673870Y-79727916D01*
X144699429Y-79782728D01*
X144699432Y-79782734D01*
X144829954Y-79969141D01*
X144990858Y-80130045D01*
X144990861Y-80130047D01*
X145177266Y-80260568D01*
X145383504Y-80356739D01*
X145603308Y-80415635D01*
X145765230Y-80429801D01*
X145829998Y-80435468D01*
X145830000Y-80435468D01*
X145830002Y-80435468D01*
X145886673Y-80430509D01*
X146056692Y-80415635D01*
X146276496Y-80356739D01*
X146482734Y-80260568D01*
X146669139Y-80130047D01*
X146830047Y-79969139D01*
X146960568Y-79782734D01*
X146987618Y-79724724D01*
X147033790Y-79672285D01*
X147100983Y-79653133D01*
X147167865Y-79673348D01*
X147212381Y-79724724D01*
X147213870Y-79727916D01*
X147239429Y-79782728D01*
X147239432Y-79782734D01*
X147369954Y-79969141D01*
X147530858Y-80130045D01*
X147530861Y-80130047D01*
X147717266Y-80260568D01*
X147923504Y-80356739D01*
X148143308Y-80415635D01*
X148305230Y-80429801D01*
X148369998Y-80435468D01*
X148370000Y-80435468D01*
X148370002Y-80435468D01*
X148426673Y-80430509D01*
X148596692Y-80415635D01*
X148816496Y-80356739D01*
X149022734Y-80260568D01*
X149209139Y-80130047D01*
X149370047Y-79969139D01*
X149500568Y-79782734D01*
X149527619Y-79724721D01*
X149573788Y-79672287D01*
X149640982Y-79653134D01*
X149707863Y-79673349D01*
X149752381Y-79724724D01*
X149779431Y-79782733D01*
X149909954Y-79969141D01*
X150070858Y-80130045D01*
X150070861Y-80130047D01*
X150257266Y-80260568D01*
X150463504Y-80356739D01*
X150683308Y-80415635D01*
X150845230Y-80429801D01*
X150909998Y-80435468D01*
X150910000Y-80435468D01*
X150910002Y-80435468D01*
X150966673Y-80430509D01*
X151136692Y-80415635D01*
X151356496Y-80356739D01*
X151562734Y-80260568D01*
X151749139Y-80130047D01*
X151910047Y-79969139D01*
X152040568Y-79782734D01*
X152067893Y-79724134D01*
X152114065Y-79671695D01*
X152181258Y-79652543D01*
X152248139Y-79672758D01*
X152292657Y-79724134D01*
X152319864Y-79782480D01*
X152370974Y-79855472D01*
X152926212Y-79300234D01*
X152937482Y-79342292D01*
X153009890Y-79467708D01*
X153112292Y-79570110D01*
X153237708Y-79642518D01*
X153279765Y-79653787D01*
X152724526Y-80209025D01*
X152797513Y-80260132D01*
X152797521Y-80260136D01*
X153003668Y-80356264D01*
X153003682Y-80356269D01*
X153223389Y-80415139D01*
X153223400Y-80415141D01*
X153449998Y-80434966D01*
X153450002Y-80434966D01*
X153676599Y-80415141D01*
X153676610Y-80415139D01*
X153896317Y-80356269D01*
X153896331Y-80356264D01*
X154102478Y-80260136D01*
X154175471Y-80209024D01*
X153620234Y-79653787D01*
X153662292Y-79642518D01*
X153787708Y-79570110D01*
X153890110Y-79467708D01*
X153962518Y-79342292D01*
X153973787Y-79300234D01*
X154529024Y-79855471D01*
X154580133Y-79782482D01*
X154607341Y-79724135D01*
X154653513Y-79671696D01*
X154720707Y-79652543D01*
X154787588Y-79672758D01*
X154832105Y-79724132D01*
X154859432Y-79782734D01*
X154906887Y-79850508D01*
X154989954Y-79969141D01*
X155150858Y-80130045D01*
X155150861Y-80130047D01*
X155337266Y-80260568D01*
X155543504Y-80356739D01*
X155763308Y-80415635D01*
X155925230Y-80429801D01*
X155989998Y-80435468D01*
X155990000Y-80435468D01*
X155990002Y-80435468D01*
X156046673Y-80430509D01*
X156216692Y-80415635D01*
X156436496Y-80356739D01*
X156642734Y-80260568D01*
X156829139Y-80130047D01*
X156990047Y-79969139D01*
X157120568Y-79782734D01*
X157147619Y-79724721D01*
X157193788Y-79672287D01*
X157260982Y-79653134D01*
X157327863Y-79673349D01*
X157372381Y-79724724D01*
X157399431Y-79782733D01*
X157529954Y-79969141D01*
X157690858Y-80130045D01*
X157690861Y-80130047D01*
X157877266Y-80260568D01*
X158083504Y-80356739D01*
X158303308Y-80415635D01*
X158465230Y-80429801D01*
X158529998Y-80435468D01*
X158530000Y-80435468D01*
X158530002Y-80435468D01*
X158586673Y-80430509D01*
X158756692Y-80415635D01*
X158976496Y-80356739D01*
X159182734Y-80260568D01*
X159369139Y-80130047D01*
X159530047Y-79969139D01*
X159660568Y-79782734D01*
X159686522Y-79727075D01*
X159732691Y-79674639D01*
X159799885Y-79655487D01*
X159866766Y-79675702D01*
X159901238Y-79709460D01*
X159908127Y-79719528D01*
X159918172Y-79737144D01*
X159939314Y-79782482D01*
X159939433Y-79782736D01*
X160069953Y-79969140D01*
X160101673Y-80000859D01*
X160106470Y-80006125D01*
X160106510Y-80006090D01*
X160108593Y-80008362D01*
X160154644Y-80053833D01*
X160155062Y-80054248D01*
X160230861Y-80130047D01*
X160417266Y-80260568D01*
X160623504Y-80356739D01*
X160843308Y-80415635D01*
X161005230Y-80429801D01*
X161069998Y-80435468D01*
X161070000Y-80435468D01*
X161070002Y-80435468D01*
X161126673Y-80430509D01*
X161296692Y-80415635D01*
X161516496Y-80356739D01*
X161722734Y-80260568D01*
X161909139Y-80130047D01*
X162070047Y-79969139D01*
X162200568Y-79782734D01*
X162226522Y-79727075D01*
X162272691Y-79674639D01*
X162339885Y-79655487D01*
X162406766Y-79675702D01*
X162441238Y-79709460D01*
X162448127Y-79719528D01*
X162458172Y-79737144D01*
X162479314Y-79782482D01*
X162479433Y-79782736D01*
X162609953Y-79969140D01*
X162641673Y-80000859D01*
X162646470Y-80006125D01*
X162646510Y-80006090D01*
X162648593Y-80008362D01*
X162694644Y-80053833D01*
X162695062Y-80054248D01*
X162770861Y-80130047D01*
X162957266Y-80260568D01*
X163163504Y-80356739D01*
X163383308Y-80415635D01*
X163545230Y-80429801D01*
X163609998Y-80435468D01*
X163610000Y-80435468D01*
X163610002Y-80435468D01*
X163666673Y-80430509D01*
X163836692Y-80415635D01*
X164056496Y-80356739D01*
X164262734Y-80260568D01*
X164449139Y-80130047D01*
X164610047Y-79969139D01*
X164740568Y-79782734D01*
X164766522Y-79727075D01*
X164812691Y-79674639D01*
X164879885Y-79655487D01*
X164946766Y-79675702D01*
X164981238Y-79709460D01*
X164988127Y-79719528D01*
X164998172Y-79737144D01*
X165019314Y-79782482D01*
X165019433Y-79782736D01*
X165149953Y-79969140D01*
X165181673Y-80000859D01*
X165186470Y-80006125D01*
X165186510Y-80006090D01*
X165188593Y-80008362D01*
X165234644Y-80053833D01*
X165235062Y-80054248D01*
X165310861Y-80130047D01*
X165497266Y-80260568D01*
X165703504Y-80356739D01*
X165923308Y-80415635D01*
X166085230Y-80429801D01*
X166149998Y-80435468D01*
X166150000Y-80435468D01*
X166150002Y-80435468D01*
X166206673Y-80430509D01*
X166376692Y-80415635D01*
X166596496Y-80356739D01*
X166802734Y-80260568D01*
X166989139Y-80130047D01*
X167150047Y-79969139D01*
X167280568Y-79782734D01*
X167306522Y-79727075D01*
X167352691Y-79674639D01*
X167419885Y-79655487D01*
X167486766Y-79675702D01*
X167521238Y-79709460D01*
X167528127Y-79719528D01*
X167538172Y-79737144D01*
X167559314Y-79782482D01*
X167559433Y-79782736D01*
X167689953Y-79969140D01*
X167721673Y-80000859D01*
X167726470Y-80006125D01*
X167726510Y-80006090D01*
X167728593Y-80008362D01*
X167774644Y-80053833D01*
X167775062Y-80054248D01*
X167850861Y-80130047D01*
X168037266Y-80260568D01*
X168243504Y-80356739D01*
X168463308Y-80415635D01*
X168625230Y-80429801D01*
X168689998Y-80435468D01*
X168690000Y-80435468D01*
X168690002Y-80435468D01*
X168746673Y-80430509D01*
X168916692Y-80415635D01*
X169136496Y-80356739D01*
X169342734Y-80260568D01*
X169529139Y-80130047D01*
X169690047Y-79969139D01*
X169820568Y-79782734D01*
X169846522Y-79727075D01*
X169892691Y-79674639D01*
X169959885Y-79655487D01*
X170026766Y-79675702D01*
X170061238Y-79709460D01*
X170068127Y-79719528D01*
X170078172Y-79737144D01*
X170099314Y-79782482D01*
X170099433Y-79782736D01*
X170229953Y-79969140D01*
X170261673Y-80000859D01*
X170266470Y-80006125D01*
X170266510Y-80006090D01*
X170268593Y-80008362D01*
X170314644Y-80053833D01*
X170315062Y-80054248D01*
X170390861Y-80130047D01*
X170577266Y-80260568D01*
X170783504Y-80356739D01*
X171003308Y-80415635D01*
X171165230Y-80429801D01*
X171229998Y-80435468D01*
X171230000Y-80435468D01*
X171230002Y-80435468D01*
X171286673Y-80430509D01*
X171456692Y-80415635D01*
X171676496Y-80356739D01*
X171882734Y-80260568D01*
X172069139Y-80130047D01*
X172230047Y-79969139D01*
X172360568Y-79782734D01*
X172386522Y-79727075D01*
X172432691Y-79674639D01*
X172499885Y-79655487D01*
X172566766Y-79675702D01*
X172601238Y-79709460D01*
X172608127Y-79719528D01*
X172618172Y-79737144D01*
X172639314Y-79782482D01*
X172639433Y-79782736D01*
X172769953Y-79969140D01*
X172801673Y-80000859D01*
X172806470Y-80006125D01*
X172806510Y-80006090D01*
X172808593Y-80008362D01*
X172854644Y-80053833D01*
X172855062Y-80054248D01*
X172930861Y-80130047D01*
X173117266Y-80260568D01*
X173323504Y-80356739D01*
X173543308Y-80415635D01*
X173705230Y-80429801D01*
X173769998Y-80435468D01*
X173770000Y-80435468D01*
X173770002Y-80435468D01*
X173826673Y-80430509D01*
X173996692Y-80415635D01*
X174216496Y-80356739D01*
X174422734Y-80260568D01*
X174609139Y-80130047D01*
X174770047Y-79969139D01*
X174900568Y-79782734D01*
X174926522Y-79727075D01*
X174972691Y-79674639D01*
X175039885Y-79655487D01*
X175106766Y-79675702D01*
X175141238Y-79709460D01*
X175148127Y-79719528D01*
X175158172Y-79737144D01*
X175179314Y-79782482D01*
X175179433Y-79782736D01*
X175309953Y-79969140D01*
X175341673Y-80000859D01*
X175346470Y-80006125D01*
X175346510Y-80006090D01*
X175348593Y-80008362D01*
X175394644Y-80053833D01*
X175395062Y-80054248D01*
X175470861Y-80130047D01*
X175657266Y-80260568D01*
X175863504Y-80356739D01*
X176083308Y-80415635D01*
X176245230Y-80429801D01*
X176309998Y-80435468D01*
X176310000Y-80435468D01*
X176310002Y-80435468D01*
X176366673Y-80430509D01*
X176536692Y-80415635D01*
X176756496Y-80356739D01*
X176962734Y-80260568D01*
X177149139Y-80130047D01*
X177310047Y-79969139D01*
X177440568Y-79782734D01*
X177536739Y-79576496D01*
X177595635Y-79356692D01*
X177615468Y-79130000D01*
X177595635Y-78903308D01*
X177536739Y-78683504D01*
X177440568Y-78477266D01*
X177310047Y-78290861D01*
X177310045Y-78290858D01*
X177149141Y-78129954D01*
X176962735Y-77999432D01*
X176962728Y-77999428D01*
X176917141Y-77978170D01*
X176899526Y-77968127D01*
X176432892Y-77648851D01*
X176432885Y-77648847D01*
X175843524Y-77245601D01*
X175825864Y-77230944D01*
X172836819Y-74241899D01*
X172803334Y-74180576D01*
X172800500Y-74154218D01*
X172800500Y-73086673D01*
X172809840Y-73039460D01*
X172846677Y-72950000D01*
X173114457Y-72299676D01*
X173133450Y-72236733D01*
X173135962Y-72229275D01*
X173144091Y-72207483D01*
X173150500Y-72147873D01*
X173150499Y-72052629D01*
X173150584Y-72048041D01*
X173150685Y-72045291D01*
X173150499Y-72041842D01*
X173150499Y-70352129D01*
X173150498Y-70352123D01*
X173150497Y-70352116D01*
X173144091Y-70292517D01*
X173138143Y-70276570D01*
X173093797Y-70157671D01*
X173093793Y-70157664D01*
X173007547Y-70042455D01*
X173007544Y-70042452D01*
X172892335Y-69956206D01*
X172892328Y-69956202D01*
X172757482Y-69905908D01*
X172757483Y-69905908D01*
X172697883Y-69899501D01*
X172697881Y-69899500D01*
X172697873Y-69899500D01*
X172697865Y-69899500D01*
X170924500Y-69899500D01*
X170857461Y-69879815D01*
X170811706Y-69827011D01*
X170800500Y-69775500D01*
X170800500Y-69286673D01*
X170809840Y-69239460D01*
X171114455Y-68499681D01*
X171114458Y-68499674D01*
X171133450Y-68436733D01*
X171135962Y-68429275D01*
X171144091Y-68407483D01*
X171148752Y-68364133D01*
X171150499Y-68347886D01*
X171150499Y-68347882D01*
X171150500Y-68347873D01*
X171150499Y-68252629D01*
X171150584Y-68248041D01*
X171150685Y-68245291D01*
X171150499Y-68241842D01*
X171150499Y-66552129D01*
X171150498Y-66552123D01*
X171150497Y-66552116D01*
X171144091Y-66492517D01*
X171093884Y-66357906D01*
X171093797Y-66357671D01*
X171093793Y-66357664D01*
X171007547Y-66242455D01*
X171007544Y-66242452D01*
X170892335Y-66156206D01*
X170892328Y-66156202D01*
X170757482Y-66105908D01*
X170757483Y-66105908D01*
X170697883Y-66099501D01*
X170697881Y-66099500D01*
X170697873Y-66099500D01*
X170697864Y-66099500D01*
X168902129Y-66099500D01*
X168902123Y-66099501D01*
X168842516Y-66105908D01*
X168707671Y-66156202D01*
X168707664Y-66156206D01*
X168592455Y-66242452D01*
X168592452Y-66242455D01*
X168506206Y-66357664D01*
X168506202Y-66357671D01*
X168455908Y-66492517D01*
X168449501Y-66552116D01*
X168449501Y-66552123D01*
X168449500Y-66552135D01*
X168449500Y-68274385D01*
X168448202Y-68292272D01*
X168447487Y-68297179D01*
X168447468Y-68306138D01*
X168449337Y-68342455D01*
X168449455Y-68347029D01*
X168449580Y-68349349D01*
X168449900Y-68353369D01*
X168450251Y-68360193D01*
X168451160Y-68366219D01*
X168451003Y-68366242D01*
X168452183Y-68372823D01*
X168455909Y-68407483D01*
X168473153Y-68453717D01*
X168477183Y-68466636D01*
X168485540Y-68499670D01*
X168695481Y-69009527D01*
X168731292Y-69096496D01*
X168788150Y-69234580D01*
X168790160Y-69239460D01*
X168799500Y-69286673D01*
X168799500Y-69775500D01*
X168779815Y-69842539D01*
X168727011Y-69888294D01*
X168675500Y-69899500D01*
X166924500Y-69899500D01*
X166857461Y-69879815D01*
X166811706Y-69827011D01*
X166800500Y-69775500D01*
X166800500Y-69286673D01*
X166809840Y-69239460D01*
X167114455Y-68499681D01*
X167114458Y-68499674D01*
X167133450Y-68436733D01*
X167135962Y-68429275D01*
X167144091Y-68407483D01*
X167148752Y-68364133D01*
X167150499Y-68347886D01*
X167150499Y-68347882D01*
X167150500Y-68347873D01*
X167150499Y-68252629D01*
X167150584Y-68248041D01*
X167150685Y-68245291D01*
X167150499Y-68241842D01*
X167150499Y-66552129D01*
X167150498Y-66552123D01*
X167150497Y-66552116D01*
X167144091Y-66492517D01*
X167093884Y-66357906D01*
X167093797Y-66357671D01*
X167093793Y-66357664D01*
X167007547Y-66242455D01*
X167007544Y-66242452D01*
X166892335Y-66156206D01*
X166892328Y-66156202D01*
X166757482Y-66105908D01*
X166757483Y-66105908D01*
X166697883Y-66099501D01*
X166697881Y-66099500D01*
X166697873Y-66099500D01*
X166697864Y-66099500D01*
X164902129Y-66099500D01*
X164902123Y-66099501D01*
X164842516Y-66105908D01*
X164707671Y-66156202D01*
X164707664Y-66156206D01*
X164592455Y-66242452D01*
X164592452Y-66242455D01*
X164506206Y-66357664D01*
X164506202Y-66357671D01*
X164455908Y-66492517D01*
X164449501Y-66552116D01*
X164449501Y-66552123D01*
X164449500Y-66552135D01*
X164449500Y-68274385D01*
X164448202Y-68292272D01*
X164447487Y-68297179D01*
X164447468Y-68306138D01*
X164449337Y-68342455D01*
X164449455Y-68347029D01*
X164449580Y-68349349D01*
X164449900Y-68353369D01*
X164450251Y-68360193D01*
X164451160Y-68366219D01*
X164451003Y-68366242D01*
X164452183Y-68372823D01*
X164455909Y-68407483D01*
X164473153Y-68453717D01*
X164477183Y-68466636D01*
X164485540Y-68499670D01*
X164695481Y-69009527D01*
X164731292Y-69096496D01*
X164788150Y-69234580D01*
X164790160Y-69239460D01*
X164799500Y-69286673D01*
X164799500Y-69775500D01*
X164779815Y-69842539D01*
X164727011Y-69888294D01*
X164675500Y-69899500D01*
X162924500Y-69899500D01*
X162857461Y-69879815D01*
X162811706Y-69827011D01*
X162800500Y-69775500D01*
X162800500Y-69286673D01*
X162809840Y-69239460D01*
X163114455Y-68499681D01*
X163114458Y-68499674D01*
X163133450Y-68436733D01*
X163135962Y-68429275D01*
X163144091Y-68407483D01*
X163148752Y-68364133D01*
X163150499Y-68347886D01*
X163150499Y-68347882D01*
X163150500Y-68347873D01*
X163150499Y-68252629D01*
X163150584Y-68248041D01*
X163150685Y-68245291D01*
X163150499Y-68241842D01*
X163150499Y-66552129D01*
X163150498Y-66552123D01*
X163150497Y-66552116D01*
X163144091Y-66492517D01*
X163093884Y-66357906D01*
X163093797Y-66357671D01*
X163093793Y-66357664D01*
X163007547Y-66242455D01*
X163007544Y-66242452D01*
X162892335Y-66156206D01*
X162892328Y-66156202D01*
X162757482Y-66105908D01*
X162757483Y-66105908D01*
X162697883Y-66099501D01*
X162697881Y-66099500D01*
X162697873Y-66099500D01*
X162697864Y-66099500D01*
X160902129Y-66099500D01*
X160902123Y-66099501D01*
X160842516Y-66105908D01*
X160707671Y-66156202D01*
X160707664Y-66156206D01*
X160592455Y-66242452D01*
X160592452Y-66242455D01*
X160506206Y-66357664D01*
X160506202Y-66357671D01*
X160455908Y-66492517D01*
X160449501Y-66552116D01*
X160449501Y-66552123D01*
X160449500Y-66552135D01*
X160449500Y-68274385D01*
X160448202Y-68292272D01*
X160447487Y-68297179D01*
X160447468Y-68306138D01*
X160449337Y-68342455D01*
X160449455Y-68347029D01*
X160449580Y-68349349D01*
X160449900Y-68353369D01*
X160450251Y-68360193D01*
X160451160Y-68366219D01*
X160451003Y-68366242D01*
X160452183Y-68372823D01*
X160455909Y-68407483D01*
X160473153Y-68453717D01*
X160477183Y-68466636D01*
X160485540Y-68499670D01*
X160695481Y-69009527D01*
X160731292Y-69096496D01*
X160788150Y-69234580D01*
X160790160Y-69239460D01*
X160799500Y-69286673D01*
X160799500Y-69775500D01*
X160779815Y-69842539D01*
X160727011Y-69888294D01*
X160675500Y-69899500D01*
X158924500Y-69899500D01*
X158857461Y-69879815D01*
X158811706Y-69827011D01*
X158800500Y-69775500D01*
X158800500Y-69286673D01*
X158809840Y-69239460D01*
X159114455Y-68499681D01*
X159114458Y-68499674D01*
X159133450Y-68436733D01*
X159135962Y-68429275D01*
X159144091Y-68407483D01*
X159148752Y-68364133D01*
X159150499Y-68347886D01*
X159150499Y-68347882D01*
X159150500Y-68347873D01*
X159150499Y-68252629D01*
X159150584Y-68248041D01*
X159150685Y-68245291D01*
X159150499Y-68241842D01*
X159150499Y-66552129D01*
X159150498Y-66552123D01*
X159150497Y-66552116D01*
X159144091Y-66492517D01*
X159093884Y-66357906D01*
X159093797Y-66357671D01*
X159093793Y-66357664D01*
X159007547Y-66242455D01*
X159007544Y-66242452D01*
X158892335Y-66156206D01*
X158892328Y-66156202D01*
X158757482Y-66105908D01*
X158757483Y-66105908D01*
X158697883Y-66099501D01*
X158697881Y-66099500D01*
X158697873Y-66099500D01*
X158697864Y-66099500D01*
X156902129Y-66099500D01*
X156902123Y-66099501D01*
X156842516Y-66105908D01*
X156707671Y-66156202D01*
X156707664Y-66156206D01*
X156592455Y-66242452D01*
X156592452Y-66242455D01*
X156506206Y-66357664D01*
X156506202Y-66357671D01*
X156455908Y-66492517D01*
X156449501Y-66552116D01*
X156449501Y-66552123D01*
X156449500Y-66552135D01*
X156449500Y-68274385D01*
X156448202Y-68292272D01*
X156447487Y-68297179D01*
X156447468Y-68306138D01*
X156449337Y-68342455D01*
X156449455Y-68347029D01*
X156449580Y-68349349D01*
X156449900Y-68353369D01*
X156450251Y-68360193D01*
X156451160Y-68366219D01*
X156451003Y-68366242D01*
X156452183Y-68372823D01*
X156455909Y-68407483D01*
X156473153Y-68453717D01*
X156477183Y-68466636D01*
X156485540Y-68499670D01*
X156695481Y-69009527D01*
X156731292Y-69096496D01*
X156788150Y-69234580D01*
X156790160Y-69239460D01*
X156799500Y-69286673D01*
X156799500Y-69775500D01*
X156779815Y-69842539D01*
X156727011Y-69888294D01*
X156675500Y-69899500D01*
X154902129Y-69899500D01*
X154902123Y-69899501D01*
X154842516Y-69905908D01*
X154707671Y-69956202D01*
X154707664Y-69956206D01*
X154592455Y-70042452D01*
X154592452Y-70042455D01*
X154506206Y-70157664D01*
X154506202Y-70157671D01*
X154455908Y-70292517D01*
X154450540Y-70342452D01*
X154449501Y-70352123D01*
X154449500Y-70352135D01*
X154449500Y-72147870D01*
X154449501Y-72147876D01*
X154455908Y-72207483D01*
X154506202Y-72342328D01*
X154506206Y-72342335D01*
X154565157Y-72421082D01*
X154592454Y-72457546D01*
X154592457Y-72457548D01*
X154592460Y-72457551D01*
X154677357Y-72521106D01*
X154712623Y-72562330D01*
X154975077Y-73057822D01*
X154989500Y-73115862D01*
X154989500Y-77444822D01*
X154987376Y-77467674D01*
X154806342Y-78433184D01*
X154774640Y-78495447D01*
X154714308Y-78530687D01*
X154644502Y-78527715D01*
X154587384Y-78487475D01*
X154582891Y-78481456D01*
X154529024Y-78404527D01*
X153973787Y-78959764D01*
X153962518Y-78917708D01*
X153890110Y-78792292D01*
X153787708Y-78689890D01*
X153662292Y-78617482D01*
X153620233Y-78606212D01*
X154175472Y-78050974D01*
X154102478Y-77999863D01*
X153896331Y-77903735D01*
X153896317Y-77903730D01*
X153676610Y-77844860D01*
X153676599Y-77844858D01*
X153450002Y-77825034D01*
X153449998Y-77825034D01*
X153223400Y-77844858D01*
X153223389Y-77844860D01*
X153003682Y-77903730D01*
X153003673Y-77903734D01*
X152797516Y-77999866D01*
X152797512Y-77999868D01*
X152724526Y-78050973D01*
X152724526Y-78050974D01*
X153279765Y-78606212D01*
X153237708Y-78617482D01*
X153112292Y-78689890D01*
X153009890Y-78792292D01*
X152937482Y-78917708D01*
X152926212Y-78959765D01*
X152370974Y-78404526D01*
X152370973Y-78404526D01*
X152319868Y-78477512D01*
X152319868Y-78477513D01*
X152292657Y-78535867D01*
X152246484Y-78588306D01*
X152179290Y-78607457D01*
X152112409Y-78587241D01*
X152067893Y-78535865D01*
X152065478Y-78530687D01*
X152040568Y-78477266D01*
X151910047Y-78290861D01*
X151910045Y-78290858D01*
X151749141Y-78129954D01*
X151562734Y-77999432D01*
X151562732Y-77999431D01*
X151495611Y-77968132D01*
X151442436Y-77943336D01*
X151429456Y-77936313D01*
X151408389Y-77923237D01*
X150913530Y-77706571D01*
X150875582Y-77680662D01*
X150836819Y-77641899D01*
X150803334Y-77580576D01*
X150800500Y-77554218D01*
X150800500Y-72724000D01*
X150820185Y-72656961D01*
X150872989Y-72611206D01*
X150924500Y-72600000D01*
X151550000Y-72600000D01*
X151550000Y-71683012D01*
X151607007Y-71715925D01*
X151734174Y-71750000D01*
X151865826Y-71750000D01*
X151992993Y-71715925D01*
X152050000Y-71683012D01*
X152050000Y-72600000D01*
X152697828Y-72600000D01*
X152697844Y-72599999D01*
X152757372Y-72593598D01*
X152757379Y-72593596D01*
X152892086Y-72543354D01*
X152892093Y-72543350D01*
X153007187Y-72457190D01*
X153007190Y-72457187D01*
X153093350Y-72342093D01*
X153093354Y-72342086D01*
X153143596Y-72207379D01*
X153143598Y-72207372D01*
X153149999Y-72147844D01*
X153150000Y-72147827D01*
X153150000Y-71500000D01*
X152233012Y-71500000D01*
X152265925Y-71442993D01*
X152300000Y-71315826D01*
X152300000Y-71184174D01*
X152265925Y-71057007D01*
X152233012Y-71000000D01*
X153150000Y-71000000D01*
X153150000Y-70352172D01*
X153149999Y-70352155D01*
X153143598Y-70292627D01*
X153143596Y-70292620D01*
X153093354Y-70157913D01*
X153093350Y-70157906D01*
X153007190Y-70042812D01*
X153007187Y-70042809D01*
X152892093Y-69956649D01*
X152892086Y-69956645D01*
X152757379Y-69906403D01*
X152757372Y-69906401D01*
X152697844Y-69900000D01*
X152050000Y-69900000D01*
X152050000Y-70816988D01*
X151992993Y-70784075D01*
X151865826Y-70750000D01*
X151734174Y-70750000D01*
X151607007Y-70784075D01*
X151550000Y-70816988D01*
X151550000Y-69900000D01*
X150924500Y-69900000D01*
X150857461Y-69880315D01*
X150811706Y-69827511D01*
X150800500Y-69776000D01*
X150800500Y-69286673D01*
X150809840Y-69239460D01*
X151114455Y-68499681D01*
X151114458Y-68499674D01*
X151133450Y-68436733D01*
X151135962Y-68429275D01*
X151144091Y-68407483D01*
X151148752Y-68364133D01*
X151150499Y-68347886D01*
X151150499Y-68347882D01*
X151150500Y-68347873D01*
X151150499Y-68252629D01*
X151150584Y-68248041D01*
X151150685Y-68245291D01*
X151150499Y-68241842D01*
X151150499Y-66552155D01*
X152450000Y-66552155D01*
X152450000Y-67200000D01*
X153366988Y-67200000D01*
X153334075Y-67257007D01*
X153300000Y-67384174D01*
X153300000Y-67515826D01*
X153334075Y-67642993D01*
X153366988Y-67700000D01*
X152450000Y-67700000D01*
X152450000Y-68347844D01*
X152456401Y-68407372D01*
X152456403Y-68407379D01*
X152506645Y-68542086D01*
X152506649Y-68542093D01*
X152592809Y-68657187D01*
X152592812Y-68657190D01*
X152707906Y-68743350D01*
X152707913Y-68743354D01*
X152842620Y-68793596D01*
X152842627Y-68793598D01*
X152902155Y-68799999D01*
X152902172Y-68800000D01*
X153550000Y-68800000D01*
X153550000Y-67883012D01*
X153607007Y-67915925D01*
X153734174Y-67950000D01*
X153865826Y-67950000D01*
X153992993Y-67915925D01*
X154050000Y-67883012D01*
X154050000Y-68800000D01*
X154697828Y-68800000D01*
X154697844Y-68799999D01*
X154757372Y-68793598D01*
X154757379Y-68793596D01*
X154892086Y-68743354D01*
X154892093Y-68743350D01*
X155007187Y-68657190D01*
X155007190Y-68657187D01*
X155093350Y-68542093D01*
X155093354Y-68542086D01*
X155143596Y-68407379D01*
X155143598Y-68407372D01*
X155149999Y-68347844D01*
X155150000Y-68347827D01*
X155150000Y-67700000D01*
X154233012Y-67700000D01*
X154265925Y-67642993D01*
X154300000Y-67515826D01*
X154300000Y-67384174D01*
X154265925Y-67257007D01*
X154233012Y-67200000D01*
X155150000Y-67200000D01*
X155150000Y-66552172D01*
X155149999Y-66552155D01*
X155143598Y-66492627D01*
X155143596Y-66492620D01*
X155093354Y-66357913D01*
X155093350Y-66357906D01*
X155007190Y-66242812D01*
X155007187Y-66242809D01*
X154892093Y-66156649D01*
X154892086Y-66156645D01*
X154757379Y-66106403D01*
X154757372Y-66106401D01*
X154697844Y-66100000D01*
X154050000Y-66100000D01*
X154050000Y-67016988D01*
X153992993Y-66984075D01*
X153865826Y-66950000D01*
X153734174Y-66950000D01*
X153607007Y-66984075D01*
X153550000Y-67016988D01*
X153550000Y-66100000D01*
X152902155Y-66100000D01*
X152842627Y-66106401D01*
X152842620Y-66106403D01*
X152707913Y-66156645D01*
X152707906Y-66156649D01*
X152592812Y-66242809D01*
X152592809Y-66242812D01*
X152506649Y-66357906D01*
X152506645Y-66357913D01*
X152456403Y-66492620D01*
X152456401Y-66492627D01*
X152450000Y-66552155D01*
X151150499Y-66552155D01*
X151150499Y-66552129D01*
X151150498Y-66552123D01*
X151150497Y-66552116D01*
X151144091Y-66492517D01*
X151093884Y-66357906D01*
X151093797Y-66357671D01*
X151093793Y-66357664D01*
X151007547Y-66242455D01*
X151007544Y-66242452D01*
X150892335Y-66156206D01*
X150892328Y-66156202D01*
X150757482Y-66105908D01*
X150757483Y-66105908D01*
X150697883Y-66099501D01*
X150697881Y-66099500D01*
X150697873Y-66099500D01*
X150697864Y-66099500D01*
X148902129Y-66099500D01*
X148902123Y-66099501D01*
X148842516Y-66105908D01*
X148707671Y-66156202D01*
X148707664Y-66156206D01*
X148592455Y-66242452D01*
X148592452Y-66242455D01*
X148506206Y-66357664D01*
X148506202Y-66357671D01*
X148455908Y-66492517D01*
X148449501Y-66552116D01*
X148449501Y-66552123D01*
X148449500Y-66552135D01*
X148449500Y-68274385D01*
X148448202Y-68292272D01*
X148447487Y-68297179D01*
X148447468Y-68306138D01*
X148449337Y-68342455D01*
X148449455Y-68347029D01*
X148449580Y-68349349D01*
X148449900Y-68353369D01*
X148450251Y-68360193D01*
X148451160Y-68366219D01*
X148451003Y-68366242D01*
X148452183Y-68372823D01*
X148455909Y-68407483D01*
X148473153Y-68453717D01*
X148477183Y-68466636D01*
X148485540Y-68499670D01*
X148695481Y-69009527D01*
X148731292Y-69096496D01*
X148788150Y-69234580D01*
X148790160Y-69239460D01*
X148799500Y-69286673D01*
X148799500Y-69775500D01*
X148779815Y-69842539D01*
X148727011Y-69888294D01*
X148675500Y-69899500D01*
X146924500Y-69899500D01*
X146857461Y-69879815D01*
X146811706Y-69827011D01*
X146800500Y-69775500D01*
X146800500Y-69286673D01*
X146809840Y-69239460D01*
X147114455Y-68499681D01*
X147114458Y-68499674D01*
X147133450Y-68436733D01*
X147135962Y-68429275D01*
X147144091Y-68407483D01*
X147148752Y-68364133D01*
X147150499Y-68347886D01*
X147150499Y-68347882D01*
X147150500Y-68347873D01*
X147150499Y-68252629D01*
X147150584Y-68248041D01*
X147150685Y-68245291D01*
X147150499Y-68241842D01*
X147150499Y-66552129D01*
X147150498Y-66552123D01*
X147150497Y-66552116D01*
X147144091Y-66492517D01*
X147093884Y-66357906D01*
X147093797Y-66357671D01*
X147093793Y-66357664D01*
X147007547Y-66242455D01*
X147007544Y-66242452D01*
X146892335Y-66156206D01*
X146892328Y-66156202D01*
X146757482Y-66105908D01*
X146757483Y-66105908D01*
X146697883Y-66099501D01*
X146697881Y-66099500D01*
X146697873Y-66099500D01*
X146697864Y-66099500D01*
X144902129Y-66099500D01*
X144902123Y-66099501D01*
X144842516Y-66105908D01*
X144707671Y-66156202D01*
X144707664Y-66156206D01*
X144592455Y-66242452D01*
X144592452Y-66242455D01*
X144506206Y-66357664D01*
X144506202Y-66357671D01*
X144455908Y-66492517D01*
X144449501Y-66552116D01*
X144449501Y-66552123D01*
X144449500Y-66552135D01*
X144449500Y-68274385D01*
X144448202Y-68292272D01*
X144447487Y-68297179D01*
X144447468Y-68306138D01*
X144449337Y-68342455D01*
X144449455Y-68347029D01*
X144449580Y-68349349D01*
X144449900Y-68353369D01*
X144450251Y-68360193D01*
X144451160Y-68366219D01*
X144451003Y-68366242D01*
X144452183Y-68372823D01*
X144455909Y-68407483D01*
X144473153Y-68453717D01*
X144477183Y-68466636D01*
X144485540Y-68499670D01*
X144695481Y-69009527D01*
X144731292Y-69096496D01*
X144788150Y-69234580D01*
X144790160Y-69239460D01*
X144799500Y-69286673D01*
X144799500Y-69775500D01*
X144779815Y-69842539D01*
X144727011Y-69888294D01*
X144675500Y-69899500D01*
X142924500Y-69899500D01*
X142857461Y-69879815D01*
X142811706Y-69827011D01*
X142800500Y-69775500D01*
X142800500Y-69286673D01*
X142809840Y-69239460D01*
X143114455Y-68499681D01*
X143114458Y-68499674D01*
X143133450Y-68436733D01*
X143135962Y-68429275D01*
X143144091Y-68407483D01*
X143148752Y-68364133D01*
X143150499Y-68347886D01*
X143150499Y-68347882D01*
X143150500Y-68347873D01*
X143150499Y-68252629D01*
X143150584Y-68248041D01*
X143150685Y-68245291D01*
X143150499Y-68241842D01*
X143150499Y-66552129D01*
X143150498Y-66552123D01*
X143150497Y-66552116D01*
X143144091Y-66492517D01*
X143093884Y-66357906D01*
X143093797Y-66357671D01*
X143093793Y-66357664D01*
X143007547Y-66242455D01*
X143007544Y-66242452D01*
X142892335Y-66156206D01*
X142892328Y-66156202D01*
X142757482Y-66105908D01*
X142757483Y-66105908D01*
X142697883Y-66099501D01*
X142697881Y-66099500D01*
X142697873Y-66099500D01*
X142697864Y-66099500D01*
X140902129Y-66099500D01*
X140902123Y-66099501D01*
X140842516Y-66105908D01*
X140707671Y-66156202D01*
X140707664Y-66156206D01*
X140592455Y-66242452D01*
X140592452Y-66242455D01*
X140506206Y-66357664D01*
X140506202Y-66357671D01*
X140455908Y-66492517D01*
X140449501Y-66552116D01*
X140449501Y-66552123D01*
X140449500Y-66552135D01*
X140449500Y-68274385D01*
X140448202Y-68292272D01*
X140447487Y-68297179D01*
X140447468Y-68306138D01*
X140449337Y-68342455D01*
X140449455Y-68347029D01*
X140449580Y-68349349D01*
X140449900Y-68353369D01*
X140450251Y-68360193D01*
X140451160Y-68366219D01*
X140451003Y-68366242D01*
X140452183Y-68372823D01*
X140455909Y-68407483D01*
X140473153Y-68453717D01*
X140477183Y-68466636D01*
X140485540Y-68499670D01*
X140695481Y-69009527D01*
X140731292Y-69096496D01*
X140788150Y-69234580D01*
X140790160Y-69239460D01*
X140799500Y-69286673D01*
X140799500Y-69775500D01*
X140779815Y-69842539D01*
X140727011Y-69888294D01*
X140675500Y-69899500D01*
X138924500Y-69899500D01*
X138857461Y-69879815D01*
X138811706Y-69827011D01*
X138800500Y-69775500D01*
X138800500Y-69286673D01*
X138809840Y-69239460D01*
X139114455Y-68499681D01*
X139114458Y-68499674D01*
X139133450Y-68436733D01*
X139135962Y-68429275D01*
X139144091Y-68407483D01*
X139148752Y-68364133D01*
X139150499Y-68347886D01*
X139150499Y-68347882D01*
X139150500Y-68347873D01*
X139150499Y-68252629D01*
X139150584Y-68248041D01*
X139150685Y-68245291D01*
X139150499Y-68241842D01*
X139150499Y-66552129D01*
X139150498Y-66552123D01*
X139150497Y-66552116D01*
X139144091Y-66492517D01*
X139093884Y-66357906D01*
X139093797Y-66357671D01*
X139093793Y-66357664D01*
X139007547Y-66242455D01*
X139007544Y-66242452D01*
X138892335Y-66156206D01*
X138892328Y-66156202D01*
X138757482Y-66105908D01*
X138757483Y-66105908D01*
X138697883Y-66099501D01*
X138697881Y-66099500D01*
X138697873Y-66099500D01*
X138697864Y-66099500D01*
X136902129Y-66099500D01*
X136902123Y-66099501D01*
X136842516Y-66105908D01*
X136707671Y-66156202D01*
X136707664Y-66156206D01*
X136592455Y-66242452D01*
X136592452Y-66242455D01*
X136506206Y-66357664D01*
X136506202Y-66357671D01*
X136455908Y-66492517D01*
X136449501Y-66552116D01*
X136449501Y-66552123D01*
X136449500Y-66552135D01*
X136449500Y-68274385D01*
X136448202Y-68292272D01*
X136447487Y-68297179D01*
X136447468Y-68306138D01*
X136449337Y-68342455D01*
X136449455Y-68347029D01*
X136449580Y-68349349D01*
X136449900Y-68353369D01*
X136450251Y-68360193D01*
X136451160Y-68366219D01*
X136451003Y-68366242D01*
X136452183Y-68372823D01*
X136455909Y-68407483D01*
X136473153Y-68453717D01*
X136477183Y-68466636D01*
X136485540Y-68499670D01*
X136695481Y-69009527D01*
X136731292Y-69096496D01*
X136788150Y-69234580D01*
X136790160Y-69239460D01*
X136799500Y-69286673D01*
X136799500Y-69775500D01*
X136779815Y-69842539D01*
X136727011Y-69888294D01*
X136675500Y-69899500D01*
X134924500Y-69899500D01*
X134857461Y-69879815D01*
X134811706Y-69827011D01*
X134800500Y-69775500D01*
X134800500Y-69286673D01*
X134809840Y-69239460D01*
X135114455Y-68499681D01*
X135114458Y-68499674D01*
X135133450Y-68436733D01*
X135135962Y-68429275D01*
X135144091Y-68407483D01*
X135148752Y-68364133D01*
X135150499Y-68347886D01*
X135150499Y-68347882D01*
X135150500Y-68347873D01*
X135150499Y-68252629D01*
X135150584Y-68248041D01*
X135150685Y-68245291D01*
X135150499Y-68241842D01*
X135150499Y-66552129D01*
X135150498Y-66552123D01*
X135150497Y-66552116D01*
X135144091Y-66492517D01*
X135093884Y-66357906D01*
X135093797Y-66357671D01*
X135093793Y-66357664D01*
X135007547Y-66242455D01*
X135007544Y-66242452D01*
X134892335Y-66156206D01*
X134892328Y-66156202D01*
X134757482Y-66105908D01*
X134757483Y-66105908D01*
X134697883Y-66099501D01*
X134697881Y-66099500D01*
X134697873Y-66099500D01*
X134697864Y-66099500D01*
X132902129Y-66099500D01*
X132902123Y-66099501D01*
X132842516Y-66105908D01*
X132707671Y-66156202D01*
X132707664Y-66156206D01*
X132592455Y-66242452D01*
X132592452Y-66242455D01*
X132506206Y-66357664D01*
X132506202Y-66357671D01*
X132455908Y-66492517D01*
X132449501Y-66552116D01*
X132449501Y-66552123D01*
X132449500Y-66552135D01*
X132449500Y-68274385D01*
X132448202Y-68292272D01*
X132447487Y-68297179D01*
X132447468Y-68306138D01*
X132449337Y-68342455D01*
X132449455Y-68347029D01*
X132449580Y-68349349D01*
X132449900Y-68353369D01*
X132450251Y-68360193D01*
X132451160Y-68366219D01*
X132451003Y-68366242D01*
X132452183Y-68372823D01*
X132455909Y-68407483D01*
X132473153Y-68453717D01*
X132477183Y-68466636D01*
X132485540Y-68499670D01*
X132695481Y-69009527D01*
X132731292Y-69096496D01*
X132788150Y-69234580D01*
X132790160Y-69239460D01*
X132799500Y-69286673D01*
X132799500Y-69775500D01*
X132779815Y-69842539D01*
X132727011Y-69888294D01*
X132675500Y-69899500D01*
X130924500Y-69899500D01*
X130857461Y-69879815D01*
X130811706Y-69827011D01*
X130800500Y-69775500D01*
X130800500Y-69286673D01*
X130809840Y-69239460D01*
X131114455Y-68499681D01*
X131114458Y-68499674D01*
X131133450Y-68436733D01*
X131135962Y-68429275D01*
X131144091Y-68407483D01*
X131148752Y-68364133D01*
X131150499Y-68347886D01*
X131150499Y-68347882D01*
X131150500Y-68347873D01*
X131150499Y-68252629D01*
X131150584Y-68248041D01*
X131150685Y-68245291D01*
X131150499Y-68241842D01*
X131150499Y-66552129D01*
X131150498Y-66552123D01*
X131150497Y-66552116D01*
X131144091Y-66492517D01*
X131093884Y-66357906D01*
X131093797Y-66357671D01*
X131093793Y-66357664D01*
X131007547Y-66242455D01*
X131007544Y-66242452D01*
X130892335Y-66156206D01*
X130892328Y-66156202D01*
X130757482Y-66105908D01*
X130757483Y-66105908D01*
X130697883Y-66099501D01*
X130697881Y-66099500D01*
X130697873Y-66099500D01*
X130697864Y-66099500D01*
X128902129Y-66099500D01*
X128902123Y-66099501D01*
X128842516Y-66105908D01*
X128707671Y-66156202D01*
X128707664Y-66156206D01*
X128592455Y-66242452D01*
X128592452Y-66242455D01*
X128506206Y-66357664D01*
X128506202Y-66357671D01*
X128455908Y-66492517D01*
X128449501Y-66552116D01*
X128449501Y-66552123D01*
X128449500Y-66552135D01*
X128449500Y-68274385D01*
X128448202Y-68292272D01*
X128447487Y-68297179D01*
X128447468Y-68306138D01*
X128449337Y-68342455D01*
X128449455Y-68347029D01*
X128449580Y-68349349D01*
X128449900Y-68353369D01*
X128450251Y-68360193D01*
X128451160Y-68366219D01*
X128451003Y-68366242D01*
X128452183Y-68372823D01*
X128455909Y-68407483D01*
X128473153Y-68453717D01*
X128477183Y-68466636D01*
X128485540Y-68499670D01*
X128695481Y-69009527D01*
X128731292Y-69096496D01*
X128788150Y-69234580D01*
X128790160Y-69239460D01*
X128799500Y-69286673D01*
X128799500Y-74374217D01*
X128779815Y-74441256D01*
X128763181Y-74461898D01*
X125994141Y-77230937D01*
X125976481Y-77245594D01*
X124920464Y-77968132D01*
X124902846Y-77978177D01*
X124876903Y-77990274D01*
X124807826Y-78000765D01*
X124744042Y-77972244D01*
X124705803Y-77913767D01*
X124700500Y-77877891D01*
X124700500Y-75026617D01*
X124702440Y-75006858D01*
X124702329Y-75006845D01*
X124702855Y-75002631D01*
X124702869Y-75002496D01*
X124702875Y-75002457D01*
X124702878Y-75002450D01*
X124800887Y-74218371D01*
X124803811Y-74187117D01*
X124803901Y-74185673D01*
X124802015Y-74100484D01*
X124802014Y-74100479D01*
X124801639Y-74097733D01*
X124800499Y-74080955D01*
X124800499Y-72503807D01*
X124800520Y-72501518D01*
X124800887Y-72481625D01*
X124800887Y-72481622D01*
X124702883Y-71697591D01*
X124702878Y-71697550D01*
X124701833Y-71690488D01*
X124700500Y-71672354D01*
X124700500Y-70274799D01*
X124720185Y-70207760D01*
X124721660Y-70205516D01*
X125024734Y-69755982D01*
X125078531Y-69711402D01*
X125084217Y-69709120D01*
X125192326Y-69668798D01*
X125192326Y-69668797D01*
X125192331Y-69668796D01*
X125307546Y-69582546D01*
X125393796Y-69467331D01*
X125444091Y-69332483D01*
X125450500Y-69272873D01*
X125450499Y-67477128D01*
X125444091Y-67417517D01*
X125393796Y-67282669D01*
X125393795Y-67282668D01*
X125393793Y-67282664D01*
X125307547Y-67167455D01*
X125307544Y-67167452D01*
X125192335Y-67081206D01*
X125192328Y-67081202D01*
X125057482Y-67030908D01*
X125057483Y-67030908D01*
X124997883Y-67024501D01*
X124997881Y-67024500D01*
X124997873Y-67024500D01*
X124997865Y-67024500D01*
X124857864Y-67024500D01*
X124790825Y-67004815D01*
X124770746Y-66988741D01*
X124328550Y-66552172D01*
X123990931Y-66218849D01*
X123951707Y-66183955D01*
X123951703Y-66183952D01*
X123949088Y-66182047D01*
X123934432Y-66169511D01*
X123684209Y-65919289D01*
X123684206Y-65919285D01*
X123684206Y-65919286D01*
X123677139Y-65912219D01*
X123677139Y-65912218D01*
X123537782Y-65772861D01*
X123537781Y-65772860D01*
X123537780Y-65772859D01*
X123373920Y-65663371D01*
X123373911Y-65663366D01*
X123301315Y-65633296D01*
X123245165Y-65610038D01*
X123191836Y-65587949D01*
X123191832Y-65587948D01*
X123191828Y-65587946D01*
X123095188Y-65568724D01*
X122998544Y-65549500D01*
X122998541Y-65549500D01*
X116401459Y-65549500D01*
X116401455Y-65549500D01*
X116304812Y-65568724D01*
X116208167Y-65587947D01*
X116208161Y-65587949D01*
X116154834Y-65610037D01*
X116154834Y-65610038D01*
X116109315Y-65628892D01*
X116026089Y-65663366D01*
X116026079Y-65663371D01*
X115862219Y-65772859D01*
X115792540Y-65842538D01*
X115722861Y-65912218D01*
X112612181Y-69022898D01*
X112550858Y-69056383D01*
X112481166Y-69051399D01*
X112425233Y-69009527D01*
X112400816Y-68944063D01*
X112400500Y-68935217D01*
X112400500Y-64374500D01*
X112420185Y-64307461D01*
X112472989Y-64261706D01*
X112524500Y-64250500D01*
X177775500Y-64250500D01*
X177842539Y-64270185D01*
G37*
%TD.AperFunction*%
%TA.AperFunction,Conductor*%
G36*
X115610000Y-76597980D02*
G01*
X115590315Y-76665019D01*
X115573681Y-76685661D01*
X114755888Y-77503453D01*
X114755887Y-77503454D01*
X114679222Y-77618192D01*
X114626421Y-77745667D01*
X114626418Y-77745679D01*
X114600054Y-77878221D01*
X114600051Y-77878236D01*
X114599500Y-77881001D01*
X114599500Y-77881007D01*
X114599500Y-86881006D01*
X114599500Y-87018994D01*
X114599500Y-87018996D01*
X114599499Y-87018996D01*
X114626418Y-87154322D01*
X114626421Y-87154332D01*
X114679222Y-87281807D01*
X114755887Y-87396545D01*
X117253454Y-89894112D01*
X117368192Y-89970777D01*
X117495667Y-90023578D01*
X117495672Y-90023580D01*
X117495676Y-90023580D01*
X117495677Y-90023581D01*
X117631003Y-90050500D01*
X117631006Y-90050500D01*
X117631007Y-90050500D01*
X132758481Y-90050500D01*
X132825520Y-90070185D01*
X132846162Y-90086819D01*
X133453453Y-90694111D01*
X133453454Y-90694112D01*
X133568192Y-90770777D01*
X133685414Y-90819331D01*
X133695672Y-90823580D01*
X133695676Y-90823580D01*
X133695677Y-90823581D01*
X133831003Y-90850500D01*
X133831006Y-90850500D01*
X133831007Y-90850500D01*
X134240156Y-90850500D01*
X134296056Y-90863814D01*
X134693796Y-91064691D01*
X134744761Y-91112483D01*
X134761798Y-91180244D01*
X134739497Y-91246459D01*
X134725576Y-91263056D01*
X134657287Y-91331345D01*
X134565187Y-91480663D01*
X134565186Y-91480666D01*
X134510001Y-91647203D01*
X134510001Y-91647204D01*
X134510000Y-91647204D01*
X134499500Y-91749983D01*
X134499500Y-92550001D01*
X134499501Y-92550019D01*
X134510000Y-92652796D01*
X134510001Y-92652799D01*
X134551389Y-92777697D01*
X134565186Y-92819334D01*
X134642158Y-92944127D01*
X134657289Y-92968657D01*
X134692319Y-93003687D01*
X134710476Y-93026760D01*
X134745637Y-93084364D01*
X134749788Y-93091165D01*
X134767913Y-93158643D01*
X134757366Y-93205887D01*
X134510005Y-93765665D01*
X134464903Y-93819028D01*
X134398111Y-93839537D01*
X134330835Y-93820679D01*
X134284433Y-93768442D01*
X134284203Y-93767951D01*
X134278369Y-93755441D01*
X134260568Y-93717266D01*
X134130047Y-93530861D01*
X134130045Y-93530858D01*
X133969141Y-93369954D01*
X133782734Y-93239432D01*
X133782732Y-93239431D01*
X133576497Y-93143261D01*
X133576488Y-93143258D01*
X133356697Y-93084366D01*
X133356693Y-93084365D01*
X133356692Y-93084365D01*
X133356691Y-93084364D01*
X133356686Y-93084364D01*
X133130002Y-93064532D01*
X133129998Y-93064532D01*
X132903313Y-93084364D01*
X132903302Y-93084366D01*
X132683511Y-93143258D01*
X132683502Y-93143261D01*
X132477267Y-93239431D01*
X132477265Y-93239432D01*
X132290858Y-93369954D01*
X132129954Y-93530858D01*
X131999432Y-93717264D01*
X131999430Y-93717268D01*
X131978171Y-93762857D01*
X131968125Y-93780476D01*
X131961237Y-93790542D01*
X131907132Y-93834752D01*
X131837716Y-93842693D01*
X131775025Y-93811843D01*
X131746521Y-93772922D01*
X131720568Y-93717266D01*
X131590047Y-93530861D01*
X131590045Y-93530858D01*
X131429141Y-93369954D01*
X131242734Y-93239432D01*
X131242732Y-93239431D01*
X131036497Y-93143261D01*
X131036488Y-93143258D01*
X130816697Y-93084366D01*
X130816693Y-93084365D01*
X130816692Y-93084365D01*
X130816691Y-93084364D01*
X130816686Y-93084364D01*
X130590002Y-93064532D01*
X130589998Y-93064532D01*
X130363313Y-93084364D01*
X130363302Y-93084366D01*
X130143511Y-93143258D01*
X130143502Y-93143261D01*
X129937267Y-93239431D01*
X129937265Y-93239432D01*
X129750858Y-93369954D01*
X129589954Y-93530858D01*
X129459430Y-93717268D01*
X129459430Y-93717269D01*
X129432380Y-93775276D01*
X129386207Y-93827714D01*
X129319013Y-93846865D01*
X129252132Y-93826648D01*
X129207617Y-93775273D01*
X129206522Y-93772924D01*
X129180568Y-93717266D01*
X129050047Y-93530861D01*
X129050045Y-93530858D01*
X128889141Y-93369954D01*
X128702734Y-93239432D01*
X128702732Y-93239431D01*
X128496497Y-93143261D01*
X128496488Y-93143258D01*
X128276697Y-93084366D01*
X128276693Y-93084365D01*
X128276692Y-93084365D01*
X128276691Y-93084364D01*
X128276686Y-93084364D01*
X128050002Y-93064532D01*
X128049998Y-93064532D01*
X127823313Y-93084364D01*
X127823302Y-93084366D01*
X127603511Y-93143258D01*
X127603502Y-93143261D01*
X127397267Y-93239431D01*
X127397265Y-93239432D01*
X127210858Y-93369954D01*
X127049954Y-93530858D01*
X126919432Y-93717265D01*
X126919431Y-93717267D01*
X126919429Y-93717272D01*
X126893480Y-93772921D01*
X126892382Y-93775275D01*
X126846209Y-93827714D01*
X126779016Y-93846866D01*
X126712135Y-93826650D01*
X126667618Y-93775275D01*
X126666522Y-93772924D01*
X126640568Y-93717266D01*
X126510047Y-93530861D01*
X126510045Y-93530858D01*
X126349141Y-93369954D01*
X126162734Y-93239432D01*
X126162732Y-93239431D01*
X125956497Y-93143261D01*
X125956488Y-93143258D01*
X125736697Y-93084366D01*
X125736693Y-93084365D01*
X125736692Y-93084365D01*
X125736691Y-93084364D01*
X125736686Y-93084364D01*
X125510002Y-93064532D01*
X125509998Y-93064532D01*
X125283313Y-93084364D01*
X125283302Y-93084366D01*
X125063511Y-93143258D01*
X125063502Y-93143261D01*
X124857267Y-93239431D01*
X124857265Y-93239432D01*
X124670858Y-93369954D01*
X124509954Y-93530858D01*
X124379432Y-93717265D01*
X124379431Y-93717267D01*
X124379429Y-93717272D01*
X124353480Y-93772921D01*
X124352382Y-93775275D01*
X124306209Y-93827714D01*
X124239016Y-93846866D01*
X124172135Y-93826650D01*
X124127618Y-93775275D01*
X124126522Y-93772924D01*
X124100568Y-93717266D01*
X123970047Y-93530861D01*
X123970045Y-93530858D01*
X123809141Y-93369954D01*
X123622734Y-93239432D01*
X123622732Y-93239431D01*
X123416497Y-93143261D01*
X123416488Y-93143258D01*
X123196697Y-93084366D01*
X123196693Y-93084365D01*
X123196692Y-93084365D01*
X123196691Y-93084364D01*
X123196686Y-93084364D01*
X122970002Y-93064532D01*
X122969998Y-93064532D01*
X122743313Y-93084364D01*
X122743302Y-93084366D01*
X122523511Y-93143258D01*
X122523502Y-93143261D01*
X122317267Y-93239431D01*
X122317265Y-93239432D01*
X122130858Y-93369954D01*
X121969954Y-93530858D01*
X121839432Y-93717265D01*
X121839431Y-93717267D01*
X121839429Y-93717272D01*
X121813480Y-93772921D01*
X121812382Y-93775275D01*
X121766209Y-93827714D01*
X121699016Y-93846866D01*
X121632135Y-93826650D01*
X121587618Y-93775275D01*
X121586522Y-93772924D01*
X121560568Y-93717266D01*
X121430047Y-93530861D01*
X121430045Y-93530858D01*
X121269141Y-93369954D01*
X121082734Y-93239432D01*
X121082732Y-93239431D01*
X120876497Y-93143261D01*
X120876488Y-93143258D01*
X120656697Y-93084366D01*
X120656693Y-93084365D01*
X120656692Y-93084365D01*
X120656691Y-93084364D01*
X120656686Y-93084364D01*
X120430002Y-93064532D01*
X120429998Y-93064532D01*
X120203313Y-93084364D01*
X120203302Y-93084366D01*
X119983511Y-93143258D01*
X119983502Y-93143261D01*
X119777267Y-93239431D01*
X119777265Y-93239432D01*
X119590858Y-93369954D01*
X119429951Y-93530861D01*
X119412287Y-93556088D01*
X119357710Y-93599712D01*
X119288211Y-93606904D01*
X119225857Y-93575380D01*
X119190445Y-93515150D01*
X119187425Y-93498218D01*
X119183598Y-93462627D01*
X119183596Y-93462620D01*
X119133354Y-93327913D01*
X119133350Y-93327906D01*
X119047190Y-93212812D01*
X119047187Y-93212809D01*
X118932093Y-93126649D01*
X118932086Y-93126645D01*
X118797379Y-93076403D01*
X118797372Y-93076401D01*
X118737844Y-93070000D01*
X118140000Y-93070000D01*
X118140000Y-93879252D01*
X118102292Y-93857482D01*
X117962409Y-93820000D01*
X117817591Y-93820000D01*
X117677708Y-93857482D01*
X117640000Y-93879252D01*
X117640000Y-93070000D01*
X117042155Y-93070000D01*
X116982627Y-93076401D01*
X116982620Y-93076403D01*
X116847913Y-93126645D01*
X116847906Y-93126649D01*
X116732812Y-93212809D01*
X116732809Y-93212812D01*
X116646649Y-93327906D01*
X116646645Y-93327913D01*
X116596403Y-93462620D01*
X116596401Y-93462627D01*
X116590000Y-93522155D01*
X116590000Y-94120000D01*
X117399252Y-94120000D01*
X117377482Y-94157708D01*
X117340000Y-94297591D01*
X117340000Y-94442409D01*
X117377482Y-94582292D01*
X117399252Y-94620000D01*
X116590000Y-94620000D01*
X116590000Y-95217844D01*
X116596401Y-95277372D01*
X116596403Y-95277379D01*
X116646645Y-95412086D01*
X116646649Y-95412093D01*
X116732809Y-95527187D01*
X116732812Y-95527190D01*
X116847906Y-95613350D01*
X116847913Y-95613354D01*
X116982620Y-95663596D01*
X116982627Y-95663598D01*
X117042155Y-95669999D01*
X117042172Y-95670000D01*
X117640000Y-95670000D01*
X117640000Y-94860747D01*
X117677708Y-94882518D01*
X117817591Y-94920000D01*
X117962409Y-94920000D01*
X118102292Y-94882518D01*
X118140000Y-94860747D01*
X118140000Y-95670000D01*
X118737828Y-95670000D01*
X118737844Y-95669999D01*
X118797372Y-95663598D01*
X118797379Y-95663596D01*
X118932086Y-95613354D01*
X118932093Y-95613350D01*
X119047187Y-95527190D01*
X119047190Y-95527187D01*
X119133350Y-95412093D01*
X119133354Y-95412086D01*
X119183596Y-95277380D01*
X119187424Y-95241781D01*
X119214162Y-95177230D01*
X119271555Y-95137382D01*
X119341380Y-95134888D01*
X119401469Y-95170540D01*
X119412289Y-95183912D01*
X119429949Y-95209134D01*
X119429956Y-95209143D01*
X119590858Y-95370045D01*
X119590861Y-95370047D01*
X119777266Y-95500568D01*
X119983504Y-95596739D01*
X120203308Y-95655635D01*
X120365230Y-95669801D01*
X120429998Y-95675468D01*
X120430000Y-95675468D01*
X120430002Y-95675468D01*
X120492511Y-95669999D01*
X120656692Y-95655635D01*
X120876496Y-95596739D01*
X121082734Y-95500568D01*
X121269139Y-95370047D01*
X121430047Y-95209139D01*
X121560568Y-95022734D01*
X121587618Y-94964724D01*
X121633790Y-94912285D01*
X121700983Y-94893133D01*
X121767865Y-94913348D01*
X121812382Y-94964725D01*
X121839429Y-95022728D01*
X121839432Y-95022734D01*
X121969954Y-95209141D01*
X122130858Y-95370045D01*
X122130861Y-95370047D01*
X122317266Y-95500568D01*
X122523504Y-95596739D01*
X122743308Y-95655635D01*
X122905230Y-95669801D01*
X122969998Y-95675468D01*
X122970000Y-95675468D01*
X122970002Y-95675468D01*
X123032511Y-95669999D01*
X123196692Y-95655635D01*
X123416496Y-95596739D01*
X123622734Y-95500568D01*
X123809139Y-95370047D01*
X123970047Y-95209139D01*
X124100568Y-95022734D01*
X124123501Y-94973553D01*
X124169671Y-94921116D01*
X124236864Y-94901963D01*
X124303746Y-94922178D01*
X124349081Y-94975343D01*
X124349879Y-94977166D01*
X124369382Y-95022732D01*
X124684858Y-95759791D01*
X124684859Y-95759792D01*
X124768103Y-95954278D01*
X124789497Y-96004260D01*
X124799500Y-96053053D01*
X124799500Y-98113325D01*
X124790160Y-98160538D01*
X124485540Y-98900326D01*
X124466555Y-98963246D01*
X124464025Y-98970754D01*
X124455910Y-98992510D01*
X124455908Y-98992520D01*
X124449501Y-99052116D01*
X124449500Y-99052135D01*
X124449500Y-99147281D01*
X124449418Y-99151779D01*
X124449315Y-99154598D01*
X124449500Y-99158054D01*
X124449500Y-100847870D01*
X124449501Y-100847876D01*
X124455908Y-100907483D01*
X124506202Y-101042328D01*
X124506206Y-101042335D01*
X124592452Y-101157544D01*
X124592455Y-101157547D01*
X124707664Y-101243793D01*
X124707671Y-101243797D01*
X124842517Y-101294091D01*
X124842516Y-101294091D01*
X124849444Y-101294835D01*
X124902127Y-101300500D01*
X126575500Y-101300499D01*
X126642539Y-101320184D01*
X126688294Y-101372987D01*
X126699500Y-101424499D01*
X126699500Y-101913325D01*
X126690160Y-101960538D01*
X126385540Y-102700326D01*
X126366555Y-102763246D01*
X126364025Y-102770754D01*
X126355910Y-102792510D01*
X126355908Y-102792520D01*
X126349501Y-102852116D01*
X126349500Y-102852135D01*
X126349500Y-102947281D01*
X126349418Y-102951779D01*
X126349315Y-102954598D01*
X126349500Y-102958054D01*
X126349500Y-104647870D01*
X126349501Y-104647876D01*
X126355908Y-104707483D01*
X126406202Y-104842328D01*
X126406206Y-104842335D01*
X126492452Y-104957544D01*
X126492455Y-104957547D01*
X126607664Y-105043793D01*
X126607671Y-105043797D01*
X126742517Y-105094091D01*
X126742516Y-105094091D01*
X126749444Y-105094835D01*
X126802127Y-105100500D01*
X128597872Y-105100499D01*
X128657483Y-105094091D01*
X128792331Y-105043796D01*
X128907546Y-104957546D01*
X128993796Y-104842331D01*
X129044091Y-104707483D01*
X129050500Y-104647873D01*
X129050499Y-102925614D01*
X129051799Y-102907704D01*
X129052512Y-102902820D01*
X129052531Y-102893865D01*
X129050663Y-102857580D01*
X129050544Y-102852957D01*
X129050418Y-102850612D01*
X129050095Y-102846574D01*
X129049748Y-102839808D01*
X129049747Y-102839804D01*
X129049747Y-102839802D01*
X129048840Y-102833779D01*
X129048996Y-102833755D01*
X129047817Y-102827178D01*
X129044091Y-102792518D01*
X129034585Y-102767032D01*
X129026844Y-102746277D01*
X129022818Y-102733373D01*
X129014457Y-102700323D01*
X128863841Y-102334541D01*
X128709840Y-101960538D01*
X128700500Y-101913325D01*
X128700500Y-101424499D01*
X128720185Y-101357460D01*
X128772989Y-101311705D01*
X128824495Y-101300499D01*
X130575500Y-101300499D01*
X130642539Y-101320184D01*
X130688294Y-101372988D01*
X130699500Y-101424499D01*
X130699500Y-101913325D01*
X130690160Y-101960538D01*
X130385540Y-102700326D01*
X130366555Y-102763246D01*
X130364025Y-102770754D01*
X130355910Y-102792510D01*
X130355908Y-102792520D01*
X130349501Y-102852116D01*
X130349500Y-102852135D01*
X130349500Y-102947281D01*
X130349418Y-102951779D01*
X130349315Y-102954598D01*
X130349500Y-102958054D01*
X130349500Y-104647870D01*
X130349501Y-104647876D01*
X130355908Y-104707483D01*
X130406202Y-104842328D01*
X130406206Y-104842335D01*
X130492452Y-104957544D01*
X130492455Y-104957547D01*
X130607664Y-105043793D01*
X130607671Y-105043797D01*
X130742517Y-105094091D01*
X130742516Y-105094091D01*
X130749444Y-105094835D01*
X130802127Y-105100500D01*
X132597872Y-105100499D01*
X132657483Y-105094091D01*
X132792331Y-105043796D01*
X132907546Y-104957546D01*
X132993796Y-104842331D01*
X133044091Y-104707483D01*
X133050500Y-104647873D01*
X133050499Y-102925614D01*
X133051799Y-102907704D01*
X133052512Y-102902820D01*
X133052531Y-102893865D01*
X133050663Y-102857580D01*
X133050544Y-102852957D01*
X133050418Y-102850612D01*
X133050095Y-102846574D01*
X133049748Y-102839808D01*
X133049747Y-102839804D01*
X133049747Y-102839802D01*
X133048840Y-102833779D01*
X133048996Y-102833755D01*
X133047817Y-102827178D01*
X133044091Y-102792518D01*
X133034585Y-102767032D01*
X133026844Y-102746277D01*
X133022818Y-102733373D01*
X133014457Y-102700323D01*
X132863841Y-102334541D01*
X132709840Y-101960538D01*
X132700500Y-101913325D01*
X132700500Y-101424499D01*
X132720185Y-101357460D01*
X132772989Y-101311705D01*
X132824495Y-101300499D01*
X134575500Y-101300499D01*
X134642539Y-101320184D01*
X134688294Y-101372988D01*
X134699500Y-101424499D01*
X134699500Y-101913325D01*
X134690160Y-101960538D01*
X134385540Y-102700326D01*
X134366555Y-102763246D01*
X134364025Y-102770754D01*
X134355910Y-102792510D01*
X134355908Y-102792520D01*
X134349501Y-102852116D01*
X134349500Y-102852135D01*
X134349500Y-102947281D01*
X134349418Y-102951779D01*
X134349315Y-102954598D01*
X134349500Y-102958054D01*
X134349500Y-104647870D01*
X134349501Y-104647876D01*
X134355908Y-104707483D01*
X134406202Y-104842328D01*
X134406206Y-104842335D01*
X134492452Y-104957544D01*
X134492455Y-104957547D01*
X134607664Y-105043793D01*
X134607671Y-105043797D01*
X134742517Y-105094091D01*
X134742516Y-105094091D01*
X134749444Y-105094835D01*
X134802127Y-105100500D01*
X136597872Y-105100499D01*
X136657483Y-105094091D01*
X136792331Y-105043796D01*
X136907546Y-104957546D01*
X136993796Y-104842331D01*
X137044091Y-104707483D01*
X137050500Y-104647873D01*
X137050499Y-102925614D01*
X137051799Y-102907704D01*
X137052512Y-102902820D01*
X137052531Y-102893865D01*
X137050663Y-102857580D01*
X137050544Y-102852957D01*
X137050418Y-102850612D01*
X137050095Y-102846574D01*
X137049748Y-102839808D01*
X137049747Y-102839804D01*
X137049747Y-102839802D01*
X137048840Y-102833779D01*
X137048996Y-102833755D01*
X137047817Y-102827178D01*
X137044091Y-102792518D01*
X137034585Y-102767032D01*
X137026844Y-102746277D01*
X137022818Y-102733373D01*
X137014457Y-102700323D01*
X136863841Y-102334541D01*
X136709840Y-101960538D01*
X136700500Y-101913325D01*
X136700500Y-101424499D01*
X136720185Y-101357460D01*
X136772989Y-101311705D01*
X136824495Y-101300499D01*
X138575500Y-101300499D01*
X138642539Y-101320184D01*
X138688294Y-101372988D01*
X138699500Y-101424499D01*
X138699500Y-101913325D01*
X138690160Y-101960538D01*
X138385540Y-102700326D01*
X138366555Y-102763246D01*
X138364025Y-102770754D01*
X138355910Y-102792510D01*
X138355908Y-102792520D01*
X138349501Y-102852116D01*
X138349500Y-102852135D01*
X138349500Y-102947281D01*
X138349418Y-102951779D01*
X138349315Y-102954598D01*
X138349500Y-102958054D01*
X138349500Y-104647870D01*
X138349501Y-104647876D01*
X138355908Y-104707483D01*
X138406202Y-104842328D01*
X138406206Y-104842335D01*
X138492452Y-104957544D01*
X138492455Y-104957547D01*
X138607664Y-105043793D01*
X138607671Y-105043797D01*
X138742517Y-105094091D01*
X138742516Y-105094091D01*
X138749444Y-105094835D01*
X138802127Y-105100500D01*
X140597872Y-105100499D01*
X140657483Y-105094091D01*
X140792331Y-105043796D01*
X140907546Y-104957546D01*
X140993796Y-104842331D01*
X141044091Y-104707483D01*
X141050500Y-104647873D01*
X141050499Y-102925614D01*
X141051799Y-102907704D01*
X141052512Y-102902820D01*
X141052531Y-102893865D01*
X141050663Y-102857580D01*
X141050544Y-102852957D01*
X141050418Y-102850612D01*
X141050095Y-102846574D01*
X141049748Y-102839808D01*
X141049747Y-102839804D01*
X141049747Y-102839802D01*
X141048840Y-102833779D01*
X141048996Y-102833755D01*
X141047817Y-102827178D01*
X141044091Y-102792518D01*
X141034585Y-102767032D01*
X141026844Y-102746277D01*
X141022818Y-102733373D01*
X141014457Y-102700323D01*
X140863841Y-102334541D01*
X140709840Y-101960538D01*
X140700500Y-101913325D01*
X140700500Y-101424499D01*
X140720185Y-101357460D01*
X140772989Y-101311705D01*
X140824495Y-101300499D01*
X142575500Y-101300499D01*
X142642539Y-101320184D01*
X142688294Y-101372988D01*
X142699500Y-101424499D01*
X142699500Y-101913325D01*
X142690160Y-101960538D01*
X142385540Y-102700326D01*
X142366555Y-102763246D01*
X142364025Y-102770754D01*
X142355910Y-102792510D01*
X142355908Y-102792520D01*
X142349501Y-102852116D01*
X142349500Y-102852135D01*
X142349500Y-102947281D01*
X142349418Y-102951779D01*
X142349315Y-102954598D01*
X142349500Y-102958054D01*
X142349500Y-104647870D01*
X142349501Y-104647876D01*
X142355908Y-104707483D01*
X142406202Y-104842328D01*
X142406206Y-104842335D01*
X142492452Y-104957544D01*
X142492455Y-104957547D01*
X142607664Y-105043793D01*
X142607671Y-105043797D01*
X142742517Y-105094091D01*
X142742516Y-105094091D01*
X142749444Y-105094835D01*
X142802127Y-105100500D01*
X144597872Y-105100499D01*
X144657483Y-105094091D01*
X144792331Y-105043796D01*
X144907546Y-104957546D01*
X144993796Y-104842331D01*
X145044091Y-104707483D01*
X145050500Y-104647873D01*
X145050499Y-102925614D01*
X145051799Y-102907704D01*
X145052512Y-102902820D01*
X145052531Y-102893865D01*
X145050663Y-102857580D01*
X145050544Y-102852957D01*
X145050418Y-102850612D01*
X145050095Y-102846574D01*
X145049748Y-102839808D01*
X145049747Y-102839804D01*
X145049747Y-102839802D01*
X145048840Y-102833779D01*
X145048996Y-102833755D01*
X145047817Y-102827178D01*
X145044091Y-102792518D01*
X145034585Y-102767032D01*
X145026844Y-102746277D01*
X145022818Y-102733373D01*
X145014457Y-102700323D01*
X144863841Y-102334541D01*
X144709840Y-101960538D01*
X144700500Y-101913325D01*
X144700500Y-101424499D01*
X144720185Y-101357460D01*
X144772989Y-101311705D01*
X144824500Y-101300499D01*
X146397871Y-101300499D01*
X146397872Y-101300499D01*
X146457483Y-101294091D01*
X146592331Y-101243796D01*
X146707546Y-101157546D01*
X146793796Y-101042331D01*
X146844091Y-100907483D01*
X146850500Y-100847873D01*
X146850499Y-100442931D01*
X146865984Y-100382929D01*
X147542743Y-99159018D01*
X147563570Y-99131349D01*
X150425875Y-96269044D01*
X150443524Y-96254396D01*
X151499525Y-95531870D01*
X151517125Y-95521835D01*
X151562734Y-95500568D01*
X151749139Y-95370047D01*
X151780880Y-95338304D01*
X151786117Y-95333536D01*
X151786081Y-95333497D01*
X151788343Y-95331421D01*
X151788362Y-95331406D01*
X151833857Y-95285328D01*
X151834092Y-95285092D01*
X151910047Y-95209139D01*
X151972756Y-95119580D01*
X152027331Y-95075956D01*
X152096829Y-95068762D01*
X152159184Y-95100284D01*
X152194599Y-95160513D01*
X152198050Y-95182374D01*
X152250020Y-95954286D01*
X152253943Y-95991871D01*
X152254613Y-96004742D01*
X152254613Y-99622516D01*
X152246718Y-99666056D01*
X152066528Y-100146558D01*
X152024557Y-100202417D01*
X151959050Y-100226718D01*
X151898018Y-100215400D01*
X151701439Y-100123734D01*
X151701430Y-100123730D01*
X151481723Y-100064860D01*
X151481712Y-100064858D01*
X151255115Y-100045034D01*
X151255111Y-100045034D01*
X151028513Y-100064858D01*
X151028502Y-100064860D01*
X150808795Y-100123730D01*
X150808786Y-100123734D01*
X150602629Y-100219866D01*
X150602625Y-100219868D01*
X150529639Y-100270973D01*
X150529639Y-100270974D01*
X151208666Y-100950000D01*
X151202452Y-100950000D01*
X151100719Y-100977259D01*
X151009507Y-101029920D01*
X150935033Y-101104394D01*
X150882372Y-101195606D01*
X150855113Y-101297339D01*
X150855113Y-101303552D01*
X150176087Y-100624526D01*
X150176086Y-100624526D01*
X150124981Y-100697512D01*
X150124979Y-100697516D01*
X150028847Y-100903673D01*
X150028843Y-100903682D01*
X149969973Y-101123389D01*
X149969971Y-101123400D01*
X149950147Y-101349997D01*
X149950147Y-101350002D01*
X149969971Y-101576599D01*
X149969973Y-101576610D01*
X150028843Y-101796317D01*
X150028848Y-101796331D01*
X150124976Y-102002478D01*
X150176087Y-102075472D01*
X150855113Y-101396446D01*
X150855113Y-101402661D01*
X150882372Y-101504394D01*
X150935033Y-101595606D01*
X151009507Y-101670080D01*
X151100719Y-101722741D01*
X151202452Y-101750000D01*
X151208665Y-101750000D01*
X150529639Y-102429025D01*
X150602626Y-102480132D01*
X150602634Y-102480136D01*
X150808781Y-102576264D01*
X150808795Y-102576269D01*
X151028502Y-102635139D01*
X151028513Y-102635141D01*
X151255111Y-102654966D01*
X151255115Y-102654966D01*
X151481712Y-102635141D01*
X151481723Y-102635139D01*
X151701430Y-102576269D01*
X151701439Y-102576265D01*
X151898019Y-102484599D01*
X151967096Y-102474107D01*
X152030880Y-102502627D01*
X152066529Y-102553442D01*
X152139463Y-102747932D01*
X152144571Y-102817614D01*
X152111195Y-102878997D01*
X152111039Y-102879152D01*
X148477012Y-106513181D01*
X148415689Y-106546666D01*
X148389331Y-106549500D01*
X118365782Y-106549500D01*
X118298743Y-106529815D01*
X118278101Y-106513181D01*
X113936819Y-102171899D01*
X113903334Y-102110576D01*
X113900500Y-102084218D01*
X113900500Y-99052155D01*
X116550000Y-99052155D01*
X116550000Y-99700000D01*
X117466988Y-99700000D01*
X117434075Y-99757007D01*
X117400000Y-99884174D01*
X117400000Y-100015826D01*
X117434075Y-100142993D01*
X117466988Y-100200000D01*
X116550000Y-100200000D01*
X116550000Y-100847844D01*
X116556401Y-100907372D01*
X116556403Y-100907379D01*
X116606645Y-101042086D01*
X116606649Y-101042093D01*
X116692809Y-101157187D01*
X116692812Y-101157190D01*
X116807906Y-101243350D01*
X116807913Y-101243354D01*
X116942620Y-101293596D01*
X116942627Y-101293598D01*
X117002155Y-101299999D01*
X117002172Y-101300000D01*
X117650000Y-101300000D01*
X117650000Y-100383012D01*
X117707007Y-100415925D01*
X117834174Y-100450000D01*
X117965826Y-100450000D01*
X118092993Y-100415925D01*
X118150000Y-100383012D01*
X118150000Y-101300000D01*
X118797828Y-101300000D01*
X118797844Y-101299999D01*
X118857372Y-101293598D01*
X118857379Y-101293596D01*
X118992086Y-101243354D01*
X118992093Y-101243350D01*
X119107187Y-101157190D01*
X119107190Y-101157187D01*
X119193350Y-101042093D01*
X119193354Y-101042086D01*
X119243596Y-100907379D01*
X119243598Y-100907372D01*
X119249999Y-100847844D01*
X119250000Y-100847827D01*
X119250000Y-100200000D01*
X118333012Y-100200000D01*
X118365925Y-100142993D01*
X118400000Y-100015826D01*
X118400000Y-99884174D01*
X118365925Y-99757007D01*
X118333012Y-99700000D01*
X119250000Y-99700000D01*
X119250000Y-99052172D01*
X119249999Y-99052155D01*
X119243598Y-98992627D01*
X119243596Y-98992620D01*
X119193354Y-98857913D01*
X119193350Y-98857906D01*
X119107190Y-98742812D01*
X119107187Y-98742809D01*
X118992093Y-98656649D01*
X118992086Y-98656645D01*
X118857379Y-98606403D01*
X118857372Y-98606401D01*
X118797844Y-98600000D01*
X118150000Y-98600000D01*
X118150000Y-99516988D01*
X118092993Y-99484075D01*
X117965826Y-99450000D01*
X117834174Y-99450000D01*
X117707007Y-99484075D01*
X117650000Y-99516988D01*
X117650000Y-98600000D01*
X117002155Y-98600000D01*
X116942627Y-98606401D01*
X116942620Y-98606403D01*
X116807913Y-98656645D01*
X116807906Y-98656649D01*
X116692812Y-98742809D01*
X116692809Y-98742812D01*
X116606649Y-98857906D01*
X116606645Y-98857913D01*
X116556403Y-98992620D01*
X116556401Y-98992627D01*
X116550000Y-99052155D01*
X113900500Y-99052155D01*
X113900500Y-75973791D01*
X113920185Y-75906752D01*
X113972989Y-75860997D01*
X114042147Y-75851053D01*
X114105703Y-75880078D01*
X114136882Y-75921387D01*
X114186398Y-76027575D01*
X114186399Y-76027577D01*
X114321894Y-76221082D01*
X114488917Y-76388105D01*
X114682421Y-76523600D01*
X114896507Y-76623429D01*
X114896516Y-76623433D01*
X115110000Y-76680634D01*
X115110000Y-75783012D01*
X115167007Y-75815925D01*
X115294174Y-75850000D01*
X115425826Y-75850000D01*
X115552993Y-75815925D01*
X115610000Y-75783012D01*
X115610000Y-76597980D01*
G37*
%TD.AperFunction*%
%TA.AperFunction,Conductor*%
G36*
X119917482Y-79342292D02*
G01*
X119989890Y-79467708D01*
X120092292Y-79570110D01*
X120217708Y-79642518D01*
X120259765Y-79653787D01*
X119704527Y-80209024D01*
X119716274Y-80217250D01*
X119759899Y-80271827D01*
X119767093Y-80341325D01*
X119736994Y-80400861D01*
X119737161Y-80400993D01*
X119736516Y-80401808D01*
X119735570Y-80403680D01*
X119732841Y-80406498D01*
X119732684Y-80406654D01*
X119640643Y-80555875D01*
X119640641Y-80555880D01*
X119585494Y-80722302D01*
X119585493Y-80722309D01*
X119575000Y-80825013D01*
X119575000Y-81100000D01*
X120538500Y-81100000D01*
X120605539Y-81119685D01*
X120651294Y-81172489D01*
X120662500Y-81224000D01*
X120662500Y-81350000D01*
X120788500Y-81350000D01*
X120855539Y-81369685D01*
X120901294Y-81422489D01*
X120912500Y-81474000D01*
X120912500Y-84774999D01*
X121049972Y-84774999D01*
X121049986Y-84774998D01*
X121152697Y-84764505D01*
X121319119Y-84709358D01*
X121319124Y-84709356D01*
X121468345Y-84617315D01*
X121592318Y-84493342D01*
X121594165Y-84490348D01*
X121595969Y-84488724D01*
X121596798Y-84487677D01*
X121596976Y-84487818D01*
X121646110Y-84443621D01*
X121715073Y-84432396D01*
X121779156Y-84460236D01*
X121805243Y-84490341D01*
X121807288Y-84493656D01*
X121931344Y-84617712D01*
X122080666Y-84709814D01*
X122247203Y-84764999D01*
X122349991Y-84775500D01*
X123125008Y-84775499D01*
X123125016Y-84775498D01*
X123125019Y-84775498D01*
X123181302Y-84769748D01*
X123227797Y-84764999D01*
X123394334Y-84709814D01*
X123543656Y-84617712D01*
X123667712Y-84493656D01*
X123759814Y-84344334D01*
X123814999Y-84177797D01*
X123825500Y-84075009D01*
X123825499Y-83059985D01*
X123825592Y-83055190D01*
X123825601Y-83054942D01*
X123827103Y-83016161D01*
X123769297Y-82462881D01*
X123769297Y-82437113D01*
X123827103Y-81883838D01*
X123829840Y-81831103D01*
X123829839Y-81828667D01*
X123826195Y-81794420D01*
X123825499Y-81781301D01*
X123825499Y-80859987D01*
X123825592Y-80855188D01*
X123827103Y-80816171D01*
X123827102Y-80816168D01*
X123827103Y-80816161D01*
X123808666Y-80639698D01*
X123816004Y-80582972D01*
X124131292Y-79748893D01*
X124173408Y-79693149D01*
X124238979Y-79669020D01*
X124307186Y-79684173D01*
X124356373Y-79733795D01*
X124359659Y-79740332D01*
X124373993Y-79771071D01*
X124379431Y-79782732D01*
X124379432Y-79782734D01*
X124509954Y-79969141D01*
X124670858Y-80130045D01*
X124670861Y-80130047D01*
X124857266Y-80260568D01*
X125063504Y-80356739D01*
X125283308Y-80415635D01*
X125445230Y-80429801D01*
X125509998Y-80435468D01*
X125510000Y-80435468D01*
X125510002Y-80435468D01*
X125566673Y-80430509D01*
X125736692Y-80415635D01*
X125956496Y-80356739D01*
X126162734Y-80260568D01*
X126349139Y-80130047D01*
X126510047Y-79969139D01*
X126640568Y-79782734D01*
X126661832Y-79737132D01*
X126671869Y-79719528D01*
X126678757Y-79709460D01*
X126732853Y-79665248D01*
X126802269Y-79657300D01*
X126864962Y-79688143D01*
X126893476Y-79727071D01*
X126919432Y-79782734D01*
X126966887Y-79850508D01*
X127049954Y-79969141D01*
X127210858Y-80130045D01*
X127210861Y-80130047D01*
X127397266Y-80260568D01*
X127603504Y-80356739D01*
X127823308Y-80415635D01*
X127985230Y-80429801D01*
X128049998Y-80435468D01*
X128050000Y-80435468D01*
X128050002Y-80435468D01*
X128106673Y-80430509D01*
X128276692Y-80415635D01*
X128496496Y-80356739D01*
X128702734Y-80260568D01*
X128889139Y-80130047D01*
X129050047Y-79969139D01*
X129180568Y-79782734D01*
X129201832Y-79737132D01*
X129211869Y-79719528D01*
X129218757Y-79709460D01*
X129272853Y-79665248D01*
X129342269Y-79657300D01*
X129404962Y-79688143D01*
X129433476Y-79727071D01*
X129459432Y-79782734D01*
X129506887Y-79850508D01*
X129589954Y-79969141D01*
X129750858Y-80130045D01*
X129750861Y-80130047D01*
X129937266Y-80260568D01*
X130143504Y-80356739D01*
X130363308Y-80415635D01*
X130525230Y-80429801D01*
X130589998Y-80435468D01*
X130590000Y-80435468D01*
X130590002Y-80435468D01*
X130646673Y-80430509D01*
X130816692Y-80415635D01*
X131036496Y-80356739D01*
X131242734Y-80260568D01*
X131429139Y-80130047D01*
X131590047Y-79969139D01*
X131720568Y-79782734D01*
X131741832Y-79737132D01*
X131751869Y-79719528D01*
X131758757Y-79709460D01*
X131812853Y-79665248D01*
X131882269Y-79657300D01*
X131944962Y-79688143D01*
X131973476Y-79727071D01*
X131999432Y-79782734D01*
X132046887Y-79850508D01*
X132129954Y-79969141D01*
X132290858Y-80130045D01*
X132290861Y-80130047D01*
X132477266Y-80260568D01*
X132683504Y-80356739D01*
X132903308Y-80415635D01*
X133014547Y-80425367D01*
X133026329Y-80426398D01*
X133091398Y-80451850D01*
X133132377Y-80508441D01*
X133136255Y-80578203D01*
X133101801Y-80638987D01*
X133071977Y-80660329D01*
X132337512Y-81035903D01*
X132281058Y-81049500D01*
X132199999Y-81049500D01*
X132199980Y-81049501D01*
X132097203Y-81060000D01*
X132097200Y-81060001D01*
X131930668Y-81115185D01*
X131930663Y-81115187D01*
X131781342Y-81207289D01*
X131657289Y-81331342D01*
X131565187Y-81480663D01*
X131565186Y-81480666D01*
X131510001Y-81647203D01*
X131510001Y-81647204D01*
X131510000Y-81647204D01*
X131499500Y-81749983D01*
X131499500Y-82371684D01*
X131479815Y-82438723D01*
X131427011Y-82484478D01*
X131357853Y-82494422D01*
X131328048Y-82486245D01*
X131304328Y-82476420D01*
X131304322Y-82476418D01*
X131168995Y-82449500D01*
X131168993Y-82449500D01*
X130231007Y-82449500D01*
X130231003Y-82449500D01*
X130122590Y-82471065D01*
X130122589Y-82471065D01*
X130095681Y-82476418D01*
X130095671Y-82476420D01*
X129968190Y-82529224D01*
X129853454Y-82605887D01*
X129155890Y-83303451D01*
X129155884Y-83303458D01*
X129121895Y-83354328D01*
X129121895Y-83354329D01*
X129100560Y-83386259D01*
X129079225Y-83418188D01*
X129079221Y-83418195D01*
X129026421Y-83545667D01*
X129026418Y-83545677D01*
X128999500Y-83681004D01*
X128999500Y-83681007D01*
X128999500Y-85681006D01*
X128999500Y-85818994D01*
X128999500Y-85818996D01*
X128999499Y-85818996D01*
X129026418Y-85954322D01*
X129026421Y-85954332D01*
X129079222Y-86081807D01*
X129155887Y-86196545D01*
X129853454Y-86894112D01*
X129968190Y-86970776D01*
X130066790Y-87011617D01*
X130095671Y-87023580D01*
X130095672Y-87023580D01*
X130095677Y-87023582D01*
X130122545Y-87028925D01*
X130122551Y-87028926D01*
X130122591Y-87028934D01*
X130212937Y-87046905D01*
X130231006Y-87050500D01*
X130231007Y-87050500D01*
X130426574Y-87050500D01*
X130493613Y-87070185D01*
X130530888Y-87107459D01*
X130561005Y-87154322D01*
X130593015Y-87204132D01*
X130593018Y-87204136D01*
X130639134Y-87257357D01*
X130668159Y-87320913D01*
X130658215Y-87390071D01*
X130633102Y-87426240D01*
X130246162Y-87813181D01*
X130184839Y-87846666D01*
X130158481Y-87849500D01*
X118441519Y-87849500D01*
X118374480Y-87829815D01*
X118353838Y-87813181D01*
X116836819Y-86296162D01*
X116803334Y-86234839D01*
X116800500Y-86208481D01*
X116800500Y-84074986D01*
X119575001Y-84074986D01*
X119585494Y-84177697D01*
X119640641Y-84344119D01*
X119640643Y-84344124D01*
X119732684Y-84493345D01*
X119856654Y-84617315D01*
X120005875Y-84709356D01*
X120005880Y-84709358D01*
X120172302Y-84764505D01*
X120172309Y-84764506D01*
X120275019Y-84774999D01*
X120412499Y-84774999D01*
X120412500Y-84774998D01*
X120412500Y-83800000D01*
X119575001Y-83800000D01*
X119575001Y-84074986D01*
X116800500Y-84074986D01*
X116800500Y-83025013D01*
X119575000Y-83025013D01*
X119575000Y-83300000D01*
X120412500Y-83300000D01*
X120412500Y-81600000D01*
X119575001Y-81600000D01*
X119575001Y-81874986D01*
X119585494Y-81977697D01*
X119640641Y-82144119D01*
X119640643Y-82144124D01*
X119732684Y-82293345D01*
X119801658Y-82362319D01*
X119835143Y-82423642D01*
X119830159Y-82493334D01*
X119801658Y-82537681D01*
X119732684Y-82606654D01*
X119640643Y-82755875D01*
X119640641Y-82755880D01*
X119585494Y-82922302D01*
X119585493Y-82922309D01*
X119575000Y-83025013D01*
X116800500Y-83025013D01*
X116800500Y-80179049D01*
X116820185Y-80112010D01*
X116872989Y-80066255D01*
X116942147Y-80056311D01*
X117005703Y-80085336D01*
X117012181Y-80091368D01*
X117050858Y-80130045D01*
X117050861Y-80130047D01*
X117237266Y-80260568D01*
X117443504Y-80356739D01*
X117663308Y-80415635D01*
X117825230Y-80429801D01*
X117889998Y-80435468D01*
X117890000Y-80435468D01*
X117890002Y-80435468D01*
X117946673Y-80430509D01*
X118116692Y-80415635D01*
X118336496Y-80356739D01*
X118542734Y-80260568D01*
X118729139Y-80130047D01*
X118890047Y-79969139D01*
X119020568Y-79782734D01*
X119047893Y-79724134D01*
X119094065Y-79671695D01*
X119161258Y-79652543D01*
X119228139Y-79672758D01*
X119272657Y-79724134D01*
X119299864Y-79782480D01*
X119350974Y-79855472D01*
X119906212Y-79300234D01*
X119917482Y-79342292D01*
G37*
%TD.AperFunction*%
%TA.AperFunction,Conductor*%
G36*
X121509024Y-79855471D02*
G01*
X121565766Y-79850508D01*
X121634266Y-79864275D01*
X121684449Y-79912891D01*
X121700456Y-79968654D01*
X121710627Y-80202771D01*
X121710073Y-80221039D01*
X121708411Y-80236945D01*
X121681866Y-80301576D01*
X121624593Y-80341596D01*
X121554775Y-80344298D01*
X121497401Y-80311740D01*
X121468344Y-80282683D01*
X121468340Y-80282680D01*
X121364002Y-80218323D01*
X121363999Y-80218323D01*
X121352066Y-80230257D01*
X121290743Y-80263742D01*
X121221051Y-80258758D01*
X121176704Y-80230257D01*
X120600234Y-79653787D01*
X120642292Y-79642518D01*
X120767708Y-79570110D01*
X120870110Y-79467708D01*
X120942518Y-79342292D01*
X120953787Y-79300234D01*
X121509024Y-79855471D01*
G37*
%TD.AperFunction*%
%TA.AperFunction,Conductor*%
G36*
X121100000Y-73402661D02*
G01*
X121127259Y-73504394D01*
X121179920Y-73595606D01*
X121254394Y-73670080D01*
X121345606Y-73722741D01*
X121447339Y-73750000D01*
X121453552Y-73750000D01*
X120774526Y-74429025D01*
X120847513Y-74480132D01*
X120847521Y-74480136D01*
X121053668Y-74576264D01*
X121053682Y-74576269D01*
X121273389Y-74635139D01*
X121273400Y-74635141D01*
X121499998Y-74654966D01*
X121500002Y-74654966D01*
X121726599Y-74635141D01*
X121726610Y-74635139D01*
X121946317Y-74576269D01*
X121946326Y-74576265D01*
X122152481Y-74480134D01*
X122165253Y-74471191D01*
X122231459Y-74448862D01*
X122299227Y-74465870D01*
X122335644Y-74498449D01*
X122342454Y-74507546D01*
X122425753Y-74569903D01*
X122462008Y-74613035D01*
X122633033Y-74949901D01*
X122686067Y-75054360D01*
X122699500Y-75110494D01*
X122699500Y-77551512D01*
X122679815Y-77618551D01*
X122659449Y-77642773D01*
X122070987Y-78184089D01*
X122062475Y-78192106D01*
X122062121Y-78192448D01*
X122062117Y-78192451D01*
X122019607Y-78238871D01*
X122018278Y-78240660D01*
X122006433Y-78254379D01*
X121969956Y-78290857D01*
X121969948Y-78290866D01*
X121839432Y-78477265D01*
X121839428Y-78477272D01*
X121812105Y-78535866D01*
X121765932Y-78588305D01*
X121698738Y-78607456D01*
X121631858Y-78587239D01*
X121587342Y-78535864D01*
X121560136Y-78477521D01*
X121560132Y-78477513D01*
X121509025Y-78404526D01*
X120953787Y-78959764D01*
X120942518Y-78917708D01*
X120870110Y-78792292D01*
X120767708Y-78689890D01*
X120642292Y-78617482D01*
X120600233Y-78606212D01*
X121155472Y-78050974D01*
X121082478Y-77999863D01*
X120876331Y-77903735D01*
X120876317Y-77903730D01*
X120656610Y-77844860D01*
X120656599Y-77844858D01*
X120430002Y-77825034D01*
X120429998Y-77825034D01*
X120203400Y-77844858D01*
X120203389Y-77844860D01*
X119983682Y-77903730D01*
X119983673Y-77903734D01*
X119777516Y-77999866D01*
X119777512Y-77999868D01*
X119704526Y-78050973D01*
X119704526Y-78050974D01*
X120259765Y-78606212D01*
X120217708Y-78617482D01*
X120092292Y-78689890D01*
X119989890Y-78792292D01*
X119917482Y-78917708D01*
X119906212Y-78959765D01*
X119350974Y-78404526D01*
X119350973Y-78404526D01*
X119299868Y-78477512D01*
X119299868Y-78477513D01*
X119272657Y-78535867D01*
X119226484Y-78588306D01*
X119159290Y-78607457D01*
X119092409Y-78587241D01*
X119047893Y-78535865D01*
X119045478Y-78530687D01*
X119020568Y-78477266D01*
X118891965Y-78293600D01*
X118869638Y-78227394D01*
X118886648Y-78159626D01*
X118905855Y-78134800D01*
X120044114Y-76996543D01*
X120120775Y-76881811D01*
X120173580Y-76754329D01*
X120178909Y-76727535D01*
X120184287Y-76700502D01*
X120184287Y-76700499D01*
X120200500Y-76618993D01*
X120200500Y-74153880D01*
X120220185Y-74086841D01*
X120272989Y-74041086D01*
X120342147Y-74031142D01*
X120405703Y-74060167D01*
X120419379Y-74075333D01*
X120420974Y-74075472D01*
X121100000Y-73396446D01*
X121100000Y-73402661D01*
G37*
%TD.AperFunction*%
%TA.AperFunction,Conductor*%
G36*
X115610000Y-72880633D02*
G01*
X115823483Y-72823433D01*
X115823492Y-72823429D01*
X116037578Y-72723600D01*
X116231078Y-72588108D01*
X116353133Y-72466053D01*
X116414456Y-72432568D01*
X116484148Y-72437552D01*
X116540082Y-72479423D01*
X116556997Y-72510401D01*
X116606202Y-72642328D01*
X116606206Y-72642335D01*
X116692452Y-72757544D01*
X116692455Y-72757547D01*
X116807664Y-72843793D01*
X116807671Y-72843797D01*
X116851364Y-72860093D01*
X116942517Y-72894091D01*
X117002127Y-72900500D01*
X117402490Y-72900499D01*
X117453075Y-72911286D01*
X118383117Y-73326838D01*
X118383116Y-73326838D01*
X118624165Y-73434540D01*
X118634359Y-73439095D01*
X118726084Y-73480078D01*
X118779262Y-73525398D01*
X118799496Y-73592274D01*
X118799500Y-73593291D01*
X118799500Y-73875500D01*
X118779815Y-73942539D01*
X118727011Y-73988294D01*
X118675500Y-73999500D01*
X117002129Y-73999500D01*
X117002123Y-73999501D01*
X116942516Y-74005908D01*
X116807671Y-74056202D01*
X116807664Y-74056206D01*
X116692455Y-74142452D01*
X116692452Y-74142455D01*
X116606206Y-74257664D01*
X116606202Y-74257671D01*
X116556997Y-74389598D01*
X116515126Y-74445532D01*
X116449661Y-74469949D01*
X116381388Y-74455097D01*
X116353134Y-74433946D01*
X116231082Y-74311894D01*
X116037578Y-74176399D01*
X115823492Y-74076570D01*
X115823486Y-74076567D01*
X115610000Y-74019364D01*
X115610000Y-74916988D01*
X115552993Y-74884075D01*
X115425826Y-74850000D01*
X115294174Y-74850000D01*
X115167007Y-74884075D01*
X115110000Y-74916988D01*
X115110000Y-74019364D01*
X115109999Y-74019364D01*
X114896513Y-74076567D01*
X114896507Y-74076570D01*
X114682422Y-74176399D01*
X114682420Y-74176400D01*
X114488926Y-74311886D01*
X114488920Y-74311891D01*
X114321891Y-74478920D01*
X114321886Y-74478926D01*
X114186400Y-74672420D01*
X114186399Y-74672422D01*
X114136882Y-74778613D01*
X114090710Y-74831052D01*
X114023516Y-74850204D01*
X113956635Y-74829988D01*
X113911300Y-74776823D01*
X113900500Y-74726208D01*
X113900500Y-72173791D01*
X113920185Y-72106752D01*
X113972989Y-72060997D01*
X114042147Y-72051053D01*
X114105703Y-72080078D01*
X114136882Y-72121387D01*
X114186398Y-72227575D01*
X114186399Y-72227577D01*
X114321894Y-72421082D01*
X114488917Y-72588105D01*
X114682421Y-72723600D01*
X114896507Y-72823429D01*
X114896516Y-72823433D01*
X115110000Y-72880634D01*
X115110000Y-71983012D01*
X115167007Y-72015925D01*
X115294174Y-72050000D01*
X115425826Y-72050000D01*
X115552993Y-72015925D01*
X115610000Y-71983012D01*
X115610000Y-72880633D01*
G37*
%TD.AperFunction*%
%TA.AperFunction,Conductor*%
G36*
X120327309Y-67570185D02*
G01*
X120373064Y-67622989D01*
X120383008Y-67692147D01*
X120372652Y-67726905D01*
X120286570Y-67911507D01*
X120286567Y-67911513D01*
X120229364Y-68124999D01*
X120229364Y-68125000D01*
X121126988Y-68125000D01*
X121094075Y-68182007D01*
X121060000Y-68309174D01*
X121060000Y-68440826D01*
X121094075Y-68567993D01*
X121126988Y-68625000D01*
X120229364Y-68625000D01*
X120286567Y-68838486D01*
X120286570Y-68838492D01*
X120386399Y-69052578D01*
X120521894Y-69246082D01*
X120688917Y-69413105D01*
X120882421Y-69548600D01*
X121096507Y-69648429D01*
X121096516Y-69648433D01*
X121310000Y-69705634D01*
X121310000Y-68808012D01*
X121367007Y-68840925D01*
X121494174Y-68875000D01*
X121625826Y-68875000D01*
X121752993Y-68840925D01*
X121810000Y-68808012D01*
X121810000Y-69705633D01*
X122023483Y-69648433D01*
X122023492Y-69648429D01*
X122237578Y-69548600D01*
X122431082Y-69413105D01*
X122487819Y-69356369D01*
X122549142Y-69322884D01*
X122618834Y-69327868D01*
X122674767Y-69369740D01*
X122699184Y-69435204D01*
X122699500Y-69444050D01*
X122699500Y-69886299D01*
X122699452Y-69889743D01*
X122695027Y-70048972D01*
X122694896Y-70055081D01*
X122694889Y-70055530D01*
X122697727Y-70117346D01*
X122698146Y-70120154D01*
X122699500Y-70138430D01*
X122699500Y-71589503D01*
X122686067Y-71645637D01*
X122462007Y-72086964D01*
X122425752Y-72130096D01*
X122342454Y-72192453D01*
X122342452Y-72192456D01*
X122335645Y-72201549D01*
X122279710Y-72243418D01*
X122210018Y-72248400D01*
X122165260Y-72228812D01*
X122152485Y-72219868D01*
X122152481Y-72219865D01*
X121946326Y-72123734D01*
X121946317Y-72123730D01*
X121726610Y-72064860D01*
X121726599Y-72064858D01*
X121500002Y-72045034D01*
X121499998Y-72045034D01*
X121273400Y-72064858D01*
X121273389Y-72064860D01*
X121053682Y-72123730D01*
X121053673Y-72123734D01*
X120847516Y-72219866D01*
X120847512Y-72219868D01*
X120774526Y-72270973D01*
X120774526Y-72270974D01*
X121453553Y-72950000D01*
X121447339Y-72950000D01*
X121345606Y-72977259D01*
X121254394Y-73029920D01*
X121179920Y-73104394D01*
X121127259Y-73195606D01*
X121100000Y-73297339D01*
X121100000Y-73303552D01*
X120420974Y-72624526D01*
X120420973Y-72624526D01*
X120369868Y-72697512D01*
X120369868Y-72697513D01*
X120327438Y-72788503D01*
X120281265Y-72840942D01*
X120214071Y-72860093D01*
X120147190Y-72839877D01*
X120111955Y-72804989D01*
X120044114Y-72703457D01*
X119937809Y-72597152D01*
X119912280Y-72560059D01*
X119904816Y-72543354D01*
X119261286Y-71103073D01*
X119250499Y-71052488D01*
X119250499Y-70652129D01*
X119250498Y-70652123D01*
X119244091Y-70592516D01*
X119193797Y-70457671D01*
X119193793Y-70457664D01*
X119107547Y-70342455D01*
X119107544Y-70342452D01*
X118992335Y-70256206D01*
X118992328Y-70256202D01*
X118857482Y-70205908D01*
X118857483Y-70205908D01*
X118797883Y-70199501D01*
X118797881Y-70199500D01*
X118797873Y-70199500D01*
X118797864Y-70199500D01*
X117002129Y-70199500D01*
X117002123Y-70199501D01*
X116942516Y-70205908D01*
X116807671Y-70256202D01*
X116807664Y-70256206D01*
X116692455Y-70342452D01*
X116692452Y-70342455D01*
X116606206Y-70457664D01*
X116606202Y-70457671D01*
X116556997Y-70589598D01*
X116515126Y-70645532D01*
X116449661Y-70669949D01*
X116381388Y-70655097D01*
X116353134Y-70633946D01*
X116231082Y-70511894D01*
X116037578Y-70376399D01*
X115823492Y-70276570D01*
X115823486Y-70276567D01*
X115610000Y-70219364D01*
X115610000Y-71116988D01*
X115552993Y-71084075D01*
X115425826Y-71050000D01*
X115294174Y-71050000D01*
X115167007Y-71084075D01*
X115110000Y-71116988D01*
X115110000Y-70219364D01*
X115109999Y-70219364D01*
X114896513Y-70276567D01*
X114896507Y-70276570D01*
X114682422Y-70376399D01*
X114682420Y-70376400D01*
X114488926Y-70511886D01*
X114488920Y-70511891D01*
X114321891Y-70678920D01*
X114321886Y-70678926D01*
X114186400Y-70872420D01*
X114186399Y-70872422D01*
X114136882Y-70978613D01*
X114090710Y-71031052D01*
X114023516Y-71050204D01*
X113956635Y-71029988D01*
X113911300Y-70976823D01*
X113900500Y-70926208D01*
X113900500Y-70615782D01*
X113920185Y-70548743D01*
X113936819Y-70528101D01*
X116878101Y-67586819D01*
X116939424Y-67553334D01*
X116965782Y-67550500D01*
X120260270Y-67550500D01*
X120327309Y-67570185D01*
G37*
%TD.AperFunction*%
%TD*%
%TA.AperFunction,Conductor*%
%TO.N,VCC*%
G36*
X124192456Y-77835803D02*
G01*
X124195883Y-77844076D01*
X124195371Y-77847500D01*
X123712868Y-79423847D01*
X123707169Y-79430755D01*
X123698256Y-79431611D01*
X123697215Y-79431238D01*
X122972161Y-79131892D01*
X122968346Y-79129343D01*
X122412925Y-78572940D01*
X122409505Y-78564664D01*
X122412939Y-78556394D01*
X122413244Y-78556100D01*
X123196642Y-77835465D01*
X123204563Y-77832376D01*
X124184183Y-77832376D01*
X124192456Y-77835803D01*
G37*
%TD.AperFunction*%
%TD*%
%TA.AperFunction,Conductor*%
%TO.N,VCC*%
G36*
X123235231Y-82240927D02*
G01*
X123238595Y-82247984D01*
X123324340Y-83068688D01*
X123321791Y-83077273D01*
X123320068Y-83078995D01*
X122744865Y-83545032D01*
X122736280Y-83547577D01*
X122730135Y-83545032D01*
X122154931Y-83078995D01*
X122150660Y-83071124D01*
X122150659Y-83068688D01*
X122236405Y-82247984D01*
X122240673Y-82240112D01*
X122248042Y-82237500D01*
X123226958Y-82237500D01*
X123235231Y-82240927D01*
G37*
%TD.AperFunction*%
%TD*%
%TA.AperFunction,Conductor*%
%TO.N,VCC*%
G36*
X122744865Y-81354967D02*
G01*
X123320068Y-81821004D01*
X123324339Y-81828875D01*
X123324340Y-81831311D01*
X123238595Y-82652016D01*
X123234327Y-82659888D01*
X123226958Y-82662500D01*
X122248042Y-82662500D01*
X122239769Y-82659073D01*
X122236405Y-82652016D01*
X122150659Y-81831311D01*
X122153208Y-81822726D01*
X122154926Y-81821008D01*
X122730135Y-81354966D01*
X122738720Y-81352422D01*
X122744865Y-81354967D01*
G37*
%TD.AperFunction*%
%TD*%
%TA.AperFunction,Conductor*%
%TO.N,VCC*%
G36*
X153762389Y-92810723D02*
G01*
X153765195Y-92815235D01*
X154185585Y-94053488D01*
X154185000Y-94062423D01*
X154178996Y-94068053D01*
X153452163Y-94370101D01*
X153447658Y-94370997D01*
X152662556Y-94370015D01*
X152654288Y-94366578D01*
X152650871Y-94358300D01*
X152650900Y-94357494D01*
X152761718Y-92818155D01*
X152765730Y-92810150D01*
X152773388Y-92807296D01*
X153754116Y-92807296D01*
X153762389Y-92810723D01*
G37*
%TD.AperFunction*%
%TD*%
%TA.AperFunction,Conductor*%
%TO.N,VCC*%
G36*
X153269865Y-92154967D02*
G01*
X153845068Y-92621004D01*
X153849339Y-92628875D01*
X153849340Y-92631311D01*
X153763595Y-93452016D01*
X153759327Y-93459888D01*
X153751958Y-93462500D01*
X152773042Y-93462500D01*
X152764769Y-93459073D01*
X152761405Y-93452016D01*
X152675659Y-92631311D01*
X152678208Y-92622726D01*
X152679926Y-92621008D01*
X153255135Y-92154966D01*
X153263720Y-92152422D01*
X153269865Y-92154967D01*
G37*
%TD.AperFunction*%
%TD*%
%TA.AperFunction,Conductor*%
%TO.N,VCC*%
G36*
X153452158Y-94369897D02*
G01*
X154178938Y-94671922D01*
X154185263Y-94678261D01*
X154185506Y-94686550D01*
X153757836Y-95923359D01*
X153751893Y-95930058D01*
X153746778Y-95931235D01*
X152766052Y-95931235D01*
X152757779Y-95927808D01*
X152754378Y-95920321D01*
X152670754Y-94678261D01*
X152650839Y-94382468D01*
X152653703Y-94373985D01*
X152661727Y-94370010D01*
X152662486Y-94369984D01*
X153447662Y-94369002D01*
X153452158Y-94369897D01*
G37*
%TD.AperFunction*%
%TD*%
%TA.AperFunction,Conductor*%
%TO.N,VCC*%
G36*
X153755278Y-99753427D02*
G01*
X153757960Y-99757592D01*
X154052469Y-100542951D01*
X154052165Y-100551901D01*
X154049792Y-100555327D01*
X153263391Y-101342711D01*
X153255120Y-101346143D01*
X153246845Y-101342721D01*
X153246835Y-101342711D01*
X152460433Y-100555327D01*
X152457011Y-100547052D01*
X152457756Y-100542951D01*
X152752266Y-99757592D01*
X152758380Y-99751049D01*
X152763221Y-99750000D01*
X153747005Y-99750000D01*
X153755278Y-99753427D01*
G37*
%TD.AperFunction*%
%TD*%
%TA.AperFunction,Conductor*%
%TO.N,VCC*%
G36*
X153269865Y-89954967D02*
G01*
X153845068Y-90421004D01*
X153849339Y-90428875D01*
X153849340Y-90431311D01*
X153763595Y-91252016D01*
X153759327Y-91259888D01*
X153751958Y-91262500D01*
X152773042Y-91262500D01*
X152764769Y-91259073D01*
X152761405Y-91252016D01*
X152675659Y-90431311D01*
X152678208Y-90422726D01*
X152679926Y-90421008D01*
X153255135Y-89954966D01*
X153263720Y-89952422D01*
X153269865Y-89954967D01*
G37*
%TD.AperFunction*%
%TD*%
%TA.AperFunction,Conductor*%
%TO.N,VCC*%
G36*
X153760231Y-90840927D02*
G01*
X153763595Y-90847984D01*
X153849340Y-91668688D01*
X153846791Y-91677273D01*
X153845068Y-91678995D01*
X153269865Y-92145032D01*
X153261280Y-92147577D01*
X153255135Y-92145032D01*
X152679931Y-91678995D01*
X152675660Y-91671124D01*
X152675659Y-91668688D01*
X152761405Y-90847984D01*
X152765673Y-90840112D01*
X152773042Y-90837500D01*
X153751958Y-90837500D01*
X153760231Y-90840927D01*
G37*
%TD.AperFunction*%
%TD*%
%TA.AperFunction,Conductor*%
%TO.N,VCC*%
G36*
X123635785Y-66578573D02*
G01*
X124587965Y-67518636D01*
X124591445Y-67526887D01*
X124589864Y-67532835D01*
X124103147Y-68371502D01*
X124096031Y-68376937D01*
X124096005Y-68376944D01*
X123261462Y-68596512D01*
X123252589Y-68595303D01*
X123247170Y-68588174D01*
X123247150Y-68588099D01*
X122922007Y-67283934D01*
X122923331Y-67275078D01*
X122925083Y-67272835D01*
X123619293Y-66578625D01*
X123627565Y-66575199D01*
X123635785Y-66578573D01*
G37*
%TD.AperFunction*%
%TD*%
%TA.AperFunction,Conductor*%
%TO.N,VCC*%
G36*
X153263381Y-101357278D02*
G01*
X153263391Y-101357288D01*
X154049792Y-102144672D01*
X154053214Y-102152947D01*
X154052469Y-102157048D01*
X153757960Y-102942408D01*
X153751847Y-102948951D01*
X153747005Y-102950000D01*
X152763221Y-102950000D01*
X152754948Y-102946573D01*
X152752266Y-102942408D01*
X152457756Y-102157048D01*
X152458060Y-102148099D01*
X152460429Y-102144676D01*
X153246835Y-101357287D01*
X153255106Y-101353856D01*
X153263381Y-101357278D01*
G37*
%TD.AperFunction*%
%TD*%
%TA.AperFunction,Conductor*%
%TO.N,VCC*%
G36*
X123235231Y-80040927D02*
G01*
X123238595Y-80047984D01*
X123324340Y-80868688D01*
X123321791Y-80877273D01*
X123320068Y-80878995D01*
X122744865Y-81345032D01*
X122736280Y-81347577D01*
X122730135Y-81345032D01*
X122154931Y-80878995D01*
X122150660Y-80871124D01*
X122150659Y-80868688D01*
X122236405Y-80047984D01*
X122240673Y-80040112D01*
X122248042Y-80037500D01*
X123226958Y-80037500D01*
X123235231Y-80040927D01*
G37*
%TD.AperFunction*%
%TD*%
%TA.AperFunction,Conductor*%
%TO.N,VCC*%
G36*
X122972158Y-79129897D02*
G01*
X123698646Y-79431801D01*
X123704970Y-79438139D01*
X123705099Y-79446741D01*
X123240359Y-80676190D01*
X123234228Y-80682717D01*
X123229415Y-80683753D01*
X122248703Y-80683753D01*
X122240430Y-80680326D01*
X122237014Y-80672561D01*
X122183760Y-79446741D01*
X122170529Y-79142190D01*
X122173594Y-79133778D01*
X122181710Y-79129995D01*
X122182167Y-79129984D01*
X122967662Y-79129002D01*
X122972158Y-79129897D01*
G37*
%TD.AperFunction*%
%TD*%
%TA.AperFunction,Conductor*%
%TO.N,VCC*%
G36*
X123262670Y-68276872D02*
G01*
X124095182Y-68373441D01*
X124103003Y-68377797D01*
X124103009Y-68377804D01*
X124767763Y-69218292D01*
X124770207Y-69226907D01*
X124768287Y-69232090D01*
X124203479Y-70069840D01*
X124196013Y-70074785D01*
X124193778Y-70075000D01*
X123212029Y-70075000D01*
X123203756Y-70071573D01*
X123200329Y-70063300D01*
X123200334Y-70062975D01*
X123247155Y-68377797D01*
X123249645Y-68288170D01*
X123253300Y-68279996D01*
X123261665Y-68276801D01*
X123262670Y-68276872D01*
G37*
%TD.AperFunction*%
%TD*%
%TA.AperFunction,Conductor*%
%TO.N,VCC*%
G36*
X124197944Y-71753427D02*
G01*
X124201281Y-71760249D01*
X124299290Y-72544327D01*
X124296915Y-72552961D01*
X124295958Y-72554046D01*
X123508809Y-73342179D01*
X123500538Y-73345611D01*
X123492263Y-73342189D01*
X123491755Y-73341648D01*
X122799092Y-72555953D01*
X122796192Y-72547483D01*
X122797435Y-72542925D01*
X123196749Y-71756402D01*
X123203549Y-71750578D01*
X123207181Y-71750000D01*
X124189671Y-71750000D01*
X124197944Y-71753427D01*
G37*
%TD.AperFunction*%
%TD*%
%TA.AperFunction,Conductor*%
%TO.N,VCC*%
G36*
X123508268Y-73357312D02*
G01*
X123508809Y-73357820D01*
X124295958Y-74145953D01*
X124299380Y-74154228D01*
X124299290Y-74155672D01*
X124201281Y-74939751D01*
X124196854Y-74947535D01*
X124189671Y-74950000D01*
X123207181Y-74950000D01*
X123198908Y-74946573D01*
X123196749Y-74943597D01*
X122797436Y-74157076D01*
X122796747Y-74148149D01*
X122799089Y-74144049D01*
X123491757Y-73358349D01*
X123499796Y-73354411D01*
X123508268Y-73357312D01*
G37*
%TD.AperFunction*%
%TD*%
%TA.AperFunction,Conductor*%
%TO.N,+5V*%
G36*
X118748444Y-71202268D02*
G01*
X118754638Y-71208300D01*
X119489177Y-72852266D01*
X119489423Y-72861218D01*
X119486768Y-72865312D01*
X119215312Y-73136768D01*
X119207039Y-73140195D01*
X119202267Y-73139177D01*
X118589331Y-72865312D01*
X117558301Y-72404638D01*
X117552146Y-72398135D01*
X117552260Y-72389489D01*
X117897438Y-71553782D01*
X117903761Y-71547447D01*
X118739490Y-71202259D01*
X118748444Y-71202268D01*
G37*
%TD.AperFunction*%
%TD*%
%TA.AperFunction,Conductor*%
%TO.N,+3.3V*%
G36*
X135160320Y-89575397D02*
G01*
X135693455Y-90141982D01*
X135696629Y-90150356D01*
X135693455Y-90158018D01*
X135160320Y-90724602D01*
X135152155Y-90728279D01*
X135146524Y-90727028D01*
X134406425Y-90353244D01*
X134400586Y-90346455D01*
X134400000Y-90342800D01*
X134400000Y-89957199D01*
X134403427Y-89948926D01*
X134406425Y-89946755D01*
X135146526Y-89572970D01*
X135155454Y-89572301D01*
X135160320Y-89575397D01*
G37*
%TD.AperFunction*%
%TD*%
%TA.AperFunction,Conductor*%
%TO.N,+3.3V*%
G36*
X117060509Y-75002258D02*
G01*
X117896216Y-75347438D01*
X117902553Y-75353763D01*
X117902562Y-75353784D01*
X118247740Y-76189489D01*
X118247731Y-76198444D01*
X118241699Y-76204638D01*
X116597733Y-76939177D01*
X116588781Y-76939423D01*
X116584687Y-76936768D01*
X116313231Y-76665312D01*
X116309804Y-76657039D01*
X116310820Y-76652271D01*
X117045361Y-75008299D01*
X117051864Y-75002145D01*
X117060509Y-75002258D01*
G37*
%TD.AperFunction*%
%TD*%
%TA.AperFunction,Conductor*%
%TO.N,ADC_V_B_C1*%
G36*
X148302634Y-77769529D02*
G01*
X148303513Y-77770513D01*
X148929181Y-78556148D01*
X148931655Y-78564755D01*
X148928309Y-78571703D01*
X148373434Y-79127559D01*
X148365164Y-79130993D01*
X148365139Y-79130993D01*
X147579597Y-79130011D01*
X147571329Y-79126574D01*
X147568136Y-79120585D01*
X147302766Y-77780074D01*
X147304521Y-77771293D01*
X147311971Y-77766325D01*
X147314243Y-77766102D01*
X148294361Y-77766102D01*
X148302634Y-77769529D01*
G37*
%TD.AperFunction*%
%TD*%
%TA.AperFunction,Conductor*%
%TO.N,ADC_V_B_C1*%
G36*
X147808266Y-71257276D02*
G01*
X148644491Y-72094484D01*
X148647913Y-72102759D01*
X148647032Y-72107207D01*
X148302983Y-72942755D01*
X148296664Y-72949100D01*
X148292164Y-72950000D01*
X147307836Y-72950000D01*
X147299563Y-72946573D01*
X147297017Y-72942755D01*
X147198717Y-72704027D01*
X146952967Y-72107205D01*
X146952986Y-72098252D01*
X146955504Y-72094488D01*
X147791723Y-71257286D01*
X147799993Y-71253855D01*
X147808266Y-71257276D01*
G37*
%TD.AperFunction*%
%TD*%
%TA.AperFunction,Conductor*%
%TO.N,IBUS_RX*%
G36*
X167808266Y-71257276D02*
G01*
X168644491Y-72094484D01*
X168647913Y-72102759D01*
X168647032Y-72107207D01*
X168302983Y-72942755D01*
X168296664Y-72949100D01*
X168292164Y-72950000D01*
X167307836Y-72950000D01*
X167299563Y-72946573D01*
X167297017Y-72942755D01*
X167198717Y-72704027D01*
X166952967Y-72107205D01*
X166952986Y-72098252D01*
X166955504Y-72094488D01*
X167791723Y-71257286D01*
X167799993Y-71253855D01*
X167808266Y-71257276D01*
G37*
%TD.AperFunction*%
%TD*%
%TA.AperFunction,Conductor*%
%TO.N,IBUS_RX*%
G36*
X170460196Y-77650560D02*
G01*
X171082909Y-78076626D01*
X171784065Y-78556364D01*
X171788958Y-78563864D01*
X171787114Y-78572627D01*
X171785741Y-78574283D01*
X171230727Y-79130687D01*
X171230707Y-79130707D01*
X170674283Y-79685741D01*
X170666005Y-79689158D01*
X170657737Y-79685721D01*
X170656364Y-79684065D01*
X170277737Y-79130687D01*
X169890220Y-78564315D01*
X169750560Y-78360196D01*
X169748716Y-78351433D01*
X169751941Y-78345318D01*
X170445317Y-77651942D01*
X170453589Y-77648516D01*
X170460196Y-77650560D01*
G37*
%TD.AperFunction*%
%TD*%
%TA.AperFunction,Conductor*%
%TO.N,ADC_V_B_C2*%
G36*
X146298765Y-77539394D02*
G01*
X146301944Y-77545273D01*
X146567123Y-78814372D01*
X146565460Y-78823171D01*
X146560160Y-78827569D01*
X145832163Y-79130101D01*
X145827658Y-79130997D01*
X145043830Y-79130017D01*
X145035562Y-79126580D01*
X145032145Y-79118302D01*
X145032308Y-79116373D01*
X145298349Y-77545712D01*
X145303110Y-77538128D01*
X145309885Y-77535967D01*
X146290492Y-77535967D01*
X146298765Y-77539394D01*
G37*
%TD.AperFunction*%
%TD*%
%TA.AperFunction,Conductor*%
%TO.N,ADC_V_B_C2*%
G36*
X145808266Y-67457276D02*
G01*
X146644491Y-68294484D01*
X146647913Y-68302759D01*
X146647032Y-68307207D01*
X146302983Y-69142755D01*
X146296664Y-69149100D01*
X146292164Y-69150000D01*
X145307836Y-69150000D01*
X145299563Y-69146573D01*
X145297017Y-69142755D01*
X145198717Y-68904027D01*
X144952967Y-68307205D01*
X144952986Y-68298252D01*
X144955504Y-68294488D01*
X145791723Y-67457286D01*
X145799993Y-67453855D01*
X145808266Y-67457276D01*
G37*
%TD.AperFunction*%
%TD*%
%TA.AperFunction,Conductor*%
%TO.N,ADC_V_B_C3*%
G36*
X144294691Y-77730534D02*
G01*
X144298118Y-77738807D01*
X144297989Y-77740539D01*
X144091490Y-79120044D01*
X144086876Y-79127719D01*
X144079934Y-79130012D01*
X143294860Y-79130993D01*
X143286582Y-79127576D01*
X143286565Y-79127559D01*
X142731185Y-78571197D01*
X142727765Y-78562921D01*
X142729823Y-78556304D01*
X143296513Y-77732177D01*
X143304025Y-77727302D01*
X143306154Y-77727107D01*
X144286418Y-77727107D01*
X144294691Y-77730534D01*
G37*
%TD.AperFunction*%
%TD*%
%TA.AperFunction,Conductor*%
%TO.N,ADC_V_B_C3*%
G36*
X143808266Y-71257276D02*
G01*
X144644491Y-72094484D01*
X144647913Y-72102759D01*
X144647032Y-72107207D01*
X144302983Y-72942755D01*
X144296664Y-72949100D01*
X144292164Y-72950000D01*
X143307836Y-72950000D01*
X143299563Y-72946573D01*
X143297017Y-72942755D01*
X143198717Y-72704027D01*
X142952967Y-72107205D01*
X142952986Y-72098252D01*
X142955504Y-72094488D01*
X143791723Y-71257286D01*
X143799993Y-71253855D01*
X143808266Y-71257276D01*
G37*
%TD.AperFunction*%
%TD*%
%TA.AperFunction,Conductor*%
%TO.N,ADC_V_B_C4*%
G36*
X142288464Y-77968351D02*
G01*
X142291891Y-77976624D01*
X142290438Y-77982272D01*
X141494151Y-79426989D01*
X141487156Y-79432580D01*
X141479439Y-79432156D01*
X140754490Y-79132853D01*
X140748151Y-79126528D01*
X140748143Y-79126510D01*
X140656811Y-78905719D01*
X140448024Y-78400979D01*
X140448029Y-78392026D01*
X140453623Y-78386034D01*
X141297538Y-77966149D01*
X141302750Y-77964924D01*
X142280191Y-77964924D01*
X142288464Y-77968351D01*
G37*
%TD.AperFunction*%
%TD*%
%TA.AperFunction,Conductor*%
%TO.N,ADC_V_B_C4*%
G36*
X141808266Y-67457276D02*
G01*
X142644491Y-68294484D01*
X142647913Y-68302759D01*
X142647032Y-68307207D01*
X142302983Y-69142755D01*
X142296664Y-69149100D01*
X142292164Y-69150000D01*
X141307836Y-69150000D01*
X141299563Y-69146573D01*
X141297017Y-69142755D01*
X141198717Y-68904027D01*
X140952967Y-68307205D01*
X140952986Y-68298252D01*
X140955504Y-68294488D01*
X141791723Y-67457286D01*
X141799993Y-67453855D01*
X141808266Y-67457276D01*
G37*
%TD.AperFunction*%
%TD*%
%TA.AperFunction,Conductor*%
%TO.N,ADC_V_PER*%
G36*
X133808266Y-67457276D02*
G01*
X134644491Y-68294484D01*
X134647913Y-68302759D01*
X134647032Y-68307207D01*
X134302983Y-69142755D01*
X134296664Y-69149100D01*
X134292164Y-69150000D01*
X133307836Y-69150000D01*
X133299563Y-69146573D01*
X133297017Y-69142755D01*
X133198717Y-68904027D01*
X132952967Y-68307205D01*
X132952986Y-68298252D01*
X132955504Y-68294488D01*
X133791723Y-67457286D01*
X133799993Y-67453855D01*
X133808266Y-67457276D01*
G37*
%TD.AperFunction*%
%TD*%
%TA.AperFunction,Conductor*%
%TO.N,ADC_V_PER*%
G36*
X131374683Y-77651943D02*
G01*
X132068056Y-78345316D01*
X132071483Y-78353589D01*
X132069439Y-78360196D01*
X131163635Y-79684065D01*
X131156135Y-79688958D01*
X131147372Y-79687114D01*
X131145716Y-79685741D01*
X130589293Y-79130707D01*
X130589273Y-79130687D01*
X130034258Y-78574283D01*
X130030841Y-78566005D01*
X130034278Y-78557737D01*
X130035925Y-78556370D01*
X131359803Y-77650559D01*
X131368566Y-77648716D01*
X131374683Y-77651943D01*
G37*
%TD.AperFunction*%
%TD*%
%TA.AperFunction,Conductor*%
%TO.N,ADC_V_MCU*%
G36*
X135808266Y-71257276D02*
G01*
X136644491Y-72094484D01*
X136647913Y-72102759D01*
X136647032Y-72107207D01*
X136302983Y-72942755D01*
X136296664Y-72949100D01*
X136292164Y-72950000D01*
X135307836Y-72950000D01*
X135299563Y-72946573D01*
X135297017Y-72942755D01*
X135198717Y-72704027D01*
X134952967Y-72107205D01*
X134952986Y-72098252D01*
X134955504Y-72094488D01*
X135791723Y-71257286D01*
X135799993Y-71253855D01*
X135808266Y-71257276D01*
G37*
%TD.AperFunction*%
%TD*%
%TA.AperFunction,Conductor*%
%TO.N,ADC_V_MCU*%
G36*
X133914683Y-77651943D02*
G01*
X134608056Y-78345316D01*
X134611483Y-78353589D01*
X134609439Y-78360196D01*
X133703635Y-79684065D01*
X133696135Y-79688958D01*
X133687372Y-79687114D01*
X133685716Y-79685741D01*
X133129293Y-79130707D01*
X133129273Y-79130687D01*
X132574258Y-78574283D01*
X132570841Y-78566005D01*
X132574278Y-78557737D01*
X132575925Y-78556370D01*
X133899803Y-77650559D01*
X133908566Y-77648716D01*
X133914683Y-77651943D01*
G37*
%TD.AperFunction*%
%TD*%
%TA.AperFunction,Conductor*%
%TO.N,ADC_V_JET*%
G36*
X158800437Y-102053427D02*
G01*
X158802983Y-102057245D01*
X159147032Y-102892792D01*
X159147013Y-102901747D01*
X159144491Y-102905515D01*
X158308278Y-103742712D01*
X158300007Y-103746144D01*
X158291732Y-103742722D01*
X158291722Y-103742712D01*
X158012144Y-103462805D01*
X157455507Y-102905514D01*
X157452086Y-102897240D01*
X157452966Y-102892796D01*
X157797017Y-102057245D01*
X157803336Y-102050900D01*
X157807836Y-102050000D01*
X158792164Y-102050000D01*
X158800437Y-102053427D01*
G37*
%TD.AperFunction*%
%TD*%
%TA.AperFunction,Conductor*%
%TO.N,ADC_V_JET*%
G36*
X156562262Y-93814278D02*
G01*
X156563635Y-93815934D01*
X157469439Y-95139803D01*
X157471283Y-95148566D01*
X157468056Y-95154683D01*
X156774683Y-95848056D01*
X156766410Y-95851483D01*
X156759803Y-95849439D01*
X155435934Y-94943635D01*
X155431041Y-94936135D01*
X155432885Y-94927372D01*
X155434252Y-94925722D01*
X155989293Y-94369293D01*
X156545717Y-93814257D01*
X156553994Y-93810841D01*
X156562262Y-93814278D01*
G37*
%TD.AperFunction*%
%TD*%
%TA.AperFunction,Conductor*%
%TO.N,ADC_I_M_FR*%
G36*
X160800437Y-98253427D02*
G01*
X160802983Y-98257245D01*
X161147032Y-99092792D01*
X161147013Y-99101747D01*
X161144491Y-99105515D01*
X160308278Y-99942712D01*
X160300007Y-99946144D01*
X160291732Y-99942722D01*
X160291722Y-99942712D01*
X160012144Y-99662805D01*
X159455507Y-99105514D01*
X159452086Y-99097240D01*
X159452966Y-99092796D01*
X159797017Y-98257245D01*
X159803336Y-98250900D01*
X159807836Y-98250000D01*
X160792164Y-98250000D01*
X160800437Y-98253427D01*
G37*
%TD.AperFunction*%
%TD*%
%TA.AperFunction,Conductor*%
%TO.N,ADC_I_M_FR*%
G36*
X159102262Y-93814278D02*
G01*
X159103635Y-93815934D01*
X160009439Y-95139803D01*
X160011283Y-95148566D01*
X160008056Y-95154683D01*
X159314683Y-95848056D01*
X159306410Y-95851483D01*
X159299803Y-95849439D01*
X157975934Y-94943635D01*
X157971041Y-94936135D01*
X157972885Y-94927372D01*
X157974252Y-94925722D01*
X158529293Y-94369293D01*
X159085717Y-93814257D01*
X159093994Y-93810841D01*
X159102262Y-93814278D01*
G37*
%TD.AperFunction*%
%TD*%
%TA.AperFunction,Conductor*%
%TO.N,ADC_I_SERVO*%
G36*
X155808269Y-71257305D02*
G01*
X155808752Y-71257762D01*
X156645638Y-72095633D01*
X156649060Y-72103908D01*
X156648858Y-72106065D01*
X156491795Y-72940464D01*
X156486897Y-72947961D01*
X156480297Y-72950000D01*
X155497042Y-72950000D01*
X155488769Y-72946573D01*
X155486703Y-72943776D01*
X155043582Y-72107197D01*
X155042738Y-72098283D01*
X155045196Y-72093926D01*
X155791750Y-71258234D01*
X155799816Y-71254349D01*
X155808269Y-71257305D01*
G37*
%TD.AperFunction*%
%TD*%
%TA.AperFunction,Conductor*%
%TO.N,ADC_I_SERVO*%
G36*
X156488563Y-77533427D02*
G01*
X156491790Y-77539544D01*
X156787405Y-79116161D01*
X156785561Y-79124924D01*
X156778061Y-79129817D01*
X156775920Y-79130017D01*
X155990015Y-79130999D01*
X155989985Y-79130999D01*
X155204079Y-79130017D01*
X155195811Y-79126580D01*
X155192394Y-79118302D01*
X155192593Y-79116169D01*
X155488210Y-77539542D01*
X155493103Y-77532044D01*
X155499710Y-77530000D01*
X156480290Y-77530000D01*
X156488563Y-77533427D01*
G37*
%TD.AperFunction*%
%TD*%
%TA.AperFunction,Conductor*%
%TO.N,ADC_I_JET*%
G36*
X157808266Y-67457276D02*
G01*
X158644491Y-68294484D01*
X158647913Y-68302759D01*
X158647032Y-68307207D01*
X158302983Y-69142755D01*
X158296664Y-69149100D01*
X158292164Y-69150000D01*
X157307836Y-69150000D01*
X157299563Y-69146573D01*
X157297017Y-69142755D01*
X157198717Y-68904027D01*
X156952967Y-68307205D01*
X156952986Y-68298252D01*
X156955504Y-68294488D01*
X157791723Y-67457286D01*
X157799993Y-67453855D01*
X157808266Y-67457276D01*
G37*
%TD.AperFunction*%
%TD*%
%TA.AperFunction,Conductor*%
%TO.N,ADC_I_JET*%
G36*
X158303358Y-77835465D02*
G01*
X159086715Y-78556064D01*
X159090484Y-78564186D01*
X159087405Y-78572595D01*
X159087074Y-78572940D01*
X158531653Y-79129343D01*
X158527838Y-79131892D01*
X157802784Y-79431238D01*
X157793829Y-79431227D01*
X157787504Y-79424888D01*
X157787131Y-79423847D01*
X157526678Y-78572940D01*
X157304629Y-77847499D01*
X157305485Y-77838587D01*
X157312393Y-77832888D01*
X157315817Y-77832376D01*
X158295437Y-77832376D01*
X158303358Y-77835465D01*
G37*
%TD.AperFunction*%
%TD*%
%TA.AperFunction,Conductor*%
%TO.N,ADC_I_TEENSY*%
G36*
X160300196Y-77650560D02*
G01*
X160922909Y-78076626D01*
X161624065Y-78556364D01*
X161628958Y-78563864D01*
X161627114Y-78572627D01*
X161625741Y-78574283D01*
X161070727Y-79130687D01*
X161070707Y-79130707D01*
X160514283Y-79685741D01*
X160506005Y-79689158D01*
X160497737Y-79685721D01*
X160496364Y-79684065D01*
X160117737Y-79130687D01*
X159730220Y-78564315D01*
X159590560Y-78360196D01*
X159588716Y-78351433D01*
X159591941Y-78345318D01*
X160285317Y-77651942D01*
X160293589Y-77648516D01*
X160300196Y-77650560D01*
G37*
%TD.AperFunction*%
%TD*%
%TA.AperFunction,Conductor*%
%TO.N,ADC_I_TEENSY*%
G36*
X159808266Y-71257276D02*
G01*
X160644491Y-72094484D01*
X160647913Y-72102759D01*
X160647032Y-72107207D01*
X160302983Y-72942755D01*
X160296664Y-72949100D01*
X160292164Y-72950000D01*
X159307836Y-72950000D01*
X159299563Y-72946573D01*
X159297017Y-72942755D01*
X159198717Y-72704027D01*
X158952967Y-72107205D01*
X158952986Y-72098252D01*
X158955504Y-72094488D01*
X159791723Y-71257286D01*
X159799993Y-71253855D01*
X159808266Y-71257276D01*
G37*
%TD.AperFunction*%
%TD*%
%TA.AperFunction,Conductor*%
%TO.N,ADC_I_M_RL*%
G36*
X162840196Y-77650560D02*
G01*
X163462909Y-78076626D01*
X164164065Y-78556364D01*
X164168958Y-78563864D01*
X164167114Y-78572627D01*
X164165741Y-78574283D01*
X163610727Y-79130687D01*
X163610707Y-79130707D01*
X163054283Y-79685741D01*
X163046005Y-79689158D01*
X163037737Y-79685721D01*
X163036364Y-79684065D01*
X162657737Y-79130687D01*
X162270220Y-78564315D01*
X162130560Y-78360196D01*
X162128716Y-78351433D01*
X162131941Y-78345318D01*
X162825317Y-77651942D01*
X162833589Y-77648516D01*
X162840196Y-77650560D01*
G37*
%TD.AperFunction*%
%TD*%
%TA.AperFunction,Conductor*%
%TO.N,ADC_I_M_RL*%
G36*
X161808266Y-67457276D02*
G01*
X162644491Y-68294484D01*
X162647913Y-68302759D01*
X162647032Y-68307207D01*
X162302983Y-69142755D01*
X162296664Y-69149100D01*
X162292164Y-69150000D01*
X161307836Y-69150000D01*
X161299563Y-69146573D01*
X161297017Y-69142755D01*
X161198717Y-68904027D01*
X160952967Y-68307205D01*
X160952986Y-68298252D01*
X160955504Y-68294488D01*
X161791723Y-67457286D01*
X161799993Y-67453855D01*
X161808266Y-67457276D01*
G37*
%TD.AperFunction*%
%TD*%
%TA.AperFunction,Conductor*%
%TO.N,ADC_I_M_RR*%
G36*
X164345860Y-94068900D02*
G01*
X164352185Y-94075239D01*
X164352642Y-94076567D01*
X164795871Y-95669356D01*
X164794787Y-95678245D01*
X164787736Y-95683765D01*
X164784599Y-95684193D01*
X163804815Y-95684193D01*
X163796581Y-95680806D01*
X163052659Y-94943950D01*
X163049193Y-94935693D01*
X163052578Y-94927407D01*
X163608348Y-94370654D01*
X163612157Y-94368109D01*
X164336906Y-94068889D01*
X164345860Y-94068900D01*
G37*
%TD.AperFunction*%
%TD*%
%TA.AperFunction,Conductor*%
%TO.N,ADC_I_M_RR*%
G36*
X164800437Y-98253427D02*
G01*
X164802983Y-98257245D01*
X165147032Y-99092792D01*
X165147013Y-99101747D01*
X165144491Y-99105515D01*
X164308278Y-99942712D01*
X164300007Y-99946144D01*
X164291732Y-99942722D01*
X164291722Y-99942712D01*
X164012144Y-99662805D01*
X163455507Y-99105514D01*
X163452086Y-99097240D01*
X163452966Y-99092796D01*
X163797017Y-98257245D01*
X163803336Y-98250900D01*
X163807836Y-98250000D01*
X164792164Y-98250000D01*
X164800437Y-98253427D01*
G37*
%TD.AperFunction*%
%TD*%
%TA.AperFunction,Conductor*%
%TO.N,ADC_I_M_FL*%
G36*
X162800437Y-102053427D02*
G01*
X162802983Y-102057245D01*
X163147032Y-102892792D01*
X163147013Y-102901747D01*
X163144491Y-102905515D01*
X162308278Y-103742712D01*
X162300007Y-103746144D01*
X162291732Y-103742722D01*
X162291722Y-103742712D01*
X162012144Y-103462805D01*
X161455507Y-102905514D01*
X161452086Y-102897240D01*
X161452966Y-102892796D01*
X161797017Y-102057245D01*
X161803336Y-102050900D01*
X161807836Y-102050000D01*
X162792164Y-102050000D01*
X162800437Y-102053427D01*
G37*
%TD.AperFunction*%
%TD*%
%TA.AperFunction,Conductor*%
%TO.N,ADC_I_M_FL*%
G36*
X161642262Y-93814278D02*
G01*
X161643635Y-93815934D01*
X162549439Y-95139803D01*
X162551283Y-95148566D01*
X162548056Y-95154683D01*
X161854683Y-95848056D01*
X161846410Y-95851483D01*
X161839803Y-95849439D01*
X160515934Y-94943635D01*
X160511041Y-94936135D01*
X160512885Y-94927372D01*
X160514252Y-94925722D01*
X161069293Y-94369293D01*
X161625717Y-93814257D01*
X161633994Y-93810841D01*
X161642262Y-93814278D01*
G37*
%TD.AperFunction*%
%TD*%
%TA.AperFunction,Conductor*%
%TO.N,EN_W_RL*%
G36*
X126300437Y-98253427D02*
G01*
X126302983Y-98257245D01*
X126647032Y-99092792D01*
X126647013Y-99101747D01*
X126644491Y-99105515D01*
X125808278Y-99942712D01*
X125800007Y-99946144D01*
X125791732Y-99942722D01*
X125791722Y-99942712D01*
X125512144Y-99662805D01*
X124955507Y-99105514D01*
X124952086Y-99097240D01*
X124952966Y-99092796D01*
X125297017Y-98257245D01*
X125303336Y-98250900D01*
X125307836Y-98250000D01*
X126292164Y-98250000D01*
X126300437Y-98253427D01*
G37*
%TD.AperFunction*%
%TD*%
%TA.AperFunction,Conductor*%
%TO.N,EN_W_RL*%
G36*
X126298238Y-94369985D02*
G01*
X126306506Y-94373422D01*
X126309923Y-94381700D01*
X126309923Y-94381761D01*
X126300075Y-95900692D01*
X126296594Y-95908943D01*
X126288375Y-95912316D01*
X125307719Y-95912316D01*
X125299446Y-95908889D01*
X125296963Y-95905220D01*
X125149579Y-95560882D01*
X124775547Y-94687015D01*
X124775443Y-94678063D01*
X124781699Y-94671657D01*
X125507841Y-94369896D01*
X125512336Y-94369002D01*
X126298238Y-94369985D01*
G37*
%TD.AperFunction*%
%TD*%
%TA.AperFunction,Conductor*%
%TO.N,EN_W_RR*%
G36*
X128052158Y-94369897D02*
G01*
X128753383Y-94661302D01*
X128777616Y-94671373D01*
X128783941Y-94677712D01*
X128783930Y-94686667D01*
X128783635Y-94687320D01*
X128203209Y-95873245D01*
X128196494Y-95879170D01*
X128192700Y-95879802D01*
X127212094Y-95879802D01*
X127203821Y-95876375D01*
X127200394Y-95868102D01*
X127200400Y-95867715D01*
X127239491Y-94687320D01*
X127249625Y-94381295D01*
X127253324Y-94373143D01*
X127261301Y-94369985D01*
X128047662Y-94369002D01*
X128052158Y-94369897D01*
G37*
%TD.AperFunction*%
%TD*%
%TA.AperFunction,Conductor*%
%TO.N,EN_W_RR*%
G36*
X128200437Y-102053427D02*
G01*
X128202983Y-102057245D01*
X128547032Y-102892792D01*
X128547013Y-102901747D01*
X128544491Y-102905515D01*
X127708278Y-103742712D01*
X127700007Y-103746144D01*
X127691732Y-103742722D01*
X127691722Y-103742712D01*
X127412144Y-103462805D01*
X126855507Y-102905514D01*
X126852086Y-102897240D01*
X126852966Y-102892796D01*
X127197017Y-102057245D01*
X127203336Y-102050900D01*
X127207836Y-102050000D01*
X128192164Y-102050000D01*
X128200437Y-102053427D01*
G37*
%TD.AperFunction*%
%TD*%
%TA.AperFunction,Conductor*%
%TO.N,EN_W_FL*%
G36*
X130200437Y-98253427D02*
G01*
X130202983Y-98257245D01*
X130547032Y-99092792D01*
X130547013Y-99101747D01*
X130544491Y-99105515D01*
X129708278Y-99942712D01*
X129700007Y-99946144D01*
X129691732Y-99942722D01*
X129691722Y-99942712D01*
X129412144Y-99662805D01*
X128855507Y-99105514D01*
X128852086Y-99097240D01*
X128852966Y-99092796D01*
X129197017Y-98257245D01*
X129203336Y-98250900D01*
X129207836Y-98250000D01*
X130192164Y-98250000D01*
X130200437Y-98253427D01*
G37*
%TD.AperFunction*%
%TD*%
%TA.AperFunction,Conductor*%
%TO.N,EN_W_FL*%
G36*
X129861613Y-94068277D02*
G01*
X130587839Y-94368108D01*
X130591653Y-94370656D01*
X131145817Y-94925800D01*
X131149237Y-94934076D01*
X131145803Y-94942346D01*
X131144224Y-94943667D01*
X130454552Y-95424045D01*
X130204921Y-95597923D01*
X130203014Y-95599251D01*
X130196327Y-95601350D01*
X129217658Y-95601350D01*
X129209385Y-95597923D01*
X129205958Y-95589650D01*
X129206884Y-95585089D01*
X129846375Y-94074532D01*
X129852756Y-94068249D01*
X129861613Y-94068277D01*
G37*
%TD.AperFunction*%
%TD*%
%TA.AperFunction,Conductor*%
%TO.N,EN_W_FR*%
G36*
X132200437Y-102053427D02*
G01*
X132202983Y-102057245D01*
X132547032Y-102892792D01*
X132547013Y-102901747D01*
X132544491Y-102905515D01*
X131708278Y-103742712D01*
X131700007Y-103746144D01*
X131691732Y-103742722D01*
X131691722Y-103742712D01*
X131412144Y-103462805D01*
X130855507Y-102905514D01*
X130852086Y-102897240D01*
X130852966Y-102892796D01*
X131197017Y-102057245D01*
X131203336Y-102050900D01*
X131207836Y-102050000D01*
X132192164Y-102050000D01*
X132200437Y-102053427D01*
G37*
%TD.AperFunction*%
%TD*%
%TA.AperFunction,Conductor*%
%TO.N,EN_W_FR*%
G36*
X132572627Y-93812885D02*
G01*
X132574283Y-93814258D01*
X133130707Y-94369293D01*
X133130727Y-94369313D01*
X133685741Y-94925716D01*
X133689158Y-94933994D01*
X133685721Y-94942262D01*
X133684065Y-94943635D01*
X132360196Y-95849439D01*
X132351433Y-95851283D01*
X132345316Y-95848056D01*
X131651943Y-95154683D01*
X131648516Y-95146410D01*
X131650560Y-95139803D01*
X131784780Y-94943635D01*
X132556366Y-93815932D01*
X132563864Y-93811041D01*
X132572627Y-93812885D01*
G37*
%TD.AperFunction*%
%TD*%
%TA.AperFunction,Conductor*%
%TO.N,EN_M_RL*%
G36*
X170501337Y-94068163D02*
G01*
X171053236Y-94296021D01*
X171225509Y-94367146D01*
X171231848Y-94373471D01*
X171231856Y-94373489D01*
X171532420Y-95100095D01*
X171532415Y-95109050D01*
X171527958Y-95114394D01*
X170906835Y-95515746D01*
X170825596Y-95568242D01*
X170802899Y-95582908D01*
X170796549Y-95584781D01*
X169818165Y-95584781D01*
X169809892Y-95581354D01*
X169806465Y-95573081D01*
X169807513Y-95568242D01*
X169808858Y-95565279D01*
X170486223Y-94074138D01*
X170492763Y-94068025D01*
X170501337Y-94068163D01*
G37*
%TD.AperFunction*%
%TD*%
%TA.AperFunction,Conductor*%
%TO.N,EN_M_RL*%
G36*
X170800437Y-102053427D02*
G01*
X170802983Y-102057245D01*
X171147032Y-102892792D01*
X171147013Y-102901747D01*
X171144491Y-102905515D01*
X170308278Y-103742712D01*
X170300007Y-103746144D01*
X170291732Y-103742722D01*
X170291722Y-103742712D01*
X170012144Y-103462805D01*
X169455507Y-102905514D01*
X169452086Y-102897240D01*
X169452966Y-102892796D01*
X169797017Y-102057245D01*
X169803336Y-102050900D01*
X169807836Y-102050000D01*
X170792164Y-102050000D01*
X170800437Y-102053427D01*
G37*
%TD.AperFunction*%
%TD*%
%TA.AperFunction,Conductor*%
%TO.N,EN_M_RR*%
G36*
X172800437Y-98253427D02*
G01*
X172802983Y-98257245D01*
X173147032Y-99092792D01*
X173147013Y-99101747D01*
X173144491Y-99105515D01*
X172308278Y-99942712D01*
X172300007Y-99946144D01*
X172291732Y-99942722D01*
X172291722Y-99942712D01*
X172012144Y-99662805D01*
X171455507Y-99105514D01*
X171452086Y-99097240D01*
X171452966Y-99092796D01*
X171797017Y-98257245D01*
X171803336Y-98250900D01*
X171807836Y-98250000D01*
X172792164Y-98250000D01*
X172800437Y-98253427D01*
G37*
%TD.AperFunction*%
%TD*%
%TA.AperFunction,Conductor*%
%TO.N,EN_M_RR*%
G36*
X173212627Y-93812885D02*
G01*
X173214283Y-93814258D01*
X173770707Y-94369293D01*
X173770727Y-94369313D01*
X174325741Y-94925716D01*
X174329158Y-94933994D01*
X174325721Y-94942262D01*
X174324065Y-94943635D01*
X173000196Y-95849439D01*
X172991433Y-95851283D01*
X172985316Y-95848056D01*
X172291943Y-95154683D01*
X172288516Y-95146410D01*
X172290560Y-95139803D01*
X172424780Y-94943635D01*
X173196366Y-93815932D01*
X173203864Y-93811041D01*
X173212627Y-93812885D01*
G37*
%TD.AperFunction*%
%TD*%
%TA.AperFunction,Conductor*%
%TO.N,EN_M_FL*%
G36*
X174800437Y-102053427D02*
G01*
X174802983Y-102057245D01*
X175147032Y-102892792D01*
X175147013Y-102901747D01*
X175144491Y-102905515D01*
X174308278Y-103742712D01*
X174300007Y-103746144D01*
X174291732Y-103742722D01*
X174291722Y-103742712D01*
X174012144Y-103462805D01*
X173455507Y-102905514D01*
X173452086Y-102897240D01*
X173452966Y-102892796D01*
X173797017Y-102057245D01*
X173803336Y-102050900D01*
X173807836Y-102050000D01*
X174792164Y-102050000D01*
X174800437Y-102053427D01*
G37*
%TD.AperFunction*%
%TD*%
%TA.AperFunction,Conductor*%
%TO.N,EN_M_FL*%
G36*
X175752627Y-93812885D02*
G01*
X175754283Y-93814258D01*
X176310707Y-94369293D01*
X176310727Y-94369313D01*
X176865741Y-94925716D01*
X176869158Y-94933994D01*
X176865721Y-94942262D01*
X176864065Y-94943635D01*
X175540196Y-95849439D01*
X175531433Y-95851283D01*
X175525316Y-95848056D01*
X174831943Y-95154683D01*
X174828516Y-95146410D01*
X174830560Y-95139803D01*
X174964780Y-94943635D01*
X175736366Y-93815932D01*
X175743864Y-93811041D01*
X175752627Y-93812885D01*
G37*
%TD.AperFunction*%
%TD*%
%TA.AperFunction,Conductor*%
%TO.N,EN_M_FR*%
G36*
X167920196Y-77650560D02*
G01*
X168542909Y-78076626D01*
X169244065Y-78556364D01*
X169248958Y-78563864D01*
X169247114Y-78572627D01*
X169245741Y-78574283D01*
X168690727Y-79130687D01*
X168690707Y-79130707D01*
X168134283Y-79685741D01*
X168126005Y-79689158D01*
X168117737Y-79685721D01*
X168116364Y-79684065D01*
X167737737Y-79130687D01*
X167350220Y-78564315D01*
X167210560Y-78360196D01*
X167208716Y-78351433D01*
X167211941Y-78345318D01*
X167905317Y-77651942D01*
X167913589Y-77648516D01*
X167920196Y-77650560D01*
G37*
%TD.AperFunction*%
%TD*%
%TA.AperFunction,Conductor*%
%TO.N,EN_M_FR*%
G36*
X165808266Y-67457276D02*
G01*
X166644491Y-68294484D01*
X166647913Y-68302759D01*
X166647032Y-68307207D01*
X166302983Y-69142755D01*
X166296664Y-69149100D01*
X166292164Y-69150000D01*
X165307836Y-69150000D01*
X165299563Y-69146573D01*
X165297017Y-69142755D01*
X165198717Y-68904027D01*
X164952967Y-68307205D01*
X164952986Y-68298252D01*
X164955504Y-68294488D01*
X165791723Y-67457286D01*
X165799993Y-67453855D01*
X165808266Y-67457276D01*
G37*
%TD.AperFunction*%
%TD*%
%TA.AperFunction,Conductor*%
%TO.N,SPI_CS*%
G36*
X145272627Y-93812885D02*
G01*
X145274283Y-93814258D01*
X145830707Y-94369293D01*
X145830727Y-94369313D01*
X146385741Y-94925716D01*
X146389158Y-94933994D01*
X146385721Y-94942262D01*
X146384065Y-94943635D01*
X145060196Y-95849439D01*
X145051433Y-95851283D01*
X145045316Y-95848056D01*
X144351943Y-95154683D01*
X144348516Y-95146410D01*
X144350560Y-95139803D01*
X144484780Y-94943635D01*
X145256366Y-93815932D01*
X145263864Y-93811041D01*
X145272627Y-93812885D01*
G37*
%TD.AperFunction*%
%TD*%
%TA.AperFunction,Conductor*%
%TO.N,SPI_CS*%
G36*
X141531638Y-97978858D02*
G01*
X141534525Y-97980971D01*
X142229754Y-98676200D01*
X142230817Y-98677421D01*
X142543863Y-99091875D01*
X142546115Y-99100541D01*
X142542800Y-99107199D01*
X141708032Y-99941967D01*
X141699759Y-99945394D01*
X141691486Y-99941967D01*
X141691045Y-99941502D01*
X140942420Y-99106018D01*
X140939452Y-99097569D01*
X140940747Y-99092826D01*
X141515866Y-97983857D01*
X141522717Y-97978091D01*
X141531638Y-97978858D01*
G37*
%TD.AperFunction*%
%TD*%
%TA.AperFunction,Conductor*%
%TO.N,SPI_MOSI*%
G36*
X147812627Y-93812885D02*
G01*
X147814283Y-93814258D01*
X148370707Y-94369293D01*
X148370727Y-94369313D01*
X148925741Y-94925716D01*
X148929158Y-94933994D01*
X148925721Y-94942262D01*
X148924065Y-94943635D01*
X147600196Y-95849439D01*
X147591433Y-95851283D01*
X147585316Y-95848056D01*
X146891943Y-95154683D01*
X146888516Y-95146410D01*
X146890560Y-95139803D01*
X147024780Y-94943635D01*
X147796366Y-93815932D01*
X147803864Y-93811041D01*
X147812627Y-93812885D01*
G37*
%TD.AperFunction*%
%TD*%
%TA.AperFunction,Conductor*%
%TO.N,SPI_MOSI*%
G36*
X144200437Y-102053427D02*
G01*
X144202983Y-102057245D01*
X144547032Y-102892792D01*
X144547013Y-102901747D01*
X144544491Y-102905515D01*
X143708278Y-103742712D01*
X143700007Y-103746144D01*
X143691732Y-103742722D01*
X143691722Y-103742712D01*
X143412144Y-103462805D01*
X142855507Y-102905514D01*
X142852086Y-102897240D01*
X142852966Y-102892796D01*
X143197017Y-102057245D01*
X143203336Y-102050900D01*
X143207836Y-102050000D01*
X144192164Y-102050000D01*
X144200437Y-102053427D01*
G37*
%TD.AperFunction*%
%TD*%
%TA.AperFunction,Conductor*%
%TO.N,SPI_MISO*%
G36*
X150352627Y-93812885D02*
G01*
X150354283Y-93814258D01*
X150910707Y-94369293D01*
X150910727Y-94369313D01*
X151465741Y-94925716D01*
X151469158Y-94933994D01*
X151465721Y-94942262D01*
X151464065Y-94943635D01*
X150140196Y-95849439D01*
X150131433Y-95851283D01*
X150125316Y-95848056D01*
X149431943Y-95154683D01*
X149428516Y-95146410D01*
X149430560Y-95139803D01*
X149564780Y-94943635D01*
X150336366Y-93815932D01*
X150343864Y-93811041D01*
X150352627Y-93812885D01*
G37*
%TD.AperFunction*%
%TD*%
%TA.AperFunction,Conductor*%
%TO.N,SPI_MISO*%
G36*
X146434560Y-98152479D02*
G01*
X147128366Y-98846285D01*
X147131793Y-98854558D01*
X147130332Y-98860220D01*
X146354897Y-100262586D01*
X146347895Y-100268167D01*
X146340530Y-100267872D01*
X145503840Y-99952421D01*
X145497308Y-99946296D01*
X145497298Y-99946274D01*
X145120395Y-99108665D01*
X145120126Y-99099714D01*
X145124177Y-99094406D01*
X146419401Y-98151293D01*
X146428105Y-98149194D01*
X146434560Y-98152479D01*
G37*
%TD.AperFunction*%
%TD*%
%TA.AperFunction,Conductor*%
%TO.N,SPI_SCK*%
G36*
X150302242Y-77990758D02*
G01*
X151205646Y-78386298D01*
X151211850Y-78392756D01*
X151211765Y-78401488D01*
X150911856Y-79126510D01*
X150905527Y-79132845D01*
X150905509Y-79132853D01*
X150180194Y-79432308D01*
X150171239Y-79432297D01*
X150165706Y-79427528D01*
X149310679Y-78007512D01*
X149309347Y-77998657D01*
X149314667Y-77991454D01*
X149320702Y-77989777D01*
X150297550Y-77989777D01*
X150302242Y-77990758D01*
G37*
%TD.AperFunction*%
%TD*%
%TA.AperFunction,Conductor*%
%TO.N,SPI_SCK*%
G36*
X149808266Y-67457276D02*
G01*
X150644491Y-68294484D01*
X150647913Y-68302759D01*
X150647032Y-68307207D01*
X150302983Y-69142755D01*
X150296664Y-69149100D01*
X150292164Y-69150000D01*
X149307836Y-69150000D01*
X149299563Y-69146573D01*
X149297017Y-69142755D01*
X149198717Y-68904027D01*
X148952967Y-68307205D01*
X148952986Y-68298252D01*
X148955504Y-68294488D01*
X149791723Y-67457286D01*
X149799993Y-67453855D01*
X149808266Y-67457276D01*
G37*
%TD.AperFunction*%
%TD*%
%TA.AperFunction,Conductor*%
%TO.N,GPS_TX*%
G36*
X137652627Y-93812885D02*
G01*
X137654283Y-93814258D01*
X138210707Y-94369293D01*
X138210727Y-94369313D01*
X138765741Y-94925716D01*
X138769158Y-94933994D01*
X138765721Y-94942262D01*
X138764065Y-94943635D01*
X137440196Y-95849439D01*
X137431433Y-95851283D01*
X137425316Y-95848056D01*
X136731943Y-95154683D01*
X136728516Y-95146410D01*
X136730560Y-95139803D01*
X136864780Y-94943635D01*
X137636366Y-93815932D01*
X137643864Y-93811041D01*
X137652627Y-93812885D01*
G37*
%TD.AperFunction*%
%TD*%
%TA.AperFunction,Conductor*%
%TO.N,GPS_TX*%
G36*
X136200437Y-102053427D02*
G01*
X136202983Y-102057245D01*
X136547032Y-102892792D01*
X136547013Y-102901747D01*
X136544491Y-102905515D01*
X135708278Y-103742712D01*
X135700007Y-103746144D01*
X135691732Y-103742722D01*
X135691722Y-103742712D01*
X135412144Y-103462805D01*
X134855507Y-102905514D01*
X134852086Y-102897240D01*
X134852966Y-102892796D01*
X135197017Y-102057245D01*
X135203336Y-102050900D01*
X135207836Y-102050000D01*
X136192164Y-102050000D01*
X136200437Y-102053427D01*
G37*
%TD.AperFunction*%
%TD*%
%TA.AperFunction,Conductor*%
%TO.N,GPS_RX*%
G36*
X140192627Y-93812885D02*
G01*
X140194283Y-93814258D01*
X140750707Y-94369293D01*
X140750727Y-94369313D01*
X141305741Y-94925716D01*
X141309158Y-94933994D01*
X141305721Y-94942262D01*
X141304065Y-94943635D01*
X139980196Y-95849439D01*
X139971433Y-95851283D01*
X139965316Y-95848056D01*
X139271943Y-95154683D01*
X139268516Y-95146410D01*
X139270560Y-95139803D01*
X139404780Y-94943635D01*
X140176366Y-93815932D01*
X140183864Y-93811041D01*
X140192627Y-93812885D01*
G37*
%TD.AperFunction*%
%TD*%
%TA.AperFunction,Conductor*%
%TO.N,GPS_RX*%
G36*
X138200437Y-98253427D02*
G01*
X138202983Y-98257245D01*
X138547032Y-99092792D01*
X138547013Y-99101747D01*
X138544491Y-99105515D01*
X137708278Y-99942712D01*
X137700007Y-99946144D01*
X137691732Y-99942722D01*
X137691722Y-99942712D01*
X137412144Y-99662805D01*
X136855507Y-99105514D01*
X136852086Y-99097240D01*
X136852966Y-99092796D01*
X137197017Y-98257245D01*
X137203336Y-98250900D01*
X137207836Y-98250000D01*
X138192164Y-98250000D01*
X138200437Y-98253427D01*
G37*
%TD.AperFunction*%
%TD*%
%TA.AperFunction,Conductor*%
%TO.N,I2C_SCL*%
G36*
X136454683Y-77651943D02*
G01*
X137148056Y-78345316D01*
X137151483Y-78353589D01*
X137149439Y-78360196D01*
X136243635Y-79684065D01*
X136236135Y-79688958D01*
X136227372Y-79687114D01*
X136225716Y-79685741D01*
X135669293Y-79130707D01*
X135669273Y-79130687D01*
X135114258Y-78574283D01*
X135110841Y-78566005D01*
X135114278Y-78557737D01*
X135115925Y-78556370D01*
X136439803Y-77650559D01*
X136448566Y-77648716D01*
X136454683Y-77651943D01*
G37*
%TD.AperFunction*%
%TD*%
%TA.AperFunction,Conductor*%
%TO.N,I2C_SCL*%
G36*
X133522271Y-81006926D02*
G01*
X133793644Y-81278299D01*
X133797071Y-81286572D01*
X133796239Y-81290906D01*
X133403576Y-82275418D01*
X133397328Y-82281833D01*
X133390515Y-82282577D01*
X132705409Y-82151873D01*
X132697925Y-82146956D01*
X132696844Y-82144980D01*
X132446749Y-81560043D01*
X132446648Y-81551088D01*
X132452178Y-81545027D01*
X133508671Y-81004781D01*
X133517597Y-81004066D01*
X133522271Y-81006926D01*
G37*
%TD.AperFunction*%
%TD*%
%TA.AperFunction,Conductor*%
%TO.N,I2C_SCL*%
G36*
X134941720Y-78828322D02*
G01*
X135666212Y-79127437D01*
X135672551Y-79133762D01*
X135672562Y-79133787D01*
X135971677Y-79858279D01*
X135971666Y-79867234D01*
X135965327Y-79873559D01*
X135965317Y-79873563D01*
X134687263Y-80399821D01*
X134678308Y-80399802D01*
X134674535Y-80397275D01*
X134402724Y-80125464D01*
X134399297Y-80117191D01*
X134400177Y-80112740D01*
X134926437Y-78834680D01*
X134932755Y-78828337D01*
X134941710Y-78828318D01*
X134941720Y-78828322D01*
G37*
%TD.AperFunction*%
%TD*%
%TA.AperFunction,Conductor*%
%TO.N,I2C_SCL*%
G36*
X137808266Y-67457276D02*
G01*
X138644491Y-68294484D01*
X138647913Y-68302759D01*
X138647032Y-68307207D01*
X138302983Y-69142755D01*
X138296664Y-69149100D01*
X138292164Y-69150000D01*
X137307836Y-69150000D01*
X137299563Y-69146573D01*
X137297017Y-69142755D01*
X137198717Y-68904027D01*
X136952967Y-68307205D01*
X136952986Y-68298252D01*
X136955504Y-68294488D01*
X137791723Y-67457286D01*
X137799993Y-67453855D01*
X137808266Y-67457276D01*
G37*
%TD.AperFunction*%
%TD*%
%TA.AperFunction,Conductor*%
%TO.N,I2C_SDA*%
G36*
X139808266Y-71257276D02*
G01*
X140644491Y-72094484D01*
X140647913Y-72102759D01*
X140647032Y-72107207D01*
X140302983Y-72942755D01*
X140296664Y-72949100D01*
X140292164Y-72950000D01*
X139307836Y-72950000D01*
X139299563Y-72946573D01*
X139297017Y-72942755D01*
X139198717Y-72704027D01*
X138952967Y-72107205D01*
X138952986Y-72098252D01*
X138955504Y-72094488D01*
X139791723Y-71257286D01*
X139799993Y-71253855D01*
X139808266Y-71257276D01*
G37*
%TD.AperFunction*%
%TD*%
%TA.AperFunction,Conductor*%
%TO.N,I2C_SDA*%
G36*
X138501707Y-80953427D02*
G01*
X138503421Y-80955604D01*
X138894964Y-81597081D01*
X138896349Y-81605928D01*
X138892849Y-81611833D01*
X138307872Y-82143840D01*
X138299446Y-82146871D01*
X138292128Y-82143840D01*
X137707150Y-81611833D01*
X137703335Y-81603731D01*
X137705034Y-81597082D01*
X138096579Y-80955603D01*
X138103815Y-80950328D01*
X138106566Y-80950000D01*
X138493434Y-80950000D01*
X138501707Y-80953427D01*
G37*
%TD.AperFunction*%
%TD*%
%TA.AperFunction,Conductor*%
%TO.N,I2C_SDA*%
G36*
X138938882Y-79431899D02*
G01*
X138945207Y-79438238D01*
X138945428Y-79446588D01*
X138502751Y-80704283D01*
X138496772Y-80710949D01*
X138491715Y-80712098D01*
X138107276Y-80712098D01*
X138099003Y-80708671D01*
X138096782Y-80705572D01*
X138096146Y-80704283D01*
X137476412Y-79447336D01*
X137475828Y-79438401D01*
X137481733Y-79431669D01*
X137482410Y-79431362D01*
X138205512Y-79130864D01*
X138214461Y-79130854D01*
X138938882Y-79431899D01*
G37*
%TD.AperFunction*%
%TD*%
%TA.AperFunction,Conductor*%
%TO.N,I2C_SDA*%
G36*
X138994683Y-77651943D02*
G01*
X139688056Y-78345316D01*
X139691483Y-78353589D01*
X139689439Y-78360196D01*
X138783635Y-79684065D01*
X138776135Y-79688958D01*
X138767372Y-79687114D01*
X138765716Y-79685741D01*
X138209293Y-79130707D01*
X138209273Y-79130687D01*
X137654258Y-78574283D01*
X137650841Y-78566005D01*
X137654278Y-78557737D01*
X137655925Y-78556370D01*
X138979803Y-77650559D01*
X138988566Y-77648716D01*
X138994683Y-77651943D01*
G37*
%TD.AperFunction*%
%TD*%
%TA.AperFunction,Conductor*%
%TO.N,LED_1*%
G36*
X166800437Y-102053427D02*
G01*
X166802983Y-102057245D01*
X167147032Y-102892792D01*
X167147013Y-102901747D01*
X167144491Y-102905515D01*
X166308278Y-103742712D01*
X166300007Y-103746144D01*
X166291732Y-103742722D01*
X166291722Y-103742712D01*
X166012144Y-103462805D01*
X165455507Y-102905514D01*
X165452086Y-102897240D01*
X165452966Y-102892796D01*
X165797017Y-102057245D01*
X165803336Y-102050900D01*
X165807836Y-102050000D01*
X166792164Y-102050000D01*
X166800437Y-102053427D01*
G37*
%TD.AperFunction*%
%TD*%
%TA.AperFunction,Conductor*%
%TO.N,LED_1*%
G36*
X166937147Y-94369983D02*
G01*
X166945413Y-94373420D01*
X166948830Y-94381698D01*
X166948777Y-94382796D01*
X166801011Y-95929576D01*
X166796813Y-95937485D01*
X166789364Y-95940163D01*
X165808640Y-95940163D01*
X165800367Y-95936736D01*
X165797458Y-95931905D01*
X165414025Y-94686311D01*
X165414866Y-94677396D01*
X165420715Y-94672066D01*
X166147841Y-94369896D01*
X166152336Y-94369002D01*
X166937147Y-94369983D01*
G37*
%TD.AperFunction*%
%TD*%
%TA.AperFunction,Conductor*%
%TO.N,LED_2*%
G36*
X168692158Y-94369897D02*
G01*
X169309121Y-94626286D01*
X169417197Y-94671199D01*
X169423522Y-94677538D01*
X169423511Y-94686493D01*
X169423025Y-94687518D01*
X168803306Y-95846890D01*
X168796384Y-95852571D01*
X168792988Y-95853075D01*
X167812432Y-95853075D01*
X167804159Y-95849648D01*
X167800732Y-95841375D01*
X167800753Y-95840666D01*
X167889333Y-94380974D01*
X167893255Y-94372927D01*
X167900996Y-94369986D01*
X168687662Y-94369002D01*
X168692158Y-94369897D01*
G37*
%TD.AperFunction*%
%TD*%
%TA.AperFunction,Conductor*%
%TO.N,LED_2*%
G36*
X168800437Y-98253427D02*
G01*
X168802983Y-98257245D01*
X169147032Y-99092792D01*
X169147013Y-99101747D01*
X169144491Y-99105515D01*
X168308278Y-99942712D01*
X168300007Y-99946144D01*
X168291732Y-99942722D01*
X168291722Y-99942712D01*
X168012144Y-99662805D01*
X167455507Y-99105514D01*
X167452086Y-99097240D01*
X167452966Y-99092796D01*
X167797017Y-98257245D01*
X167803336Y-98250900D01*
X167807836Y-98250000D01*
X168792164Y-98250000D01*
X168800437Y-98253427D01*
G37*
%TD.AperFunction*%
%TD*%
%TA.AperFunction,Conductor*%
%TO.N,PWM_ESC_M_RL*%
G36*
X142732627Y-93812885D02*
G01*
X142734283Y-93814258D01*
X143290707Y-94369293D01*
X143290727Y-94369313D01*
X143845741Y-94925716D01*
X143849158Y-94933994D01*
X143845721Y-94942262D01*
X143844065Y-94943635D01*
X142520196Y-95849439D01*
X142511433Y-95851283D01*
X142505316Y-95848056D01*
X141811943Y-95154683D01*
X141808516Y-95146410D01*
X141810560Y-95139803D01*
X141944780Y-94943635D01*
X142716366Y-93815932D01*
X142723864Y-93811041D01*
X142732627Y-93812885D01*
G37*
%TD.AperFunction*%
%TD*%
%TA.AperFunction,Conductor*%
%TO.N,PWM_ESC_M_RL*%
G36*
X140200437Y-102053427D02*
G01*
X140202983Y-102057245D01*
X140547032Y-102892792D01*
X140547013Y-102901747D01*
X140544491Y-102905515D01*
X139708278Y-103742712D01*
X139700007Y-103746144D01*
X139691732Y-103742722D01*
X139691722Y-103742712D01*
X139412144Y-103462805D01*
X138855507Y-102905514D01*
X138852086Y-102897240D01*
X138852966Y-102892796D01*
X139197017Y-102057245D01*
X139203336Y-102050900D01*
X139207836Y-102050000D01*
X140192164Y-102050000D01*
X140200437Y-102053427D01*
G37*
%TD.AperFunction*%
%TD*%
%TA.AperFunction,Conductor*%
%TO.N,PWM_ESC_M_FR*%
G36*
X165380196Y-77650560D02*
G01*
X166002909Y-78076626D01*
X166704065Y-78556364D01*
X166708958Y-78563864D01*
X166707114Y-78572627D01*
X166705741Y-78574283D01*
X166150727Y-79130687D01*
X166150707Y-79130707D01*
X165594283Y-79685741D01*
X165586005Y-79689158D01*
X165577737Y-79685721D01*
X165576364Y-79684065D01*
X165197737Y-79130687D01*
X164810220Y-78564315D01*
X164670560Y-78360196D01*
X164668716Y-78351433D01*
X164671941Y-78345318D01*
X165365317Y-77651942D01*
X165373589Y-77648516D01*
X165380196Y-77650560D01*
G37*
%TD.AperFunction*%
%TD*%
%TA.AperFunction,Conductor*%
%TO.N,PWM_ESC_M_FR*%
G36*
X163808266Y-71257276D02*
G01*
X164644491Y-72094484D01*
X164647913Y-72102759D01*
X164647032Y-72107207D01*
X164302983Y-72942755D01*
X164296664Y-72949100D01*
X164292164Y-72950000D01*
X163307836Y-72950000D01*
X163299563Y-72946573D01*
X163297017Y-72942755D01*
X163198717Y-72704027D01*
X162952967Y-72107205D01*
X162952986Y-72098252D01*
X162955504Y-72094488D01*
X163791723Y-71257286D01*
X163799993Y-71253855D01*
X163808266Y-71257276D01*
G37*
%TD.AperFunction*%
%TD*%
%TA.AperFunction,Conductor*%
%TO.N,PWM_ESC_M_FL*%
G36*
X129808266Y-67457276D02*
G01*
X130644491Y-68294484D01*
X130647913Y-68302759D01*
X130647032Y-68307207D01*
X130302983Y-69142755D01*
X130296664Y-69149100D01*
X130292164Y-69150000D01*
X129307836Y-69150000D01*
X129299563Y-69146573D01*
X129297017Y-69142755D01*
X129198717Y-68904027D01*
X128952967Y-68307205D01*
X128952986Y-68298252D01*
X128955504Y-68294488D01*
X129791723Y-67457286D01*
X129799993Y-67453855D01*
X129808266Y-67457276D01*
G37*
%TD.AperFunction*%
%TD*%
%TA.AperFunction,Conductor*%
%TO.N,PWM_ESC_M_FL*%
G36*
X126294683Y-77651943D02*
G01*
X126988056Y-78345316D01*
X126991483Y-78353589D01*
X126989439Y-78360196D01*
X126083635Y-79684065D01*
X126076135Y-79688958D01*
X126067372Y-79687114D01*
X126065716Y-79685741D01*
X125509293Y-79130707D01*
X125509273Y-79130687D01*
X124954258Y-78574283D01*
X124950841Y-78566005D01*
X124954278Y-78557737D01*
X124955925Y-78556370D01*
X126279803Y-77650559D01*
X126288566Y-77648716D01*
X126294683Y-77651943D01*
G37*
%TD.AperFunction*%
%TD*%
%TA.AperFunction,Conductor*%
%TO.N,PWM_ESC_M_RR*%
G36*
X131808266Y-71257276D02*
G01*
X132644491Y-72094484D01*
X132647913Y-72102759D01*
X132647032Y-72107207D01*
X132302983Y-72942755D01*
X132296664Y-72949100D01*
X132292164Y-72950000D01*
X131307836Y-72950000D01*
X131299563Y-72946573D01*
X131297017Y-72942755D01*
X131198717Y-72704027D01*
X130952967Y-72107205D01*
X130952986Y-72098252D01*
X130955504Y-72094488D01*
X131791723Y-71257286D01*
X131799993Y-71253855D01*
X131808266Y-71257276D01*
G37*
%TD.AperFunction*%
%TD*%
%TA.AperFunction,Conductor*%
%TO.N,PWM_ESC_M_RR*%
G36*
X128834683Y-77651943D02*
G01*
X129528056Y-78345316D01*
X129531483Y-78353589D01*
X129529439Y-78360196D01*
X128623635Y-79684065D01*
X128616135Y-79688958D01*
X128607372Y-79687114D01*
X128605716Y-79685741D01*
X128049293Y-79130707D01*
X128049273Y-79130687D01*
X127494258Y-78574283D01*
X127490841Y-78566005D01*
X127494278Y-78557737D01*
X127495925Y-78556370D01*
X128819803Y-77650559D01*
X128828566Y-77648716D01*
X128834683Y-77651943D01*
G37*
%TD.AperFunction*%
%TD*%
%TA.AperFunction,Conductor*%
%TO.N,PWM_ESC_SERVO*%
G36*
X175540196Y-77650560D02*
G01*
X176162909Y-78076626D01*
X176864065Y-78556364D01*
X176868958Y-78563864D01*
X176867114Y-78572627D01*
X176865741Y-78574283D01*
X176310727Y-79130687D01*
X176310707Y-79130707D01*
X175754283Y-79685741D01*
X175746005Y-79689158D01*
X175737737Y-79685721D01*
X175736364Y-79684065D01*
X175357737Y-79130687D01*
X174970220Y-78564315D01*
X174830560Y-78360196D01*
X174828716Y-78351433D01*
X174831941Y-78345318D01*
X175525317Y-77651942D01*
X175533589Y-77648516D01*
X175540196Y-77650560D01*
G37*
%TD.AperFunction*%
%TD*%
%TA.AperFunction,Conductor*%
%TO.N,PWM_ESC_SERVO*%
G36*
X171808266Y-71257276D02*
G01*
X172644491Y-72094484D01*
X172647913Y-72102759D01*
X172647032Y-72107207D01*
X172302983Y-72942755D01*
X172296664Y-72949100D01*
X172292164Y-72950000D01*
X171307836Y-72950000D01*
X171299563Y-72946573D01*
X171297017Y-72942755D01*
X171198717Y-72704027D01*
X170952967Y-72107205D01*
X170952986Y-72098252D01*
X170955504Y-72094488D01*
X171791723Y-71257286D01*
X171799993Y-71253855D01*
X171808266Y-71257276D01*
G37*
%TD.AperFunction*%
%TD*%
%TA.AperFunction,Conductor*%
%TO.N,1_Wire*%
G36*
X135707872Y-92156159D02*
G01*
X136292849Y-92688165D01*
X136296664Y-92696267D01*
X136294964Y-92702917D01*
X135903421Y-93344396D01*
X135896185Y-93349672D01*
X135893434Y-93350000D01*
X135506566Y-93350000D01*
X135498293Y-93346573D01*
X135496579Y-93344396D01*
X135105035Y-92702917D01*
X135103650Y-92694070D01*
X135107149Y-92688165D01*
X135692128Y-92156158D01*
X135700554Y-92153128D01*
X135707872Y-92156159D01*
G37*
%TD.AperFunction*%
%TD*%
%TA.AperFunction,Conductor*%
%TO.N,1_Wire*%
G36*
X135900317Y-92779394D02*
G01*
X135902925Y-92783366D01*
X136404877Y-94053160D01*
X136404731Y-94062113D01*
X136398486Y-94068265D01*
X135674490Y-94369134D01*
X135665536Y-94369144D01*
X135665510Y-94369134D01*
X134941943Y-94068443D01*
X134935618Y-94062104D01*
X134935629Y-94053149D01*
X134935713Y-94052949D01*
X135267926Y-93301151D01*
X135496920Y-92782938D01*
X135503399Y-92776756D01*
X135507622Y-92775967D01*
X135892044Y-92775967D01*
X135900317Y-92779394D01*
G37*
%TD.AperFunction*%
%TD*%
%TA.AperFunction,Conductor*%
%TO.N,1_Wire*%
G36*
X134200437Y-98253427D02*
G01*
X134202983Y-98257245D01*
X134547032Y-99092792D01*
X134547013Y-99101747D01*
X134544491Y-99105515D01*
X133708278Y-99942712D01*
X133700007Y-99946144D01*
X133691732Y-99942722D01*
X133691722Y-99942712D01*
X133412144Y-99662805D01*
X132855507Y-99105514D01*
X132852086Y-99097240D01*
X132852966Y-99092796D01*
X133197017Y-98257245D01*
X133203336Y-98250900D01*
X133207836Y-98250000D01*
X134192164Y-98250000D01*
X134200437Y-98253427D01*
G37*
%TD.AperFunction*%
%TD*%
%TA.AperFunction,Conductor*%
%TO.N,1_Wire*%
G36*
X135112627Y-93812885D02*
G01*
X135114283Y-93814258D01*
X135670707Y-94369293D01*
X135670727Y-94369313D01*
X136225741Y-94925716D01*
X136229158Y-94933994D01*
X136225721Y-94942262D01*
X136224065Y-94943635D01*
X134900196Y-95849439D01*
X134891433Y-95851283D01*
X134885316Y-95848056D01*
X134191943Y-95154683D01*
X134188516Y-95146410D01*
X134190560Y-95139803D01*
X134324780Y-94943635D01*
X135096366Y-93815932D01*
X135103864Y-93811041D01*
X135112627Y-93812885D01*
G37*
%TD.AperFunction*%
%TD*%
%TA.AperFunction,Conductor*%
%TO.N,IBUS_TX*%
G36*
X173000196Y-77650560D02*
G01*
X173622909Y-78076626D01*
X174324065Y-78556364D01*
X174328958Y-78563864D01*
X174327114Y-78572627D01*
X174325741Y-78574283D01*
X173770727Y-79130687D01*
X173770707Y-79130707D01*
X173214283Y-79685741D01*
X173206005Y-79689158D01*
X173197737Y-79685721D01*
X173196364Y-79684065D01*
X172817737Y-79130687D01*
X172430220Y-78564315D01*
X172290560Y-78360196D01*
X172288716Y-78351433D01*
X172291941Y-78345318D01*
X172985317Y-77651942D01*
X172993589Y-77648516D01*
X173000196Y-77650560D01*
G37*
%TD.AperFunction*%
%TD*%
%TA.AperFunction,Conductor*%
%TO.N,IBUS_TX*%
G36*
X169808266Y-67457276D02*
G01*
X170644491Y-68294484D01*
X170647913Y-68302759D01*
X170647032Y-68307207D01*
X170302983Y-69142755D01*
X170296664Y-69149100D01*
X170292164Y-69150000D01*
X169307836Y-69150000D01*
X169299563Y-69146573D01*
X169297017Y-69142755D01*
X169198717Y-68904027D01*
X168952967Y-68307205D01*
X168952986Y-68298252D01*
X168955504Y-68294488D01*
X169791723Y-67457286D01*
X169799993Y-67453855D01*
X169808266Y-67457276D01*
G37*
%TD.AperFunction*%
%TD*%
%TA.AperFunction,Conductor*%
%TO.N,Net-(JP12-C)*%
G36*
X138501648Y-85103427D02*
G01*
X138503408Y-85105680D01*
X138796193Y-85593655D01*
X138797511Y-85602513D01*
X138795899Y-85606159D01*
X138309739Y-86336372D01*
X138302302Y-86341359D01*
X138293516Y-86339627D01*
X138290261Y-86336372D01*
X138277249Y-86316828D01*
X137804099Y-85606157D01*
X137802368Y-85597373D01*
X137803804Y-85593659D01*
X138096592Y-85105680D01*
X138103787Y-85100349D01*
X138106625Y-85100000D01*
X138493375Y-85100000D01*
X138501648Y-85103427D01*
G37*
%TD.AperFunction*%
%TD*%
%TA.AperFunction,Conductor*%
%TO.N,Net-(JP12-C)*%
G36*
X138307872Y-84156159D02*
G01*
X138892849Y-84688165D01*
X138896664Y-84696267D01*
X138894964Y-84702917D01*
X138503421Y-85344396D01*
X138496185Y-85349672D01*
X138493434Y-85350000D01*
X138106566Y-85350000D01*
X138098293Y-85346573D01*
X138096579Y-85344396D01*
X137705035Y-84702917D01*
X137703650Y-84694070D01*
X137707149Y-84688165D01*
X138292128Y-84156158D01*
X138300554Y-84153128D01*
X138307872Y-84156159D01*
G37*
%TD.AperFunction*%
%TD*%
%TA.AperFunction,Conductor*%
%TO.N,Net-(JP11-C)*%
G36*
X132707872Y-84156159D02*
G01*
X133292849Y-84688165D01*
X133296664Y-84696267D01*
X133294964Y-84702917D01*
X132903421Y-85344396D01*
X132896185Y-85349672D01*
X132893434Y-85350000D01*
X132506566Y-85350000D01*
X132498293Y-85346573D01*
X132496579Y-85344396D01*
X132105035Y-84702917D01*
X132103650Y-84694070D01*
X132107149Y-84688165D01*
X132692128Y-84156158D01*
X132700554Y-84153128D01*
X132707872Y-84156159D01*
G37*
%TD.AperFunction*%
%TD*%
%TA.AperFunction,Conductor*%
%TO.N,Net-(JP11-C)*%
G36*
X132901648Y-85103427D02*
G01*
X132903408Y-85105680D01*
X133196193Y-85593655D01*
X133197511Y-85602513D01*
X133195899Y-85606159D01*
X132709739Y-86336372D01*
X132702302Y-86341359D01*
X132693516Y-86339627D01*
X132690261Y-86336372D01*
X132677249Y-86316828D01*
X132204099Y-85606157D01*
X132202368Y-85597373D01*
X132203804Y-85593659D01*
X132496592Y-85105680D01*
X132503787Y-85100349D01*
X132506625Y-85100000D01*
X132893375Y-85100000D01*
X132901648Y-85103427D01*
G37*
%TD.AperFunction*%
%TD*%
M02*
