%TF.GenerationSoftware,KiCad,Pcbnew,8.0.7*%
%TF.CreationDate,2025-02-07T22:17:44+01:00*%
%TF.ProjectId,Teensy_board_06_main_board,5465656e-7379-45f6-926f-6172645f3036,rev?*%
%TF.SameCoordinates,Original*%
%TF.FileFunction,Copper,L1,Top*%
%TF.FilePolarity,Positive*%
%FSLAX46Y46*%
G04 Gerber Fmt 4.6, Leading zero omitted, Abs format (unit mm)*
G04 Created by KiCad (PCBNEW 8.0.7) date 2025-02-07 22:17:44*
%MOMM*%
%LPD*%
G01*
G04 APERTURE LIST*
%TA.AperFunction,ComponentPad*%
%ADD10R,1.700000X1.700000*%
%TD*%
%TA.AperFunction,ComponentPad*%
%ADD11O,1.700000X1.700000*%
%TD*%
%TA.AperFunction,ComponentPad*%
%ADD12R,1.600000X1.600000*%
%TD*%
%TA.AperFunction,ComponentPad*%
%ADD13C,1.600000*%
%TD*%
G04 APERTURE END LIST*
D10*
%TO.P,J85,1,Pin_1*%
%TO.N,I2C_SCL*%
X137800000Y-67450000D03*
%TD*%
%TO.P,J41,1,Pin_1*%
%TO.N,SPI_CS*%
X141700000Y-99950000D03*
%TD*%
%TO.P,J14,1,Pin_1*%
%TO.N,+3.3V*%
X117900000Y-75350000D03*
D11*
%TO.P,J14,2,Pin_2*%
%TO.N,GND*%
X115360000Y-75350000D03*
%TD*%
D10*
%TO.P,J75,1,Pin_1*%
%TO.N,EN_W_FR*%
X131700000Y-103750000D03*
%TD*%
%TO.P,J86,1,Pin_1*%
%TO.N,I2C_SDA*%
X139800000Y-71250000D03*
%TD*%
%TO.P,J61,1,Pin_1*%
%TO.N,ADC_V_B_C2*%
X145800000Y-67450000D03*
%TD*%
%TO.P,J95,1,Pin_1*%
%TO.N,IBUS_TX*%
X169800000Y-67450000D03*
%TD*%
%TO.P,J74,1,Pin_1*%
%TO.N,EN_W_FL*%
X129700000Y-99950000D03*
%TD*%
%TO.P,J64,1,Pin_1*%
%TO.N,ADC_V_PER*%
X133800000Y-67450000D03*
%TD*%
%TO.P,J67,1,Pin_1*%
%TO.N,ADC_I_M_FR*%
X160300000Y-99950000D03*
%TD*%
%TO.P,J49,1,Pin_1*%
%TO.N,ADC_V_B_C1*%
X147800000Y-71250000D03*
%TD*%
%TO.P,J88,1,Pin_1*%
%TO.N,LED_2*%
X168300000Y-99950000D03*
%TD*%
%TO.P,J83,1,Pin_1*%
%TO.N,GPS_TX*%
X135700000Y-103750000D03*
%TD*%
%TO.P,J60,1,Pin_1*%
%TO.N,EN_W_RR*%
X127700000Y-103750000D03*
%TD*%
%TO.P,J81,1,Pin_1*%
%TO.N,SPI_MISO*%
X145500000Y-99950000D03*
%TD*%
%TO.P,J15,1,Pin_1*%
%TO.N,+5V*%
X117900000Y-71550000D03*
D11*
%TO.P,J15,2,Pin_2*%
%TO.N,GND*%
X115360000Y-71550000D03*
%TD*%
D10*
%TO.P,J93,1,Pin_1*%
%TO.N,PWM_ESC_SERVO*%
X171800000Y-71250000D03*
%TD*%
%TO.P,J72,1,Pin_1*%
%TO.N,ADC_I_JET*%
X157800000Y-67450000D03*
%TD*%
%TO.P,J78,1,Pin_1*%
%TO.N,EN_M_FL*%
X174300000Y-103750000D03*
%TD*%
%TO.P,J80,1,Pin_1*%
%TO.N,SPI_MOSI*%
X143700000Y-103750000D03*
%TD*%
%TO.P,J90,1,Pin_1*%
%TO.N,PWM_ESC_M_FR*%
X163800000Y-71250000D03*
%TD*%
%TO.P,J225,1,Pin_1*%
%TO.N,GND*%
X117900000Y-99950000D03*
%TD*%
%TO.P,J231,1,Pin_1*%
%TO.N,GND*%
X151800000Y-71250000D03*
%TD*%
%TO.P,J77,1,Pin_1*%
%TO.N,EN_M_RR*%
X172300000Y-99950000D03*
%TD*%
%TO.P,J47,1,Pin_1*%
%TO.N,EN_W_RL*%
X125800000Y-99950000D03*
%TD*%
%TO.P,J89,1,Pin_1*%
%TO.N,PWM_ESC_M_RL*%
X139700000Y-103750000D03*
%TD*%
%TO.P,J101,1,Pin_1*%
%TO.N,1_Wire*%
X133700000Y-99950000D03*
%TD*%
%TO.P,J79,1,Pin_1*%
%TO.N,EN_M_FR*%
X165800000Y-67450000D03*
%TD*%
%TO.P,J92,1,Pin_1*%
%TO.N,PWM_ESC_M_RR*%
X131800000Y-71250000D03*
%TD*%
%TO.P,J69,1,Pin_1*%
%TO.N,ADC_I_M_RR*%
X164300000Y-99950000D03*
%TD*%
%TO.P,J82,1,Pin_1*%
%TO.N,SPI_SCK*%
X149800000Y-67450000D03*
%TD*%
%TO.P,J3,1,Pin_1*%
%TO.N,VCC*%
X124100000Y-68375000D03*
D11*
%TO.P,J3,2,Pin_2*%
%TO.N,GND*%
X121560000Y-68375000D03*
%TD*%
D10*
%TO.P,J234,1,Pin_1*%
%TO.N,GND*%
X153800000Y-67450000D03*
%TD*%
%TO.P,J76,1,Pin_1*%
%TO.N,EN_M_RL*%
X170300000Y-103750000D03*
%TD*%
%TO.P,J84,1,Pin_1*%
%TO.N,GPS_RX*%
X137700000Y-99950000D03*
%TD*%
%TO.P,J63,1,Pin_1*%
%TO.N,ADC_V_B_C4*%
X141800000Y-67450000D03*
%TD*%
D12*
%TO.P,C3,1*%
%TO.N,VCC*%
X123500000Y-73350000D03*
D13*
%TO.P,C3,2*%
%TO.N,GND*%
X121500000Y-73350000D03*
%TD*%
D12*
%TO.P,C22,1*%
%TO.N,VCC*%
X153255113Y-101350000D03*
D13*
%TO.P,C22,2*%
%TO.N,GND*%
X151255113Y-101350000D03*
%TD*%
D10*
%TO.P,J71,1,Pin_1*%
%TO.N,ADC_I_TEENSY*%
X159800000Y-71250000D03*
%TD*%
%TO.P,J87,1,Pin_1*%
%TO.N,LED_1*%
X166300000Y-103750000D03*
%TD*%
%TO.P,J73,1,Pin_1*%
%TO.N,ADC_I_SERVO*%
X155800000Y-71250000D03*
%TD*%
D12*
%TO.P,U1,1,GND*%
%TO.N,GND*%
X117890000Y-94370000D03*
D13*
%TO.P,U1,2,0_RX1_CRX2_CS1*%
%TO.N,unconnected-(U1-0_RX1_CRX2_CS1-Pad2)*%
X120430000Y-94370000D03*
%TO.P,U1,3,1_TX1_CTX2_MISO1*%
%TO.N,unconnected-(U1-1_TX1_CTX2_MISO1-Pad3)*%
X122970000Y-94370000D03*
%TO.P,U1,4,2_OUT2*%
%TO.N,EN_W_RL*%
X125510000Y-94370000D03*
%TO.P,U1,5,3_LRCLK2*%
%TO.N,EN_W_RR*%
X128050000Y-94370000D03*
%TO.P,U1,6,4_BCLK2*%
%TO.N,EN_W_FL*%
X130590000Y-94370000D03*
%TO.P,U1,7,5_IN2*%
%TO.N,EN_W_FR*%
X133130000Y-94370000D03*
%TO.P,U1,8,6_OUT1D*%
%TO.N,1_Wire*%
X135670000Y-94370000D03*
%TO.P,U1,9,7_RX2_OUT1A*%
%TO.N,GPS_TX*%
X138210000Y-94370000D03*
%TO.P,U1,10,8_TX2_IN1*%
%TO.N,GPS_RX*%
X140750000Y-94370000D03*
%TO.P,U1,11,9_OUT1C*%
%TO.N,PWM_ESC_M_RL*%
X143290000Y-94370000D03*
%TO.P,U1,12,10_CS_MQSR*%
%TO.N,SPI_CS*%
X145830000Y-94370000D03*
%TO.P,U1,13,11_MOSI_CTX1*%
%TO.N,SPI_MOSI*%
X148370000Y-94370000D03*
%TO.P,U1,14,12_MISO_MQSL*%
%TO.N,SPI_MISO*%
X150910000Y-94370000D03*
%TO.P,U1,15,3V3*%
%TO.N,VCC*%
X153450000Y-94370000D03*
%TO.P,U1,16,24_A10_TX6_SCL2*%
%TO.N,ADC_V_JET*%
X155990000Y-94370000D03*
%TO.P,U1,17,25_A11_RX6_SDA2*%
%TO.N,ADC_I_M_FR*%
X158530000Y-94370000D03*
%TO.P,U1,18,26_A12_MOSI1*%
%TO.N,ADC_I_M_FL*%
X161070000Y-94370000D03*
%TO.P,U1,19,27_A13_SCK1*%
%TO.N,ADC_I_M_RR*%
X163610000Y-94370000D03*
%TO.P,U1,20,28_RX7*%
%TO.N,LED_1*%
X166150000Y-94370000D03*
%TO.P,U1,21,29_TX7*%
%TO.N,LED_2*%
X168690000Y-94370000D03*
%TO.P,U1,22,30_CRX3*%
%TO.N,EN_M_RL*%
X171230000Y-94370000D03*
%TO.P,U1,23,31_CTX3*%
%TO.N,EN_M_RR*%
X173770000Y-94370000D03*
%TO.P,U1,24,32_OUT1B*%
%TO.N,EN_M_FL*%
X176310000Y-94370000D03*
%TO.P,U1,25,33_MCLK2*%
%TO.N,PWM_ESC_SERVO*%
X176310000Y-79130000D03*
%TO.P,U1,26,34_RX8*%
%TO.N,IBUS_TX*%
X173770000Y-79130000D03*
%TO.P,U1,27,35_TX8*%
%TO.N,IBUS_RX*%
X171230000Y-79130000D03*
%TO.P,U1,28,36_CS*%
%TO.N,EN_M_FR*%
X168690000Y-79130000D03*
%TO.P,U1,29,37_CS*%
%TO.N,PWM_ESC_M_FR*%
X166150000Y-79130000D03*
%TO.P,U1,30,38_CS1_IN1*%
%TO.N,ADC_I_M_RL*%
X163610000Y-79130000D03*
%TO.P,U1,31,39_MISO1_OUT1A*%
%TO.N,ADC_I_TEENSY*%
X161070000Y-79130000D03*
%TO.P,U1,32,40_A16*%
%TO.N,ADC_I_JET*%
X158530000Y-79130000D03*
%TO.P,U1,33,41_A17*%
%TO.N,ADC_I_SERVO*%
X155990000Y-79130000D03*
%TO.P,U1,34,GND*%
%TO.N,GND*%
X153450000Y-79130000D03*
%TO.P,U1,35,13_SCK_LED*%
%TO.N,SPI_SCK*%
X150910000Y-79130000D03*
%TO.P,U1,36,14_A0_TX3_SPDIF_OUT*%
%TO.N,ADC_V_B_C1*%
X148370000Y-79130000D03*
%TO.P,U1,37,15_A1_RX3_SPDIF_IN*%
%TO.N,ADC_V_B_C2*%
X145830000Y-79130000D03*
%TO.P,U1,38,16_A2_RX4_SCL1*%
%TO.N,ADC_V_B_C3*%
X143290000Y-79130000D03*
%TO.P,U1,39,17_A3_TX4_SDA1*%
%TO.N,ADC_V_B_C4*%
X140750000Y-79130000D03*
%TO.P,U1,40,18_A4_SDA*%
%TO.N,I2C_SDA*%
X138210000Y-79130000D03*
%TO.P,U1,41,19_A5_SCL*%
%TO.N,I2C_SCL*%
X135670000Y-79130000D03*
%TO.P,U1,42,20_A6_TX5_LRCLK1*%
%TO.N,ADC_V_MCU*%
X133130000Y-79130000D03*
%TO.P,U1,43,21_A7_RX5_BCLK1*%
%TO.N,ADC_V_PER*%
X130590000Y-79130000D03*
%TO.P,U1,44,22_A8_CTX1*%
%TO.N,PWM_ESC_M_RR*%
X128050000Y-79130000D03*
%TO.P,U1,45,23_A9_CRX1_MCLK1*%
%TO.N,PWM_ESC_M_FL*%
X125510000Y-79130000D03*
%TO.P,U1,46,3V3*%
%TO.N,VCC*%
X122970000Y-79130000D03*
%TO.P,U1,47,GND*%
%TO.N,GND*%
X120430000Y-79130000D03*
%TO.P,U1,48,VIN*%
%TO.N,unconnected-(U1-VIN-Pad48)*%
X117890000Y-79130000D03*
%TD*%
D10*
%TO.P,J91,1,Pin_1*%
%TO.N,PWM_ESC_M_FL*%
X129800000Y-67450000D03*
%TD*%
%TO.P,J62,1,Pin_1*%
%TO.N,ADC_V_B_C3*%
X143800000Y-71250000D03*
%TD*%
%TO.P,J66,1,Pin_1*%
%TO.N,ADC_V_JET*%
X158300000Y-103750000D03*
%TD*%
%TO.P,J70,1,Pin_1*%
%TO.N,ADC_I_M_RL*%
X161800000Y-67450000D03*
%TD*%
%TO.P,J65,1,Pin_1*%
%TO.N,ADC_V_MCU*%
X135800000Y-71250000D03*
%TD*%
%TO.P,J94,1,Pin_1*%
%TO.N,IBUS_RX*%
X167800000Y-71250000D03*
%TD*%
%TO.P,J68,1,Pin_1*%
%TO.N,ADC_I_M_FL*%
X162300000Y-103750000D03*
%TD*%
M02*
