M48
; DRILL file {KiCad 8.0.7} date 2025-02-07T22:17:45+0100
; FORMAT={-:-/ absolute / inch / decimal}
; #@! TF.CreationDate,2025-02-07T22:17:45+01:00
; #@! TF.GenerationSoftware,Kicad,Pcbnew,8.0.7
; #@! TF.FileFunction,Plated,1,2,PTH
FMAT,2
INCH
; #@! TA.AperFunction,Plated,PTH,ComponentDrill
T1C0.0315
; #@! TA.AperFunction,Plated,PTH,ComponentDrill
T2C0.0394
; #@! TA.AperFunction,Plated,PTH,ComponentDrill
T3C0.0433
%
G90
G05
T1
X4.7835Y-2.8878
X4.8622Y-2.8878
X5.9549Y-3.9902
X6.0337Y-3.9902
T2
X4.5417Y-2.8169
X4.5417Y-2.9665
X4.6417Y-2.8169
X4.6417Y-2.9665
X4.6417Y-3.935
X4.7858Y-2.6919
X4.8858Y-2.6919
X4.9528Y-3.935
X5.0276Y-4.0846
X5.1063Y-3.935
X5.1102Y-2.6555
X5.185Y-4.0846
X5.189Y-2.8051
X5.2638Y-3.935
X5.2677Y-2.6555
X5.3425Y-4.0846
X5.3465Y-2.8051
X5.4213Y-3.935
X5.4252Y-2.6555
X5.5Y-4.0846
X5.5039Y-2.8051
X5.5787Y-3.935
X5.5827Y-2.6555
X5.6575Y-4.0846
X5.6614Y-2.8051
X5.7283Y-3.935
X5.7402Y-2.6555
X5.8189Y-2.8051
X5.8976Y-2.6555
X5.9764Y-2.8051
X6.0551Y-2.6555
X6.1339Y-2.8051
X6.2126Y-2.6555
X6.2323Y-4.0846
X6.2913Y-2.8051
X6.311Y-3.935
X6.3701Y-2.6555
X6.3898Y-4.0846
X6.4488Y-2.8051
X6.4685Y-3.935
X6.5276Y-2.6555
X6.5472Y-4.0846
X6.6063Y-2.8051
X6.626Y-3.935
X6.685Y-2.6555
X6.7047Y-4.0846
X6.7638Y-2.8051
X6.7835Y-3.935
X6.8622Y-4.0846
T3
X4.6413Y-3.1154
X4.6413Y-3.7154
X4.7413Y-3.1154
X4.7413Y-3.7154
X4.8413Y-3.1154
X4.8413Y-3.7154
X4.9413Y-3.1154
X4.9413Y-3.7154
X5.0413Y-3.1154
X5.0413Y-3.7154
X5.1413Y-3.1154
X5.1413Y-3.7154
X5.2413Y-3.1154
X5.2413Y-3.7154
X5.3413Y-3.1154
X5.3413Y-3.7154
X5.4413Y-3.1154
X5.4413Y-3.7154
X5.5413Y-3.1154
X5.5413Y-3.7154
X5.6413Y-3.1154
X5.6413Y-3.7154
X5.7413Y-3.1154
X5.7413Y-3.7154
X5.8413Y-3.1154
X5.8413Y-3.7154
X5.9413Y-3.1154
X5.9413Y-3.7154
X6.0413Y-3.1154
X6.0413Y-3.7154
X6.1413Y-3.1154
X6.1413Y-3.7154
X6.2413Y-3.1154
X6.2413Y-3.7154
X6.3413Y-3.1154
X6.3413Y-3.7154
X6.4413Y-3.1154
X6.4413Y-3.7154
X6.5413Y-3.1154
X6.5413Y-3.7154
X6.6413Y-3.1154
X6.6413Y-3.7154
X6.7413Y-3.1154
X6.7413Y-3.7154
X6.8413Y-3.1154
X6.8413Y-3.7154
X6.9413Y-3.1154
X6.9413Y-3.7154
M30
