ISO-10303-21;
HEADER;
FILE_DESCRIPTION (( 'STEP AP214' ),
    '1' );
FILE_NAME ('AH3323A-P-B.STEP',
    '2024-07-24T07:48:20',
    ( '' ),
    ( '' ),
    'SwSTEP 2.0',
    'SolidWorks 2023',
    '' );
FILE_SCHEMA (( 'AUTOMOTIVE_DESIGN' ));
ENDSEC;

DATA;
#1 = FILL_AREA_STYLE_COLOUR ( '', #342 ) ;
#2 = DIRECTION ( 'NONE',  ( -1.000000000000000000, 0.000000000000000000, 0.000000000000000000 ) ) ;
#3 = EDGE_LOOP ( 'NONE', ( #139, #171, #41, #554 ) ) ;
#4 = DIRECTION ( 'NONE',  ( -1.000000000000000000, -0.000000000000000000, -0.000000000000000000 ) ) ;
#5 = ORIENTED_EDGE ( 'NONE', *, *, #394, .T. ) ;
#6 =( NAMED_UNIT ( * ) SI_UNIT ( $, .STERADIAN. ) SOLID_ANGLE_UNIT ( ) );
#7 = DIRECTION ( 'NONE',  ( 1.178231900717926307E-16, -1.000000000000000000, 0.000000000000000000 ) ) ;
#8 = VECTOR ( 'NONE', #1076, 1000.000000000000000 ) ;
#9 = FILL_AREA_STYLE ('',( #1067 ) ) ;
#10 = SURFACE_STYLE_USAGE ( .BOTH. , #270 ) ;
#11 = ORIENTED_EDGE ( 'NONE', *, *, #498, .F. ) ;
#12 = DIRECTION ( 'NONE',  ( 0.000000000000000000, 0.000000000000000000, 1.000000000000000000 ) ) ;
#13 = FILL_AREA_STYLE ('',( #853 ) ) ;
#14 = CARTESIAN_POINT ( 'NONE',  ( -2.050000000000001155, -1.500000000000000888, 0.000000000000000000 ) ) ;
#15 =( NAMED_UNIT ( * ) SI_UNIT ( $, .STERADIAN. ) SOLID_ANGLE_UNIT ( ) );
#16 = VERTEX_POINT ( 'NONE', #756 ) ;
#17 = CARTESIAN_POINT ( 'NONE',  ( 1.080000000000000293, -1.276892648044953171, 0.000000000000000000 ) ) ;
#18 = ADVANCED_FACE ( 'NONE', ( #1022 ), #625, .F. ) ;
#19 = CARTESIAN_POINT ( 'NONE',  ( 0.000000000000000000, 1.434383502355556006, 0.7500000000000000000 ) ) ;
#20 = DIRECTION ( 'NONE',  ( -1.000000000000000000, 0.000000000000000000, 0.000000000000000000 ) ) ;
#21 =( LENGTH_UNIT ( ) NAMED_UNIT ( * ) SI_UNIT ( .MILLI., .METRE. ) );
#22 = ORIENTED_EDGE ( 'NONE', *, *, #695, .F. ) ;
#23 = SURFACE_SIDE_STYLE ('',( #1037 ) ) ;
#24 = STYLED_ITEM ( 'NONE', ( #553 ), #32 ) ;
#25 = PRESENTATION_STYLE_ASSIGNMENT (( #106 ) ) ;
#26 = UNCERTAINTY_MEASURE_WITH_UNIT (LENGTH_MEASURE( 1.000000000000000082E-05 ), #808, 'distance_accuracy_value', 'NONE');
#27 = LINE ( 'NONE', #14, #877 ) ;
#28 = AXIS2_PLACEMENT_3D ( 'NONE', #93, #699, #941 ) ;
#29 = SURFACE_STYLE_FILL_AREA ( #131 ) ;
#30 = ORIENTED_EDGE ( 'NONE', *, *, #794, .T. ) ;
#31 = SURFACE_STYLE_USAGE ( .BOTH. , #960 ) ;
#32 = ADVANCED_FACE ( 'NONE', ( #39 ), #789, .T. ) ;
#33 = MECHANICAL_DESIGN_GEOMETRIC_PRESENTATION_REPRESENTATION (  '', ( #1079 ), #1044 ) ;
#34 = ORIENTED_EDGE ( 'NONE', *, *, #768, .T. ) ;
#35 = CARTESIAN_POINT ( 'NONE',  ( -1.079999999999998073, -16.00000000000000000, -0.3800000000000000044 ) ) ;
#36 =( NAMED_UNIT ( * ) SI_UNIT ( $, .STERADIAN. ) SOLID_ANGLE_UNIT ( ) );
#37 =( NAMED_UNIT ( * ) SI_UNIT ( $, .STERADIAN. ) SOLID_ANGLE_UNIT ( ) );
#38 = COLOUR_RGB ( '',0.2509803921568627416, 0.2509803921568627416, 0.2509803921568627416 ) ;
#39 = FACE_OUTER_BOUND ( 'NONE', #612, .T. ) ;
#40 = ADVANCED_FACE ( 'NONE', ( #469 ), #637, .T. ) ;
#41 = ORIENTED_EDGE ( 'NONE', *, *, #851, .T. ) ;
#42 = LINE ( 'NONE', #49, #461 ) ;
#43 =( LENGTH_UNIT ( ) NAMED_UNIT ( * ) SI_UNIT ( .MILLI., .METRE. ) );
#44 = DIRECTION ( 'NONE',  ( 0.000000000000000000, 1.000000000000000000, -0.000000000000000000 ) ) ;
#45 = CARTESIAN_POINT ( 'NONE',  ( -1.079999999999998073, -16.00000000000000000, -0.3800000000000000044 ) ) ;
#46 = PRESENTATION_STYLE_ASSIGNMENT (( #805 ) ) ;
#47 = VECTOR ( 'NONE', #953, 1000.000000000000000 ) ;
#48 = ORIENTED_EDGE ( 'NONE', *, *, #174, .T. ) ;
#49 = CARTESIAN_POINT ( 'NONE',  ( -1.459999999999999964, -1.276892648044953171, 0.000000000000000000 ) ) ;
#50 = CARTESIAN_POINT ( 'NONE',  ( -2.050000000000001155, -1.500000000000000888, 0.000000000000000000 ) ) ;
#51 = DIRECTION ( 'NONE',  ( 0.000000000000000000, 0.000000000000000000, 1.000000000000000000 ) ) ;
#52 = PLANE ( 'NONE',  #458 ) ;
#53 = DIRECTION ( 'NONE',  ( 1.178231900717926307E-16, -1.000000000000000000, 0.000000000000000000 ) ) ;
#54 =( LENGTH_UNIT ( ) NAMED_UNIT ( * ) SI_UNIT ( .MILLI., .METRE. ) );
#55 = MECHANICAL_DESIGN_GEOMETRIC_PRESENTATION_REPRESENTATION (  '', ( #586 ), #884 ) ;
#56 = DIRECTION ( 'NONE',  ( -0.7071067811865462405, 0.000000000000000000, 0.7071067811865489050 ) ) ;
#57 =( GEOMETRIC_REPRESENTATION_CONTEXT ( 3 ) GLOBAL_UNCERTAINTY_ASSIGNED_CONTEXT ( ( #710 ) ) GLOBAL_UNIT_ASSIGNED_CONTEXT ( ( #605, #267, #96 ) ) REPRESENTATION_CONTEXT ( 'NONE', 'WORKASPACE' ) );
#58 = DIRECTION ( 'NONE',  ( 0.000000000000000000, 0.000000000000000000, -1.000000000000000000 ) ) ;
#59 =( GEOMETRIC_REPRESENTATION_CONTEXT ( 3 ) GLOBAL_UNCERTAINTY_ASSIGNED_CONTEXT ( ( #835 ) ) GLOBAL_UNIT_ASSIGNED_CONTEXT ( ( #800, #544, #118 ) ) REPRESENTATION_CONTEXT ( 'NONE', 'WORKASPACE' ) );
#60 = ORIENTED_EDGE ( 'NONE', *, *, #514, .F. ) ;
#61 = LINE ( 'NONE', #722, #791 ) ;
#62 = PLANE ( 'NONE',  #1016 ) ;
#63 = ADVANCED_FACE ( 'NONE', ( #69 ), #329, .T. ) ;
#64 = CARTESIAN_POINT ( 'NONE',  ( -0.1899999999999998357, -1.276892648044953171, -0.3800000000000000044 ) ) ;
#65 = VERTEX_POINT ( 'NONE', #993 ) ;
#66 = COLOUR_RGB ( '',0.2509803921568627416, 0.2509803921568627416, 0.2509803921568627416 ) ;
#67 = CARTESIAN_POINT ( 'NONE',  ( 0.1900000000000003075, -1.466754307860149709, -0.3800000000000000044 ) ) ;
#68 =( NAMED_UNIT ( * ) PLANE_ANGLE_UNIT ( ) SI_UNIT ( $, .RADIAN. ) );
#69 = FACE_OUTER_BOUND ( 'NONE', #377, .T. ) ;
#70 = EDGE_CURVE ( 'NONE', #65, #277, #906, .T. ) ;
#71 = ORIENTED_EDGE ( 'NONE', *, *, #824, .T. ) ;
#72 = UNCERTAINTY_MEASURE_WITH_UNIT (LENGTH_MEASURE( 1.000000000000000082E-05 ), #825, 'distance_accuracy_value', 'NONE');
#73 = CARTESIAN_POINT ( 'NONE',  ( 1.460000000000002185, -16.00000000000000000, 0.000000000000000000 ) ) ;
#74 = SURFACE_STYLE_FILL_AREA ( #999 ) ;
#75 = VECTOR ( 'NONE', #661, 1000.000000000000000 ) ;
#76 = SURFACE_STYLE_FILL_AREA ( #850 ) ;
#77 = FILL_AREA_STYLE ('',( #84 ) ) ;
#78 = STYLED_ITEM ( 'NONE', ( #432 ), #164 ) ;
#79 = ORIENTED_EDGE ( 'NONE', *, *, #806, .T. ) ;
#80 = DIRECTION ( 'NONE',  ( -0.000000000000000000, -1.000000000000000000, -0.000000000000000000 ) ) ;
#81 =( GEOMETRIC_REPRESENTATION_CONTEXT ( 3 ) GLOBAL_UNCERTAINTY_ASSIGNED_CONTEXT ( ( #441 ) ) GLOBAL_UNIT_ASSIGNED_CONTEXT ( ( #521, #954, #685 ) ) REPRESENTATION_CONTEXT ( 'NONE', 'WORKASPACE' ) );
#82 = CARTESIAN_POINT ( 'NONE',  ( 1.460000000000000409, -1.466754307860149709, -0.3800000000000000044 ) ) ;
#83 = COLOUR_RGB ( '',0.2509803921568627416, 0.2509803921568627416, 0.2509803921568627416 ) ;
#84 = FILL_AREA_STYLE_COLOUR ( '', #1038 ) ;
#85 = ORIENTED_EDGE ( 'NONE', *, *, #1031, .T. ) ;
#86 = ORIENTED_EDGE ( 'NONE', *, *, #609, .F. ) ;
#87 = SURFACE_STYLE_FILL_AREA ( #77 ) ;
#88 = CARTESIAN_POINT ( 'NONE',  ( -1.079999999999998073, -16.00000000000000000, -0.3800000000000000044 ) ) ;
#89 =( NAMED_UNIT ( * ) SI_UNIT ( $, .STERADIAN. ) SOLID_ANGLE_UNIT ( ) );
#90 = ORIENTED_EDGE ( 'NONE', *, *, #366, .T. ) ;
#91 = DIRECTION ( 'NONE',  ( -1.000000000000000000, -1.178231900717926307E-16, 0.000000000000000000 ) ) ;
#92 = CARTESIAN_POINT ( 'NONE',  ( -2.050000000000001155, -1.500000000000000888, 0.000000000000000000 ) ) ;
#93 = CARTESIAN_POINT ( 'NONE',  ( -2.050000000000001155, -1.500000000000000888, 0.000000000000000000 ) ) ;
#94 = FILL_AREA_STYLE_COLOUR ( '', #660 ) ;
#95 = CARTESIAN_POINT ( 'NONE',  ( -1.459999999999998188, -16.00000000000000000, 0.000000000000000000 ) ) ;
#96 =( NAMED_UNIT ( * ) SI_UNIT ( $, .STERADIAN. ) SOLID_ANGLE_UNIT ( ) );
#97 = DIRECTION ( 'NONE',  ( 0.000000000000000000, 0.000000000000000000, 1.000000000000000000 ) ) ;
#98 =( GEOMETRIC_REPRESENTATION_CONTEXT ( 3 ) GLOBAL_UNCERTAINTY_ASSIGNED_CONTEXT ( ( #455 ) ) GLOBAL_UNIT_ASSIGNED_CONTEXT ( ( #799, #449, #36 ) ) REPRESENTATION_CONTEXT ( 'NONE', 'WORKASPACE' ) );
#99 = DIRECTION ( 'NONE',  ( -0.05213734452108187423, -0.08703720429184748364, -0.9948397973419385032 ) ) ;
#100 = PRESENTATION_STYLE_ASSIGNMENT (( #295 ) ) ;
#101 = EDGE_CURVE ( 'NONE', #232, #1049, #246, .T. ) ;
#102 = EDGE_LOOP ( 'NONE', ( #622, #260, #718, #86 ) ) ;
#103 = PLANE ( 'NONE',  #588 ) ;
#104 = ORIENTED_EDGE ( 'NONE', *, *, #101, .F. ) ;
#105 =( LENGTH_UNIT ( ) NAMED_UNIT ( * ) SI_UNIT ( .MILLI., .METRE. ) );
#106 = SURFACE_STYLE_USAGE ( .BOTH. , #111 ) ;
#107 = STYLED_ITEM ( 'NONE', ( #991 ), #668 ) ;
#108 = DIRECTION ( 'NONE',  ( 0.000000000000000000, 0.000000000000000000, 1.000000000000000000 ) ) ;
#109 = VECTOR ( 'NONE', #694, 1000.000000000000000 ) ;
#110 = FILL_AREA_STYLE_COLOUR ( '', #226 ) ;
#111 = SURFACE_SIDE_STYLE ('',( #378 ) ) ;
#112 = CARTESIAN_POINT ( 'NONE',  ( 0.1900000000000020284, -16.00000000000000000, -0.3800000000000000044 ) ) ;
#113 = ORIENTED_EDGE ( 'NONE', *, *, #334, .F. ) ;
#114 = SURFACE_STYLE_USAGE ( .BOTH. , #23 ) ;
#115 = LINE ( 'NONE', #294, #248 ) ;
#116 = UNCERTAINTY_MEASURE_WITH_UNIT (LENGTH_MEASURE( 1.000000000000000082E-05 ), #784, 'distance_accuracy_value', 'NONE');
#117 = VECTOR ( 'NONE', #456, 1000.000000000000000 ) ;
#118 =( NAMED_UNIT ( * ) SI_UNIT ( $, .STERADIAN. ) SOLID_ANGLE_UNIT ( ) );
#119 = FILL_AREA_STYLE ('',( #376 ) ) ;
#120 = VERTEX_POINT ( 'NONE', #582 ) ;
#121 = FILL_AREA_STYLE ('',( #198 ) ) ;
#122 = PLANE ( 'NONE',  #391 ) ;
#123 = SURFACE_STYLE_FILL_AREA ( #282 ) ;
#124 = CARTESIAN_POINT ( 'NONE',  ( 1.080000000000000293, -1.500000000000000888, 0.000000000000000000 ) ) ;
#125 = EDGE_LOOP ( 'NONE', ( #683, #666, #545, #769 ) ) ;
#126 = CARTESIAN_POINT ( 'NONE',  ( -1.459999999999998188, -16.00000000000000000, -0.3800000000000000044 ) ) ;
#127 = PLANE ( 'NONE',  #245 ) ;
#128 = STYLED_ITEM ( 'NONE', ( #46 ), #40 ) ;
#129 = EDGE_CURVE ( 'NONE', #338, #165, #406, .T. ) ;
#130 = ADVANCED_FACE ( 'NONE', ( #915 ), #52, .T. ) ;
#131 = FILL_AREA_STYLE ('',( #976 ) ) ;
#132 = FILL_AREA_STYLE_COLOUR ( '', #1013 ) ;
#133 = ORIENTED_EDGE ( 'NONE', *, *, #900, .F. ) ;
#134 = PRESENTATION_STYLE_ASSIGNMENT (( #1054 ) ) ;
#135 = CARTESIAN_POINT ( 'NONE',  ( 1.460000000000002185, -16.00000000000000000, -0.3800000000000000044 ) ) ;
#136 =( LENGTH_UNIT ( ) NAMED_UNIT ( * ) SI_UNIT ( .MILLI., .METRE. ) );
#137 = ADVANCED_FACE ( 'NONE', ( #816 ), #732, .T. ) ;
#138 = VECTOR ( 'NONE', #909, 1000.000000000000000 ) ;
#139 = ORIENTED_EDGE ( 'NONE', *, *, #697, .F. ) ;
#140 = AXIS2_PLACEMENT_3D ( 'NONE', #729, #556, #409 ) ;
#141 = LINE ( 'NONE', #555, #914 ) ;
#142 = FILL_AREA_STYLE ('',( #574 ) ) ;
#143 = FILL_AREA_STYLE ('',( #303 ) ) ;
#144 = CARTESIAN_POINT ( 'NONE',  ( 0.000000000000000000, 1.434383502355556006, -0.7500000000000000000 ) ) ;
#145 = VECTOR ( 'NONE', #646, 1000.000000000000000 ) ;
#146 = EDGE_LOOP ( 'NONE', ( #1036, #330, #400, #762 ) ) ;
#147 = CARTESIAN_POINT ( 'NONE',  ( -1.079999999999998073, -16.00000000000000000, -0.3800000000000000044 ) ) ;
#148 = PRESENTATION_LAYER_ASSIGNMENT (  '', '', ( #1079 ) ) ;
#149 = COLOUR_RGB ( '',0.7529411764705882248, 0.7529411764705882248, 0.7529411764705882248 ) ;
#150 =( NAMED_UNIT ( * ) PLANE_ANGLE_UNIT ( ) SI_UNIT ( $, .RADIAN. ) );
#151 = CARTESIAN_POINT ( 'NONE',  ( 1.460000000000002185, -16.00000000000000000, -0.3800000000000000044 ) ) ;
#152 = SURFACE_SIDE_STYLE ('',( #74 ) ) ;
#153 =( GEOMETRIC_REPRESENTATION_CONTEXT ( 3 ) GLOBAL_UNCERTAINTY_ASSIGNED_CONTEXT ( ( #868 ) ) GLOBAL_UNIT_ASSIGNED_CONTEXT ( ( #1025, #599, #6 ) ) REPRESENTATION_CONTEXT ( 'NONE', 'WORKASPACE' ) );
#154 = MECHANICAL_DESIGN_GEOMETRIC_PRESENTATION_REPRESENTATION (  '', ( #627 ), #410 ) ;
#155 = ORIENTED_EDGE ( 'NONE', *, *, #446, .T. ) ;
#156 = FILL_AREA_STYLE_COLOUR ( '', #1071 ) ;
#157 = DIRECTION ( 'NONE',  ( 1.026896764360561304E-17, -0.08715574274765836016, 0.9961946980917455452 ) ) ;
#158 = ORIENTED_EDGE ( 'NONE', *, *, #514, .T. ) ;
#159 =( GEOMETRIC_REPRESENTATION_CONTEXT ( 3 ) GLOBAL_UNCERTAINTY_ASSIGNED_CONTEXT ( ( #116 ) ) GLOBAL_UNIT_ASSIGNED_CONTEXT ( ( #784, #278, #272 ) ) REPRESENTATION_CONTEXT ( 'NONE', 'WORKASPACE' ) );
#160 =( NAMED_UNIT ( * ) SI_UNIT ( $, .STERADIAN. ) SOLID_ANGLE_UNIT ( ) );
#161 = DIRECTION ( 'NONE',  ( -1.000000000000000000, -1.178231900717926307E-16, 0.000000000000000000 ) ) ;
#162 = SURFACE_SIDE_STYLE ('',( #352 ) ) ;
#163 = PRESENTATION_LAYER_ASSIGNMENT (  '', '', ( #818 ) ) ;
#164 = ADVANCED_FACE ( 'NONE', ( #844 ), #269, .T. ) ;
#165 = VERTEX_POINT ( 'NONE', #255 ) ;
#166 = CARTESIAN_POINT ( 'NONE',  ( 1.080000000000000293, -1.276892648044953171, -0.3800000000000000044 ) ) ;
#167 = PRESENTATION_STYLE_ASSIGNMENT (( #673 ) ) ;
#168 = MECHANICAL_DESIGN_GEOMETRIC_PRESENTATION_REPRESENTATION (  '', ( #561 ), #1066 ) ;
#169 = PRESENTATION_LAYER_ASSIGNMENT (  '', '', ( #24 ) ) ;
#170 = VECTOR ( 'NONE', #866, 1000.000000000000000 ) ;
#171 = ORIENTED_EDGE ( 'NONE', *, *, #313, .T. ) ;
#172 = STYLED_ITEM ( 'NONE', ( #675 ), #281 ) ;
#173 = ORIENTED_EDGE ( 'NONE', *, *, #381, .F. ) ;
#174 = EDGE_CURVE ( 'NONE', #1053, #559, #188, .T. ) ;
#175 = SURFACE_STYLE_FILL_AREA ( #302 ) ;
#176 = VERTEX_POINT ( 'NONE', #1015 ) ;
#177 = CARTESIAN_POINT ( 'NONE',  ( 0.1900000000000002798, -1.276892648044953171, -0.3800000000000000044 ) ) ;
#178 = EDGE_CURVE ( 'NONE', #1028, #864, #603, .T. ) ;
#179 = SURFACE_STYLE_USAGE ( .BOTH. , #162 ) ;
#180 = DIRECTION ( 'NONE',  ( -0.000000000000000000, -1.000000000000000000, -0.000000000000000000 ) ) ;
#181 = UNCERTAINTY_MEASURE_WITH_UNIT (LENGTH_MEASURE( 1.000000000000000082E-05 ), #367, 'distance_accuracy_value', 'NONE');
#182 = SURFACE_SIDE_STYLE ('',( #764 ) ) ;
#183 = FACE_OUTER_BOUND ( 'NONE', #983, .T. ) ;
#184 = LINE ( 'NONE', #92, #170 ) ;
#185 = SURFACE_STYLE_FILL_AREA ( #507 ) ;
#186 = LINE ( 'NONE', #1056, #1045 ) ;
#187 = VERTEX_POINT ( 'NONE', #499 ) ;
#188 = LINE ( 'NONE', #1030, #924 ) ;
#189 = ORIENTED_EDGE ( 'NONE', *, *, #626, .T. ) ;
#190 = SURFACE_SIDE_STYLE ('',( #947 ) ) ;
#191 = VECTOR ( 'NONE', #698, 1000.000000000000000 ) ;
#192 = LINE ( 'NONE', #359, #652 ) ;
#193 = VECTOR ( 'NONE', #573, 1000.000000000000000 ) ;
#194 = LINE ( 'NONE', #361, #904 ) ;
#195 = EDGE_CURVE ( 'NONE', #221, #232, #332, .T. ) ;
#196 = ORIENTED_EDGE ( 'NONE', *, *, #220, .T. ) ;
#197 = ORIENTED_EDGE ( 'NONE', *, *, #420, .F. ) ;
#198 = FILL_AREA_STYLE_COLOUR ( '', #1027 ) ;
#199 = CARTESIAN_POINT ( 'NONE',  ( -2.050000000000001155, -1.466754307860149709, -0.3800000000000000044 ) ) ;
#200 = UNCERTAINTY_MEASURE_WITH_UNIT (LENGTH_MEASURE( 1.000000000000000082E-05 ), #867, 'distance_accuracy_value', 'NONE');
#201 = VECTOR ( 'NONE', #263, 1000.000000000000000 ) ;
#202 = EDGE_CURVE ( 'NONE', #516, #1046, #678, .T. ) ;
#203 = PRESENTATION_STYLE_ASSIGNMENT (( #958 ) ) ;
#204 = ORIENTED_EDGE ( 'NONE', *, *, #426, .F. ) ;
#205 = DIRECTION ( 'NONE',  ( 1.000000000000000000, 0.000000000000000000, 0.000000000000000000 ) ) ;
#206 = PRESENTATION_LAYER_ASSIGNMENT (  '', '', ( #870 ) ) ;
#207 = ORIENTED_EDGE ( 'NONE', *, *, #334, .T. ) ;
#208 = PRESENTATION_STYLE_ASSIGNMENT (( #114 ) ) ;
#209 = MECHANICAL_DESIGN_GEOMETRIC_PRESENTATION_REPRESENTATION (  '', ( #841 ), #504 ) ;
#210 = DIRECTION ( 'NONE',  ( -1.000000000000000000, 0.000000000000000000, 0.000000000000000000 ) ) ;
#211 = LINE ( 'NONE', #549, #849 ) ;
#212 = ORIENTED_EDGE ( 'NONE', *, *, #202, .F. ) ;
#213 = DIRECTION ( 'NONE',  ( 1.000000000000000000, 0.000000000000000000, 0.000000000000000000 ) ) ;
#214 = PLANE ( 'NONE',  #337 ) ;
#215 = VERTEX_POINT ( 'NONE', #95 ) ;
#216 = DIRECTION ( 'NONE',  ( -0.000000000000000000, 0.000000000000000000, -1.000000000000000000 ) ) ;
#217 =( NAMED_UNIT ( * ) SI_UNIT ( $, .STERADIAN. ) SOLID_ANGLE_UNIT ( ) );
#218 = CARTESIAN_POINT ( 'NONE',  ( 0.1900000000000020284, -16.00000000000000000, 0.000000000000000000 ) ) ;
#219 = ADVANCED_FACE ( 'NONE', ( #688 ), #103, .F. ) ;
#220 = EDGE_CURVE ( 'NONE', #354, #176, #433, .T. ) ;
#221 = VERTEX_POINT ( 'NONE', #271 ) ;
#222 = FACE_OUTER_BOUND ( 'NONE', #241, .T. ) ;
#223 = CARTESIAN_POINT ( 'NONE',  ( -2.050000000000001155, -1.500000000000000888, 0.000000000000000000 ) ) ;
#224 = CARTESIAN_POINT ( 'NONE',  ( -1.459999999999999964, -1.466754307860149709, -0.3800000000000000044 ) ) ;
#225 =( GEOMETRIC_REPRESENTATION_CONTEXT ( 3 ) GLOBAL_UNCERTAINTY_ASSIGNED_CONTEXT ( ( #510 ) ) GLOBAL_UNIT_ASSIGNED_CONTEXT ( ( #1020, #336, #264 ) ) REPRESENTATION_CONTEXT ( 'NONE', 'WORKASPACE' ) );
#226 = COLOUR_RGB ( '',0.2509803921568627416, 0.2509803921568627416, 0.2509803921568627416 ) ;
#227 = MECHANICAL_DESIGN_GEOMETRIC_PRESENTATION_REPRESENTATION (  '', ( #389 ), #501 ) ;
#228 = DIRECTION ( 'NONE',  ( 1.178231900717926307E-16, -1.000000000000000000, 0.000000000000000000 ) ) ;
#229 = PRODUCT_RELATED_PRODUCT_CATEGORY ( 'part', '', ( #905 ) ) ;
#230 = STYLED_ITEM ( 'NONE', ( #134 ), #957 ) ;
#231 = FILL_AREA_STYLE ('',( #1062 ) ) ;
#232 = VERTEX_POINT ( 'NONE', #447 ) ;
#233 = LINE ( 'NONE', #984, #951 ) ;
#234 = LINE ( 'NONE', #490, #955 ) ;
#235 =( LENGTH_UNIT ( ) NAMED_UNIT ( * ) SI_UNIT ( .MILLI., .METRE. ) );
#236 = ORIENTED_EDGE ( 'NONE', *, *, #195, .T. ) ;
#237 = EDGE_CURVE ( 'NONE', #952, #354, #606, .T. ) ;
#238 = CARTESIAN_POINT ( 'NONE',  ( -0.1899999999999998079, -1.466754307860149709, -0.3800000000000000044 ) ) ;
#239 = PRODUCT_CONTEXT ( 'NONE', #963, 'mechanical' ) ;
#240 = LINE ( 'NONE', #73, #585 ) ;
#241 = EDGE_LOOP ( 'NONE', ( #843, #71, #158, #247 ) ) ;
#242 = CARTESIAN_POINT ( 'NONE',  ( -2.050000000000001155, -1.500000000000000888, 0.000000000000000000 ) ) ;
#243 = DIRECTION ( 'NONE',  ( 1.178231900717926307E-16, -1.000000000000000000, 0.000000000000000000 ) ) ;
#244 = ADVANCED_FACE ( 'NONE', ( #276 ), #383, .F. ) ;
#245 = AXIS2_PLACEMENT_3D ( 'NONE', #1035, #437, #691 ) ;
#246 = LINE ( 'NONE', #1004, #452 ) ;
#247 = ORIENTED_EDGE ( 'NONE', *, *, #771, .F. ) ;
#248 = VECTOR ( 'NONE', #634, 1000.000000000000000 ) ;
#249 = SURFACE_STYLE_FILL_AREA ( #13 ) ;
#250 = SURFACE_SIDE_STYLE ('',( #326 ) ) ;
#251 =( NAMED_UNIT ( * ) SI_UNIT ( $, .STERADIAN. ) SOLID_ANGLE_UNIT ( ) );
#252 = VECTOR ( 'NONE', #348, 1000.000000000000000 ) ;
#253 =( LENGTH_UNIT ( ) NAMED_UNIT ( * ) SI_UNIT ( .MILLI., .METRE. ) );
#254 = ORIENTED_EDGE ( 'NONE', *, *, #580, .F. ) ;
#255 = CARTESIAN_POINT ( 'NONE',  ( -2.010694165537719957, 1.434383502355556006, -0.7500000000000000000 ) ) ;
#256 = SURFACE_STYLE_USAGE ( .BOTH. , #425 ) ;
#257 = EDGE_CURVE ( 'NONE', #872, #1000, #211, .T. ) ;
#258 = DIRECTION ( 'NONE',  ( 0.000000000000000000, 1.000000000000000000, -0.000000000000000000 ) ) ;
#259 = VECTOR ( 'NONE', #108, 1000.000000000000000 ) ;
#260 = ORIENTED_EDGE ( 'NONE', *, *, #301, .F. ) ;
#261 = CARTESIAN_POINT ( 'NONE',  ( 1.270000000000000018, 0.000000000000000000, -0.3800000000000000044 ) ) ;
#262 = MECHANICAL_DESIGN_GEOMETRIC_PRESENTATION_REPRESENTATION (  '', ( #1008 ), #98 ) ;
#263 = DIRECTION ( 'NONE',  ( 1.000000000000000000, 0.000000000000000000, 0.000000000000000000 ) ) ;
#264 =( NAMED_UNIT ( * ) SI_UNIT ( $, .STERADIAN. ) SOLID_ANGLE_UNIT ( ) );
#265 = LINE ( 'NONE', #950, #287 ) ;
#266 = ORIENTED_EDGE ( 'NONE', *, *, #453, .F. ) ;
#267 =( NAMED_UNIT ( * ) PLANE_ANGLE_UNIT ( ) SI_UNIT ( $, .RADIAN. ) );
#268 = CARTESIAN_POINT ( 'NONE',  ( 0.1900000000000002798, -1.276892648044953171, -0.3800000000000000044 ) ) ;
#269 = PLANE ( 'NONE',  #311 ) ;
#270 = SURFACE_SIDE_STYLE ('',( #886 ) ) ;
#271 = CARTESIAN_POINT ( 'NONE',  ( -1.299999999999998268, 1.434383502355556006, 0.7500000000000000000 ) ) ;
#272 =( NAMED_UNIT ( * ) SI_UNIT ( $, .STERADIAN. ) SOLID_ANGLE_UNIT ( ) );
#273 = PLANE ( 'NONE',  #569 ) ;
#274 = VERTEX_POINT ( 'NONE', #124 ) ;
#275 = PRESENTATION_LAYER_ASSIGNMENT (  '', '', ( #1085 ) ) ;
#276 = FACE_OUTER_BOUND ( 'NONE', #778, .T. ) ;
#277 = VERTEX_POINT ( 'NONE', #470 ) ;
#278 =( NAMED_UNIT ( * ) PLANE_ANGLE_UNIT ( ) SI_UNIT ( $, .RADIAN. ) );
#279 = CARTESIAN_POINT ( 'NONE',  ( -1.459999999999999964, -1.500000000000000888, -6.035635761647013141E-18 ) ) ;
#280 = STYLED_ITEM ( 'NONE', ( #208 ), #726 ) ;
#281 = ADVANCED_FACE ( 'NONE', ( #298 ), #977, .T. ) ;
#282 = FILL_AREA_STYLE ('',( #110 ) ) ;
#283 = SURFACE_STYLE_FILL_AREA ( #119 ) ;
#284 = ORIENTED_EDGE ( 'NONE', *, *, #257, .T. ) ;
#285 = LINE ( 'NONE', #472, #581 ) ;
#286 = DIRECTION ( 'NONE',  ( 0.000000000000000000, 1.000000000000000000, -0.000000000000000000 ) ) ;
#287 = VECTOR ( 'NONE', #601, 1000.000000000000000 ) ;
#288 = ADVANCED_FACE ( 'NONE', ( #328 ), #927, .T. ) ;
#289 = ORIENTED_EDGE ( 'NONE', *, *, #771, .T. ) ;
#290 = DIRECTION ( 'NONE',  ( 0.000000000000000000, 0.000000000000000000, 1.000000000000000000 ) ) ;
#291 = DIRECTION ( 'NONE',  ( -0.000000000000000000, 0.000000000000000000, -1.000000000000000000 ) ) ;
#292 = ORIENTED_EDGE ( 'NONE', *, *, #1091, .T. ) ;
#293 = PRESENTATION_STYLE_ASSIGNMENT (( #972 ) ) ;
#294 = CARTESIAN_POINT ( 'NONE',  ( -0.1899999999999998357, -1.276892648044953171, 0.000000000000000000 ) ) ;
#295 = SURFACE_STYLE_USAGE ( .BOTH. , #508 ) ;
#296 =( GEOMETRIC_REPRESENTATION_CONTEXT ( 3 ) GLOBAL_UNCERTAINTY_ASSIGNED_CONTEXT ( ( #26 ) ) GLOBAL_UNIT_ASSIGNED_CONTEXT ( ( #808, #917, #160 ) ) REPRESENTATION_CONTEXT ( 'NONE', 'WORKASPACE' ) );
#297 = VECTOR ( 'NONE', #372, 1000.000000000000000 ) ;
#298 = FACE_OUTER_BOUND ( 'NONE', #945, .T. ) ;
#299 = ORIENTED_EDGE ( 'NONE', *, *, #739, .F. ) ;
#300 = FILL_AREA_STYLE ('',( #741 ) ) ;
#301 = EDGE_CURVE ( 'NONE', #274, #1043, #192, .T. ) ;
#302 = FILL_AREA_STYLE ('',( #94 ) ) ;
#303 = FILL_AREA_STYLE_COLOUR ( '', #936 ) ;
#304 = ORIENTED_EDGE ( 'NONE', *, *, #731, .F. ) ;
#305 = FACE_OUTER_BOUND ( 'NONE', #146, .T. ) ;
#306 = LINE ( 'NONE', #417, #902 ) ;
#307 = MECHANICAL_DESIGN_GEOMETRIC_PRESENTATION_REPRESENTATION (  '', ( #818 ), #57 ) ;
#308 = CARTESIAN_POINT ( 'NONE',  ( -2.050000000000001155, 1.499999999999999112, 0.000000000000000000 ) ) ;
#309 = SURFACE_SIDE_STYLE ('',( #314 ) ) ;
#310 = LINE ( 'NONE', #897, #1057 ) ;
#311 = AXIS2_PLACEMENT_3D ( 'NONE', #589, #847, #920 ) ;
#312 = SURFACE_STYLE_USAGE ( .BOTH. , #714 ) ;
#313 = EDGE_CURVE ( 'NONE', #952, #845, #702, .T. ) ;
#314 = SURFACE_STYLE_FILL_AREA ( #989 ) ;
#315 = DIRECTION ( 'NONE',  ( 1.026896764360561304E-17, -0.08715574274765836016, 0.9961946980917455452 ) ) ;
#316 =( NAMED_UNIT ( * ) PLANE_ANGLE_UNIT ( ) SI_UNIT ( $, .RADIAN. ) );
#317 = PLANE ( 'NONE',  #788 ) ;
#318 = CARTESIAN_POINT ( 'NONE',  ( 0.000000000000000000, 0.000000000000000000, -0.7500000000000000000 ) ) ;
#319 = AXIS2_PLACEMENT_3D ( 'NONE', #45, #1080, #322 ) ;
#320 = COLOUR_RGB ( '',0.7529411764705882248, 0.7529411764705882248, 0.7529411764705882248 ) ;
#321 = CARTESIAN_POINT ( 'NONE',  ( 0.007815711134720980391, 1.321332025893536821, 2.042184288865270592 ) ) ;
#322 = DIRECTION ( 'NONE',  ( 0.000000000000000000, 0.000000000000000000, 1.000000000000000000 ) ) ;
#323 = DIRECTION ( 'NONE',  ( 1.178231900717926307E-16, -1.000000000000000000, 0.000000000000000000 ) ) ;
#324 = UNCERTAINTY_MEASURE_WITH_UNIT (LENGTH_MEASURE( 1.000000000000000082E-05 ), #21, 'distance_accuracy_value', 'NONE');
#325 = DIRECTION ( 'NONE',  ( -1.000000000000000000, 0.000000000000000000, 0.000000000000000000 ) ) ;
#326 = SURFACE_STYLE_FILL_AREA ( #486 ) ;
#327 = PRESENTATION_LAYER_ASSIGNMENT (  '', '', ( #477 ) ) ;
#328 = FACE_OUTER_BOUND ( 'NONE', #894, .T. ) ;
#329 = PLANE ( 'NONE',  #801 ) ;
#330 = ORIENTED_EDGE ( 'NONE', *, *, #647, .F. ) ;
#331 = AXIS2_PLACEMENT_3D ( 'NONE', #1050, #615, #365 ) ;
#332 = LINE ( 'NONE', #339, #371 ) ;
#333 = SURFACE_STYLE_FILL_AREA ( #584 ) ;
#334 = EDGE_CURVE ( 'NONE', #65, #338, #962, .T. ) ;
#335 = EDGE_CURVE ( 'NONE', #845, #176, #775, .T. ) ;
#336 =( NAMED_UNIT ( * ) PLANE_ANGLE_UNIT ( ) SI_UNIT ( $, .RADIAN. ) );
#337 = AXIS2_PLACEMENT_3D ( 'NONE', #658, #56, #996 ) ;
#338 = VERTEX_POINT ( 'NONE', #1026 ) ;
#339 = CARTESIAN_POINT ( 'NONE',  ( -1.299999999999998268, 0.000000000000000000, 0.7500000000000000000 ) ) ;
#340 = PRESENTATION_STYLE_ASSIGNMENT (( #256 ) ) ;
#341 = STYLED_ITEM ( 'NONE', ( #293 ), #724 ) ;
#342 = COLOUR_RGB ( '',0.7529411764705882248, 0.7529411764705882248, 0.7529411764705882248 ) ;
#343 = DIRECTION ( 'NONE',  ( -0.000000000000000000, 0.000000000000000000, -1.000000000000000000 ) ) ;
#344 = DIRECTION ( 'NONE',  ( 0.000000000000000000, 0.000000000000000000, -1.000000000000000000 ) ) ;
#345 = EDGE_CURVE ( 'NONE', #970, #604, #27, .T. ) ;
#346 = ORIENTED_EDGE ( 'NONE', *, *, #101, .T. ) ;
#347 = UNCERTAINTY_MEASURE_WITH_UNIT (LENGTH_MEASURE( 1.000000000000000082E-05 ), #600, 'distance_accuracy_value', 'NONE');
#348 = DIRECTION ( 'NONE',  ( -0.000000000000000000, 1.000000000000000000, -0.000000000000000000 ) ) ;
#349 = ORIENTED_EDGE ( 'NONE', *, *, #546, .F. ) ;
#350 = CARTESIAN_POINT ( 'NONE',  ( 2.049999999999998490, -1.500000000000000888, 0.000000000000000000 ) ) ;
#351 = SURFACE_SIDE_STYLE ('',( #185 ) ) ;
#352 = SURFACE_STYLE_FILL_AREA ( #9 ) ;
#353 = CARTESIAN_POINT ( 'NONE',  ( 1.080000000000002069, -16.00000000000000000, 0.000000000000000000 ) ) ;
#354 = VERTEX_POINT ( 'NONE', #610 ) ;
#355 = CARTESIAN_POINT ( 'NONE',  ( 0.1900000000000002798, -1.276892648044953171, 0.000000000000000000 ) ) ;
#356 = CARTESIAN_POINT ( 'NONE',  ( -1.459999999999999964, -1.276892648044953171, -0.3800000000000000044 ) ) ;
#357 = FILL_AREA_STYLE_COLOUR ( '', #892 ) ;
#358 = FILL_AREA_STYLE ('',( #547 ) ) ;
#359 = CARTESIAN_POINT ( 'NONE',  ( -2.050000000000001155, -1.500000000000000888, 0.000000000000000000 ) ) ;
#360 =( LENGTH_UNIT ( ) NAMED_UNIT ( * ) SI_UNIT ( .MILLI., .METRE. ) );
#361 = CARTESIAN_POINT ( 'NONE',  ( 2.049999999999998490, -1.500000000000000888, 0.000000000000000000 ) ) ;
#362 = ORIENTED_EDGE ( 'NONE', *, *, #579, .F. ) ;
#363 = UNCERTAINTY_MEASURE_WITH_UNIT (LENGTH_MEASURE( 1.000000000000000082E-05 ), #568, 'distance_accuracy_value', 'NONE');
#364 = EDGE_LOOP ( 'NONE', ( #197, #937, #464, #1096 ) ) ;
#365 = DIRECTION ( 'NONE',  ( 1.178231900717926307E-16, -1.000000000000000000, 0.000000000000000000 ) ) ;
#366 = EDGE_CURVE ( 'NONE', #516, #429, #530, .T. ) ;
#367 =( LENGTH_UNIT ( ) NAMED_UNIT ( * ) SI_UNIT ( .MILLI., .METRE. ) );
#368 = DIRECTION ( 'NONE',  ( -1.000000000000000000, 0.000000000000000000, -0.000000000000000000 ) ) ;
#369 = SURFACE_STYLE_USAGE ( .BOTH. , #351 ) ;
#370 =( NAMED_UNIT ( * ) PLANE_ANGLE_UNIT ( ) SI_UNIT ( $, .RADIAN. ) );
#371 = VECTOR ( 'NONE', #80, 1000.000000000000000 ) ;
#372 = DIRECTION ( 'NONE',  ( 1.026896764360561304E-17, -0.08715574274765836016, 0.9961946980917455452 ) ) ;
#373 = PRESENTATION_LAYER_ASSIGNMENT (  '', '', ( #1070 ) ) ;
#374 = EDGE_CURVE ( 'NONE', #232, #516, #624, .T. ) ;
#375 = FILL_AREA_STYLE_COLOUR ( '', #476 ) ;
#376 = FILL_AREA_STYLE_COLOUR ( '', #149 ) ;
#377 = EDGE_LOOP ( 'NONE', ( #594, #349, #1023, #384 ) ) ;
#378 = SURFACE_STYLE_FILL_AREA ( #358 ) ;
#379 = UNCERTAINTY_MEASURE_WITH_UNIT (LENGTH_MEASURE( 1.000000000000000082E-05 ), #54, 'distance_accuracy_value', 'NONE');
#380 =( GEOMETRIC_REPRESENTATION_CONTEXT ( 3 ) GLOBAL_UNCERTAINTY_ASSIGNED_CONTEXT ( ( #944 ) ) GLOBAL_UNIT_ASSIGNED_CONTEXT ( ( #473, #862, #15 ) ) REPRESENTATION_CONTEXT ( 'NONE', 'WORKASPACE' ) );
#381 = EDGE_CURVE ( 'NONE', #1043, #429, #444, .T. ) ;
#382 = FILL_AREA_STYLE ('',( #375 ) ) ;
#383 = PLANE ( 'NONE',  #468 ) ;
#384 = ORIENTED_EDGE ( 'NONE', *, *, #129, .F. ) ;
#385 = LINE ( 'NONE', #356, #770 ) ;
#386 = SURFACE_SIDE_STYLE ('',( #540 ) ) ;
#387 = ORIENTED_EDGE ( 'NONE', *, *, #129, .T. ) ;
#388 =( NAMED_UNIT ( * ) SI_UNIT ( $, .STERADIAN. ) SOLID_ANGLE_UNIT ( ) );
#389 = STYLED_ITEM ( 'NONE', ( #659 ), #419 ) ;
#390 = FACE_OUTER_BOUND ( 'NONE', #102, .T. ) ;
#391 = AXIS2_PLACEMENT_3D ( 'NONE', #467, #948, #860 ) ;
#392 = PRESENTATION_STYLE_ASSIGNMENT (( #968 ) ) ;
#393 = ORIENTED_EDGE ( 'NONE', *, *, #546, .T. ) ;
#394 = EDGE_CURVE ( 'NONE', #1028, #274, #861, .T. ) ;
#395 = DIRECTION ( 'NONE',  ( -1.000000000000000000, 0.000000000000000000, 0.000000000000000000 ) ) ;
#396 = CARTESIAN_POINT ( 'NONE',  ( 1.080000000000002069, -16.00000000000000000, -0.3800000000000000044 ) ) ;
#397 = PRESENTATION_LAYER_ASSIGNMENT (  '', '', ( #107 ) ) ;
#398 = VECTOR ( 'NONE', #761, 1000.000000000000000 ) ;
#399 =( NAMED_UNIT ( * ) PLANE_ANGLE_UNIT ( ) SI_UNIT ( $, .RADIAN. ) );
#400 = ORIENTED_EDGE ( 'NONE', *, *, #1061, .F. ) ;
#401 = LINE ( 'NONE', #896, #1087 ) ;
#402 = SURFACE_STYLE_FILL_AREA ( #142 ) ;
#403 = VECTOR ( 'NONE', #689, 1000.000000000000000 ) ;
#404 = ADVANCED_FACE ( 'NONE', ( #539 ), #766, .T. ) ;
#405 =( GEOMETRIC_REPRESENTATION_CONTEXT ( 3 ) GLOBAL_UNCERTAINTY_ASSIGNED_CONTEXT ( ( #1077 ) ) GLOBAL_UNIT_ASSIGNED_CONTEXT ( ( #235, #654, #1081 ) ) REPRESENTATION_CONTEXT ( 'NONE', 'WORKASPACE' ) );
#406 = LINE ( 'NONE', #144, #910 ) ;
#407 = VERTEX_POINT ( 'NONE', #804 ) ;
#408 = DIRECTION ( 'NONE',  ( -0.7057575568079531569, 0.06174578541844912005, -0.7057575568079506034 ) ) ;
#409 = DIRECTION ( 'NONE',  ( 1.000000000000000000, 0.000000000000000000, 0.000000000000000000 ) ) ;
#410 =( GEOMETRIC_REPRESENTATION_CONTEXT ( 3 ) GLOBAL_UNCERTAINTY_ASSIGNED_CONTEXT ( ( #72 ) ) GLOBAL_UNIT_ASSIGNED_CONTEXT ( ( #825, #576, #251 ) ) REPRESENTATION_CONTEXT ( 'NONE', 'WORKASPACE' ) );
#411 = VECTOR ( 'NONE', #869, 1000.000000000000000 ) ;
#412 = ADVANCED_FACE ( 'NONE', ( #986 ), #975, .F. ) ;
#413 = FILL_AREA_STYLE ('',( #1084 ) ) ;
#414 = PLANE ( 'NONE',  #442 ) ;
#415 = CARTESIAN_POINT ( 'NONE',  ( -0.1899999999999998079, -1.500000000000000888, 0.000000000000000000 ) ) ;
#416 = ORIENTED_EDGE ( 'NONE', *, *, #697, .T. ) ;
#417 = CARTESIAN_POINT ( 'NONE',  ( 1.460000000000000409, -1.276892648044953171, 0.000000000000000000 ) ) ;
#418 = ORIENTED_EDGE ( 'NONE', *, *, #453, .T. ) ;
#419 = ADVANCED_FACE ( 'NONE', ( #664 ), #317, .F. ) ;
#420 = EDGE_CURVE ( 'NONE', #277, #1049, #184, .T. ) ;
#421 = SURFACE_SIDE_STYLE ('',( #87 ) ) ;
#422 = EDGE_LOOP ( 'NONE', ( #1075, #740, #104, #978 ) ) ;
#423 = AXIS2_PLACEMENT_3D ( 'NONE', #883, #607, #465 ) ;
#424 = CARTESIAN_POINT ( 'NONE',  ( 0.1900000000000020284, -16.00000000000000000, -0.3800000000000000044 ) ) ;
#425 = SURFACE_SIDE_STYLE ('',( #76 ) ) ;
#426 = EDGE_CURVE ( 'NONE', #274, #505, #765, .T. ) ;
#427 = PRODUCT_DEFINITION_CONTEXT ( 'detailed design', #821, 'design' ) ;
#428 = COLOUR_RGB ( '',0.7529411764705882248, 0.7529411764705882248, 0.7529411764705882248 ) ;
#429 = VERTEX_POINT ( 'NONE', #350 ) ;
#430 = EDGE_CURVE ( 'NONE', #550, #16, #520, .T. ) ;
#431 = CARTESIAN_POINT ( 'NONE',  ( 2.038854958955788277, 1.481394656304104274, -0.2126600515549297021 ) ) ;
#432 = PRESENTATION_STYLE_ASSIGNMENT (( #1094 ) ) ;
#433 = LINE ( 'NONE', #355, #109 ) ;
#434 = ORIENTED_EDGE ( 'NONE', *, *, #532, .T. ) ;
#435 = CARTESIAN_POINT ( 'NONE',  ( -2.050000000000001155, -1.466754307860149709, -0.3800000000000000044 ) ) ;
#436 = DIRECTION ( 'NONE',  ( 1.000000000000000000, 0.000000000000000000, 0.000000000000000000 ) ) ;
#437 = DIRECTION ( 'NONE',  ( 0.000000000000000000, 0.9961946980917455452, -0.08715574274765836016 ) ) ;
#438 = COLOUR_RGB ( '',0.2509803921568627416, 0.2509803921568627416, 0.2509803921568627416 ) ;
#439 = ADVANCED_FACE ( 'NONE', ( #443 ), #127, .T. ) ;
#440 = EDGE_LOOP ( 'NONE', ( #633, #289, #878, #639 ) ) ;
#441 = UNCERTAINTY_MEASURE_WITH_UNIT (LENGTH_MEASURE( 1.000000000000000082E-05 ), #521, 'distance_accuracy_value', 'NONE');
#442 = AXIS2_PLACEMENT_3D ( 'NONE', #537, #286, #290 ) ;
#443 = FACE_OUTER_BOUND ( 'NONE', #899, .T. ) ;
#444 = LINE ( 'NONE', #619, #201 ) ;
#445 = DIRECTION ( 'NONE',  ( 0.9986295347545739443, 0.000000000000000000, -0.05233595624294395260 ) ) ;
#446 = EDGE_CURVE ( 'NONE', #187, #338, #265, .T. ) ;
#447 = CARTESIAN_POINT ( 'NONE',  ( -1.299999999999998268, -1.434383502355557782, 0.7500000000000000000 ) ) ;
#448 = VECTOR ( 'NONE', #51, 1000.000000000000000 ) ;
#449 =( NAMED_UNIT ( * ) PLANE_ANGLE_UNIT ( ) SI_UNIT ( $, .RADIAN. ) );
#450 = CARTESIAN_POINT ( 'NONE',  ( 1.080000000000000293, -1.500000000000000888, -3.201955921009342858E-17 ) ) ;
#451 = SURFACE_STYLE_USAGE ( .BOTH. , #457 ) ;
#452 = VECTOR ( 'NONE', #832, 1000.000000000000000 ) ;
#453 = EDGE_CURVE ( 'NONE', #429, #65, #194, .T. ) ;
#454 = CARTESIAN_POINT ( 'NONE',  ( -1.459999999999999964, -1.500000000000000888, 0.000000000000000000 ) ) ;
#455 = UNCERTAINTY_MEASURE_WITH_UNIT (LENGTH_MEASURE( 1.000000000000000082E-05 ), #799, 'distance_accuracy_value', 'NONE');
#456 = DIRECTION ( 'NONE',  ( 1.178231900717926307E-16, -1.000000000000000000, 0.000000000000000000 ) ) ;
#457 = SURFACE_SIDE_STYLE ('',( #123 ) ) ;
#458 = AXIS2_PLACEMENT_3D ( 'NONE', #810, #648, #228 ) ;
#459 = ORIENTED_EDGE ( 'NONE', *, *, #1021, .T. ) ;
#460 = FILL_AREA_STYLE_COLOUR ( '', #83 ) ;
#461 = VECTOR ( 'NONE', #640, 1000.000000000000000 ) ;
#462 = PRESENTATION_STYLE_ASSIGNMENT (( #312 ) ) ;
#463 =( NAMED_UNIT ( * ) PLANE_ANGLE_UNIT ( ) SI_UNIT ( $, .RADIAN. ) );
#464 = ORIENTED_EDGE ( 'NONE', *, *, #506, .T. ) ;
#465 = DIRECTION ( 'NONE',  ( 0.000000000000000000, -0.08715574274765836016, 0.9961946980917455452 ) ) ;
#466 = MECHANICAL_DESIGN_GEOMETRIC_PRESENTATION_REPRESENTATION (  '', ( #341 ), #653 ) ;
#467 = CARTESIAN_POINT ( 'NONE',  ( 2.049999999999998490, -1.500000000000000888, 0.000000000000000000 ) ) ;
#468 = AXIS2_PLACEMENT_3D ( 'NONE', #638, #632, #969 ) ;
#469 = FACE_OUTER_BOUND ( 'NONE', #716, .T. ) ;
#470 = CARTESIAN_POINT ( 'NONE',  ( -2.050000000000001155, 1.499999999999999112, 0.000000000000000000 ) ) ;
#471 = ORIENTED_EDGE ( 'NONE', *, *, #381, .T. ) ;
#472 = CARTESIAN_POINT ( 'NONE',  ( -2.050000000000001155, -1.500000000000000888, 0.000000000000000000 ) ) ;
#473 =( LENGTH_UNIT ( ) NAMED_UNIT ( * ) SI_UNIT ( .MILLI., .METRE. ) );
#474 = SURFACE_SIDE_STYLE ('',( #29 ) ) ;
#475 = ORIENTED_EDGE ( 'NONE', *, *, #345, .T. ) ;
#476 = COLOUR_RGB ( '',0.7529411764705882248, 0.7529411764705882248, 0.7529411764705882248 ) ;
#477 = STYLED_ITEM ( 'NONE', ( #859 ), #439 ) ;
#478 = VERTEX_POINT ( 'NONE', #776 ) ;
#479 = ADVANCED_FACE ( 'NONE', ( #390 ), #273, .F. ) ;
#480 = PRESENTATION_STYLE_ASSIGNMENT (( #493 ) ) ;
#481 = LINE ( 'NONE', #725, #448 ) ;
#482 = SURFACE_STYLE_USAGE ( .BOTH. , #898 ) ;
#483 = ORIENTED_EDGE ( 'NONE', *, *, #178, .T. ) ;
#484 =( NAMED_UNIT ( * ) SI_UNIT ( $, .STERADIAN. ) SOLID_ANGLE_UNIT ( ) );
#485 = STYLED_ITEM ( 'NONE', ( #167 ), #674 ) ;
#486 = FILL_AREA_STYLE ('',( #992 ) ) ;
#487 = MECHANICAL_DESIGN_GEOMETRIC_PRESENTATION_REPRESENTATION (  '', ( #24 ), #59 ) ;
#488 = ORIENTED_EDGE ( 'NONE', *, *, #813, .T. ) ;
#489 = PLANE ( 'NONE',  #971 ) ;
#490 = CARTESIAN_POINT ( 'NONE',  ( -1.079999999999999849, -1.276892648044953171, 0.000000000000000000 ) ) ;
#491 = PRESENTATION_STYLE_ASSIGNMENT (( #745 ) ) ;
#492 = VECTOR ( 'NONE', #803, 1000.000000000000000 ) ;
#493 = SURFACE_STYLE_USAGE ( .BOTH. , #309 ) ;
#494 = SURFACE_STYLE_FILL_AREA ( #413 ) ;
#495 = ORIENTED_EDGE ( 'NONE', *, *, #394, .F. ) ;
#496 =( GEOMETRIC_REPRESENTATION_CONTEXT ( 3 ) GLOBAL_UNCERTAINTY_ASSIGNED_CONTEXT ( ( #693 ) ) GLOBAL_UNIT_ASSIGNED_CONTEXT ( ( #596, #772, #89 ) ) REPRESENTATION_CONTEXT ( 'NONE', 'WORKASPACE' ) );
#497 =( NAMED_UNIT ( * ) PLANE_ANGLE_UNIT ( ) SI_UNIT ( $, .RADIAN. ) );
#498 = EDGE_CURVE ( 'NONE', #478, #215, #641, .T. ) ;
#499 = CARTESIAN_POINT ( 'NONE',  ( 2.010694165537717293, -1.434383502355557782, -0.7500000000000000000 ) ) ;
#500 = LINE ( 'NONE', #435, #403 ) ;
#501 =( GEOMETRIC_REPRESENTATION_CONTEXT ( 3 ) GLOBAL_UNCERTAINTY_ASSIGNED_CONTEXT ( ( #602 ) ) GLOBAL_UNIT_ASSIGNED_CONTEXT ( ( #828, #68, #743 ) ) REPRESENTATION_CONTEXT ( 'NONE', 'WORKASPACE' ) );
#502 = FILL_AREA_STYLE ('',( #132 ) ) ;
#503 = ORIENTED_EDGE ( 'NONE', *, *, #1083, .T. ) ;
#504 =( GEOMETRIC_REPRESENTATION_CONTEXT ( 3 ) GLOBAL_UNCERTAINTY_ASSIGNED_CONTEXT ( ( #379 ) ) GLOBAL_UNIT_ASSIGNED_CONTEXT ( ( #54, #719, #388 ) ) REPRESENTATION_CONTEXT ( 'NONE', 'WORKASPACE' ) );
#505 = VERTEX_POINT ( 'NONE', #353 ) ;
#506 = EDGE_CURVE ( 'NONE', #165, #407, #186, .T. ) ;
#507 = FILL_AREA_STYLE ('',( #781 ) ) ;
#508 = SURFACE_SIDE_STYLE ('',( #175 ) ) ;
#509 = ORIENTED_EDGE ( 'NONE', *, *, #532, .F. ) ;
#510 = UNCERTAINTY_MEASURE_WITH_UNIT (LENGTH_MEASURE( 1.000000000000000082E-05 ), #1020, 'distance_accuracy_value', 'NONE');
#511 = VECTOR ( 'NONE', #2, 1000.000000000000000 ) ;
#512 = FILL_AREA_STYLE_COLOUR ( '', #644 ) ;
#513 = MECHANICAL_DESIGN_GEOMETRIC_PRESENTATION_REPRESENTATION (  '', ( #757 ), #938 ) ;
#514 = EDGE_CURVE ( 'NONE', #826, #721, #703, .T. ) ;
#515 = CARTESIAN_POINT ( 'NONE',  ( 0.000000000000000000, -1.434383502355557782, 0.7500000000000000000 ) ) ;
#516 = VERTEX_POINT ( 'NONE', #523 ) ;
#517 = AXIS2_PLACEMENT_3D ( 'NONE', #261, #343, #1089 ) ;
#518 = SURFACE_STYLE_USAGE ( .BOTH. , #182 ) ;
#519 = PLANE ( 'NONE',  #331 ) ;
#520 = LINE ( 'NONE', #854, #925 ) ;
#521 =( LENGTH_UNIT ( ) NAMED_UNIT ( * ) SI_UNIT ( .MILLI., .METRE. ) );
#522 = ADVANCED_FACE ( 'NONE', ( #686 ), #214, .T. ) ;
#523 = CARTESIAN_POINT ( 'NONE',  ( 1.299999999999995826, -1.434383502355557782, 0.7500000000000000000 ) ) ;
#524 = ORIENTED_EDGE ( 'NONE', *, *, #1012, .F. ) ;
#525 = UNCERTAINTY_MEASURE_WITH_UNIT (LENGTH_MEASURE( 1.000000000000000082E-05 ), #635, 'distance_accuracy_value', 'NONE');
#526 = PRESENTATION_STYLE_ASSIGNMENT (( #518 ) ) ;
#527 = ORIENTED_EDGE ( 'NONE', *, *, #498, .T. ) ;
#528 = VECTOR ( 'NONE', #213, 1000.000000000000000 ) ;
#529 = SURFACE_STYLE_USAGE ( .BOTH. , #190 ) ;
#530 = LINE ( 'NONE', #786, #411 ) ;
#531 = EDGE_CURVE ( 'NONE', #1000, #120, #481, .T. ) ;
#532 = EDGE_CURVE ( 'NONE', #604, #478, #234, .T. ) ;
#533 = DIRECTION ( 'NONE',  ( 1.026896764360561304E-17, -0.08715574274765836016, 0.9961946980917455452 ) ) ;
#534 = ORIENTED_EDGE ( 'NONE', *, *, #806, .F. ) ;
#535 = LINE ( 'NONE', #865, #297 ) ;
#536 = PRESENTATION_LAYER_ASSIGNMENT (  '', '', ( #586 ) ) ;
#537 = CARTESIAN_POINT ( 'NONE',  ( 1.460000000000002185, -16.00000000000000000, -0.3800000000000000044 ) ) ;
#538 = COLOUR_RGB ( '',0.7529411764705882248, 0.7529411764705882248, 0.7529411764705882248 ) ;
#539 = FACE_OUTER_BOUND ( 'NONE', #364, .T. ) ;
#540 = SURFACE_STYLE_FILL_AREA ( #382 ) ;
#541 =( LENGTH_UNIT ( ) NAMED_UNIT ( * ) SI_UNIT ( .MILLI., .METRE. ) );
#542 = AXIS2_PLACEMENT_3D ( 'NONE', #871, #783, #876 ) ;
#543 = ORIENTED_EDGE ( 'NONE', *, *, #345, .F. ) ;
#544 =( NAMED_UNIT ( * ) PLANE_ANGLE_UNIT ( ) SI_UNIT ( $, .RADIAN. ) );
#545 = ORIENTED_EDGE ( 'NONE', *, *, #851, .F. ) ;
#546 = EDGE_CURVE ( 'NONE', #407, #187, #809, .T. ) ;
#547 = FILL_AREA_STYLE_COLOUR ( '', #990 ) ;
#548 =( LENGTH_UNIT ( ) NAMED_UNIT ( * ) SI_UNIT ( .MILLI., .METRE. ) );
#549 = CARTESIAN_POINT ( 'NONE',  ( -0.1899999999999998357, -1.276892648044953171, -0.3800000000000000044 ) ) ;
#550 = VERTEX_POINT ( 'NONE', #151 ) ;
#551 = PLANE ( 'NONE',  #423 ) ;
#552 = CARTESIAN_POINT ( 'NONE',  ( 1.080000000000000293, -1.466754307860149709, -0.3800000000000000044 ) ) ;
#553 = PRESENTATION_STYLE_ASSIGNMENT (( #451 ) ) ;
#554 = ORIENTED_EDGE ( 'NONE', *, *, #257, .F. ) ;
#555 = CARTESIAN_POINT ( 'NONE',  ( -1.079999999999999849, -1.276892648044953171, -0.3800000000000000044 ) ) ;
#556 = DIRECTION ( 'NONE',  ( 0.000000000000000000, 0.000000000000000000, 1.000000000000000000 ) ) ;
#557 = DIRECTION ( 'NONE',  ( 1.178231900717926307E-16, -1.000000000000000000, 0.000000000000000000 ) ) ;
#558 =( GEOMETRIC_REPRESENTATION_CONTEXT ( 3 ) GLOBAL_UNCERTAINTY_ASSIGNED_CONTEXT ( ( #324 ) ) GLOBAL_UNIT_ASSIGNED_CONTEXT ( ( #21, #370, #795 ) ) REPRESENTATION_CONTEXT ( 'NONE', 'WORKASPACE' ) );
#559 = VERTEX_POINT ( 'NONE', #224 ) ;
#560 = CARTESIAN_POINT ( 'NONE',  ( 2.049999999999998490, -1.500000000000000888, 0.000000000000000000 ) ) ;
#561 = STYLED_ITEM ( 'NONE', ( #682 ), #137 ) ;
#562 =( GEOMETRIC_REPRESENTATION_CONTEXT ( 3 ) GLOBAL_UNCERTAINTY_ASSIGNED_CONTEXT ( ( #583 ) ) GLOBAL_UNIT_ASSIGNED_CONTEXT ( ( #548, #956, #715 ) ) REPRESENTATION_CONTEXT ( 'NONE', 'WORKASPACE' ) );
#563 = LINE ( 'NONE', #218, #145 ) ;
#564 =( GEOMETRIC_REPRESENTATION_CONTEXT ( 3 ) GLOBAL_UNCERTAINTY_ASSIGNED_CONTEXT ( ( #763 ) ) GLOBAL_UNIT_ASSIGNED_CONTEXT ( ( #253, #399, #811 ) ) REPRESENTATION_CONTEXT ( 'NONE', 'WORKASPACE' ) );
#565 = MECHANICAL_DESIGN_GEOMETRIC_PRESENTATION_REPRESENTATION (  '', ( #280 ), #159 ) ;
#566 = SURFACE_STYLE_FILL_AREA ( #231 ) ;
#567 = ORIENTED_EDGE ( 'NONE', *, *, #580, .T. ) ;
#568 =( LENGTH_UNIT ( ) NAMED_UNIT ( * ) SI_UNIT ( .MILLI., .METRE. ) );
#569 = AXIS2_PLACEMENT_3D ( 'NONE', #1051, #782, #20 ) ;
#570 = SURFACE_SIDE_STYLE ('',( #494 ) ) ;
#571 = ORIENTED_EDGE ( 'NONE', *, *, #1007, .T. ) ;
#572 = LINE ( 'NONE', #242, #138 ) ;
#573 = DIRECTION ( 'NONE',  ( 0.05213734452108187423, 0.08703720429184748364, -0.9948397973419385032 ) ) ;
#574 = FILL_AREA_STYLE_COLOUR ( '', #428 ) ;
#575 = MECHANICAL_DESIGN_GEOMETRIC_PRESENTATION_REPRESENTATION (  '', ( #870 ), #405 ) ;
#576 =( NAMED_UNIT ( * ) PLANE_ANGLE_UNIT ( ) SI_UNIT ( $, .RADIAN. ) );
#577 = ORIENTED_EDGE ( 'NONE', *, *, #70, .T. ) ;
#578 = SURFACE_STYLE_FILL_AREA ( #300 ) ;
#579 = EDGE_CURVE ( 'NONE', #176, #120, #563, .T. ) ;
#580 = EDGE_CURVE ( 'NONE', #1046, #65, #742, .T. ) ;
#581 = VECTOR ( 'NONE', #205, 1000.000000000000000 ) ;
#582 = CARTESIAN_POINT ( 'NONE',  ( -0.1899999999999981148, -16.00000000000000000, 0.000000000000000000 ) ) ;
#583 = UNCERTAINTY_MEASURE_WITH_UNIT (LENGTH_MEASURE( 1.000000000000000082E-05 ), #548, 'distance_accuracy_value', 'NONE');
#584 = FILL_AREA_STYLE ('',( #1 ) ) ;
#585 = VECTOR ( 'NONE', #325, 1000.000000000000000 ) ;
#586 = STYLED_ITEM ( 'NONE', ( #690 ), #404 ) ;
#587 = VERTEX_POINT ( 'NONE', #415 ) ;
#588 = AXIS2_PLACEMENT_3D ( 'NONE', #424, #258, #12 ) ;
#589 = CARTESIAN_POINT ( 'NONE',  ( 2.540000000000000036, 0.000000000000000000, -0.3800000000000000044 ) ) ;
#590 = UNCERTAINTY_MEASURE_WITH_UNIT (LENGTH_MEASURE( 1.000000000000000082E-05 ), #43, 'distance_accuracy_value', 'NONE');
#591 = ORIENTED_EDGE ( 'NONE', *, *, #374, .T. ) ;
#592 = PRESENTATION_LAYER_ASSIGNMENT (  '', '', ( #78 ) ) ;
#593 = AXIS2_PLACEMENT_3D ( 'NONE', #728, #680, #53 ) ;
#594 = ORIENTED_EDGE ( 'NONE', *, *, #446, .F. ) ;
#595 = MECHANICAL_DESIGN_GEOMETRIC_PRESENTATION_REPRESENTATION (  '', ( #1052 ), #614 ) ;
#596 =( LENGTH_UNIT ( ) NAMED_UNIT ( * ) SI_UNIT ( .MILLI., .METRE. ) );
#597 = ORIENTED_EDGE ( 'NONE', *, *, #1007, .F. ) ;
#598 = EDGE_CURVE ( 'NONE', #277, #165, #823, .T. ) ;
#599 =( NAMED_UNIT ( * ) PLANE_ANGLE_UNIT ( ) SI_UNIT ( $, .RADIAN. ) );
#600 =( LENGTH_UNIT ( ) NAMED_UNIT ( * ) SI_UNIT ( .MILLI., .METRE. ) );
#601 = DIRECTION ( 'NONE',  ( 0.000000000000000000, 1.000000000000000000, -0.000000000000000000 ) ) ;
#602 = UNCERTAINTY_MEASURE_WITH_UNIT (LENGTH_MEASURE( 1.000000000000000082E-05 ), #828, 'distance_accuracy_value', 'NONE');
#603 = LINE ( 'NONE', #166, #839 ) ;
#604 = VERTEX_POINT ( 'NONE', #981 ) ;
#605 =( LENGTH_UNIT ( ) NAMED_UNIT ( * ) SI_UNIT ( .MILLI., .METRE. ) );
#606 = LINE ( 'NONE', #672, #1095 ) ;
#607 = DIRECTION ( 'NONE',  ( 0.000000000000000000, 0.9961946980917455452, 0.08715574274765836016 ) ) ;
#608 = FILL_AREA_STYLE ('',( #357 ) ) ;
#609 = EDGE_CURVE ( 'NONE', #16, #505, #240, .T. ) ;
#610 = CARTESIAN_POINT ( 'NONE',  ( 0.1900000000000018063, -1.500000000000000888, 0.000000000000000000 ) ) ;
#611 = FILL_AREA_STYLE ('',( #767 ) ) ;
#612 = EDGE_LOOP ( 'NONE', ( #346, #79, #475, #459, #34, #796, #613, #471, #746, #676 ) ) ;
#613 = ORIENTED_EDGE ( 'NONE', *, *, #301, .T. ) ;
#614 =( GEOMETRIC_REPRESENTATION_CONTEXT ( 3 ) GLOBAL_UNCERTAINTY_ASSIGNED_CONTEXT ( ( #200 ) ) GLOBAL_UNIT_ASSIGNED_CONTEXT ( ( #867, #785, #885 ) ) REPRESENTATION_CONTEXT ( 'NONE', 'WORKASPACE' ) );
#615 = DIRECTION ( 'NONE',  ( -1.000000000000000000, -1.178231900717926307E-16, 0.000000000000000000 ) ) ;
#616 =( GEOMETRIC_REPRESENTATION_CONTEXT ( 3 ) GLOBAL_UNCERTAINTY_ASSIGNED_CONTEXT ( ( #590 ) ) GLOBAL_UNIT_ASSIGNED_CONTEXT ( ( #43, #150, #217 ) ) REPRESENTATION_CONTEXT ( 'NONE', 'WORKASPACE' ) );
#617 =( NAMED_UNIT ( * ) PLANE_ANGLE_UNIT ( ) SI_UNIT ( $, .RADIAN. ) );
#618 = LINE ( 'NONE', #199, #47 ) ;
#619 = CARTESIAN_POINT ( 'NONE',  ( -2.050000000000001155, -1.500000000000000888, 0.000000000000000000 ) ) ;
#620 = SURFACE_SIDE_STYLE ('',( #283 ) ) ;
#621 = VECTOR ( 'NONE', #1072, 1000.000000000000000 ) ;
#622 = ORIENTED_EDGE ( 'NONE', *, *, #655, .F. ) ;
#623 = MECHANICAL_DESIGN_GEOMETRIC_PRESENTATION_REPRESENTATION (  '', ( #713 ), #380 ) ;
#624 = LINE ( 'NONE', #515, #777 ) ;
#625 = PLANE ( 'NONE',  #704 ) ;
#626 = EDGE_CURVE ( 'NONE', #712, #1043, #310, .T. ) ;
#627 = STYLED_ITEM ( 'NONE', ( #829 ), #130 ) ;
#628 = ORIENTED_EDGE ( 'NONE', *, *, #178, .F. ) ;
#629 =( NAMED_UNIT ( * ) SI_UNIT ( $, .STERADIAN. ) SOLID_ANGLE_UNIT ( ) );
#630 = DIRECTION ( 'NONE',  ( -0.9986295347545739443, 0.000000000000000000, -0.05233595624294395260 ) ) ;
#631 = CARTESIAN_POINT ( 'NONE',  ( 1.270000000000000018, 0.000000000000000000, 0.000000000000000000 ) ) ;
#632 = DIRECTION ( 'NONE',  ( -0.000000000000000000, 0.000000000000000000, -1.000000000000000000 ) ) ;
#633 = ORIENTED_EDGE ( 'NONE', *, *, #1031, .F. ) ;
#634 = DIRECTION ( 'NONE',  ( 1.178231900717926307E-16, -1.000000000000000000, 0.000000000000000000 ) ) ;
#635 =( LENGTH_UNIT ( ) NAMED_UNIT ( * ) SI_UNIT ( .MILLI., .METRE. ) );
#636 = PRESENTATION_LAYER_ASSIGNMENT (  '', '', ( #280 ) ) ;
#637 = PLANE ( 'NONE',  #681 ) ;
#638 = CARTESIAN_POINT ( 'NONE',  ( 0.000000000000000000, 0.000000000000000000, 0.000000000000000000 ) ) ;
#639 = ORIENTED_EDGE ( 'NONE', *, *, #813, .F. ) ;
#640 = DIRECTION ( 'NONE',  ( 1.178231900717926307E-16, -1.000000000000000000, 0.000000000000000000 ) ) ;
#641 = LINE ( 'NONE', #1032, #998 ) ;
#642 = PRESENTATION_LAYER_ASSIGNMENT (  '', '', ( #830 ) ) ;
#643 = ORIENTED_EDGE ( 'NONE', *, *, #833, .F. ) ;
#644 = COLOUR_RGB ( '',0.7529411764705882248, 0.7529411764705882248, 0.7529411764705882248 ) ;
#645 = APPLICATION_PROTOCOL_DEFINITION ( 'draft international standard', 'automotive_design', 1998, #963 ) ;
#646 = DIRECTION ( 'NONE',  ( -1.000000000000000000, 0.000000000000000000, 0.000000000000000000 ) ) ;
#647 = EDGE_CURVE ( 'NONE', #864, #505, #827, .T. ) ;
#648 = DIRECTION ( 'NONE',  ( -1.000000000000000000, -1.178231900717926307E-16, 0.000000000000000000 ) ) ;
#649 = ORIENTED_EDGE ( 'NONE', *, *, #220, .F. ) ;
#650 = DIRECTION ( 'NONE',  ( 1.178231900717926307E-16, -1.000000000000000000, 0.000000000000000000 ) ) ;
#651 = MECHANICAL_DESIGN_GEOMETRIC_PRESENTATION_REPRESENTATION (  '', ( #78 ), #225 ) ;
#652 = VECTOR ( 'NONE', #949, 1000.000000000000000 ) ;
#653 =( GEOMETRIC_REPRESENTATION_CONTEXT ( 3 ) GLOBAL_UNCERTAINTY_ASSIGNED_CONTEXT ( ( #961 ) ) GLOBAL_UNIT_ASSIGNED_CONTEXT ( ( #105, #779, #629 ) ) REPRESENTATION_CONTEXT ( 'NONE', 'WORKASPACE' ) );
#654 =( NAMED_UNIT ( * ) PLANE_ANGLE_UNIT ( ) SI_UNIT ( $, .RADIAN. ) );
#655 = EDGE_CURVE ( 'NONE', #1043, #16, #306, .T. ) ;
#656 = ORIENTED_EDGE ( 'NONE', *, *, #626, .F. ) ;
#657 = APPLICATION_PROTOCOL_DEFINITION ( 'draft international standard', 'automotive_design', 1998, #821 ) ;
#658 = CARTESIAN_POINT ( 'NONE',  ( -2.050000000000001155, -1.500000000000000888, 0.000000000000000000 ) ) ;
#659 = PRESENTATION_STYLE_ASSIGNMENT (( #837 ) ) ;
#660 = COLOUR_RGB ( '',0.2509803921568627416, 0.2509803921568627416, 0.2509803921568627416 ) ;
#661 = DIRECTION ( 'NONE',  ( -1.000000000000000000, 0.000000000000000000, 0.000000000000000000 ) ) ;
#662 = CARTESIAN_POINT ( 'NONE',  ( 1.080000000000002069, -16.00000000000000000, -0.3800000000000000044 ) ) ;
#663 = DIRECTION ( 'NONE',  ( 0.7057575568079531569, 0.06174578541844912005, -0.7057575568079506034 ) ) ;
#664 = FACE_OUTER_BOUND ( 'NONE', #890, .T. ) ;
#665 = DIRECTION ( 'NONE',  ( -1.000000000000000000, 0.000000000000000000, -0.000000000000000000 ) ) ;
#666 = ORIENTED_EDGE ( 'NONE', *, *, #531, .F. ) ;
#667 = SURFACE_SIDE_STYLE ('',( #333 ) ) ;
#668 = ADVANCED_FACE ( 'NONE', ( #1003 ), #62, .F. ) ;
#669 = PRESENTATION_STYLE_ASSIGNMENT (( #482 ) ) ;
#670 = VECTOR ( 'NONE', #820, 1000.000000000000000 ) ;
#671 = FILL_AREA_STYLE_COLOUR ( '', #1019 ) ;
#672 = CARTESIAN_POINT ( 'NONE',  ( 0.1900000000000005018, -1.500000000000000888, -2.291495611201575416E-17 ) ) ;
#673 = SURFACE_STYLE_USAGE ( .BOTH. , #667 ) ;
#674 = ADVANCED_FACE ( 'NONE', ( #1006 ), #921, .T. ) ;
#675 = PRESENTATION_STYLE_ASSIGNMENT (( #1088 ) ) ;
#676 = ORIENTED_EDGE ( 'NONE', *, *, #374, .F. ) ;
#677 = PRESENTATION_LAYER_ASSIGNMENT (  '', '', ( #887 ) ) ;
#678 = LINE ( 'NONE', #753, #252 ) ;
#679 = COLOUR_RGB ( '',0.7529411764705882248, 0.7529411764705882248, 0.7529411764705882248 ) ;
#680 = DIRECTION ( 'NONE',  ( -1.000000000000000000, -1.178231900717926307E-16, 0.000000000000000000 ) ) ;
#681 = AXIS2_PLACEMENT_3D ( 'NONE', #64, #1073, #323 ) ;
#682 = PRESENTATION_STYLE_ASSIGNMENT (( #179 ) ) ;
#683 = ORIENTED_EDGE ( 'NONE', *, *, #579, .T. ) ;
#684 = DIRECTION ( 'NONE',  ( 1.178231900717926307E-16, -1.000000000000000000, 0.000000000000000000 ) ) ;
#685 =( NAMED_UNIT ( * ) SI_UNIT ( $, .STERADIAN. ) SOLID_ANGLE_UNIT ( ) );
#686 = FACE_OUTER_BOUND ( 'NONE', #422, .T. ) ;
#687 = ORIENTED_EDGE ( 'NONE', *, *, #1033, .T. ) ;
#688 = FACE_OUTER_BOUND ( 'NONE', #125, .T. ) ;
#689 = DIRECTION ( 'NONE',  ( -1.000000000000000000, -0.000000000000000000, -0.000000000000000000 ) ) ;
#690 = PRESENTATION_STYLE_ASSIGNMENT (( #369 ) ) ;
#691 = DIRECTION ( 'NONE',  ( 0.000000000000000000, 0.08715574274765836016, 0.9961946980917455452 ) ) ;
#692 = ORIENTED_EDGE ( 'NONE', *, *, #531, .T. ) ;
#693 = UNCERTAINTY_MEASURE_WITH_UNIT (LENGTH_MEASURE( 1.000000000000000082E-05 ), #596, 'distance_accuracy_value', 'NONE');
#694 = DIRECTION ( 'NONE',  ( 1.178231900717926307E-16, -1.000000000000000000, 0.000000000000000000 ) ) ;
#695 = EDGE_CURVE ( 'NONE', #712, #550, #754, .T. ) ;
#696 = DIRECTION ( 'NONE',  ( 1.178231900717926307E-16, -1.000000000000000000, 0.000000000000000000 ) ) ;
#697 = EDGE_CURVE ( 'NONE', #952, #872, #500, .T. ) ;
#698 = DIRECTION ( 'NONE',  ( 1.026896764360561304E-17, -0.08715574274765836016, 0.9961946980917455452 ) ) ;
#699 = DIRECTION ( 'NONE',  ( 0.000000000000000000, -0.9961946980917455452, -0.08715574274765836016 ) ) ;
#700 = ORIENTED_EDGE ( 'NONE', *, *, #1091, .F. ) ;
#701 = CARTESIAN_POINT ( 'NONE',  ( -2.050000000000001155, -1.500000000000000888, 0.000000000000000000 ) ) ;
#702 = LINE ( 'NONE', #268, #117 ) ;
#703 = LINE ( 'NONE', #88, #511 ) ;
#704 = AXIS2_PLACEMENT_3D ( 'NONE', #631, #291, #210 ) ;
#705 = PRESENTATION_LAYER_ASSIGNMENT (  '', '', ( #389 ) ) ;
#706 = MECHANICAL_DESIGN_GEOMETRIC_PRESENTATION_REPRESENTATION (  '', ( #172 ), #564 ) ;
#707 = PRESENTATION_LAYER_ASSIGNMENT (  '', '', ( #1052 ) ) ;
#708 = LINE ( 'NONE', #35, #492 ) ;
#709 = PRESENTATION_STYLE_ASSIGNMENT (( #31 ) ) ;
#710 = UNCERTAINTY_MEASURE_WITH_UNIT (LENGTH_MEASURE( 1.000000000000000082E-05 ), #605, 'distance_accuracy_value', 'NONE');
#711 = ADVANCED_FACE ( 'NONE', ( #749 ), #759, .F. ) ;
#712 = VERTEX_POINT ( 'NONE', #82 ) ;
#713 = STYLED_ITEM ( 'NONE', ( #935 ), #479 ) ;
#714 = SURFACE_SIDE_STYLE ('',( #982 ) ) ;
#715 =( NAMED_UNIT ( * ) SI_UNIT ( $, .STERADIAN. ) SOLID_ANGLE_UNIT ( ) );
#716 = EDGE_LOOP ( 'NONE', ( #700, #284, #692, #524 ) ) ;
#717 =( GEOMETRIC_REPRESENTATION_CONTEXT ( 3 ) GLOBAL_UNCERTAINTY_ASSIGNED_CONTEXT ( ( #181 ) ) GLOBAL_UNIT_ASSIGNED_CONTEXT ( ( #367, #617, #856 ) ) REPRESENTATION_CONTEXT ( 'NONE', 'WORKASPACE' ) );
#718 = ORIENTED_EDGE ( 'NONE', *, *, #426, .T. ) ;
#719 =( NAMED_UNIT ( * ) PLANE_ANGLE_UNIT ( ) SI_UNIT ( $, .RADIAN. ) );
#720 = VECTOR ( 'NONE', #368, 1000.000000000000000 ) ;
#721 = VERTEX_POINT ( 'NONE', #940 ) ;
#722 = CARTESIAN_POINT ( 'NONE',  ( -1.919267336019662817, 1.488562373949175566, 0.1307326639803378932 ) ) ;
#723 = VECTOR ( 'NONE', #663, 1000.000000000000000 ) ;
#724 = ADVANCED_FACE ( 'NONE', ( #183 ), #519, .F. ) ;
#725 = CARTESIAN_POINT ( 'NONE',  ( -0.1899999999999981148, -16.00000000000000000, -0.3800000000000000044 ) ) ;
#726 = ADVANCED_FACE ( 'NONE', ( #792 ), #551, .T. ) ;
#727 = DIRECTION ( 'NONE',  ( -1.000000000000000000, -0.000000000000000000, -0.000000000000000000 ) ) ;
#728 = CARTESIAN_POINT ( 'NONE',  ( 1.080000000000000293, -1.276892648044953171, -0.3800000000000000044 ) ) ;
#729 = CARTESIAN_POINT ( 'NONE',  ( 0.000000000000000000, 0.000000000000000000, 0.000000000000000000 ) ) ;
#730 = SURFACE_SIDE_STYLE ('',( #402 ) ) ;
#731 = EDGE_CURVE ( 'NONE', #721, #215, #959, .T. ) ;
#732 = PLANE ( 'NONE',  #1024 ) ;
#733 = ORIENTED_EDGE ( 'NONE', *, *, #747, .T. ) ;
#734 = CARTESIAN_POINT ( 'NONE',  ( -2.050000000000001155, -1.500000000000000888, 0.000000000000000000 ) ) ;
#735 = MECHANICAL_DESIGN_GEOMETRIC_PRESENTATION_REPRESENTATION (  '', ( #477 ), #717 ) ;
#736 = CARTESIAN_POINT ( 'NONE',  ( 1.299999999999995826, 1.434383502355556006, 0.7500000000000000000 ) ) ;
#737 = VECTOR ( 'NONE', #99, 1000.000000000000000 ) ;
#738 = PRESENTATION_LAYER_ASSIGNMENT (  '', '', ( #1008 ) ) ;
#739 = EDGE_CURVE ( 'NONE', #1053, #604, #535, .T. ) ;
#740 = ORIENTED_EDGE ( 'NONE', *, *, #420, .T. ) ;
#741 = FILL_AREA_STYLE_COLOUR ( '', #1086 ) ;
#742 = LINE ( 'NONE', #321, #723 ) ;
#743 =( NAMED_UNIT ( * ) SI_UNIT ( $, .STERADIAN. ) SOLID_ANGLE_UNIT ( ) );
#744 = ORIENTED_EDGE ( 'NONE', *, *, #430, .F. ) ;
#745 = SURFACE_STYLE_USAGE ( .BOTH. , #570 ) ;
#746 = ORIENTED_EDGE ( 'NONE', *, *, #366, .F. ) ;
#747 = EDGE_CURVE ( 'NONE', #826, #478, #708, .T. ) ;
#748 = CLOSED_SHELL ( 'NONE', ( #32, #522, #974, #419, #726, #137, #439, #404, #288, #63, #130, #711, #840, #244, #412, #40, #668, #674, #18, #219, #281, #724, #164, #479, #957 ) ) ;
#749 = FACE_OUTER_BOUND ( 'NONE', #907, .T. ) ;
#750 = SURFACE_SIDE_STYLE ('',( #831 ) ) ;
#751 = VECTOR ( 'NONE', #395, 1000.000000000000000 ) ;
#752 = EDGE_LOOP ( 'NONE', ( #758, #916, #196, #922 ) ) ;
#753 = CARTESIAN_POINT ( 'NONE',  ( 1.299999999999995826, 0.000000000000000000, 0.7500000000000000000 ) ) ;
#754 = LINE ( 'NONE', #836, #888 ) ;
#755 = VECTOR ( 'NONE', #1060, 1000.000000000000000 ) ;
#756 = CARTESIAN_POINT ( 'NONE',  ( 1.460000000000002185, -16.00000000000000000, 0.000000000000000000 ) ) ;
#757 = STYLED_ITEM ( 'NONE', ( #203 ), #244 ) ;
#758 = ORIENTED_EDGE ( 'NONE', *, *, #313, .F. ) ;
#759 = PLANE ( 'NONE',  #908 ) ;
#760 = CARTESIAN_POINT ( 'NONE',  ( 0.000000000000000000, 0.000000000000000000, 0.7500000000000000000 ) ) ;
#761 = DIRECTION ( 'NONE',  ( 1.026896764360561304E-17, -0.08715574274765836016, 0.9961946980917455452 ) ) ;
#762 = ORIENTED_EDGE ( 'NONE', *, *, #430, .T. ) ;
#763 = UNCERTAINTY_MEASURE_WITH_UNIT (LENGTH_MEASURE( 1.000000000000000082E-05 ), #253, 'distance_accuracy_value', 'NONE');
#764 = SURFACE_STYLE_FILL_AREA ( #923 ) ;
#765 = LINE ( 'NONE', #17, #1068 ) ;
#766 = PLANE ( 'NONE',  #815 ) ;
#767 = FILL_AREA_STYLE_COLOUR ( '', #320 ) ;
#768 = EDGE_CURVE ( 'NONE', #587, #354, #285, .T. ) ;
#769 = ORIENTED_EDGE ( 'NONE', *, *, #335, .T. ) ;
#770 = VECTOR ( 'NONE', #696, 1000.000000000000000 ) ;
#771 = EDGE_CURVE ( 'NONE', #559, #721, #385, .T. ) ;
#772 =( NAMED_UNIT ( * ) PLANE_ANGLE_UNIT ( ) SI_UNIT ( $, .RADIAN. ) );
#773 = DIRECTION ( 'NONE',  ( 1.178231900717926307E-16, -1.000000000000000000, 0.000000000000000000 ) ) ;
#774 = LINE ( 'NONE', #279, #191 ) ;
#775 = LINE ( 'NONE', #112, #259 ) ;
#776 = CARTESIAN_POINT ( 'NONE',  ( -1.079999999999998073, -16.00000000000000000, 0.000000000000000000 ) ) ;
#777 = VECTOR ( 'NONE', #1040, 1000.000000000000000 ) ;
#778 = EDGE_LOOP ( 'NONE', ( #509, #543, #488, #11 ) ) ;
#779 =( NAMED_UNIT ( * ) PLANE_ANGLE_UNIT ( ) SI_UNIT ( $, .RADIAN. ) );
#780 = CARTESIAN_POINT ( 'NONE',  ( -0.1899999999999981148, -16.00000000000000000, -0.3800000000000000044 ) ) ;
#781 = FILL_AREA_STYLE_COLOUR ( '', #1011 ) ;
#782 = DIRECTION ( 'NONE',  ( -0.000000000000000000, 0.000000000000000000, -1.000000000000000000 ) ) ;
#783 = DIRECTION ( 'NONE',  ( 0.000000000000000000, -0.9961946980917455452, 0.08715574274765836016 ) ) ;
#784 =( LENGTH_UNIT ( ) NAMED_UNIT ( * ) SI_UNIT ( .MILLI., .METRE. ) );
#785 =( NAMED_UNIT ( * ) PLANE_ANGLE_UNIT ( ) SI_UNIT ( $, .RADIAN. ) );
#786 = CARTESIAN_POINT ( 'NONE',  ( 2.049999999999998490, -1.500000000000000888, 0.000000000000000000 ) ) ;
#787 = MECHANICAL_DESIGN_GEOMETRIC_PRESENTATION_REPRESENTATION (  '', ( #1085 ), #562 ) ;
#788 = AXIS2_PLACEMENT_3D ( 'NONE', #760, #344, #933 ) ;
#789 = PLANE ( 'NONE',  #542 ) ;
#790 = ORIENTED_EDGE ( 'NONE', *, *, #747, .F. ) ;
#791 = VECTOR ( 'NONE', #408, 1000.000000000000000 ) ;
#792 = FACE_OUTER_BOUND ( 'NONE', #1010, .T. ) ;
#793 = FILL_AREA_STYLE ('',( #460 ) ) ;
#794 = EDGE_CURVE ( 'NONE', #429, #187, #946, .T. ) ;
#795 =( NAMED_UNIT ( * ) SI_UNIT ( $, .STERADIAN. ) SOLID_ANGLE_UNIT ( ) );
#796 = ORIENTED_EDGE ( 'NONE', *, *, #900, .T. ) ;
#797 = DIRECTION ( 'NONE',  ( 0.000000000000000000, 0.000000000000000000, 1.000000000000000000 ) ) ;
#798 = MECHANICAL_DESIGN_GEOMETRIC_PRESENTATION_REPRESENTATION (  '', ( #830 ), #1093 ) ;
#799 =( LENGTH_UNIT ( ) NAMED_UNIT ( * ) SI_UNIT ( .MILLI., .METRE. ) );
#800 =( LENGTH_UNIT ( ) NAMED_UNIT ( * ) SI_UNIT ( .MILLI., .METRE. ) );
#801 = AXIS2_PLACEMENT_3D ( 'NONE', #318, #58, #665 ) ;
#802 = ORIENTED_EDGE ( 'NONE', *, *, #1012, .T. ) ;
#803 = DIRECTION ( 'NONE',  ( 0.000000000000000000, 0.000000000000000000, 1.000000000000000000 ) ) ;
#804 = CARTESIAN_POINT ( 'NONE',  ( -2.010694165537719957, -1.434383502355557782, -0.7500000000000000000 ) ) ;
#805 = SURFACE_STYLE_USAGE ( .BOTH. , #474 ) ;
#806 = EDGE_CURVE ( 'NONE', #1049, #970, #1001, .T. ) ;
#807 = ORIENTED_EDGE ( 'NONE', *, *, #1033, .F. ) ;
#808 =( LENGTH_UNIT ( ) NAMED_UNIT ( * ) SI_UNIT ( .MILLI., .METRE. ) );
#809 = LINE ( 'NONE', #985, #1090 ) ;
#810 = CARTESIAN_POINT ( 'NONE',  ( -1.459999999999999964, -1.276892648044953171, -0.3800000000000000044 ) ) ;
#811 =( NAMED_UNIT ( * ) SI_UNIT ( $, .STERADIAN. ) SOLID_ANGLE_UNIT ( ) );
#812 = ORIENTED_EDGE ( 'NONE', *, *, #695, .T. ) ;
#813 = EDGE_CURVE ( 'NONE', #970, #215, #42, .T. ) ;
#814 =( NAMED_UNIT ( * ) SI_UNIT ( $, .STERADIAN. ) SOLID_ANGLE_UNIT ( ) );
#815 = AXIS2_PLACEMENT_3D ( 'NONE', #880, #630, #874 ) ;
#816 = FACE_OUTER_BOUND ( 'NONE', #848, .T. ) ;
#817 = ORIENTED_EDGE ( 'NONE', *, *, #1021, .F. ) ;
#818 = STYLED_ITEM ( 'NONE', ( #340 ), #711 ) ;
#819 = MECHANICAL_DESIGN_GEOMETRIC_PRESENTATION_REPRESENTATION (  '', ( #107 ), #1018 ) ;
#820 = DIRECTION ( 'NONE',  ( 1.000000000000000000, 0.000000000000000000, 0.000000000000000000 ) ) ;
#821 = APPLICATION_CONTEXT ( 'automotive_design' ) ;
#822 = CARTESIAN_POINT ( 'NONE',  ( -1.079999999999999849, -1.466754307860149709, -0.3800000000000000044 ) ) ;
#823 = LINE ( 'NONE', #913, #621 ) ;
#824 = EDGE_CURVE ( 'NONE', #1053, #826, #141, .T. ) ;
#825 =( LENGTH_UNIT ( ) NAMED_UNIT ( * ) SI_UNIT ( .MILLI., .METRE. ) );
#826 = VERTEX_POINT ( 'NONE', #147 ) ;
#827 = LINE ( 'NONE', #396, #755 ) ;
#828 =( LENGTH_UNIT ( ) NAMED_UNIT ( * ) SI_UNIT ( .MILLI., .METRE. ) );
#829 = PRESENTATION_STYLE_ASSIGNMENT (( #1009 ) ) ;
#830 = STYLED_ITEM ( 'NONE', ( #462 ), #412 ) ;
#831 = SURFACE_STYLE_FILL_AREA ( #502 ) ;
#832 = DIRECTION ( 'NONE',  ( -0.7057575568079531569, -0.06174578541844912005, -0.7057575568079506034 ) ) ;
#833 = EDGE_CURVE ( 'NONE', #221, #277, #61, .T. ) ;
#834 = MECHANICAL_DESIGN_GEOMETRIC_PRESENTATION_REPRESENTATION (  '', ( #887 ), #496 ) ;
#835 = UNCERTAINTY_MEASURE_WITH_UNIT (LENGTH_MEASURE( 1.000000000000000082E-05 ), #800, 'distance_accuracy_value', 'NONE');
#836 = CARTESIAN_POINT ( 'NONE',  ( 1.460000000000000409, -1.276892648044953171, -0.3800000000000000044 ) ) ;
#837 = SURFACE_STYLE_USAGE ( .BOTH. , #250 ) ;
#838 = DIRECTION ( 'NONE',  ( -0.05233595624294395260, 0.000000000000000000, -0.9986295347545739443 ) ) ;
#839 = VECTOR ( 'NONE', #1097, 1000.000000000000000 ) ;
#840 = ADVANCED_FACE ( 'NONE', ( #222 ), #489, .T. ) ;
#841 = STYLED_ITEM ( 'NONE', ( #480 ), #840 ) ;
#842 = ORIENTED_EDGE ( 'NONE', *, *, #655, .T. ) ;
#843 = ORIENTED_EDGE ( 'NONE', *, *, #174, .F. ) ;
#844 = FACE_OUTER_BOUND ( 'NONE', #943, .T. ) ;
#845 = VERTEX_POINT ( 'NONE', #995 ) ;
#846 = PRESENTATION_LAYER_ASSIGNMENT (  '', '', ( #757 ) ) ;
#847 = DIRECTION ( 'NONE',  ( -0.000000000000000000, 0.000000000000000000, -1.000000000000000000 ) ) ;
#848 = EDGE_LOOP ( 'NONE', ( #266, #30, #155, #113 ) ) ;
#849 = VECTOR ( 'NONE', #881, 1000.000000000000000 ) ;
#850 = FILL_AREA_STYLE ('',( #512 ) ) ;
#851 = EDGE_CURVE ( 'NONE', #845, #1000, #233, .T. ) ;
#852 = UNCERTAINTY_MEASURE_WITH_UNIT (LENGTH_MEASURE( 1.000000000000000082E-05 ), #541, 'distance_accuracy_value', 'NONE');
#853 = FILL_AREA_STYLE_COLOUR ( '', #679 ) ;
#854 = CARTESIAN_POINT ( 'NONE',  ( 1.460000000000002185, -16.00000000000000000, -0.3800000000000000044 ) ) ;
#855 = CARTESIAN_POINT ( 'NONE',  ( 2.049999999999998490, -1.500000000000000888, 0.000000000000000000 ) ) ;
#856 =( NAMED_UNIT ( * ) SI_UNIT ( $, .STERADIAN. ) SOLID_ANGLE_UNIT ( ) );
#857 = VECTOR ( 'NONE', #797, 1000.000000000000000 ) ;
#858 = ORIENTED_EDGE ( 'NONE', *, *, #768, .F. ) ;
#859 = PRESENTATION_STYLE_ASSIGNMENT (( #529 ) ) ;
#860 = DIRECTION ( 'NONE',  ( 0.7071067811865489050, 0.000000000000000000, -0.7071067811865462405 ) ) ;
#861 = LINE ( 'NONE', #450, #398 ) ;
#862 =( NAMED_UNIT ( * ) PLANE_ANGLE_UNIT ( ) SI_UNIT ( $, .RADIAN. ) );
#863 = ORIENTED_EDGE ( 'NONE', *, *, #237, .F. ) ;
#864 = VERTEX_POINT ( 'NONE', #662 ) ;
#865 = CARTESIAN_POINT ( 'NONE',  ( -1.079999999999999849, -1.500000000000000888, -9.922994387792541049E-18 ) ) ;
#866 = DIRECTION ( 'NONE',  ( 0.000000000000000000, -1.000000000000000000, 0.000000000000000000 ) ) ;
#867 =( LENGTH_UNIT ( ) NAMED_UNIT ( * ) SI_UNIT ( .MILLI., .METRE. ) );
#868 = UNCERTAINTY_MEASURE_WITH_UNIT (LENGTH_MEASURE( 1.000000000000000082E-05 ), #1025, 'distance_accuracy_value', 'NONE');
#869 = DIRECTION ( 'NONE',  ( 0.7057575568079531569, -0.06174578541844912005, -0.7057575568079506034 ) ) ;
#870 = STYLED_ITEM ( 'NONE', ( #491 ), #63 ) ;
#871 = CARTESIAN_POINT ( 'NONE',  ( -2.050000000000001155, -1.500000000000000888, 0.000000000000000000 ) ) ;
#872 = VERTEX_POINT ( 'NONE', #238 ) ;
#873 = FACE_OUTER_BOUND ( 'NONE', #1014, .T. ) ;
#874 = DIRECTION ( 'NONE',  ( -0.05233595624294395260, 0.000000000000000000, 0.9986295347545739443 ) ) ;
#875 = COLOUR_RGB ( '',0.2509803921568627416, 0.2509803921568627416, 0.2509803921568627416 ) ;
#876 = DIRECTION ( 'NONE',  ( 0.000000000000000000, -0.08715574274765836016, -0.9961946980917455452 ) ) ;
#877 = VECTOR ( 'NONE', #436, 1000.000000000000000 ) ;
#878 = ORIENTED_EDGE ( 'NONE', *, *, #731, .T. ) ;
#879 = SURFACE_STYLE_FILL_AREA ( #793 ) ;
#880 = CARTESIAN_POINT ( 'NONE',  ( -2.050000000000001155, -1.500000000000000888, 0.000000000000000000 ) ) ;
#881 = DIRECTION ( 'NONE',  ( 1.178231900717926307E-16, -1.000000000000000000, 0.000000000000000000 ) ) ;
#882 = ORIENTED_EDGE ( 'NONE', *, *, #647, .T. ) ;
#883 = CARTESIAN_POINT ( 'NONE',  ( -2.050000000000001155, 1.499999999999999112, 0.000000000000000000 ) ) ;
#884 =( GEOMETRIC_REPRESENTATION_CONTEXT ( 3 ) GLOBAL_UNCERTAINTY_ASSIGNED_CONTEXT ( ( #347 ) ) GLOBAL_UNIT_ASSIGNED_CONTEXT ( ( #600, #934, #1065 ) ) REPRESENTATION_CONTEXT ( 'NONE', 'WORKASPACE' ) );
#885 =( NAMED_UNIT ( * ) SI_UNIT ( $, .STERADIAN. ) SOLID_ANGLE_UNIT ( ) );
#886 = SURFACE_STYLE_FILL_AREA ( #611 ) ;
#887 = STYLED_ITEM ( 'NONE', ( #526 ), #219 ) ;
#888 = VECTOR ( 'NONE', #684, 1000.000000000000000 ) ;
#889 = MECHANICAL_DESIGN_GEOMETRIC_PRESENTATION_REPRESENTATION (  '', ( #128 ), #558 ) ;
#890 = EDGE_LOOP ( 'NONE', ( #966, #571, #236, #591 ) ) ;
#891 = DIRECTION ( 'NONE',  ( -1.000000000000000000, 0.000000000000000000, 0.000000000000000000 ) ) ;
#892 = COLOUR_RGB ( '',0.2509803921568627416, 0.2509803921568627416, 0.2509803921568627416 ) ;
#893 = ADVANCED_BREP_SHAPE_REPRESENTATION ( 'AH3323A-P-B', ( #997, #140 ), #616 ) ;
#894 = EDGE_LOOP ( 'NONE', ( #687, #5, #133, #863, #416, #292, #817, #299, #48, #85, #534, #503, #393, #931, #173, #656 ) ) ;
#895 = PRESENTATION_LAYER_ASSIGNMENT (  '', '', ( #841 ) ) ;
#896 = CARTESIAN_POINT ( 'NONE',  ( -0.1899999999999998357, -1.500000000000000888, -1.902759748587022163E-17 ) ) ;
#897 = CARTESIAN_POINT ( 'NONE',  ( 1.460000000000000409, -1.500000000000000888, -3.590691783623895802E-17 ) ) ;
#898 = SURFACE_SIDE_STYLE ('',( #566 ) ) ;
#899 = EDGE_LOOP ( 'NONE', ( #1058, #207, #387, #1082 ) ) ;
#900 = EDGE_CURVE ( 'NONE', #354, #274, #572, .T. ) ;
#901 = DIRECTION ( 'NONE',  ( -1.000000000000000000, 0.000000000000000000, 0.000000000000000000 ) ) ;
#902 = VECTOR ( 'NONE', #557, 1000.000000000000000 ) ;
#903 =( NAMED_UNIT ( * ) PLANE_ANGLE_UNIT ( ) SI_UNIT ( $, .RADIAN. ) );
#904 = VECTOR ( 'NONE', #44, 1000.000000000000000 ) ;
#905 = PRODUCT ( 'AH3323A-P-B', 'AH3323A-P-B', '', ( #239 ) ) ;
#906 = LINE ( 'NONE', #308, #75 ) ;
#907 = EDGE_LOOP ( 'NONE', ( #1063, #994, #434, #790 ) ) ;
#908 = AXIS2_PLACEMENT_3D ( 'NONE', #932, #91, #773 ) ;
#909 = DIRECTION ( 'NONE',  ( 1.000000000000000000, 0.000000000000000000, 0.000000000000000000 ) ) ;
#910 = VECTOR ( 'NONE', #727, 1000.000000000000000 ) ;
#911 = SURFACE_SIDE_STYLE ('',( #578 ) ) ;
#912 = PRODUCT_DEFINITION_SHAPE ( 'NONE', 'NONE',  #1074 ) ;
#913 = CARTESIAN_POINT ( 'NONE',  ( -2.036386333881053723, 1.477273575207176837, -0.2597642240367313282 ) ) ;
#914 = VECTOR ( 'NONE', #650, 1000.000000000000000 ) ;
#915 = FACE_OUTER_BOUND ( 'NONE', #440, .T. ) ;
#916 = ORIENTED_EDGE ( 'NONE', *, *, #237, .T. ) ;
#917 =( NAMED_UNIT ( * ) PLANE_ANGLE_UNIT ( ) SI_UNIT ( $, .RADIAN. ) );
#918 = SURFACE_SIDE_STYLE ('',( #249 ) ) ;
#919 = ORIENTED_EDGE ( 'NONE', *, *, #1061, .T. ) ;
#920 = DIRECTION ( 'NONE',  ( -1.000000000000000000, 0.000000000000000000, 0.000000000000000000 ) ) ;
#921 = PLANE ( 'NONE',  #517 ) ;
#922 = ORIENTED_EDGE ( 'NONE', *, *, #335, .F. ) ;
#923 = FILL_AREA_STYLE ('',( #939 ) ) ;
#924 = VECTOR ( 'NONE', #4, 1000.000000000000000 ) ;
#925 = VECTOR ( 'NONE', #97, 1000.000000000000000 ) ;
#926 = PRESENTATION_LAYER_ASSIGNMENT (  '', '', ( #172 ) ) ;
#927 = PLANE ( 'NONE',  #28 ) ;
#928 = PRESENTATION_LAYER_ASSIGNMENT (  '', '', ( #230 ) ) ;
#929 =( NAMED_UNIT ( * ) SI_UNIT ( $, .STERADIAN. ) SOLID_ANGLE_UNIT ( ) );
#930 = UNCERTAINTY_MEASURE_WITH_UNIT (LENGTH_MEASURE( 1.000000000000000082E-05 ), #360, 'distance_accuracy_value', 'NONE');
#931 = ORIENTED_EDGE ( 'NONE', *, *, #794, .F. ) ;
#932 = CARTESIAN_POINT ( 'NONE',  ( -1.079999999999999849, -1.276892648044953171, -0.3800000000000000044 ) ) ;
#933 = DIRECTION ( 'NONE',  ( -1.000000000000000000, 0.000000000000000000, -0.000000000000000000 ) ) ;
#934 =( NAMED_UNIT ( * ) PLANE_ANGLE_UNIT ( ) SI_UNIT ( $, .RADIAN. ) );
#935 = PRESENTATION_STYLE_ASSIGNMENT (( #10 ) ) ;
#936 = COLOUR_RGB ( '',0.7529411764705882248, 0.7529411764705882248, 0.7529411764705882248 ) ;
#937 = ORIENTED_EDGE ( 'NONE', *, *, #598, .T. ) ;
#938 =( GEOMETRIC_REPRESENTATION_CONTEXT ( 3 ) GLOBAL_UNCERTAINTY_ASSIGNED_CONTEXT ( ( #852 ) ) GLOBAL_UNIT_ASSIGNED_CONTEXT ( ( #541, #463, #1048 ) ) REPRESENTATION_CONTEXT ( 'NONE', 'WORKASPACE' ) );
#939 = FILL_AREA_STYLE_COLOUR ( '', #538 ) ;
#940 = CARTESIAN_POINT ( 'NONE',  ( -1.459999999999998188, -16.00000000000000000, -0.3800000000000000044 ) ) ;
#941 = DIRECTION ( 'NONE',  ( 0.000000000000000000, 0.08715574274765836016, -0.9961946980917455452 ) ) ;
#942 = DIRECTION ( 'NONE',  ( -1.000000000000000000, 0.000000000000000000, 0.000000000000000000 ) ) ;
#943 = EDGE_LOOP ( 'NONE', ( #807, #812, #919, #628 ) ) ;
#944 = UNCERTAINTY_MEASURE_WITH_UNIT (LENGTH_MEASURE( 1.000000000000000082E-05 ), #473, 'distance_accuracy_value', 'NONE');
#945 = EDGE_LOOP ( 'NONE', ( #495, #483, #882, #204 ) ) ;
#946 = LINE ( 'NONE', #560, #8 ) ;
#947 = SURFACE_STYLE_FILL_AREA ( #608 ) ;
#948 = DIRECTION ( 'NONE',  ( 0.7071067811865462405, 0.000000000000000000, 0.7071067811865489050 ) ) ;
#949 = DIRECTION ( 'NONE',  ( 1.000000000000000000, 0.000000000000000000, 0.000000000000000000 ) ) ;
#950 = CARTESIAN_POINT ( 'NONE',  ( 2.010694165537717293, 0.000000000000000000, -0.7500000000000000000 ) ) ;
#951 = VECTOR ( 'NONE', #901, 1000.000000000000000 ) ;
#952 = VERTEX_POINT ( 'NONE', #67 ) ;
#953 = DIRECTION ( 'NONE',  ( -1.000000000000000000, -0.000000000000000000, -0.000000000000000000 ) ) ;
#954 =( NAMED_UNIT ( * ) PLANE_ANGLE_UNIT ( ) SI_UNIT ( $, .RADIAN. ) );
#955 = VECTOR ( 'NONE', #243, 1000.000000000000000 ) ;
#956 =( NAMED_UNIT ( * ) PLANE_ANGLE_UNIT ( ) SI_UNIT ( $, .RADIAN. ) );
#957 = ADVANCED_FACE ( 'NONE', ( #305 ), #414, .F. ) ;
#958 = SURFACE_STYLE_USAGE ( .BOTH. , #620 ) ;
#959 = LINE ( 'NONE', #126, #857 ) ;
#960 = SURFACE_SIDE_STYLE ('',( #879 ) ) ;
#961 = UNCERTAINTY_MEASURE_WITH_UNIT (LENGTH_MEASURE( 1.000000000000000082E-05 ), #105, 'distance_accuracy_value', 'NONE');
#962 = LINE ( 'NONE', #431, #737 ) ;
#963 = APPLICATION_CONTEXT ( 'automotive_design' ) ;
#964 = MECHANICAL_DESIGN_GEOMETRIC_PRESENTATION_REPRESENTATION (  '', ( #485 ), #153 ) ;
#965 = PRESENTATION_LAYER_ASSIGNMENT (  '', '', ( #627 ) ) ;
#966 = ORIENTED_EDGE ( 'NONE', *, *, #202, .T. ) ;
#967 =( NAMED_UNIT ( * ) PLANE_ANGLE_UNIT ( ) SI_UNIT ( $, .RADIAN. ) );
#968 = SURFACE_STYLE_USAGE ( .BOTH. , #386 ) ;
#969 = DIRECTION ( 'NONE',  ( -1.000000000000000000, 0.000000000000000000, 0.000000000000000000 ) ) ;
#970 = VERTEX_POINT ( 'NONE', #454 ) ;
#971 = AXIS2_PLACEMENT_3D ( 'NONE', #979, #216, #891 ) ;
#972 = SURFACE_STYLE_USAGE ( .BOTH. , #918 ) ;
#973 = LINE ( 'NONE', #701, #528 ) ;
#974 = ADVANCED_FACE ( 'NONE', ( #873 ), #122, .T. ) ;
#975 = PLANE ( 'NONE',  #319 ) ;
#976 = FILL_AREA_STYLE_COLOUR ( '', #1047 ) ;
#977 = PLANE ( 'NONE',  #593 ) ;
#978 = ORIENTED_EDGE ( 'NONE', *, *, #195, .F. ) ;
#979 = CARTESIAN_POINT ( 'NONE',  ( 0.000000000000000000, 0.000000000000000000, -0.3800000000000000044 ) ) ;
#980 = LINE ( 'NONE', #135, #751 ) ;
#981 = CARTESIAN_POINT ( 'NONE',  ( -1.079999999999998073, -1.500000000000000888, 0.000000000000000000 ) ) ;
#982 = SURFACE_STYLE_FILL_AREA ( #143 ) ;
#983 = EDGE_LOOP ( 'NONE', ( #22, #189, #842, #744 ) ) ;
#984 = CARTESIAN_POINT ( 'NONE',  ( 0.1900000000000020284, -16.00000000000000000, -0.3800000000000000044 ) ) ;
#985 = CARTESIAN_POINT ( 'NONE',  ( 0.000000000000000000, -1.434383502355557782, -0.7500000000000000000 ) ) ;
#986 = FACE_OUTER_BOUND ( 'NONE', #1005, .T. ) ;
#987 = PRESENTATION_LAYER_ASSIGNMENT (  '', '', ( #561 ) ) ;
#988 = MECHANICAL_DESIGN_GEOMETRIC_PRESENTATION_REPRESENTATION (  '', ( #1070 ), #81 ) ;
#989 = FILL_AREA_STYLE ('',( #156 ) ) ;
#990 = COLOUR_RGB ( '',0.2509803921568627416, 0.2509803921568627416, 0.2509803921568627416 ) ;
#991 = PRESENTATION_STYLE_ASSIGNMENT (( #1064 ) ) ;
#992 = FILL_AREA_STYLE_COLOUR ( '', #438 ) ;
#993 = CARTESIAN_POINT ( 'NONE',  ( 2.049999999999998490, 1.499999999999999112, 0.000000000000000000 ) ) ;
#994 = ORIENTED_EDGE ( 'NONE', *, *, #739, .T. ) ;
#995 = CARTESIAN_POINT ( 'NONE',  ( 0.1900000000000020284, -16.00000000000000000, -0.3800000000000000044 ) ) ;
#996 = DIRECTION ( 'NONE',  ( 0.7071067811865489050, 0.000000000000000000, 0.7071067811865462405 ) ) ;
#997 = MANIFOLD_SOLID_BREP ( 'LPattern1', #748 ) ;
#998 = VECTOR ( 'NONE', #942, 1000.000000000000000 ) ;
#999 = FILL_AREA_STYLE ('',( #671 ) ) ;
#1000 = VERTEX_POINT ( 'NONE', #780 ) ;
#1001 = LINE ( 'NONE', #734, #670 ) ;
#1002 = PRESENTATION_LAYER_ASSIGNMENT (  '', '', ( #128 ) ) ;
#1003 = FACE_OUTER_BOUND ( 'NONE', #752, .T. ) ;
#1004 = CARTESIAN_POINT ( 'NONE',  ( -2.050000000000001155, -1.500000000000000888, 0.000000000000000000 ) ) ;
#1005 = EDGE_LOOP ( 'NONE', ( #527, #304, #60, #733 ) ) ;
#1006 = FACE_OUTER_BOUND ( 'NONE', #3, .T. ) ;
#1007 = EDGE_CURVE ( 'NONE', #1046, #221, #1039, .T. ) ;
#1008 = STYLED_ITEM ( 'NONE', ( #25 ), #997 ) ;
#1009 = SURFACE_STYLE_USAGE ( .BOTH. , #152 ) ;
#1010 = EDGE_LOOP ( 'NONE', ( #567, #577, #643, #597 ) ) ;
#1011 = COLOUR_RGB ( '',0.2509803921568627416, 0.2509803921568627416, 0.2509803921568627416 ) ;
#1012 = EDGE_CURVE ( 'NONE', #587, #120, #115, .T. ) ;
#1013 = COLOUR_RGB ( '',0.7529411764705882248, 0.7529411764705882248, 0.7529411764705882248 ) ;
#1014 = EDGE_LOOP ( 'NONE', ( #90, #418, #254, #212 ) ) ;
#1015 = CARTESIAN_POINT ( 'NONE',  ( 0.1900000000000020284, -16.00000000000000000, 0.000000000000000000 ) ) ;
#1016 = AXIS2_PLACEMENT_3D ( 'NONE', #177, #161, #1017 ) ;
#1017 = DIRECTION ( 'NONE',  ( 1.178231900717926307E-16, -1.000000000000000000, 0.000000000000000000 ) ) ;
#1018 =( GEOMETRIC_REPRESENTATION_CONTEXT ( 3 ) GLOBAL_UNCERTAINTY_ASSIGNED_CONTEXT ( ( #363 ) ) GLOBAL_UNIT_ASSIGNED_CONTEXT ( ( #568, #903, #484 ) ) REPRESENTATION_CONTEXT ( 'NONE', 'WORKASPACE' ) );
#1019 = COLOUR_RGB ( '',0.7529411764705882248, 0.7529411764705882248, 0.7529411764705882248 ) ;
#1020 =( LENGTH_UNIT ( ) NAMED_UNIT ( * ) SI_UNIT ( .MILLI., .METRE. ) );
#1021 = EDGE_CURVE ( 'NONE', #604, #587, #973, .T. ) ;
#1022 = FACE_OUTER_BOUND ( 'NONE', #1069, .T. ) ;
#1023 = ORIENTED_EDGE ( 'NONE', *, *, #506, .F. ) ;
#1024 = AXIS2_PLACEMENT_3D ( 'NONE', #855, #445, #838 ) ;
#1025 =( LENGTH_UNIT ( ) NAMED_UNIT ( * ) SI_UNIT ( .MILLI., .METRE. ) );
#1026 = CARTESIAN_POINT ( 'NONE',  ( 2.010694165537717293, 1.434383502355556006, -0.7500000000000000000 ) ) ;
#1027 = COLOUR_RGB ( '',0.2509803921568627416, 0.2509803921568627416, 0.2509803921568627416 ) ;
#1028 = VERTEX_POINT ( 'NONE', #552 ) ;
#1029 = UNCERTAINTY_MEASURE_WITH_UNIT (LENGTH_MEASURE( 1.000000000000000082E-05 ), #136, 'distance_accuracy_value', 'NONE');
#1030 = CARTESIAN_POINT ( 'NONE',  ( -2.050000000000001155, -1.466754307860149709, -0.3800000000000000044 ) ) ;
#1031 = EDGE_CURVE ( 'NONE', #559, #970, #774, .T. ) ;
#1032 = CARTESIAN_POINT ( 'NONE',  ( -1.079999999999998073, -16.00000000000000000, 0.000000000000000000 ) ) ;
#1033 = EDGE_CURVE ( 'NONE', #712, #1028, #618, .T. ) ;
#1034 = CARTESIAN_POINT ( 'NONE',  ( 1.460000000000002185, -1.500000000000000888, 0.000000000000000000 ) ) ;
#1035 = CARTESIAN_POINT ( 'NONE',  ( -2.050000000000001155, 1.499999999999999112, 0.000000000000000000 ) ) ;
#1036 = ORIENTED_EDGE ( 'NONE', *, *, #609, .T. ) ;
#1037 = SURFACE_STYLE_FILL_AREA ( #121 ) ;
#1038 = COLOUR_RGB ( '',0.7529411764705882248, 0.7529411764705882248, 0.7529411764705882248 ) ;
#1039 = LINE ( 'NONE', #19, #720 ) ;
#1040 = DIRECTION ( 'NONE',  ( 1.000000000000000000, -0.000000000000000000, -0.000000000000000000 ) ) ;
#1041 = MECHANICAL_DESIGN_GEOMETRIC_PRESENTATION_REPRESENTATION (  '', ( #230 ), #296 ) ;
#1042 = PRODUCT_DEFINITION_FORMATION_WITH_SPECIFIED_SOURCE ( 'ANY', '', #905, .NOT_KNOWN. ) ;
#1043 = VERTEX_POINT ( 'NONE', #1034 ) ;
#1044 =( GEOMETRIC_REPRESENTATION_CONTEXT ( 3 ) GLOBAL_UNCERTAINTY_ASSIGNED_CONTEXT ( ( #525 ) ) GLOBAL_UNIT_ASSIGNED_CONTEXT ( ( #635, #316, #814 ) ) REPRESENTATION_CONTEXT ( 'NONE', 'WORKASPACE' ) );
#1045 = VECTOR ( 'NONE', #180, 1000.000000000000000 ) ;
#1046 = VERTEX_POINT ( 'NONE', #736 ) ;
#1047 = COLOUR_RGB ( '',0.7529411764705882248, 0.7529411764705882248, 0.7529411764705882248 ) ;
#1048 =( NAMED_UNIT ( * ) SI_UNIT ( $, .STERADIAN. ) SOLID_ANGLE_UNIT ( ) );
#1049 = VERTEX_POINT ( 'NONE', #50 ) ;
#1050 = CARTESIAN_POINT ( 'NONE',  ( 1.460000000000000409, -1.276892648044953171, -0.3800000000000000044 ) ) ;
#1051 = CARTESIAN_POINT ( 'NONE',  ( 2.540000000000000036, 0.000000000000000000, 0.000000000000000000 ) ) ;
#1052 = STYLED_ITEM ( 'NONE', ( #709 ), #974 ) ;
#1053 = VERTEX_POINT ( 'NONE', #822 ) ;
#1054 = SURFACE_STYLE_USAGE ( .BOTH. , #911 ) ;
#1055 = LINE ( 'NONE', #223, #193 ) ;
#1056 = CARTESIAN_POINT ( 'NONE',  ( -2.010694165537719957, 0.000000000000000000, -0.7500000000000000000 ) ) ;
#1057 = VECTOR ( 'NONE', #157, 1000.000000000000000 ) ;
#1058 = ORIENTED_EDGE ( 'NONE', *, *, #70, .F. ) ;
#1059 = SHAPE_DEFINITION_REPRESENTATION ( #912, #893 ) ;
#1060 = DIRECTION ( 'NONE',  ( 0.000000000000000000, 0.000000000000000000, 1.000000000000000000 ) ) ;
#1061 = EDGE_CURVE ( 'NONE', #550, #864, #980, .T. ) ;
#1062 = FILL_AREA_STYLE_COLOUR ( '', #66 ) ;
#1063 = ORIENTED_EDGE ( 'NONE', *, *, #824, .F. ) ;
#1064 = SURFACE_STYLE_USAGE ( .BOTH. , #730 ) ;
#1065 =( NAMED_UNIT ( * ) SI_UNIT ( $, .STERADIAN. ) SOLID_ANGLE_UNIT ( ) );
#1066 =( GEOMETRIC_REPRESENTATION_CONTEXT ( 3 ) GLOBAL_UNCERTAINTY_ASSIGNED_CONTEXT ( ( #930 ) ) GLOBAL_UNIT_ASSIGNED_CONTEXT ( ( #360, #497, #929 ) ) REPRESENTATION_CONTEXT ( 'NONE', 'WORKASPACE' ) );
#1067 = FILL_AREA_STYLE_COLOUR ( '', #875 ) ;
#1068 = VECTOR ( 'NONE', #7, 1000.000000000000000 ) ;
#1069 = EDGE_LOOP ( 'NONE', ( #649, #858, #802, #362 ) ) ;
#1070 = STYLED_ITEM ( 'NONE', ( #669 ), #288 ) ;
#1071 = COLOUR_RGB ( '',0.7529411764705882248, 0.7529411764705882248, 0.7529411764705882248 ) ;
#1072 = DIRECTION ( 'NONE',  ( 0.05213734452108187423, -0.08703720429184748364, -0.9948397973419385032 ) ) ;
#1073 = DIRECTION ( 'NONE',  ( -1.000000000000000000, -1.178231900717926307E-16, 0.000000000000000000 ) ) ;
#1074 = PRODUCT_DEFINITION ( 'UNKNOWN', '', #1042, #427 ) ;
#1075 = ORIENTED_EDGE ( 'NONE', *, *, #833, .T. ) ;
#1076 = DIRECTION ( 'NONE',  ( -0.05213734452108187423, 0.08703720429184748364, -0.9948397973419385032 ) ) ;
#1077 = UNCERTAINTY_MEASURE_WITH_UNIT (LENGTH_MEASURE( 1.000000000000000082E-05 ), #235, 'distance_accuracy_value', 'NONE');
#1078 = DIRECTION ( 'NONE',  ( 1.000000000000000000, -0.000000000000000000, -0.000000000000000000 ) ) ;
#1079 = STYLED_ITEM ( 'NONE', ( #100 ), #522 ) ;
#1080 = DIRECTION ( 'NONE',  ( 0.000000000000000000, 1.000000000000000000, -0.000000000000000000 ) ) ;
#1081 =( NAMED_UNIT ( * ) SI_UNIT ( $, .STERADIAN. ) SOLID_ANGLE_UNIT ( ) );
#1082 = ORIENTED_EDGE ( 'NONE', *, *, #598, .F. ) ;
#1083 = EDGE_CURVE ( 'NONE', #1049, #407, #1055, .T. ) ;
#1084 = FILL_AREA_STYLE_COLOUR ( '', #38 ) ;
#1085 = STYLED_ITEM ( 'NONE', ( #392 ), #18 ) ;
#1086 = COLOUR_RGB ( '',0.7529411764705882248, 0.7529411764705882248, 0.7529411764705882248 ) ;
#1087 = VECTOR ( 'NONE', #315, 1000.000000000000000 ) ;
#1088 = SURFACE_STYLE_USAGE ( .BOTH. , #750 ) ;
#1089 = DIRECTION ( 'NONE',  ( -1.000000000000000000, 0.000000000000000000, 0.000000000000000000 ) ) ;
#1090 = VECTOR ( 'NONE', #1078, 1000.000000000000000 ) ;
#1091 = EDGE_CURVE ( 'NONE', #872, #587, #401, .T. ) ;
#1092 = PRESENTATION_LAYER_ASSIGNMENT (  '', '', ( #713 ) ) ;
#1093 =( GEOMETRIC_REPRESENTATION_CONTEXT ( 3 ) GLOBAL_UNCERTAINTY_ASSIGNED_CONTEXT ( ( #1029 ) ) GLOBAL_UNIT_ASSIGNED_CONTEXT ( ( #136, #967, #37 ) ) REPRESENTATION_CONTEXT ( 'NONE', 'WORKASPACE' ) );
#1094 = SURFACE_STYLE_USAGE ( .BOTH. , #421 ) ;
#1095 = VECTOR ( 'NONE', #533, 1000.000000000000000 ) ;
#1096 = ORIENTED_EDGE ( 'NONE', *, *, #1083, .F. ) ;
#1097 = DIRECTION ( 'NONE',  ( 1.178231900717926307E-16, -1.000000000000000000, 0.000000000000000000 ) ) ;
#1098 = PRESENTATION_LAYER_ASSIGNMENT (  '', '', ( #341 ) ) ;
#1099 = PRESENTATION_LAYER_ASSIGNMENT (  '', '', ( #485 ) ) ;
ENDSEC;
END-ISO-10303-21;
