%TF.GenerationSoftware,KiCad,Pcbnew,8.0.8*%
%TF.CreationDate,2025-02-14T07:41:27+01:00*%
%TF.ProjectId,Teensy_board_07_adc_buffer,5465656e-7379-45f6-926f-6172645f3037,rev?*%
%TF.SameCoordinates,Original*%
%TF.FileFunction,Copper,L1,Top*%
%TF.FilePolarity,Positive*%
%FSLAX46Y46*%
G04 Gerber Fmt 4.6, Leading zero omitted, Abs format (unit mm)*
G04 Created by KiCad (PCBNEW 8.0.8) date 2025-02-14 07:41:27*
%MOMM*%
%LPD*%
G01*
G04 APERTURE LIST*
%TA.AperFunction,ComponentPad*%
%ADD10R,1.700000X1.700000*%
%TD*%
%TA.AperFunction,ComponentPad*%
%ADD11O,1.700000X1.700000*%
%TD*%
%TA.AperFunction,ComponentPad*%
%ADD12R,1.600000X1.600000*%
%TD*%
%TA.AperFunction,ComponentPad*%
%ADD13C,1.600000*%
%TD*%
%TA.AperFunction,ViaPad*%
%ADD14C,1.600000*%
%TD*%
%TA.AperFunction,Conductor*%
%ADD15C,0.600000*%
%TD*%
G04 APERTURE END LIST*
D10*
%TO.P,J252,1,Pin_1*%
%TO.N,GND*%
X175000000Y-105200000D03*
%TD*%
%TO.P,J255,1,Pin_1*%
%TO.N,GND*%
X161200000Y-90600000D03*
%TD*%
%TO.P,J254,1,Pin_1*%
%TO.N,GND*%
X178200000Y-90600000D03*
%TD*%
%TO.P,J249,1,Pin_1*%
%TO.N,GND*%
X122800000Y-92400000D03*
%TD*%
%TO.P,J247,1,Pin_1*%
%TO.N,GND*%
X142000000Y-76400000D03*
%TD*%
%TO.P,J253,1,Pin_1*%
%TO.N,GND*%
X172000000Y-105200000D03*
%TD*%
%TO.P,J251,1,Pin_1*%
%TO.N,GND*%
X176800000Y-76400000D03*
%TD*%
%TO.P,J246,1,Pin_1*%
%TO.N,GND*%
X138400000Y-90600000D03*
%TD*%
%TO.P,J245,1,Pin_1*%
%TO.N,GND*%
X157600000Y-76400000D03*
%TD*%
%TO.P,J116,1,Pin_1*%
%TO.N,GND*%
X161200000Y-76400000D03*
%TD*%
%TO.P,J30,1,Pin_1*%
%TO.N,N/C*%
X157625000Y-83950000D03*
D11*
%TO.P,J30,2,Pin_2*%
%TO.N,GND*%
X157625000Y-86490000D03*
%TD*%
D10*
%TO.P,J120,1,Pin_1*%
%TO.N,N/C*%
X157600000Y-80000000D03*
%TD*%
%TO.P,J128,1,Pin_1*%
%TO.N,/ADC inputs/Buffer/OUT_11*%
X161200000Y-102800000D03*
%TD*%
%TO.P,J123,1,Pin_1*%
%TO.N,N/C*%
X161200000Y-80000000D03*
%TD*%
%TO.P,J23,1,Pin_1*%
%TO.N,N/C*%
X122825000Y-83950000D03*
D11*
%TO.P,J23,2,Pin_2*%
%TO.N,GND*%
X122825000Y-86490000D03*
%TD*%
D10*
%TO.P,J223,1,Pin_1*%
%TO.N,GND*%
X122800000Y-76400000D03*
%TD*%
%TO.P,J129,1,Pin_1*%
%TO.N,/ADC inputs/Buffer/OUT_12*%
X178200000Y-102800000D03*
%TD*%
%TO.P,J19,1,Pin_1*%
%TO.N,Net-(J19-Pin_1)*%
X178200000Y-116140000D03*
D11*
%TO.P,J19,2,Pin_2*%
%TO.N,+3.3V*%
X178200000Y-113600000D03*
%TO.P,J19,3,Pin_3*%
%TO.N,GND*%
X178200000Y-111060000D03*
%TD*%
D12*
%TO.P,C106,1*%
%TO.N,+3.3V*%
X152200000Y-114355112D03*
D13*
%TO.P,C106,2*%
%TO.N,GND*%
X152200000Y-112355112D03*
%TD*%
D10*
%TO.P,J32,1,Pin_1*%
%TO.N,N/C*%
X176825000Y-83950000D03*
D11*
%TO.P,J32,2,Pin_2*%
%TO.N,GND*%
X176825000Y-86490000D03*
%TD*%
D10*
%TO.P,J119,1,Pin_1*%
%TO.N,N/C*%
X122800000Y-80000000D03*
%TD*%
%TO.P,J34,1,Pin_1*%
%TO.N,Net-(J34-Pin_1)*%
X161200000Y-99140000D03*
D11*
%TO.P,J34,2,Pin_2*%
%TO.N,+5V*%
X161200000Y-96600000D03*
%TO.P,J34,3,Pin_3*%
%TO.N,GND*%
X161200000Y-94060000D03*
%TD*%
D10*
%TO.P,J121,1,Pin_1*%
%TO.N,N/C*%
X142000000Y-80000000D03*
%TD*%
%TO.P,J11,1,Pin_1*%
%TO.N,Net-(J11-Pin_1)*%
X157600000Y-99140000D03*
D11*
%TO.P,J11,2,Pin_2*%
%TO.N,+5V*%
X157600000Y-96600000D03*
%TO.P,J11,3,Pin_3*%
%TO.N,GND*%
X157600000Y-94060000D03*
%TD*%
D10*
%TO.P,J13,1,Pin_1*%
%TO.N,N/C*%
X138425000Y-83950000D03*
D11*
%TO.P,J13,2,Pin_2*%
%TO.N,GND*%
X138425000Y-86490000D03*
%TD*%
D12*
%TO.P,C49,1*%
%TO.N,+5V*%
X133800000Y-114355112D03*
D13*
%TO.P,C49,2*%
%TO.N,GND*%
X133800000Y-112355112D03*
%TD*%
D10*
%TO.P,J9,1,Pin_1*%
%TO.N,Net-(J9-Pin_1)*%
X138400000Y-99140000D03*
D11*
%TO.P,J9,2,Pin_2*%
%TO.N,+5V*%
X138400000Y-96600000D03*
%TO.P,J9,3,Pin_3*%
%TO.N,GND*%
X138400000Y-94060000D03*
%TD*%
D10*
%TO.P,J126,1,Pin_1*%
%TO.N,/ADC inputs/Buffer/OUT_9*%
X142000000Y-102800000D03*
%TD*%
%TO.P,J33,1,Pin_1*%
%TO.N,Net-(J33-Pin_1)*%
X178200000Y-94075000D03*
D11*
%TO.P,J33,2,Pin_2*%
%TO.N,+3.3V*%
X178200000Y-96615000D03*
%TO.P,J33,3,Pin_3*%
%TO.N,GND*%
X178200000Y-99155000D03*
%TD*%
D10*
%TO.P,J31,1,Pin_1*%
%TO.N,N/C*%
X142025000Y-83950000D03*
D11*
%TO.P,J31,2,Pin_2*%
%TO.N,GND*%
X142025000Y-86490000D03*
%TD*%
D10*
%TO.P,J125,1,Pin_1*%
%TO.N,/ADC inputs/Buffer/OUT_8*%
X138400000Y-102800000D03*
%TD*%
D12*
%TO.P,C105,1*%
%TO.N,+3.3V*%
X146600000Y-114355112D03*
D13*
%TO.P,C105,2*%
%TO.N,GND*%
X146600000Y-112355112D03*
%TD*%
D10*
%TO.P,J235,1,Pin_1*%
%TO.N,GND*%
X138400000Y-76400000D03*
%TD*%
%TO.P,J122,1,Pin_1*%
%TO.N,N/C*%
X176800000Y-80000000D03*
%TD*%
%TO.P,J35,1,Pin_1*%
%TO.N,N/C*%
X161225000Y-83950000D03*
D11*
%TO.P,J35,2,Pin_2*%
%TO.N,GND*%
X161225000Y-86490000D03*
%TD*%
D10*
%TO.P,J18,1,Pin_1*%
%TO.N,Net-(J18-Pin_1)*%
X162600000Y-116140000D03*
D11*
%TO.P,J18,2,Pin_2*%
%TO.N,+3.3V*%
X162600000Y-113600000D03*
%TO.P,J18,3,Pin_3*%
%TO.N,GND*%
X162600000Y-111060000D03*
%TD*%
D10*
%TO.P,J97,1,Pin_1*%
%TO.N,+5V*%
X138400000Y-114400000D03*
D11*
%TO.P,J97,2,Pin_2*%
%TO.N,GND*%
X138400000Y-111860000D03*
%TD*%
D10*
%TO.P,J36,1,Pin_1*%
%TO.N,N/C*%
X122775000Y-98450000D03*
D11*
%TO.P,J36,2,Pin_2*%
%TO.N,GND*%
X122775000Y-95910000D03*
%TD*%
D10*
%TO.P,J124,1,Pin_1*%
%TO.N,N/C*%
X122800000Y-102400000D03*
%TD*%
%TO.P,J130,1,Pin_1*%
%TO.N,/ADC inputs/Buffer/OUT_13*%
X178200000Y-107400000D03*
%TD*%
%TO.P,J118,1,Pin_1*%
%TO.N,N/C*%
X138400000Y-80000000D03*
%TD*%
%TO.P,J117,1,Pin_1*%
%TO.N,+3.3V*%
X142000000Y-114400000D03*
D11*
%TO.P,J117,2,Pin_2*%
%TO.N,GND*%
X142000000Y-111860000D03*
%TD*%
D10*
%TO.P,J131,1,Pin_1*%
%TO.N,/ADC inputs/Buffer/OUT_14*%
X162600000Y-107400000D03*
%TD*%
%TO.P,J127,1,Pin_1*%
%TO.N,/ADC inputs/Buffer/OUT_10*%
X157600000Y-102800000D03*
%TD*%
%TO.P,J10,1,Pin_1*%
%TO.N,Net-(J10-Pin_1)*%
X142000000Y-99140000D03*
D11*
%TO.P,J10,2,Pin_2*%
%TO.N,+5V*%
X142000000Y-96600000D03*
%TO.P,J10,3,Pin_3*%
%TO.N,GND*%
X142000000Y-94060000D03*
%TD*%
D12*
%TO.P,C51,1*%
%TO.N,+5V*%
X128200000Y-114355112D03*
D13*
%TO.P,C51,2*%
%TO.N,GND*%
X128200000Y-112355112D03*
%TD*%
D10*
%TO.P,J250,1,Pin_1*%
%TO.N,GND*%
X142000000Y-90600000D03*
%TD*%
%TO.P,J248,1,Pin_1*%
%TO.N,GND*%
X157600000Y-90600000D03*
%TD*%
D14*
%TO.N,GND*%
X125800000Y-109600000D03*
X172600000Y-91200000D03*
X182800000Y-105200000D03*
X127237500Y-91200000D03*
X120600000Y-109600000D03*
X165000000Y-91200000D03*
X153362500Y-91200000D03*
X133962500Y-91200000D03*
X146437500Y-91200000D03*
X179000000Y-105200000D03*
%TD*%
D15*
%TO.N,GND*%
X125800000Y-109600000D02*
X120600000Y-109600000D01*
X165000000Y-91200000D02*
X172600000Y-91200000D01*
X133962500Y-91200000D02*
X127237500Y-91200000D01*
X153362500Y-91200000D02*
X146437500Y-91200000D01*
X182800000Y-105200000D02*
X179000000Y-105200000D01*
%TD*%
%TA.AperFunction,Conductor*%
%TO.N,GND*%
G36*
X122192060Y-109297305D02*
G01*
X122198793Y-109303208D01*
X122200000Y-109308384D01*
X122200000Y-109891615D01*
X122196573Y-109899888D01*
X122192060Y-109902694D01*
X120916511Y-110335586D01*
X120907575Y-110335000D01*
X120901947Y-110328997D01*
X120863100Y-110235518D01*
X120600864Y-109604487D01*
X120600854Y-109595538D01*
X120901947Y-108871001D01*
X120908286Y-108864677D01*
X120916510Y-108864413D01*
X122192060Y-109297305D01*
G37*
%TD.AperFunction*%
%TD*%
%TA.AperFunction,Conductor*%
%TO.N,GND*%
G36*
X125492424Y-108864999D02*
G01*
X125498052Y-108871002D01*
X125799134Y-109595510D01*
X125799144Y-109604463D01*
X125799135Y-109604485D01*
X125799134Y-109604490D01*
X125498052Y-110328997D01*
X125491713Y-110335322D01*
X125483488Y-110335586D01*
X124207940Y-109902694D01*
X124201207Y-109896791D01*
X124200000Y-109891615D01*
X124200000Y-109308384D01*
X124203427Y-109300111D01*
X124207938Y-109297305D01*
X125483489Y-108864413D01*
X125492424Y-108864999D01*
G37*
%TD.AperFunction*%
%TD*%
%TA.AperFunction,Conductor*%
%TO.N,GND*%
G36*
X172292424Y-90464999D02*
G01*
X172298052Y-90471002D01*
X172599134Y-91195510D01*
X172599144Y-91204463D01*
X172599135Y-91204485D01*
X172599134Y-91204490D01*
X172298052Y-91928997D01*
X172291713Y-91935322D01*
X172283488Y-91935586D01*
X171007940Y-91502694D01*
X171001207Y-91496791D01*
X171000000Y-91491615D01*
X171000000Y-90908384D01*
X171003427Y-90900111D01*
X171007938Y-90897305D01*
X172283489Y-90464413D01*
X172292424Y-90464999D01*
G37*
%TD.AperFunction*%
%TD*%
%TA.AperFunction,Conductor*%
%TO.N,GND*%
G36*
X166592060Y-90897305D02*
G01*
X166598793Y-90903208D01*
X166600000Y-90908384D01*
X166600000Y-91491615D01*
X166596573Y-91499888D01*
X166592060Y-91502694D01*
X165316511Y-91935586D01*
X165307575Y-91935000D01*
X165301947Y-91928997D01*
X165263100Y-91835518D01*
X165000864Y-91204487D01*
X165000854Y-91195538D01*
X165301947Y-90471001D01*
X165308286Y-90464677D01*
X165316510Y-90464413D01*
X166592060Y-90897305D01*
G37*
%TD.AperFunction*%
%TD*%
%TA.AperFunction,Conductor*%
%TO.N,GND*%
G36*
X128829560Y-90897305D02*
G01*
X128836293Y-90903208D01*
X128837500Y-90908384D01*
X128837500Y-91491615D01*
X128834073Y-91499888D01*
X128829560Y-91502694D01*
X127554011Y-91935586D01*
X127545075Y-91935000D01*
X127539447Y-91928997D01*
X127500600Y-91835518D01*
X127238364Y-91204487D01*
X127238354Y-91195538D01*
X127539447Y-90471001D01*
X127545786Y-90464677D01*
X127554010Y-90464413D01*
X128829560Y-90897305D01*
G37*
%TD.AperFunction*%
%TD*%
%TA.AperFunction,Conductor*%
%TO.N,GND*%
G36*
X133654924Y-90464999D02*
G01*
X133660552Y-90471002D01*
X133961634Y-91195510D01*
X133961644Y-91204463D01*
X133961635Y-91204485D01*
X133961634Y-91204490D01*
X133660552Y-91928997D01*
X133654213Y-91935322D01*
X133645988Y-91935586D01*
X132370440Y-91502694D01*
X132363707Y-91496791D01*
X132362500Y-91491615D01*
X132362500Y-90908384D01*
X132365927Y-90900111D01*
X132370438Y-90897305D01*
X133645989Y-90464413D01*
X133654924Y-90464999D01*
G37*
%TD.AperFunction*%
%TD*%
%TA.AperFunction,Conductor*%
%TO.N,GND*%
G36*
X148029560Y-90897305D02*
G01*
X148036293Y-90903208D01*
X148037500Y-90908384D01*
X148037500Y-91491615D01*
X148034073Y-91499888D01*
X148029560Y-91502694D01*
X146754011Y-91935586D01*
X146745075Y-91935000D01*
X146739447Y-91928997D01*
X146700600Y-91835518D01*
X146438364Y-91204487D01*
X146438354Y-91195538D01*
X146739447Y-90471001D01*
X146745786Y-90464677D01*
X146754010Y-90464413D01*
X148029560Y-90897305D01*
G37*
%TD.AperFunction*%
%TD*%
%TA.AperFunction,Conductor*%
%TO.N,GND*%
G36*
X153054924Y-90464999D02*
G01*
X153060552Y-90471002D01*
X153361634Y-91195510D01*
X153361644Y-91204463D01*
X153361635Y-91204485D01*
X153361634Y-91204490D01*
X153060552Y-91928997D01*
X153054213Y-91935322D01*
X153045988Y-91935586D01*
X151770440Y-91502694D01*
X151763707Y-91496791D01*
X151762500Y-91491615D01*
X151762500Y-90908384D01*
X151765927Y-90900111D01*
X151770438Y-90897305D01*
X153045989Y-90464413D01*
X153054924Y-90464999D01*
G37*
%TD.AperFunction*%
%TD*%
%TA.AperFunction,Conductor*%
%TO.N,GND*%
G36*
X180592060Y-104897305D02*
G01*
X180598793Y-104903208D01*
X180600000Y-104908384D01*
X180600000Y-105491615D01*
X180596573Y-105499888D01*
X180592060Y-105502694D01*
X179316511Y-105935586D01*
X179307575Y-105935000D01*
X179301947Y-105928997D01*
X179263100Y-105835518D01*
X179000864Y-105204487D01*
X179000854Y-105195538D01*
X179301947Y-104471001D01*
X179308286Y-104464677D01*
X179316510Y-104464413D01*
X180592060Y-104897305D01*
G37*
%TD.AperFunction*%
%TD*%
%TA.AperFunction,Conductor*%
%TO.N,GND*%
G36*
X182492424Y-104464999D02*
G01*
X182498052Y-104471002D01*
X182799134Y-105195510D01*
X182799144Y-105204463D01*
X182799135Y-105204485D01*
X182799134Y-105204490D01*
X182498052Y-105928997D01*
X182491713Y-105935322D01*
X182483488Y-105935586D01*
X181207940Y-105502694D01*
X181201207Y-105496791D01*
X181200000Y-105491615D01*
X181200000Y-104908384D01*
X181203427Y-104900111D01*
X181207938Y-104897305D01*
X182483489Y-104464413D01*
X182492424Y-104464999D01*
G37*
%TD.AperFunction*%
%TD*%
M02*
