%TF.GenerationSoftware,KiCad,Pcbnew,8.0.7*%
%TF.CreationDate,2025-02-07T22:23:41+01:00*%
%TF.ProjectId,Teensy_board_09_prot_esd_1,5465656e-7379-45f6-926f-6172645f3039,rev?*%
%TF.SameCoordinates,Original*%
%TF.FileFunction,Paste,Bot*%
%TF.FilePolarity,Positive*%
%FSLAX46Y46*%
G04 Gerber Fmt 4.6, Leading zero omitted, Abs format (unit mm)*
G04 Created by KiCad (PCBNEW 8.0.7) date 2025-02-07 22:23:41*
%MOMM*%
%LPD*%
G01*
G04 APERTURE LIST*
G04 Aperture macros list*
%AMRoundRect*
0 Rectangle with rounded corners*
0 $1 Rounding radius*
0 $2 $3 $4 $5 $6 $7 $8 $9 X,Y pos of 4 corners*
0 Add a 4 corners polygon primitive as box body*
4,1,4,$2,$3,$4,$5,$6,$7,$8,$9,$2,$3,0*
0 Add four circle primitives for the rounded corners*
1,1,$1+$1,$2,$3*
1,1,$1+$1,$4,$5*
1,1,$1+$1,$6,$7*
1,1,$1+$1,$8,$9*
0 Add four rect primitives between the rounded corners*
20,1,$1+$1,$2,$3,$4,$5,0*
20,1,$1+$1,$4,$5,$6,$7,0*
20,1,$1+$1,$6,$7,$8,$9,0*
20,1,$1+$1,$8,$9,$2,$3,0*%
G04 Aperture macros list end*
%ADD10RoundRect,0.250000X-0.325000X-0.450000X0.325000X-0.450000X0.325000X0.450000X-0.325000X0.450000X0*%
%ADD11R,1.150000X1.375000*%
%ADD12RoundRect,0.250000X1.100000X-0.500000X1.100000X0.500000X-1.100000X0.500000X-1.100000X-0.500000X0*%
G04 APERTURE END LIST*
D10*
%TO.C,F16*%
X160275000Y-103650000D03*
X162325000Y-103650000D03*
%TD*%
%TO.C,F17*%
X153075000Y-101650000D03*
X155125000Y-101650000D03*
%TD*%
%TO.C,F23*%
X138675000Y-82650000D03*
X140725000Y-82650000D03*
%TD*%
D11*
%TO.C,D18*%
X161300000Y-101625000D03*
X161300000Y-98475000D03*
%TD*%
D10*
%TO.C,F21*%
X153075000Y-86650000D03*
X155125000Y-86650000D03*
%TD*%
D12*
%TO.C,D44*%
X164900000Y-88450000D03*
X164900000Y-83650000D03*
%TD*%
D11*
%TO.C,D37*%
X154100000Y-84625000D03*
X154100000Y-81475000D03*
%TD*%
D12*
%TO.C,D41*%
X157700000Y-101450000D03*
X157700000Y-96650000D03*
%TD*%
D11*
%TO.C,D36*%
X161300000Y-86625000D03*
X161300000Y-83475000D03*
%TD*%
%TO.C,D38*%
X146900000Y-82625000D03*
X146900000Y-79475000D03*
%TD*%
D12*
%TO.C,D46*%
X150500000Y-84450000D03*
X150500000Y-79650000D03*
%TD*%
D10*
%TO.C,F18*%
X145875000Y-99650000D03*
X147925000Y-99650000D03*
%TD*%
%TO.C,F19*%
X138675000Y-97650000D03*
X140725000Y-97650000D03*
%TD*%
D11*
%TO.C,D39*%
X139700000Y-80625000D03*
X139700000Y-77475000D03*
%TD*%
D10*
%TO.C,F22*%
X145875000Y-84650000D03*
X147925000Y-84650000D03*
%TD*%
D12*
%TO.C,D40*%
X164900000Y-103450000D03*
X164900000Y-98650000D03*
%TD*%
%TO.C,D42*%
X150500000Y-99450000D03*
X150500000Y-94650000D03*
%TD*%
D10*
%TO.C,F20*%
X160275000Y-88650000D03*
X162325000Y-88650000D03*
%TD*%
D11*
%TO.C,D35*%
X139700000Y-95625000D03*
X139700000Y-92475000D03*
%TD*%
%TO.C,D19*%
X154100000Y-99625000D03*
X154100000Y-96475000D03*
%TD*%
%TO.C,D34*%
X146900000Y-97625000D03*
X146900000Y-94475000D03*
%TD*%
D12*
%TO.C,D45*%
X157700000Y-86450000D03*
X157700000Y-81650000D03*
%TD*%
%TO.C,D43*%
X143300000Y-97450000D03*
X143300000Y-92650000D03*
%TD*%
%TO.C,D47*%
X143300000Y-82450000D03*
X143300000Y-77650000D03*
%TD*%
M02*
