%TF.GenerationSoftware,KiCad,Pcbnew,8.0.7*%
%TF.CreationDate,2025-02-07T22:23:42+01:00*%
%TF.ProjectId,Teensy_board_09_prot_esd_1,5465656e-7379-45f6-926f-6172645f3039,rev?*%
%TF.SameCoordinates,Original*%
%TF.FileFunction,Legend,Bot*%
%TF.FilePolarity,Positive*%
%FSLAX46Y46*%
G04 Gerber Fmt 4.6, Leading zero omitted, Abs format (unit mm)*
G04 Created by KiCad (PCBNEW 8.0.7) date 2025-02-07 22:23:42*
%MOMM*%
%LPD*%
G01*
G04 APERTURE LIST*
%ADD10C,0.150000*%
%ADD11C,0.254000*%
%ADD12C,0.120000*%
%ADD13C,0.200000*%
G04 APERTURE END LIST*
D10*
X162109523Y-105231009D02*
X162442856Y-105231009D01*
X162442856Y-105754819D02*
X162442856Y-104754819D01*
X162442856Y-104754819D02*
X161966666Y-104754819D01*
X161061904Y-105754819D02*
X161633332Y-105754819D01*
X161347618Y-105754819D02*
X161347618Y-104754819D01*
X161347618Y-104754819D02*
X161442856Y-104897676D01*
X161442856Y-104897676D02*
X161538094Y-104992914D01*
X161538094Y-104992914D02*
X161633332Y-105040533D01*
X160204761Y-104754819D02*
X160395237Y-104754819D01*
X160395237Y-104754819D02*
X160490475Y-104802438D01*
X160490475Y-104802438D02*
X160538094Y-104850057D01*
X160538094Y-104850057D02*
X160633332Y-104992914D01*
X160633332Y-104992914D02*
X160680951Y-105183390D01*
X160680951Y-105183390D02*
X160680951Y-105564342D01*
X160680951Y-105564342D02*
X160633332Y-105659580D01*
X160633332Y-105659580D02*
X160585713Y-105707200D01*
X160585713Y-105707200D02*
X160490475Y-105754819D01*
X160490475Y-105754819D02*
X160299999Y-105754819D01*
X160299999Y-105754819D02*
X160204761Y-105707200D01*
X160204761Y-105707200D02*
X160157142Y-105659580D01*
X160157142Y-105659580D02*
X160109523Y-105564342D01*
X160109523Y-105564342D02*
X160109523Y-105326247D01*
X160109523Y-105326247D02*
X160157142Y-105231009D01*
X160157142Y-105231009D02*
X160204761Y-105183390D01*
X160204761Y-105183390D02*
X160299999Y-105135771D01*
X160299999Y-105135771D02*
X160490475Y-105135771D01*
X160490475Y-105135771D02*
X160585713Y-105183390D01*
X160585713Y-105183390D02*
X160633332Y-105231009D01*
X160633332Y-105231009D02*
X160680951Y-105326247D01*
X154909523Y-103231009D02*
X155242856Y-103231009D01*
X155242856Y-103754819D02*
X155242856Y-102754819D01*
X155242856Y-102754819D02*
X154766666Y-102754819D01*
X153861904Y-103754819D02*
X154433332Y-103754819D01*
X154147618Y-103754819D02*
X154147618Y-102754819D01*
X154147618Y-102754819D02*
X154242856Y-102897676D01*
X154242856Y-102897676D02*
X154338094Y-102992914D01*
X154338094Y-102992914D02*
X154433332Y-103040533D01*
X153528570Y-102754819D02*
X152861904Y-102754819D01*
X152861904Y-102754819D02*
X153290475Y-103754819D01*
X140509523Y-84231009D02*
X140842856Y-84231009D01*
X140842856Y-84754819D02*
X140842856Y-83754819D01*
X140842856Y-83754819D02*
X140366666Y-83754819D01*
X140033332Y-83850057D02*
X139985713Y-83802438D01*
X139985713Y-83802438D02*
X139890475Y-83754819D01*
X139890475Y-83754819D02*
X139652380Y-83754819D01*
X139652380Y-83754819D02*
X139557142Y-83802438D01*
X139557142Y-83802438D02*
X139509523Y-83850057D01*
X139509523Y-83850057D02*
X139461904Y-83945295D01*
X139461904Y-83945295D02*
X139461904Y-84040533D01*
X139461904Y-84040533D02*
X139509523Y-84183390D01*
X139509523Y-84183390D02*
X140080951Y-84754819D01*
X140080951Y-84754819D02*
X139461904Y-84754819D01*
X139128570Y-83754819D02*
X138509523Y-83754819D01*
X138509523Y-83754819D02*
X138842856Y-84135771D01*
X138842856Y-84135771D02*
X138699999Y-84135771D01*
X138699999Y-84135771D02*
X138604761Y-84183390D01*
X138604761Y-84183390D02*
X138557142Y-84231009D01*
X138557142Y-84231009D02*
X138509523Y-84326247D01*
X138509523Y-84326247D02*
X138509523Y-84564342D01*
X138509523Y-84564342D02*
X138557142Y-84659580D01*
X138557142Y-84659580D02*
X138604761Y-84707200D01*
X138604761Y-84707200D02*
X138699999Y-84754819D01*
X138699999Y-84754819D02*
X138985713Y-84754819D01*
X138985713Y-84754819D02*
X139080951Y-84707200D01*
X139080951Y-84707200D02*
X139128570Y-84659580D01*
D11*
X161874318Y-98507856D02*
X160604318Y-98507856D01*
X160604318Y-98507856D02*
X160604318Y-98810237D01*
X160604318Y-98810237D02*
X160664794Y-98991666D01*
X160664794Y-98991666D02*
X160785746Y-99112618D01*
X160785746Y-99112618D02*
X160906699Y-99173095D01*
X160906699Y-99173095D02*
X161148603Y-99233571D01*
X161148603Y-99233571D02*
X161330032Y-99233571D01*
X161330032Y-99233571D02*
X161571937Y-99173095D01*
X161571937Y-99173095D02*
X161692889Y-99112618D01*
X161692889Y-99112618D02*
X161813842Y-98991666D01*
X161813842Y-98991666D02*
X161874318Y-98810237D01*
X161874318Y-98810237D02*
X161874318Y-98507856D01*
X161874318Y-100443095D02*
X161874318Y-99717380D01*
X161874318Y-100080237D02*
X160604318Y-100080237D01*
X160604318Y-100080237D02*
X160785746Y-99959285D01*
X160785746Y-99959285D02*
X160906699Y-99838333D01*
X160906699Y-99838333D02*
X160967175Y-99717380D01*
X161148603Y-101168809D02*
X161088127Y-101047857D01*
X161088127Y-101047857D02*
X161027651Y-100987380D01*
X161027651Y-100987380D02*
X160906699Y-100926904D01*
X160906699Y-100926904D02*
X160846222Y-100926904D01*
X160846222Y-100926904D02*
X160725270Y-100987380D01*
X160725270Y-100987380D02*
X160664794Y-101047857D01*
X160664794Y-101047857D02*
X160604318Y-101168809D01*
X160604318Y-101168809D02*
X160604318Y-101410714D01*
X160604318Y-101410714D02*
X160664794Y-101531666D01*
X160664794Y-101531666D02*
X160725270Y-101592142D01*
X160725270Y-101592142D02*
X160846222Y-101652619D01*
X160846222Y-101652619D02*
X160906699Y-101652619D01*
X160906699Y-101652619D02*
X161027651Y-101592142D01*
X161027651Y-101592142D02*
X161088127Y-101531666D01*
X161088127Y-101531666D02*
X161148603Y-101410714D01*
X161148603Y-101410714D02*
X161148603Y-101168809D01*
X161148603Y-101168809D02*
X161209080Y-101047857D01*
X161209080Y-101047857D02*
X161269556Y-100987380D01*
X161269556Y-100987380D02*
X161390508Y-100926904D01*
X161390508Y-100926904D02*
X161632413Y-100926904D01*
X161632413Y-100926904D02*
X161753365Y-100987380D01*
X161753365Y-100987380D02*
X161813842Y-101047857D01*
X161813842Y-101047857D02*
X161874318Y-101168809D01*
X161874318Y-101168809D02*
X161874318Y-101410714D01*
X161874318Y-101410714D02*
X161813842Y-101531666D01*
X161813842Y-101531666D02*
X161753365Y-101592142D01*
X161753365Y-101592142D02*
X161632413Y-101652619D01*
X161632413Y-101652619D02*
X161390508Y-101652619D01*
X161390508Y-101652619D02*
X161269556Y-101592142D01*
X161269556Y-101592142D02*
X161209080Y-101531666D01*
X161209080Y-101531666D02*
X161148603Y-101410714D01*
D10*
X154909523Y-88231009D02*
X155242856Y-88231009D01*
X155242856Y-88754819D02*
X155242856Y-87754819D01*
X155242856Y-87754819D02*
X154766666Y-87754819D01*
X154433332Y-87850057D02*
X154385713Y-87802438D01*
X154385713Y-87802438D02*
X154290475Y-87754819D01*
X154290475Y-87754819D02*
X154052380Y-87754819D01*
X154052380Y-87754819D02*
X153957142Y-87802438D01*
X153957142Y-87802438D02*
X153909523Y-87850057D01*
X153909523Y-87850057D02*
X153861904Y-87945295D01*
X153861904Y-87945295D02*
X153861904Y-88040533D01*
X153861904Y-88040533D02*
X153909523Y-88183390D01*
X153909523Y-88183390D02*
X154480951Y-88754819D01*
X154480951Y-88754819D02*
X153861904Y-88754819D01*
X152909523Y-88754819D02*
X153480951Y-88754819D01*
X153195237Y-88754819D02*
X153195237Y-87754819D01*
X153195237Y-87754819D02*
X153290475Y-87897676D01*
X153290475Y-87897676D02*
X153385713Y-87992914D01*
X153385713Y-87992914D02*
X153480951Y-88040533D01*
X167854819Y-84835714D02*
X166854819Y-84835714D01*
X166854819Y-84835714D02*
X166854819Y-85073809D01*
X166854819Y-85073809D02*
X166902438Y-85216666D01*
X166902438Y-85216666D02*
X166997676Y-85311904D01*
X166997676Y-85311904D02*
X167092914Y-85359523D01*
X167092914Y-85359523D02*
X167283390Y-85407142D01*
X167283390Y-85407142D02*
X167426247Y-85407142D01*
X167426247Y-85407142D02*
X167616723Y-85359523D01*
X167616723Y-85359523D02*
X167711961Y-85311904D01*
X167711961Y-85311904D02*
X167807200Y-85216666D01*
X167807200Y-85216666D02*
X167854819Y-85073809D01*
X167854819Y-85073809D02*
X167854819Y-84835714D01*
X167188152Y-86264285D02*
X167854819Y-86264285D01*
X166807200Y-86026190D02*
X167521485Y-85788095D01*
X167521485Y-85788095D02*
X167521485Y-86407142D01*
X167188152Y-87216666D02*
X167854819Y-87216666D01*
X166807200Y-86978571D02*
X167521485Y-86740476D01*
X167521485Y-86740476D02*
X167521485Y-87359523D01*
D11*
X154674318Y-81507856D02*
X153404318Y-81507856D01*
X153404318Y-81507856D02*
X153404318Y-81810237D01*
X153404318Y-81810237D02*
X153464794Y-81991666D01*
X153464794Y-81991666D02*
X153585746Y-82112618D01*
X153585746Y-82112618D02*
X153706699Y-82173095D01*
X153706699Y-82173095D02*
X153948603Y-82233571D01*
X153948603Y-82233571D02*
X154130032Y-82233571D01*
X154130032Y-82233571D02*
X154371937Y-82173095D01*
X154371937Y-82173095D02*
X154492889Y-82112618D01*
X154492889Y-82112618D02*
X154613842Y-81991666D01*
X154613842Y-81991666D02*
X154674318Y-81810237D01*
X154674318Y-81810237D02*
X154674318Y-81507856D01*
X153404318Y-82656904D02*
X153404318Y-83443095D01*
X153404318Y-83443095D02*
X153888127Y-83019761D01*
X153888127Y-83019761D02*
X153888127Y-83201190D01*
X153888127Y-83201190D02*
X153948603Y-83322142D01*
X153948603Y-83322142D02*
X154009080Y-83382618D01*
X154009080Y-83382618D02*
X154130032Y-83443095D01*
X154130032Y-83443095D02*
X154432413Y-83443095D01*
X154432413Y-83443095D02*
X154553365Y-83382618D01*
X154553365Y-83382618D02*
X154613842Y-83322142D01*
X154613842Y-83322142D02*
X154674318Y-83201190D01*
X154674318Y-83201190D02*
X154674318Y-82838333D01*
X154674318Y-82838333D02*
X154613842Y-82717380D01*
X154613842Y-82717380D02*
X154553365Y-82656904D01*
X153404318Y-83866428D02*
X153404318Y-84713095D01*
X153404318Y-84713095D02*
X154674318Y-84168809D01*
D10*
X160654819Y-97835714D02*
X159654819Y-97835714D01*
X159654819Y-97835714D02*
X159654819Y-98073809D01*
X159654819Y-98073809D02*
X159702438Y-98216666D01*
X159702438Y-98216666D02*
X159797676Y-98311904D01*
X159797676Y-98311904D02*
X159892914Y-98359523D01*
X159892914Y-98359523D02*
X160083390Y-98407142D01*
X160083390Y-98407142D02*
X160226247Y-98407142D01*
X160226247Y-98407142D02*
X160416723Y-98359523D01*
X160416723Y-98359523D02*
X160511961Y-98311904D01*
X160511961Y-98311904D02*
X160607200Y-98216666D01*
X160607200Y-98216666D02*
X160654819Y-98073809D01*
X160654819Y-98073809D02*
X160654819Y-97835714D01*
X159988152Y-99264285D02*
X160654819Y-99264285D01*
X159607200Y-99026190D02*
X160321485Y-98788095D01*
X160321485Y-98788095D02*
X160321485Y-99407142D01*
X160654819Y-100311904D02*
X160654819Y-99740476D01*
X160654819Y-100026190D02*
X159654819Y-100026190D01*
X159654819Y-100026190D02*
X159797676Y-99930952D01*
X159797676Y-99930952D02*
X159892914Y-99835714D01*
X159892914Y-99835714D02*
X159940533Y-99740476D01*
D11*
X161874318Y-83507856D02*
X160604318Y-83507856D01*
X160604318Y-83507856D02*
X160604318Y-83810237D01*
X160604318Y-83810237D02*
X160664794Y-83991666D01*
X160664794Y-83991666D02*
X160785746Y-84112618D01*
X160785746Y-84112618D02*
X160906699Y-84173095D01*
X160906699Y-84173095D02*
X161148603Y-84233571D01*
X161148603Y-84233571D02*
X161330032Y-84233571D01*
X161330032Y-84233571D02*
X161571937Y-84173095D01*
X161571937Y-84173095D02*
X161692889Y-84112618D01*
X161692889Y-84112618D02*
X161813842Y-83991666D01*
X161813842Y-83991666D02*
X161874318Y-83810237D01*
X161874318Y-83810237D02*
X161874318Y-83507856D01*
X160604318Y-84656904D02*
X160604318Y-85443095D01*
X160604318Y-85443095D02*
X161088127Y-85019761D01*
X161088127Y-85019761D02*
X161088127Y-85201190D01*
X161088127Y-85201190D02*
X161148603Y-85322142D01*
X161148603Y-85322142D02*
X161209080Y-85382618D01*
X161209080Y-85382618D02*
X161330032Y-85443095D01*
X161330032Y-85443095D02*
X161632413Y-85443095D01*
X161632413Y-85443095D02*
X161753365Y-85382618D01*
X161753365Y-85382618D02*
X161813842Y-85322142D01*
X161813842Y-85322142D02*
X161874318Y-85201190D01*
X161874318Y-85201190D02*
X161874318Y-84838333D01*
X161874318Y-84838333D02*
X161813842Y-84717380D01*
X161813842Y-84717380D02*
X161753365Y-84656904D01*
X160604318Y-86531666D02*
X160604318Y-86289761D01*
X160604318Y-86289761D02*
X160664794Y-86168809D01*
X160664794Y-86168809D02*
X160725270Y-86108333D01*
X160725270Y-86108333D02*
X160906699Y-85987380D01*
X160906699Y-85987380D02*
X161148603Y-85926904D01*
X161148603Y-85926904D02*
X161632413Y-85926904D01*
X161632413Y-85926904D02*
X161753365Y-85987380D01*
X161753365Y-85987380D02*
X161813842Y-86047857D01*
X161813842Y-86047857D02*
X161874318Y-86168809D01*
X161874318Y-86168809D02*
X161874318Y-86410714D01*
X161874318Y-86410714D02*
X161813842Y-86531666D01*
X161813842Y-86531666D02*
X161753365Y-86592142D01*
X161753365Y-86592142D02*
X161632413Y-86652619D01*
X161632413Y-86652619D02*
X161330032Y-86652619D01*
X161330032Y-86652619D02*
X161209080Y-86592142D01*
X161209080Y-86592142D02*
X161148603Y-86531666D01*
X161148603Y-86531666D02*
X161088127Y-86410714D01*
X161088127Y-86410714D02*
X161088127Y-86168809D01*
X161088127Y-86168809D02*
X161148603Y-86047857D01*
X161148603Y-86047857D02*
X161209080Y-85987380D01*
X161209080Y-85987380D02*
X161330032Y-85926904D01*
X147474318Y-79507856D02*
X146204318Y-79507856D01*
X146204318Y-79507856D02*
X146204318Y-79810237D01*
X146204318Y-79810237D02*
X146264794Y-79991666D01*
X146264794Y-79991666D02*
X146385746Y-80112618D01*
X146385746Y-80112618D02*
X146506699Y-80173095D01*
X146506699Y-80173095D02*
X146748603Y-80233571D01*
X146748603Y-80233571D02*
X146930032Y-80233571D01*
X146930032Y-80233571D02*
X147171937Y-80173095D01*
X147171937Y-80173095D02*
X147292889Y-80112618D01*
X147292889Y-80112618D02*
X147413842Y-79991666D01*
X147413842Y-79991666D02*
X147474318Y-79810237D01*
X147474318Y-79810237D02*
X147474318Y-79507856D01*
X146204318Y-80656904D02*
X146204318Y-81443095D01*
X146204318Y-81443095D02*
X146688127Y-81019761D01*
X146688127Y-81019761D02*
X146688127Y-81201190D01*
X146688127Y-81201190D02*
X146748603Y-81322142D01*
X146748603Y-81322142D02*
X146809080Y-81382618D01*
X146809080Y-81382618D02*
X146930032Y-81443095D01*
X146930032Y-81443095D02*
X147232413Y-81443095D01*
X147232413Y-81443095D02*
X147353365Y-81382618D01*
X147353365Y-81382618D02*
X147413842Y-81322142D01*
X147413842Y-81322142D02*
X147474318Y-81201190D01*
X147474318Y-81201190D02*
X147474318Y-80838333D01*
X147474318Y-80838333D02*
X147413842Y-80717380D01*
X147413842Y-80717380D02*
X147353365Y-80656904D01*
X146748603Y-82168809D02*
X146688127Y-82047857D01*
X146688127Y-82047857D02*
X146627651Y-81987380D01*
X146627651Y-81987380D02*
X146506699Y-81926904D01*
X146506699Y-81926904D02*
X146446222Y-81926904D01*
X146446222Y-81926904D02*
X146325270Y-81987380D01*
X146325270Y-81987380D02*
X146264794Y-82047857D01*
X146264794Y-82047857D02*
X146204318Y-82168809D01*
X146204318Y-82168809D02*
X146204318Y-82410714D01*
X146204318Y-82410714D02*
X146264794Y-82531666D01*
X146264794Y-82531666D02*
X146325270Y-82592142D01*
X146325270Y-82592142D02*
X146446222Y-82652619D01*
X146446222Y-82652619D02*
X146506699Y-82652619D01*
X146506699Y-82652619D02*
X146627651Y-82592142D01*
X146627651Y-82592142D02*
X146688127Y-82531666D01*
X146688127Y-82531666D02*
X146748603Y-82410714D01*
X146748603Y-82410714D02*
X146748603Y-82168809D01*
X146748603Y-82168809D02*
X146809080Y-82047857D01*
X146809080Y-82047857D02*
X146869556Y-81987380D01*
X146869556Y-81987380D02*
X146990508Y-81926904D01*
X146990508Y-81926904D02*
X147232413Y-81926904D01*
X147232413Y-81926904D02*
X147353365Y-81987380D01*
X147353365Y-81987380D02*
X147413842Y-82047857D01*
X147413842Y-82047857D02*
X147474318Y-82168809D01*
X147474318Y-82168809D02*
X147474318Y-82410714D01*
X147474318Y-82410714D02*
X147413842Y-82531666D01*
X147413842Y-82531666D02*
X147353365Y-82592142D01*
X147353365Y-82592142D02*
X147232413Y-82652619D01*
X147232413Y-82652619D02*
X146990508Y-82652619D01*
X146990508Y-82652619D02*
X146869556Y-82592142D01*
X146869556Y-82592142D02*
X146809080Y-82531666D01*
X146809080Y-82531666D02*
X146748603Y-82410714D01*
D10*
X153454819Y-80835714D02*
X152454819Y-80835714D01*
X152454819Y-80835714D02*
X152454819Y-81073809D01*
X152454819Y-81073809D02*
X152502438Y-81216666D01*
X152502438Y-81216666D02*
X152597676Y-81311904D01*
X152597676Y-81311904D02*
X152692914Y-81359523D01*
X152692914Y-81359523D02*
X152883390Y-81407142D01*
X152883390Y-81407142D02*
X153026247Y-81407142D01*
X153026247Y-81407142D02*
X153216723Y-81359523D01*
X153216723Y-81359523D02*
X153311961Y-81311904D01*
X153311961Y-81311904D02*
X153407200Y-81216666D01*
X153407200Y-81216666D02*
X153454819Y-81073809D01*
X153454819Y-81073809D02*
X153454819Y-80835714D01*
X152788152Y-82264285D02*
X153454819Y-82264285D01*
X152407200Y-82026190D02*
X153121485Y-81788095D01*
X153121485Y-81788095D02*
X153121485Y-82407142D01*
X152454819Y-83216666D02*
X152454819Y-83026190D01*
X152454819Y-83026190D02*
X152502438Y-82930952D01*
X152502438Y-82930952D02*
X152550057Y-82883333D01*
X152550057Y-82883333D02*
X152692914Y-82788095D01*
X152692914Y-82788095D02*
X152883390Y-82740476D01*
X152883390Y-82740476D02*
X153264342Y-82740476D01*
X153264342Y-82740476D02*
X153359580Y-82788095D01*
X153359580Y-82788095D02*
X153407200Y-82835714D01*
X153407200Y-82835714D02*
X153454819Y-82930952D01*
X153454819Y-82930952D02*
X153454819Y-83121428D01*
X153454819Y-83121428D02*
X153407200Y-83216666D01*
X153407200Y-83216666D02*
X153359580Y-83264285D01*
X153359580Y-83264285D02*
X153264342Y-83311904D01*
X153264342Y-83311904D02*
X153026247Y-83311904D01*
X153026247Y-83311904D02*
X152931009Y-83264285D01*
X152931009Y-83264285D02*
X152883390Y-83216666D01*
X152883390Y-83216666D02*
X152835771Y-83121428D01*
X152835771Y-83121428D02*
X152835771Y-82930952D01*
X152835771Y-82930952D02*
X152883390Y-82835714D01*
X152883390Y-82835714D02*
X152931009Y-82788095D01*
X152931009Y-82788095D02*
X153026247Y-82740476D01*
X147709523Y-101231009D02*
X148042856Y-101231009D01*
X148042856Y-101754819D02*
X148042856Y-100754819D01*
X148042856Y-100754819D02*
X147566666Y-100754819D01*
X146661904Y-101754819D02*
X147233332Y-101754819D01*
X146947618Y-101754819D02*
X146947618Y-100754819D01*
X146947618Y-100754819D02*
X147042856Y-100897676D01*
X147042856Y-100897676D02*
X147138094Y-100992914D01*
X147138094Y-100992914D02*
X147233332Y-101040533D01*
X146090475Y-101183390D02*
X146185713Y-101135771D01*
X146185713Y-101135771D02*
X146233332Y-101088152D01*
X146233332Y-101088152D02*
X146280951Y-100992914D01*
X146280951Y-100992914D02*
X146280951Y-100945295D01*
X146280951Y-100945295D02*
X146233332Y-100850057D01*
X146233332Y-100850057D02*
X146185713Y-100802438D01*
X146185713Y-100802438D02*
X146090475Y-100754819D01*
X146090475Y-100754819D02*
X145899999Y-100754819D01*
X145899999Y-100754819D02*
X145804761Y-100802438D01*
X145804761Y-100802438D02*
X145757142Y-100850057D01*
X145757142Y-100850057D02*
X145709523Y-100945295D01*
X145709523Y-100945295D02*
X145709523Y-100992914D01*
X145709523Y-100992914D02*
X145757142Y-101088152D01*
X145757142Y-101088152D02*
X145804761Y-101135771D01*
X145804761Y-101135771D02*
X145899999Y-101183390D01*
X145899999Y-101183390D02*
X146090475Y-101183390D01*
X146090475Y-101183390D02*
X146185713Y-101231009D01*
X146185713Y-101231009D02*
X146233332Y-101278628D01*
X146233332Y-101278628D02*
X146280951Y-101373866D01*
X146280951Y-101373866D02*
X146280951Y-101564342D01*
X146280951Y-101564342D02*
X146233332Y-101659580D01*
X146233332Y-101659580D02*
X146185713Y-101707200D01*
X146185713Y-101707200D02*
X146090475Y-101754819D01*
X146090475Y-101754819D02*
X145899999Y-101754819D01*
X145899999Y-101754819D02*
X145804761Y-101707200D01*
X145804761Y-101707200D02*
X145757142Y-101659580D01*
X145757142Y-101659580D02*
X145709523Y-101564342D01*
X145709523Y-101564342D02*
X145709523Y-101373866D01*
X145709523Y-101373866D02*
X145757142Y-101278628D01*
X145757142Y-101278628D02*
X145804761Y-101231009D01*
X145804761Y-101231009D02*
X145899999Y-101183390D01*
X140509523Y-99231009D02*
X140842856Y-99231009D01*
X140842856Y-99754819D02*
X140842856Y-98754819D01*
X140842856Y-98754819D02*
X140366666Y-98754819D01*
X139461904Y-99754819D02*
X140033332Y-99754819D01*
X139747618Y-99754819D02*
X139747618Y-98754819D01*
X139747618Y-98754819D02*
X139842856Y-98897676D01*
X139842856Y-98897676D02*
X139938094Y-98992914D01*
X139938094Y-98992914D02*
X140033332Y-99040533D01*
X138985713Y-99754819D02*
X138795237Y-99754819D01*
X138795237Y-99754819D02*
X138699999Y-99707200D01*
X138699999Y-99707200D02*
X138652380Y-99659580D01*
X138652380Y-99659580D02*
X138557142Y-99516723D01*
X138557142Y-99516723D02*
X138509523Y-99326247D01*
X138509523Y-99326247D02*
X138509523Y-98945295D01*
X138509523Y-98945295D02*
X138557142Y-98850057D01*
X138557142Y-98850057D02*
X138604761Y-98802438D01*
X138604761Y-98802438D02*
X138699999Y-98754819D01*
X138699999Y-98754819D02*
X138890475Y-98754819D01*
X138890475Y-98754819D02*
X138985713Y-98802438D01*
X138985713Y-98802438D02*
X139033332Y-98850057D01*
X139033332Y-98850057D02*
X139080951Y-98945295D01*
X139080951Y-98945295D02*
X139080951Y-99183390D01*
X139080951Y-99183390D02*
X139033332Y-99278628D01*
X139033332Y-99278628D02*
X138985713Y-99326247D01*
X138985713Y-99326247D02*
X138890475Y-99373866D01*
X138890475Y-99373866D02*
X138699999Y-99373866D01*
X138699999Y-99373866D02*
X138604761Y-99326247D01*
X138604761Y-99326247D02*
X138557142Y-99278628D01*
X138557142Y-99278628D02*
X138509523Y-99183390D01*
D11*
X140274318Y-77507856D02*
X139004318Y-77507856D01*
X139004318Y-77507856D02*
X139004318Y-77810237D01*
X139004318Y-77810237D02*
X139064794Y-77991666D01*
X139064794Y-77991666D02*
X139185746Y-78112618D01*
X139185746Y-78112618D02*
X139306699Y-78173095D01*
X139306699Y-78173095D02*
X139548603Y-78233571D01*
X139548603Y-78233571D02*
X139730032Y-78233571D01*
X139730032Y-78233571D02*
X139971937Y-78173095D01*
X139971937Y-78173095D02*
X140092889Y-78112618D01*
X140092889Y-78112618D02*
X140213842Y-77991666D01*
X140213842Y-77991666D02*
X140274318Y-77810237D01*
X140274318Y-77810237D02*
X140274318Y-77507856D01*
X139004318Y-78656904D02*
X139004318Y-79443095D01*
X139004318Y-79443095D02*
X139488127Y-79019761D01*
X139488127Y-79019761D02*
X139488127Y-79201190D01*
X139488127Y-79201190D02*
X139548603Y-79322142D01*
X139548603Y-79322142D02*
X139609080Y-79382618D01*
X139609080Y-79382618D02*
X139730032Y-79443095D01*
X139730032Y-79443095D02*
X140032413Y-79443095D01*
X140032413Y-79443095D02*
X140153365Y-79382618D01*
X140153365Y-79382618D02*
X140213842Y-79322142D01*
X140213842Y-79322142D02*
X140274318Y-79201190D01*
X140274318Y-79201190D02*
X140274318Y-78838333D01*
X140274318Y-78838333D02*
X140213842Y-78717380D01*
X140213842Y-78717380D02*
X140153365Y-78656904D01*
X140274318Y-80047857D02*
X140274318Y-80289761D01*
X140274318Y-80289761D02*
X140213842Y-80410714D01*
X140213842Y-80410714D02*
X140153365Y-80471190D01*
X140153365Y-80471190D02*
X139971937Y-80592142D01*
X139971937Y-80592142D02*
X139730032Y-80652619D01*
X139730032Y-80652619D02*
X139246222Y-80652619D01*
X139246222Y-80652619D02*
X139125270Y-80592142D01*
X139125270Y-80592142D02*
X139064794Y-80531666D01*
X139064794Y-80531666D02*
X139004318Y-80410714D01*
X139004318Y-80410714D02*
X139004318Y-80168809D01*
X139004318Y-80168809D02*
X139064794Y-80047857D01*
X139064794Y-80047857D02*
X139125270Y-79987380D01*
X139125270Y-79987380D02*
X139246222Y-79926904D01*
X139246222Y-79926904D02*
X139548603Y-79926904D01*
X139548603Y-79926904D02*
X139669556Y-79987380D01*
X139669556Y-79987380D02*
X139730032Y-80047857D01*
X139730032Y-80047857D02*
X139790508Y-80168809D01*
X139790508Y-80168809D02*
X139790508Y-80410714D01*
X139790508Y-80410714D02*
X139730032Y-80531666D01*
X139730032Y-80531666D02*
X139669556Y-80592142D01*
X139669556Y-80592142D02*
X139548603Y-80652619D01*
D10*
X147709523Y-86231009D02*
X148042856Y-86231009D01*
X148042856Y-86754819D02*
X148042856Y-85754819D01*
X148042856Y-85754819D02*
X147566666Y-85754819D01*
X147233332Y-85850057D02*
X147185713Y-85802438D01*
X147185713Y-85802438D02*
X147090475Y-85754819D01*
X147090475Y-85754819D02*
X146852380Y-85754819D01*
X146852380Y-85754819D02*
X146757142Y-85802438D01*
X146757142Y-85802438D02*
X146709523Y-85850057D01*
X146709523Y-85850057D02*
X146661904Y-85945295D01*
X146661904Y-85945295D02*
X146661904Y-86040533D01*
X146661904Y-86040533D02*
X146709523Y-86183390D01*
X146709523Y-86183390D02*
X147280951Y-86754819D01*
X147280951Y-86754819D02*
X146661904Y-86754819D01*
X146280951Y-85850057D02*
X146233332Y-85802438D01*
X146233332Y-85802438D02*
X146138094Y-85754819D01*
X146138094Y-85754819D02*
X145899999Y-85754819D01*
X145899999Y-85754819D02*
X145804761Y-85802438D01*
X145804761Y-85802438D02*
X145757142Y-85850057D01*
X145757142Y-85850057D02*
X145709523Y-85945295D01*
X145709523Y-85945295D02*
X145709523Y-86040533D01*
X145709523Y-86040533D02*
X145757142Y-86183390D01*
X145757142Y-86183390D02*
X146328570Y-86754819D01*
X146328570Y-86754819D02*
X145709523Y-86754819D01*
X167854819Y-99835714D02*
X166854819Y-99835714D01*
X166854819Y-99835714D02*
X166854819Y-100073809D01*
X166854819Y-100073809D02*
X166902438Y-100216666D01*
X166902438Y-100216666D02*
X166997676Y-100311904D01*
X166997676Y-100311904D02*
X167092914Y-100359523D01*
X167092914Y-100359523D02*
X167283390Y-100407142D01*
X167283390Y-100407142D02*
X167426247Y-100407142D01*
X167426247Y-100407142D02*
X167616723Y-100359523D01*
X167616723Y-100359523D02*
X167711961Y-100311904D01*
X167711961Y-100311904D02*
X167807200Y-100216666D01*
X167807200Y-100216666D02*
X167854819Y-100073809D01*
X167854819Y-100073809D02*
X167854819Y-99835714D01*
X167188152Y-101264285D02*
X167854819Y-101264285D01*
X166807200Y-101026190D02*
X167521485Y-100788095D01*
X167521485Y-100788095D02*
X167521485Y-101407142D01*
X166854819Y-101978571D02*
X166854819Y-102073809D01*
X166854819Y-102073809D02*
X166902438Y-102169047D01*
X166902438Y-102169047D02*
X166950057Y-102216666D01*
X166950057Y-102216666D02*
X167045295Y-102264285D01*
X167045295Y-102264285D02*
X167235771Y-102311904D01*
X167235771Y-102311904D02*
X167473866Y-102311904D01*
X167473866Y-102311904D02*
X167664342Y-102264285D01*
X167664342Y-102264285D02*
X167759580Y-102216666D01*
X167759580Y-102216666D02*
X167807200Y-102169047D01*
X167807200Y-102169047D02*
X167854819Y-102073809D01*
X167854819Y-102073809D02*
X167854819Y-101978571D01*
X167854819Y-101978571D02*
X167807200Y-101883333D01*
X167807200Y-101883333D02*
X167759580Y-101835714D01*
X167759580Y-101835714D02*
X167664342Y-101788095D01*
X167664342Y-101788095D02*
X167473866Y-101740476D01*
X167473866Y-101740476D02*
X167235771Y-101740476D01*
X167235771Y-101740476D02*
X167045295Y-101788095D01*
X167045295Y-101788095D02*
X166950057Y-101835714D01*
X166950057Y-101835714D02*
X166902438Y-101883333D01*
X166902438Y-101883333D02*
X166854819Y-101978571D01*
X153454819Y-95835714D02*
X152454819Y-95835714D01*
X152454819Y-95835714D02*
X152454819Y-96073809D01*
X152454819Y-96073809D02*
X152502438Y-96216666D01*
X152502438Y-96216666D02*
X152597676Y-96311904D01*
X152597676Y-96311904D02*
X152692914Y-96359523D01*
X152692914Y-96359523D02*
X152883390Y-96407142D01*
X152883390Y-96407142D02*
X153026247Y-96407142D01*
X153026247Y-96407142D02*
X153216723Y-96359523D01*
X153216723Y-96359523D02*
X153311961Y-96311904D01*
X153311961Y-96311904D02*
X153407200Y-96216666D01*
X153407200Y-96216666D02*
X153454819Y-96073809D01*
X153454819Y-96073809D02*
X153454819Y-95835714D01*
X152788152Y-97264285D02*
X153454819Y-97264285D01*
X152407200Y-97026190D02*
X153121485Y-96788095D01*
X153121485Y-96788095D02*
X153121485Y-97407142D01*
X152550057Y-97740476D02*
X152502438Y-97788095D01*
X152502438Y-97788095D02*
X152454819Y-97883333D01*
X152454819Y-97883333D02*
X152454819Y-98121428D01*
X152454819Y-98121428D02*
X152502438Y-98216666D01*
X152502438Y-98216666D02*
X152550057Y-98264285D01*
X152550057Y-98264285D02*
X152645295Y-98311904D01*
X152645295Y-98311904D02*
X152740533Y-98311904D01*
X152740533Y-98311904D02*
X152883390Y-98264285D01*
X152883390Y-98264285D02*
X153454819Y-97692857D01*
X153454819Y-97692857D02*
X153454819Y-98311904D01*
X162109523Y-90231009D02*
X162442856Y-90231009D01*
X162442856Y-90754819D02*
X162442856Y-89754819D01*
X162442856Y-89754819D02*
X161966666Y-89754819D01*
X161633332Y-89850057D02*
X161585713Y-89802438D01*
X161585713Y-89802438D02*
X161490475Y-89754819D01*
X161490475Y-89754819D02*
X161252380Y-89754819D01*
X161252380Y-89754819D02*
X161157142Y-89802438D01*
X161157142Y-89802438D02*
X161109523Y-89850057D01*
X161109523Y-89850057D02*
X161061904Y-89945295D01*
X161061904Y-89945295D02*
X161061904Y-90040533D01*
X161061904Y-90040533D02*
X161109523Y-90183390D01*
X161109523Y-90183390D02*
X161680951Y-90754819D01*
X161680951Y-90754819D02*
X161061904Y-90754819D01*
X160442856Y-89754819D02*
X160347618Y-89754819D01*
X160347618Y-89754819D02*
X160252380Y-89802438D01*
X160252380Y-89802438D02*
X160204761Y-89850057D01*
X160204761Y-89850057D02*
X160157142Y-89945295D01*
X160157142Y-89945295D02*
X160109523Y-90135771D01*
X160109523Y-90135771D02*
X160109523Y-90373866D01*
X160109523Y-90373866D02*
X160157142Y-90564342D01*
X160157142Y-90564342D02*
X160204761Y-90659580D01*
X160204761Y-90659580D02*
X160252380Y-90707200D01*
X160252380Y-90707200D02*
X160347618Y-90754819D01*
X160347618Y-90754819D02*
X160442856Y-90754819D01*
X160442856Y-90754819D02*
X160538094Y-90707200D01*
X160538094Y-90707200D02*
X160585713Y-90659580D01*
X160585713Y-90659580D02*
X160633332Y-90564342D01*
X160633332Y-90564342D02*
X160680951Y-90373866D01*
X160680951Y-90373866D02*
X160680951Y-90135771D01*
X160680951Y-90135771D02*
X160633332Y-89945295D01*
X160633332Y-89945295D02*
X160585713Y-89850057D01*
X160585713Y-89850057D02*
X160538094Y-89802438D01*
X160538094Y-89802438D02*
X160442856Y-89754819D01*
D11*
X140274318Y-92507856D02*
X139004318Y-92507856D01*
X139004318Y-92507856D02*
X139004318Y-92810237D01*
X139004318Y-92810237D02*
X139064794Y-92991666D01*
X139064794Y-92991666D02*
X139185746Y-93112618D01*
X139185746Y-93112618D02*
X139306699Y-93173095D01*
X139306699Y-93173095D02*
X139548603Y-93233571D01*
X139548603Y-93233571D02*
X139730032Y-93233571D01*
X139730032Y-93233571D02*
X139971937Y-93173095D01*
X139971937Y-93173095D02*
X140092889Y-93112618D01*
X140092889Y-93112618D02*
X140213842Y-92991666D01*
X140213842Y-92991666D02*
X140274318Y-92810237D01*
X140274318Y-92810237D02*
X140274318Y-92507856D01*
X139004318Y-93656904D02*
X139004318Y-94443095D01*
X139004318Y-94443095D02*
X139488127Y-94019761D01*
X139488127Y-94019761D02*
X139488127Y-94201190D01*
X139488127Y-94201190D02*
X139548603Y-94322142D01*
X139548603Y-94322142D02*
X139609080Y-94382618D01*
X139609080Y-94382618D02*
X139730032Y-94443095D01*
X139730032Y-94443095D02*
X140032413Y-94443095D01*
X140032413Y-94443095D02*
X140153365Y-94382618D01*
X140153365Y-94382618D02*
X140213842Y-94322142D01*
X140213842Y-94322142D02*
X140274318Y-94201190D01*
X140274318Y-94201190D02*
X140274318Y-93838333D01*
X140274318Y-93838333D02*
X140213842Y-93717380D01*
X140213842Y-93717380D02*
X140153365Y-93656904D01*
X139004318Y-95592142D02*
X139004318Y-94987380D01*
X139004318Y-94987380D02*
X139609080Y-94926904D01*
X139609080Y-94926904D02*
X139548603Y-94987380D01*
X139548603Y-94987380D02*
X139488127Y-95108333D01*
X139488127Y-95108333D02*
X139488127Y-95410714D01*
X139488127Y-95410714D02*
X139548603Y-95531666D01*
X139548603Y-95531666D02*
X139609080Y-95592142D01*
X139609080Y-95592142D02*
X139730032Y-95652619D01*
X139730032Y-95652619D02*
X140032413Y-95652619D01*
X140032413Y-95652619D02*
X140153365Y-95592142D01*
X140153365Y-95592142D02*
X140213842Y-95531666D01*
X140213842Y-95531666D02*
X140274318Y-95410714D01*
X140274318Y-95410714D02*
X140274318Y-95108333D01*
X140274318Y-95108333D02*
X140213842Y-94987380D01*
X140213842Y-94987380D02*
X140153365Y-94926904D01*
X154674318Y-96507856D02*
X153404318Y-96507856D01*
X153404318Y-96507856D02*
X153404318Y-96810237D01*
X153404318Y-96810237D02*
X153464794Y-96991666D01*
X153464794Y-96991666D02*
X153585746Y-97112618D01*
X153585746Y-97112618D02*
X153706699Y-97173095D01*
X153706699Y-97173095D02*
X153948603Y-97233571D01*
X153948603Y-97233571D02*
X154130032Y-97233571D01*
X154130032Y-97233571D02*
X154371937Y-97173095D01*
X154371937Y-97173095D02*
X154492889Y-97112618D01*
X154492889Y-97112618D02*
X154613842Y-96991666D01*
X154613842Y-96991666D02*
X154674318Y-96810237D01*
X154674318Y-96810237D02*
X154674318Y-96507856D01*
X154674318Y-98443095D02*
X154674318Y-97717380D01*
X154674318Y-98080237D02*
X153404318Y-98080237D01*
X153404318Y-98080237D02*
X153585746Y-97959285D01*
X153585746Y-97959285D02*
X153706699Y-97838333D01*
X153706699Y-97838333D02*
X153767175Y-97717380D01*
X154674318Y-99047857D02*
X154674318Y-99289761D01*
X154674318Y-99289761D02*
X154613842Y-99410714D01*
X154613842Y-99410714D02*
X154553365Y-99471190D01*
X154553365Y-99471190D02*
X154371937Y-99592142D01*
X154371937Y-99592142D02*
X154130032Y-99652619D01*
X154130032Y-99652619D02*
X153646222Y-99652619D01*
X153646222Y-99652619D02*
X153525270Y-99592142D01*
X153525270Y-99592142D02*
X153464794Y-99531666D01*
X153464794Y-99531666D02*
X153404318Y-99410714D01*
X153404318Y-99410714D02*
X153404318Y-99168809D01*
X153404318Y-99168809D02*
X153464794Y-99047857D01*
X153464794Y-99047857D02*
X153525270Y-98987380D01*
X153525270Y-98987380D02*
X153646222Y-98926904D01*
X153646222Y-98926904D02*
X153948603Y-98926904D01*
X153948603Y-98926904D02*
X154069556Y-98987380D01*
X154069556Y-98987380D02*
X154130032Y-99047857D01*
X154130032Y-99047857D02*
X154190508Y-99168809D01*
X154190508Y-99168809D02*
X154190508Y-99410714D01*
X154190508Y-99410714D02*
X154130032Y-99531666D01*
X154130032Y-99531666D02*
X154069556Y-99592142D01*
X154069556Y-99592142D02*
X153948603Y-99652619D01*
X147474318Y-94507856D02*
X146204318Y-94507856D01*
X146204318Y-94507856D02*
X146204318Y-94810237D01*
X146204318Y-94810237D02*
X146264794Y-94991666D01*
X146264794Y-94991666D02*
X146385746Y-95112618D01*
X146385746Y-95112618D02*
X146506699Y-95173095D01*
X146506699Y-95173095D02*
X146748603Y-95233571D01*
X146748603Y-95233571D02*
X146930032Y-95233571D01*
X146930032Y-95233571D02*
X147171937Y-95173095D01*
X147171937Y-95173095D02*
X147292889Y-95112618D01*
X147292889Y-95112618D02*
X147413842Y-94991666D01*
X147413842Y-94991666D02*
X147474318Y-94810237D01*
X147474318Y-94810237D02*
X147474318Y-94507856D01*
X146204318Y-95656904D02*
X146204318Y-96443095D01*
X146204318Y-96443095D02*
X146688127Y-96019761D01*
X146688127Y-96019761D02*
X146688127Y-96201190D01*
X146688127Y-96201190D02*
X146748603Y-96322142D01*
X146748603Y-96322142D02*
X146809080Y-96382618D01*
X146809080Y-96382618D02*
X146930032Y-96443095D01*
X146930032Y-96443095D02*
X147232413Y-96443095D01*
X147232413Y-96443095D02*
X147353365Y-96382618D01*
X147353365Y-96382618D02*
X147413842Y-96322142D01*
X147413842Y-96322142D02*
X147474318Y-96201190D01*
X147474318Y-96201190D02*
X147474318Y-95838333D01*
X147474318Y-95838333D02*
X147413842Y-95717380D01*
X147413842Y-95717380D02*
X147353365Y-95656904D01*
X146627651Y-97531666D02*
X147474318Y-97531666D01*
X146143842Y-97229285D02*
X147050984Y-96926904D01*
X147050984Y-96926904D02*
X147050984Y-97713095D01*
D10*
X160654819Y-82835714D02*
X159654819Y-82835714D01*
X159654819Y-82835714D02*
X159654819Y-83073809D01*
X159654819Y-83073809D02*
X159702438Y-83216666D01*
X159702438Y-83216666D02*
X159797676Y-83311904D01*
X159797676Y-83311904D02*
X159892914Y-83359523D01*
X159892914Y-83359523D02*
X160083390Y-83407142D01*
X160083390Y-83407142D02*
X160226247Y-83407142D01*
X160226247Y-83407142D02*
X160416723Y-83359523D01*
X160416723Y-83359523D02*
X160511961Y-83311904D01*
X160511961Y-83311904D02*
X160607200Y-83216666D01*
X160607200Y-83216666D02*
X160654819Y-83073809D01*
X160654819Y-83073809D02*
X160654819Y-82835714D01*
X159988152Y-84264285D02*
X160654819Y-84264285D01*
X159607200Y-84026190D02*
X160321485Y-83788095D01*
X160321485Y-83788095D02*
X160321485Y-84407142D01*
X159654819Y-85264285D02*
X159654819Y-84788095D01*
X159654819Y-84788095D02*
X160131009Y-84740476D01*
X160131009Y-84740476D02*
X160083390Y-84788095D01*
X160083390Y-84788095D02*
X160035771Y-84883333D01*
X160035771Y-84883333D02*
X160035771Y-85121428D01*
X160035771Y-85121428D02*
X160083390Y-85216666D01*
X160083390Y-85216666D02*
X160131009Y-85264285D01*
X160131009Y-85264285D02*
X160226247Y-85311904D01*
X160226247Y-85311904D02*
X160464342Y-85311904D01*
X160464342Y-85311904D02*
X160559580Y-85264285D01*
X160559580Y-85264285D02*
X160607200Y-85216666D01*
X160607200Y-85216666D02*
X160654819Y-85121428D01*
X160654819Y-85121428D02*
X160654819Y-84883333D01*
X160654819Y-84883333D02*
X160607200Y-84788095D01*
X160607200Y-84788095D02*
X160559580Y-84740476D01*
X146254819Y-93835714D02*
X145254819Y-93835714D01*
X145254819Y-93835714D02*
X145254819Y-94073809D01*
X145254819Y-94073809D02*
X145302438Y-94216666D01*
X145302438Y-94216666D02*
X145397676Y-94311904D01*
X145397676Y-94311904D02*
X145492914Y-94359523D01*
X145492914Y-94359523D02*
X145683390Y-94407142D01*
X145683390Y-94407142D02*
X145826247Y-94407142D01*
X145826247Y-94407142D02*
X146016723Y-94359523D01*
X146016723Y-94359523D02*
X146111961Y-94311904D01*
X146111961Y-94311904D02*
X146207200Y-94216666D01*
X146207200Y-94216666D02*
X146254819Y-94073809D01*
X146254819Y-94073809D02*
X146254819Y-93835714D01*
X145588152Y-95264285D02*
X146254819Y-95264285D01*
X145207200Y-95026190D02*
X145921485Y-94788095D01*
X145921485Y-94788095D02*
X145921485Y-95407142D01*
X145254819Y-95692857D02*
X145254819Y-96311904D01*
X145254819Y-96311904D02*
X145635771Y-95978571D01*
X145635771Y-95978571D02*
X145635771Y-96121428D01*
X145635771Y-96121428D02*
X145683390Y-96216666D01*
X145683390Y-96216666D02*
X145731009Y-96264285D01*
X145731009Y-96264285D02*
X145826247Y-96311904D01*
X145826247Y-96311904D02*
X146064342Y-96311904D01*
X146064342Y-96311904D02*
X146159580Y-96264285D01*
X146159580Y-96264285D02*
X146207200Y-96216666D01*
X146207200Y-96216666D02*
X146254819Y-96121428D01*
X146254819Y-96121428D02*
X146254819Y-95835714D01*
X146254819Y-95835714D02*
X146207200Y-95740476D01*
X146207200Y-95740476D02*
X146159580Y-95692857D01*
X146254819Y-78835714D02*
X145254819Y-78835714D01*
X145254819Y-78835714D02*
X145254819Y-79073809D01*
X145254819Y-79073809D02*
X145302438Y-79216666D01*
X145302438Y-79216666D02*
X145397676Y-79311904D01*
X145397676Y-79311904D02*
X145492914Y-79359523D01*
X145492914Y-79359523D02*
X145683390Y-79407142D01*
X145683390Y-79407142D02*
X145826247Y-79407142D01*
X145826247Y-79407142D02*
X146016723Y-79359523D01*
X146016723Y-79359523D02*
X146111961Y-79311904D01*
X146111961Y-79311904D02*
X146207200Y-79216666D01*
X146207200Y-79216666D02*
X146254819Y-79073809D01*
X146254819Y-79073809D02*
X146254819Y-78835714D01*
X145588152Y-80264285D02*
X146254819Y-80264285D01*
X145207200Y-80026190D02*
X145921485Y-79788095D01*
X145921485Y-79788095D02*
X145921485Y-80407142D01*
X145254819Y-80692857D02*
X145254819Y-81359523D01*
X145254819Y-81359523D02*
X146254819Y-80930952D01*
D12*
%TO.C,F16*%
X161561252Y-104360000D02*
X161038748Y-104360000D01*
X161561252Y-102940000D02*
X161038748Y-102940000D01*
%TO.C,F17*%
X154361252Y-102360000D02*
X153838748Y-102360000D01*
X154361252Y-100940000D02*
X153838748Y-100940000D01*
%TO.C,F23*%
X139961252Y-83360000D02*
X139438748Y-83360000D01*
X139961252Y-81940000D02*
X139438748Y-81940000D01*
D13*
%TO.C,D18*%
X160375000Y-98550000D02*
X160375000Y-101550000D01*
X162225000Y-98550000D02*
X162225000Y-102312000D01*
D12*
%TO.C,F21*%
X154361252Y-87360000D02*
X153838748Y-87360000D01*
X154361252Y-85940000D02*
X153838748Y-85940000D01*
%TO.C,D44*%
X163290000Y-89460000D02*
X166510000Y-89460000D01*
X166510000Y-89460000D02*
X166510000Y-83650000D01*
X163290000Y-83650000D02*
X163290000Y-89460000D01*
D13*
%TO.C,D37*%
X153175000Y-81550000D02*
X153175000Y-84550000D01*
X155025000Y-81550000D02*
X155025000Y-85312000D01*
D12*
%TO.C,D41*%
X156090000Y-102460000D02*
X159310000Y-102460000D01*
X159310000Y-102460000D02*
X159310000Y-96650000D01*
X156090000Y-96650000D02*
X156090000Y-102460000D01*
D13*
%TO.C,D36*%
X160375000Y-83550000D02*
X160375000Y-86550000D01*
X162225000Y-83550000D02*
X162225000Y-87312000D01*
%TO.C,D38*%
X145975000Y-79550000D02*
X145975000Y-82550000D01*
X147825000Y-79550000D02*
X147825000Y-83312000D01*
D12*
%TO.C,D46*%
X148890000Y-85460000D02*
X152110000Y-85460000D01*
X152110000Y-85460000D02*
X152110000Y-79650000D01*
X148890000Y-79650000D02*
X148890000Y-85460000D01*
%TO.C,F18*%
X147161252Y-100360000D02*
X146638748Y-100360000D01*
X147161252Y-98940000D02*
X146638748Y-98940000D01*
%TO.C,F19*%
X139961252Y-98360000D02*
X139438748Y-98360000D01*
X139961252Y-96940000D02*
X139438748Y-96940000D01*
D13*
%TO.C,D39*%
X138775000Y-77550000D02*
X138775000Y-80550000D01*
X140625000Y-77550000D02*
X140625000Y-81312000D01*
D12*
%TO.C,F22*%
X147161252Y-85360000D02*
X146638748Y-85360000D01*
X147161252Y-83940000D02*
X146638748Y-83940000D01*
%TO.C,D40*%
X163290000Y-104460000D02*
X166510000Y-104460000D01*
X166510000Y-104460000D02*
X166510000Y-98650000D01*
X163290000Y-98650000D02*
X163290000Y-104460000D01*
%TO.C,D42*%
X148890000Y-100460000D02*
X152110000Y-100460000D01*
X152110000Y-100460000D02*
X152110000Y-94650000D01*
X148890000Y-94650000D02*
X148890000Y-100460000D01*
%TO.C,F20*%
X161561252Y-89360000D02*
X161038748Y-89360000D01*
X161561252Y-87940000D02*
X161038748Y-87940000D01*
D13*
%TO.C,D35*%
X138775000Y-92550000D02*
X138775000Y-95550000D01*
X140625000Y-92550000D02*
X140625000Y-96312000D01*
%TO.C,D19*%
X153175000Y-96550000D02*
X153175000Y-99550000D01*
X155025000Y-96550000D02*
X155025000Y-100312000D01*
%TO.C,D34*%
X145975000Y-94550000D02*
X145975000Y-97550000D01*
X147825000Y-94550000D02*
X147825000Y-98312000D01*
D12*
%TO.C,D45*%
X156090000Y-87460000D02*
X159310000Y-87460000D01*
X159310000Y-87460000D02*
X159310000Y-81650000D01*
X156090000Y-81650000D02*
X156090000Y-87460000D01*
%TO.C,D43*%
X141690000Y-98460000D02*
X144910000Y-98460000D01*
X144910000Y-98460000D02*
X144910000Y-92650000D01*
X141690000Y-92650000D02*
X141690000Y-98460000D01*
%TO.C,D47*%
X141690000Y-83460000D02*
X144910000Y-83460000D01*
X144910000Y-83460000D02*
X144910000Y-77650000D01*
X141690000Y-77650000D02*
X141690000Y-83460000D01*
%TD*%
M02*
