%TF.GenerationSoftware,KiCad,Pcbnew,8.0.7*%
%TF.CreationDate,2025-02-07T22:23:41+01:00*%
%TF.ProjectId,Teensy_board_09_prot_esd_1,5465656e-7379-45f6-926f-6172645f3039,rev?*%
%TF.SameCoordinates,Original*%
%TF.FileFunction,Legend,Top*%
%TF.FilePolarity,Positive*%
%FSLAX46Y46*%
G04 Gerber Fmt 4.6, Leading zero omitted, Abs format (unit mm)*
G04 Created by KiCad (PCBNEW 8.0.7) date 2025-02-07 22:23:41*
%MOMM*%
%LPD*%
G01*
G04 APERTURE LIST*
%ADD10C,0.150000*%
%ADD11C,0.120000*%
G04 APERTURE END LIST*
D10*
X162024819Y-96335714D02*
X162739104Y-96335714D01*
X162739104Y-96335714D02*
X162881961Y-96383333D01*
X162881961Y-96383333D02*
X162977200Y-96478571D01*
X162977200Y-96478571D02*
X163024819Y-96621428D01*
X163024819Y-96621428D02*
X163024819Y-96716666D01*
X162120057Y-95907142D02*
X162072438Y-95859523D01*
X162072438Y-95859523D02*
X162024819Y-95764285D01*
X162024819Y-95764285D02*
X162024819Y-95526190D01*
X162024819Y-95526190D02*
X162072438Y-95430952D01*
X162072438Y-95430952D02*
X162120057Y-95383333D01*
X162120057Y-95383333D02*
X162215295Y-95335714D01*
X162215295Y-95335714D02*
X162310533Y-95335714D01*
X162310533Y-95335714D02*
X162453390Y-95383333D01*
X162453390Y-95383333D02*
X163024819Y-95954761D01*
X163024819Y-95954761D02*
X163024819Y-95335714D01*
X162120057Y-94954761D02*
X162072438Y-94907142D01*
X162072438Y-94907142D02*
X162024819Y-94811904D01*
X162024819Y-94811904D02*
X162024819Y-94573809D01*
X162024819Y-94573809D02*
X162072438Y-94478571D01*
X162072438Y-94478571D02*
X162120057Y-94430952D01*
X162120057Y-94430952D02*
X162215295Y-94383333D01*
X162215295Y-94383333D02*
X162310533Y-94383333D01*
X162310533Y-94383333D02*
X162453390Y-94430952D01*
X162453390Y-94430952D02*
X163024819Y-95002380D01*
X163024819Y-95002380D02*
X163024819Y-94383333D01*
X163024819Y-93907142D02*
X163024819Y-93716666D01*
X163024819Y-93716666D02*
X162977200Y-93621428D01*
X162977200Y-93621428D02*
X162929580Y-93573809D01*
X162929580Y-93573809D02*
X162786723Y-93478571D01*
X162786723Y-93478571D02*
X162596247Y-93430952D01*
X162596247Y-93430952D02*
X162215295Y-93430952D01*
X162215295Y-93430952D02*
X162120057Y-93478571D01*
X162120057Y-93478571D02*
X162072438Y-93526190D01*
X162072438Y-93526190D02*
X162024819Y-93621428D01*
X162024819Y-93621428D02*
X162024819Y-93811904D01*
X162024819Y-93811904D02*
X162072438Y-93907142D01*
X162072438Y-93907142D02*
X162120057Y-93954761D01*
X162120057Y-93954761D02*
X162215295Y-94002380D01*
X162215295Y-94002380D02*
X162453390Y-94002380D01*
X162453390Y-94002380D02*
X162548628Y-93954761D01*
X162548628Y-93954761D02*
X162596247Y-93907142D01*
X162596247Y-93907142D02*
X162643866Y-93811904D01*
X162643866Y-93811904D02*
X162643866Y-93621428D01*
X162643866Y-93621428D02*
X162596247Y-93526190D01*
X162596247Y-93526190D02*
X162548628Y-93478571D01*
X162548628Y-93478571D02*
X162453390Y-93430952D01*
X154824819Y-90535714D02*
X155539104Y-90535714D01*
X155539104Y-90535714D02*
X155681961Y-90583333D01*
X155681961Y-90583333D02*
X155777200Y-90678571D01*
X155777200Y-90678571D02*
X155824819Y-90821428D01*
X155824819Y-90821428D02*
X155824819Y-90916666D01*
X154920057Y-90107142D02*
X154872438Y-90059523D01*
X154872438Y-90059523D02*
X154824819Y-89964285D01*
X154824819Y-89964285D02*
X154824819Y-89726190D01*
X154824819Y-89726190D02*
X154872438Y-89630952D01*
X154872438Y-89630952D02*
X154920057Y-89583333D01*
X154920057Y-89583333D02*
X155015295Y-89535714D01*
X155015295Y-89535714D02*
X155110533Y-89535714D01*
X155110533Y-89535714D02*
X155253390Y-89583333D01*
X155253390Y-89583333D02*
X155824819Y-90154761D01*
X155824819Y-90154761D02*
X155824819Y-89535714D01*
X155824819Y-88583333D02*
X155824819Y-89154761D01*
X155824819Y-88869047D02*
X154824819Y-88869047D01*
X154824819Y-88869047D02*
X154967676Y-88964285D01*
X154967676Y-88964285D02*
X155062914Y-89059523D01*
X155062914Y-89059523D02*
X155110533Y-89154761D01*
X155824819Y-88107142D02*
X155824819Y-87916666D01*
X155824819Y-87916666D02*
X155777200Y-87821428D01*
X155777200Y-87821428D02*
X155729580Y-87773809D01*
X155729580Y-87773809D02*
X155586723Y-87678571D01*
X155586723Y-87678571D02*
X155396247Y-87630952D01*
X155396247Y-87630952D02*
X155015295Y-87630952D01*
X155015295Y-87630952D02*
X154920057Y-87678571D01*
X154920057Y-87678571D02*
X154872438Y-87726190D01*
X154872438Y-87726190D02*
X154824819Y-87821428D01*
X154824819Y-87821428D02*
X154824819Y-88011904D01*
X154824819Y-88011904D02*
X154872438Y-88107142D01*
X154872438Y-88107142D02*
X154920057Y-88154761D01*
X154920057Y-88154761D02*
X155015295Y-88202380D01*
X155015295Y-88202380D02*
X155253390Y-88202380D01*
X155253390Y-88202380D02*
X155348628Y-88154761D01*
X155348628Y-88154761D02*
X155396247Y-88107142D01*
X155396247Y-88107142D02*
X155443866Y-88011904D01*
X155443866Y-88011904D02*
X155443866Y-87821428D01*
X155443866Y-87821428D02*
X155396247Y-87726190D01*
X155396247Y-87726190D02*
X155348628Y-87678571D01*
X155348628Y-87678571D02*
X155253390Y-87630952D01*
X162024819Y-107059523D02*
X162739104Y-107059523D01*
X162739104Y-107059523D02*
X162881961Y-107107142D01*
X162881961Y-107107142D02*
X162977200Y-107202380D01*
X162977200Y-107202380D02*
X163024819Y-107345237D01*
X163024819Y-107345237D02*
X163024819Y-107440475D01*
X162358152Y-106154761D02*
X163024819Y-106154761D01*
X161977200Y-106392856D02*
X162691485Y-106630951D01*
X162691485Y-106630951D02*
X162691485Y-106011904D01*
X162024819Y-105202380D02*
X162024819Y-105392856D01*
X162024819Y-105392856D02*
X162072438Y-105488094D01*
X162072438Y-105488094D02*
X162120057Y-105535713D01*
X162120057Y-105535713D02*
X162262914Y-105630951D01*
X162262914Y-105630951D02*
X162453390Y-105678570D01*
X162453390Y-105678570D02*
X162834342Y-105678570D01*
X162834342Y-105678570D02*
X162929580Y-105630951D01*
X162929580Y-105630951D02*
X162977200Y-105583332D01*
X162977200Y-105583332D02*
X163024819Y-105488094D01*
X163024819Y-105488094D02*
X163024819Y-105297618D01*
X163024819Y-105297618D02*
X162977200Y-105202380D01*
X162977200Y-105202380D02*
X162929580Y-105154761D01*
X162929580Y-105154761D02*
X162834342Y-105107142D01*
X162834342Y-105107142D02*
X162596247Y-105107142D01*
X162596247Y-105107142D02*
X162501009Y-105154761D01*
X162501009Y-105154761D02*
X162453390Y-105202380D01*
X162453390Y-105202380D02*
X162405771Y-105297618D01*
X162405771Y-105297618D02*
X162405771Y-105488094D01*
X162405771Y-105488094D02*
X162453390Y-105583332D01*
X162453390Y-105583332D02*
X162501009Y-105630951D01*
X162501009Y-105630951D02*
X162596247Y-105678570D01*
X132214285Y-100434819D02*
X132214285Y-101149104D01*
X132214285Y-101149104D02*
X132166666Y-101291961D01*
X132166666Y-101291961D02*
X132071428Y-101387200D01*
X132071428Y-101387200D02*
X131928571Y-101434819D01*
X131928571Y-101434819D02*
X131833333Y-101434819D01*
X133214285Y-101434819D02*
X132642857Y-101434819D01*
X132928571Y-101434819D02*
X132928571Y-100434819D01*
X132928571Y-100434819D02*
X132833333Y-100577676D01*
X132833333Y-100577676D02*
X132738095Y-100672914D01*
X132738095Y-100672914D02*
X132642857Y-100720533D01*
X134071428Y-100768152D02*
X134071428Y-101434819D01*
X133833333Y-100387200D02*
X133595238Y-101101485D01*
X133595238Y-101101485D02*
X134214285Y-101101485D01*
X134738095Y-100863390D02*
X134642857Y-100815771D01*
X134642857Y-100815771D02*
X134595238Y-100768152D01*
X134595238Y-100768152D02*
X134547619Y-100672914D01*
X134547619Y-100672914D02*
X134547619Y-100625295D01*
X134547619Y-100625295D02*
X134595238Y-100530057D01*
X134595238Y-100530057D02*
X134642857Y-100482438D01*
X134642857Y-100482438D02*
X134738095Y-100434819D01*
X134738095Y-100434819D02*
X134928571Y-100434819D01*
X134928571Y-100434819D02*
X135023809Y-100482438D01*
X135023809Y-100482438D02*
X135071428Y-100530057D01*
X135071428Y-100530057D02*
X135119047Y-100625295D01*
X135119047Y-100625295D02*
X135119047Y-100672914D01*
X135119047Y-100672914D02*
X135071428Y-100768152D01*
X135071428Y-100768152D02*
X135023809Y-100815771D01*
X135023809Y-100815771D02*
X134928571Y-100863390D01*
X134928571Y-100863390D02*
X134738095Y-100863390D01*
X134738095Y-100863390D02*
X134642857Y-100911009D01*
X134642857Y-100911009D02*
X134595238Y-100958628D01*
X134595238Y-100958628D02*
X134547619Y-101053866D01*
X134547619Y-101053866D02*
X134547619Y-101244342D01*
X134547619Y-101244342D02*
X134595238Y-101339580D01*
X134595238Y-101339580D02*
X134642857Y-101387200D01*
X134642857Y-101387200D02*
X134738095Y-101434819D01*
X134738095Y-101434819D02*
X134928571Y-101434819D01*
X134928571Y-101434819D02*
X135023809Y-101387200D01*
X135023809Y-101387200D02*
X135071428Y-101339580D01*
X135071428Y-101339580D02*
X135119047Y-101244342D01*
X135119047Y-101244342D02*
X135119047Y-101053866D01*
X135119047Y-101053866D02*
X135071428Y-100958628D01*
X135071428Y-100958628D02*
X135023809Y-100911009D01*
X135023809Y-100911009D02*
X134928571Y-100863390D01*
X132214285Y-104034819D02*
X132214285Y-104749104D01*
X132214285Y-104749104D02*
X132166666Y-104891961D01*
X132166666Y-104891961D02*
X132071428Y-104987200D01*
X132071428Y-104987200D02*
X131928571Y-105034819D01*
X131928571Y-105034819D02*
X131833333Y-105034819D01*
X133214285Y-105034819D02*
X132642857Y-105034819D01*
X132928571Y-105034819D02*
X132928571Y-104034819D01*
X132928571Y-104034819D02*
X132833333Y-104177676D01*
X132833333Y-104177676D02*
X132738095Y-104272914D01*
X132738095Y-104272914D02*
X132642857Y-104320533D01*
X134071428Y-104368152D02*
X134071428Y-105034819D01*
X133833333Y-103987200D02*
X133595238Y-104701485D01*
X133595238Y-104701485D02*
X134214285Y-104701485D01*
X134500000Y-104034819D02*
X135166666Y-104034819D01*
X135166666Y-104034819D02*
X134738095Y-105034819D01*
X132214285Y-107634819D02*
X132214285Y-108349104D01*
X132214285Y-108349104D02*
X132166666Y-108491961D01*
X132166666Y-108491961D02*
X132071428Y-108587200D01*
X132071428Y-108587200D02*
X131928571Y-108634819D01*
X131928571Y-108634819D02*
X131833333Y-108634819D01*
X133214285Y-108634819D02*
X132642857Y-108634819D01*
X132928571Y-108634819D02*
X132928571Y-107634819D01*
X132928571Y-107634819D02*
X132833333Y-107777676D01*
X132833333Y-107777676D02*
X132738095Y-107872914D01*
X132738095Y-107872914D02*
X132642857Y-107920533D01*
X134071428Y-107968152D02*
X134071428Y-108634819D01*
X133833333Y-107587200D02*
X133595238Y-108301485D01*
X133595238Y-108301485D02*
X134214285Y-108301485D01*
X135023809Y-107634819D02*
X134833333Y-107634819D01*
X134833333Y-107634819D02*
X134738095Y-107682438D01*
X134738095Y-107682438D02*
X134690476Y-107730057D01*
X134690476Y-107730057D02*
X134595238Y-107872914D01*
X134595238Y-107872914D02*
X134547619Y-108063390D01*
X134547619Y-108063390D02*
X134547619Y-108444342D01*
X134547619Y-108444342D02*
X134595238Y-108539580D01*
X134595238Y-108539580D02*
X134642857Y-108587200D01*
X134642857Y-108587200D02*
X134738095Y-108634819D01*
X134738095Y-108634819D02*
X134928571Y-108634819D01*
X134928571Y-108634819D02*
X135023809Y-108587200D01*
X135023809Y-108587200D02*
X135071428Y-108539580D01*
X135071428Y-108539580D02*
X135119047Y-108444342D01*
X135119047Y-108444342D02*
X135119047Y-108206247D01*
X135119047Y-108206247D02*
X135071428Y-108111009D01*
X135071428Y-108111009D02*
X135023809Y-108063390D01*
X135023809Y-108063390D02*
X134928571Y-108015771D01*
X134928571Y-108015771D02*
X134738095Y-108015771D01*
X134738095Y-108015771D02*
X134642857Y-108063390D01*
X134642857Y-108063390D02*
X134595238Y-108111009D01*
X134595238Y-108111009D02*
X134547619Y-108206247D01*
X147624819Y-103535714D02*
X148339104Y-103535714D01*
X148339104Y-103535714D02*
X148481961Y-103583333D01*
X148481961Y-103583333D02*
X148577200Y-103678571D01*
X148577200Y-103678571D02*
X148624819Y-103821428D01*
X148624819Y-103821428D02*
X148624819Y-103916666D01*
X147720057Y-103107142D02*
X147672438Y-103059523D01*
X147672438Y-103059523D02*
X147624819Y-102964285D01*
X147624819Y-102964285D02*
X147624819Y-102726190D01*
X147624819Y-102726190D02*
X147672438Y-102630952D01*
X147672438Y-102630952D02*
X147720057Y-102583333D01*
X147720057Y-102583333D02*
X147815295Y-102535714D01*
X147815295Y-102535714D02*
X147910533Y-102535714D01*
X147910533Y-102535714D02*
X148053390Y-102583333D01*
X148053390Y-102583333D02*
X148624819Y-103154761D01*
X148624819Y-103154761D02*
X148624819Y-102535714D01*
X148624819Y-101583333D02*
X148624819Y-102154761D01*
X148624819Y-101869047D02*
X147624819Y-101869047D01*
X147624819Y-101869047D02*
X147767676Y-101964285D01*
X147767676Y-101964285D02*
X147862914Y-102059523D01*
X147862914Y-102059523D02*
X147910533Y-102154761D01*
X147624819Y-100726190D02*
X147624819Y-100916666D01*
X147624819Y-100916666D02*
X147672438Y-101011904D01*
X147672438Y-101011904D02*
X147720057Y-101059523D01*
X147720057Y-101059523D02*
X147862914Y-101154761D01*
X147862914Y-101154761D02*
X148053390Y-101202380D01*
X148053390Y-101202380D02*
X148434342Y-101202380D01*
X148434342Y-101202380D02*
X148529580Y-101154761D01*
X148529580Y-101154761D02*
X148577200Y-101107142D01*
X148577200Y-101107142D02*
X148624819Y-101011904D01*
X148624819Y-101011904D02*
X148624819Y-100821428D01*
X148624819Y-100821428D02*
X148577200Y-100726190D01*
X148577200Y-100726190D02*
X148529580Y-100678571D01*
X148529580Y-100678571D02*
X148434342Y-100630952D01*
X148434342Y-100630952D02*
X148196247Y-100630952D01*
X148196247Y-100630952D02*
X148101009Y-100678571D01*
X148101009Y-100678571D02*
X148053390Y-100726190D01*
X148053390Y-100726190D02*
X148005771Y-100821428D01*
X148005771Y-100821428D02*
X148005771Y-101011904D01*
X148005771Y-101011904D02*
X148053390Y-101107142D01*
X148053390Y-101107142D02*
X148101009Y-101154761D01*
X148101009Y-101154761D02*
X148196247Y-101202380D01*
X162024819Y-92535714D02*
X162739104Y-92535714D01*
X162739104Y-92535714D02*
X162881961Y-92583333D01*
X162881961Y-92583333D02*
X162977200Y-92678571D01*
X162977200Y-92678571D02*
X163024819Y-92821428D01*
X163024819Y-92821428D02*
X163024819Y-92916666D01*
X162120057Y-92107142D02*
X162072438Y-92059523D01*
X162072438Y-92059523D02*
X162024819Y-91964285D01*
X162024819Y-91964285D02*
X162024819Y-91726190D01*
X162024819Y-91726190D02*
X162072438Y-91630952D01*
X162072438Y-91630952D02*
X162120057Y-91583333D01*
X162120057Y-91583333D02*
X162215295Y-91535714D01*
X162215295Y-91535714D02*
X162310533Y-91535714D01*
X162310533Y-91535714D02*
X162453390Y-91583333D01*
X162453390Y-91583333D02*
X163024819Y-92154761D01*
X163024819Y-92154761D02*
X163024819Y-91535714D01*
X163024819Y-90583333D02*
X163024819Y-91154761D01*
X163024819Y-90869047D02*
X162024819Y-90869047D01*
X162024819Y-90869047D02*
X162167676Y-90964285D01*
X162167676Y-90964285D02*
X162262914Y-91059523D01*
X162262914Y-91059523D02*
X162310533Y-91154761D01*
X162453390Y-90011904D02*
X162405771Y-90107142D01*
X162405771Y-90107142D02*
X162358152Y-90154761D01*
X162358152Y-90154761D02*
X162262914Y-90202380D01*
X162262914Y-90202380D02*
X162215295Y-90202380D01*
X162215295Y-90202380D02*
X162120057Y-90154761D01*
X162120057Y-90154761D02*
X162072438Y-90107142D01*
X162072438Y-90107142D02*
X162024819Y-90011904D01*
X162024819Y-90011904D02*
X162024819Y-89821428D01*
X162024819Y-89821428D02*
X162072438Y-89726190D01*
X162072438Y-89726190D02*
X162120057Y-89678571D01*
X162120057Y-89678571D02*
X162215295Y-89630952D01*
X162215295Y-89630952D02*
X162262914Y-89630952D01*
X162262914Y-89630952D02*
X162358152Y-89678571D01*
X162358152Y-89678571D02*
X162405771Y-89726190D01*
X162405771Y-89726190D02*
X162453390Y-89821428D01*
X162453390Y-89821428D02*
X162453390Y-90011904D01*
X162453390Y-90011904D02*
X162501009Y-90107142D01*
X162501009Y-90107142D02*
X162548628Y-90154761D01*
X162548628Y-90154761D02*
X162643866Y-90202380D01*
X162643866Y-90202380D02*
X162834342Y-90202380D01*
X162834342Y-90202380D02*
X162929580Y-90154761D01*
X162929580Y-90154761D02*
X162977200Y-90107142D01*
X162977200Y-90107142D02*
X163024819Y-90011904D01*
X163024819Y-90011904D02*
X163024819Y-89821428D01*
X163024819Y-89821428D02*
X162977200Y-89726190D01*
X162977200Y-89726190D02*
X162929580Y-89678571D01*
X162929580Y-89678571D02*
X162834342Y-89630952D01*
X162834342Y-89630952D02*
X162643866Y-89630952D01*
X162643866Y-89630952D02*
X162548628Y-89678571D01*
X162548628Y-89678571D02*
X162501009Y-89726190D01*
X162501009Y-89726190D02*
X162453390Y-89821428D01*
X158424819Y-96335714D02*
X159139104Y-96335714D01*
X159139104Y-96335714D02*
X159281961Y-96383333D01*
X159281961Y-96383333D02*
X159377200Y-96478571D01*
X159377200Y-96478571D02*
X159424819Y-96621428D01*
X159424819Y-96621428D02*
X159424819Y-96716666D01*
X158520057Y-95907142D02*
X158472438Y-95859523D01*
X158472438Y-95859523D02*
X158424819Y-95764285D01*
X158424819Y-95764285D02*
X158424819Y-95526190D01*
X158424819Y-95526190D02*
X158472438Y-95430952D01*
X158472438Y-95430952D02*
X158520057Y-95383333D01*
X158520057Y-95383333D02*
X158615295Y-95335714D01*
X158615295Y-95335714D02*
X158710533Y-95335714D01*
X158710533Y-95335714D02*
X158853390Y-95383333D01*
X158853390Y-95383333D02*
X159424819Y-95954761D01*
X159424819Y-95954761D02*
X159424819Y-95335714D01*
X158424819Y-95002380D02*
X158424819Y-94383333D01*
X158424819Y-94383333D02*
X158805771Y-94716666D01*
X158805771Y-94716666D02*
X158805771Y-94573809D01*
X158805771Y-94573809D02*
X158853390Y-94478571D01*
X158853390Y-94478571D02*
X158901009Y-94430952D01*
X158901009Y-94430952D02*
X158996247Y-94383333D01*
X158996247Y-94383333D02*
X159234342Y-94383333D01*
X159234342Y-94383333D02*
X159329580Y-94430952D01*
X159329580Y-94430952D02*
X159377200Y-94478571D01*
X159377200Y-94478571D02*
X159424819Y-94573809D01*
X159424819Y-94573809D02*
X159424819Y-94859523D01*
X159424819Y-94859523D02*
X159377200Y-94954761D01*
X159377200Y-94954761D02*
X159329580Y-95002380D01*
X158424819Y-93764285D02*
X158424819Y-93669047D01*
X158424819Y-93669047D02*
X158472438Y-93573809D01*
X158472438Y-93573809D02*
X158520057Y-93526190D01*
X158520057Y-93526190D02*
X158615295Y-93478571D01*
X158615295Y-93478571D02*
X158805771Y-93430952D01*
X158805771Y-93430952D02*
X159043866Y-93430952D01*
X159043866Y-93430952D02*
X159234342Y-93478571D01*
X159234342Y-93478571D02*
X159329580Y-93526190D01*
X159329580Y-93526190D02*
X159377200Y-93573809D01*
X159377200Y-93573809D02*
X159424819Y-93669047D01*
X159424819Y-93669047D02*
X159424819Y-93764285D01*
X159424819Y-93764285D02*
X159377200Y-93859523D01*
X159377200Y-93859523D02*
X159329580Y-93907142D01*
X159329580Y-93907142D02*
X159234342Y-93954761D01*
X159234342Y-93954761D02*
X159043866Y-94002380D01*
X159043866Y-94002380D02*
X158805771Y-94002380D01*
X158805771Y-94002380D02*
X158615295Y-93954761D01*
X158615295Y-93954761D02*
X158520057Y-93907142D01*
X158520057Y-93907142D02*
X158472438Y-93859523D01*
X158472438Y-93859523D02*
X158424819Y-93764285D01*
X132214285Y-86034819D02*
X132214285Y-86749104D01*
X132214285Y-86749104D02*
X132166666Y-86891961D01*
X132166666Y-86891961D02*
X132071428Y-86987200D01*
X132071428Y-86987200D02*
X131928571Y-87034819D01*
X131928571Y-87034819D02*
X131833333Y-87034819D01*
X133214285Y-87034819D02*
X132642857Y-87034819D01*
X132928571Y-87034819D02*
X132928571Y-86034819D01*
X132928571Y-86034819D02*
X132833333Y-86177676D01*
X132833333Y-86177676D02*
X132738095Y-86272914D01*
X132738095Y-86272914D02*
X132642857Y-86320533D01*
X134119047Y-86034819D02*
X133642857Y-86034819D01*
X133642857Y-86034819D02*
X133595238Y-86511009D01*
X133595238Y-86511009D02*
X133642857Y-86463390D01*
X133642857Y-86463390D02*
X133738095Y-86415771D01*
X133738095Y-86415771D02*
X133976190Y-86415771D01*
X133976190Y-86415771D02*
X134071428Y-86463390D01*
X134071428Y-86463390D02*
X134119047Y-86511009D01*
X134119047Y-86511009D02*
X134166666Y-86606247D01*
X134166666Y-86606247D02*
X134166666Y-86844342D01*
X134166666Y-86844342D02*
X134119047Y-86939580D01*
X134119047Y-86939580D02*
X134071428Y-86987200D01*
X134071428Y-86987200D02*
X133976190Y-87034819D01*
X133976190Y-87034819D02*
X133738095Y-87034819D01*
X133738095Y-87034819D02*
X133642857Y-86987200D01*
X133642857Y-86987200D02*
X133595238Y-86939580D01*
X134547619Y-86130057D02*
X134595238Y-86082438D01*
X134595238Y-86082438D02*
X134690476Y-86034819D01*
X134690476Y-86034819D02*
X134928571Y-86034819D01*
X134928571Y-86034819D02*
X135023809Y-86082438D01*
X135023809Y-86082438D02*
X135071428Y-86130057D01*
X135071428Y-86130057D02*
X135119047Y-86225295D01*
X135119047Y-86225295D02*
X135119047Y-86320533D01*
X135119047Y-86320533D02*
X135071428Y-86463390D01*
X135071428Y-86463390D02*
X134500000Y-87034819D01*
X134500000Y-87034819D02*
X135119047Y-87034819D01*
X147624819Y-88535714D02*
X148339104Y-88535714D01*
X148339104Y-88535714D02*
X148481961Y-88583333D01*
X148481961Y-88583333D02*
X148577200Y-88678571D01*
X148577200Y-88678571D02*
X148624819Y-88821428D01*
X148624819Y-88821428D02*
X148624819Y-88916666D01*
X147720057Y-88107142D02*
X147672438Y-88059523D01*
X147672438Y-88059523D02*
X147624819Y-87964285D01*
X147624819Y-87964285D02*
X147624819Y-87726190D01*
X147624819Y-87726190D02*
X147672438Y-87630952D01*
X147672438Y-87630952D02*
X147720057Y-87583333D01*
X147720057Y-87583333D02*
X147815295Y-87535714D01*
X147815295Y-87535714D02*
X147910533Y-87535714D01*
X147910533Y-87535714D02*
X148053390Y-87583333D01*
X148053390Y-87583333D02*
X148624819Y-88154761D01*
X148624819Y-88154761D02*
X148624819Y-87535714D01*
X147720057Y-87154761D02*
X147672438Y-87107142D01*
X147672438Y-87107142D02*
X147624819Y-87011904D01*
X147624819Y-87011904D02*
X147624819Y-86773809D01*
X147624819Y-86773809D02*
X147672438Y-86678571D01*
X147672438Y-86678571D02*
X147720057Y-86630952D01*
X147720057Y-86630952D02*
X147815295Y-86583333D01*
X147815295Y-86583333D02*
X147910533Y-86583333D01*
X147910533Y-86583333D02*
X148053390Y-86630952D01*
X148053390Y-86630952D02*
X148624819Y-87202380D01*
X148624819Y-87202380D02*
X148624819Y-86583333D01*
X147624819Y-85964285D02*
X147624819Y-85869047D01*
X147624819Y-85869047D02*
X147672438Y-85773809D01*
X147672438Y-85773809D02*
X147720057Y-85726190D01*
X147720057Y-85726190D02*
X147815295Y-85678571D01*
X147815295Y-85678571D02*
X148005771Y-85630952D01*
X148005771Y-85630952D02*
X148243866Y-85630952D01*
X148243866Y-85630952D02*
X148434342Y-85678571D01*
X148434342Y-85678571D02*
X148529580Y-85726190D01*
X148529580Y-85726190D02*
X148577200Y-85773809D01*
X148577200Y-85773809D02*
X148624819Y-85869047D01*
X148624819Y-85869047D02*
X148624819Y-85964285D01*
X148624819Y-85964285D02*
X148577200Y-86059523D01*
X148577200Y-86059523D02*
X148529580Y-86107142D01*
X148529580Y-86107142D02*
X148434342Y-86154761D01*
X148434342Y-86154761D02*
X148243866Y-86202380D01*
X148243866Y-86202380D02*
X148005771Y-86202380D01*
X148005771Y-86202380D02*
X147815295Y-86154761D01*
X147815295Y-86154761D02*
X147720057Y-86107142D01*
X147720057Y-86107142D02*
X147672438Y-86059523D01*
X147672438Y-86059523D02*
X147624819Y-85964285D01*
X132214285Y-89634819D02*
X132214285Y-90349104D01*
X132214285Y-90349104D02*
X132166666Y-90491961D01*
X132166666Y-90491961D02*
X132071428Y-90587200D01*
X132071428Y-90587200D02*
X131928571Y-90634819D01*
X131928571Y-90634819D02*
X131833333Y-90634819D01*
X133214285Y-90634819D02*
X132642857Y-90634819D01*
X132928571Y-90634819D02*
X132928571Y-89634819D01*
X132928571Y-89634819D02*
X132833333Y-89777676D01*
X132833333Y-89777676D02*
X132738095Y-89872914D01*
X132738095Y-89872914D02*
X132642857Y-89920533D01*
X134119047Y-89634819D02*
X133642857Y-89634819D01*
X133642857Y-89634819D02*
X133595238Y-90111009D01*
X133595238Y-90111009D02*
X133642857Y-90063390D01*
X133642857Y-90063390D02*
X133738095Y-90015771D01*
X133738095Y-90015771D02*
X133976190Y-90015771D01*
X133976190Y-90015771D02*
X134071428Y-90063390D01*
X134071428Y-90063390D02*
X134119047Y-90111009D01*
X134119047Y-90111009D02*
X134166666Y-90206247D01*
X134166666Y-90206247D02*
X134166666Y-90444342D01*
X134166666Y-90444342D02*
X134119047Y-90539580D01*
X134119047Y-90539580D02*
X134071428Y-90587200D01*
X134071428Y-90587200D02*
X133976190Y-90634819D01*
X133976190Y-90634819D02*
X133738095Y-90634819D01*
X133738095Y-90634819D02*
X133642857Y-90587200D01*
X133642857Y-90587200D02*
X133595238Y-90539580D01*
X135119047Y-90634819D02*
X134547619Y-90634819D01*
X134833333Y-90634819D02*
X134833333Y-89634819D01*
X134833333Y-89634819D02*
X134738095Y-89777676D01*
X134738095Y-89777676D02*
X134642857Y-89872914D01*
X134642857Y-89872914D02*
X134547619Y-89920533D01*
X140424819Y-101535714D02*
X141139104Y-101535714D01*
X141139104Y-101535714D02*
X141281961Y-101583333D01*
X141281961Y-101583333D02*
X141377200Y-101678571D01*
X141377200Y-101678571D02*
X141424819Y-101821428D01*
X141424819Y-101821428D02*
X141424819Y-101916666D01*
X140520057Y-101107142D02*
X140472438Y-101059523D01*
X140472438Y-101059523D02*
X140424819Y-100964285D01*
X140424819Y-100964285D02*
X140424819Y-100726190D01*
X140424819Y-100726190D02*
X140472438Y-100630952D01*
X140472438Y-100630952D02*
X140520057Y-100583333D01*
X140520057Y-100583333D02*
X140615295Y-100535714D01*
X140615295Y-100535714D02*
X140710533Y-100535714D01*
X140710533Y-100535714D02*
X140853390Y-100583333D01*
X140853390Y-100583333D02*
X141424819Y-101154761D01*
X141424819Y-101154761D02*
X141424819Y-100535714D01*
X141424819Y-99583333D02*
X141424819Y-100154761D01*
X141424819Y-99869047D02*
X140424819Y-99869047D01*
X140424819Y-99869047D02*
X140567676Y-99964285D01*
X140567676Y-99964285D02*
X140662914Y-100059523D01*
X140662914Y-100059523D02*
X140710533Y-100154761D01*
X140424819Y-99249999D02*
X140424819Y-98583333D01*
X140424819Y-98583333D02*
X141424819Y-99011904D01*
X140424819Y-86535714D02*
X141139104Y-86535714D01*
X141139104Y-86535714D02*
X141281961Y-86583333D01*
X141281961Y-86583333D02*
X141377200Y-86678571D01*
X141377200Y-86678571D02*
X141424819Y-86821428D01*
X141424819Y-86821428D02*
X141424819Y-86916666D01*
X140520057Y-86107142D02*
X140472438Y-86059523D01*
X140472438Y-86059523D02*
X140424819Y-85964285D01*
X140424819Y-85964285D02*
X140424819Y-85726190D01*
X140424819Y-85726190D02*
X140472438Y-85630952D01*
X140472438Y-85630952D02*
X140520057Y-85583333D01*
X140520057Y-85583333D02*
X140615295Y-85535714D01*
X140615295Y-85535714D02*
X140710533Y-85535714D01*
X140710533Y-85535714D02*
X140853390Y-85583333D01*
X140853390Y-85583333D02*
X141424819Y-86154761D01*
X141424819Y-86154761D02*
X141424819Y-85535714D01*
X140520057Y-85154761D02*
X140472438Y-85107142D01*
X140472438Y-85107142D02*
X140424819Y-85011904D01*
X140424819Y-85011904D02*
X140424819Y-84773809D01*
X140424819Y-84773809D02*
X140472438Y-84678571D01*
X140472438Y-84678571D02*
X140520057Y-84630952D01*
X140520057Y-84630952D02*
X140615295Y-84583333D01*
X140615295Y-84583333D02*
X140710533Y-84583333D01*
X140710533Y-84583333D02*
X140853390Y-84630952D01*
X140853390Y-84630952D02*
X141424819Y-85202380D01*
X141424819Y-85202380D02*
X141424819Y-84583333D01*
X141424819Y-83630952D02*
X141424819Y-84202380D01*
X141424819Y-83916666D02*
X140424819Y-83916666D01*
X140424819Y-83916666D02*
X140567676Y-84011904D01*
X140567676Y-84011904D02*
X140662914Y-84107142D01*
X140662914Y-84107142D02*
X140710533Y-84202380D01*
X154824819Y-105535714D02*
X155539104Y-105535714D01*
X155539104Y-105535714D02*
X155681961Y-105583333D01*
X155681961Y-105583333D02*
X155777200Y-105678571D01*
X155777200Y-105678571D02*
X155824819Y-105821428D01*
X155824819Y-105821428D02*
X155824819Y-105916666D01*
X154920057Y-105107142D02*
X154872438Y-105059523D01*
X154872438Y-105059523D02*
X154824819Y-104964285D01*
X154824819Y-104964285D02*
X154824819Y-104726190D01*
X154824819Y-104726190D02*
X154872438Y-104630952D01*
X154872438Y-104630952D02*
X154920057Y-104583333D01*
X154920057Y-104583333D02*
X155015295Y-104535714D01*
X155015295Y-104535714D02*
X155110533Y-104535714D01*
X155110533Y-104535714D02*
X155253390Y-104583333D01*
X155253390Y-104583333D02*
X155824819Y-105154761D01*
X155824819Y-105154761D02*
X155824819Y-104535714D01*
X155824819Y-103583333D02*
X155824819Y-104154761D01*
X155824819Y-103869047D02*
X154824819Y-103869047D01*
X154824819Y-103869047D02*
X154967676Y-103964285D01*
X154967676Y-103964285D02*
X155062914Y-104059523D01*
X155062914Y-104059523D02*
X155110533Y-104154761D01*
X154824819Y-102678571D02*
X154824819Y-103154761D01*
X154824819Y-103154761D02*
X155301009Y-103202380D01*
X155301009Y-103202380D02*
X155253390Y-103154761D01*
X155253390Y-103154761D02*
X155205771Y-103059523D01*
X155205771Y-103059523D02*
X155205771Y-102821428D01*
X155205771Y-102821428D02*
X155253390Y-102726190D01*
X155253390Y-102726190D02*
X155301009Y-102678571D01*
X155301009Y-102678571D02*
X155396247Y-102630952D01*
X155396247Y-102630952D02*
X155634342Y-102630952D01*
X155634342Y-102630952D02*
X155729580Y-102678571D01*
X155729580Y-102678571D02*
X155777200Y-102726190D01*
X155777200Y-102726190D02*
X155824819Y-102821428D01*
X155824819Y-102821428D02*
X155824819Y-103059523D01*
X155824819Y-103059523D02*
X155777200Y-103154761D01*
X155777200Y-103154761D02*
X155729580Y-103202380D01*
X132214285Y-96834819D02*
X132214285Y-97549104D01*
X132214285Y-97549104D02*
X132166666Y-97691961D01*
X132166666Y-97691961D02*
X132071428Y-97787200D01*
X132071428Y-97787200D02*
X131928571Y-97834819D01*
X131928571Y-97834819D02*
X131833333Y-97834819D01*
X133214285Y-97834819D02*
X132642857Y-97834819D01*
X132928571Y-97834819D02*
X132928571Y-96834819D01*
X132928571Y-96834819D02*
X132833333Y-96977676D01*
X132833333Y-96977676D02*
X132738095Y-97072914D01*
X132738095Y-97072914D02*
X132642857Y-97120533D01*
X134071428Y-97168152D02*
X134071428Y-97834819D01*
X133833333Y-96787200D02*
X133595238Y-97501485D01*
X133595238Y-97501485D02*
X134214285Y-97501485D01*
X134642857Y-97834819D02*
X134833333Y-97834819D01*
X134833333Y-97834819D02*
X134928571Y-97787200D01*
X134928571Y-97787200D02*
X134976190Y-97739580D01*
X134976190Y-97739580D02*
X135071428Y-97596723D01*
X135071428Y-97596723D02*
X135119047Y-97406247D01*
X135119047Y-97406247D02*
X135119047Y-97025295D01*
X135119047Y-97025295D02*
X135071428Y-96930057D01*
X135071428Y-96930057D02*
X135023809Y-96882438D01*
X135023809Y-96882438D02*
X134928571Y-96834819D01*
X134928571Y-96834819D02*
X134738095Y-96834819D01*
X134738095Y-96834819D02*
X134642857Y-96882438D01*
X134642857Y-96882438D02*
X134595238Y-96930057D01*
X134595238Y-96930057D02*
X134547619Y-97025295D01*
X134547619Y-97025295D02*
X134547619Y-97263390D01*
X134547619Y-97263390D02*
X134595238Y-97358628D01*
X134595238Y-97358628D02*
X134642857Y-97406247D01*
X134642857Y-97406247D02*
X134738095Y-97453866D01*
X134738095Y-97453866D02*
X134928571Y-97453866D01*
X134928571Y-97453866D02*
X135023809Y-97406247D01*
X135023809Y-97406247D02*
X135071428Y-97358628D01*
X135071428Y-97358628D02*
X135119047Y-97263390D01*
X132214285Y-93234819D02*
X132214285Y-93949104D01*
X132214285Y-93949104D02*
X132166666Y-94091961D01*
X132166666Y-94091961D02*
X132071428Y-94187200D01*
X132071428Y-94187200D02*
X131928571Y-94234819D01*
X131928571Y-94234819D02*
X131833333Y-94234819D01*
X133214285Y-94234819D02*
X132642857Y-94234819D01*
X132928571Y-94234819D02*
X132928571Y-93234819D01*
X132928571Y-93234819D02*
X132833333Y-93377676D01*
X132833333Y-93377676D02*
X132738095Y-93472914D01*
X132738095Y-93472914D02*
X132642857Y-93520533D01*
X134119047Y-93234819D02*
X133642857Y-93234819D01*
X133642857Y-93234819D02*
X133595238Y-93711009D01*
X133595238Y-93711009D02*
X133642857Y-93663390D01*
X133642857Y-93663390D02*
X133738095Y-93615771D01*
X133738095Y-93615771D02*
X133976190Y-93615771D01*
X133976190Y-93615771D02*
X134071428Y-93663390D01*
X134071428Y-93663390D02*
X134119047Y-93711009D01*
X134119047Y-93711009D02*
X134166666Y-93806247D01*
X134166666Y-93806247D02*
X134166666Y-94044342D01*
X134166666Y-94044342D02*
X134119047Y-94139580D01*
X134119047Y-94139580D02*
X134071428Y-94187200D01*
X134071428Y-94187200D02*
X133976190Y-94234819D01*
X133976190Y-94234819D02*
X133738095Y-94234819D01*
X133738095Y-94234819D02*
X133642857Y-94187200D01*
X133642857Y-94187200D02*
X133595238Y-94139580D01*
X134785714Y-93234819D02*
X134880952Y-93234819D01*
X134880952Y-93234819D02*
X134976190Y-93282438D01*
X134976190Y-93282438D02*
X135023809Y-93330057D01*
X135023809Y-93330057D02*
X135071428Y-93425295D01*
X135071428Y-93425295D02*
X135119047Y-93615771D01*
X135119047Y-93615771D02*
X135119047Y-93853866D01*
X135119047Y-93853866D02*
X135071428Y-94044342D01*
X135071428Y-94044342D02*
X135023809Y-94139580D01*
X135023809Y-94139580D02*
X134976190Y-94187200D01*
X134976190Y-94187200D02*
X134880952Y-94234819D01*
X134880952Y-94234819D02*
X134785714Y-94234819D01*
X134785714Y-94234819D02*
X134690476Y-94187200D01*
X134690476Y-94187200D02*
X134642857Y-94139580D01*
X134642857Y-94139580D02*
X134595238Y-94044342D01*
X134595238Y-94044342D02*
X134547619Y-93853866D01*
X134547619Y-93853866D02*
X134547619Y-93615771D01*
X134547619Y-93615771D02*
X134595238Y-93425295D01*
X134595238Y-93425295D02*
X134642857Y-93330057D01*
X134642857Y-93330057D02*
X134690476Y-93282438D01*
X134690476Y-93282438D02*
X134785714Y-93234819D01*
X132214285Y-82434819D02*
X132214285Y-83149104D01*
X132214285Y-83149104D02*
X132166666Y-83291961D01*
X132166666Y-83291961D02*
X132071428Y-83387200D01*
X132071428Y-83387200D02*
X131928571Y-83434819D01*
X131928571Y-83434819D02*
X131833333Y-83434819D01*
X133214285Y-83434819D02*
X132642857Y-83434819D01*
X132928571Y-83434819D02*
X132928571Y-82434819D01*
X132928571Y-82434819D02*
X132833333Y-82577676D01*
X132833333Y-82577676D02*
X132738095Y-82672914D01*
X132738095Y-82672914D02*
X132642857Y-82720533D01*
X134119047Y-82434819D02*
X133642857Y-82434819D01*
X133642857Y-82434819D02*
X133595238Y-82911009D01*
X133595238Y-82911009D02*
X133642857Y-82863390D01*
X133642857Y-82863390D02*
X133738095Y-82815771D01*
X133738095Y-82815771D02*
X133976190Y-82815771D01*
X133976190Y-82815771D02*
X134071428Y-82863390D01*
X134071428Y-82863390D02*
X134119047Y-82911009D01*
X134119047Y-82911009D02*
X134166666Y-83006247D01*
X134166666Y-83006247D02*
X134166666Y-83244342D01*
X134166666Y-83244342D02*
X134119047Y-83339580D01*
X134119047Y-83339580D02*
X134071428Y-83387200D01*
X134071428Y-83387200D02*
X133976190Y-83434819D01*
X133976190Y-83434819D02*
X133738095Y-83434819D01*
X133738095Y-83434819D02*
X133642857Y-83387200D01*
X133642857Y-83387200D02*
X133595238Y-83339580D01*
X134500000Y-82434819D02*
X135119047Y-82434819D01*
X135119047Y-82434819D02*
X134785714Y-82815771D01*
X134785714Y-82815771D02*
X134928571Y-82815771D01*
X134928571Y-82815771D02*
X135023809Y-82863390D01*
X135023809Y-82863390D02*
X135071428Y-82911009D01*
X135071428Y-82911009D02*
X135119047Y-83006247D01*
X135119047Y-83006247D02*
X135119047Y-83244342D01*
X135119047Y-83244342D02*
X135071428Y-83339580D01*
X135071428Y-83339580D02*
X135023809Y-83387200D01*
X135023809Y-83387200D02*
X134928571Y-83434819D01*
X134928571Y-83434819D02*
X134642857Y-83434819D01*
X134642857Y-83434819D02*
X134547619Y-83387200D01*
X134547619Y-83387200D02*
X134500000Y-83339580D01*
D11*
%TO.C,J229*%
X163570000Y-96380000D02*
X163570000Y-95050000D01*
X164900000Y-96380000D02*
X163570000Y-96380000D01*
X166170000Y-96380000D02*
X166230000Y-96380000D01*
X166170000Y-96380000D02*
X166170000Y-93720000D01*
X166230000Y-96380000D02*
X166230000Y-93720000D01*
X166170000Y-93720000D02*
X166230000Y-93720000D01*
%TO.C,J219*%
X156370000Y-90580000D02*
X156370000Y-89250000D01*
X157700000Y-90580000D02*
X156370000Y-90580000D01*
X158970000Y-90580000D02*
X159030000Y-90580000D01*
X158970000Y-90580000D02*
X158970000Y-87920000D01*
X159030000Y-90580000D02*
X159030000Y-87920000D01*
X158970000Y-87920000D02*
X159030000Y-87920000D01*
%TO.C,J46*%
X163570000Y-107580000D02*
X163570000Y-106250000D01*
X164900000Y-107580000D02*
X163570000Y-107580000D01*
X166170000Y-107580000D02*
X166230000Y-107580000D01*
X166170000Y-107580000D02*
X166170000Y-104920000D01*
X166230000Y-107580000D02*
X166230000Y-104920000D01*
X166170000Y-104920000D02*
X166230000Y-104920000D01*
%TO.C,J148*%
X134830000Y-99980000D02*
X133500000Y-99980000D01*
X134830000Y-98650000D02*
X134830000Y-99980000D01*
X132170000Y-97380000D02*
X132170000Y-97320000D01*
X134830000Y-97380000D02*
X132170000Y-97380000D01*
X134830000Y-97380000D02*
X134830000Y-97320000D01*
X134830000Y-97320000D02*
X132170000Y-97320000D01*
%TO.C,J147*%
X134830000Y-103580000D02*
X133500000Y-103580000D01*
X134830000Y-102250000D02*
X134830000Y-103580000D01*
X132170000Y-100980000D02*
X132170000Y-100920000D01*
X134830000Y-100980000D02*
X132170000Y-100980000D01*
X134830000Y-100980000D02*
X134830000Y-100920000D01*
X134830000Y-100920000D02*
X132170000Y-100920000D01*
%TO.C,J146*%
X134830000Y-107180000D02*
X133500000Y-107180000D01*
X134830000Y-105850000D02*
X134830000Y-107180000D01*
X132170000Y-104580000D02*
X132170000Y-104520000D01*
X134830000Y-104580000D02*
X132170000Y-104580000D01*
X134830000Y-104580000D02*
X134830000Y-104520000D01*
X134830000Y-104520000D02*
X132170000Y-104520000D01*
%TO.C,J216*%
X149170000Y-103580000D02*
X149170000Y-102250000D01*
X150500000Y-103580000D02*
X149170000Y-103580000D01*
X151770000Y-103580000D02*
X151830000Y-103580000D01*
X151770000Y-103580000D02*
X151770000Y-100920000D01*
X151830000Y-103580000D02*
X151830000Y-100920000D01*
X151770000Y-100920000D02*
X151830000Y-100920000D01*
%TO.C,J218*%
X163570000Y-92580000D02*
X163570000Y-91250000D01*
X164900000Y-92580000D02*
X163570000Y-92580000D01*
X166170000Y-92580000D02*
X166230000Y-92580000D01*
X166170000Y-92580000D02*
X166170000Y-89920000D01*
X166230000Y-92580000D02*
X166230000Y-89920000D01*
X166170000Y-89920000D02*
X166230000Y-89920000D01*
%TO.C,J230*%
X159970000Y-96380000D02*
X159970000Y-95050000D01*
X161300000Y-96380000D02*
X159970000Y-96380000D01*
X162570000Y-96380000D02*
X162630000Y-96380000D01*
X162570000Y-96380000D02*
X162570000Y-93720000D01*
X162630000Y-96380000D02*
X162630000Y-93720000D01*
X162570000Y-93720000D02*
X162630000Y-93720000D01*
%TO.C,J152*%
X134830000Y-85580000D02*
X133500000Y-85580000D01*
X134830000Y-84250000D02*
X134830000Y-85580000D01*
X132170000Y-82980000D02*
X132170000Y-82920000D01*
X134830000Y-82980000D02*
X132170000Y-82980000D01*
X134830000Y-82980000D02*
X134830000Y-82920000D01*
X134830000Y-82920000D02*
X132170000Y-82920000D01*
%TO.C,J220*%
X149170000Y-88580000D02*
X149170000Y-87250000D01*
X150500000Y-88580000D02*
X149170000Y-88580000D01*
X151770000Y-88580000D02*
X151830000Y-88580000D01*
X151770000Y-88580000D02*
X151770000Y-85920000D01*
X151830000Y-88580000D02*
X151830000Y-85920000D01*
X151770000Y-85920000D02*
X151830000Y-85920000D01*
%TO.C,J151*%
X134830000Y-89180000D02*
X133500000Y-89180000D01*
X134830000Y-87850000D02*
X134830000Y-89180000D01*
X132170000Y-86580000D02*
X132170000Y-86520000D01*
X134830000Y-86580000D02*
X132170000Y-86580000D01*
X134830000Y-86580000D02*
X134830000Y-86520000D01*
X134830000Y-86520000D02*
X132170000Y-86520000D01*
%TO.C,J217*%
X141970000Y-101580000D02*
X141970000Y-100250000D01*
X143300000Y-101580000D02*
X141970000Y-101580000D01*
X144570000Y-101580000D02*
X144630000Y-101580000D01*
X144570000Y-101580000D02*
X144570000Y-98920000D01*
X144630000Y-101580000D02*
X144630000Y-98920000D01*
X144570000Y-98920000D02*
X144630000Y-98920000D01*
%TO.C,J221*%
X141970000Y-86580000D02*
X141970000Y-85250000D01*
X143300000Y-86580000D02*
X141970000Y-86580000D01*
X144570000Y-86580000D02*
X144630000Y-86580000D01*
X144570000Y-86580000D02*
X144570000Y-83920000D01*
X144630000Y-86580000D02*
X144630000Y-83920000D01*
X144570000Y-83920000D02*
X144630000Y-83920000D01*
%TO.C,J215*%
X156370000Y-105580000D02*
X156370000Y-104250000D01*
X157700000Y-105580000D02*
X156370000Y-105580000D01*
X158970000Y-105580000D02*
X159030000Y-105580000D01*
X158970000Y-105580000D02*
X158970000Y-102920000D01*
X159030000Y-105580000D02*
X159030000Y-102920000D01*
X158970000Y-102920000D02*
X159030000Y-102920000D01*
%TO.C,J149*%
X134830000Y-96380000D02*
X133500000Y-96380000D01*
X134830000Y-95050000D02*
X134830000Y-96380000D01*
X132170000Y-93780000D02*
X132170000Y-93720000D01*
X134830000Y-93780000D02*
X132170000Y-93780000D01*
X134830000Y-93780000D02*
X134830000Y-93720000D01*
X134830000Y-93720000D02*
X132170000Y-93720000D01*
%TO.C,J150*%
X134830000Y-92780000D02*
X133500000Y-92780000D01*
X134830000Y-91450000D02*
X134830000Y-92780000D01*
X132170000Y-90180000D02*
X132170000Y-90120000D01*
X134830000Y-90180000D02*
X132170000Y-90180000D01*
X134830000Y-90180000D02*
X134830000Y-90120000D01*
X134830000Y-90120000D02*
X132170000Y-90120000D01*
%TO.C,J153*%
X134830000Y-81980000D02*
X133500000Y-81980000D01*
X134830000Y-80650000D02*
X134830000Y-81980000D01*
X132170000Y-79380000D02*
X132170000Y-79320000D01*
X134830000Y-79380000D02*
X132170000Y-79380000D01*
X134830000Y-79380000D02*
X134830000Y-79320000D01*
X134830000Y-79320000D02*
X132170000Y-79320000D01*
%TD*%
M02*
