%TF.GenerationSoftware,KiCad,Pcbnew,8.0.7*%
%TF.CreationDate,2025-02-07T22:23:45+01:00*%
%TF.ProjectId,Teensy_board_09_prot_esd_1,5465656e-7379-45f6-926f-6172645f3039,rev?*%
%TF.SameCoordinates,Original*%
%TF.FileFunction,Copper,L2,Bot*%
%TF.FilePolarity,Positive*%
%FSLAX46Y46*%
G04 Gerber Fmt 4.6, Leading zero omitted, Abs format (unit mm)*
G04 Created by KiCad (PCBNEW 8.0.7) date 2025-02-07 22:23:45*
%MOMM*%
%LPD*%
G01*
G04 APERTURE LIST*
G04 Aperture macros list*
%AMRoundRect*
0 Rectangle with rounded corners*
0 $1 Rounding radius*
0 $2 $3 $4 $5 $6 $7 $8 $9 X,Y pos of 4 corners*
0 Add a 4 corners polygon primitive as box body*
4,1,4,$2,$3,$4,$5,$6,$7,$8,$9,$2,$3,0*
0 Add four circle primitives for the rounded corners*
1,1,$1+$1,$2,$3*
1,1,$1+$1,$4,$5*
1,1,$1+$1,$6,$7*
1,1,$1+$1,$8,$9*
0 Add four rect primitives between the rounded corners*
20,1,$1+$1,$2,$3,$4,$5,0*
20,1,$1+$1,$4,$5,$6,$7,0*
20,1,$1+$1,$6,$7,$8,$9,0*
20,1,$1+$1,$8,$9,$2,$3,0*%
G04 Aperture macros list end*
%TA.AperFunction,ComponentPad*%
%ADD10R,1.700000X1.700000*%
%TD*%
%TA.AperFunction,SMDPad,CuDef*%
%ADD11RoundRect,0.250000X-0.325000X-0.450000X0.325000X-0.450000X0.325000X0.450000X-0.325000X0.450000X0*%
%TD*%
%TA.AperFunction,SMDPad,CuDef*%
%ADD12R,1.150000X1.375000*%
%TD*%
%TA.AperFunction,SMDPad,CuDef*%
%ADD13RoundRect,0.250000X1.100000X-0.500000X1.100000X0.500000X-1.100000X0.500000X-1.100000X-0.500000X0*%
%TD*%
%TA.AperFunction,Conductor*%
%ADD14C,1.000000*%
%TD*%
G04 APERTURE END LIST*
D10*
%TO.P,J229,1,Pin_1*%
%TO.N,GND*%
X164900000Y-95050000D03*
%TD*%
%TO.P,J219,1,Pin_1*%
%TO.N,/Encoder/Protection_IO/OUT_6*%
X157700000Y-89250000D03*
%TD*%
%TO.P,J46,1,Pin_1*%
%TO.N,/Encoder/Protection_IO/OUT_1*%
X164900000Y-106250000D03*
%TD*%
%TO.P,J148,1,Pin_1*%
%TO.N,/Encoder/Protection_IO/IN_3*%
X133500000Y-98650000D03*
%TD*%
%TO.P,J147,1,Pin_1*%
%TO.N,/Encoder/Protection_IO/IN_2*%
X133500000Y-102250000D03*
%TD*%
%TO.P,J146,1,Pin_1*%
%TO.N,/Encoder/Protection_IO/IN_1*%
X133500000Y-105850000D03*
%TD*%
%TO.P,J216,1,Pin_1*%
%TO.N,/Encoder/Protection_IO/OUT_3*%
X150500000Y-102250000D03*
%TD*%
%TO.P,J218,1,Pin_1*%
%TO.N,/Encoder/Protection_IO/OUT_5*%
X164900000Y-91250000D03*
%TD*%
%TO.P,J230,1,Pin_1*%
%TO.N,GND*%
X161300000Y-95050000D03*
%TD*%
%TO.P,J152,1,Pin_1*%
%TO.N,/Encoder/Protection_IO/IN_7*%
X133500000Y-84250000D03*
%TD*%
%TO.P,J220,1,Pin_1*%
%TO.N,/Encoder/Protection_IO/OUT_7*%
X150500000Y-87250000D03*
%TD*%
%TO.P,J151,1,Pin_1*%
%TO.N,/Encoder/Protection_IO/IN_6*%
X133500000Y-87850000D03*
%TD*%
%TO.P,J217,1,Pin_1*%
%TO.N,/Encoder/Protection_IO/OUT_4*%
X143300000Y-100250000D03*
%TD*%
%TO.P,J221,1,Pin_1*%
%TO.N,/Encoder/Protection_IO/OUT_8*%
X143300000Y-85250000D03*
%TD*%
%TO.P,J215,1,Pin_1*%
%TO.N,/Encoder/Protection_IO/OUT_2*%
X157700000Y-104250000D03*
%TD*%
%TO.P,J149,1,Pin_1*%
%TO.N,/Encoder/Protection_IO/IN_4*%
X133500000Y-95050000D03*
%TD*%
%TO.P,J150,1,Pin_1*%
%TO.N,/Encoder/Protection_IO/IN_5*%
X133500000Y-91450000D03*
%TD*%
%TO.P,J153,1,Pin_1*%
%TO.N,/Encoder/Protection_IO/IN_8*%
X133500000Y-80650000D03*
%TD*%
D11*
%TO.P,F16,1*%
%TO.N,/Encoder/Protection_IO/IN_1*%
X160275000Y-103650000D03*
%TO.P,F16,2*%
%TO.N,/Encoder/Protection_IO/OUT_1*%
X162325000Y-103650000D03*
%TD*%
%TO.P,F17,1*%
%TO.N,/Encoder/Protection_IO/IN_2*%
X153075000Y-101650000D03*
%TO.P,F17,2*%
%TO.N,/Encoder/Protection_IO/OUT_2*%
X155125000Y-101650000D03*
%TD*%
%TO.P,F23,1*%
%TO.N,/Encoder/Protection_IO/IN_8*%
X138675000Y-82650000D03*
%TO.P,F23,2*%
%TO.N,/Encoder/Protection_IO/OUT_8*%
X140725000Y-82650000D03*
%TD*%
D12*
%TO.P,D18,1,K*%
%TO.N,/Encoder/Protection_IO/IN_1*%
X161300000Y-101625000D03*
%TO.P,D18,2,A*%
%TO.N,GND*%
X161300000Y-98475000D03*
%TD*%
D11*
%TO.P,F21,1*%
%TO.N,/Encoder/Protection_IO/IN_6*%
X153075000Y-86650000D03*
%TO.P,F21,2*%
%TO.N,/Encoder/Protection_IO/OUT_6*%
X155125000Y-86650000D03*
%TD*%
D13*
%TO.P,D44,1,K*%
%TO.N,/Encoder/Protection_IO/OUT_5*%
X164900000Y-88450000D03*
%TO.P,D44,2,A*%
%TO.N,GND*%
X164900000Y-83650000D03*
%TD*%
D12*
%TO.P,D37,1,K*%
%TO.N,/Encoder/Protection_IO/IN_6*%
X154100000Y-84625000D03*
%TO.P,D37,2,A*%
%TO.N,GND*%
X154100000Y-81475000D03*
%TD*%
D13*
%TO.P,D41,1,K*%
%TO.N,/Encoder/Protection_IO/OUT_2*%
X157700000Y-101450000D03*
%TO.P,D41,2,A*%
%TO.N,GND*%
X157700000Y-96650000D03*
%TD*%
D12*
%TO.P,D36,1,K*%
%TO.N,/Encoder/Protection_IO/IN_5*%
X161300000Y-86625000D03*
%TO.P,D36,2,A*%
%TO.N,GND*%
X161300000Y-83475000D03*
%TD*%
%TO.P,D38,1,K*%
%TO.N,/Encoder/Protection_IO/IN_7*%
X146900000Y-82625000D03*
%TO.P,D38,2,A*%
%TO.N,GND*%
X146900000Y-79475000D03*
%TD*%
D13*
%TO.P,D46,1,K*%
%TO.N,/Encoder/Protection_IO/OUT_7*%
X150500000Y-84450000D03*
%TO.P,D46,2,A*%
%TO.N,GND*%
X150500000Y-79650000D03*
%TD*%
D11*
%TO.P,F18,1*%
%TO.N,/Encoder/Protection_IO/IN_3*%
X145875000Y-99650000D03*
%TO.P,F18,2*%
%TO.N,/Encoder/Protection_IO/OUT_3*%
X147925000Y-99650000D03*
%TD*%
%TO.P,F19,1*%
%TO.N,/Encoder/Protection_IO/IN_4*%
X138675000Y-97650000D03*
%TO.P,F19,2*%
%TO.N,/Encoder/Protection_IO/OUT_4*%
X140725000Y-97650000D03*
%TD*%
D12*
%TO.P,D39,1,K*%
%TO.N,/Encoder/Protection_IO/IN_8*%
X139700000Y-80625000D03*
%TO.P,D39,2,A*%
%TO.N,GND*%
X139700000Y-77475000D03*
%TD*%
D11*
%TO.P,F22,1*%
%TO.N,/Encoder/Protection_IO/IN_7*%
X145875000Y-84650000D03*
%TO.P,F22,2*%
%TO.N,/Encoder/Protection_IO/OUT_7*%
X147925000Y-84650000D03*
%TD*%
D13*
%TO.P,D40,1,K*%
%TO.N,/Encoder/Protection_IO/OUT_1*%
X164900000Y-103450000D03*
%TO.P,D40,2,A*%
%TO.N,GND*%
X164900000Y-98650000D03*
%TD*%
%TO.P,D42,1,K*%
%TO.N,/Encoder/Protection_IO/OUT_3*%
X150500000Y-99450000D03*
%TO.P,D42,2,A*%
%TO.N,GND*%
X150500000Y-94650000D03*
%TD*%
D11*
%TO.P,F20,1*%
%TO.N,/Encoder/Protection_IO/IN_5*%
X160275000Y-88650000D03*
%TO.P,F20,2*%
%TO.N,/Encoder/Protection_IO/OUT_5*%
X162325000Y-88650000D03*
%TD*%
D12*
%TO.P,D35,1,K*%
%TO.N,/Encoder/Protection_IO/IN_4*%
X139700000Y-95625000D03*
%TO.P,D35,2,A*%
%TO.N,GND*%
X139700000Y-92475000D03*
%TD*%
%TO.P,D19,1,K*%
%TO.N,/Encoder/Protection_IO/IN_2*%
X154100000Y-99625000D03*
%TO.P,D19,2,A*%
%TO.N,GND*%
X154100000Y-96475000D03*
%TD*%
%TO.P,D34,1,K*%
%TO.N,/Encoder/Protection_IO/IN_3*%
X146900000Y-97625000D03*
%TO.P,D34,2,A*%
%TO.N,GND*%
X146900000Y-94475000D03*
%TD*%
D13*
%TO.P,D45,1,K*%
%TO.N,/Encoder/Protection_IO/OUT_6*%
X157700000Y-86450000D03*
%TO.P,D45,2,A*%
%TO.N,GND*%
X157700000Y-81650000D03*
%TD*%
%TO.P,D43,1,K*%
%TO.N,/Encoder/Protection_IO/OUT_4*%
X143300000Y-97450000D03*
%TO.P,D43,2,A*%
%TO.N,GND*%
X143300000Y-92650000D03*
%TD*%
%TO.P,D47,1,K*%
%TO.N,/Encoder/Protection_IO/OUT_8*%
X143300000Y-82450000D03*
%TO.P,D47,2,A*%
%TO.N,GND*%
X143300000Y-77650000D03*
%TD*%
D14*
%TO.N,GND*%
X164900000Y-98650000D02*
X164900000Y-95050000D01*
X145125000Y-94475000D02*
X143300000Y-92650000D01*
X139875000Y-77650000D02*
X139700000Y-77475000D01*
X154275000Y-96650000D02*
X154100000Y-96475000D01*
X152325000Y-96475000D02*
X150500000Y-94650000D01*
X161300000Y-98475000D02*
X159525000Y-98475000D01*
X164725000Y-98475000D02*
X164900000Y-98650000D01*
X147075000Y-94650000D02*
X146900000Y-94475000D01*
X161300000Y-83475000D02*
X159525000Y-83475000D01*
X164900000Y-83650000D02*
X166500000Y-83650000D01*
X146900000Y-94475000D02*
X145125000Y-94475000D01*
X146900000Y-79475000D02*
X145125000Y-79475000D01*
X161300000Y-95050000D02*
X164900000Y-95050000D01*
X150500000Y-79650000D02*
X147075000Y-79650000D01*
X147075000Y-79650000D02*
X146900000Y-79475000D01*
X143300000Y-77650000D02*
X139875000Y-77650000D01*
X166100000Y-95050000D02*
X164900000Y-95050000D01*
X161300000Y-98475000D02*
X164725000Y-98475000D01*
X167100000Y-94050000D02*
X166100000Y-95050000D01*
X167100000Y-84250000D02*
X167100000Y-94050000D01*
X152325000Y-81475000D02*
X150500000Y-79650000D01*
X164900000Y-83650000D02*
X161475000Y-83650000D01*
X154100000Y-96475000D02*
X152325000Y-96475000D01*
X159525000Y-98475000D02*
X157700000Y-96650000D01*
X145125000Y-79475000D02*
X143300000Y-77650000D01*
X150500000Y-94650000D02*
X147075000Y-94650000D01*
X143300000Y-92650000D02*
X139875000Y-92650000D01*
X157700000Y-81650000D02*
X154275000Y-81650000D01*
X159525000Y-83475000D02*
X157700000Y-81650000D01*
X157700000Y-96650000D02*
X154275000Y-96650000D01*
X161300000Y-95050000D02*
X161300000Y-98475000D01*
X166500000Y-83650000D02*
X167100000Y-84250000D01*
X161475000Y-83650000D02*
X161300000Y-83475000D01*
X154275000Y-81650000D02*
X154100000Y-81475000D01*
X154100000Y-81475000D02*
X152325000Y-81475000D01*
X139875000Y-92650000D02*
X139700000Y-92475000D01*
%TO.N,/Encoder/Protection_IO/IN_1*%
X160275000Y-105475000D02*
X160275000Y-103650000D01*
X133500000Y-105850000D02*
X134900000Y-107250000D01*
X160275000Y-102650000D02*
X160275000Y-103650000D01*
X161300000Y-101625000D02*
X160275000Y-102650000D01*
X134900000Y-107250000D02*
X158500000Y-107250000D01*
X158500000Y-107250000D02*
X160275000Y-105475000D01*
%TO.N,/Encoder/Protection_IO/IN_2*%
X153075000Y-101650000D02*
X153075000Y-104875000D01*
X152100000Y-105850000D02*
X137100000Y-105850000D01*
X137100000Y-105850000D02*
X133500000Y-102250000D01*
X153075000Y-100650000D02*
X153075000Y-101650000D01*
X153075000Y-104875000D02*
X152100000Y-105850000D01*
X154100000Y-99625000D02*
X153075000Y-100650000D01*
%TO.N,/Encoder/Protection_IO/IN_3*%
X139300000Y-104450000D02*
X144100000Y-104450000D01*
X145875000Y-102675000D02*
X145875000Y-99650000D01*
X145875000Y-98650000D02*
X146900000Y-97625000D01*
X133500000Y-98650000D02*
X139300000Y-104450000D01*
X144100000Y-104450000D02*
X145875000Y-102675000D01*
X145875000Y-99650000D02*
X145875000Y-98650000D01*
%TO.N,/Encoder/Protection_IO/IN_4*%
X136100000Y-97650000D02*
X133500000Y-95050000D01*
X138675000Y-97650000D02*
X136100000Y-97650000D01*
X138675000Y-96650000D02*
X139700000Y-95625000D01*
X138675000Y-97650000D02*
X138675000Y-96650000D01*
%TO.N,/Encoder/Protection_IO/IN_5*%
X160275000Y-90675000D02*
X160275000Y-88650000D01*
X134100000Y-90850000D02*
X154900000Y-90850000D01*
X156100000Y-92050000D02*
X158900000Y-92050000D01*
X160275000Y-87650000D02*
X160275000Y-88650000D01*
X154900000Y-90850000D02*
X156100000Y-92050000D01*
X161300000Y-86625000D02*
X160275000Y-87650000D01*
X133500000Y-91450000D02*
X134100000Y-90850000D01*
X158900000Y-92050000D02*
X160275000Y-90675000D01*
%TO.N,/Encoder/Protection_IO/IN_6*%
X151900000Y-89450000D02*
X135100000Y-89450000D01*
X154100000Y-84625000D02*
X153075000Y-85650000D01*
X153075000Y-88275000D02*
X151900000Y-89450000D01*
X153075000Y-86650000D02*
X153075000Y-88275000D01*
X135100000Y-89450000D02*
X133500000Y-87850000D01*
X153075000Y-85650000D02*
X153075000Y-86650000D01*
%TO.N,/Encoder/Protection_IO/IN_7*%
X136500000Y-87250000D02*
X133500000Y-84250000D01*
X145875000Y-85875000D02*
X144500000Y-87250000D01*
X145875000Y-83650000D02*
X145875000Y-84650000D01*
X146900000Y-82625000D02*
X145875000Y-83650000D01*
X144500000Y-87250000D02*
X136500000Y-87250000D01*
X145875000Y-84650000D02*
X145875000Y-85875000D01*
%TO.N,/Encoder/Protection_IO/IN_8*%
X135500000Y-82650000D02*
X133500000Y-80650000D01*
X139700000Y-80625000D02*
X138675000Y-81650000D01*
X138675000Y-81650000D02*
X138675000Y-82650000D01*
X138675000Y-82650000D02*
X135500000Y-82650000D01*
%TO.N,/Encoder/Protection_IO/OUT_1*%
X164900000Y-103450000D02*
X164900000Y-106250000D01*
X164700000Y-103650000D02*
X164900000Y-103450000D01*
X162325000Y-103650000D02*
X164700000Y-103650000D01*
%TO.N,/Encoder/Protection_IO/OUT_2*%
X157500000Y-101650000D02*
X157700000Y-101450000D01*
X157700000Y-101450000D02*
X157700000Y-104250000D01*
X155125000Y-101650000D02*
X157500000Y-101650000D01*
%TO.N,/Encoder/Protection_IO/OUT_3*%
X147925000Y-99650000D02*
X150300000Y-99650000D01*
X150500000Y-102250000D02*
X150500000Y-99450000D01*
X150300000Y-99650000D02*
X150500000Y-99450000D01*
%TO.N,/Encoder/Protection_IO/OUT_4*%
X143100000Y-97650000D02*
X143300000Y-97450000D01*
X143300000Y-97450000D02*
X143300000Y-100250000D01*
X140725000Y-97650000D02*
X143100000Y-97650000D01*
%TO.N,/Encoder/Protection_IO/OUT_5*%
X164700000Y-88650000D02*
X164900000Y-88450000D01*
X162325000Y-88650000D02*
X164700000Y-88650000D01*
X164900000Y-88450000D02*
X164900000Y-91250000D01*
%TO.N,/Encoder/Protection_IO/OUT_6*%
X157700000Y-86450000D02*
X157700000Y-89250000D01*
X157500000Y-86650000D02*
X157700000Y-86450000D01*
X155125000Y-86650000D02*
X157500000Y-86650000D01*
%TO.N,/Encoder/Protection_IO/OUT_7*%
X150500000Y-84450000D02*
X150500000Y-87250000D01*
X150300000Y-84650000D02*
X150500000Y-84450000D01*
X147925000Y-84650000D02*
X150300000Y-84650000D01*
%TO.N,/Encoder/Protection_IO/OUT_8*%
X140725000Y-82650000D02*
X143100000Y-82650000D01*
X143100000Y-82650000D02*
X143300000Y-82450000D01*
X143300000Y-82450000D02*
X143300000Y-85250000D01*
%TD*%
%TA.AperFunction,Conductor*%
%TO.N,GND*%
G36*
X181842539Y-70270185D02*
G01*
X181888294Y-70322989D01*
X181899500Y-70374500D01*
X181899500Y-115125500D01*
X181879815Y-115192539D01*
X181827011Y-115238294D01*
X181775500Y-115249500D01*
X116524500Y-115249500D01*
X116457461Y-115229815D01*
X116411706Y-115177011D01*
X116400500Y-115125500D01*
X116400500Y-94152135D01*
X132149500Y-94152135D01*
X132149500Y-95947870D01*
X132149501Y-95947876D01*
X132155908Y-96007483D01*
X132206202Y-96142328D01*
X132206206Y-96142335D01*
X132292452Y-96257544D01*
X132292455Y-96257547D01*
X132407664Y-96343793D01*
X132407671Y-96343797D01*
X132443835Y-96357285D01*
X132542517Y-96394091D01*
X132602127Y-96400500D01*
X132951668Y-96400499D01*
X133018707Y-96420183D01*
X133019866Y-96420937D01*
X133747302Y-96899981D01*
X134008424Y-97071939D01*
X134053587Y-97125250D01*
X134062758Y-97194515D01*
X134033026Y-97257743D01*
X133973831Y-97294859D01*
X133940225Y-97299500D01*
X132602129Y-97299500D01*
X132602123Y-97299501D01*
X132542516Y-97305908D01*
X132407671Y-97356202D01*
X132407664Y-97356206D01*
X132292455Y-97442452D01*
X132292452Y-97442455D01*
X132206206Y-97557664D01*
X132206202Y-97557671D01*
X132155908Y-97692517D01*
X132149501Y-97752116D01*
X132149500Y-97752135D01*
X132149500Y-99547870D01*
X132149501Y-99547876D01*
X132155908Y-99607483D01*
X132206202Y-99742328D01*
X132206206Y-99742335D01*
X132292452Y-99857544D01*
X132292455Y-99857547D01*
X132407664Y-99943793D01*
X132407671Y-99943797D01*
X132449985Y-99959579D01*
X132542517Y-99994091D01*
X132602127Y-100000500D01*
X132951668Y-100000499D01*
X133018707Y-100020183D01*
X133019867Y-100020938D01*
X134008423Y-100671939D01*
X134053586Y-100725250D01*
X134062757Y-100794515D01*
X134033025Y-100857743D01*
X133973830Y-100894859D01*
X133940224Y-100899500D01*
X132602129Y-100899500D01*
X132602123Y-100899501D01*
X132542516Y-100905908D01*
X132407671Y-100956202D01*
X132407664Y-100956206D01*
X132292455Y-101042452D01*
X132292452Y-101042455D01*
X132206206Y-101157664D01*
X132206202Y-101157671D01*
X132155908Y-101292517D01*
X132149501Y-101352116D01*
X132149500Y-101352135D01*
X132149500Y-103147870D01*
X132149501Y-103147876D01*
X132155908Y-103207483D01*
X132206202Y-103342328D01*
X132206206Y-103342335D01*
X132292452Y-103457544D01*
X132292455Y-103457547D01*
X132407664Y-103543793D01*
X132407671Y-103543797D01*
X132452618Y-103560561D01*
X132542517Y-103594091D01*
X132602127Y-103600500D01*
X132951668Y-103600499D01*
X133018707Y-103620183D01*
X133019867Y-103620938D01*
X134008424Y-104271939D01*
X134053587Y-104325250D01*
X134062758Y-104394515D01*
X134033026Y-104457743D01*
X133973831Y-104494859D01*
X133940225Y-104499500D01*
X132602129Y-104499500D01*
X132602123Y-104499501D01*
X132542516Y-104505908D01*
X132407671Y-104556202D01*
X132407664Y-104556206D01*
X132292455Y-104642452D01*
X132292452Y-104642455D01*
X132206206Y-104757664D01*
X132206202Y-104757671D01*
X132155908Y-104892517D01*
X132149501Y-104952116D01*
X132149500Y-104952135D01*
X132149500Y-106747870D01*
X132149501Y-106747876D01*
X132155908Y-106807483D01*
X132206202Y-106942328D01*
X132206206Y-106942335D01*
X132292452Y-107057544D01*
X132292455Y-107057547D01*
X132407664Y-107143793D01*
X132407671Y-107143797D01*
X132452618Y-107160561D01*
X132542517Y-107194091D01*
X132602127Y-107200500D01*
X132981744Y-107200499D01*
X133043898Y-107217201D01*
X134000488Y-107771318D01*
X134026015Y-107790935D01*
X134119735Y-107884655D01*
X134119764Y-107884686D01*
X134262214Y-108027136D01*
X134262218Y-108027139D01*
X134426079Y-108136628D01*
X134426092Y-108136635D01*
X134554833Y-108189961D01*
X134608159Y-108212049D01*
X134608164Y-108212051D01*
X134688380Y-108228007D01*
X134716649Y-108233630D01*
X134801456Y-108250500D01*
X134801459Y-108250500D01*
X158598543Y-108250500D01*
X158673927Y-108235504D01*
X158711620Y-108228007D01*
X158791836Y-108212051D01*
X158845165Y-108189961D01*
X158973914Y-108136632D01*
X159137782Y-108027139D01*
X159277139Y-107887782D01*
X159277140Y-107887779D01*
X159284206Y-107880714D01*
X159284209Y-107880710D01*
X160912778Y-106252141D01*
X160912782Y-106252139D01*
X161052139Y-106112782D01*
X161161632Y-105948914D01*
X161237051Y-105766835D01*
X161258459Y-105659212D01*
X161275500Y-105573543D01*
X161275500Y-104991026D01*
X161278862Y-104962346D01*
X161279391Y-104960124D01*
X161298702Y-104747696D01*
X161324375Y-104682715D01*
X161381105Y-104641928D01*
X161450879Y-104638287D01*
X161509874Y-104671242D01*
X161531344Y-104692712D01*
X161680666Y-104784814D01*
X161847203Y-104839999D01*
X161949991Y-104850500D01*
X162700008Y-104850499D01*
X162700016Y-104850498D01*
X162700019Y-104850498D01*
X162759449Y-104844427D01*
X162802797Y-104839999D01*
X162969334Y-104784814D01*
X163075124Y-104719561D01*
X163125172Y-104702017D01*
X163286635Y-104682283D01*
X163307857Y-104681523D01*
X163613960Y-104696828D01*
X163679932Y-104719836D01*
X163722993Y-104774859D01*
X163729470Y-104844427D01*
X163722427Y-104867886D01*
X163585540Y-105200326D01*
X163566555Y-105263246D01*
X163564025Y-105270754D01*
X163555910Y-105292510D01*
X163555908Y-105292520D01*
X163549501Y-105352116D01*
X163549500Y-105352135D01*
X163549500Y-105447281D01*
X163549418Y-105451779D01*
X163549315Y-105454598D01*
X163549500Y-105458054D01*
X163549500Y-107147870D01*
X163549501Y-107147876D01*
X163555908Y-107207483D01*
X163606202Y-107342328D01*
X163606206Y-107342335D01*
X163692452Y-107457544D01*
X163692455Y-107457547D01*
X163807664Y-107543793D01*
X163807671Y-107543797D01*
X163942517Y-107594091D01*
X163942516Y-107594091D01*
X163949444Y-107594835D01*
X164002127Y-107600500D01*
X165797872Y-107600499D01*
X165857483Y-107594091D01*
X165992331Y-107543796D01*
X166107546Y-107457546D01*
X166193796Y-107342331D01*
X166244091Y-107207483D01*
X166250500Y-107147873D01*
X166250499Y-105425614D01*
X166251799Y-105407704D01*
X166252512Y-105402820D01*
X166252531Y-105393865D01*
X166250663Y-105357580D01*
X166250544Y-105352957D01*
X166250418Y-105350612D01*
X166250095Y-105346574D01*
X166249748Y-105339808D01*
X166249747Y-105339804D01*
X166249747Y-105339802D01*
X166248840Y-105333779D01*
X166248996Y-105333755D01*
X166247817Y-105327178D01*
X166244091Y-105292518D01*
X166234585Y-105267032D01*
X166226844Y-105246277D01*
X166222818Y-105233373D01*
X166214457Y-105200323D01*
X166072819Y-104856347D01*
X166065497Y-104786864D01*
X166096902Y-104724451D01*
X166148476Y-104691430D01*
X166152793Y-104689999D01*
X166152797Y-104689999D01*
X166319334Y-104634814D01*
X166468656Y-104542712D01*
X166592712Y-104418656D01*
X166684814Y-104269334D01*
X166739999Y-104102797D01*
X166750500Y-104000009D01*
X166750499Y-102899992D01*
X166739999Y-102797203D01*
X166684814Y-102630666D01*
X166592712Y-102481344D01*
X166468656Y-102357288D01*
X166319334Y-102265186D01*
X166152797Y-102210001D01*
X166152795Y-102210000D01*
X166050010Y-102199500D01*
X163749998Y-102199500D01*
X163749981Y-102199501D01*
X163647203Y-102210000D01*
X163647200Y-102210001D01*
X163480668Y-102265185D01*
X163480659Y-102265189D01*
X163331347Y-102357285D01*
X163331344Y-102357288D01*
X163306745Y-102381886D01*
X163266645Y-102408711D01*
X163034867Y-102505014D01*
X162965406Y-102512559D01*
X162948285Y-102508211D01*
X162932933Y-102503123D01*
X162802797Y-102460001D01*
X162802795Y-102460000D01*
X162700016Y-102449500D01*
X162700009Y-102449500D01*
X162499500Y-102449500D01*
X162432461Y-102429815D01*
X162386706Y-102377011D01*
X162375500Y-102325500D01*
X162375499Y-100889629D01*
X162375498Y-100889623D01*
X162375497Y-100889616D01*
X162369091Y-100830017D01*
X162356852Y-100797203D01*
X162318797Y-100695171D01*
X162318793Y-100695164D01*
X162232547Y-100579955D01*
X162232544Y-100579952D01*
X162117335Y-100493706D01*
X162117328Y-100493702D01*
X161982482Y-100443408D01*
X161982483Y-100443408D01*
X161922883Y-100437001D01*
X161922881Y-100437000D01*
X161922873Y-100437000D01*
X161922864Y-100437000D01*
X160677129Y-100437000D01*
X160677123Y-100437001D01*
X160617516Y-100443408D01*
X160482671Y-100493702D01*
X160482664Y-100493706D01*
X160367455Y-100579952D01*
X160367452Y-100579955D01*
X160281206Y-100695164D01*
X160281202Y-100695171D01*
X160230908Y-100830017D01*
X160227461Y-100862086D01*
X160224501Y-100889623D01*
X160224500Y-100889635D01*
X160224500Y-101144084D01*
X160204815Y-101211123D01*
X160193702Y-101225872D01*
X160131147Y-101297157D01*
X160131147Y-101297158D01*
X159767701Y-101711317D01*
X159708687Y-101748722D01*
X159638818Y-101748284D01*
X159580278Y-101710141D01*
X159551653Y-101646404D01*
X159550499Y-101629528D01*
X159550499Y-100899998D01*
X159550498Y-100899981D01*
X159539999Y-100797203D01*
X159539998Y-100797200D01*
X159514362Y-100719836D01*
X159484814Y-100630666D01*
X159392712Y-100481344D01*
X159268656Y-100357288D01*
X159119334Y-100265186D01*
X158952797Y-100210001D01*
X158952795Y-100210000D01*
X158850010Y-100199500D01*
X156549998Y-100199500D01*
X156549981Y-100199501D01*
X156447203Y-100210000D01*
X156447200Y-100210001D01*
X156280668Y-100265185D01*
X156280659Y-100265189D01*
X156131347Y-100357285D01*
X156131344Y-100357288D01*
X156106745Y-100381886D01*
X156066645Y-100408711D01*
X155834867Y-100505014D01*
X155765406Y-100512559D01*
X155748285Y-100508211D01*
X155704506Y-100493704D01*
X155602797Y-100460001D01*
X155602795Y-100460000D01*
X155500016Y-100449500D01*
X155500009Y-100449500D01*
X155299500Y-100449500D01*
X155232461Y-100429815D01*
X155186706Y-100377011D01*
X155175500Y-100325500D01*
X155175499Y-99210344D01*
X160225000Y-99210344D01*
X160231401Y-99269872D01*
X160231403Y-99269879D01*
X160281645Y-99404586D01*
X160281649Y-99404593D01*
X160367809Y-99519687D01*
X160367812Y-99519690D01*
X160482906Y-99605850D01*
X160482913Y-99605854D01*
X160617620Y-99656096D01*
X160617627Y-99656098D01*
X160677155Y-99662499D01*
X160677172Y-99662500D01*
X161050000Y-99662500D01*
X161550000Y-99662500D01*
X161922828Y-99662500D01*
X161922844Y-99662499D01*
X161982372Y-99656098D01*
X161982379Y-99656096D01*
X162117086Y-99605854D01*
X162117093Y-99605850D01*
X162232187Y-99519690D01*
X162232190Y-99519687D01*
X162318350Y-99404593D01*
X162318354Y-99404586D01*
X162368596Y-99269879D01*
X162368598Y-99269872D01*
X162374999Y-99210344D01*
X162375000Y-99210327D01*
X162375000Y-99199986D01*
X163050001Y-99199986D01*
X163060494Y-99302697D01*
X163115641Y-99469119D01*
X163115643Y-99469124D01*
X163207684Y-99618345D01*
X163331654Y-99742315D01*
X163480875Y-99834356D01*
X163480880Y-99834358D01*
X163647302Y-99889505D01*
X163647309Y-99889506D01*
X163750019Y-99899999D01*
X164649999Y-99899999D01*
X165150000Y-99899999D01*
X166049972Y-99899999D01*
X166049986Y-99899998D01*
X166152697Y-99889505D01*
X166319119Y-99834358D01*
X166319124Y-99834356D01*
X166468345Y-99742315D01*
X166592315Y-99618345D01*
X166684356Y-99469124D01*
X166684358Y-99469119D01*
X166739505Y-99302697D01*
X166739506Y-99302690D01*
X166749999Y-99199986D01*
X166750000Y-99199973D01*
X166750000Y-98900000D01*
X165150000Y-98900000D01*
X165150000Y-99899999D01*
X164649999Y-99899999D01*
X164650000Y-99899998D01*
X164650000Y-98900000D01*
X163050001Y-98900000D01*
X163050001Y-99199986D01*
X162375000Y-99199986D01*
X162375000Y-98725000D01*
X161550000Y-98725000D01*
X161550000Y-99662500D01*
X161050000Y-99662500D01*
X161050000Y-98725000D01*
X160225000Y-98725000D01*
X160225000Y-99210344D01*
X155175499Y-99210344D01*
X155175499Y-98889629D01*
X155175498Y-98889623D01*
X155175497Y-98889616D01*
X155169091Y-98830017D01*
X155156852Y-98797203D01*
X155118797Y-98695171D01*
X155118793Y-98695164D01*
X155032547Y-98579955D01*
X155032544Y-98579952D01*
X154917335Y-98493706D01*
X154917328Y-98493702D01*
X154782482Y-98443408D01*
X154782483Y-98443408D01*
X154722883Y-98437001D01*
X154722881Y-98437000D01*
X154722873Y-98437000D01*
X154722864Y-98437000D01*
X153477129Y-98437000D01*
X153477123Y-98437001D01*
X153417516Y-98443408D01*
X153282671Y-98493702D01*
X153282664Y-98493706D01*
X153167455Y-98579952D01*
X153167452Y-98579955D01*
X153081206Y-98695164D01*
X153081202Y-98695171D01*
X153030908Y-98830017D01*
X153027087Y-98865565D01*
X153024501Y-98889623D01*
X153024500Y-98889635D01*
X153024500Y-99144084D01*
X153004815Y-99211123D01*
X152993702Y-99225872D01*
X152931147Y-99297157D01*
X152931147Y-99297158D01*
X152567701Y-99711317D01*
X152508687Y-99748722D01*
X152438818Y-99748284D01*
X152380278Y-99710141D01*
X152351653Y-99646404D01*
X152350499Y-99629528D01*
X152350499Y-98899998D01*
X152350498Y-98899981D01*
X152339999Y-98797203D01*
X152339998Y-98797200D01*
X152314362Y-98719836D01*
X152284814Y-98630666D01*
X152192712Y-98481344D01*
X152068656Y-98357288D01*
X151919334Y-98265186D01*
X151752797Y-98210001D01*
X151752795Y-98210000D01*
X151650010Y-98199500D01*
X149349998Y-98199500D01*
X149349981Y-98199501D01*
X149247203Y-98210000D01*
X149247200Y-98210001D01*
X149080668Y-98265185D01*
X149080659Y-98265189D01*
X148931347Y-98357285D01*
X148931344Y-98357288D01*
X148906745Y-98381886D01*
X148866645Y-98408711D01*
X148634867Y-98505014D01*
X148565406Y-98512559D01*
X148548285Y-98508211D01*
X148504506Y-98493704D01*
X148402797Y-98460001D01*
X148402795Y-98460000D01*
X148300016Y-98449500D01*
X148300009Y-98449500D01*
X148099500Y-98449500D01*
X148032461Y-98429815D01*
X147986706Y-98377011D01*
X147975500Y-98325500D01*
X147975499Y-97210344D01*
X153025000Y-97210344D01*
X153031401Y-97269872D01*
X153031403Y-97269879D01*
X153081645Y-97404586D01*
X153081649Y-97404593D01*
X153167809Y-97519687D01*
X153167812Y-97519690D01*
X153282906Y-97605850D01*
X153282913Y-97605854D01*
X153417620Y-97656096D01*
X153417627Y-97656098D01*
X153477155Y-97662499D01*
X153477172Y-97662500D01*
X153850000Y-97662500D01*
X154350000Y-97662500D01*
X154722828Y-97662500D01*
X154722844Y-97662499D01*
X154782372Y-97656098D01*
X154782379Y-97656096D01*
X154917086Y-97605854D01*
X154917093Y-97605850D01*
X155032187Y-97519690D01*
X155032190Y-97519687D01*
X155118350Y-97404593D01*
X155118354Y-97404586D01*
X155168596Y-97269879D01*
X155168598Y-97269872D01*
X155174999Y-97210344D01*
X155175000Y-97210327D01*
X155175000Y-97199986D01*
X155850001Y-97199986D01*
X155860494Y-97302697D01*
X155915641Y-97469119D01*
X155915643Y-97469124D01*
X156007684Y-97618345D01*
X156131654Y-97742315D01*
X156280875Y-97834356D01*
X156280880Y-97834358D01*
X156447302Y-97889505D01*
X156447309Y-97889506D01*
X156550019Y-97899999D01*
X157449999Y-97899999D01*
X157950000Y-97899999D01*
X158849972Y-97899999D01*
X158849986Y-97899998D01*
X158952697Y-97889505D01*
X159119119Y-97834358D01*
X159119124Y-97834356D01*
X159268345Y-97742315D01*
X159271005Y-97739655D01*
X160225000Y-97739655D01*
X160225000Y-98225000D01*
X161050000Y-98225000D01*
X161550000Y-98225000D01*
X162375000Y-98225000D01*
X162375000Y-98100013D01*
X163050000Y-98100013D01*
X163050000Y-98400000D01*
X164650000Y-98400000D01*
X165150000Y-98400000D01*
X166749999Y-98400000D01*
X166749999Y-98100028D01*
X166749998Y-98100013D01*
X166739505Y-97997302D01*
X166684358Y-97830880D01*
X166684356Y-97830875D01*
X166592315Y-97681654D01*
X166468345Y-97557684D01*
X166319124Y-97465643D01*
X166319119Y-97465641D01*
X166152697Y-97410494D01*
X166152690Y-97410493D01*
X166049986Y-97400000D01*
X165150000Y-97400000D01*
X165150000Y-98400000D01*
X164650000Y-98400000D01*
X164650000Y-97400000D01*
X163750028Y-97400000D01*
X163750012Y-97400001D01*
X163647302Y-97410494D01*
X163480880Y-97465641D01*
X163480875Y-97465643D01*
X163331654Y-97557684D01*
X163207684Y-97681654D01*
X163115643Y-97830875D01*
X163115641Y-97830880D01*
X163060494Y-97997302D01*
X163060493Y-97997309D01*
X163050000Y-98100013D01*
X162375000Y-98100013D01*
X162375000Y-97739672D01*
X162374999Y-97739655D01*
X162368598Y-97680127D01*
X162368596Y-97680120D01*
X162318354Y-97545413D01*
X162318350Y-97545406D01*
X162232190Y-97430312D01*
X162232187Y-97430309D01*
X162117093Y-97344149D01*
X162117086Y-97344145D01*
X161982379Y-97293903D01*
X161982372Y-97293901D01*
X161922844Y-97287500D01*
X161550000Y-97287500D01*
X161550000Y-98225000D01*
X161050000Y-98225000D01*
X161050000Y-97287500D01*
X160677155Y-97287500D01*
X160617627Y-97293901D01*
X160617620Y-97293903D01*
X160482913Y-97344145D01*
X160482906Y-97344149D01*
X160367812Y-97430309D01*
X160367809Y-97430312D01*
X160281649Y-97545406D01*
X160281645Y-97545413D01*
X160231403Y-97680120D01*
X160231401Y-97680127D01*
X160225000Y-97739655D01*
X159271005Y-97739655D01*
X159392315Y-97618345D01*
X159484356Y-97469124D01*
X159484358Y-97469119D01*
X159539505Y-97302697D01*
X159539506Y-97302690D01*
X159549999Y-97199986D01*
X159550000Y-97199973D01*
X159550000Y-96900000D01*
X157950000Y-96900000D01*
X157950000Y-97899999D01*
X157449999Y-97899999D01*
X157450000Y-97899998D01*
X157450000Y-96900000D01*
X155850001Y-96900000D01*
X155850001Y-97199986D01*
X155175000Y-97199986D01*
X155175000Y-96725000D01*
X154350000Y-96725000D01*
X154350000Y-97662500D01*
X153850000Y-97662500D01*
X153850000Y-96725000D01*
X153025000Y-96725000D01*
X153025000Y-97210344D01*
X147975499Y-97210344D01*
X147975499Y-96889629D01*
X147975498Y-96889623D01*
X147975497Y-96889616D01*
X147969091Y-96830017D01*
X147956852Y-96797203D01*
X147918797Y-96695171D01*
X147918793Y-96695164D01*
X147832547Y-96579955D01*
X147832544Y-96579952D01*
X147717335Y-96493706D01*
X147717328Y-96493702D01*
X147582482Y-96443408D01*
X147582483Y-96443408D01*
X147522883Y-96437001D01*
X147522881Y-96437000D01*
X147522873Y-96437000D01*
X147522864Y-96437000D01*
X146277129Y-96437000D01*
X146277123Y-96437001D01*
X146217516Y-96443408D01*
X146082671Y-96493702D01*
X146082664Y-96493706D01*
X145967455Y-96579952D01*
X145967452Y-96579955D01*
X145881206Y-96695164D01*
X145881202Y-96695171D01*
X145830908Y-96830017D01*
X145824501Y-96889616D01*
X145824501Y-96889623D01*
X145824500Y-96889635D01*
X145824500Y-97144084D01*
X145804815Y-97211123D01*
X145793702Y-97225872D01*
X145731147Y-97297157D01*
X145731147Y-97297158D01*
X145367701Y-97711317D01*
X145308687Y-97748722D01*
X145238818Y-97748284D01*
X145180278Y-97710141D01*
X145151653Y-97646404D01*
X145150499Y-97629528D01*
X145150499Y-96899998D01*
X145150498Y-96899981D01*
X145139999Y-96797203D01*
X145139998Y-96797200D01*
X145116073Y-96725000D01*
X145084814Y-96630666D01*
X144992712Y-96481344D01*
X144868656Y-96357288D01*
X144719334Y-96265186D01*
X144552797Y-96210001D01*
X144552795Y-96210000D01*
X144450010Y-96199500D01*
X142149998Y-96199500D01*
X142149981Y-96199501D01*
X142047203Y-96210000D01*
X142047200Y-96210001D01*
X141880668Y-96265185D01*
X141880659Y-96265189D01*
X141731347Y-96357285D01*
X141731344Y-96357288D01*
X141706745Y-96381886D01*
X141666645Y-96408711D01*
X141434867Y-96505014D01*
X141365406Y-96512559D01*
X141348285Y-96508211D01*
X141304506Y-96493704D01*
X141202797Y-96460001D01*
X141202795Y-96460000D01*
X141100016Y-96449500D01*
X141100009Y-96449500D01*
X140899500Y-96449500D01*
X140832461Y-96429815D01*
X140786706Y-96377011D01*
X140775500Y-96325500D01*
X140775499Y-95210344D01*
X145825000Y-95210344D01*
X145831401Y-95269872D01*
X145831403Y-95269879D01*
X145881645Y-95404586D01*
X145881649Y-95404593D01*
X145967809Y-95519687D01*
X145967812Y-95519690D01*
X146082906Y-95605850D01*
X146082913Y-95605854D01*
X146217620Y-95656096D01*
X146217627Y-95656098D01*
X146277155Y-95662499D01*
X146277172Y-95662500D01*
X146650000Y-95662500D01*
X147150000Y-95662500D01*
X147522828Y-95662500D01*
X147522844Y-95662499D01*
X147582372Y-95656098D01*
X147582379Y-95656096D01*
X147717086Y-95605854D01*
X147717093Y-95605850D01*
X147832187Y-95519690D01*
X147832190Y-95519687D01*
X147918350Y-95404593D01*
X147918354Y-95404586D01*
X147968596Y-95269879D01*
X147968598Y-95269872D01*
X147974999Y-95210344D01*
X147975000Y-95210327D01*
X147975000Y-95199986D01*
X148650001Y-95199986D01*
X148660494Y-95302697D01*
X148715641Y-95469119D01*
X148715643Y-95469124D01*
X148807684Y-95618345D01*
X148931654Y-95742315D01*
X149080875Y-95834356D01*
X149080880Y-95834358D01*
X149247302Y-95889505D01*
X149247309Y-95889506D01*
X149350019Y-95899999D01*
X150249999Y-95899999D01*
X150750000Y-95899999D01*
X151649972Y-95899999D01*
X151649986Y-95899998D01*
X151752697Y-95889505D01*
X151919119Y-95834358D01*
X151919124Y-95834356D01*
X152068345Y-95742315D01*
X152071005Y-95739655D01*
X153025000Y-95739655D01*
X153025000Y-96225000D01*
X153850000Y-96225000D01*
X154350000Y-96225000D01*
X155175000Y-96225000D01*
X155175000Y-96100013D01*
X155850000Y-96100013D01*
X155850000Y-96400000D01*
X157450000Y-96400000D01*
X157950000Y-96400000D01*
X159549999Y-96400000D01*
X159549999Y-96100028D01*
X159549998Y-96100013D01*
X159539505Y-95997302D01*
X159484358Y-95830880D01*
X159484356Y-95830875D01*
X159392315Y-95681654D01*
X159268345Y-95557684D01*
X159119124Y-95465643D01*
X159119119Y-95465641D01*
X158952697Y-95410494D01*
X158952690Y-95410493D01*
X158849986Y-95400000D01*
X157950000Y-95400000D01*
X157950000Y-96400000D01*
X157450000Y-96400000D01*
X157450000Y-95400000D01*
X156550028Y-95400000D01*
X156550012Y-95400001D01*
X156447302Y-95410494D01*
X156280880Y-95465641D01*
X156280875Y-95465643D01*
X156131654Y-95557684D01*
X156007684Y-95681654D01*
X155915643Y-95830875D01*
X155915641Y-95830880D01*
X155860494Y-95997302D01*
X155860493Y-95997309D01*
X155850000Y-96100013D01*
X155175000Y-96100013D01*
X155175000Y-95739672D01*
X155174999Y-95739655D01*
X155168598Y-95680127D01*
X155168596Y-95680120D01*
X155118354Y-95545413D01*
X155118350Y-95545406D01*
X155032190Y-95430312D01*
X155032187Y-95430309D01*
X154917093Y-95344149D01*
X154917086Y-95344145D01*
X154782379Y-95293903D01*
X154782372Y-95293901D01*
X154722844Y-95287500D01*
X154350000Y-95287500D01*
X154350000Y-96225000D01*
X153850000Y-96225000D01*
X153850000Y-95287500D01*
X153477155Y-95287500D01*
X153417627Y-95293901D01*
X153417620Y-95293903D01*
X153282913Y-95344145D01*
X153282906Y-95344149D01*
X153167812Y-95430309D01*
X153167809Y-95430312D01*
X153081649Y-95545406D01*
X153081645Y-95545413D01*
X153031403Y-95680120D01*
X153031401Y-95680127D01*
X153025000Y-95739655D01*
X152071005Y-95739655D01*
X152192315Y-95618345D01*
X152284356Y-95469124D01*
X152284358Y-95469119D01*
X152339505Y-95302697D01*
X152339506Y-95302690D01*
X152349999Y-95199986D01*
X152350000Y-95199973D01*
X152350000Y-94900000D01*
X150750000Y-94900000D01*
X150750000Y-95899999D01*
X150249999Y-95899999D01*
X150250000Y-95899998D01*
X150250000Y-94900000D01*
X148650001Y-94900000D01*
X148650001Y-95199986D01*
X147975000Y-95199986D01*
X147975000Y-94725000D01*
X147150000Y-94725000D01*
X147150000Y-95662500D01*
X146650000Y-95662500D01*
X146650000Y-94725000D01*
X145825000Y-94725000D01*
X145825000Y-95210344D01*
X140775499Y-95210344D01*
X140775499Y-94889629D01*
X140775498Y-94889623D01*
X140775497Y-94889616D01*
X140769091Y-94830017D01*
X140757895Y-94800000D01*
X140718797Y-94695171D01*
X140718793Y-94695164D01*
X140632547Y-94579955D01*
X140632544Y-94579952D01*
X140517335Y-94493706D01*
X140517328Y-94493702D01*
X140382482Y-94443408D01*
X140382483Y-94443408D01*
X140322883Y-94437001D01*
X140322881Y-94437000D01*
X140322873Y-94437000D01*
X140322864Y-94437000D01*
X139077129Y-94437000D01*
X139077123Y-94437001D01*
X139017516Y-94443408D01*
X138882671Y-94493702D01*
X138882664Y-94493706D01*
X138767455Y-94579952D01*
X138767452Y-94579955D01*
X138681206Y-94695164D01*
X138681202Y-94695171D01*
X138630908Y-94830017D01*
X138628007Y-94857007D01*
X138624501Y-94889623D01*
X138624500Y-94889635D01*
X138624500Y-95144084D01*
X138604815Y-95211123D01*
X138593702Y-95225872D01*
X138531147Y-95297157D01*
X138531147Y-95297158D01*
X137992139Y-95911376D01*
X137967501Y-95941658D01*
X137959000Y-95951078D01*
X137897858Y-96012221D01*
X137788371Y-96176079D01*
X137788364Y-96176092D01*
X137752458Y-96262780D01*
X137712950Y-96358160D01*
X137712949Y-96358163D01*
X137712949Y-96358164D01*
X137712510Y-96360372D01*
X137712510Y-96360373D01*
X137677529Y-96536228D01*
X137645144Y-96598139D01*
X137584428Y-96632713D01*
X137570957Y-96635120D01*
X137473934Y-96646979D01*
X137465551Y-96648202D01*
X137447658Y-96649500D01*
X136565783Y-96649500D01*
X136498744Y-96629815D01*
X136478102Y-96613181D01*
X135721021Y-95856100D01*
X135705141Y-95836618D01*
X135553174Y-95605854D01*
X134870938Y-94569865D01*
X134850507Y-94503049D01*
X134850499Y-94501666D01*
X134850499Y-94152129D01*
X134850498Y-94152123D01*
X134850497Y-94152116D01*
X134844091Y-94092517D01*
X134793884Y-93957906D01*
X134793797Y-93957671D01*
X134793793Y-93957664D01*
X134707547Y-93842455D01*
X134707544Y-93842452D01*
X134592335Y-93756206D01*
X134592328Y-93756202D01*
X134457482Y-93705908D01*
X134457483Y-93705908D01*
X134397883Y-93699501D01*
X134397881Y-93699500D01*
X134397873Y-93699500D01*
X134397864Y-93699500D01*
X132602129Y-93699500D01*
X132602123Y-93699501D01*
X132542516Y-93705908D01*
X132407671Y-93756202D01*
X132407664Y-93756206D01*
X132292455Y-93842452D01*
X132292452Y-93842455D01*
X132206206Y-93957664D01*
X132206202Y-93957671D01*
X132155908Y-94092517D01*
X132155101Y-94100028D01*
X132149501Y-94152123D01*
X132149500Y-94152135D01*
X116400500Y-94152135D01*
X116400500Y-93210344D01*
X138625000Y-93210344D01*
X138631401Y-93269872D01*
X138631403Y-93269879D01*
X138681645Y-93404586D01*
X138681649Y-93404593D01*
X138767809Y-93519687D01*
X138767812Y-93519690D01*
X138882906Y-93605850D01*
X138882913Y-93605854D01*
X139017620Y-93656096D01*
X139017627Y-93656098D01*
X139077155Y-93662499D01*
X139077172Y-93662500D01*
X139450000Y-93662500D01*
X139950000Y-93662500D01*
X140322828Y-93662500D01*
X140322844Y-93662499D01*
X140382372Y-93656098D01*
X140382379Y-93656096D01*
X140517086Y-93605854D01*
X140517093Y-93605850D01*
X140632187Y-93519690D01*
X140632190Y-93519687D01*
X140718350Y-93404593D01*
X140718354Y-93404586D01*
X140768596Y-93269879D01*
X140768598Y-93269872D01*
X140774999Y-93210344D01*
X140775000Y-93210327D01*
X140775000Y-93199986D01*
X141450001Y-93199986D01*
X141460494Y-93302697D01*
X141515641Y-93469119D01*
X141515643Y-93469124D01*
X141607684Y-93618345D01*
X141731654Y-93742315D01*
X141880875Y-93834356D01*
X141880880Y-93834358D01*
X142047302Y-93889505D01*
X142047309Y-93889506D01*
X142150019Y-93899999D01*
X143049999Y-93899999D01*
X143550000Y-93899999D01*
X144449972Y-93899999D01*
X144449986Y-93899998D01*
X144552697Y-93889505D01*
X144719119Y-93834358D01*
X144719124Y-93834356D01*
X144868345Y-93742315D01*
X144871005Y-93739655D01*
X145825000Y-93739655D01*
X145825000Y-94225000D01*
X146650000Y-94225000D01*
X147150000Y-94225000D01*
X147975000Y-94225000D01*
X147975000Y-94100013D01*
X148650000Y-94100013D01*
X148650000Y-94400000D01*
X150250000Y-94400000D01*
X150750000Y-94400000D01*
X152349999Y-94400000D01*
X152349999Y-94152155D01*
X159950000Y-94152155D01*
X159950000Y-94800000D01*
X160866988Y-94800000D01*
X160834075Y-94857007D01*
X160800000Y-94984174D01*
X160800000Y-95115826D01*
X160834075Y-95242993D01*
X160866988Y-95300000D01*
X159950000Y-95300000D01*
X159950000Y-95947844D01*
X159956401Y-96007372D01*
X159956403Y-96007379D01*
X160006645Y-96142086D01*
X160006649Y-96142093D01*
X160092809Y-96257187D01*
X160092812Y-96257190D01*
X160207906Y-96343350D01*
X160207913Y-96343354D01*
X160342620Y-96393596D01*
X160342627Y-96393598D01*
X160402155Y-96399999D01*
X160402172Y-96400000D01*
X161050000Y-96400000D01*
X161050000Y-95483012D01*
X161107007Y-95515925D01*
X161234174Y-95550000D01*
X161365826Y-95550000D01*
X161492993Y-95515925D01*
X161550000Y-95483012D01*
X161550000Y-96400000D01*
X162197828Y-96400000D01*
X162197844Y-96399999D01*
X162257372Y-96393598D01*
X162257379Y-96393596D01*
X162392086Y-96343354D01*
X162392093Y-96343350D01*
X162507187Y-96257190D01*
X162507190Y-96257187D01*
X162593350Y-96142093D01*
X162593354Y-96142086D01*
X162643596Y-96007379D01*
X162643598Y-96007372D01*
X162649999Y-95947844D01*
X162650000Y-95947827D01*
X162650000Y-95300000D01*
X161733012Y-95300000D01*
X161765925Y-95242993D01*
X161800000Y-95115826D01*
X161800000Y-94984174D01*
X161765925Y-94857007D01*
X161733012Y-94800000D01*
X162650000Y-94800000D01*
X162650000Y-94152172D01*
X162649999Y-94152155D01*
X163550000Y-94152155D01*
X163550000Y-94800000D01*
X164466988Y-94800000D01*
X164434075Y-94857007D01*
X164400000Y-94984174D01*
X164400000Y-95115826D01*
X164434075Y-95242993D01*
X164466988Y-95300000D01*
X163550000Y-95300000D01*
X163550000Y-95947844D01*
X163556401Y-96007372D01*
X163556403Y-96007379D01*
X163606645Y-96142086D01*
X163606649Y-96142093D01*
X163692809Y-96257187D01*
X163692812Y-96257190D01*
X163807906Y-96343350D01*
X163807913Y-96343354D01*
X163942620Y-96393596D01*
X163942627Y-96393598D01*
X164002155Y-96399999D01*
X164002172Y-96400000D01*
X164650000Y-96400000D01*
X164650000Y-95483012D01*
X164707007Y-95515925D01*
X164834174Y-95550000D01*
X164965826Y-95550000D01*
X165092993Y-95515925D01*
X165150000Y-95483012D01*
X165150000Y-96400000D01*
X165797828Y-96400000D01*
X165797844Y-96399999D01*
X165857372Y-96393598D01*
X165857379Y-96393596D01*
X165992086Y-96343354D01*
X165992093Y-96343350D01*
X166107187Y-96257190D01*
X166107190Y-96257187D01*
X166193350Y-96142093D01*
X166193354Y-96142086D01*
X166243596Y-96007379D01*
X166243598Y-96007372D01*
X166249999Y-95947844D01*
X166250000Y-95947827D01*
X166250000Y-95300000D01*
X165333012Y-95300000D01*
X165365925Y-95242993D01*
X165400000Y-95115826D01*
X165400000Y-94984174D01*
X165365925Y-94857007D01*
X165333012Y-94800000D01*
X166250000Y-94800000D01*
X166250000Y-94152172D01*
X166249999Y-94152155D01*
X166243598Y-94092627D01*
X166243596Y-94092620D01*
X166193354Y-93957913D01*
X166193350Y-93957906D01*
X166107190Y-93842812D01*
X166107187Y-93842809D01*
X165992093Y-93756649D01*
X165992086Y-93756645D01*
X165857379Y-93706403D01*
X165857372Y-93706401D01*
X165797844Y-93700000D01*
X165150000Y-93700000D01*
X165150000Y-94616988D01*
X165092993Y-94584075D01*
X164965826Y-94550000D01*
X164834174Y-94550000D01*
X164707007Y-94584075D01*
X164650000Y-94616988D01*
X164650000Y-93700000D01*
X164002155Y-93700000D01*
X163942627Y-93706401D01*
X163942620Y-93706403D01*
X163807913Y-93756645D01*
X163807906Y-93756649D01*
X163692812Y-93842809D01*
X163692809Y-93842812D01*
X163606649Y-93957906D01*
X163606645Y-93957913D01*
X163556403Y-94092620D01*
X163556401Y-94092627D01*
X163550000Y-94152155D01*
X162649999Y-94152155D01*
X162643598Y-94092627D01*
X162643596Y-94092620D01*
X162593354Y-93957913D01*
X162593350Y-93957906D01*
X162507190Y-93842812D01*
X162507187Y-93842809D01*
X162392093Y-93756649D01*
X162392086Y-93756645D01*
X162257379Y-93706403D01*
X162257372Y-93706401D01*
X162197844Y-93700000D01*
X161550000Y-93700000D01*
X161550000Y-94616988D01*
X161492993Y-94584075D01*
X161365826Y-94550000D01*
X161234174Y-94550000D01*
X161107007Y-94584075D01*
X161050000Y-94616988D01*
X161050000Y-93700000D01*
X160402155Y-93700000D01*
X160342627Y-93706401D01*
X160342620Y-93706403D01*
X160207913Y-93756645D01*
X160207906Y-93756649D01*
X160092812Y-93842809D01*
X160092809Y-93842812D01*
X160006649Y-93957906D01*
X160006645Y-93957913D01*
X159956403Y-94092620D01*
X159956401Y-94092627D01*
X159950000Y-94152155D01*
X152349999Y-94152155D01*
X152349999Y-94100028D01*
X152349998Y-94100013D01*
X152339505Y-93997302D01*
X152284358Y-93830880D01*
X152284356Y-93830875D01*
X152192315Y-93681654D01*
X152068345Y-93557684D01*
X151919124Y-93465643D01*
X151919119Y-93465641D01*
X151752697Y-93410494D01*
X151752690Y-93410493D01*
X151649986Y-93400000D01*
X150750000Y-93400000D01*
X150750000Y-94400000D01*
X150250000Y-94400000D01*
X150250000Y-93400000D01*
X149350028Y-93400000D01*
X149350012Y-93400001D01*
X149247302Y-93410494D01*
X149080880Y-93465641D01*
X149080875Y-93465643D01*
X148931654Y-93557684D01*
X148807684Y-93681654D01*
X148715643Y-93830875D01*
X148715641Y-93830880D01*
X148660494Y-93997302D01*
X148660493Y-93997309D01*
X148650000Y-94100013D01*
X147975000Y-94100013D01*
X147975000Y-93739672D01*
X147974999Y-93739655D01*
X147968598Y-93680127D01*
X147968596Y-93680120D01*
X147918354Y-93545413D01*
X147918350Y-93545406D01*
X147832190Y-93430312D01*
X147832187Y-93430309D01*
X147717093Y-93344149D01*
X147717086Y-93344145D01*
X147582379Y-93293903D01*
X147582372Y-93293901D01*
X147522844Y-93287500D01*
X147150000Y-93287500D01*
X147150000Y-94225000D01*
X146650000Y-94225000D01*
X146650000Y-93287500D01*
X146277155Y-93287500D01*
X146217627Y-93293901D01*
X146217620Y-93293903D01*
X146082913Y-93344145D01*
X146082906Y-93344149D01*
X145967812Y-93430309D01*
X145967809Y-93430312D01*
X145881649Y-93545406D01*
X145881645Y-93545413D01*
X145831403Y-93680120D01*
X145831401Y-93680127D01*
X145825000Y-93739655D01*
X144871005Y-93739655D01*
X144992315Y-93618345D01*
X145084356Y-93469124D01*
X145084358Y-93469119D01*
X145139505Y-93302697D01*
X145139506Y-93302690D01*
X145149999Y-93199986D01*
X145150000Y-93199973D01*
X145150000Y-92900000D01*
X143550000Y-92900000D01*
X143550000Y-93899999D01*
X143049999Y-93899999D01*
X143050000Y-93899998D01*
X143050000Y-92900000D01*
X141450001Y-92900000D01*
X141450001Y-93199986D01*
X140775000Y-93199986D01*
X140775000Y-92725000D01*
X139950000Y-92725000D01*
X139950000Y-93662500D01*
X139450000Y-93662500D01*
X139450000Y-92725000D01*
X138625000Y-92725000D01*
X138625000Y-93210344D01*
X116400500Y-93210344D01*
X116400500Y-79752135D01*
X132149500Y-79752135D01*
X132149500Y-81547870D01*
X132149501Y-81547876D01*
X132155908Y-81607483D01*
X132206202Y-81742328D01*
X132206206Y-81742335D01*
X132292452Y-81857544D01*
X132292455Y-81857547D01*
X132407664Y-81943793D01*
X132407671Y-81943797D01*
X132452618Y-81960561D01*
X132542517Y-81994091D01*
X132602127Y-82000500D01*
X132951668Y-82000499D01*
X133018707Y-82020183D01*
X133019867Y-82020938D01*
X134008424Y-82671939D01*
X134053587Y-82725250D01*
X134062758Y-82794515D01*
X134033026Y-82857743D01*
X133973831Y-82894859D01*
X133940225Y-82899500D01*
X132602129Y-82899500D01*
X132602123Y-82899501D01*
X132542516Y-82905908D01*
X132407671Y-82956202D01*
X132407664Y-82956206D01*
X132292455Y-83042452D01*
X132292452Y-83042455D01*
X132206206Y-83157664D01*
X132206202Y-83157671D01*
X132155908Y-83292517D01*
X132149501Y-83352116D01*
X132149500Y-83352135D01*
X132149500Y-85147870D01*
X132149501Y-85147876D01*
X132155908Y-85207483D01*
X132206202Y-85342328D01*
X132206206Y-85342335D01*
X132292452Y-85457544D01*
X132292455Y-85457547D01*
X132407664Y-85543793D01*
X132407671Y-85543797D01*
X132452618Y-85560561D01*
X132542517Y-85594091D01*
X132602127Y-85600500D01*
X132951668Y-85600499D01*
X133018707Y-85620183D01*
X133019867Y-85620938D01*
X134008424Y-86271939D01*
X134053587Y-86325250D01*
X134062758Y-86394515D01*
X134033026Y-86457743D01*
X133973831Y-86494859D01*
X133940225Y-86499500D01*
X132602129Y-86499500D01*
X132602123Y-86499501D01*
X132542516Y-86505908D01*
X132407671Y-86556202D01*
X132407664Y-86556206D01*
X132292455Y-86642452D01*
X132292452Y-86642455D01*
X132206206Y-86757664D01*
X132206202Y-86757671D01*
X132155908Y-86892517D01*
X132149501Y-86952116D01*
X132149500Y-86952135D01*
X132149500Y-88747870D01*
X132149501Y-88747876D01*
X132155908Y-88807483D01*
X132206202Y-88942328D01*
X132206206Y-88942335D01*
X132292452Y-89057544D01*
X132292455Y-89057547D01*
X132407664Y-89143793D01*
X132407671Y-89143797D01*
X132429941Y-89152103D01*
X132542517Y-89194091D01*
X132602127Y-89200500D01*
X132951668Y-89200499D01*
X133018707Y-89220183D01*
X133019866Y-89220937D01*
X133750703Y-89702220D01*
X133795866Y-89755531D01*
X133805037Y-89824796D01*
X133775305Y-89888024D01*
X133729958Y-89920342D01*
X133626085Y-89963368D01*
X133626079Y-89963371D01*
X133481734Y-90059820D01*
X133429480Y-90079597D01*
X133297629Y-90097449D01*
X133292343Y-90098216D01*
X133274544Y-90099500D01*
X132602129Y-90099500D01*
X132602123Y-90099501D01*
X132542516Y-90105908D01*
X132407671Y-90156202D01*
X132407664Y-90156206D01*
X132292455Y-90242452D01*
X132292452Y-90242455D01*
X132206206Y-90357664D01*
X132206202Y-90357671D01*
X132155908Y-90492517D01*
X132149501Y-90552116D01*
X132149500Y-90552135D01*
X132149500Y-92347870D01*
X132149501Y-92347876D01*
X132155908Y-92407483D01*
X132206202Y-92542328D01*
X132206206Y-92542335D01*
X132292452Y-92657544D01*
X132292455Y-92657547D01*
X132407664Y-92743793D01*
X132407671Y-92743797D01*
X132542517Y-92794091D01*
X132542516Y-92794091D01*
X132549444Y-92794835D01*
X132602127Y-92800500D01*
X134397872Y-92800499D01*
X134457483Y-92794091D01*
X134592331Y-92743796D01*
X134707546Y-92657546D01*
X134793796Y-92542331D01*
X134844091Y-92407483D01*
X134850500Y-92347873D01*
X134850499Y-92347861D01*
X134850629Y-92345464D01*
X134850817Y-92344930D01*
X134850856Y-92344569D01*
X134850941Y-92344578D01*
X134873861Y-92279570D01*
X134895544Y-92256426D01*
X135353285Y-91878844D01*
X135417527Y-91851370D01*
X135432190Y-91850500D01*
X138501000Y-91850500D01*
X138568039Y-91870185D01*
X138613794Y-91922989D01*
X138625000Y-91974500D01*
X138625000Y-92225000D01*
X140775000Y-92225000D01*
X140775000Y-91974500D01*
X140794685Y-91907461D01*
X140847489Y-91861706D01*
X140899000Y-91850500D01*
X141338566Y-91850500D01*
X141405605Y-91870185D01*
X141451360Y-91922989D01*
X141461075Y-91990558D01*
X141461182Y-91990569D01*
X141461138Y-91990995D01*
X141461304Y-91992147D01*
X141460642Y-91995848D01*
X141450000Y-92100013D01*
X141450000Y-92400000D01*
X145149999Y-92400000D01*
X145149999Y-92100028D01*
X145149998Y-92100013D01*
X145138818Y-91990569D01*
X145140936Y-91990352D01*
X145145399Y-91930776D01*
X145187458Y-91874984D01*
X145253004Y-91850787D01*
X145261434Y-91850500D01*
X154434218Y-91850500D01*
X154501257Y-91870185D01*
X154521898Y-91886818D01*
X155322860Y-92687781D01*
X155322861Y-92687782D01*
X155429170Y-92794091D01*
X155462219Y-92827140D01*
X155626079Y-92936628D01*
X155626092Y-92936635D01*
X155754833Y-92989961D01*
X155797744Y-93007735D01*
X155808164Y-93012051D01*
X155904812Y-93031275D01*
X155953135Y-93040887D01*
X156001458Y-93050500D01*
X156001459Y-93050500D01*
X158998542Y-93050500D01*
X159017870Y-93046655D01*
X159095188Y-93031275D01*
X159191836Y-93012051D01*
X159245165Y-92989961D01*
X159373914Y-92936632D01*
X159537782Y-92827139D01*
X159677139Y-92687782D01*
X159677139Y-92687780D01*
X159687347Y-92677573D01*
X159687348Y-92677570D01*
X161052140Y-91312781D01*
X161161632Y-91148914D01*
X161237052Y-90966835D01*
X161275500Y-90773540D01*
X161275500Y-90576459D01*
X161275500Y-89991026D01*
X161278862Y-89962346D01*
X161279391Y-89960124D01*
X161298702Y-89747696D01*
X161324375Y-89682715D01*
X161381105Y-89641928D01*
X161450879Y-89638287D01*
X161509874Y-89671242D01*
X161531344Y-89692712D01*
X161680666Y-89784814D01*
X161847203Y-89839999D01*
X161949991Y-89850500D01*
X162700008Y-89850499D01*
X162700016Y-89850498D01*
X162700019Y-89850498D01*
X162759449Y-89844427D01*
X162802797Y-89839999D01*
X162969334Y-89784814D01*
X163075124Y-89719561D01*
X163125172Y-89702017D01*
X163286635Y-89682283D01*
X163307857Y-89681523D01*
X163613960Y-89696828D01*
X163679932Y-89719836D01*
X163722993Y-89774859D01*
X163729470Y-89844427D01*
X163722427Y-89867886D01*
X163585540Y-90200326D01*
X163566555Y-90263246D01*
X163564025Y-90270754D01*
X163555910Y-90292510D01*
X163555908Y-90292520D01*
X163549501Y-90352116D01*
X163549500Y-90352135D01*
X163549500Y-90447281D01*
X163549418Y-90451779D01*
X163549315Y-90454598D01*
X163549500Y-90458054D01*
X163549500Y-92147870D01*
X163549501Y-92147876D01*
X163555908Y-92207483D01*
X163606202Y-92342328D01*
X163606206Y-92342335D01*
X163692452Y-92457544D01*
X163692455Y-92457547D01*
X163807664Y-92543793D01*
X163807671Y-92543797D01*
X163942517Y-92594091D01*
X163942516Y-92594091D01*
X163949444Y-92594835D01*
X164002127Y-92600500D01*
X165797872Y-92600499D01*
X165857483Y-92594091D01*
X165992331Y-92543796D01*
X166107546Y-92457546D01*
X166193796Y-92342331D01*
X166244091Y-92207483D01*
X166250500Y-92147873D01*
X166250499Y-90425614D01*
X166251799Y-90407704D01*
X166252512Y-90402820D01*
X166252531Y-90393865D01*
X166250663Y-90357580D01*
X166250544Y-90352957D01*
X166250418Y-90350612D01*
X166250095Y-90346574D01*
X166249748Y-90339808D01*
X166249747Y-90339804D01*
X166249747Y-90339802D01*
X166248840Y-90333779D01*
X166248996Y-90333755D01*
X166247817Y-90327178D01*
X166244091Y-90292518D01*
X166234585Y-90267032D01*
X166226844Y-90246277D01*
X166222818Y-90233373D01*
X166214457Y-90200323D01*
X166072819Y-89856347D01*
X166065497Y-89786864D01*
X166096902Y-89724451D01*
X166148476Y-89691430D01*
X166152793Y-89689999D01*
X166152797Y-89689999D01*
X166319334Y-89634814D01*
X166468656Y-89542712D01*
X166592712Y-89418656D01*
X166684814Y-89269334D01*
X166739999Y-89102797D01*
X166750500Y-89000009D01*
X166750499Y-87899992D01*
X166749251Y-87887779D01*
X166739999Y-87797203D01*
X166739998Y-87797200D01*
X166714362Y-87719836D01*
X166684814Y-87630666D01*
X166592712Y-87481344D01*
X166468656Y-87357288D01*
X166319334Y-87265186D01*
X166152797Y-87210001D01*
X166152795Y-87210000D01*
X166050010Y-87199500D01*
X163749998Y-87199500D01*
X163749981Y-87199501D01*
X163647203Y-87210000D01*
X163647200Y-87210001D01*
X163480668Y-87265185D01*
X163480659Y-87265189D01*
X163331347Y-87357285D01*
X163331344Y-87357288D01*
X163306745Y-87381886D01*
X163266645Y-87408711D01*
X163034867Y-87505014D01*
X162965406Y-87512559D01*
X162948285Y-87508211D01*
X162932933Y-87503123D01*
X162802797Y-87460001D01*
X162802795Y-87460000D01*
X162700016Y-87449500D01*
X162700009Y-87449500D01*
X162499500Y-87449500D01*
X162432461Y-87429815D01*
X162386706Y-87377011D01*
X162375500Y-87325500D01*
X162375499Y-85889629D01*
X162375498Y-85889623D01*
X162375497Y-85889616D01*
X162369091Y-85830017D01*
X162356852Y-85797203D01*
X162318797Y-85695171D01*
X162318793Y-85695164D01*
X162232547Y-85579955D01*
X162232544Y-85579952D01*
X162117335Y-85493706D01*
X162117328Y-85493702D01*
X161982482Y-85443408D01*
X161982483Y-85443408D01*
X161922883Y-85437001D01*
X161922881Y-85437000D01*
X161922873Y-85437000D01*
X161922864Y-85437000D01*
X160677129Y-85437000D01*
X160677123Y-85437001D01*
X160617516Y-85443408D01*
X160482671Y-85493702D01*
X160482664Y-85493706D01*
X160367455Y-85579952D01*
X160367452Y-85579955D01*
X160281206Y-85695164D01*
X160281202Y-85695171D01*
X160230908Y-85830017D01*
X160227087Y-85865565D01*
X160224501Y-85889623D01*
X160224500Y-85889635D01*
X160224500Y-86144084D01*
X160204815Y-86211123D01*
X160193702Y-86225872D01*
X160131147Y-86297157D01*
X160131147Y-86297158D01*
X159767701Y-86711317D01*
X159708687Y-86748722D01*
X159638818Y-86748284D01*
X159580278Y-86710141D01*
X159551653Y-86646404D01*
X159550499Y-86629528D01*
X159550499Y-85899998D01*
X159550498Y-85899981D01*
X159539999Y-85797203D01*
X159539998Y-85797200D01*
X159526053Y-85755116D01*
X159484814Y-85630666D01*
X159392712Y-85481344D01*
X159268656Y-85357288D01*
X159119334Y-85265186D01*
X158952797Y-85210001D01*
X158952795Y-85210000D01*
X158850010Y-85199500D01*
X156549998Y-85199500D01*
X156549981Y-85199501D01*
X156447203Y-85210000D01*
X156447200Y-85210001D01*
X156280668Y-85265185D01*
X156280659Y-85265189D01*
X156131347Y-85357285D01*
X156131344Y-85357288D01*
X156106745Y-85381886D01*
X156066645Y-85408711D01*
X155834867Y-85505014D01*
X155765406Y-85512559D01*
X155748285Y-85508211D01*
X155704506Y-85493704D01*
X155602797Y-85460001D01*
X155602795Y-85460000D01*
X155500016Y-85449500D01*
X155500009Y-85449500D01*
X155299500Y-85449500D01*
X155232461Y-85429815D01*
X155186706Y-85377011D01*
X155175500Y-85325500D01*
X155175499Y-84210344D01*
X160225000Y-84210344D01*
X160231401Y-84269872D01*
X160231403Y-84269879D01*
X160281645Y-84404586D01*
X160281649Y-84404593D01*
X160367809Y-84519687D01*
X160367812Y-84519690D01*
X160482906Y-84605850D01*
X160482913Y-84605854D01*
X160617620Y-84656096D01*
X160617627Y-84656098D01*
X160677155Y-84662499D01*
X160677172Y-84662500D01*
X161050000Y-84662500D01*
X161550000Y-84662500D01*
X161922828Y-84662500D01*
X161922844Y-84662499D01*
X161982372Y-84656098D01*
X161982379Y-84656096D01*
X162117086Y-84605854D01*
X162117093Y-84605850D01*
X162232187Y-84519690D01*
X162232190Y-84519687D01*
X162318350Y-84404593D01*
X162318354Y-84404586D01*
X162368596Y-84269879D01*
X162368598Y-84269872D01*
X162374999Y-84210344D01*
X162375000Y-84210327D01*
X162375000Y-84199986D01*
X163050001Y-84199986D01*
X163060494Y-84302697D01*
X163115641Y-84469119D01*
X163115643Y-84469124D01*
X163207684Y-84618345D01*
X163331654Y-84742315D01*
X163480875Y-84834356D01*
X163480880Y-84834358D01*
X163647302Y-84889505D01*
X163647309Y-84889506D01*
X163750019Y-84899999D01*
X164649999Y-84899999D01*
X165150000Y-84899999D01*
X166049972Y-84899999D01*
X166049986Y-84899998D01*
X166152697Y-84889505D01*
X166319119Y-84834358D01*
X166319124Y-84834356D01*
X166468345Y-84742315D01*
X166592315Y-84618345D01*
X166684356Y-84469124D01*
X166684358Y-84469119D01*
X166739505Y-84302697D01*
X166739506Y-84302690D01*
X166749999Y-84199986D01*
X166750000Y-84199973D01*
X166750000Y-83900000D01*
X165150000Y-83900000D01*
X165150000Y-84899999D01*
X164649999Y-84899999D01*
X164650000Y-84899998D01*
X164650000Y-83900000D01*
X163050001Y-83900000D01*
X163050001Y-84199986D01*
X162375000Y-84199986D01*
X162375000Y-83725000D01*
X161550000Y-83725000D01*
X161550000Y-84662500D01*
X161050000Y-84662500D01*
X161050000Y-83725000D01*
X160225000Y-83725000D01*
X160225000Y-84210344D01*
X155175499Y-84210344D01*
X155175499Y-83889629D01*
X155175498Y-83889623D01*
X155175497Y-83889616D01*
X155169091Y-83830017D01*
X155156852Y-83797203D01*
X155118797Y-83695171D01*
X155118793Y-83695164D01*
X155032547Y-83579955D01*
X155032544Y-83579952D01*
X154917335Y-83493706D01*
X154917328Y-83493702D01*
X154782482Y-83443408D01*
X154782483Y-83443408D01*
X154722883Y-83437001D01*
X154722881Y-83437000D01*
X154722873Y-83437000D01*
X154722864Y-83437000D01*
X153477129Y-83437000D01*
X153477123Y-83437001D01*
X153417516Y-83443408D01*
X153282671Y-83493702D01*
X153282664Y-83493706D01*
X153167455Y-83579952D01*
X153167452Y-83579955D01*
X153081206Y-83695164D01*
X153081202Y-83695171D01*
X153030908Y-83830017D01*
X153027087Y-83865565D01*
X153024501Y-83889623D01*
X153024500Y-83889635D01*
X153024500Y-84144084D01*
X153004815Y-84211123D01*
X152993702Y-84225872D01*
X152931147Y-84297157D01*
X152931147Y-84297158D01*
X152567701Y-84711317D01*
X152508687Y-84748722D01*
X152438818Y-84748284D01*
X152380278Y-84710141D01*
X152351653Y-84646404D01*
X152350499Y-84629528D01*
X152350499Y-83899998D01*
X152350498Y-83899981D01*
X152339999Y-83797203D01*
X152339998Y-83797200D01*
X152314362Y-83719836D01*
X152284814Y-83630666D01*
X152192712Y-83481344D01*
X152068656Y-83357288D01*
X151919334Y-83265186D01*
X151752797Y-83210001D01*
X151752795Y-83210000D01*
X151650010Y-83199500D01*
X149349998Y-83199500D01*
X149349981Y-83199501D01*
X149247203Y-83210000D01*
X149247200Y-83210001D01*
X149080668Y-83265185D01*
X149080659Y-83265189D01*
X148931347Y-83357285D01*
X148931344Y-83357288D01*
X148906745Y-83381886D01*
X148866645Y-83408711D01*
X148634867Y-83505014D01*
X148565406Y-83512559D01*
X148548285Y-83508211D01*
X148504506Y-83493704D01*
X148402797Y-83460001D01*
X148402795Y-83460000D01*
X148300016Y-83449500D01*
X148300009Y-83449500D01*
X148099500Y-83449500D01*
X148032461Y-83429815D01*
X147986706Y-83377011D01*
X147975500Y-83325500D01*
X147975499Y-82210344D01*
X153025000Y-82210344D01*
X153031401Y-82269872D01*
X153031403Y-82269879D01*
X153081645Y-82404586D01*
X153081649Y-82404593D01*
X153167809Y-82519687D01*
X153167812Y-82519690D01*
X153282906Y-82605850D01*
X153282913Y-82605854D01*
X153417620Y-82656096D01*
X153417627Y-82656098D01*
X153477155Y-82662499D01*
X153477172Y-82662500D01*
X153850000Y-82662500D01*
X154350000Y-82662500D01*
X154722828Y-82662500D01*
X154722844Y-82662499D01*
X154782372Y-82656098D01*
X154782379Y-82656096D01*
X154917086Y-82605854D01*
X154917093Y-82605850D01*
X155032187Y-82519690D01*
X155032190Y-82519687D01*
X155118350Y-82404593D01*
X155118354Y-82404586D01*
X155168596Y-82269879D01*
X155168598Y-82269872D01*
X155174999Y-82210344D01*
X155175000Y-82210327D01*
X155175000Y-82199986D01*
X155850001Y-82199986D01*
X155860494Y-82302697D01*
X155915641Y-82469119D01*
X155915643Y-82469124D01*
X156007684Y-82618345D01*
X156131654Y-82742315D01*
X156280875Y-82834356D01*
X156280880Y-82834358D01*
X156447302Y-82889505D01*
X156447309Y-82889506D01*
X156550019Y-82899999D01*
X157449999Y-82899999D01*
X157950000Y-82899999D01*
X158849972Y-82899999D01*
X158849986Y-82899998D01*
X158952697Y-82889505D01*
X159119119Y-82834358D01*
X159119124Y-82834356D01*
X159268345Y-82742315D01*
X159271005Y-82739655D01*
X160225000Y-82739655D01*
X160225000Y-83225000D01*
X161050000Y-83225000D01*
X161550000Y-83225000D01*
X162375000Y-83225000D01*
X162375000Y-83100013D01*
X163050000Y-83100013D01*
X163050000Y-83400000D01*
X164650000Y-83400000D01*
X165150000Y-83400000D01*
X166749999Y-83400000D01*
X166749999Y-83100028D01*
X166749998Y-83100013D01*
X166739505Y-82997302D01*
X166684358Y-82830880D01*
X166684356Y-82830875D01*
X166592315Y-82681654D01*
X166468345Y-82557684D01*
X166319124Y-82465643D01*
X166319119Y-82465641D01*
X166152697Y-82410494D01*
X166152690Y-82410493D01*
X166049986Y-82400000D01*
X165150000Y-82400000D01*
X165150000Y-83400000D01*
X164650000Y-83400000D01*
X164650000Y-82400000D01*
X163750028Y-82400000D01*
X163750012Y-82400001D01*
X163647302Y-82410494D01*
X163480880Y-82465641D01*
X163480875Y-82465643D01*
X163331654Y-82557684D01*
X163207684Y-82681654D01*
X163115643Y-82830875D01*
X163115641Y-82830880D01*
X163060494Y-82997302D01*
X163060493Y-82997309D01*
X163050000Y-83100013D01*
X162375000Y-83100013D01*
X162375000Y-82739672D01*
X162374999Y-82739655D01*
X162368598Y-82680127D01*
X162368596Y-82680120D01*
X162318354Y-82545413D01*
X162318350Y-82545406D01*
X162232190Y-82430312D01*
X162232187Y-82430309D01*
X162117093Y-82344149D01*
X162117086Y-82344145D01*
X161982379Y-82293903D01*
X161982372Y-82293901D01*
X161922844Y-82287500D01*
X161550000Y-82287500D01*
X161550000Y-83225000D01*
X161050000Y-83225000D01*
X161050000Y-82287500D01*
X160677155Y-82287500D01*
X160617627Y-82293901D01*
X160617620Y-82293903D01*
X160482913Y-82344145D01*
X160482906Y-82344149D01*
X160367812Y-82430309D01*
X160367809Y-82430312D01*
X160281649Y-82545406D01*
X160281645Y-82545413D01*
X160231403Y-82680120D01*
X160231401Y-82680127D01*
X160225000Y-82739655D01*
X159271005Y-82739655D01*
X159392315Y-82618345D01*
X159484356Y-82469124D01*
X159484358Y-82469119D01*
X159539505Y-82302697D01*
X159539506Y-82302690D01*
X159549999Y-82199986D01*
X159550000Y-82199973D01*
X159550000Y-81900000D01*
X157950000Y-81900000D01*
X157950000Y-82899999D01*
X157449999Y-82899999D01*
X157450000Y-82899998D01*
X157450000Y-81900000D01*
X155850001Y-81900000D01*
X155850001Y-82199986D01*
X155175000Y-82199986D01*
X155175000Y-81725000D01*
X154350000Y-81725000D01*
X154350000Y-82662500D01*
X153850000Y-82662500D01*
X153850000Y-81725000D01*
X153025000Y-81725000D01*
X153025000Y-82210344D01*
X147975499Y-82210344D01*
X147975499Y-81889629D01*
X147975498Y-81889623D01*
X147975497Y-81889616D01*
X147969091Y-81830017D01*
X147956852Y-81797203D01*
X147918797Y-81695171D01*
X147918793Y-81695164D01*
X147832547Y-81579955D01*
X147832544Y-81579952D01*
X147717335Y-81493706D01*
X147717328Y-81493702D01*
X147582482Y-81443408D01*
X147582483Y-81443408D01*
X147522883Y-81437001D01*
X147522881Y-81437000D01*
X147522873Y-81437000D01*
X147522864Y-81437000D01*
X146277129Y-81437000D01*
X146277123Y-81437001D01*
X146217516Y-81443408D01*
X146082671Y-81493702D01*
X146082664Y-81493706D01*
X145967455Y-81579952D01*
X145967452Y-81579955D01*
X145881206Y-81695164D01*
X145881202Y-81695171D01*
X145830908Y-81830017D01*
X145824501Y-81889616D01*
X145824501Y-81889623D01*
X145824500Y-81889635D01*
X145824500Y-82144084D01*
X145804815Y-82211123D01*
X145793702Y-82225872D01*
X145731147Y-82297157D01*
X145731147Y-82297158D01*
X145367701Y-82711317D01*
X145308687Y-82748722D01*
X145238818Y-82748284D01*
X145180278Y-82710141D01*
X145151653Y-82646404D01*
X145150499Y-82629528D01*
X145150499Y-81899998D01*
X145150498Y-81899981D01*
X145139999Y-81797203D01*
X145139998Y-81797200D01*
X145084814Y-81630666D01*
X144992712Y-81481344D01*
X144868656Y-81357288D01*
X144719334Y-81265186D01*
X144552797Y-81210001D01*
X144552795Y-81210000D01*
X144450010Y-81199500D01*
X142149998Y-81199500D01*
X142149981Y-81199501D01*
X142047203Y-81210000D01*
X142047200Y-81210001D01*
X141880668Y-81265185D01*
X141880659Y-81265189D01*
X141731347Y-81357285D01*
X141731344Y-81357288D01*
X141706745Y-81381886D01*
X141666645Y-81408711D01*
X141434867Y-81505014D01*
X141365406Y-81512559D01*
X141348285Y-81508211D01*
X141304506Y-81493704D01*
X141202797Y-81460001D01*
X141202795Y-81460000D01*
X141100016Y-81449500D01*
X141100009Y-81449500D01*
X140899500Y-81449500D01*
X140832461Y-81429815D01*
X140786706Y-81377011D01*
X140775500Y-81325500D01*
X140775499Y-80210344D01*
X145825000Y-80210344D01*
X145831401Y-80269872D01*
X145831403Y-80269879D01*
X145881645Y-80404586D01*
X145881649Y-80404593D01*
X145967809Y-80519687D01*
X145967812Y-80519690D01*
X146082906Y-80605850D01*
X146082913Y-80605854D01*
X146217620Y-80656096D01*
X146217627Y-80656098D01*
X146277155Y-80662499D01*
X146277172Y-80662500D01*
X146650000Y-80662500D01*
X147150000Y-80662500D01*
X147522828Y-80662500D01*
X147522844Y-80662499D01*
X147582372Y-80656098D01*
X147582379Y-80656096D01*
X147717086Y-80605854D01*
X147717093Y-80605850D01*
X147832187Y-80519690D01*
X147832190Y-80519687D01*
X147918350Y-80404593D01*
X147918354Y-80404586D01*
X147968596Y-80269879D01*
X147968598Y-80269872D01*
X147974999Y-80210344D01*
X147975000Y-80210327D01*
X147975000Y-80199986D01*
X148650001Y-80199986D01*
X148660494Y-80302697D01*
X148715641Y-80469119D01*
X148715643Y-80469124D01*
X148807684Y-80618345D01*
X148931654Y-80742315D01*
X149080875Y-80834356D01*
X149080880Y-80834358D01*
X149247302Y-80889505D01*
X149247309Y-80889506D01*
X149350019Y-80899999D01*
X150249999Y-80899999D01*
X150750000Y-80899999D01*
X151649972Y-80899999D01*
X151649986Y-80899998D01*
X151752697Y-80889505D01*
X151919119Y-80834358D01*
X151919124Y-80834356D01*
X152068345Y-80742315D01*
X152071005Y-80739655D01*
X153025000Y-80739655D01*
X153025000Y-81225000D01*
X153850000Y-81225000D01*
X154350000Y-81225000D01*
X155175000Y-81225000D01*
X155175000Y-81100013D01*
X155850000Y-81100013D01*
X155850000Y-81400000D01*
X157450000Y-81400000D01*
X157950000Y-81400000D01*
X159549999Y-81400000D01*
X159549999Y-81100028D01*
X159549998Y-81100013D01*
X159539505Y-80997302D01*
X159484358Y-80830880D01*
X159484356Y-80830875D01*
X159392315Y-80681654D01*
X159268345Y-80557684D01*
X159119124Y-80465643D01*
X159119119Y-80465641D01*
X158952697Y-80410494D01*
X158952690Y-80410493D01*
X158849986Y-80400000D01*
X157950000Y-80400000D01*
X157950000Y-81400000D01*
X157450000Y-81400000D01*
X157450000Y-80400000D01*
X156550028Y-80400000D01*
X156550012Y-80400001D01*
X156447302Y-80410494D01*
X156280880Y-80465641D01*
X156280875Y-80465643D01*
X156131654Y-80557684D01*
X156007684Y-80681654D01*
X155915643Y-80830875D01*
X155915641Y-80830880D01*
X155860494Y-80997302D01*
X155860493Y-80997309D01*
X155850000Y-81100013D01*
X155175000Y-81100013D01*
X155175000Y-80739672D01*
X155174999Y-80739655D01*
X155168598Y-80680127D01*
X155168596Y-80680120D01*
X155118354Y-80545413D01*
X155118350Y-80545406D01*
X155032190Y-80430312D01*
X155032187Y-80430309D01*
X154917093Y-80344149D01*
X154917086Y-80344145D01*
X154782379Y-80293903D01*
X154782372Y-80293901D01*
X154722844Y-80287500D01*
X154350000Y-80287500D01*
X154350000Y-81225000D01*
X153850000Y-81225000D01*
X153850000Y-80287500D01*
X153477155Y-80287500D01*
X153417627Y-80293901D01*
X153417620Y-80293903D01*
X153282913Y-80344145D01*
X153282906Y-80344149D01*
X153167812Y-80430309D01*
X153167809Y-80430312D01*
X153081649Y-80545406D01*
X153081645Y-80545413D01*
X153031403Y-80680120D01*
X153031401Y-80680127D01*
X153025000Y-80739655D01*
X152071005Y-80739655D01*
X152192315Y-80618345D01*
X152284356Y-80469124D01*
X152284358Y-80469119D01*
X152339505Y-80302697D01*
X152339506Y-80302690D01*
X152349999Y-80199986D01*
X152350000Y-80199973D01*
X152350000Y-79900000D01*
X150750000Y-79900000D01*
X150750000Y-80899999D01*
X150249999Y-80899999D01*
X150250000Y-80899998D01*
X150250000Y-79900000D01*
X148650001Y-79900000D01*
X148650001Y-80199986D01*
X147975000Y-80199986D01*
X147975000Y-79725000D01*
X147150000Y-79725000D01*
X147150000Y-80662500D01*
X146650000Y-80662500D01*
X146650000Y-79725000D01*
X145825000Y-79725000D01*
X145825000Y-80210344D01*
X140775499Y-80210344D01*
X140775499Y-79889629D01*
X140775498Y-79889623D01*
X140775497Y-79889616D01*
X140769091Y-79830017D01*
X140740040Y-79752128D01*
X140718797Y-79695171D01*
X140718793Y-79695164D01*
X140632547Y-79579955D01*
X140632544Y-79579952D01*
X140517335Y-79493706D01*
X140517328Y-79493702D01*
X140382482Y-79443408D01*
X140382483Y-79443408D01*
X140322883Y-79437001D01*
X140322881Y-79437000D01*
X140322873Y-79437000D01*
X140322864Y-79437000D01*
X139077129Y-79437000D01*
X139077123Y-79437001D01*
X139017516Y-79443408D01*
X138882671Y-79493702D01*
X138882664Y-79493706D01*
X138767455Y-79579952D01*
X138767452Y-79579955D01*
X138681206Y-79695164D01*
X138681202Y-79695171D01*
X138630908Y-79830017D01*
X138624501Y-79889616D01*
X138624501Y-79889623D01*
X138624500Y-79889635D01*
X138624500Y-80144084D01*
X138604815Y-80211123D01*
X138593702Y-80225872D01*
X138531147Y-80297157D01*
X138531147Y-80297158D01*
X137992139Y-80911376D01*
X137967501Y-80941658D01*
X137959000Y-80951078D01*
X137897858Y-81012221D01*
X137788371Y-81176080D01*
X137788364Y-81176093D01*
X137772005Y-81215590D01*
X137772005Y-81215591D01*
X137712949Y-81358162D01*
X137712949Y-81358164D01*
X137712510Y-81360372D01*
X137712510Y-81360373D01*
X137677529Y-81536228D01*
X137645144Y-81598139D01*
X137584428Y-81632713D01*
X137570957Y-81635120D01*
X137473934Y-81646979D01*
X137465551Y-81648202D01*
X137447658Y-81649500D01*
X135965782Y-81649500D01*
X135898743Y-81629815D01*
X135878101Y-81613181D01*
X135721022Y-81456102D01*
X135705142Y-81436620D01*
X135681026Y-81400000D01*
X134870938Y-80169865D01*
X134850507Y-80103049D01*
X134850499Y-80101666D01*
X134850499Y-79752129D01*
X134850498Y-79752123D01*
X134850497Y-79752116D01*
X134844091Y-79692517D01*
X134793796Y-79557669D01*
X134793795Y-79557668D01*
X134793793Y-79557664D01*
X134707547Y-79442455D01*
X134707544Y-79442452D01*
X134592335Y-79356206D01*
X134592328Y-79356202D01*
X134457482Y-79305908D01*
X134457483Y-79305908D01*
X134397883Y-79299501D01*
X134397881Y-79299500D01*
X134397873Y-79299500D01*
X134397864Y-79299500D01*
X132602129Y-79299500D01*
X132602123Y-79299501D01*
X132542516Y-79305908D01*
X132407671Y-79356202D01*
X132407664Y-79356206D01*
X132292455Y-79442452D01*
X132292452Y-79442455D01*
X132206206Y-79557664D01*
X132206202Y-79557671D01*
X132155908Y-79692517D01*
X132149501Y-79752116D01*
X132149501Y-79752123D01*
X132149500Y-79752135D01*
X116400500Y-79752135D01*
X116400500Y-78210344D01*
X138625000Y-78210344D01*
X138631401Y-78269872D01*
X138631403Y-78269879D01*
X138681645Y-78404586D01*
X138681649Y-78404593D01*
X138767809Y-78519687D01*
X138767812Y-78519690D01*
X138882906Y-78605850D01*
X138882913Y-78605854D01*
X139017620Y-78656096D01*
X139017627Y-78656098D01*
X139077155Y-78662499D01*
X139077172Y-78662500D01*
X139450000Y-78662500D01*
X139950000Y-78662500D01*
X140322828Y-78662500D01*
X140322844Y-78662499D01*
X140382372Y-78656098D01*
X140382379Y-78656096D01*
X140517086Y-78605854D01*
X140517093Y-78605850D01*
X140632187Y-78519690D01*
X140632190Y-78519687D01*
X140718350Y-78404593D01*
X140718354Y-78404586D01*
X140768596Y-78269879D01*
X140768598Y-78269872D01*
X140774999Y-78210344D01*
X140775000Y-78210327D01*
X140775000Y-78199986D01*
X141450001Y-78199986D01*
X141460494Y-78302697D01*
X141515641Y-78469119D01*
X141515643Y-78469124D01*
X141607684Y-78618345D01*
X141731654Y-78742315D01*
X141880875Y-78834356D01*
X141880880Y-78834358D01*
X142047302Y-78889505D01*
X142047309Y-78889506D01*
X142150019Y-78899999D01*
X143049999Y-78899999D01*
X143550000Y-78899999D01*
X144449972Y-78899999D01*
X144449986Y-78899998D01*
X144552697Y-78889505D01*
X144719119Y-78834358D01*
X144719124Y-78834356D01*
X144868345Y-78742315D01*
X144871005Y-78739655D01*
X145825000Y-78739655D01*
X145825000Y-79225000D01*
X146650000Y-79225000D01*
X147150000Y-79225000D01*
X147975000Y-79225000D01*
X147975000Y-79100013D01*
X148650000Y-79100013D01*
X148650000Y-79400000D01*
X150250000Y-79400000D01*
X150750000Y-79400000D01*
X152349999Y-79400000D01*
X152349999Y-79100028D01*
X152349998Y-79100013D01*
X152339505Y-78997302D01*
X152284358Y-78830880D01*
X152284356Y-78830875D01*
X152192315Y-78681654D01*
X152068345Y-78557684D01*
X151919124Y-78465643D01*
X151919119Y-78465641D01*
X151752697Y-78410494D01*
X151752690Y-78410493D01*
X151649986Y-78400000D01*
X150750000Y-78400000D01*
X150750000Y-79400000D01*
X150250000Y-79400000D01*
X150250000Y-78400000D01*
X149350028Y-78400000D01*
X149350012Y-78400001D01*
X149247302Y-78410494D01*
X149080880Y-78465641D01*
X149080875Y-78465643D01*
X148931654Y-78557684D01*
X148807684Y-78681654D01*
X148715643Y-78830875D01*
X148715641Y-78830880D01*
X148660494Y-78997302D01*
X148660493Y-78997309D01*
X148650000Y-79100013D01*
X147975000Y-79100013D01*
X147975000Y-78739672D01*
X147974999Y-78739655D01*
X147968598Y-78680127D01*
X147968596Y-78680120D01*
X147918354Y-78545413D01*
X147918350Y-78545406D01*
X147832190Y-78430312D01*
X147832187Y-78430309D01*
X147717093Y-78344149D01*
X147717086Y-78344145D01*
X147582379Y-78293903D01*
X147582372Y-78293901D01*
X147522844Y-78287500D01*
X147150000Y-78287500D01*
X147150000Y-79225000D01*
X146650000Y-79225000D01*
X146650000Y-78287500D01*
X146277155Y-78287500D01*
X146217627Y-78293901D01*
X146217620Y-78293903D01*
X146082913Y-78344145D01*
X146082906Y-78344149D01*
X145967812Y-78430309D01*
X145967809Y-78430312D01*
X145881649Y-78545406D01*
X145881645Y-78545413D01*
X145831403Y-78680120D01*
X145831401Y-78680127D01*
X145825000Y-78739655D01*
X144871005Y-78739655D01*
X144992315Y-78618345D01*
X145084356Y-78469124D01*
X145084358Y-78469119D01*
X145139505Y-78302697D01*
X145139506Y-78302690D01*
X145149999Y-78199986D01*
X145150000Y-78199973D01*
X145150000Y-77900000D01*
X143550000Y-77900000D01*
X143550000Y-78899999D01*
X143049999Y-78899999D01*
X143050000Y-78899998D01*
X143050000Y-77900000D01*
X141450001Y-77900000D01*
X141450001Y-78199986D01*
X140775000Y-78199986D01*
X140775000Y-77725000D01*
X139950000Y-77725000D01*
X139950000Y-78662500D01*
X139450000Y-78662500D01*
X139450000Y-77725000D01*
X138625000Y-77725000D01*
X138625000Y-78210344D01*
X116400500Y-78210344D01*
X116400500Y-76739655D01*
X138625000Y-76739655D01*
X138625000Y-77225000D01*
X139450000Y-77225000D01*
X139950000Y-77225000D01*
X140775000Y-77225000D01*
X140775000Y-77100013D01*
X141450000Y-77100013D01*
X141450000Y-77400000D01*
X143050000Y-77400000D01*
X143550000Y-77400000D01*
X145149999Y-77400000D01*
X145149999Y-77100028D01*
X145149998Y-77100013D01*
X145139505Y-76997302D01*
X145084358Y-76830880D01*
X145084356Y-76830875D01*
X144992315Y-76681654D01*
X144868345Y-76557684D01*
X144719124Y-76465643D01*
X144719119Y-76465641D01*
X144552697Y-76410494D01*
X144552690Y-76410493D01*
X144449986Y-76400000D01*
X143550000Y-76400000D01*
X143550000Y-77400000D01*
X143050000Y-77400000D01*
X143050000Y-76400000D01*
X142150028Y-76400000D01*
X142150012Y-76400001D01*
X142047302Y-76410494D01*
X141880880Y-76465641D01*
X141880875Y-76465643D01*
X141731654Y-76557684D01*
X141607684Y-76681654D01*
X141515643Y-76830875D01*
X141515641Y-76830880D01*
X141460494Y-76997302D01*
X141460493Y-76997309D01*
X141450000Y-77100013D01*
X140775000Y-77100013D01*
X140775000Y-76739672D01*
X140774999Y-76739655D01*
X140768598Y-76680127D01*
X140768596Y-76680120D01*
X140718354Y-76545413D01*
X140718350Y-76545406D01*
X140632190Y-76430312D01*
X140632187Y-76430309D01*
X140517093Y-76344149D01*
X140517086Y-76344145D01*
X140382379Y-76293903D01*
X140382372Y-76293901D01*
X140322844Y-76287500D01*
X139950000Y-76287500D01*
X139950000Y-77225000D01*
X139450000Y-77225000D01*
X139450000Y-76287500D01*
X139077155Y-76287500D01*
X139017627Y-76293901D01*
X139017620Y-76293903D01*
X138882913Y-76344145D01*
X138882906Y-76344149D01*
X138767812Y-76430309D01*
X138767809Y-76430312D01*
X138681649Y-76545406D01*
X138681645Y-76545413D01*
X138631403Y-76680120D01*
X138631401Y-76680127D01*
X138625000Y-76739655D01*
X116400500Y-76739655D01*
X116400500Y-70374500D01*
X116420185Y-70307461D01*
X116472989Y-70261706D01*
X116524500Y-70250500D01*
X181775500Y-70250500D01*
X181842539Y-70270185D01*
G37*
%TD.AperFunction*%
%TD*%
%TA.AperFunction,Conductor*%
%TO.N,/Encoder/Protection_IO/IN_1*%
G36*
X160282218Y-103654662D02*
G01*
X160835075Y-104088293D01*
X160844992Y-104096072D01*
X160849386Y-104103874D01*
X160849423Y-104106337D01*
X160775967Y-104914359D01*
X160771805Y-104922288D01*
X160764315Y-104925000D01*
X159785685Y-104925000D01*
X159777412Y-104921573D01*
X159774033Y-104914359D01*
X159700576Y-104106337D01*
X159703240Y-104097788D01*
X159705002Y-104096076D01*
X160267780Y-103654662D01*
X160276404Y-103652254D01*
X160282218Y-103654662D01*
G37*
%TD.AperFunction*%
%TD*%
%TA.AperFunction,Conductor*%
%TO.N,/Encoder/Protection_IO/IN_1*%
G36*
X134354898Y-105496071D02*
G01*
X134970980Y-106747556D01*
X134972183Y-106752723D01*
X134972183Y-107729701D01*
X134968756Y-107737974D01*
X134960483Y-107741401D01*
X134954618Y-107739825D01*
X133168284Y-106705069D01*
X133162843Y-106697957D01*
X133163282Y-106690608D01*
X133497200Y-105854506D01*
X133503446Y-105848098D01*
X134339803Y-105490479D01*
X134348755Y-105490378D01*
X134354898Y-105496071D01*
G37*
%TD.AperFunction*%
%TD*%
%TA.AperFunction,Conductor*%
%TO.N,/Encoder/Protection_IO/IN_1*%
G36*
X160129034Y-102115126D02*
G01*
X160819909Y-102806001D01*
X160823308Y-102813468D01*
X160849572Y-103193807D01*
X160846723Y-103202297D01*
X160845112Y-103203826D01*
X160283742Y-103643309D01*
X160275116Y-103645710D01*
X160267317Y-103641308D01*
X160267170Y-103641114D01*
X159800412Y-103012530D01*
X159798231Y-103003845D01*
X159798768Y-103001672D01*
X160109727Y-102119507D01*
X160115709Y-102112846D01*
X160124651Y-102112364D01*
X160129034Y-102115126D01*
G37*
%TD.AperFunction*%
%TD*%
%TA.AperFunction,Conductor*%
%TO.N,/Encoder/Protection_IO/IN_1*%
G36*
X160732732Y-101390017D02*
G01*
X161294797Y-101621855D01*
X161301139Y-101628178D01*
X161301848Y-101630581D01*
X161424474Y-102305904D01*
X161422580Y-102314656D01*
X161420587Y-102316868D01*
X160680194Y-102953069D01*
X160671686Y-102955862D01*
X160664296Y-102952468D01*
X159972612Y-102260784D01*
X159969185Y-102252511D01*
X159972091Y-102244794D01*
X160511094Y-101630581D01*
X160719481Y-101393116D01*
X160727513Y-101389159D01*
X160732732Y-101390017D01*
G37*
%TD.AperFunction*%
%TD*%
%TA.AperFunction,Conductor*%
%TO.N,/Encoder/Protection_IO/IN_2*%
G36*
X153082218Y-101654662D02*
G01*
X153635075Y-102088293D01*
X153644992Y-102096072D01*
X153649386Y-102103874D01*
X153649423Y-102106337D01*
X153575967Y-102914359D01*
X153571805Y-102922288D01*
X153564315Y-102925000D01*
X152585685Y-102925000D01*
X152577412Y-102921573D01*
X152574033Y-102914359D01*
X152500576Y-102106337D01*
X152503240Y-102097788D01*
X152505002Y-102096076D01*
X153067780Y-101654662D01*
X153076404Y-101652254D01*
X153082218Y-101654662D01*
G37*
%TD.AperFunction*%
%TD*%
%TA.AperFunction,Conductor*%
%TO.N,/Encoder/Protection_IO/IN_2*%
G36*
X134350028Y-101901613D02*
G01*
X134355310Y-101905981D01*
X135299349Y-103339522D01*
X135301037Y-103348316D01*
X135297850Y-103354230D01*
X134604230Y-104047850D01*
X134595957Y-104051277D01*
X134589522Y-104049348D01*
X133155984Y-103105311D01*
X133150959Y-103097899D01*
X133151604Y-103091076D01*
X133497438Y-102253782D01*
X133503761Y-102247447D01*
X134341075Y-101901604D01*
X134350028Y-101901613D01*
G37*
%TD.AperFunction*%
%TD*%
%TA.AperFunction,Conductor*%
%TO.N,/Encoder/Protection_IO/IN_2*%
G36*
X152929034Y-100115126D02*
G01*
X153619909Y-100806001D01*
X153623308Y-100813468D01*
X153649572Y-101193807D01*
X153646723Y-101202297D01*
X153645112Y-101203826D01*
X153083742Y-101643309D01*
X153075116Y-101645710D01*
X153067317Y-101641308D01*
X153067170Y-101641114D01*
X152600412Y-101012530D01*
X152598231Y-101003845D01*
X152598768Y-101001672D01*
X152909727Y-100119507D01*
X152915709Y-100112846D01*
X152924651Y-100112364D01*
X152929034Y-100115126D01*
G37*
%TD.AperFunction*%
%TD*%
%TA.AperFunction,Conductor*%
%TO.N,/Encoder/Protection_IO/IN_2*%
G36*
X153532732Y-99390017D02*
G01*
X154094797Y-99621855D01*
X154101139Y-99628178D01*
X154101848Y-99630581D01*
X154224474Y-100305904D01*
X154222580Y-100314656D01*
X154220587Y-100316868D01*
X153480194Y-100953069D01*
X153471686Y-100955862D01*
X153464296Y-100952468D01*
X152772612Y-100260784D01*
X152769185Y-100252511D01*
X152772091Y-100244794D01*
X153311094Y-99630581D01*
X153519481Y-99393116D01*
X153527513Y-99389159D01*
X153532732Y-99390017D01*
G37*
%TD.AperFunction*%
%TD*%
%TA.AperFunction,Conductor*%
%TO.N,/Encoder/Protection_IO/IN_3*%
G36*
X145882218Y-99654662D02*
G01*
X146435075Y-100088293D01*
X146444992Y-100096072D01*
X146449386Y-100103874D01*
X146449423Y-100106337D01*
X146375967Y-100914359D01*
X146371805Y-100922288D01*
X146364315Y-100925000D01*
X145385685Y-100925000D01*
X145377412Y-100921573D01*
X145374033Y-100914359D01*
X145300576Y-100106337D01*
X145303240Y-100097788D01*
X145305002Y-100096076D01*
X145867780Y-99654662D01*
X145876404Y-99652254D01*
X145882218Y-99654662D01*
G37*
%TD.AperFunction*%
%TD*%
%TA.AperFunction,Conductor*%
%TO.N,/Encoder/Protection_IO/IN_3*%
G36*
X146332732Y-97390017D02*
G01*
X146894797Y-97621855D01*
X146901139Y-97628178D01*
X146901848Y-97630581D01*
X147024474Y-98305904D01*
X147022580Y-98314656D01*
X147020587Y-98316868D01*
X146280194Y-98953069D01*
X146271686Y-98955862D01*
X146264296Y-98952468D01*
X145572612Y-98260784D01*
X145569185Y-98252511D01*
X145572091Y-98244794D01*
X146111094Y-97630581D01*
X146319481Y-97393116D01*
X146327513Y-97389159D01*
X146332732Y-97390017D01*
G37*
%TD.AperFunction*%
%TD*%
%TA.AperFunction,Conductor*%
%TO.N,/Encoder/Protection_IO/IN_3*%
G36*
X134350028Y-98301613D02*
G01*
X134355310Y-98305981D01*
X135299349Y-99739522D01*
X135301037Y-99748316D01*
X135297850Y-99754230D01*
X134604230Y-100447850D01*
X134595957Y-100451277D01*
X134589522Y-100449348D01*
X133155984Y-99505311D01*
X133150959Y-99497899D01*
X133151604Y-99491076D01*
X133497438Y-98653782D01*
X133503761Y-98647447D01*
X134341075Y-98301604D01*
X134350028Y-98301613D01*
G37*
%TD.AperFunction*%
%TD*%
%TA.AperFunction,Conductor*%
%TO.N,/Encoder/Protection_IO/IN_3*%
G36*
X145729034Y-98115126D02*
G01*
X146419909Y-98806001D01*
X146423308Y-98813468D01*
X146449572Y-99193807D01*
X146446723Y-99202297D01*
X146445112Y-99203826D01*
X145883742Y-99643309D01*
X145875116Y-99645710D01*
X145867317Y-99641308D01*
X145867170Y-99641114D01*
X145400412Y-99012530D01*
X145398231Y-99003845D01*
X145398768Y-99001672D01*
X145709727Y-98119507D01*
X145715709Y-98112846D01*
X145724651Y-98112364D01*
X145729034Y-98115126D01*
G37*
%TD.AperFunction*%
%TD*%
%TA.AperFunction,Conductor*%
%TO.N,/Encoder/Protection_IO/IN_4*%
G36*
X134350028Y-94701613D02*
G01*
X134355310Y-94705981D01*
X135299349Y-96139522D01*
X135301037Y-96148316D01*
X135297850Y-96154230D01*
X134604230Y-96847850D01*
X134595957Y-96851277D01*
X134589522Y-96849348D01*
X133155984Y-95905311D01*
X133150959Y-95897899D01*
X133151604Y-95891076D01*
X133497438Y-95053782D01*
X133503761Y-95047447D01*
X134341075Y-94701604D01*
X134350028Y-94701613D01*
G37*
%TD.AperFunction*%
%TD*%
%TA.AperFunction,Conductor*%
%TO.N,/Encoder/Protection_IO/IN_4*%
G36*
X138141349Y-97078119D02*
G01*
X138142686Y-97079343D01*
X138318430Y-97267392D01*
X138668533Y-97642011D01*
X138671678Y-97650396D01*
X138668533Y-97657989D01*
X138142689Y-98220653D01*
X138134537Y-98224357D01*
X138132722Y-98224278D01*
X137535281Y-98151256D01*
X137527484Y-98146850D01*
X137525000Y-98139642D01*
X137525000Y-97160357D01*
X137528427Y-97152084D01*
X137535279Y-97148743D01*
X138132723Y-97075721D01*
X138141349Y-97078119D01*
G37*
%TD.AperFunction*%
%TD*%
%TA.AperFunction,Conductor*%
%TO.N,/Encoder/Protection_IO/IN_4*%
G36*
X139132732Y-95390017D02*
G01*
X139694797Y-95621855D01*
X139701139Y-95628178D01*
X139701848Y-95630581D01*
X139824474Y-96305904D01*
X139822580Y-96314656D01*
X139820587Y-96316868D01*
X139080194Y-96953069D01*
X139071686Y-96955862D01*
X139064296Y-96952468D01*
X138372612Y-96260784D01*
X138369185Y-96252511D01*
X138372091Y-96244794D01*
X138911094Y-95630581D01*
X139119481Y-95393116D01*
X139127513Y-95389159D01*
X139132732Y-95390017D01*
G37*
%TD.AperFunction*%
%TD*%
%TA.AperFunction,Conductor*%
%TO.N,/Encoder/Protection_IO/IN_4*%
G36*
X138529034Y-96115126D02*
G01*
X139219909Y-96806001D01*
X139223308Y-96813468D01*
X139249572Y-97193807D01*
X139246723Y-97202297D01*
X139245112Y-97203826D01*
X138683742Y-97643309D01*
X138675116Y-97645710D01*
X138667317Y-97641308D01*
X138667170Y-97641114D01*
X138200412Y-97012530D01*
X138198231Y-97003845D01*
X138198768Y-97001672D01*
X138509727Y-96119507D01*
X138515709Y-96112846D01*
X138524651Y-96112364D01*
X138529034Y-96115126D01*
G37*
%TD.AperFunction*%
%TD*%
%TA.AperFunction,Conductor*%
%TO.N,/Encoder/Protection_IO/IN_5*%
G36*
X160282218Y-88654662D02*
G01*
X160835075Y-89088293D01*
X160844992Y-89096072D01*
X160849386Y-89103874D01*
X160849423Y-89106337D01*
X160775967Y-89914359D01*
X160771805Y-89922288D01*
X160764315Y-89925000D01*
X159785685Y-89925000D01*
X159777412Y-89921573D01*
X159774033Y-89914359D01*
X159700576Y-89106337D01*
X159703240Y-89097788D01*
X159705002Y-89096076D01*
X160267780Y-88654662D01*
X160276404Y-88652254D01*
X160282218Y-88654662D01*
G37*
%TD.AperFunction*%
%TD*%
%TA.AperFunction,Conductor*%
%TO.N,/Encoder/Protection_IO/IN_5*%
G36*
X135195388Y-90354082D02*
G01*
X135199894Y-90361820D01*
X135200000Y-90363390D01*
X135200000Y-91344483D01*
X135196573Y-91352756D01*
X135195745Y-91353509D01*
X134356894Y-92045464D01*
X134348331Y-92048085D01*
X134342698Y-92045994D01*
X133502962Y-91452798D01*
X133498182Y-91445227D01*
X133355526Y-90611940D01*
X133357507Y-90603210D01*
X133365084Y-90598436D01*
X133365459Y-90598378D01*
X135186731Y-90351796D01*
X135195388Y-90354082D01*
G37*
%TD.AperFunction*%
%TD*%
%TA.AperFunction,Conductor*%
%TO.N,/Encoder/Protection_IO/IN_5*%
G36*
X160129034Y-87115126D02*
G01*
X160819909Y-87806001D01*
X160823308Y-87813468D01*
X160849572Y-88193807D01*
X160846723Y-88202297D01*
X160845112Y-88203826D01*
X160283742Y-88643309D01*
X160275116Y-88645710D01*
X160267317Y-88641308D01*
X160267170Y-88641114D01*
X159800412Y-88012530D01*
X159798231Y-88003845D01*
X159798768Y-88001672D01*
X160109727Y-87119507D01*
X160115709Y-87112846D01*
X160124651Y-87112364D01*
X160129034Y-87115126D01*
G37*
%TD.AperFunction*%
%TD*%
%TA.AperFunction,Conductor*%
%TO.N,/Encoder/Protection_IO/IN_5*%
G36*
X160732732Y-86390017D02*
G01*
X161294797Y-86621855D01*
X161301139Y-86628178D01*
X161301848Y-86630581D01*
X161424474Y-87305904D01*
X161422580Y-87314656D01*
X161420587Y-87316868D01*
X160680194Y-87953069D01*
X160671686Y-87955862D01*
X160664296Y-87952468D01*
X159972612Y-87260784D01*
X159969185Y-87252511D01*
X159972091Y-87244794D01*
X160511094Y-86630581D01*
X160719481Y-86393116D01*
X160727513Y-86389159D01*
X160732732Y-86390017D01*
G37*
%TD.AperFunction*%
%TD*%
%TA.AperFunction,Conductor*%
%TO.N,/Encoder/Protection_IO/IN_6*%
G36*
X153532732Y-84390017D02*
G01*
X154094797Y-84621855D01*
X154101139Y-84628178D01*
X154101848Y-84630581D01*
X154224474Y-85305904D01*
X154222580Y-85314656D01*
X154220587Y-85316868D01*
X153480194Y-85953069D01*
X153471686Y-85955862D01*
X153464296Y-85952468D01*
X152772612Y-85260784D01*
X152769185Y-85252511D01*
X152772091Y-85244794D01*
X153311094Y-84630581D01*
X153519481Y-84393116D01*
X153527513Y-84389159D01*
X153532732Y-84390017D01*
G37*
%TD.AperFunction*%
%TD*%
%TA.AperFunction,Conductor*%
%TO.N,/Encoder/Protection_IO/IN_6*%
G36*
X153082218Y-86654662D02*
G01*
X153635075Y-87088293D01*
X153644992Y-87096072D01*
X153649386Y-87103874D01*
X153649423Y-87106337D01*
X153575967Y-87914359D01*
X153571805Y-87922288D01*
X153564315Y-87925000D01*
X152585685Y-87925000D01*
X152577412Y-87921573D01*
X152574033Y-87914359D01*
X152500576Y-87106337D01*
X152503240Y-87097788D01*
X152505002Y-87096076D01*
X153067780Y-86654662D01*
X153076404Y-86652254D01*
X153082218Y-86654662D01*
G37*
%TD.AperFunction*%
%TD*%
%TA.AperFunction,Conductor*%
%TO.N,/Encoder/Protection_IO/IN_6*%
G36*
X134350028Y-87501613D02*
G01*
X134355310Y-87505981D01*
X135299349Y-88939522D01*
X135301037Y-88948316D01*
X135297850Y-88954230D01*
X134604230Y-89647850D01*
X134595957Y-89651277D01*
X134589522Y-89649348D01*
X133155984Y-88705311D01*
X133150959Y-88697899D01*
X133151604Y-88691076D01*
X133497438Y-87853782D01*
X133503761Y-87847447D01*
X134341075Y-87501604D01*
X134350028Y-87501613D01*
G37*
%TD.AperFunction*%
%TD*%
%TA.AperFunction,Conductor*%
%TO.N,/Encoder/Protection_IO/IN_6*%
G36*
X152929034Y-85115126D02*
G01*
X153619909Y-85806001D01*
X153623308Y-85813468D01*
X153649572Y-86193807D01*
X153646723Y-86202297D01*
X153645112Y-86203826D01*
X153083742Y-86643309D01*
X153075116Y-86645710D01*
X153067317Y-86641308D01*
X153067170Y-86641114D01*
X152600412Y-86012530D01*
X152598231Y-86003845D01*
X152598768Y-86001672D01*
X152909727Y-85119507D01*
X152915709Y-85112846D01*
X152924651Y-85112364D01*
X152929034Y-85115126D01*
G37*
%TD.AperFunction*%
%TD*%
%TA.AperFunction,Conductor*%
%TO.N,/Encoder/Protection_IO/IN_7*%
G36*
X134350028Y-83901613D02*
G01*
X134355310Y-83905981D01*
X135299349Y-85339522D01*
X135301037Y-85348316D01*
X135297850Y-85354230D01*
X134604230Y-86047850D01*
X134595957Y-86051277D01*
X134589522Y-86049348D01*
X133155984Y-85105311D01*
X133150959Y-85097899D01*
X133151604Y-85091076D01*
X133497438Y-84253782D01*
X133503761Y-84247447D01*
X134341075Y-83901604D01*
X134350028Y-83901613D01*
G37*
%TD.AperFunction*%
%TD*%
%TA.AperFunction,Conductor*%
%TO.N,/Encoder/Protection_IO/IN_7*%
G36*
X145729034Y-83115126D02*
G01*
X146419909Y-83806001D01*
X146423308Y-83813468D01*
X146449572Y-84193807D01*
X146446723Y-84202297D01*
X146445112Y-84203826D01*
X145883742Y-84643309D01*
X145875116Y-84645710D01*
X145867317Y-84641308D01*
X145867170Y-84641114D01*
X145400412Y-84012530D01*
X145398231Y-84003845D01*
X145398768Y-84001672D01*
X145709727Y-83119507D01*
X145715709Y-83112846D01*
X145724651Y-83112364D01*
X145729034Y-83115126D01*
G37*
%TD.AperFunction*%
%TD*%
%TA.AperFunction,Conductor*%
%TO.N,/Encoder/Protection_IO/IN_7*%
G36*
X146332732Y-82390017D02*
G01*
X146894797Y-82621855D01*
X146901139Y-82628178D01*
X146901848Y-82630581D01*
X147024474Y-83305904D01*
X147022580Y-83314656D01*
X147020587Y-83316868D01*
X146280194Y-83953069D01*
X146271686Y-83955862D01*
X146264296Y-83952468D01*
X145572612Y-83260784D01*
X145569185Y-83252511D01*
X145572091Y-83244794D01*
X146111094Y-82630581D01*
X146319481Y-82393116D01*
X146327513Y-82389159D01*
X146332732Y-82390017D01*
G37*
%TD.AperFunction*%
%TD*%
%TA.AperFunction,Conductor*%
%TO.N,/Encoder/Protection_IO/IN_7*%
G36*
X145883902Y-84657357D02*
G01*
X146426345Y-85191120D01*
X146429839Y-85199366D01*
X146429560Y-85202002D01*
X146197826Y-86243111D01*
X146192683Y-86250442D01*
X146183863Y-86251990D01*
X146178132Y-86248842D01*
X145487564Y-85558274D01*
X145485218Y-85554913D01*
X145322491Y-85203154D01*
X145322129Y-85194209D01*
X145324913Y-85189896D01*
X145867502Y-84657346D01*
X145875805Y-84653998D01*
X145883902Y-84657357D01*
G37*
%TD.AperFunction*%
%TD*%
%TA.AperFunction,Conductor*%
%TO.N,/Encoder/Protection_IO/IN_8*%
G36*
X134350028Y-80301613D02*
G01*
X134355310Y-80305981D01*
X135299349Y-81739522D01*
X135301037Y-81748316D01*
X135297850Y-81754230D01*
X134604230Y-82447850D01*
X134595957Y-82451277D01*
X134589522Y-82449348D01*
X133155984Y-81505311D01*
X133150959Y-81497899D01*
X133151604Y-81491076D01*
X133497438Y-80653782D01*
X133503761Y-80647447D01*
X134341075Y-80301604D01*
X134350028Y-80301613D01*
G37*
%TD.AperFunction*%
%TD*%
%TA.AperFunction,Conductor*%
%TO.N,/Encoder/Protection_IO/IN_8*%
G36*
X139132732Y-80390017D02*
G01*
X139694797Y-80621855D01*
X139701139Y-80628178D01*
X139701848Y-80630581D01*
X139824474Y-81305904D01*
X139822580Y-81314656D01*
X139820587Y-81316868D01*
X139080194Y-81953069D01*
X139071686Y-81955862D01*
X139064296Y-81952468D01*
X138372612Y-81260784D01*
X138369185Y-81252511D01*
X138372091Y-81244794D01*
X138911094Y-80630581D01*
X139119481Y-80393116D01*
X139127513Y-80389159D01*
X139132732Y-80390017D01*
G37*
%TD.AperFunction*%
%TD*%
%TA.AperFunction,Conductor*%
%TO.N,/Encoder/Protection_IO/IN_8*%
G36*
X138529034Y-81115126D02*
G01*
X139219909Y-81806001D01*
X139223308Y-81813468D01*
X139249572Y-82193807D01*
X139246723Y-82202297D01*
X139245112Y-82203826D01*
X138683742Y-82643309D01*
X138675116Y-82645710D01*
X138667317Y-82641308D01*
X138667170Y-82641114D01*
X138200412Y-82012530D01*
X138198231Y-82003845D01*
X138198768Y-82001672D01*
X138509727Y-81119507D01*
X138515709Y-81112846D01*
X138524651Y-81112364D01*
X138529034Y-81115126D01*
G37*
%TD.AperFunction*%
%TD*%
%TA.AperFunction,Conductor*%
%TO.N,/Encoder/Protection_IO/IN_8*%
G36*
X138141349Y-82078119D02*
G01*
X138142686Y-82079343D01*
X138318430Y-82267392D01*
X138668533Y-82642011D01*
X138671678Y-82650396D01*
X138668533Y-82657989D01*
X138142689Y-83220653D01*
X138134537Y-83224357D01*
X138132722Y-83224278D01*
X137535281Y-83151256D01*
X137527484Y-83146850D01*
X137525000Y-83139642D01*
X137525000Y-82160357D01*
X137528427Y-82152084D01*
X137535279Y-82148743D01*
X138132723Y-82075721D01*
X138141349Y-82078119D01*
G37*
%TD.AperFunction*%
%TD*%
%TA.AperFunction,Conductor*%
%TO.N,/Encoder/Protection_IO/OUT_1*%
G36*
X165400437Y-104553427D02*
G01*
X165402983Y-104557245D01*
X165747032Y-105392792D01*
X165747013Y-105401747D01*
X165744491Y-105405515D01*
X164908278Y-106242712D01*
X164900007Y-106246144D01*
X164891732Y-106242722D01*
X164891722Y-106242712D01*
X164612144Y-105962805D01*
X164055507Y-105405514D01*
X164052086Y-105397240D01*
X164052966Y-105392796D01*
X164397017Y-104557245D01*
X164403336Y-104550900D01*
X164407836Y-104550000D01*
X165392164Y-104550000D01*
X165400437Y-104553427D01*
G37*
%TD.AperFunction*%
%TD*%
%TA.AperFunction,Conductor*%
%TO.N,/Encoder/Protection_IO/OUT_1*%
G36*
X164908268Y-103457279D02*
G01*
X164908279Y-103457290D01*
X165644893Y-104194887D01*
X165648314Y-104203163D01*
X165647714Y-104206855D01*
X165402667Y-104942000D01*
X165396799Y-104948765D01*
X165391567Y-104950000D01*
X164408433Y-104950000D01*
X164400160Y-104946573D01*
X164397333Y-104942000D01*
X164152285Y-104206855D01*
X164152920Y-104197923D01*
X164155106Y-104194887D01*
X164891721Y-103457290D01*
X164899992Y-103453858D01*
X164908268Y-103457279D01*
G37*
%TD.AperFunction*%
%TD*%
%TA.AperFunction,Conductor*%
%TO.N,/Encoder/Protection_IO/OUT_1*%
G36*
X162867269Y-103075720D02*
G01*
X163464719Y-103148743D01*
X163472516Y-103153149D01*
X163475000Y-103160357D01*
X163475000Y-104139642D01*
X163471573Y-104147915D01*
X163464719Y-104151256D01*
X162867277Y-104224278D01*
X162858650Y-104221880D01*
X162857310Y-104220653D01*
X162792454Y-104151256D01*
X162331465Y-103657988D01*
X162328321Y-103649604D01*
X162331466Y-103642011D01*
X162857312Y-103079344D01*
X162865462Y-103075642D01*
X162867269Y-103075720D01*
G37*
%TD.AperFunction*%
%TD*%
%TA.AperFunction,Conductor*%
%TO.N,/Encoder/Protection_IO/OUT_1*%
G36*
X163595802Y-102823560D02*
G01*
X164882693Y-103441213D01*
X164888668Y-103447882D01*
X164888178Y-103456824D01*
X164884217Y-103461431D01*
X163803246Y-104197788D01*
X163796075Y-104199803D01*
X162811116Y-104150555D01*
X162803024Y-104146720D01*
X162800000Y-104138870D01*
X162800000Y-103157807D01*
X162803427Y-103149534D01*
X162807207Y-103147005D01*
X163586264Y-102823309D01*
X163595218Y-102823300D01*
X163595802Y-102823560D01*
G37*
%TD.AperFunction*%
%TD*%
%TA.AperFunction,Conductor*%
%TO.N,/Encoder/Protection_IO/OUT_2*%
G36*
X158200437Y-102553427D02*
G01*
X158202983Y-102557245D01*
X158547032Y-103392792D01*
X158547013Y-103401747D01*
X158544491Y-103405515D01*
X157708278Y-104242712D01*
X157700007Y-104246144D01*
X157691732Y-104242722D01*
X157691722Y-104242712D01*
X157412144Y-103962805D01*
X156855507Y-103405514D01*
X156852086Y-103397240D01*
X156852966Y-103392796D01*
X157197017Y-102557245D01*
X157203336Y-102550900D01*
X157207836Y-102550000D01*
X158192164Y-102550000D01*
X158200437Y-102553427D01*
G37*
%TD.AperFunction*%
%TD*%
%TA.AperFunction,Conductor*%
%TO.N,/Encoder/Protection_IO/OUT_2*%
G36*
X157708268Y-101457279D02*
G01*
X157708279Y-101457290D01*
X158444893Y-102194887D01*
X158448314Y-102203163D01*
X158447714Y-102206855D01*
X158202667Y-102942000D01*
X158196799Y-102948765D01*
X158191567Y-102950000D01*
X157208433Y-102950000D01*
X157200160Y-102946573D01*
X157197333Y-102942000D01*
X156952285Y-102206855D01*
X156952920Y-102197923D01*
X156955106Y-102194887D01*
X157691721Y-101457290D01*
X157699992Y-101453858D01*
X157708268Y-101457279D01*
G37*
%TD.AperFunction*%
%TD*%
%TA.AperFunction,Conductor*%
%TO.N,/Encoder/Protection_IO/OUT_2*%
G36*
X155667269Y-101075720D02*
G01*
X156264719Y-101148743D01*
X156272516Y-101153149D01*
X156275000Y-101160357D01*
X156275000Y-102139642D01*
X156271573Y-102147915D01*
X156264719Y-102151256D01*
X155667277Y-102224278D01*
X155658650Y-102221880D01*
X155657310Y-102220653D01*
X155592454Y-102151256D01*
X155131465Y-101657988D01*
X155128321Y-101649604D01*
X155131466Y-101642011D01*
X155657312Y-101079344D01*
X155665462Y-101075642D01*
X155667269Y-101075720D01*
G37*
%TD.AperFunction*%
%TD*%
%TA.AperFunction,Conductor*%
%TO.N,/Encoder/Protection_IO/OUT_2*%
G36*
X156395802Y-100823560D02*
G01*
X157682693Y-101441213D01*
X157688668Y-101447882D01*
X157688178Y-101456824D01*
X157684217Y-101461431D01*
X156603246Y-102197788D01*
X156596075Y-102199803D01*
X155611116Y-102150555D01*
X155603024Y-102146720D01*
X155600000Y-102138870D01*
X155600000Y-101157807D01*
X155603427Y-101149534D01*
X155607207Y-101147005D01*
X156386264Y-100823309D01*
X156395218Y-100823300D01*
X156395802Y-100823560D01*
G37*
%TD.AperFunction*%
%TD*%
%TA.AperFunction,Conductor*%
%TO.N,/Encoder/Protection_IO/OUT_3*%
G36*
X149195802Y-98823560D02*
G01*
X150482693Y-99441213D01*
X150488668Y-99447882D01*
X150488178Y-99456824D01*
X150484217Y-99461431D01*
X149403246Y-100197788D01*
X149396075Y-100199803D01*
X148411116Y-100150555D01*
X148403024Y-100146720D01*
X148400000Y-100138870D01*
X148400000Y-99157807D01*
X148403427Y-99149534D01*
X148407207Y-99147005D01*
X149186264Y-98823309D01*
X149195218Y-98823300D01*
X149195802Y-98823560D01*
G37*
%TD.AperFunction*%
%TD*%
%TA.AperFunction,Conductor*%
%TO.N,/Encoder/Protection_IO/OUT_3*%
G36*
X148467269Y-99075720D02*
G01*
X149064719Y-99148743D01*
X149072516Y-99153149D01*
X149075000Y-99160357D01*
X149075000Y-100139642D01*
X149071573Y-100147915D01*
X149064719Y-100151256D01*
X148467277Y-100224278D01*
X148458650Y-100221880D01*
X148457310Y-100220653D01*
X148392454Y-100151256D01*
X147931465Y-99657988D01*
X147928321Y-99649604D01*
X147931466Y-99642011D01*
X148457312Y-99079344D01*
X148465462Y-99075642D01*
X148467269Y-99075720D01*
G37*
%TD.AperFunction*%
%TD*%
%TA.AperFunction,Conductor*%
%TO.N,/Encoder/Protection_IO/OUT_3*%
G36*
X151000437Y-100553427D02*
G01*
X151002983Y-100557245D01*
X151347032Y-101392792D01*
X151347013Y-101401747D01*
X151344491Y-101405515D01*
X150508278Y-102242712D01*
X150500007Y-102246144D01*
X150491732Y-102242722D01*
X150491722Y-102242712D01*
X150212144Y-101962805D01*
X149655507Y-101405514D01*
X149652086Y-101397240D01*
X149652966Y-101392796D01*
X149997017Y-100557245D01*
X150003336Y-100550900D01*
X150007836Y-100550000D01*
X150992164Y-100550000D01*
X151000437Y-100553427D01*
G37*
%TD.AperFunction*%
%TD*%
%TA.AperFunction,Conductor*%
%TO.N,/Encoder/Protection_IO/OUT_3*%
G36*
X150508268Y-99457279D02*
G01*
X150508279Y-99457290D01*
X151244893Y-100194887D01*
X151248314Y-100203163D01*
X151247714Y-100206855D01*
X151002667Y-100942000D01*
X150996799Y-100948765D01*
X150991567Y-100950000D01*
X150008433Y-100950000D01*
X150000160Y-100946573D01*
X149997333Y-100942000D01*
X149752285Y-100206855D01*
X149752920Y-100197923D01*
X149755106Y-100194887D01*
X150491721Y-99457290D01*
X150499992Y-99453858D01*
X150508268Y-99457279D01*
G37*
%TD.AperFunction*%
%TD*%
%TA.AperFunction,Conductor*%
%TO.N,/Encoder/Protection_IO/OUT_4*%
G36*
X143308268Y-97457279D02*
G01*
X143308279Y-97457290D01*
X144044893Y-98194887D01*
X144048314Y-98203163D01*
X144047714Y-98206855D01*
X143802667Y-98942000D01*
X143796799Y-98948765D01*
X143791567Y-98950000D01*
X142808433Y-98950000D01*
X142800160Y-98946573D01*
X142797333Y-98942000D01*
X142552285Y-98206855D01*
X142552920Y-98197923D01*
X142555106Y-98194887D01*
X143291721Y-97457290D01*
X143299992Y-97453858D01*
X143308268Y-97457279D01*
G37*
%TD.AperFunction*%
%TD*%
%TA.AperFunction,Conductor*%
%TO.N,/Encoder/Protection_IO/OUT_4*%
G36*
X143800437Y-98553427D02*
G01*
X143802983Y-98557245D01*
X144147032Y-99392792D01*
X144147013Y-99401747D01*
X144144491Y-99405515D01*
X143308278Y-100242712D01*
X143300007Y-100246144D01*
X143291732Y-100242722D01*
X143291722Y-100242712D01*
X143012144Y-99962805D01*
X142455507Y-99405514D01*
X142452086Y-99397240D01*
X142452966Y-99392796D01*
X142797017Y-98557245D01*
X142803336Y-98550900D01*
X142807836Y-98550000D01*
X143792164Y-98550000D01*
X143800437Y-98553427D01*
G37*
%TD.AperFunction*%
%TD*%
%TA.AperFunction,Conductor*%
%TO.N,/Encoder/Protection_IO/OUT_4*%
G36*
X141995802Y-96823560D02*
G01*
X143282693Y-97441213D01*
X143288668Y-97447882D01*
X143288178Y-97456824D01*
X143284217Y-97461431D01*
X142203246Y-98197788D01*
X142196075Y-98199803D01*
X141211116Y-98150555D01*
X141203024Y-98146720D01*
X141200000Y-98138870D01*
X141200000Y-97157807D01*
X141203427Y-97149534D01*
X141207207Y-97147005D01*
X141986264Y-96823309D01*
X141995218Y-96823300D01*
X141995802Y-96823560D01*
G37*
%TD.AperFunction*%
%TD*%
%TA.AperFunction,Conductor*%
%TO.N,/Encoder/Protection_IO/OUT_4*%
G36*
X141267269Y-97075720D02*
G01*
X141864719Y-97148743D01*
X141872516Y-97153149D01*
X141875000Y-97160357D01*
X141875000Y-98139642D01*
X141871573Y-98147915D01*
X141864719Y-98151256D01*
X141267277Y-98224278D01*
X141258650Y-98221880D01*
X141257310Y-98220653D01*
X141192454Y-98151256D01*
X140731465Y-97657988D01*
X140728321Y-97649604D01*
X140731466Y-97642011D01*
X141257312Y-97079344D01*
X141265462Y-97075642D01*
X141267269Y-97075720D01*
G37*
%TD.AperFunction*%
%TD*%
%TA.AperFunction,Conductor*%
%TO.N,/Encoder/Protection_IO/OUT_5*%
G36*
X163595802Y-87823560D02*
G01*
X164882693Y-88441213D01*
X164888668Y-88447882D01*
X164888178Y-88456824D01*
X164884217Y-88461431D01*
X163803246Y-89197788D01*
X163796075Y-89199803D01*
X162811116Y-89150555D01*
X162803024Y-89146720D01*
X162800000Y-89138870D01*
X162800000Y-88157807D01*
X162803427Y-88149534D01*
X162807207Y-88147005D01*
X163586264Y-87823309D01*
X163595218Y-87823300D01*
X163595802Y-87823560D01*
G37*
%TD.AperFunction*%
%TD*%
%TA.AperFunction,Conductor*%
%TO.N,/Encoder/Protection_IO/OUT_5*%
G36*
X162867269Y-88075720D02*
G01*
X163464719Y-88148743D01*
X163472516Y-88153149D01*
X163475000Y-88160357D01*
X163475000Y-89139642D01*
X163471573Y-89147915D01*
X163464719Y-89151256D01*
X162867277Y-89224278D01*
X162858650Y-89221880D01*
X162857310Y-89220653D01*
X162792454Y-89151256D01*
X162331465Y-88657988D01*
X162328321Y-88649604D01*
X162331466Y-88642011D01*
X162857312Y-88079344D01*
X162865462Y-88075642D01*
X162867269Y-88075720D01*
G37*
%TD.AperFunction*%
%TD*%
%TA.AperFunction,Conductor*%
%TO.N,/Encoder/Protection_IO/OUT_5*%
G36*
X165400437Y-89553427D02*
G01*
X165402983Y-89557245D01*
X165747032Y-90392792D01*
X165747013Y-90401747D01*
X165744491Y-90405515D01*
X164908278Y-91242712D01*
X164900007Y-91246144D01*
X164891732Y-91242722D01*
X164891722Y-91242712D01*
X164612144Y-90962805D01*
X164055507Y-90405514D01*
X164052086Y-90397240D01*
X164052966Y-90392796D01*
X164397017Y-89557245D01*
X164403336Y-89550900D01*
X164407836Y-89550000D01*
X165392164Y-89550000D01*
X165400437Y-89553427D01*
G37*
%TD.AperFunction*%
%TD*%
%TA.AperFunction,Conductor*%
%TO.N,/Encoder/Protection_IO/OUT_5*%
G36*
X164908268Y-88457279D02*
G01*
X164908279Y-88457290D01*
X165644893Y-89194887D01*
X165648314Y-89203163D01*
X165647714Y-89206855D01*
X165402667Y-89942000D01*
X165396799Y-89948765D01*
X165391567Y-89950000D01*
X164408433Y-89950000D01*
X164400160Y-89946573D01*
X164397333Y-89942000D01*
X164152285Y-89206855D01*
X164152920Y-89197923D01*
X164155106Y-89194887D01*
X164891721Y-88457290D01*
X164899992Y-88453858D01*
X164908268Y-88457279D01*
G37*
%TD.AperFunction*%
%TD*%
%TA.AperFunction,Conductor*%
%TO.N,/Encoder/Protection_IO/OUT_6*%
G36*
X157708268Y-86457279D02*
G01*
X157708279Y-86457290D01*
X158444893Y-87194887D01*
X158448314Y-87203163D01*
X158447714Y-87206855D01*
X158202667Y-87942000D01*
X158196799Y-87948765D01*
X158191567Y-87950000D01*
X157208433Y-87950000D01*
X157200160Y-87946573D01*
X157197333Y-87942000D01*
X156952285Y-87206855D01*
X156952920Y-87197923D01*
X156955106Y-87194887D01*
X157691721Y-86457290D01*
X157699992Y-86453858D01*
X157708268Y-86457279D01*
G37*
%TD.AperFunction*%
%TD*%
%TA.AperFunction,Conductor*%
%TO.N,/Encoder/Protection_IO/OUT_6*%
G36*
X158200437Y-87553427D02*
G01*
X158202983Y-87557245D01*
X158547032Y-88392792D01*
X158547013Y-88401747D01*
X158544491Y-88405515D01*
X157708278Y-89242712D01*
X157700007Y-89246144D01*
X157691732Y-89242722D01*
X157691722Y-89242712D01*
X157412144Y-88962805D01*
X156855507Y-88405514D01*
X156852086Y-88397240D01*
X156852966Y-88392796D01*
X157197017Y-87557245D01*
X157203336Y-87550900D01*
X157207836Y-87550000D01*
X158192164Y-87550000D01*
X158200437Y-87553427D01*
G37*
%TD.AperFunction*%
%TD*%
%TA.AperFunction,Conductor*%
%TO.N,/Encoder/Protection_IO/OUT_6*%
G36*
X156395802Y-85823560D02*
G01*
X157682693Y-86441213D01*
X157688668Y-86447882D01*
X157688178Y-86456824D01*
X157684217Y-86461431D01*
X156603246Y-87197788D01*
X156596075Y-87199803D01*
X155611116Y-87150555D01*
X155603024Y-87146720D01*
X155600000Y-87138870D01*
X155600000Y-86157807D01*
X155603427Y-86149534D01*
X155607207Y-86147005D01*
X156386264Y-85823309D01*
X156395218Y-85823300D01*
X156395802Y-85823560D01*
G37*
%TD.AperFunction*%
%TD*%
%TA.AperFunction,Conductor*%
%TO.N,/Encoder/Protection_IO/OUT_6*%
G36*
X155667269Y-86075720D02*
G01*
X156264719Y-86148743D01*
X156272516Y-86153149D01*
X156275000Y-86160357D01*
X156275000Y-87139642D01*
X156271573Y-87147915D01*
X156264719Y-87151256D01*
X155667277Y-87224278D01*
X155658650Y-87221880D01*
X155657310Y-87220653D01*
X155592454Y-87151256D01*
X155131465Y-86657988D01*
X155128321Y-86649604D01*
X155131466Y-86642011D01*
X155657312Y-86079344D01*
X155665462Y-86075642D01*
X155667269Y-86075720D01*
G37*
%TD.AperFunction*%
%TD*%
%TA.AperFunction,Conductor*%
%TO.N,/Encoder/Protection_IO/OUT_7*%
G36*
X151000437Y-85553427D02*
G01*
X151002983Y-85557245D01*
X151347032Y-86392792D01*
X151347013Y-86401747D01*
X151344491Y-86405515D01*
X150508278Y-87242712D01*
X150500007Y-87246144D01*
X150491732Y-87242722D01*
X150491722Y-87242712D01*
X150212144Y-86962805D01*
X149655507Y-86405514D01*
X149652086Y-86397240D01*
X149652966Y-86392796D01*
X149997017Y-85557245D01*
X150003336Y-85550900D01*
X150007836Y-85550000D01*
X150992164Y-85550000D01*
X151000437Y-85553427D01*
G37*
%TD.AperFunction*%
%TD*%
%TA.AperFunction,Conductor*%
%TO.N,/Encoder/Protection_IO/OUT_7*%
G36*
X150508268Y-84457279D02*
G01*
X150508279Y-84457290D01*
X151244893Y-85194887D01*
X151248314Y-85203163D01*
X151247714Y-85206855D01*
X151002667Y-85942000D01*
X150996799Y-85948765D01*
X150991567Y-85950000D01*
X150008433Y-85950000D01*
X150000160Y-85946573D01*
X149997333Y-85942000D01*
X149752285Y-85206855D01*
X149752920Y-85197923D01*
X149755106Y-85194887D01*
X150491721Y-84457290D01*
X150499992Y-84453858D01*
X150508268Y-84457279D01*
G37*
%TD.AperFunction*%
%TD*%
%TA.AperFunction,Conductor*%
%TO.N,/Encoder/Protection_IO/OUT_7*%
G36*
X149195802Y-83823560D02*
G01*
X150482693Y-84441213D01*
X150488668Y-84447882D01*
X150488178Y-84456824D01*
X150484217Y-84461431D01*
X149403246Y-85197788D01*
X149396075Y-85199803D01*
X148411116Y-85150555D01*
X148403024Y-85146720D01*
X148400000Y-85138870D01*
X148400000Y-84157807D01*
X148403427Y-84149534D01*
X148407207Y-84147005D01*
X149186264Y-83823309D01*
X149195218Y-83823300D01*
X149195802Y-83823560D01*
G37*
%TD.AperFunction*%
%TD*%
%TA.AperFunction,Conductor*%
%TO.N,/Encoder/Protection_IO/OUT_7*%
G36*
X148467269Y-84075720D02*
G01*
X149064719Y-84148743D01*
X149072516Y-84153149D01*
X149075000Y-84160357D01*
X149075000Y-85139642D01*
X149071573Y-85147915D01*
X149064719Y-85151256D01*
X148467277Y-85224278D01*
X148458650Y-85221880D01*
X148457310Y-85220653D01*
X148392454Y-85151256D01*
X147931465Y-84657988D01*
X147928321Y-84649604D01*
X147931466Y-84642011D01*
X148457312Y-84079344D01*
X148465462Y-84075642D01*
X148467269Y-84075720D01*
G37*
%TD.AperFunction*%
%TD*%
%TA.AperFunction,Conductor*%
%TO.N,/Encoder/Protection_IO/OUT_8*%
G36*
X141995802Y-81823560D02*
G01*
X143282693Y-82441213D01*
X143288668Y-82447882D01*
X143288178Y-82456824D01*
X143284217Y-82461431D01*
X142203246Y-83197788D01*
X142196075Y-83199803D01*
X141211116Y-83150555D01*
X141203024Y-83146720D01*
X141200000Y-83138870D01*
X141200000Y-82157807D01*
X141203427Y-82149534D01*
X141207207Y-82147005D01*
X141986264Y-81823309D01*
X141995218Y-81823300D01*
X141995802Y-81823560D01*
G37*
%TD.AperFunction*%
%TD*%
%TA.AperFunction,Conductor*%
%TO.N,/Encoder/Protection_IO/OUT_8*%
G36*
X141267269Y-82075720D02*
G01*
X141864719Y-82148743D01*
X141872516Y-82153149D01*
X141875000Y-82160357D01*
X141875000Y-83139642D01*
X141871573Y-83147915D01*
X141864719Y-83151256D01*
X141267277Y-83224278D01*
X141258650Y-83221880D01*
X141257310Y-83220653D01*
X141192454Y-83151256D01*
X140731465Y-82657988D01*
X140728321Y-82649604D01*
X140731466Y-82642011D01*
X141257312Y-82079344D01*
X141265462Y-82075642D01*
X141267269Y-82075720D01*
G37*
%TD.AperFunction*%
%TD*%
%TA.AperFunction,Conductor*%
%TO.N,/Encoder/Protection_IO/OUT_8*%
G36*
X143800437Y-83553427D02*
G01*
X143802983Y-83557245D01*
X144147032Y-84392792D01*
X144147013Y-84401747D01*
X144144491Y-84405515D01*
X143308278Y-85242712D01*
X143300007Y-85246144D01*
X143291732Y-85242722D01*
X143291722Y-85242712D01*
X143012144Y-84962805D01*
X142455507Y-84405514D01*
X142452086Y-84397240D01*
X142452966Y-84392796D01*
X142797017Y-83557245D01*
X142803336Y-83550900D01*
X142807836Y-83550000D01*
X143792164Y-83550000D01*
X143800437Y-83553427D01*
G37*
%TD.AperFunction*%
%TD*%
%TA.AperFunction,Conductor*%
%TO.N,/Encoder/Protection_IO/OUT_8*%
G36*
X143308268Y-82457279D02*
G01*
X143308279Y-82457290D01*
X144044893Y-83194887D01*
X144048314Y-83203163D01*
X144047714Y-83206855D01*
X143802667Y-83942000D01*
X143796799Y-83948765D01*
X143791567Y-83950000D01*
X142808433Y-83950000D01*
X142800160Y-83946573D01*
X142797333Y-83942000D01*
X142552285Y-83206855D01*
X142552920Y-83197923D01*
X142555106Y-83194887D01*
X143291721Y-82457290D01*
X143299992Y-82453858D01*
X143308268Y-82457279D01*
G37*
%TD.AperFunction*%
%TD*%
M02*
