M48
; DRILL file {KiCad 8.0.7} date 2025-02-07T22:27:18+0100
; FORMAT={-:-/ absolute / inch / decimal}
; #@! TF.CreationDate,2025-02-07T22:27:18+01:00
; #@! TF.GenerationSoftware,Kicad,Pcbnew,8.0.7
; #@! TF.FileFunction,Plated,1,2,PTH
FMAT,2
INCH
; #@! TA.AperFunction,Plated,PTH,ComponentDrill
T1C0.0394
%
G90
G05
T1
X4.3898Y-4.6988
X4.4055Y-3.2185
X4.4134Y-4.4154
X4.4921Y-4.1319
X4.5472Y-3.2185
X4.563Y-3.8484
X4.689Y-3.2185
X4.8031Y-3.561
X4.8307Y-3.2185
X4.9173Y-4.6988
X4.9724Y-3.2185
X4.9961Y-4.4154
X5.0748Y-4.1319
X5.1142Y-3.2185
X5.1299Y-3.8484
X5.2559Y-3.2185
X5.311Y-4.6988
X5.3661Y-3.565
X5.3976Y-3.2185
X5.4528Y-4.6988
X5.5315Y-4.4154
X5.5394Y-3.2185
X5.6102Y-4.1319
X5.6811Y-3.2185
X5.689Y-3.8484
X5.8228Y-3.2185
X5.9094Y-3.565
X5.9567Y-4.6988
X5.9646Y-3.2185
X6.0512Y-4.4232
X6.1063Y-3.2185
X6.1299Y-4.1398
X6.2165Y-3.8563
X6.248Y-3.2185
X6.3898Y-3.2185
X6.4252Y-3.4626
X6.4764Y-4.5965
X6.4764Y-4.7382
X6.5315Y-3.2185
X6.563Y-4.2106
X6.6732Y-3.2185
X6.7677Y-4.7343
X6.815Y-3.2185
M30
