%TF.GenerationSoftware,KiCad,Pcbnew,8.0.7*%
%TF.CreationDate,2025-02-07T22:08:49+01:00*%
%TF.ProjectId,Teensy_board_02_temperature,5465656e-7379-45f6-926f-6172645f3032,rev?*%
%TF.SameCoordinates,Original*%
%TF.FileFunction,Legend,Top*%
%TF.FilePolarity,Positive*%
%FSLAX46Y46*%
G04 Gerber Fmt 4.6, Leading zero omitted, Abs format (unit mm)*
G04 Created by KiCad (PCBNEW 8.0.7) date 2025-02-07 22:08:49*
%MOMM*%
%LPD*%
G01*
G04 APERTURE LIST*
%ADD10C,0.150000*%
%ADD11C,0.120000*%
G04 APERTURE END LIST*
D10*
X172164819Y-76319523D02*
X172879104Y-76319523D01*
X172879104Y-76319523D02*
X173021961Y-76367142D01*
X173021961Y-76367142D02*
X173117200Y-76462380D01*
X173117200Y-76462380D02*
X173164819Y-76605237D01*
X173164819Y-76605237D02*
X173164819Y-76700475D01*
X172164819Y-75367142D02*
X172164819Y-75843332D01*
X172164819Y-75843332D02*
X172641009Y-75890951D01*
X172641009Y-75890951D02*
X172593390Y-75843332D01*
X172593390Y-75843332D02*
X172545771Y-75748094D01*
X172545771Y-75748094D02*
X172545771Y-75509999D01*
X172545771Y-75509999D02*
X172593390Y-75414761D01*
X172593390Y-75414761D02*
X172641009Y-75367142D01*
X172641009Y-75367142D02*
X172736247Y-75319523D01*
X172736247Y-75319523D02*
X172974342Y-75319523D01*
X172974342Y-75319523D02*
X173069580Y-75367142D01*
X173069580Y-75367142D02*
X173117200Y-75414761D01*
X173117200Y-75414761D02*
X173164819Y-75509999D01*
X173164819Y-75509999D02*
X173164819Y-75748094D01*
X173164819Y-75748094D02*
X173117200Y-75843332D01*
X173117200Y-75843332D02*
X173069580Y-75890951D01*
X172498152Y-74462380D02*
X173164819Y-74462380D01*
X172117200Y-74700475D02*
X172831485Y-74938570D01*
X172831485Y-74938570D02*
X172831485Y-74319523D01*
X119624819Y-76239523D02*
X120339104Y-76239523D01*
X120339104Y-76239523D02*
X120481961Y-76287142D01*
X120481961Y-76287142D02*
X120577200Y-76382380D01*
X120577200Y-76382380D02*
X120624819Y-76525237D01*
X120624819Y-76525237D02*
X120624819Y-76620475D01*
X119624819Y-75287142D02*
X119624819Y-75763332D01*
X119624819Y-75763332D02*
X120101009Y-75810951D01*
X120101009Y-75810951D02*
X120053390Y-75763332D01*
X120053390Y-75763332D02*
X120005771Y-75668094D01*
X120005771Y-75668094D02*
X120005771Y-75429999D01*
X120005771Y-75429999D02*
X120053390Y-75334761D01*
X120053390Y-75334761D02*
X120101009Y-75287142D01*
X120101009Y-75287142D02*
X120196247Y-75239523D01*
X120196247Y-75239523D02*
X120434342Y-75239523D01*
X120434342Y-75239523D02*
X120529580Y-75287142D01*
X120529580Y-75287142D02*
X120577200Y-75334761D01*
X120577200Y-75334761D02*
X120624819Y-75429999D01*
X120624819Y-75429999D02*
X120624819Y-75668094D01*
X120624819Y-75668094D02*
X120577200Y-75763332D01*
X120577200Y-75763332D02*
X120529580Y-75810951D01*
X119720057Y-74858570D02*
X119672438Y-74810951D01*
X119672438Y-74810951D02*
X119624819Y-74715713D01*
X119624819Y-74715713D02*
X119624819Y-74477618D01*
X119624819Y-74477618D02*
X119672438Y-74382380D01*
X119672438Y-74382380D02*
X119720057Y-74334761D01*
X119720057Y-74334761D02*
X119815295Y-74287142D01*
X119815295Y-74287142D02*
X119910533Y-74287142D01*
X119910533Y-74287142D02*
X120053390Y-74334761D01*
X120053390Y-74334761D02*
X120624819Y-74906189D01*
X120624819Y-74906189D02*
X120624819Y-74287142D01*
X171819819Y-81548094D02*
X172629342Y-81548094D01*
X172629342Y-81548094D02*
X172724580Y-81500475D01*
X172724580Y-81500475D02*
X172772200Y-81452856D01*
X172772200Y-81452856D02*
X172819819Y-81357618D01*
X172819819Y-81357618D02*
X172819819Y-81167142D01*
X172819819Y-81167142D02*
X172772200Y-81071904D01*
X172772200Y-81071904D02*
X172724580Y-81024285D01*
X172724580Y-81024285D02*
X172629342Y-80976666D01*
X172629342Y-80976666D02*
X171819819Y-80976666D01*
X172819819Y-79976666D02*
X172819819Y-80548094D01*
X172819819Y-80262380D02*
X171819819Y-80262380D01*
X171819819Y-80262380D02*
X171962676Y-80357618D01*
X171962676Y-80357618D02*
X172057914Y-80452856D01*
X172057914Y-80452856D02*
X172105533Y-80548094D01*
X171819819Y-79357618D02*
X171819819Y-79262380D01*
X171819819Y-79262380D02*
X171867438Y-79167142D01*
X171867438Y-79167142D02*
X171915057Y-79119523D01*
X171915057Y-79119523D02*
X172010295Y-79071904D01*
X172010295Y-79071904D02*
X172200771Y-79024285D01*
X172200771Y-79024285D02*
X172438866Y-79024285D01*
X172438866Y-79024285D02*
X172629342Y-79071904D01*
X172629342Y-79071904D02*
X172724580Y-79119523D01*
X172724580Y-79119523D02*
X172772200Y-79167142D01*
X172772200Y-79167142D02*
X172819819Y-79262380D01*
X172819819Y-79262380D02*
X172819819Y-79357618D01*
X172819819Y-79357618D02*
X172772200Y-79452856D01*
X172772200Y-79452856D02*
X172724580Y-79500475D01*
X172724580Y-79500475D02*
X172629342Y-79548094D01*
X172629342Y-79548094D02*
X172438866Y-79595713D01*
X172438866Y-79595713D02*
X172200771Y-79595713D01*
X172200771Y-79595713D02*
X172010295Y-79548094D01*
X172010295Y-79548094D02*
X171915057Y-79500475D01*
X171915057Y-79500475D02*
X171867438Y-79452856D01*
X171867438Y-79452856D02*
X171819819Y-79357618D01*
X161724819Y-76164523D02*
X162439104Y-76164523D01*
X162439104Y-76164523D02*
X162581961Y-76212142D01*
X162581961Y-76212142D02*
X162677200Y-76307380D01*
X162677200Y-76307380D02*
X162724819Y-76450237D01*
X162724819Y-76450237D02*
X162724819Y-76545475D01*
X161724819Y-75212142D02*
X161724819Y-75688332D01*
X161724819Y-75688332D02*
X162201009Y-75735951D01*
X162201009Y-75735951D02*
X162153390Y-75688332D01*
X162153390Y-75688332D02*
X162105771Y-75593094D01*
X162105771Y-75593094D02*
X162105771Y-75354999D01*
X162105771Y-75354999D02*
X162153390Y-75259761D01*
X162153390Y-75259761D02*
X162201009Y-75212142D01*
X162201009Y-75212142D02*
X162296247Y-75164523D01*
X162296247Y-75164523D02*
X162534342Y-75164523D01*
X162534342Y-75164523D02*
X162629580Y-75212142D01*
X162629580Y-75212142D02*
X162677200Y-75259761D01*
X162677200Y-75259761D02*
X162724819Y-75354999D01*
X162724819Y-75354999D02*
X162724819Y-75593094D01*
X162724819Y-75593094D02*
X162677200Y-75688332D01*
X162677200Y-75688332D02*
X162629580Y-75735951D01*
X162153390Y-74593094D02*
X162105771Y-74688332D01*
X162105771Y-74688332D02*
X162058152Y-74735951D01*
X162058152Y-74735951D02*
X161962914Y-74783570D01*
X161962914Y-74783570D02*
X161915295Y-74783570D01*
X161915295Y-74783570D02*
X161820057Y-74735951D01*
X161820057Y-74735951D02*
X161772438Y-74688332D01*
X161772438Y-74688332D02*
X161724819Y-74593094D01*
X161724819Y-74593094D02*
X161724819Y-74402618D01*
X161724819Y-74402618D02*
X161772438Y-74307380D01*
X161772438Y-74307380D02*
X161820057Y-74259761D01*
X161820057Y-74259761D02*
X161915295Y-74212142D01*
X161915295Y-74212142D02*
X161962914Y-74212142D01*
X161962914Y-74212142D02*
X162058152Y-74259761D01*
X162058152Y-74259761D02*
X162105771Y-74307380D01*
X162105771Y-74307380D02*
X162153390Y-74402618D01*
X162153390Y-74402618D02*
X162153390Y-74593094D01*
X162153390Y-74593094D02*
X162201009Y-74688332D01*
X162201009Y-74688332D02*
X162248628Y-74735951D01*
X162248628Y-74735951D02*
X162343866Y-74783570D01*
X162343866Y-74783570D02*
X162534342Y-74783570D01*
X162534342Y-74783570D02*
X162629580Y-74735951D01*
X162629580Y-74735951D02*
X162677200Y-74688332D01*
X162677200Y-74688332D02*
X162724819Y-74593094D01*
X162724819Y-74593094D02*
X162724819Y-74402618D01*
X162724819Y-74402618D02*
X162677200Y-74307380D01*
X162677200Y-74307380D02*
X162629580Y-74259761D01*
X162629580Y-74259761D02*
X162534342Y-74212142D01*
X162534342Y-74212142D02*
X162343866Y-74212142D01*
X162343866Y-74212142D02*
X162248628Y-74259761D01*
X162248628Y-74259761D02*
X162201009Y-74307380D01*
X162201009Y-74307380D02*
X162153390Y-74402618D01*
X130094819Y-72734523D02*
X130809104Y-72734523D01*
X130809104Y-72734523D02*
X130951961Y-72782142D01*
X130951961Y-72782142D02*
X131047200Y-72877380D01*
X131047200Y-72877380D02*
X131094819Y-73020237D01*
X131094819Y-73020237D02*
X131094819Y-73115475D01*
X130094819Y-71782142D02*
X130094819Y-72258332D01*
X130094819Y-72258332D02*
X130571009Y-72305951D01*
X130571009Y-72305951D02*
X130523390Y-72258332D01*
X130523390Y-72258332D02*
X130475771Y-72163094D01*
X130475771Y-72163094D02*
X130475771Y-71924999D01*
X130475771Y-71924999D02*
X130523390Y-71829761D01*
X130523390Y-71829761D02*
X130571009Y-71782142D01*
X130571009Y-71782142D02*
X130666247Y-71734523D01*
X130666247Y-71734523D02*
X130904342Y-71734523D01*
X130904342Y-71734523D02*
X130999580Y-71782142D01*
X130999580Y-71782142D02*
X131047200Y-71829761D01*
X131047200Y-71829761D02*
X131094819Y-71924999D01*
X131094819Y-71924999D02*
X131094819Y-72163094D01*
X131094819Y-72163094D02*
X131047200Y-72258332D01*
X131047200Y-72258332D02*
X130999580Y-72305951D01*
X131094819Y-70782142D02*
X131094819Y-71353570D01*
X131094819Y-71067856D02*
X130094819Y-71067856D01*
X130094819Y-71067856D02*
X130237676Y-71163094D01*
X130237676Y-71163094D02*
X130332914Y-71258332D01*
X130332914Y-71258332D02*
X130380533Y-71353570D01*
X150694819Y-81031904D02*
X151504342Y-81031904D01*
X151504342Y-81031904D02*
X151599580Y-80984285D01*
X151599580Y-80984285D02*
X151647200Y-80936666D01*
X151647200Y-80936666D02*
X151694819Y-80841428D01*
X151694819Y-80841428D02*
X151694819Y-80650952D01*
X151694819Y-80650952D02*
X151647200Y-80555714D01*
X151647200Y-80555714D02*
X151599580Y-80508095D01*
X151599580Y-80508095D02*
X151504342Y-80460476D01*
X151504342Y-80460476D02*
X150694819Y-80460476D01*
X150694819Y-80079523D02*
X150694819Y-79412857D01*
X150694819Y-79412857D02*
X151694819Y-79841428D01*
X161394819Y-81393094D02*
X162204342Y-81393094D01*
X162204342Y-81393094D02*
X162299580Y-81345475D01*
X162299580Y-81345475D02*
X162347200Y-81297856D01*
X162347200Y-81297856D02*
X162394819Y-81202618D01*
X162394819Y-81202618D02*
X162394819Y-81012142D01*
X162394819Y-81012142D02*
X162347200Y-80916904D01*
X162347200Y-80916904D02*
X162299580Y-80869285D01*
X162299580Y-80869285D02*
X162204342Y-80821666D01*
X162204342Y-80821666D02*
X161394819Y-80821666D01*
X162394819Y-79821666D02*
X162394819Y-80393094D01*
X162394819Y-80107380D02*
X161394819Y-80107380D01*
X161394819Y-80107380D02*
X161537676Y-80202618D01*
X161537676Y-80202618D02*
X161632914Y-80297856D01*
X161632914Y-80297856D02*
X161680533Y-80393094D01*
X161490057Y-79440713D02*
X161442438Y-79393094D01*
X161442438Y-79393094D02*
X161394819Y-79297856D01*
X161394819Y-79297856D02*
X161394819Y-79059761D01*
X161394819Y-79059761D02*
X161442438Y-78964523D01*
X161442438Y-78964523D02*
X161490057Y-78916904D01*
X161490057Y-78916904D02*
X161585295Y-78869285D01*
X161585295Y-78869285D02*
X161680533Y-78869285D01*
X161680533Y-78869285D02*
X161823390Y-78916904D01*
X161823390Y-78916904D02*
X162394819Y-79488332D01*
X162394819Y-79488332D02*
X162394819Y-78869285D01*
X140639819Y-72639523D02*
X141354104Y-72639523D01*
X141354104Y-72639523D02*
X141496961Y-72687142D01*
X141496961Y-72687142D02*
X141592200Y-72782380D01*
X141592200Y-72782380D02*
X141639819Y-72925237D01*
X141639819Y-72925237D02*
X141639819Y-73020475D01*
X140639819Y-71687142D02*
X140639819Y-72163332D01*
X140639819Y-72163332D02*
X141116009Y-72210951D01*
X141116009Y-72210951D02*
X141068390Y-72163332D01*
X141068390Y-72163332D02*
X141020771Y-72068094D01*
X141020771Y-72068094D02*
X141020771Y-71829999D01*
X141020771Y-71829999D02*
X141068390Y-71734761D01*
X141068390Y-71734761D02*
X141116009Y-71687142D01*
X141116009Y-71687142D02*
X141211247Y-71639523D01*
X141211247Y-71639523D02*
X141449342Y-71639523D01*
X141449342Y-71639523D02*
X141544580Y-71687142D01*
X141544580Y-71687142D02*
X141592200Y-71734761D01*
X141592200Y-71734761D02*
X141639819Y-71829999D01*
X141639819Y-71829999D02*
X141639819Y-72068094D01*
X141639819Y-72068094D02*
X141592200Y-72163332D01*
X141592200Y-72163332D02*
X141544580Y-72210951D01*
X140639819Y-70782380D02*
X140639819Y-70972856D01*
X140639819Y-70972856D02*
X140687438Y-71068094D01*
X140687438Y-71068094D02*
X140735057Y-71115713D01*
X140735057Y-71115713D02*
X140877914Y-71210951D01*
X140877914Y-71210951D02*
X141068390Y-71258570D01*
X141068390Y-71258570D02*
X141449342Y-71258570D01*
X141449342Y-71258570D02*
X141544580Y-71210951D01*
X141544580Y-71210951D02*
X141592200Y-71163332D01*
X141592200Y-71163332D02*
X141639819Y-71068094D01*
X141639819Y-71068094D02*
X141639819Y-70877618D01*
X141639819Y-70877618D02*
X141592200Y-70782380D01*
X141592200Y-70782380D02*
X141544580Y-70734761D01*
X141544580Y-70734761D02*
X141449342Y-70687142D01*
X141449342Y-70687142D02*
X141211247Y-70687142D01*
X141211247Y-70687142D02*
X141116009Y-70734761D01*
X141116009Y-70734761D02*
X141068390Y-70782380D01*
X141068390Y-70782380D02*
X141020771Y-70877618D01*
X141020771Y-70877618D02*
X141020771Y-71068094D01*
X141020771Y-71068094D02*
X141068390Y-71163332D01*
X141068390Y-71163332D02*
X141116009Y-71210951D01*
X141116009Y-71210951D02*
X141211247Y-71258570D01*
X119624819Y-72639523D02*
X120339104Y-72639523D01*
X120339104Y-72639523D02*
X120481961Y-72687142D01*
X120481961Y-72687142D02*
X120577200Y-72782380D01*
X120577200Y-72782380D02*
X120624819Y-72925237D01*
X120624819Y-72925237D02*
X120624819Y-73020475D01*
X119624819Y-71687142D02*
X119624819Y-72163332D01*
X119624819Y-72163332D02*
X120101009Y-72210951D01*
X120101009Y-72210951D02*
X120053390Y-72163332D01*
X120053390Y-72163332D02*
X120005771Y-72068094D01*
X120005771Y-72068094D02*
X120005771Y-71829999D01*
X120005771Y-71829999D02*
X120053390Y-71734761D01*
X120053390Y-71734761D02*
X120101009Y-71687142D01*
X120101009Y-71687142D02*
X120196247Y-71639523D01*
X120196247Y-71639523D02*
X120434342Y-71639523D01*
X120434342Y-71639523D02*
X120529580Y-71687142D01*
X120529580Y-71687142D02*
X120577200Y-71734761D01*
X120577200Y-71734761D02*
X120624819Y-71829999D01*
X120624819Y-71829999D02*
X120624819Y-72068094D01*
X120624819Y-72068094D02*
X120577200Y-72163332D01*
X120577200Y-72163332D02*
X120529580Y-72210951D01*
X119624819Y-71306189D02*
X119624819Y-70687142D01*
X119624819Y-70687142D02*
X120005771Y-71020475D01*
X120005771Y-71020475D02*
X120005771Y-70877618D01*
X120005771Y-70877618D02*
X120053390Y-70782380D01*
X120053390Y-70782380D02*
X120101009Y-70734761D01*
X120101009Y-70734761D02*
X120196247Y-70687142D01*
X120196247Y-70687142D02*
X120434342Y-70687142D01*
X120434342Y-70687142D02*
X120529580Y-70734761D01*
X120529580Y-70734761D02*
X120577200Y-70782380D01*
X120577200Y-70782380D02*
X120624819Y-70877618D01*
X120624819Y-70877618D02*
X120624819Y-71163332D01*
X120624819Y-71163332D02*
X120577200Y-71258570D01*
X120577200Y-71258570D02*
X120529580Y-71306189D01*
X130094819Y-76334523D02*
X130809104Y-76334523D01*
X130809104Y-76334523D02*
X130951961Y-76382142D01*
X130951961Y-76382142D02*
X131047200Y-76477380D01*
X131047200Y-76477380D02*
X131094819Y-76620237D01*
X131094819Y-76620237D02*
X131094819Y-76715475D01*
X130094819Y-75382142D02*
X130094819Y-75858332D01*
X130094819Y-75858332D02*
X130571009Y-75905951D01*
X130571009Y-75905951D02*
X130523390Y-75858332D01*
X130523390Y-75858332D02*
X130475771Y-75763094D01*
X130475771Y-75763094D02*
X130475771Y-75524999D01*
X130475771Y-75524999D02*
X130523390Y-75429761D01*
X130523390Y-75429761D02*
X130571009Y-75382142D01*
X130571009Y-75382142D02*
X130666247Y-75334523D01*
X130666247Y-75334523D02*
X130904342Y-75334523D01*
X130904342Y-75334523D02*
X130999580Y-75382142D01*
X130999580Y-75382142D02*
X131047200Y-75429761D01*
X131047200Y-75429761D02*
X131094819Y-75524999D01*
X131094819Y-75524999D02*
X131094819Y-75763094D01*
X131094819Y-75763094D02*
X131047200Y-75858332D01*
X131047200Y-75858332D02*
X130999580Y-75905951D01*
X130094819Y-74715475D02*
X130094819Y-74620237D01*
X130094819Y-74620237D02*
X130142438Y-74524999D01*
X130142438Y-74524999D02*
X130190057Y-74477380D01*
X130190057Y-74477380D02*
X130285295Y-74429761D01*
X130285295Y-74429761D02*
X130475771Y-74382142D01*
X130475771Y-74382142D02*
X130713866Y-74382142D01*
X130713866Y-74382142D02*
X130904342Y-74429761D01*
X130904342Y-74429761D02*
X130999580Y-74477380D01*
X130999580Y-74477380D02*
X131047200Y-74524999D01*
X131047200Y-74524999D02*
X131094819Y-74620237D01*
X131094819Y-74620237D02*
X131094819Y-74715475D01*
X131094819Y-74715475D02*
X131047200Y-74810713D01*
X131047200Y-74810713D02*
X130999580Y-74858332D01*
X130999580Y-74858332D02*
X130904342Y-74905951D01*
X130904342Y-74905951D02*
X130713866Y-74953570D01*
X130713866Y-74953570D02*
X130475771Y-74953570D01*
X130475771Y-74953570D02*
X130285295Y-74905951D01*
X130285295Y-74905951D02*
X130190057Y-74858332D01*
X130190057Y-74858332D02*
X130142438Y-74810713D01*
X130142438Y-74810713D02*
X130094819Y-74715475D01*
X129804819Y-81086904D02*
X130614342Y-81086904D01*
X130614342Y-81086904D02*
X130709580Y-81039285D01*
X130709580Y-81039285D02*
X130757200Y-80991666D01*
X130757200Y-80991666D02*
X130804819Y-80896428D01*
X130804819Y-80896428D02*
X130804819Y-80705952D01*
X130804819Y-80705952D02*
X130757200Y-80610714D01*
X130757200Y-80610714D02*
X130709580Y-80563095D01*
X130709580Y-80563095D02*
X130614342Y-80515476D01*
X130614342Y-80515476D02*
X129804819Y-80515476D01*
X130233390Y-79896428D02*
X130185771Y-79991666D01*
X130185771Y-79991666D02*
X130138152Y-80039285D01*
X130138152Y-80039285D02*
X130042914Y-80086904D01*
X130042914Y-80086904D02*
X129995295Y-80086904D01*
X129995295Y-80086904D02*
X129900057Y-80039285D01*
X129900057Y-80039285D02*
X129852438Y-79991666D01*
X129852438Y-79991666D02*
X129804819Y-79896428D01*
X129804819Y-79896428D02*
X129804819Y-79705952D01*
X129804819Y-79705952D02*
X129852438Y-79610714D01*
X129852438Y-79610714D02*
X129900057Y-79563095D01*
X129900057Y-79563095D02*
X129995295Y-79515476D01*
X129995295Y-79515476D02*
X130042914Y-79515476D01*
X130042914Y-79515476D02*
X130138152Y-79563095D01*
X130138152Y-79563095D02*
X130185771Y-79610714D01*
X130185771Y-79610714D02*
X130233390Y-79705952D01*
X130233390Y-79705952D02*
X130233390Y-79896428D01*
X130233390Y-79896428D02*
X130281009Y-79991666D01*
X130281009Y-79991666D02*
X130328628Y-80039285D01*
X130328628Y-80039285D02*
X130423866Y-80086904D01*
X130423866Y-80086904D02*
X130614342Y-80086904D01*
X130614342Y-80086904D02*
X130709580Y-80039285D01*
X130709580Y-80039285D02*
X130757200Y-79991666D01*
X130757200Y-79991666D02*
X130804819Y-79896428D01*
X130804819Y-79896428D02*
X130804819Y-79705952D01*
X130804819Y-79705952D02*
X130757200Y-79610714D01*
X130757200Y-79610714D02*
X130709580Y-79563095D01*
X130709580Y-79563095D02*
X130614342Y-79515476D01*
X130614342Y-79515476D02*
X130423866Y-79515476D01*
X130423866Y-79515476D02*
X130328628Y-79563095D01*
X130328628Y-79563095D02*
X130281009Y-79610714D01*
X130281009Y-79610714D02*
X130233390Y-79705952D01*
X172149819Y-72719523D02*
X172864104Y-72719523D01*
X172864104Y-72719523D02*
X173006961Y-72767142D01*
X173006961Y-72767142D02*
X173102200Y-72862380D01*
X173102200Y-72862380D02*
X173149819Y-73005237D01*
X173149819Y-73005237D02*
X173149819Y-73100475D01*
X172149819Y-71767142D02*
X172149819Y-72243332D01*
X172149819Y-72243332D02*
X172626009Y-72290951D01*
X172626009Y-72290951D02*
X172578390Y-72243332D01*
X172578390Y-72243332D02*
X172530771Y-72148094D01*
X172530771Y-72148094D02*
X172530771Y-71909999D01*
X172530771Y-71909999D02*
X172578390Y-71814761D01*
X172578390Y-71814761D02*
X172626009Y-71767142D01*
X172626009Y-71767142D02*
X172721247Y-71719523D01*
X172721247Y-71719523D02*
X172959342Y-71719523D01*
X172959342Y-71719523D02*
X173054580Y-71767142D01*
X173054580Y-71767142D02*
X173102200Y-71814761D01*
X173102200Y-71814761D02*
X173149819Y-71909999D01*
X173149819Y-71909999D02*
X173149819Y-72148094D01*
X173149819Y-72148094D02*
X173102200Y-72243332D01*
X173102200Y-72243332D02*
X173054580Y-72290951D01*
X172149819Y-70814761D02*
X172149819Y-71290951D01*
X172149819Y-71290951D02*
X172626009Y-71338570D01*
X172626009Y-71338570D02*
X172578390Y-71290951D01*
X172578390Y-71290951D02*
X172530771Y-71195713D01*
X172530771Y-71195713D02*
X172530771Y-70957618D01*
X172530771Y-70957618D02*
X172578390Y-70862380D01*
X172578390Y-70862380D02*
X172626009Y-70814761D01*
X172626009Y-70814761D02*
X172721247Y-70767142D01*
X172721247Y-70767142D02*
X172959342Y-70767142D01*
X172959342Y-70767142D02*
X173054580Y-70814761D01*
X173054580Y-70814761D02*
X173102200Y-70862380D01*
X173102200Y-70862380D02*
X173149819Y-70957618D01*
X173149819Y-70957618D02*
X173149819Y-71195713D01*
X173149819Y-71195713D02*
X173102200Y-71290951D01*
X173102200Y-71290951D02*
X173054580Y-71338570D01*
X151024819Y-76279523D02*
X151739104Y-76279523D01*
X151739104Y-76279523D02*
X151881961Y-76327142D01*
X151881961Y-76327142D02*
X151977200Y-76422380D01*
X151977200Y-76422380D02*
X152024819Y-76565237D01*
X152024819Y-76565237D02*
X152024819Y-76660475D01*
X151024819Y-75898570D02*
X151024819Y-75279523D01*
X151024819Y-75279523D02*
X151405771Y-75612856D01*
X151405771Y-75612856D02*
X151405771Y-75469999D01*
X151405771Y-75469999D02*
X151453390Y-75374761D01*
X151453390Y-75374761D02*
X151501009Y-75327142D01*
X151501009Y-75327142D02*
X151596247Y-75279523D01*
X151596247Y-75279523D02*
X151834342Y-75279523D01*
X151834342Y-75279523D02*
X151929580Y-75327142D01*
X151929580Y-75327142D02*
X151977200Y-75374761D01*
X151977200Y-75374761D02*
X152024819Y-75469999D01*
X152024819Y-75469999D02*
X152024819Y-75755713D01*
X152024819Y-75755713D02*
X151977200Y-75850951D01*
X151977200Y-75850951D02*
X151929580Y-75898570D01*
X151024819Y-74946189D02*
X151024819Y-74279523D01*
X151024819Y-74279523D02*
X152024819Y-74708094D01*
X119294819Y-80991904D02*
X120104342Y-80991904D01*
X120104342Y-80991904D02*
X120199580Y-80944285D01*
X120199580Y-80944285D02*
X120247200Y-80896666D01*
X120247200Y-80896666D02*
X120294819Y-80801428D01*
X120294819Y-80801428D02*
X120294819Y-80610952D01*
X120294819Y-80610952D02*
X120247200Y-80515714D01*
X120247200Y-80515714D02*
X120199580Y-80468095D01*
X120199580Y-80468095D02*
X120104342Y-80420476D01*
X120104342Y-80420476D02*
X119294819Y-80420476D01*
X120294819Y-79896666D02*
X120294819Y-79706190D01*
X120294819Y-79706190D02*
X120247200Y-79610952D01*
X120247200Y-79610952D02*
X120199580Y-79563333D01*
X120199580Y-79563333D02*
X120056723Y-79468095D01*
X120056723Y-79468095D02*
X119866247Y-79420476D01*
X119866247Y-79420476D02*
X119485295Y-79420476D01*
X119485295Y-79420476D02*
X119390057Y-79468095D01*
X119390057Y-79468095D02*
X119342438Y-79515714D01*
X119342438Y-79515714D02*
X119294819Y-79610952D01*
X119294819Y-79610952D02*
X119294819Y-79801428D01*
X119294819Y-79801428D02*
X119342438Y-79896666D01*
X119342438Y-79896666D02*
X119390057Y-79944285D01*
X119390057Y-79944285D02*
X119485295Y-79991904D01*
X119485295Y-79991904D02*
X119723390Y-79991904D01*
X119723390Y-79991904D02*
X119818628Y-79944285D01*
X119818628Y-79944285D02*
X119866247Y-79896666D01*
X119866247Y-79896666D02*
X119913866Y-79801428D01*
X119913866Y-79801428D02*
X119913866Y-79610952D01*
X119913866Y-79610952D02*
X119866247Y-79515714D01*
X119866247Y-79515714D02*
X119818628Y-79468095D01*
X119818628Y-79468095D02*
X119723390Y-79420476D01*
X151024819Y-72679523D02*
X151739104Y-72679523D01*
X151739104Y-72679523D02*
X151881961Y-72727142D01*
X151881961Y-72727142D02*
X151977200Y-72822380D01*
X151977200Y-72822380D02*
X152024819Y-72965237D01*
X152024819Y-72965237D02*
X152024819Y-73060475D01*
X151024819Y-72298570D02*
X151024819Y-71679523D01*
X151024819Y-71679523D02*
X151405771Y-72012856D01*
X151405771Y-72012856D02*
X151405771Y-71869999D01*
X151405771Y-71869999D02*
X151453390Y-71774761D01*
X151453390Y-71774761D02*
X151501009Y-71727142D01*
X151501009Y-71727142D02*
X151596247Y-71679523D01*
X151596247Y-71679523D02*
X151834342Y-71679523D01*
X151834342Y-71679523D02*
X151929580Y-71727142D01*
X151929580Y-71727142D02*
X151977200Y-71774761D01*
X151977200Y-71774761D02*
X152024819Y-71869999D01*
X152024819Y-71869999D02*
X152024819Y-72155713D01*
X152024819Y-72155713D02*
X151977200Y-72250951D01*
X151977200Y-72250951D02*
X151929580Y-72298570D01*
X151453390Y-71108094D02*
X151405771Y-71203332D01*
X151405771Y-71203332D02*
X151358152Y-71250951D01*
X151358152Y-71250951D02*
X151262914Y-71298570D01*
X151262914Y-71298570D02*
X151215295Y-71298570D01*
X151215295Y-71298570D02*
X151120057Y-71250951D01*
X151120057Y-71250951D02*
X151072438Y-71203332D01*
X151072438Y-71203332D02*
X151024819Y-71108094D01*
X151024819Y-71108094D02*
X151024819Y-70917618D01*
X151024819Y-70917618D02*
X151072438Y-70822380D01*
X151072438Y-70822380D02*
X151120057Y-70774761D01*
X151120057Y-70774761D02*
X151215295Y-70727142D01*
X151215295Y-70727142D02*
X151262914Y-70727142D01*
X151262914Y-70727142D02*
X151358152Y-70774761D01*
X151358152Y-70774761D02*
X151405771Y-70822380D01*
X151405771Y-70822380D02*
X151453390Y-70917618D01*
X151453390Y-70917618D02*
X151453390Y-71108094D01*
X151453390Y-71108094D02*
X151501009Y-71203332D01*
X151501009Y-71203332D02*
X151548628Y-71250951D01*
X151548628Y-71250951D02*
X151643866Y-71298570D01*
X151643866Y-71298570D02*
X151834342Y-71298570D01*
X151834342Y-71298570D02*
X151929580Y-71250951D01*
X151929580Y-71250951D02*
X151977200Y-71203332D01*
X151977200Y-71203332D02*
X152024819Y-71108094D01*
X152024819Y-71108094D02*
X152024819Y-70917618D01*
X152024819Y-70917618D02*
X151977200Y-70822380D01*
X151977200Y-70822380D02*
X151929580Y-70774761D01*
X151929580Y-70774761D02*
X151834342Y-70727142D01*
X151834342Y-70727142D02*
X151643866Y-70727142D01*
X151643866Y-70727142D02*
X151548628Y-70774761D01*
X151548628Y-70774761D02*
X151501009Y-70822380D01*
X151501009Y-70822380D02*
X151453390Y-70917618D01*
X140639819Y-76239523D02*
X141354104Y-76239523D01*
X141354104Y-76239523D02*
X141496961Y-76287142D01*
X141496961Y-76287142D02*
X141592200Y-76382380D01*
X141592200Y-76382380D02*
X141639819Y-76525237D01*
X141639819Y-76525237D02*
X141639819Y-76620475D01*
X140639819Y-75287142D02*
X140639819Y-75763332D01*
X140639819Y-75763332D02*
X141116009Y-75810951D01*
X141116009Y-75810951D02*
X141068390Y-75763332D01*
X141068390Y-75763332D02*
X141020771Y-75668094D01*
X141020771Y-75668094D02*
X141020771Y-75429999D01*
X141020771Y-75429999D02*
X141068390Y-75334761D01*
X141068390Y-75334761D02*
X141116009Y-75287142D01*
X141116009Y-75287142D02*
X141211247Y-75239523D01*
X141211247Y-75239523D02*
X141449342Y-75239523D01*
X141449342Y-75239523D02*
X141544580Y-75287142D01*
X141544580Y-75287142D02*
X141592200Y-75334761D01*
X141592200Y-75334761D02*
X141639819Y-75429999D01*
X141639819Y-75429999D02*
X141639819Y-75668094D01*
X141639819Y-75668094D02*
X141592200Y-75763332D01*
X141592200Y-75763332D02*
X141544580Y-75810951D01*
X140639819Y-74906189D02*
X140639819Y-74239523D01*
X140639819Y-74239523D02*
X141639819Y-74668094D01*
X161724819Y-72564523D02*
X162439104Y-72564523D01*
X162439104Y-72564523D02*
X162581961Y-72612142D01*
X162581961Y-72612142D02*
X162677200Y-72707380D01*
X162677200Y-72707380D02*
X162724819Y-72850237D01*
X162724819Y-72850237D02*
X162724819Y-72945475D01*
X161724819Y-71612142D02*
X161724819Y-72088332D01*
X161724819Y-72088332D02*
X162201009Y-72135951D01*
X162201009Y-72135951D02*
X162153390Y-72088332D01*
X162153390Y-72088332D02*
X162105771Y-71993094D01*
X162105771Y-71993094D02*
X162105771Y-71754999D01*
X162105771Y-71754999D02*
X162153390Y-71659761D01*
X162153390Y-71659761D02*
X162201009Y-71612142D01*
X162201009Y-71612142D02*
X162296247Y-71564523D01*
X162296247Y-71564523D02*
X162534342Y-71564523D01*
X162534342Y-71564523D02*
X162629580Y-71612142D01*
X162629580Y-71612142D02*
X162677200Y-71659761D01*
X162677200Y-71659761D02*
X162724819Y-71754999D01*
X162724819Y-71754999D02*
X162724819Y-71993094D01*
X162724819Y-71993094D02*
X162677200Y-72088332D01*
X162677200Y-72088332D02*
X162629580Y-72135951D01*
X162724819Y-71088332D02*
X162724819Y-70897856D01*
X162724819Y-70897856D02*
X162677200Y-70802618D01*
X162677200Y-70802618D02*
X162629580Y-70754999D01*
X162629580Y-70754999D02*
X162486723Y-70659761D01*
X162486723Y-70659761D02*
X162296247Y-70612142D01*
X162296247Y-70612142D02*
X161915295Y-70612142D01*
X161915295Y-70612142D02*
X161820057Y-70659761D01*
X161820057Y-70659761D02*
X161772438Y-70707380D01*
X161772438Y-70707380D02*
X161724819Y-70802618D01*
X161724819Y-70802618D02*
X161724819Y-70993094D01*
X161724819Y-70993094D02*
X161772438Y-71088332D01*
X161772438Y-71088332D02*
X161820057Y-71135951D01*
X161820057Y-71135951D02*
X161915295Y-71183570D01*
X161915295Y-71183570D02*
X162153390Y-71183570D01*
X162153390Y-71183570D02*
X162248628Y-71135951D01*
X162248628Y-71135951D02*
X162296247Y-71088332D01*
X162296247Y-71088332D02*
X162343866Y-70993094D01*
X162343866Y-70993094D02*
X162343866Y-70802618D01*
X162343866Y-70802618D02*
X162296247Y-70707380D01*
X162296247Y-70707380D02*
X162248628Y-70659761D01*
X162248628Y-70659761D02*
X162153390Y-70612142D01*
X140294819Y-81468094D02*
X141104342Y-81468094D01*
X141104342Y-81468094D02*
X141199580Y-81420475D01*
X141199580Y-81420475D02*
X141247200Y-81372856D01*
X141247200Y-81372856D02*
X141294819Y-81277618D01*
X141294819Y-81277618D02*
X141294819Y-81087142D01*
X141294819Y-81087142D02*
X141247200Y-80991904D01*
X141247200Y-80991904D02*
X141199580Y-80944285D01*
X141199580Y-80944285D02*
X141104342Y-80896666D01*
X141104342Y-80896666D02*
X140294819Y-80896666D01*
X141294819Y-79896666D02*
X141294819Y-80468094D01*
X141294819Y-80182380D02*
X140294819Y-80182380D01*
X140294819Y-80182380D02*
X140437676Y-80277618D01*
X140437676Y-80277618D02*
X140532914Y-80372856D01*
X140532914Y-80372856D02*
X140580533Y-80468094D01*
X141294819Y-78944285D02*
X141294819Y-79515713D01*
X141294819Y-79229999D02*
X140294819Y-79229999D01*
X140294819Y-79229999D02*
X140437676Y-79325237D01*
X140437676Y-79325237D02*
X140532914Y-79420475D01*
X140532914Y-79420475D02*
X140580533Y-79515713D01*
D11*
%TO.C,J54*%
X173710000Y-76840000D02*
X173710000Y-75510000D01*
X175040000Y-76840000D02*
X173710000Y-76840000D01*
X176310000Y-76840000D02*
X181450000Y-76840000D01*
X176310000Y-76840000D02*
X176310000Y-74180000D01*
X181450000Y-76840000D02*
X181450000Y-74180000D01*
X176310000Y-74180000D02*
X181450000Y-74180000D01*
%TO.C,J52*%
X123770000Y-74100000D02*
X128910000Y-74100000D01*
X128910000Y-76760000D02*
X128910000Y-74100000D01*
X123770000Y-76760000D02*
X123770000Y-74100000D01*
X123770000Y-76760000D02*
X128910000Y-76760000D01*
X122500000Y-76760000D02*
X121170000Y-76760000D01*
X121170000Y-76760000D02*
X121170000Y-75430000D01*
%TO.C,U10*%
X177775000Y-82110000D02*
X177775000Y-78510000D01*
X177763478Y-82148478D02*
G75*
G02*
X173324999Y-80310000I-1838478J1838478D01*
G01*
X173325000Y-80310000D02*
G75*
G02*
X177763478Y-78471522I2600000J0D01*
G01*
%TO.C,J58*%
X163270000Y-76685000D02*
X163270000Y-75355000D01*
X164600000Y-76685000D02*
X163270000Y-76685000D01*
X165870000Y-76685000D02*
X171010000Y-76685000D01*
X165870000Y-76685000D02*
X165870000Y-74025000D01*
X171010000Y-76685000D02*
X171010000Y-74025000D01*
X165870000Y-74025000D02*
X171010000Y-74025000D01*
%TO.C,J51*%
X131640000Y-73255000D02*
X131640000Y-71925000D01*
X132970000Y-73255000D02*
X131640000Y-73255000D01*
X134240000Y-73255000D02*
X139380000Y-73255000D01*
X134240000Y-73255000D02*
X134240000Y-70595000D01*
X139380000Y-73255000D02*
X139380000Y-70595000D01*
X134240000Y-70595000D02*
X139380000Y-70595000D01*
%TO.C,U7*%
X156650000Y-82070000D02*
X156650000Y-78470000D01*
X156638478Y-82108478D02*
G75*
G02*
X152199999Y-80270000I-1838478J1838478D01*
G01*
X152200000Y-80270000D02*
G75*
G02*
X156638478Y-78431522I2600000J0D01*
G01*
%TO.C,U12*%
X167350000Y-81955000D02*
X167350000Y-78355000D01*
X167338478Y-81993478D02*
G75*
G02*
X162899999Y-80155000I-1838478J1838478D01*
G01*
X162900000Y-80155000D02*
G75*
G02*
X167338478Y-78316522I2600000J0D01*
G01*
%TO.C,J56*%
X142185000Y-73160000D02*
X142185000Y-71830000D01*
X143515000Y-73160000D02*
X142185000Y-73160000D01*
X144785000Y-73160000D02*
X149925000Y-73160000D01*
X144785000Y-73160000D02*
X144785000Y-70500000D01*
X149925000Y-73160000D02*
X149925000Y-70500000D01*
X144785000Y-70500000D02*
X149925000Y-70500000D01*
%TO.C,J53*%
X123770000Y-70500000D02*
X128910000Y-70500000D01*
X128910000Y-73160000D02*
X128910000Y-70500000D01*
X123770000Y-73160000D02*
X123770000Y-70500000D01*
X123770000Y-73160000D02*
X128910000Y-73160000D01*
X122500000Y-73160000D02*
X121170000Y-73160000D01*
X121170000Y-73160000D02*
X121170000Y-71830000D01*
%TO.C,J50*%
X131640000Y-76855000D02*
X131640000Y-75525000D01*
X132970000Y-76855000D02*
X131640000Y-76855000D01*
X134240000Y-76855000D02*
X139380000Y-76855000D01*
X134240000Y-76855000D02*
X134240000Y-74195000D01*
X139380000Y-76855000D02*
X139380000Y-74195000D01*
X134240000Y-74195000D02*
X139380000Y-74195000D01*
%TO.C,U8*%
X135760000Y-82125000D02*
X135760000Y-78525000D01*
X135748478Y-82163478D02*
G75*
G02*
X131309999Y-80325000I-1838478J1838478D01*
G01*
X131310000Y-80325000D02*
G75*
G02*
X135748478Y-78486522I2600000J0D01*
G01*
%TO.C,J55*%
X173695000Y-73240000D02*
X173695000Y-71910000D01*
X175025000Y-73240000D02*
X173695000Y-73240000D01*
X176295000Y-73240000D02*
X181435000Y-73240000D01*
X176295000Y-73240000D02*
X176295000Y-70580000D01*
X181435000Y-73240000D02*
X181435000Y-70580000D01*
X176295000Y-70580000D02*
X181435000Y-70580000D01*
%TO.C,J37*%
X152570000Y-76800000D02*
X152570000Y-75470000D01*
X153900000Y-76800000D02*
X152570000Y-76800000D01*
X155170000Y-76800000D02*
X160310000Y-76800000D01*
X155170000Y-76800000D02*
X155170000Y-74140000D01*
X160310000Y-76800000D02*
X160310000Y-74140000D01*
X155170000Y-74140000D02*
X160310000Y-74140000D01*
%TO.C,U9*%
X120800000Y-80230000D02*
G75*
G02*
X125238478Y-78391522I2600000J0D01*
G01*
X125238478Y-82068478D02*
G75*
G02*
X120799999Y-80230000I-1838478J1838478D01*
G01*
X125250000Y-82030000D02*
X125250000Y-78430000D01*
%TO.C,J38*%
X152570000Y-73200000D02*
X152570000Y-71870000D01*
X153900000Y-73200000D02*
X152570000Y-73200000D01*
X155170000Y-73200000D02*
X160310000Y-73200000D01*
X155170000Y-73200000D02*
X155170000Y-70540000D01*
X160310000Y-73200000D02*
X160310000Y-70540000D01*
X155170000Y-70540000D02*
X160310000Y-70540000D01*
%TO.C,J57*%
X142185000Y-76760000D02*
X142185000Y-75430000D01*
X143515000Y-76760000D02*
X142185000Y-76760000D01*
X144785000Y-76760000D02*
X149925000Y-76760000D01*
X144785000Y-76760000D02*
X144785000Y-74100000D01*
X149925000Y-76760000D02*
X149925000Y-74100000D01*
X144785000Y-74100000D02*
X149925000Y-74100000D01*
%TO.C,J59*%
X163270000Y-73085000D02*
X163270000Y-71755000D01*
X164600000Y-73085000D02*
X163270000Y-73085000D01*
X165870000Y-73085000D02*
X171010000Y-73085000D01*
X165870000Y-73085000D02*
X165870000Y-70425000D01*
X171010000Y-73085000D02*
X171010000Y-70425000D01*
X165870000Y-70425000D02*
X171010000Y-70425000D01*
%TO.C,U11*%
X146250000Y-82030000D02*
X146250000Y-78430000D01*
X146238478Y-82068478D02*
G75*
G02*
X141799999Y-80230000I-1838478J1838478D01*
G01*
X141800000Y-80230000D02*
G75*
G02*
X146238478Y-78391522I2600000J0D01*
G01*
%TD*%
M02*
