%TF.GenerationSoftware,KiCad,Pcbnew,8.0.7*%
%TF.CreationDate,2025-02-07T22:08:49+01:00*%
%TF.ProjectId,Teensy_board_02_temperature,5465656e-7379-45f6-926f-6172645f3032,rev?*%
%TF.SameCoordinates,Original*%
%TF.FileFunction,Legend,Bot*%
%TF.FilePolarity,Positive*%
%FSLAX46Y46*%
G04 Gerber Fmt 4.6, Leading zero omitted, Abs format (unit mm)*
G04 Created by KiCad (PCBNEW 8.0.7) date 2025-02-07 22:08:49*
%MOMM*%
%LPD*%
G01*
G04 APERTURE LIST*
%ADD10C,0.150000*%
%ADD11C,0.120000*%
G04 APERTURE END LIST*
D10*
X166419580Y-79512142D02*
X166467200Y-79464523D01*
X166467200Y-79464523D02*
X166514819Y-79321666D01*
X166514819Y-79321666D02*
X166514819Y-79226428D01*
X166514819Y-79226428D02*
X166467200Y-79083571D01*
X166467200Y-79083571D02*
X166371961Y-78988333D01*
X166371961Y-78988333D02*
X166276723Y-78940714D01*
X166276723Y-78940714D02*
X166086247Y-78893095D01*
X166086247Y-78893095D02*
X165943390Y-78893095D01*
X165943390Y-78893095D02*
X165752914Y-78940714D01*
X165752914Y-78940714D02*
X165657676Y-78988333D01*
X165657676Y-78988333D02*
X165562438Y-79083571D01*
X165562438Y-79083571D02*
X165514819Y-79226428D01*
X165514819Y-79226428D02*
X165514819Y-79321666D01*
X165514819Y-79321666D02*
X165562438Y-79464523D01*
X165562438Y-79464523D02*
X165610057Y-79512142D01*
X165514819Y-79845476D02*
X165514819Y-80464523D01*
X165514819Y-80464523D02*
X165895771Y-80131190D01*
X165895771Y-80131190D02*
X165895771Y-80274047D01*
X165895771Y-80274047D02*
X165943390Y-80369285D01*
X165943390Y-80369285D02*
X165991009Y-80416904D01*
X165991009Y-80416904D02*
X166086247Y-80464523D01*
X166086247Y-80464523D02*
X166324342Y-80464523D01*
X166324342Y-80464523D02*
X166419580Y-80416904D01*
X166419580Y-80416904D02*
X166467200Y-80369285D01*
X166467200Y-80369285D02*
X166514819Y-80274047D01*
X166514819Y-80274047D02*
X166514819Y-79988333D01*
X166514819Y-79988333D02*
X166467200Y-79893095D01*
X166467200Y-79893095D02*
X166419580Y-79845476D01*
X165514819Y-81321666D02*
X165514819Y-81131190D01*
X165514819Y-81131190D02*
X165562438Y-81035952D01*
X165562438Y-81035952D02*
X165610057Y-80988333D01*
X165610057Y-80988333D02*
X165752914Y-80893095D01*
X165752914Y-80893095D02*
X165943390Y-80845476D01*
X165943390Y-80845476D02*
X166324342Y-80845476D01*
X166324342Y-80845476D02*
X166419580Y-80893095D01*
X166419580Y-80893095D02*
X166467200Y-80940714D01*
X166467200Y-80940714D02*
X166514819Y-81035952D01*
X166514819Y-81035952D02*
X166514819Y-81226428D01*
X166514819Y-81226428D02*
X166467200Y-81321666D01*
X166467200Y-81321666D02*
X166419580Y-81369285D01*
X166419580Y-81369285D02*
X166324342Y-81416904D01*
X166324342Y-81416904D02*
X166086247Y-81416904D01*
X166086247Y-81416904D02*
X165991009Y-81369285D01*
X165991009Y-81369285D02*
X165943390Y-81321666D01*
X165943390Y-81321666D02*
X165895771Y-81226428D01*
X165895771Y-81226428D02*
X165895771Y-81035952D01*
X165895771Y-81035952D02*
X165943390Y-80940714D01*
X165943390Y-80940714D02*
X165991009Y-80893095D01*
X165991009Y-80893095D02*
X166086247Y-80845476D01*
X134789580Y-79682142D02*
X134837200Y-79634523D01*
X134837200Y-79634523D02*
X134884819Y-79491666D01*
X134884819Y-79491666D02*
X134884819Y-79396428D01*
X134884819Y-79396428D02*
X134837200Y-79253571D01*
X134837200Y-79253571D02*
X134741961Y-79158333D01*
X134741961Y-79158333D02*
X134646723Y-79110714D01*
X134646723Y-79110714D02*
X134456247Y-79063095D01*
X134456247Y-79063095D02*
X134313390Y-79063095D01*
X134313390Y-79063095D02*
X134122914Y-79110714D01*
X134122914Y-79110714D02*
X134027676Y-79158333D01*
X134027676Y-79158333D02*
X133932438Y-79253571D01*
X133932438Y-79253571D02*
X133884819Y-79396428D01*
X133884819Y-79396428D02*
X133884819Y-79491666D01*
X133884819Y-79491666D02*
X133932438Y-79634523D01*
X133932438Y-79634523D02*
X133980057Y-79682142D01*
X133980057Y-80063095D02*
X133932438Y-80110714D01*
X133932438Y-80110714D02*
X133884819Y-80205952D01*
X133884819Y-80205952D02*
X133884819Y-80444047D01*
X133884819Y-80444047D02*
X133932438Y-80539285D01*
X133932438Y-80539285D02*
X133980057Y-80586904D01*
X133980057Y-80586904D02*
X134075295Y-80634523D01*
X134075295Y-80634523D02*
X134170533Y-80634523D01*
X134170533Y-80634523D02*
X134313390Y-80586904D01*
X134313390Y-80586904D02*
X134884819Y-80015476D01*
X134884819Y-80015476D02*
X134884819Y-80634523D01*
X134884819Y-81586904D02*
X134884819Y-81015476D01*
X134884819Y-81301190D02*
X133884819Y-81301190D01*
X133884819Y-81301190D02*
X134027676Y-81205952D01*
X134027676Y-81205952D02*
X134122914Y-81110714D01*
X134122914Y-81110714D02*
X134170533Y-81015476D01*
X147319580Y-79624642D02*
X147367200Y-79577023D01*
X147367200Y-79577023D02*
X147414819Y-79434166D01*
X147414819Y-79434166D02*
X147414819Y-79338928D01*
X147414819Y-79338928D02*
X147367200Y-79196071D01*
X147367200Y-79196071D02*
X147271961Y-79100833D01*
X147271961Y-79100833D02*
X147176723Y-79053214D01*
X147176723Y-79053214D02*
X146986247Y-79005595D01*
X146986247Y-79005595D02*
X146843390Y-79005595D01*
X146843390Y-79005595D02*
X146652914Y-79053214D01*
X146652914Y-79053214D02*
X146557676Y-79100833D01*
X146557676Y-79100833D02*
X146462438Y-79196071D01*
X146462438Y-79196071D02*
X146414819Y-79338928D01*
X146414819Y-79338928D02*
X146414819Y-79434166D01*
X146414819Y-79434166D02*
X146462438Y-79577023D01*
X146462438Y-79577023D02*
X146510057Y-79624642D01*
X146414819Y-79957976D02*
X146414819Y-80577023D01*
X146414819Y-80577023D02*
X146795771Y-80243690D01*
X146795771Y-80243690D02*
X146795771Y-80386547D01*
X146795771Y-80386547D02*
X146843390Y-80481785D01*
X146843390Y-80481785D02*
X146891009Y-80529404D01*
X146891009Y-80529404D02*
X146986247Y-80577023D01*
X146986247Y-80577023D02*
X147224342Y-80577023D01*
X147224342Y-80577023D02*
X147319580Y-80529404D01*
X147319580Y-80529404D02*
X147367200Y-80481785D01*
X147367200Y-80481785D02*
X147414819Y-80386547D01*
X147414819Y-80386547D02*
X147414819Y-80100833D01*
X147414819Y-80100833D02*
X147367200Y-80005595D01*
X147367200Y-80005595D02*
X147319580Y-79957976D01*
X146843390Y-81148452D02*
X146795771Y-81053214D01*
X146795771Y-81053214D02*
X146748152Y-81005595D01*
X146748152Y-81005595D02*
X146652914Y-80957976D01*
X146652914Y-80957976D02*
X146605295Y-80957976D01*
X146605295Y-80957976D02*
X146510057Y-81005595D01*
X146510057Y-81005595D02*
X146462438Y-81053214D01*
X146462438Y-81053214D02*
X146414819Y-81148452D01*
X146414819Y-81148452D02*
X146414819Y-81338928D01*
X146414819Y-81338928D02*
X146462438Y-81434166D01*
X146462438Y-81434166D02*
X146510057Y-81481785D01*
X146510057Y-81481785D02*
X146605295Y-81529404D01*
X146605295Y-81529404D02*
X146652914Y-81529404D01*
X146652914Y-81529404D02*
X146748152Y-81481785D01*
X146748152Y-81481785D02*
X146795771Y-81434166D01*
X146795771Y-81434166D02*
X146843390Y-81338928D01*
X146843390Y-81338928D02*
X146843390Y-81148452D01*
X146843390Y-81148452D02*
X146891009Y-81053214D01*
X146891009Y-81053214D02*
X146938628Y-81005595D01*
X146938628Y-81005595D02*
X147033866Y-80957976D01*
X147033866Y-80957976D02*
X147224342Y-80957976D01*
X147224342Y-80957976D02*
X147319580Y-81005595D01*
X147319580Y-81005595D02*
X147367200Y-81053214D01*
X147367200Y-81053214D02*
X147414819Y-81148452D01*
X147414819Y-81148452D02*
X147414819Y-81338928D01*
X147414819Y-81338928D02*
X147367200Y-81434166D01*
X147367200Y-81434166D02*
X147319580Y-81481785D01*
X147319580Y-81481785D02*
X147224342Y-81529404D01*
X147224342Y-81529404D02*
X147033866Y-81529404D01*
X147033866Y-81529404D02*
X146938628Y-81481785D01*
X146938628Y-81481785D02*
X146891009Y-81434166D01*
X146891009Y-81434166D02*
X146843390Y-81338928D01*
X126319580Y-79387142D02*
X126367200Y-79339523D01*
X126367200Y-79339523D02*
X126414819Y-79196666D01*
X126414819Y-79196666D02*
X126414819Y-79101428D01*
X126414819Y-79101428D02*
X126367200Y-78958571D01*
X126367200Y-78958571D02*
X126271961Y-78863333D01*
X126271961Y-78863333D02*
X126176723Y-78815714D01*
X126176723Y-78815714D02*
X125986247Y-78768095D01*
X125986247Y-78768095D02*
X125843390Y-78768095D01*
X125843390Y-78768095D02*
X125652914Y-78815714D01*
X125652914Y-78815714D02*
X125557676Y-78863333D01*
X125557676Y-78863333D02*
X125462438Y-78958571D01*
X125462438Y-78958571D02*
X125414819Y-79101428D01*
X125414819Y-79101428D02*
X125414819Y-79196666D01*
X125414819Y-79196666D02*
X125462438Y-79339523D01*
X125462438Y-79339523D02*
X125510057Y-79387142D01*
X125414819Y-79720476D02*
X125414819Y-80339523D01*
X125414819Y-80339523D02*
X125795771Y-80006190D01*
X125795771Y-80006190D02*
X125795771Y-80149047D01*
X125795771Y-80149047D02*
X125843390Y-80244285D01*
X125843390Y-80244285D02*
X125891009Y-80291904D01*
X125891009Y-80291904D02*
X125986247Y-80339523D01*
X125986247Y-80339523D02*
X126224342Y-80339523D01*
X126224342Y-80339523D02*
X126319580Y-80291904D01*
X126319580Y-80291904D02*
X126367200Y-80244285D01*
X126367200Y-80244285D02*
X126414819Y-80149047D01*
X126414819Y-80149047D02*
X126414819Y-79863333D01*
X126414819Y-79863333D02*
X126367200Y-79768095D01*
X126367200Y-79768095D02*
X126319580Y-79720476D01*
X125414819Y-80672857D02*
X125414819Y-81291904D01*
X125414819Y-81291904D02*
X125795771Y-80958571D01*
X125795771Y-80958571D02*
X125795771Y-81101428D01*
X125795771Y-81101428D02*
X125843390Y-81196666D01*
X125843390Y-81196666D02*
X125891009Y-81244285D01*
X125891009Y-81244285D02*
X125986247Y-81291904D01*
X125986247Y-81291904D02*
X126224342Y-81291904D01*
X126224342Y-81291904D02*
X126319580Y-81244285D01*
X126319580Y-81244285D02*
X126367200Y-81196666D01*
X126367200Y-81196666D02*
X126414819Y-81101428D01*
X126414819Y-81101428D02*
X126414819Y-80815714D01*
X126414819Y-80815714D02*
X126367200Y-80720476D01*
X126367200Y-80720476D02*
X126319580Y-80672857D01*
X124319580Y-79387142D02*
X124367200Y-79339523D01*
X124367200Y-79339523D02*
X124414819Y-79196666D01*
X124414819Y-79196666D02*
X124414819Y-79101428D01*
X124414819Y-79101428D02*
X124367200Y-78958571D01*
X124367200Y-78958571D02*
X124271961Y-78863333D01*
X124271961Y-78863333D02*
X124176723Y-78815714D01*
X124176723Y-78815714D02*
X123986247Y-78768095D01*
X123986247Y-78768095D02*
X123843390Y-78768095D01*
X123843390Y-78768095D02*
X123652914Y-78815714D01*
X123652914Y-78815714D02*
X123557676Y-78863333D01*
X123557676Y-78863333D02*
X123462438Y-78958571D01*
X123462438Y-78958571D02*
X123414819Y-79101428D01*
X123414819Y-79101428D02*
X123414819Y-79196666D01*
X123414819Y-79196666D02*
X123462438Y-79339523D01*
X123462438Y-79339523D02*
X123510057Y-79387142D01*
X123510057Y-79768095D02*
X123462438Y-79815714D01*
X123462438Y-79815714D02*
X123414819Y-79910952D01*
X123414819Y-79910952D02*
X123414819Y-80149047D01*
X123414819Y-80149047D02*
X123462438Y-80244285D01*
X123462438Y-80244285D02*
X123510057Y-80291904D01*
X123510057Y-80291904D02*
X123605295Y-80339523D01*
X123605295Y-80339523D02*
X123700533Y-80339523D01*
X123700533Y-80339523D02*
X123843390Y-80291904D01*
X123843390Y-80291904D02*
X124414819Y-79720476D01*
X124414819Y-79720476D02*
X124414819Y-80339523D01*
X123748152Y-81196666D02*
X124414819Y-81196666D01*
X123367200Y-80958571D02*
X124081485Y-80720476D01*
X124081485Y-80720476D02*
X124081485Y-81339523D01*
X178824580Y-79724642D02*
X178872200Y-79677023D01*
X178872200Y-79677023D02*
X178919819Y-79534166D01*
X178919819Y-79534166D02*
X178919819Y-79438928D01*
X178919819Y-79438928D02*
X178872200Y-79296071D01*
X178872200Y-79296071D02*
X178776961Y-79200833D01*
X178776961Y-79200833D02*
X178681723Y-79153214D01*
X178681723Y-79153214D02*
X178491247Y-79105595D01*
X178491247Y-79105595D02*
X178348390Y-79105595D01*
X178348390Y-79105595D02*
X178157914Y-79153214D01*
X178157914Y-79153214D02*
X178062676Y-79200833D01*
X178062676Y-79200833D02*
X177967438Y-79296071D01*
X177967438Y-79296071D02*
X177919819Y-79438928D01*
X177919819Y-79438928D02*
X177919819Y-79534166D01*
X177919819Y-79534166D02*
X177967438Y-79677023D01*
X177967438Y-79677023D02*
X178015057Y-79724642D01*
X177919819Y-80057976D02*
X177919819Y-80677023D01*
X177919819Y-80677023D02*
X178300771Y-80343690D01*
X178300771Y-80343690D02*
X178300771Y-80486547D01*
X178300771Y-80486547D02*
X178348390Y-80581785D01*
X178348390Y-80581785D02*
X178396009Y-80629404D01*
X178396009Y-80629404D02*
X178491247Y-80677023D01*
X178491247Y-80677023D02*
X178729342Y-80677023D01*
X178729342Y-80677023D02*
X178824580Y-80629404D01*
X178824580Y-80629404D02*
X178872200Y-80581785D01*
X178872200Y-80581785D02*
X178919819Y-80486547D01*
X178919819Y-80486547D02*
X178919819Y-80200833D01*
X178919819Y-80200833D02*
X178872200Y-80105595D01*
X178872200Y-80105595D02*
X178824580Y-80057976D01*
X178253152Y-81534166D02*
X178919819Y-81534166D01*
X177872200Y-81296071D02*
X178586485Y-81057976D01*
X178586485Y-81057976D02*
X178586485Y-81677023D01*
X157799580Y-79789642D02*
X157847200Y-79742023D01*
X157847200Y-79742023D02*
X157894819Y-79599166D01*
X157894819Y-79599166D02*
X157894819Y-79503928D01*
X157894819Y-79503928D02*
X157847200Y-79361071D01*
X157847200Y-79361071D02*
X157751961Y-79265833D01*
X157751961Y-79265833D02*
X157656723Y-79218214D01*
X157656723Y-79218214D02*
X157466247Y-79170595D01*
X157466247Y-79170595D02*
X157323390Y-79170595D01*
X157323390Y-79170595D02*
X157132914Y-79218214D01*
X157132914Y-79218214D02*
X157037676Y-79265833D01*
X157037676Y-79265833D02*
X156942438Y-79361071D01*
X156942438Y-79361071D02*
X156894819Y-79503928D01*
X156894819Y-79503928D02*
X156894819Y-79599166D01*
X156894819Y-79599166D02*
X156942438Y-79742023D01*
X156942438Y-79742023D02*
X156990057Y-79789642D01*
X156894819Y-80122976D02*
X156894819Y-80742023D01*
X156894819Y-80742023D02*
X157275771Y-80408690D01*
X157275771Y-80408690D02*
X157275771Y-80551547D01*
X157275771Y-80551547D02*
X157323390Y-80646785D01*
X157323390Y-80646785D02*
X157371009Y-80694404D01*
X157371009Y-80694404D02*
X157466247Y-80742023D01*
X157466247Y-80742023D02*
X157704342Y-80742023D01*
X157704342Y-80742023D02*
X157799580Y-80694404D01*
X157799580Y-80694404D02*
X157847200Y-80646785D01*
X157847200Y-80646785D02*
X157894819Y-80551547D01*
X157894819Y-80551547D02*
X157894819Y-80265833D01*
X157894819Y-80265833D02*
X157847200Y-80170595D01*
X157847200Y-80170595D02*
X157799580Y-80122976D01*
X157894819Y-81694404D02*
X157894819Y-81122976D01*
X157894819Y-81408690D02*
X156894819Y-81408690D01*
X156894819Y-81408690D02*
X157037676Y-81313452D01*
X157037676Y-81313452D02*
X157132914Y-81218214D01*
X157132914Y-81218214D02*
X157180533Y-81122976D01*
X155719580Y-79789642D02*
X155767200Y-79742023D01*
X155767200Y-79742023D02*
X155814819Y-79599166D01*
X155814819Y-79599166D02*
X155814819Y-79503928D01*
X155814819Y-79503928D02*
X155767200Y-79361071D01*
X155767200Y-79361071D02*
X155671961Y-79265833D01*
X155671961Y-79265833D02*
X155576723Y-79218214D01*
X155576723Y-79218214D02*
X155386247Y-79170595D01*
X155386247Y-79170595D02*
X155243390Y-79170595D01*
X155243390Y-79170595D02*
X155052914Y-79218214D01*
X155052914Y-79218214D02*
X154957676Y-79265833D01*
X154957676Y-79265833D02*
X154862438Y-79361071D01*
X154862438Y-79361071D02*
X154814819Y-79503928D01*
X154814819Y-79503928D02*
X154814819Y-79599166D01*
X154814819Y-79599166D02*
X154862438Y-79742023D01*
X154862438Y-79742023D02*
X154910057Y-79789642D01*
X154910057Y-80170595D02*
X154862438Y-80218214D01*
X154862438Y-80218214D02*
X154814819Y-80313452D01*
X154814819Y-80313452D02*
X154814819Y-80551547D01*
X154814819Y-80551547D02*
X154862438Y-80646785D01*
X154862438Y-80646785D02*
X154910057Y-80694404D01*
X154910057Y-80694404D02*
X155005295Y-80742023D01*
X155005295Y-80742023D02*
X155100533Y-80742023D01*
X155100533Y-80742023D02*
X155243390Y-80694404D01*
X155243390Y-80694404D02*
X155814819Y-80122976D01*
X155814819Y-80122976D02*
X155814819Y-80742023D01*
X154814819Y-81361071D02*
X154814819Y-81456309D01*
X154814819Y-81456309D02*
X154862438Y-81551547D01*
X154862438Y-81551547D02*
X154910057Y-81599166D01*
X154910057Y-81599166D02*
X155005295Y-81646785D01*
X155005295Y-81646785D02*
X155195771Y-81694404D01*
X155195771Y-81694404D02*
X155433866Y-81694404D01*
X155433866Y-81694404D02*
X155624342Y-81646785D01*
X155624342Y-81646785D02*
X155719580Y-81599166D01*
X155719580Y-81599166D02*
X155767200Y-81551547D01*
X155767200Y-81551547D02*
X155814819Y-81456309D01*
X155814819Y-81456309D02*
X155814819Y-81361071D01*
X155814819Y-81361071D02*
X155767200Y-81265833D01*
X155767200Y-81265833D02*
X155719580Y-81218214D01*
X155719580Y-81218214D02*
X155624342Y-81170595D01*
X155624342Y-81170595D02*
X155433866Y-81122976D01*
X155433866Y-81122976D02*
X155195771Y-81122976D01*
X155195771Y-81122976D02*
X155005295Y-81170595D01*
X155005295Y-81170595D02*
X154910057Y-81218214D01*
X154910057Y-81218214D02*
X154862438Y-81265833D01*
X154862438Y-81265833D02*
X154814819Y-81361071D01*
X176844580Y-79704642D02*
X176892200Y-79657023D01*
X176892200Y-79657023D02*
X176939819Y-79514166D01*
X176939819Y-79514166D02*
X176939819Y-79418928D01*
X176939819Y-79418928D02*
X176892200Y-79276071D01*
X176892200Y-79276071D02*
X176796961Y-79180833D01*
X176796961Y-79180833D02*
X176701723Y-79133214D01*
X176701723Y-79133214D02*
X176511247Y-79085595D01*
X176511247Y-79085595D02*
X176368390Y-79085595D01*
X176368390Y-79085595D02*
X176177914Y-79133214D01*
X176177914Y-79133214D02*
X176082676Y-79180833D01*
X176082676Y-79180833D02*
X175987438Y-79276071D01*
X175987438Y-79276071D02*
X175939819Y-79418928D01*
X175939819Y-79418928D02*
X175939819Y-79514166D01*
X175939819Y-79514166D02*
X175987438Y-79657023D01*
X175987438Y-79657023D02*
X176035057Y-79704642D01*
X175939819Y-80037976D02*
X175939819Y-80657023D01*
X175939819Y-80657023D02*
X176320771Y-80323690D01*
X176320771Y-80323690D02*
X176320771Y-80466547D01*
X176320771Y-80466547D02*
X176368390Y-80561785D01*
X176368390Y-80561785D02*
X176416009Y-80609404D01*
X176416009Y-80609404D02*
X176511247Y-80657023D01*
X176511247Y-80657023D02*
X176749342Y-80657023D01*
X176749342Y-80657023D02*
X176844580Y-80609404D01*
X176844580Y-80609404D02*
X176892200Y-80561785D01*
X176892200Y-80561785D02*
X176939819Y-80466547D01*
X176939819Y-80466547D02*
X176939819Y-80180833D01*
X176939819Y-80180833D02*
X176892200Y-80085595D01*
X176892200Y-80085595D02*
X176844580Y-80037976D01*
X175939819Y-80990357D02*
X175939819Y-81657023D01*
X175939819Y-81657023D02*
X176939819Y-81228452D01*
X168419580Y-79512142D02*
X168467200Y-79464523D01*
X168467200Y-79464523D02*
X168514819Y-79321666D01*
X168514819Y-79321666D02*
X168514819Y-79226428D01*
X168514819Y-79226428D02*
X168467200Y-79083571D01*
X168467200Y-79083571D02*
X168371961Y-78988333D01*
X168371961Y-78988333D02*
X168276723Y-78940714D01*
X168276723Y-78940714D02*
X168086247Y-78893095D01*
X168086247Y-78893095D02*
X167943390Y-78893095D01*
X167943390Y-78893095D02*
X167752914Y-78940714D01*
X167752914Y-78940714D02*
X167657676Y-78988333D01*
X167657676Y-78988333D02*
X167562438Y-79083571D01*
X167562438Y-79083571D02*
X167514819Y-79226428D01*
X167514819Y-79226428D02*
X167514819Y-79321666D01*
X167514819Y-79321666D02*
X167562438Y-79464523D01*
X167562438Y-79464523D02*
X167610057Y-79512142D01*
X167514819Y-79845476D02*
X167514819Y-80464523D01*
X167514819Y-80464523D02*
X167895771Y-80131190D01*
X167895771Y-80131190D02*
X167895771Y-80274047D01*
X167895771Y-80274047D02*
X167943390Y-80369285D01*
X167943390Y-80369285D02*
X167991009Y-80416904D01*
X167991009Y-80416904D02*
X168086247Y-80464523D01*
X168086247Y-80464523D02*
X168324342Y-80464523D01*
X168324342Y-80464523D02*
X168419580Y-80416904D01*
X168419580Y-80416904D02*
X168467200Y-80369285D01*
X168467200Y-80369285D02*
X168514819Y-80274047D01*
X168514819Y-80274047D02*
X168514819Y-79988333D01*
X168514819Y-79988333D02*
X168467200Y-79893095D01*
X168467200Y-79893095D02*
X168419580Y-79845476D01*
X168514819Y-80940714D02*
X168514819Y-81131190D01*
X168514819Y-81131190D02*
X168467200Y-81226428D01*
X168467200Y-81226428D02*
X168419580Y-81274047D01*
X168419580Y-81274047D02*
X168276723Y-81369285D01*
X168276723Y-81369285D02*
X168086247Y-81416904D01*
X168086247Y-81416904D02*
X167705295Y-81416904D01*
X167705295Y-81416904D02*
X167610057Y-81369285D01*
X167610057Y-81369285D02*
X167562438Y-81321666D01*
X167562438Y-81321666D02*
X167514819Y-81226428D01*
X167514819Y-81226428D02*
X167514819Y-81035952D01*
X167514819Y-81035952D02*
X167562438Y-80940714D01*
X167562438Y-80940714D02*
X167610057Y-80893095D01*
X167610057Y-80893095D02*
X167705295Y-80845476D01*
X167705295Y-80845476D02*
X167943390Y-80845476D01*
X167943390Y-80845476D02*
X168038628Y-80893095D01*
X168038628Y-80893095D02*
X168086247Y-80940714D01*
X168086247Y-80940714D02*
X168133866Y-81035952D01*
X168133866Y-81035952D02*
X168133866Y-81226428D01*
X168133866Y-81226428D02*
X168086247Y-81321666D01*
X168086247Y-81321666D02*
X168038628Y-81369285D01*
X168038628Y-81369285D02*
X167943390Y-81416904D01*
X145319580Y-79624642D02*
X145367200Y-79577023D01*
X145367200Y-79577023D02*
X145414819Y-79434166D01*
X145414819Y-79434166D02*
X145414819Y-79338928D01*
X145414819Y-79338928D02*
X145367200Y-79196071D01*
X145367200Y-79196071D02*
X145271961Y-79100833D01*
X145271961Y-79100833D02*
X145176723Y-79053214D01*
X145176723Y-79053214D02*
X144986247Y-79005595D01*
X144986247Y-79005595D02*
X144843390Y-79005595D01*
X144843390Y-79005595D02*
X144652914Y-79053214D01*
X144652914Y-79053214D02*
X144557676Y-79100833D01*
X144557676Y-79100833D02*
X144462438Y-79196071D01*
X144462438Y-79196071D02*
X144414819Y-79338928D01*
X144414819Y-79338928D02*
X144414819Y-79434166D01*
X144414819Y-79434166D02*
X144462438Y-79577023D01*
X144462438Y-79577023D02*
X144510057Y-79624642D01*
X144414819Y-79957976D02*
X144414819Y-80577023D01*
X144414819Y-80577023D02*
X144795771Y-80243690D01*
X144795771Y-80243690D02*
X144795771Y-80386547D01*
X144795771Y-80386547D02*
X144843390Y-80481785D01*
X144843390Y-80481785D02*
X144891009Y-80529404D01*
X144891009Y-80529404D02*
X144986247Y-80577023D01*
X144986247Y-80577023D02*
X145224342Y-80577023D01*
X145224342Y-80577023D02*
X145319580Y-80529404D01*
X145319580Y-80529404D02*
X145367200Y-80481785D01*
X145367200Y-80481785D02*
X145414819Y-80386547D01*
X145414819Y-80386547D02*
X145414819Y-80100833D01*
X145414819Y-80100833D02*
X145367200Y-80005595D01*
X145367200Y-80005595D02*
X145319580Y-79957976D01*
X144414819Y-81481785D02*
X144414819Y-81005595D01*
X144414819Y-81005595D02*
X144891009Y-80957976D01*
X144891009Y-80957976D02*
X144843390Y-81005595D01*
X144843390Y-81005595D02*
X144795771Y-81100833D01*
X144795771Y-81100833D02*
X144795771Y-81338928D01*
X144795771Y-81338928D02*
X144843390Y-81434166D01*
X144843390Y-81434166D02*
X144891009Y-81481785D01*
X144891009Y-81481785D02*
X144986247Y-81529404D01*
X144986247Y-81529404D02*
X145224342Y-81529404D01*
X145224342Y-81529404D02*
X145319580Y-81481785D01*
X145319580Y-81481785D02*
X145367200Y-81434166D01*
X145367200Y-81434166D02*
X145414819Y-81338928D01*
X145414819Y-81338928D02*
X145414819Y-81100833D01*
X145414819Y-81100833D02*
X145367200Y-81005595D01*
X145367200Y-81005595D02*
X145319580Y-80957976D01*
X136789580Y-79682142D02*
X136837200Y-79634523D01*
X136837200Y-79634523D02*
X136884819Y-79491666D01*
X136884819Y-79491666D02*
X136884819Y-79396428D01*
X136884819Y-79396428D02*
X136837200Y-79253571D01*
X136837200Y-79253571D02*
X136741961Y-79158333D01*
X136741961Y-79158333D02*
X136646723Y-79110714D01*
X136646723Y-79110714D02*
X136456247Y-79063095D01*
X136456247Y-79063095D02*
X136313390Y-79063095D01*
X136313390Y-79063095D02*
X136122914Y-79110714D01*
X136122914Y-79110714D02*
X136027676Y-79158333D01*
X136027676Y-79158333D02*
X135932438Y-79253571D01*
X135932438Y-79253571D02*
X135884819Y-79396428D01*
X135884819Y-79396428D02*
X135884819Y-79491666D01*
X135884819Y-79491666D02*
X135932438Y-79634523D01*
X135932438Y-79634523D02*
X135980057Y-79682142D01*
X135884819Y-80015476D02*
X135884819Y-80634523D01*
X135884819Y-80634523D02*
X136265771Y-80301190D01*
X136265771Y-80301190D02*
X136265771Y-80444047D01*
X136265771Y-80444047D02*
X136313390Y-80539285D01*
X136313390Y-80539285D02*
X136361009Y-80586904D01*
X136361009Y-80586904D02*
X136456247Y-80634523D01*
X136456247Y-80634523D02*
X136694342Y-80634523D01*
X136694342Y-80634523D02*
X136789580Y-80586904D01*
X136789580Y-80586904D02*
X136837200Y-80539285D01*
X136837200Y-80539285D02*
X136884819Y-80444047D01*
X136884819Y-80444047D02*
X136884819Y-80158333D01*
X136884819Y-80158333D02*
X136837200Y-80063095D01*
X136837200Y-80063095D02*
X136789580Y-80015476D01*
X135980057Y-81015476D02*
X135932438Y-81063095D01*
X135932438Y-81063095D02*
X135884819Y-81158333D01*
X135884819Y-81158333D02*
X135884819Y-81396428D01*
X135884819Y-81396428D02*
X135932438Y-81491666D01*
X135932438Y-81491666D02*
X135980057Y-81539285D01*
X135980057Y-81539285D02*
X136075295Y-81586904D01*
X136075295Y-81586904D02*
X136170533Y-81586904D01*
X136170533Y-81586904D02*
X136313390Y-81539285D01*
X136313390Y-81539285D02*
X136884819Y-80967857D01*
X136884819Y-80967857D02*
X136884819Y-81586904D01*
D11*
%TO.C,C36*%
X167005000Y-80416252D02*
X167005000Y-79893748D01*
X168475000Y-80416252D02*
X168475000Y-79893748D01*
%TO.C,C21*%
X135375000Y-80586252D02*
X135375000Y-80063748D01*
X136845000Y-80586252D02*
X136845000Y-80063748D01*
%TO.C,C38*%
X147905000Y-80528752D02*
X147905000Y-80006248D01*
X149375000Y-80528752D02*
X149375000Y-80006248D01*
%TO.C,C33*%
X128375000Y-80291252D02*
X128375000Y-79768748D01*
X126905000Y-80291252D02*
X126905000Y-79768748D01*
%TO.C,C24*%
X126375000Y-80291252D02*
X126375000Y-79768748D01*
X124905000Y-80291252D02*
X124905000Y-79768748D01*
%TO.C,C34*%
X179410000Y-80628752D02*
X179410000Y-80106248D01*
X180880000Y-80628752D02*
X180880000Y-80106248D01*
%TO.C,C31*%
X158305000Y-80693752D02*
X158305000Y-80171248D01*
X159775000Y-80693752D02*
X159775000Y-80171248D01*
%TO.C,C20*%
X156305000Y-80693752D02*
X156305000Y-80171248D01*
X157775000Y-80693752D02*
X157775000Y-80171248D01*
%TO.C,C37*%
X177430000Y-80608752D02*
X177430000Y-80086248D01*
X178900000Y-80608752D02*
X178900000Y-80086248D01*
%TO.C,C39*%
X169005000Y-80416252D02*
X169005000Y-79893748D01*
X170475000Y-80416252D02*
X170475000Y-79893748D01*
%TO.C,C35*%
X145905000Y-80528752D02*
X145905000Y-80006248D01*
X147375000Y-80528752D02*
X147375000Y-80006248D01*
%TO.C,C32*%
X137375000Y-80586252D02*
X137375000Y-80063748D01*
X138845000Y-80586252D02*
X138845000Y-80063748D01*
%TD*%
M02*
