%TF.GenerationSoftware,KiCad,Pcbnew,8.0.7*%
%TF.CreationDate,2025-02-07T22:13:35+01:00*%
%TF.ProjectId,Teensy_board_02_temperature,5465656e-7379-45f6-926f-6172645f3032,rev?*%
%TF.SameCoordinates,Original*%
%TF.FileFunction,Copper,L2,Bot*%
%TF.FilePolarity,Positive*%
%FSLAX46Y46*%
G04 Gerber Fmt 4.6, Leading zero omitted, Abs format (unit mm)*
G04 Created by KiCad (PCBNEW 8.0.7) date 2025-02-07 22:13:35*
%MOMM*%
%LPD*%
G01*
G04 APERTURE LIST*
G04 Aperture macros list*
%AMRoundRect*
0 Rectangle with rounded corners*
0 $1 Rounding radius*
0 $2 $3 $4 $5 $6 $7 $8 $9 X,Y pos of 4 corners*
0 Add a 4 corners polygon primitive as box body*
4,1,4,$2,$3,$4,$5,$6,$7,$8,$9,$2,$3,0*
0 Add four circle primitives for the rounded corners*
1,1,$1+$1,$2,$3*
1,1,$1+$1,$4,$5*
1,1,$1+$1,$6,$7*
1,1,$1+$1,$8,$9*
0 Add four rect primitives between the rounded corners*
20,1,$1+$1,$2,$3,$4,$5,0*
20,1,$1+$1,$4,$5,$6,$7,0*
20,1,$1+$1,$6,$7,$8,$9,0*
20,1,$1+$1,$8,$9,$2,$3,0*%
G04 Aperture macros list end*
%TA.AperFunction,ComponentPad*%
%ADD10R,1.700000X1.700000*%
%TD*%
%TA.AperFunction,ComponentPad*%
%ADD11O,1.700000X1.700000*%
%TD*%
%TA.AperFunction,ComponentPad*%
%ADD12R,1.500000X1.050000*%
%TD*%
%TA.AperFunction,ComponentPad*%
%ADD13O,1.500000X1.050000*%
%TD*%
%TA.AperFunction,SMDPad,CuDef*%
%ADD14RoundRect,0.250000X-0.475000X0.337500X-0.475000X-0.337500X0.475000X-0.337500X0.475000X0.337500X0*%
%TD*%
%TA.AperFunction,Conductor*%
%ADD15C,0.600000*%
%TD*%
G04 APERTURE END LIST*
D10*
%TO.P,J54,1,Pin_1*%
%TO.N,1_Wire_U*%
X175040000Y-75510000D03*
D11*
%TO.P,J54,2,Pin_2*%
%TO.N,+3.3V*%
X177580000Y-75510000D03*
%TO.P,J54,3,Pin_3*%
%TO.N,GND*%
X180120000Y-75510000D03*
%TD*%
D10*
%TO.P,J52,1,Pin_1*%
%TO.N,1_Wire_U*%
X122500000Y-75430000D03*
D11*
%TO.P,J52,2,Pin_2*%
%TO.N,+3.3V*%
X125040000Y-75430000D03*
%TO.P,J52,3,Pin_3*%
%TO.N,GND*%
X127580000Y-75430000D03*
%TD*%
D12*
%TO.P,U10,1,GND*%
%TO.N,GND*%
X175925000Y-81580000D03*
D13*
%TO.P,U10,2,DQ*%
%TO.N,1_Wire_U*%
X175925000Y-80310000D03*
%TO.P,U10,3,V_{DD}*%
%TO.N,+3.3V*%
X175925000Y-79040000D03*
%TD*%
D10*
%TO.P,J58,1,Pin_1*%
%TO.N,1_Wire_U*%
X164600000Y-75355000D03*
D11*
%TO.P,J58,2,Pin_2*%
%TO.N,+3.3V*%
X167140000Y-75355000D03*
%TO.P,J58,3,Pin_3*%
%TO.N,GND*%
X169680000Y-75355000D03*
%TD*%
D10*
%TO.P,J51,1,Pin_1*%
%TO.N,1_Wire_U*%
X132970000Y-71925000D03*
D11*
%TO.P,J51,2,Pin_2*%
%TO.N,+3.3V*%
X135510000Y-71925000D03*
%TO.P,J51,3,Pin_3*%
%TO.N,GND*%
X138050000Y-71925000D03*
%TD*%
D12*
%TO.P,U7,1,GND*%
%TO.N,GND*%
X154800000Y-81540000D03*
D13*
%TO.P,U7,2,DQ*%
%TO.N,1_Wire_U*%
X154800000Y-80270000D03*
%TO.P,U7,3,V_{DD}*%
%TO.N,+3.3V*%
X154800000Y-79000000D03*
%TD*%
D12*
%TO.P,U12,1,GND*%
%TO.N,GND*%
X165500000Y-81425000D03*
D13*
%TO.P,U12,2,DQ*%
%TO.N,1_Wire_U*%
X165500000Y-80155000D03*
%TO.P,U12,3,V_{DD}*%
%TO.N,+3.3V*%
X165500000Y-78885000D03*
%TD*%
D10*
%TO.P,J56,1,Pin_1*%
%TO.N,1_Wire_U*%
X143515000Y-71830000D03*
D11*
%TO.P,J56,2,Pin_2*%
%TO.N,+3.3V*%
X146055000Y-71830000D03*
%TO.P,J56,3,Pin_3*%
%TO.N,GND*%
X148595000Y-71830000D03*
%TD*%
D10*
%TO.P,J53,1,Pin_1*%
%TO.N,1_Wire_U*%
X122500000Y-71830000D03*
D11*
%TO.P,J53,2,Pin_2*%
%TO.N,+3.3V*%
X125040000Y-71830000D03*
%TO.P,J53,3,Pin_3*%
%TO.N,GND*%
X127580000Y-71830000D03*
%TD*%
D10*
%TO.P,J50,1,Pin_1*%
%TO.N,1_Wire_U*%
X132970000Y-75525000D03*
D11*
%TO.P,J50,2,Pin_2*%
%TO.N,+3.3V*%
X135510000Y-75525000D03*
%TO.P,J50,3,Pin_3*%
%TO.N,GND*%
X138050000Y-75525000D03*
%TD*%
D12*
%TO.P,U8,1,GND*%
%TO.N,GND*%
X133910000Y-81595000D03*
D13*
%TO.P,U8,2,DQ*%
%TO.N,1_Wire_U*%
X133910000Y-80325000D03*
%TO.P,U8,3,V_{DD}*%
%TO.N,+3.3V*%
X133910000Y-79055000D03*
%TD*%
D10*
%TO.P,J55,1,Pin_1*%
%TO.N,1_Wire_U*%
X175025000Y-71910000D03*
D11*
%TO.P,J55,2,Pin_2*%
%TO.N,+3.3V*%
X177565000Y-71910000D03*
%TO.P,J55,3,Pin_3*%
%TO.N,GND*%
X180105000Y-71910000D03*
%TD*%
D10*
%TO.P,J37,1,Pin_1*%
%TO.N,1_Wire_U*%
X153900000Y-75470000D03*
D11*
%TO.P,J37,2,Pin_2*%
%TO.N,+3.3V*%
X156440000Y-75470000D03*
%TO.P,J37,3,Pin_3*%
%TO.N,GND*%
X158980000Y-75470000D03*
%TD*%
D12*
%TO.P,U9,1,GND*%
%TO.N,GND*%
X123400000Y-81500000D03*
D13*
%TO.P,U9,2,DQ*%
%TO.N,1_Wire_U*%
X123400000Y-80230000D03*
%TO.P,U9,3,V_{DD}*%
%TO.N,+3.3V*%
X123400000Y-78960000D03*
%TD*%
D10*
%TO.P,J38,1,Pin_1*%
%TO.N,1_Wire_U*%
X153900000Y-71870000D03*
D11*
%TO.P,J38,2,Pin_2*%
%TO.N,+3.3V*%
X156440000Y-71870000D03*
%TO.P,J38,3,Pin_3*%
%TO.N,GND*%
X158980000Y-71870000D03*
%TD*%
D10*
%TO.P,J57,1,Pin_1*%
%TO.N,1_Wire_U*%
X143515000Y-75430000D03*
D11*
%TO.P,J57,2,Pin_2*%
%TO.N,+3.3V*%
X146055000Y-75430000D03*
%TO.P,J57,3,Pin_3*%
%TO.N,GND*%
X148595000Y-75430000D03*
%TD*%
D10*
%TO.P,J59,1,Pin_1*%
%TO.N,1_Wire_U*%
X164600000Y-71755000D03*
D11*
%TO.P,J59,2,Pin_2*%
%TO.N,+3.3V*%
X167140000Y-71755000D03*
%TO.P,J59,3,Pin_3*%
%TO.N,GND*%
X169680000Y-71755000D03*
%TD*%
D12*
%TO.P,U11,1,GND*%
%TO.N,GND*%
X144400000Y-81500000D03*
D13*
%TO.P,U11,2,DQ*%
%TO.N,1_Wire_U*%
X144400000Y-80230000D03*
%TO.P,U11,3,V_{DD}*%
%TO.N,+3.3V*%
X144400000Y-78960000D03*
%TD*%
D14*
%TO.P,C36,1*%
%TO.N,+3.3V*%
X167740000Y-79117500D03*
%TO.P,C36,2*%
%TO.N,GND*%
X167740000Y-81192500D03*
%TD*%
%TO.P,C21,1*%
%TO.N,+3.3V*%
X136110000Y-79287500D03*
%TO.P,C21,2*%
%TO.N,GND*%
X136110000Y-81362500D03*
%TD*%
%TO.P,C38,1*%
%TO.N,+3.3V*%
X148640000Y-79230000D03*
%TO.P,C38,2*%
%TO.N,GND*%
X148640000Y-81305000D03*
%TD*%
%TO.P,C33,1*%
%TO.N,+3.3V*%
X127640000Y-78992500D03*
%TO.P,C33,2*%
%TO.N,GND*%
X127640000Y-81067500D03*
%TD*%
%TO.P,C24,1*%
%TO.N,+3.3V*%
X125640000Y-78992500D03*
%TO.P,C24,2*%
%TO.N,GND*%
X125640000Y-81067500D03*
%TD*%
%TO.P,C34,1*%
%TO.N,+3.3V*%
X180145000Y-79330000D03*
%TO.P,C34,2*%
%TO.N,GND*%
X180145000Y-81405000D03*
%TD*%
%TO.P,C31,1*%
%TO.N,+3.3V*%
X159040000Y-79395000D03*
%TO.P,C31,2*%
%TO.N,GND*%
X159040000Y-81470000D03*
%TD*%
%TO.P,C20,1*%
%TO.N,+3.3V*%
X157040000Y-79395000D03*
%TO.P,C20,2*%
%TO.N,GND*%
X157040000Y-81470000D03*
%TD*%
%TO.P,C37,1*%
%TO.N,+3.3V*%
X178165000Y-79310000D03*
%TO.P,C37,2*%
%TO.N,GND*%
X178165000Y-81385000D03*
%TD*%
%TO.P,C39,1*%
%TO.N,+3.3V*%
X169740000Y-79117500D03*
%TO.P,C39,2*%
%TO.N,GND*%
X169740000Y-81192500D03*
%TD*%
%TO.P,C35,1*%
%TO.N,+3.3V*%
X146640000Y-79230000D03*
%TO.P,C35,2*%
%TO.N,GND*%
X146640000Y-81305000D03*
%TD*%
%TO.P,C32,1*%
%TO.N,+3.3V*%
X138110000Y-79287500D03*
%TO.P,C32,2*%
%TO.N,GND*%
X138110000Y-81362500D03*
%TD*%
D15*
%TO.N,GND*%
X138110000Y-81362500D02*
X138872500Y-81362500D01*
X175925000Y-81580000D02*
X177970000Y-81580000D01*
X160500000Y-81000000D02*
X160030000Y-81470000D01*
X138050000Y-77065000D02*
X138050000Y-75525000D01*
X128980000Y-80630000D02*
X128542500Y-81067500D01*
X144400000Y-81500000D02*
X146445000Y-81500000D01*
X170412500Y-81192500D02*
X171320000Y-80285000D01*
X169680000Y-76645000D02*
X171320000Y-78285000D01*
X165500000Y-81425000D02*
X167507500Y-81425000D01*
X128980000Y-78030000D02*
X128980000Y-80630000D01*
X150115000Y-80960000D02*
X149770000Y-81305000D01*
X178185000Y-81405000D02*
X178165000Y-81385000D01*
X160030000Y-81470000D02*
X159040000Y-81470000D01*
X148595000Y-75430000D02*
X148595000Y-76840000D01*
X169680000Y-71755000D02*
X169680000Y-75355000D01*
X180120000Y-75510000D02*
X180120000Y-77015000D01*
X127580000Y-76630000D02*
X128980000Y-78030000D01*
X133910000Y-81595000D02*
X135877500Y-81595000D01*
X169680000Y-75355000D02*
X169680000Y-76645000D01*
X177970000Y-81580000D02*
X178165000Y-81385000D01*
X180120000Y-77015000D02*
X181545000Y-78440000D01*
X169740000Y-81192500D02*
X170412500Y-81192500D01*
X154870000Y-81470000D02*
X154800000Y-81540000D01*
X167507500Y-81425000D02*
X167740000Y-81192500D01*
X180145000Y-81405000D02*
X180780000Y-81405000D01*
X135877500Y-81595000D02*
X136110000Y-81362500D01*
X128542500Y-81067500D02*
X127640000Y-81067500D01*
X157040000Y-81470000D02*
X154870000Y-81470000D01*
X125640000Y-81067500D02*
X125207500Y-81500000D01*
X171320000Y-78285000D02*
X171320000Y-80285000D01*
X180145000Y-81405000D02*
X178185000Y-81405000D01*
X158980000Y-75470000D02*
X158980000Y-71870000D01*
X148595000Y-71830000D02*
X148595000Y-75430000D01*
X158980000Y-77080000D02*
X160500000Y-78600000D01*
X127580000Y-75430000D02*
X127580000Y-76630000D01*
X127640000Y-81067500D02*
X125640000Y-81067500D01*
X138872500Y-81362500D02*
X139510000Y-80725000D01*
X180105000Y-71910000D02*
X180105000Y-75495000D01*
X157040000Y-81470000D02*
X159040000Y-81470000D01*
X160500000Y-78600000D02*
X160500000Y-81000000D01*
X146445000Y-81500000D02*
X146640000Y-81305000D01*
X127580000Y-71830000D02*
X127580000Y-75430000D01*
X148640000Y-81305000D02*
X146640000Y-81305000D01*
X139510000Y-80725000D02*
X139510000Y-78525000D01*
X138050000Y-75525000D02*
X138050000Y-71925000D01*
X125207500Y-81500000D02*
X123400000Y-81500000D01*
X148595000Y-76840000D02*
X150115000Y-78360000D01*
X139510000Y-78525000D02*
X138050000Y-77065000D01*
X150115000Y-78360000D02*
X150115000Y-80960000D01*
X180105000Y-75495000D02*
X180120000Y-75510000D01*
X181545000Y-78440000D02*
X181545000Y-80640000D01*
X149770000Y-81305000D02*
X148640000Y-81305000D01*
X180780000Y-81405000D02*
X181545000Y-80640000D01*
X167740000Y-81192500D02*
X169740000Y-81192500D01*
X158980000Y-75470000D02*
X158980000Y-77080000D01*
X136110000Y-81362500D02*
X138110000Y-81362500D01*
%TO.N,+3.3V*%
X178165000Y-79310000D02*
X180125000Y-79310000D01*
X133910000Y-79055000D02*
X135877500Y-79055000D01*
X167140000Y-71755000D02*
X167140000Y-75355000D01*
X180145000Y-79330000D02*
X180145000Y-78640000D01*
X135510000Y-77247500D02*
X135510000Y-75525000D01*
X159040000Y-78505000D02*
X159040000Y-79395000D01*
X156645000Y-79000000D02*
X157040000Y-79395000D01*
X125040000Y-71830000D02*
X125040000Y-75430000D01*
X180125000Y-79310000D02*
X180145000Y-79330000D01*
X180145000Y-78640000D02*
X177580000Y-76075000D01*
X148640000Y-78485000D02*
X148640000Y-79230000D01*
X157040000Y-79395000D02*
X159040000Y-79395000D01*
X177565000Y-71910000D02*
X177565000Y-75495000D01*
X169740000Y-79117500D02*
X169740000Y-78305000D01*
X169740000Y-78305000D02*
X167140000Y-75705000D01*
X177895000Y-79040000D02*
X178165000Y-79310000D01*
X167140000Y-75705000D02*
X167140000Y-75355000D01*
X154800000Y-79000000D02*
X156645000Y-79000000D01*
X167740000Y-79117500D02*
X169740000Y-79117500D01*
X125640000Y-78992500D02*
X127640000Y-78992500D01*
X167507500Y-78885000D02*
X167740000Y-79117500D01*
X136971250Y-77786250D02*
X136048750Y-77786250D01*
X125040000Y-75760000D02*
X125040000Y-75430000D01*
X146640000Y-79230000D02*
X148640000Y-79230000D01*
X138110000Y-79287500D02*
X138110000Y-78925000D01*
X156440000Y-75470000D02*
X156440000Y-75905000D01*
X127640000Y-78992500D02*
X127640000Y-78360000D01*
X138110000Y-79287500D02*
X136110000Y-79287500D01*
X146055000Y-75900000D02*
X148640000Y-78485000D01*
X136048750Y-77786250D02*
X135510000Y-77247500D01*
X135510000Y-71925000D02*
X135510000Y-75525000D01*
X123400000Y-78960000D02*
X125607500Y-78960000D01*
X135877500Y-79055000D02*
X136110000Y-79287500D01*
X177580000Y-76075000D02*
X177580000Y-75510000D01*
X127640000Y-78360000D02*
X125040000Y-75760000D01*
X146370000Y-78960000D02*
X146640000Y-79230000D01*
X156440000Y-75905000D02*
X159040000Y-78505000D01*
X144400000Y-78960000D02*
X146370000Y-78960000D01*
X165500000Y-78885000D02*
X167507500Y-78885000D01*
X125607500Y-78960000D02*
X125640000Y-78992500D01*
X175925000Y-79040000D02*
X177895000Y-79040000D01*
X146055000Y-71830000D02*
X146055000Y-75430000D01*
X177565000Y-75495000D02*
X177580000Y-75510000D01*
X146055000Y-75430000D02*
X146055000Y-75900000D01*
X138110000Y-78925000D02*
X136971250Y-77786250D01*
X156440000Y-75470000D02*
X156440000Y-71870000D01*
%TO.N,1_Wire_U*%
X132970000Y-75525000D02*
X132970000Y-71925000D01*
X121580000Y-79630000D02*
X121580000Y-77830000D01*
X143515000Y-71830000D02*
X143515000Y-75430000D01*
X122500000Y-76910000D02*
X122500000Y-75430000D01*
X153900000Y-77000000D02*
X153900000Y-75470000D01*
X175040000Y-77145000D02*
X174145000Y-78040000D01*
X142515000Y-80060000D02*
X142515000Y-78460000D01*
X164600000Y-71755000D02*
X164600000Y-75355000D01*
X174145000Y-78040000D02*
X174145000Y-79840000D01*
X174145000Y-79840000D02*
X174615000Y-80310000D01*
X163720000Y-77885000D02*
X164600000Y-77005000D01*
X175025000Y-75495000D02*
X175040000Y-75510000D01*
X121580000Y-77830000D02*
X122500000Y-76910000D01*
X142515000Y-77960000D02*
X143515000Y-76960000D01*
X122500000Y-71830000D02*
X122500000Y-75430000D01*
X123400000Y-80230000D02*
X122180000Y-80230000D01*
X132970000Y-77065000D02*
X132970000Y-75525000D01*
X152900000Y-78000000D02*
X153900000Y-77000000D01*
X131910000Y-80225000D02*
X131910000Y-78625000D01*
X165500000Y-80155000D02*
X164190000Y-80155000D01*
X153370000Y-80270000D02*
X152900000Y-79800000D01*
X143185000Y-80230000D02*
X142515000Y-79560000D01*
X122180000Y-80230000D02*
X121580000Y-79630000D01*
X152900000Y-79800000D02*
X152900000Y-78000000D01*
X144400000Y-80230000D02*
X143185000Y-80230000D01*
X132510000Y-80325000D02*
X131910000Y-79725000D01*
X154800000Y-80270000D02*
X153370000Y-80270000D01*
X163720000Y-79685000D02*
X163720000Y-77885000D01*
X164600000Y-77005000D02*
X164600000Y-75355000D01*
X153900000Y-71870000D02*
X153900000Y-75470000D01*
X143515000Y-76960000D02*
X143515000Y-75430000D01*
X164190000Y-80155000D02*
X163720000Y-79685000D01*
X131910000Y-78125000D02*
X132970000Y-77065000D01*
X175040000Y-75510000D02*
X175040000Y-77145000D01*
X134510000Y-80325000D02*
X132510000Y-80325000D01*
X175025000Y-71910000D02*
X175025000Y-75495000D01*
X174615000Y-80310000D02*
X175925000Y-80310000D01*
%TD*%
%TA.AperFunction,Conductor*%
%TO.N,GND*%
G36*
X139052657Y-80764842D02*
G01*
X139052766Y-80764950D01*
X139464612Y-81176796D01*
X139468039Y-81185069D01*
X139464612Y-81193342D01*
X139463959Y-81193947D01*
X138832933Y-81735537D01*
X138824423Y-81738325D01*
X138819866Y-81737014D01*
X138114469Y-81365930D01*
X138108742Y-81359045D01*
X138108365Y-81357440D01*
X138016884Y-80788376D01*
X138018955Y-80779666D01*
X138026579Y-80774969D01*
X138028273Y-80774822D01*
X139044341Y-80761524D01*
X139052657Y-80764842D01*
G37*
%TD.AperFunction*%
%TD*%
%TA.AperFunction,Conductor*%
%TO.N,GND*%
G36*
X177506724Y-80894553D02*
G01*
X178156216Y-81377721D01*
X178160809Y-81385408D01*
X178158620Y-81394091D01*
X178158324Y-81394473D01*
X177694023Y-81967534D01*
X177686152Y-81971805D01*
X177683648Y-81971798D01*
X176862916Y-81881150D01*
X176855069Y-81876836D01*
X176852500Y-81869521D01*
X176852500Y-81286611D01*
X176855927Y-81278338D01*
X176858159Y-81276592D01*
X177493708Y-80893916D01*
X177502561Y-80892585D01*
X177506724Y-80894553D01*
G37*
%TD.AperFunction*%
%TD*%
%TA.AperFunction,Conductor*%
%TO.N,GND*%
G36*
X176680973Y-81057560D02*
G01*
X177192909Y-81276961D01*
X177199163Y-81283370D01*
X177200000Y-81287715D01*
X177200000Y-81872285D01*
X177196573Y-81880558D01*
X177192909Y-81883039D01*
X176680980Y-82102437D01*
X176672026Y-82102546D01*
X176669667Y-82101272D01*
X176353941Y-81880558D01*
X175937715Y-81589587D01*
X175932899Y-81582041D01*
X175934831Y-81573296D01*
X175937714Y-81570412D01*
X176669669Y-81058726D01*
X176678411Y-81056795D01*
X176680973Y-81057560D01*
G37*
%TD.AperFunction*%
%TD*%
%TA.AperFunction,Conductor*%
%TO.N,GND*%
G36*
X138824513Y-75845808D02*
G01*
X138830841Y-75852141D01*
X138830847Y-75861074D01*
X138376159Y-76963846D01*
X138373615Y-76967659D01*
X137963039Y-77378235D01*
X137954766Y-77381662D01*
X137946493Y-77378235D01*
X137944079Y-77374725D01*
X137269587Y-75861243D01*
X137269350Y-75852291D01*
X137275511Y-75845793D01*
X137275709Y-75845707D01*
X138044811Y-75526154D01*
X138053760Y-75526146D01*
X138824513Y-75845808D01*
G37*
%TD.AperFunction*%
%TD*%
%TA.AperFunction,Conductor*%
%TO.N,GND*%
G36*
X145155973Y-80977560D02*
G01*
X145667909Y-81196961D01*
X145674163Y-81203370D01*
X145675000Y-81207715D01*
X145675000Y-81792285D01*
X145671573Y-81800558D01*
X145667909Y-81803039D01*
X145155980Y-82022437D01*
X145147026Y-82022546D01*
X145144667Y-82021272D01*
X144828941Y-81800558D01*
X144412715Y-81509587D01*
X144407899Y-81502041D01*
X144409831Y-81493296D01*
X144412714Y-81490412D01*
X145144669Y-80978726D01*
X145153411Y-80976795D01*
X145155973Y-80977560D01*
G37*
%TD.AperFunction*%
%TD*%
%TA.AperFunction,Conductor*%
%TO.N,GND*%
G36*
X145981724Y-80814553D02*
G01*
X146631216Y-81297721D01*
X146635809Y-81305408D01*
X146633620Y-81314091D01*
X146633324Y-81314473D01*
X146169023Y-81887534D01*
X146161152Y-81891805D01*
X146158648Y-81891798D01*
X145337916Y-81801150D01*
X145330069Y-81796836D01*
X145327500Y-81789521D01*
X145327500Y-81206611D01*
X145330927Y-81198338D01*
X145333159Y-81196592D01*
X145968708Y-80813916D01*
X145977561Y-80812585D01*
X145981724Y-80814553D01*
G37*
%TD.AperFunction*%
%TD*%
%TA.AperFunction,Conductor*%
%TO.N,GND*%
G36*
X170671393Y-80515607D02*
G01*
X170672156Y-80516306D01*
X171084050Y-80928200D01*
X171087477Y-80936473D01*
X171084050Y-80944746D01*
X171083817Y-80944973D01*
X170470704Y-81524860D01*
X170462338Y-81528055D01*
X170457735Y-81526971D01*
X169744710Y-81195723D01*
X169738650Y-81189129D01*
X169738154Y-81187342D01*
X169627551Y-80617737D01*
X169629338Y-80608963D01*
X169636806Y-80604022D01*
X169637995Y-80603853D01*
X170662851Y-80512925D01*
X170671393Y-80515607D01*
G37*
%TD.AperFunction*%
%TD*%
%TA.AperFunction,Conductor*%
%TO.N,GND*%
G36*
X167069509Y-80720393D02*
G01*
X167730753Y-81185296D01*
X167735550Y-81192856D01*
X167733595Y-81201595D01*
X167733115Y-81202231D01*
X167268813Y-81775293D01*
X167260942Y-81779564D01*
X167258955Y-81779603D01*
X166438433Y-81725717D01*
X166430402Y-81721755D01*
X166427500Y-81714042D01*
X166427500Y-81131383D01*
X166430927Y-81123110D01*
X166432867Y-81121545D01*
X167056451Y-80720126D01*
X167065260Y-80718531D01*
X167069509Y-80720393D01*
G37*
%TD.AperFunction*%
%TD*%
%TA.AperFunction,Conductor*%
%TO.N,GND*%
G36*
X166255973Y-80902560D02*
G01*
X166767909Y-81121961D01*
X166774163Y-81128370D01*
X166775000Y-81132715D01*
X166775000Y-81717285D01*
X166771573Y-81725558D01*
X166767909Y-81728039D01*
X166255980Y-81947437D01*
X166247026Y-81947546D01*
X166244667Y-81946272D01*
X165928941Y-81725558D01*
X165512715Y-81434587D01*
X165507899Y-81427041D01*
X165509831Y-81418296D01*
X165512714Y-81415412D01*
X166244669Y-80903726D01*
X166253411Y-80901795D01*
X166255973Y-80902560D01*
G37*
%TD.AperFunction*%
%TD*%
%TA.AperFunction,Conductor*%
%TO.N,GND*%
G36*
X159617318Y-80903489D02*
G01*
X160043052Y-81028985D01*
X160048016Y-81031934D01*
X160459955Y-81443873D01*
X160463382Y-81452146D01*
X160459955Y-81460419D01*
X160458053Y-81461959D01*
X159727584Y-81936248D01*
X159718780Y-81937879D01*
X159714574Y-81936069D01*
X159050884Y-81478695D01*
X159046016Y-81471179D01*
X159047889Y-81462422D01*
X159049266Y-81460772D01*
X159605758Y-80906423D01*
X159614037Y-80903013D01*
X159617318Y-80903489D01*
G37*
%TD.AperFunction*%
%TD*%
%TA.AperFunction,Conductor*%
%TO.N,GND*%
G36*
X149370160Y-75751076D02*
G01*
X149376489Y-75757410D01*
X149376750Y-75765665D01*
X149013070Y-76830359D01*
X149010271Y-76834850D01*
X148599234Y-77245887D01*
X148590961Y-77249314D01*
X148582688Y-77245887D01*
X148580573Y-77242997D01*
X147815559Y-75766584D01*
X147814795Y-75757662D01*
X147820564Y-75750813D01*
X147821447Y-75750400D01*
X148589811Y-75431154D01*
X148598760Y-75431146D01*
X149370160Y-75751076D01*
G37*
%TD.AperFunction*%
%TD*%
%TA.AperFunction,Conductor*%
%TO.N,GND*%
G36*
X169979995Y-73658427D02*
G01*
X169982755Y-73662805D01*
X170461609Y-75019270D01*
X170461131Y-75028212D01*
X170455065Y-75033970D01*
X169684489Y-75354134D01*
X169675534Y-75354143D01*
X169675511Y-75354134D01*
X168904934Y-75033970D01*
X168898609Y-75027631D01*
X168898390Y-75019271D01*
X169377245Y-73662805D01*
X169383231Y-73656145D01*
X169388278Y-73655000D01*
X169971722Y-73655000D01*
X169979995Y-73658427D01*
G37*
%TD.AperFunction*%
%TD*%
%TA.AperFunction,Conductor*%
%TO.N,GND*%
G36*
X169684484Y-71755863D02*
G01*
X170455065Y-72076029D01*
X170461390Y-72082368D01*
X170461609Y-72090729D01*
X169982755Y-73447195D01*
X169976769Y-73453855D01*
X169971722Y-73455000D01*
X169388278Y-73455000D01*
X169380005Y-73451573D01*
X169377245Y-73447195D01*
X168898390Y-72090729D01*
X168898868Y-72081787D01*
X168904932Y-72076030D01*
X169675511Y-71755864D01*
X169684466Y-71755856D01*
X169684484Y-71755863D01*
G37*
%TD.AperFunction*%
%TD*%
%TA.AperFunction,Conductor*%
%TO.N,GND*%
G36*
X180894685Y-75830879D02*
G01*
X180901013Y-75837212D01*
X180901088Y-75845972D01*
X180470908Y-76938489D01*
X180468295Y-76942475D01*
X180057584Y-77353186D01*
X180049311Y-77356613D01*
X180041038Y-77353186D01*
X180038703Y-77349848D01*
X179339842Y-75846339D01*
X179339462Y-75837392D01*
X179345520Y-75830797D01*
X179345963Y-75830602D01*
X180114811Y-75511154D01*
X180123760Y-75511146D01*
X180894685Y-75830879D01*
G37*
%TD.AperFunction*%
%TD*%
%TA.AperFunction,Conductor*%
%TO.N,GND*%
G36*
X135439509Y-80890393D02*
G01*
X136100753Y-81355296D01*
X136105550Y-81362856D01*
X136103595Y-81371595D01*
X136103115Y-81372231D01*
X135638813Y-81945293D01*
X135630942Y-81949564D01*
X135628955Y-81949603D01*
X134808433Y-81895717D01*
X134800402Y-81891755D01*
X134797500Y-81884042D01*
X134797500Y-81301383D01*
X134800927Y-81293110D01*
X134802867Y-81291545D01*
X135426451Y-80890126D01*
X135435260Y-80888531D01*
X135439509Y-80890393D01*
G37*
%TD.AperFunction*%
%TD*%
%TA.AperFunction,Conductor*%
%TO.N,GND*%
G36*
X134665973Y-81072560D02*
G01*
X135177909Y-81291961D01*
X135184163Y-81298370D01*
X135185000Y-81302715D01*
X135185000Y-81887285D01*
X135181573Y-81895558D01*
X135177909Y-81898039D01*
X134665980Y-82117437D01*
X134657026Y-82117546D01*
X134654667Y-82116272D01*
X134338941Y-81895558D01*
X133922715Y-81604587D01*
X133917899Y-81597041D01*
X133919831Y-81588296D01*
X133922714Y-81585412D01*
X134654669Y-81073726D01*
X134663411Y-81071795D01*
X134665973Y-81072560D01*
G37*
%TD.AperFunction*%
%TD*%
%TA.AperFunction,Conductor*%
%TO.N,GND*%
G36*
X170455791Y-75676338D02*
G01*
X170462119Y-75682671D01*
X170462599Y-75690212D01*
X170182860Y-76719778D01*
X170179842Y-76724983D01*
X169768471Y-77136354D01*
X169760198Y-77139781D01*
X169751925Y-77136354D01*
X169750114Y-77134015D01*
X168901517Y-75691863D01*
X168900275Y-75682994D01*
X168905667Y-75675845D01*
X168907102Y-75675128D01*
X169674811Y-75356154D01*
X169683760Y-75356146D01*
X170455791Y-75676338D01*
G37*
%TD.AperFunction*%
%TD*%
%TA.AperFunction,Conductor*%
%TO.N,GND*%
G36*
X128121739Y-80481139D02*
G01*
X128616599Y-80564832D01*
X128622921Y-80568095D01*
X129034890Y-80980064D01*
X129038317Y-80988337D01*
X129034890Y-80996610D01*
X129033525Y-80997780D01*
X128352234Y-81496137D01*
X128343533Y-81498256D01*
X128339217Y-81496673D01*
X128338341Y-81496137D01*
X127650668Y-81075170D01*
X127645403Y-81067929D01*
X127646799Y-81059083D01*
X127647681Y-81057835D01*
X127703887Y-80988337D01*
X128110699Y-80485317D01*
X128118564Y-80481041D01*
X128121739Y-80481139D01*
G37*
%TD.AperFunction*%
%TD*%
%TA.AperFunction,Conductor*%
%TO.N,GND*%
G36*
X155555391Y-81016591D02*
G01*
X156066614Y-81167524D01*
X156073577Y-81173152D01*
X156075000Y-81178744D01*
X156075000Y-81762671D01*
X156071573Y-81770944D01*
X156068405Y-81773198D01*
X155555920Y-82021718D01*
X155546981Y-82022245D01*
X155544471Y-82021022D01*
X154813633Y-81549442D01*
X154808540Y-81542077D01*
X154810146Y-81533267D01*
X154813273Y-81530022D01*
X155545385Y-81018225D01*
X155554128Y-81016294D01*
X155555391Y-81016591D01*
G37*
%TD.AperFunction*%
%TD*%
%TA.AperFunction,Conductor*%
%TO.N,GND*%
G36*
X156471301Y-80904460D02*
G01*
X156474587Y-80906759D01*
X157032657Y-81461704D01*
X157036107Y-81469967D01*
X157032703Y-81478250D01*
X157032657Y-81478296D01*
X156474587Y-82033240D01*
X156466304Y-82036644D01*
X156462355Y-82035946D01*
X155735218Y-81772793D01*
X155728605Y-81766755D01*
X155727500Y-81761791D01*
X155727500Y-81178208D01*
X155730927Y-81169935D01*
X155735214Y-81167207D01*
X156462357Y-80904053D01*
X156471301Y-80904460D01*
G37*
%TD.AperFunction*%
%TD*%
%TA.AperFunction,Conductor*%
%TO.N,GND*%
G36*
X178742763Y-80819288D02*
G01*
X179470040Y-81102099D01*
X179476509Y-81108292D01*
X179477500Y-81113004D01*
X179477500Y-81696580D01*
X179474073Y-81704853D01*
X179469516Y-81707674D01*
X178742517Y-81951176D01*
X178733584Y-81950554D01*
X178730551Y-81948378D01*
X178459783Y-81679127D01*
X178172341Y-81393294D01*
X178168892Y-81385033D01*
X178172296Y-81376750D01*
X178730274Y-80821896D01*
X178738556Y-80818493D01*
X178742763Y-80819288D01*
G37*
%TD.AperFunction*%
%TD*%
%TA.AperFunction,Conductor*%
%TO.N,GND*%
G36*
X179576301Y-80839460D02*
G01*
X179579587Y-80841759D01*
X180137657Y-81396704D01*
X180141107Y-81404967D01*
X180137703Y-81413250D01*
X180137657Y-81413296D01*
X179579587Y-81968240D01*
X179571304Y-81971644D01*
X179567355Y-81970946D01*
X178840218Y-81707793D01*
X178833605Y-81701755D01*
X178832500Y-81696791D01*
X178832500Y-81113208D01*
X178835927Y-81104935D01*
X178840214Y-81102207D01*
X179567357Y-80839053D01*
X179576301Y-80839460D01*
G37*
%TD.AperFunction*%
%TD*%
%TA.AperFunction,Conductor*%
%TO.N,GND*%
G36*
X158984484Y-71870863D02*
G01*
X159755065Y-72191029D01*
X159761390Y-72197368D01*
X159761609Y-72205729D01*
X159282755Y-73562195D01*
X159276769Y-73568855D01*
X159271722Y-73570000D01*
X158688278Y-73570000D01*
X158680005Y-73566573D01*
X158677245Y-73562195D01*
X158198390Y-72205729D01*
X158198868Y-72196787D01*
X158204932Y-72191030D01*
X158975511Y-71870864D01*
X158984466Y-71870856D01*
X158984484Y-71870863D01*
G37*
%TD.AperFunction*%
%TD*%
%TA.AperFunction,Conductor*%
%TO.N,GND*%
G36*
X159279995Y-73773427D02*
G01*
X159282755Y-73777805D01*
X159761609Y-75134270D01*
X159761131Y-75143212D01*
X159755065Y-75148970D01*
X158984489Y-75469134D01*
X158975534Y-75469143D01*
X158975511Y-75469134D01*
X158204934Y-75148970D01*
X158198609Y-75142631D01*
X158198390Y-75134271D01*
X158677245Y-73777805D01*
X158683231Y-73771145D01*
X158688278Y-73770000D01*
X159271722Y-73770000D01*
X159279995Y-73773427D01*
G37*
%TD.AperFunction*%
%TD*%
%TA.AperFunction,Conductor*%
%TO.N,GND*%
G36*
X148599484Y-71830863D02*
G01*
X149370065Y-72151029D01*
X149376390Y-72157368D01*
X149376609Y-72165729D01*
X148897755Y-73522195D01*
X148891769Y-73528855D01*
X148886722Y-73530000D01*
X148303278Y-73530000D01*
X148295005Y-73526573D01*
X148292245Y-73522195D01*
X147813390Y-72165729D01*
X147813868Y-72156787D01*
X147819932Y-72151030D01*
X148590511Y-71830864D01*
X148599466Y-71830856D01*
X148599484Y-71830863D01*
G37*
%TD.AperFunction*%
%TD*%
%TA.AperFunction,Conductor*%
%TO.N,GND*%
G36*
X148894995Y-73733427D02*
G01*
X148897755Y-73737805D01*
X149376609Y-75094270D01*
X149376131Y-75103212D01*
X149370065Y-75108970D01*
X148599489Y-75429134D01*
X148590534Y-75429143D01*
X148590511Y-75429134D01*
X147819934Y-75108970D01*
X147813609Y-75102631D01*
X147813390Y-75094271D01*
X148292245Y-73737805D01*
X148298231Y-73731145D01*
X148303278Y-73730000D01*
X148886722Y-73730000D01*
X148894995Y-73733427D01*
G37*
%TD.AperFunction*%
%TD*%
%TA.AperFunction,Conductor*%
%TO.N,GND*%
G36*
X128356283Y-75751542D02*
G01*
X128362611Y-75757875D01*
X128363236Y-75764820D01*
X128146412Y-76768055D01*
X128143249Y-76773856D01*
X127731681Y-77185424D01*
X127723408Y-77188851D01*
X127715135Y-77185424D01*
X127713569Y-77183481D01*
X126802272Y-75767047D01*
X126800677Y-75758236D01*
X126805781Y-75750878D01*
X126807613Y-75749916D01*
X127574811Y-75431154D01*
X127583760Y-75431146D01*
X128356283Y-75751542D01*
G37*
%TD.AperFunction*%
%TD*%
%TA.AperFunction,Conductor*%
%TO.N,GND*%
G36*
X126217641Y-80501552D02*
G01*
X126944783Y-80764707D01*
X126951395Y-80770744D01*
X126952500Y-80775708D01*
X126952500Y-81359291D01*
X126949073Y-81367564D01*
X126944782Y-81370293D01*
X126217644Y-81633446D01*
X126208698Y-81633039D01*
X126205412Y-81630740D01*
X125932434Y-81359291D01*
X125647341Y-81075794D01*
X125643892Y-81067533D01*
X125647296Y-81059250D01*
X126205412Y-80504258D01*
X126213695Y-80500855D01*
X126217641Y-80501552D01*
G37*
%TD.AperFunction*%
%TD*%
%TA.AperFunction,Conductor*%
%TO.N,GND*%
G36*
X127071301Y-80501960D02*
G01*
X127074587Y-80504259D01*
X127632657Y-81059204D01*
X127636107Y-81067467D01*
X127632703Y-81075750D01*
X127632657Y-81075796D01*
X127074587Y-81630740D01*
X127066304Y-81634144D01*
X127062355Y-81633446D01*
X126335218Y-81370293D01*
X126328605Y-81364255D01*
X126327500Y-81359291D01*
X126327500Y-80775708D01*
X126330927Y-80767435D01*
X126335214Y-80764707D01*
X127062357Y-80501553D01*
X127071301Y-80501960D01*
G37*
%TD.AperFunction*%
%TD*%
%TA.AperFunction,Conductor*%
%TO.N,GND*%
G36*
X180109484Y-71910863D02*
G01*
X180880065Y-72231029D01*
X180886390Y-72237368D01*
X180886609Y-72245729D01*
X180407755Y-73602195D01*
X180401769Y-73608855D01*
X180396722Y-73610000D01*
X179813278Y-73610000D01*
X179805005Y-73606573D01*
X179802245Y-73602195D01*
X179323390Y-72245729D01*
X179323868Y-72236787D01*
X179329932Y-72231030D01*
X180100511Y-71910864D01*
X180109466Y-71910856D01*
X180109484Y-71910863D01*
G37*
%TD.AperFunction*%
%TD*%
%TA.AperFunction,Conductor*%
%TO.N,GND*%
G36*
X180405086Y-73816411D02*
G01*
X180407805Y-73820675D01*
X180901461Y-75174200D01*
X180901076Y-75183147D01*
X180894958Y-75189014D01*
X180124489Y-75509134D01*
X180115534Y-75509143D01*
X180115511Y-75509134D01*
X179344842Y-75188932D01*
X179338517Y-75182593D01*
X179338263Y-75174332D01*
X179802290Y-73820889D01*
X179808215Y-73814175D01*
X179813358Y-73812984D01*
X180396813Y-73812984D01*
X180405086Y-73816411D01*
G37*
%TD.AperFunction*%
%TD*%
%TA.AperFunction,Conductor*%
%TO.N,GND*%
G36*
X158471301Y-80904460D02*
G01*
X158474587Y-80906759D01*
X159032657Y-81461704D01*
X159036107Y-81469967D01*
X159032703Y-81478250D01*
X159032657Y-81478296D01*
X158474587Y-82033240D01*
X158466304Y-82036644D01*
X158462355Y-82035946D01*
X157735218Y-81772793D01*
X157728605Y-81766755D01*
X157727500Y-81761791D01*
X157727500Y-81178208D01*
X157730927Y-81169935D01*
X157735214Y-81167207D01*
X158462357Y-80904053D01*
X158471301Y-80904460D01*
G37*
%TD.AperFunction*%
%TD*%
%TA.AperFunction,Conductor*%
%TO.N,GND*%
G36*
X157617641Y-80904052D02*
G01*
X158344783Y-81167207D01*
X158351395Y-81173244D01*
X158352500Y-81178208D01*
X158352500Y-81761791D01*
X158349073Y-81770064D01*
X158344782Y-81772793D01*
X157617644Y-82035946D01*
X157608698Y-82035539D01*
X157605412Y-82033240D01*
X157332434Y-81761791D01*
X157047341Y-81478294D01*
X157043892Y-81470033D01*
X157047296Y-81461750D01*
X157605412Y-80906758D01*
X157613695Y-80903355D01*
X157617641Y-80904052D01*
G37*
%TD.AperFunction*%
%TD*%
%TA.AperFunction,Conductor*%
%TO.N,GND*%
G36*
X127584484Y-71830863D02*
G01*
X128355065Y-72151029D01*
X128361390Y-72157368D01*
X128361609Y-72165729D01*
X127882755Y-73522195D01*
X127876769Y-73528855D01*
X127871722Y-73530000D01*
X127288278Y-73530000D01*
X127280005Y-73526573D01*
X127277245Y-73522195D01*
X126798390Y-72165729D01*
X126798868Y-72156787D01*
X126804932Y-72151030D01*
X127575511Y-71830864D01*
X127584466Y-71830856D01*
X127584484Y-71830863D01*
G37*
%TD.AperFunction*%
%TD*%
%TA.AperFunction,Conductor*%
%TO.N,GND*%
G36*
X127879995Y-73733427D02*
G01*
X127882755Y-73737805D01*
X128361609Y-75094270D01*
X128361131Y-75103212D01*
X128355065Y-75108970D01*
X127584489Y-75429134D01*
X127575534Y-75429143D01*
X127575511Y-75429134D01*
X126804934Y-75108970D01*
X126798609Y-75102631D01*
X126798390Y-75094271D01*
X127277245Y-73737805D01*
X127283231Y-73731145D01*
X127288278Y-73730000D01*
X127871722Y-73730000D01*
X127879995Y-73733427D01*
G37*
%TD.AperFunction*%
%TD*%
%TA.AperFunction,Conductor*%
%TO.N,GND*%
G36*
X148071301Y-80739460D02*
G01*
X148074587Y-80741759D01*
X148632657Y-81296704D01*
X148636107Y-81304967D01*
X148632703Y-81313250D01*
X148632657Y-81313296D01*
X148074587Y-81868240D01*
X148066304Y-81871644D01*
X148062355Y-81870946D01*
X147335218Y-81607793D01*
X147328605Y-81601755D01*
X147327500Y-81596791D01*
X147327500Y-81013208D01*
X147330927Y-81004935D01*
X147335214Y-81002207D01*
X148062357Y-80739053D01*
X148071301Y-80739460D01*
G37*
%TD.AperFunction*%
%TD*%
%TA.AperFunction,Conductor*%
%TO.N,GND*%
G36*
X147217641Y-80739052D02*
G01*
X147944783Y-81002207D01*
X147951395Y-81008244D01*
X147952500Y-81013208D01*
X147952500Y-81596791D01*
X147949073Y-81605064D01*
X147944782Y-81607793D01*
X147217644Y-81870946D01*
X147208698Y-81870539D01*
X147205412Y-81868240D01*
X146932434Y-81596791D01*
X146647341Y-81313294D01*
X146643892Y-81305033D01*
X146647296Y-81296750D01*
X147205412Y-80741758D01*
X147213695Y-80738355D01*
X147217641Y-80739052D01*
G37*
%TD.AperFunction*%
%TD*%
%TA.AperFunction,Conductor*%
%TO.N,GND*%
G36*
X138349995Y-73828427D02*
G01*
X138352755Y-73832805D01*
X138831609Y-75189270D01*
X138831131Y-75198212D01*
X138825065Y-75203970D01*
X138054489Y-75524134D01*
X138045534Y-75524143D01*
X138045511Y-75524134D01*
X137274934Y-75203970D01*
X137268609Y-75197631D01*
X137268390Y-75189271D01*
X137747245Y-73832805D01*
X137753231Y-73826145D01*
X137758278Y-73825000D01*
X138341722Y-73825000D01*
X138349995Y-73828427D01*
G37*
%TD.AperFunction*%
%TD*%
%TA.AperFunction,Conductor*%
%TO.N,GND*%
G36*
X138054484Y-71925863D02*
G01*
X138825065Y-72246029D01*
X138831390Y-72252368D01*
X138831609Y-72260729D01*
X138352755Y-73617195D01*
X138346769Y-73623855D01*
X138341722Y-73625000D01*
X137758278Y-73625000D01*
X137750005Y-73621573D01*
X137747245Y-73617195D01*
X137268390Y-72260729D01*
X137268868Y-72251787D01*
X137274932Y-72246030D01*
X138045511Y-71925864D01*
X138054466Y-71925856D01*
X138054484Y-71925863D01*
G37*
%TD.AperFunction*%
%TD*%
%TA.AperFunction,Conductor*%
%TO.N,GND*%
G36*
X124155973Y-80977560D02*
G01*
X124667909Y-81196961D01*
X124674163Y-81203370D01*
X124675000Y-81207715D01*
X124675000Y-81792285D01*
X124671573Y-81800558D01*
X124667909Y-81803039D01*
X124155980Y-82022437D01*
X124147026Y-82022546D01*
X124144667Y-82021272D01*
X123828941Y-81800558D01*
X123412715Y-81509587D01*
X123407899Y-81502041D01*
X123409831Y-81493296D01*
X123412714Y-81490412D01*
X124144669Y-80978726D01*
X124153411Y-80976795D01*
X124155973Y-80977560D01*
G37*
%TD.AperFunction*%
%TD*%
%TA.AperFunction,Conductor*%
%TO.N,GND*%
G36*
X124930560Y-80691613D02*
G01*
X125635858Y-81064779D01*
X125641568Y-81071677D01*
X125641934Y-81073243D01*
X125734553Y-81642770D01*
X125732499Y-81651486D01*
X125724883Y-81656196D01*
X125724219Y-81656285D01*
X124359311Y-81798652D01*
X124350727Y-81796102D01*
X124346460Y-81788229D01*
X124346397Y-81787015D01*
X124346397Y-81205258D01*
X124349824Y-81196985D01*
X124350315Y-81196521D01*
X124917322Y-80693205D01*
X124925784Y-80690277D01*
X124930560Y-80691613D01*
G37*
%TD.AperFunction*%
%TD*%
%TA.AperFunction,Conductor*%
%TO.N,GND*%
G36*
X149218116Y-80740083D02*
G01*
X149685102Y-80962955D01*
X149688335Y-80965241D01*
X150099975Y-81376881D01*
X150103402Y-81385154D01*
X150099975Y-81393427D01*
X150097174Y-81395495D01*
X149281285Y-81827246D01*
X149272370Y-81828087D01*
X149268357Y-81825921D01*
X148738908Y-81388085D01*
X148649221Y-81313917D01*
X148645030Y-81306005D01*
X148647662Y-81297446D01*
X148648409Y-81296625D01*
X149204825Y-80742352D01*
X149213103Y-80738943D01*
X149218116Y-80740083D01*
G37*
%TD.AperFunction*%
%TD*%
%TA.AperFunction,Conductor*%
%TO.N,GND*%
G36*
X181076254Y-80690529D02*
G01*
X181077332Y-80691482D01*
X181489198Y-81103348D01*
X181492625Y-81111621D01*
X181489198Y-81119894D01*
X181489113Y-81119979D01*
X180875664Y-81720974D01*
X180867356Y-81724315D01*
X180862746Y-81723317D01*
X180545838Y-81583220D01*
X180149786Y-81408135D01*
X180143605Y-81401656D01*
X180143066Y-81399834D01*
X180024042Y-80829941D01*
X180025705Y-80821145D01*
X180033103Y-80816099D01*
X180034054Y-80815940D01*
X181067625Y-80688143D01*
X181076254Y-80690529D01*
G37*
%TD.AperFunction*%
%TD*%
%TA.AperFunction,Conductor*%
%TO.N,GND*%
G36*
X168317641Y-80626552D02*
G01*
X169044783Y-80889707D01*
X169051395Y-80895744D01*
X169052500Y-80900708D01*
X169052500Y-81484291D01*
X169049073Y-81492564D01*
X169044782Y-81495293D01*
X168317644Y-81758446D01*
X168308698Y-81758039D01*
X168305412Y-81755740D01*
X168032434Y-81484291D01*
X167747341Y-81200794D01*
X167743892Y-81192533D01*
X167747296Y-81184250D01*
X168305412Y-80629258D01*
X168313695Y-80625855D01*
X168317641Y-80626552D01*
G37*
%TD.AperFunction*%
%TD*%
%TA.AperFunction,Conductor*%
%TO.N,GND*%
G36*
X169171301Y-80626960D02*
G01*
X169174587Y-80629259D01*
X169732657Y-81184204D01*
X169736107Y-81192467D01*
X169732703Y-81200750D01*
X169732657Y-81200796D01*
X169174587Y-81755740D01*
X169166304Y-81759144D01*
X169162355Y-81758446D01*
X168435218Y-81495293D01*
X168428605Y-81489255D01*
X168427500Y-81484291D01*
X168427500Y-80900708D01*
X168430927Y-80892435D01*
X168435214Y-80889707D01*
X169162357Y-80626553D01*
X169171301Y-80626960D01*
G37*
%TD.AperFunction*%
%TD*%
%TA.AperFunction,Conductor*%
%TO.N,GND*%
G36*
X159754179Y-75790669D02*
G01*
X159760508Y-75797003D01*
X159760504Y-75805958D01*
X159760373Y-75806263D01*
X159256651Y-76929544D01*
X159254248Y-76933030D01*
X158843960Y-77343318D01*
X158835687Y-77346745D01*
X158827414Y-77343318D01*
X158824854Y-77339466D01*
X158199094Y-75806043D01*
X158199141Y-75797090D01*
X158205435Y-75790821D01*
X158974811Y-75471154D01*
X158983760Y-75471146D01*
X159754179Y-75790669D01*
G37*
%TD.AperFunction*%
%TD*%
%TA.AperFunction,Conductor*%
%TO.N,GND*%
G36*
X136687641Y-80796552D02*
G01*
X137414783Y-81059707D01*
X137421395Y-81065744D01*
X137422500Y-81070708D01*
X137422500Y-81654291D01*
X137419073Y-81662564D01*
X137414782Y-81665293D01*
X136687644Y-81928446D01*
X136678698Y-81928039D01*
X136675412Y-81925740D01*
X136402434Y-81654291D01*
X136117341Y-81370794D01*
X136113892Y-81362533D01*
X136117296Y-81354250D01*
X136675412Y-80799258D01*
X136683695Y-80795855D01*
X136687641Y-80796552D01*
G37*
%TD.AperFunction*%
%TD*%
%TA.AperFunction,Conductor*%
%TO.N,GND*%
G36*
X137541301Y-80796960D02*
G01*
X137544587Y-80799259D01*
X138102657Y-81354204D01*
X138106107Y-81362467D01*
X138102703Y-81370750D01*
X138102657Y-81370796D01*
X137544587Y-81925740D01*
X137536304Y-81929144D01*
X137532355Y-81928446D01*
X136805218Y-81665293D01*
X136798605Y-81659255D01*
X136797500Y-81654291D01*
X136797500Y-81070708D01*
X136800927Y-81062435D01*
X136805214Y-81059707D01*
X137532357Y-80796553D01*
X137541301Y-80796960D01*
G37*
%TD.AperFunction*%
%TD*%
%TA.AperFunction,Conductor*%
%TO.N,+3.3V*%
G36*
X179576415Y-78764445D02*
G01*
X179579448Y-78766621D01*
X180137657Y-79321704D01*
X180141107Y-79329967D01*
X180137703Y-79338250D01*
X180137657Y-79338296D01*
X179579726Y-79893102D01*
X179571443Y-79896506D01*
X179567236Y-79895711D01*
X178839960Y-79612900D01*
X178833491Y-79606707D01*
X178832500Y-79601995D01*
X178832500Y-79018419D01*
X178835927Y-79010146D01*
X178840481Y-79007326D01*
X179567482Y-78763823D01*
X179576415Y-78764445D01*
G37*
%TD.AperFunction*%
%TD*%
%TA.AperFunction,Conductor*%
%TO.N,+3.3V*%
G36*
X178742641Y-78744052D02*
G01*
X179469783Y-79007207D01*
X179476395Y-79013244D01*
X179477500Y-79018208D01*
X179477500Y-79601791D01*
X179474073Y-79610064D01*
X179469782Y-79612793D01*
X178742644Y-79875946D01*
X178733698Y-79875539D01*
X178730412Y-79873240D01*
X178457434Y-79601791D01*
X178172341Y-79318294D01*
X178168892Y-79310033D01*
X178172296Y-79301750D01*
X178730412Y-78746758D01*
X178738695Y-78743355D01*
X178742641Y-78744052D01*
G37*
%TD.AperFunction*%
%TD*%
%TA.AperFunction,Conductor*%
%TO.N,+3.3V*%
G36*
X134245461Y-78541930D02*
G01*
X135165826Y-78752917D01*
X135173125Y-78758106D01*
X135174912Y-78764321D01*
X135174912Y-79345678D01*
X135171485Y-79353951D01*
X135165826Y-79357082D01*
X134245463Y-79568068D01*
X134236634Y-79566577D01*
X134232985Y-79562956D01*
X134094400Y-79345678D01*
X133913012Y-79061291D01*
X133911453Y-79052474D01*
X133913013Y-79048708D01*
X134100346Y-78755000D01*
X134232986Y-78547041D01*
X134240323Y-78541911D01*
X134245461Y-78541930D01*
G37*
%TD.AperFunction*%
%TD*%
%TA.AperFunction,Conductor*%
%TO.N,+3.3V*%
G36*
X135637435Y-78703273D02*
G01*
X135638813Y-78704706D01*
X136103115Y-79277768D01*
X136105660Y-79286353D01*
X136101389Y-79294224D01*
X136100753Y-79294704D01*
X135439511Y-79759604D01*
X135430772Y-79761559D01*
X135426449Y-79759871D01*
X134802867Y-79358454D01*
X134797766Y-79351094D01*
X134797500Y-79348616D01*
X134797500Y-78765957D01*
X134800927Y-78757684D01*
X134808433Y-78754282D01*
X135628957Y-78700396D01*
X135637435Y-78703273D01*
G37*
%TD.AperFunction*%
%TD*%
%TA.AperFunction,Conductor*%
%TO.N,+3.3V*%
G36*
X167439995Y-73658427D02*
G01*
X167442755Y-73662805D01*
X167921609Y-75019270D01*
X167921131Y-75028212D01*
X167915065Y-75033970D01*
X167144489Y-75354134D01*
X167135534Y-75354143D01*
X167135511Y-75354134D01*
X166364934Y-75033970D01*
X166358609Y-75027631D01*
X166358390Y-75019271D01*
X166837245Y-73662805D01*
X166843231Y-73656145D01*
X166848278Y-73655000D01*
X167431722Y-73655000D01*
X167439995Y-73658427D01*
G37*
%TD.AperFunction*%
%TD*%
%TA.AperFunction,Conductor*%
%TO.N,+3.3V*%
G36*
X167144484Y-71755863D02*
G01*
X167915065Y-72076029D01*
X167921390Y-72082368D01*
X167921609Y-72090729D01*
X167442755Y-73447195D01*
X167436769Y-73453855D01*
X167431722Y-73455000D01*
X166848278Y-73455000D01*
X166840005Y-73451573D01*
X166837245Y-73447195D01*
X166358390Y-72090729D01*
X166358868Y-72081787D01*
X166364932Y-72076030D01*
X167135511Y-71755864D01*
X167144466Y-71755856D01*
X167144484Y-71755863D01*
G37*
%TD.AperFunction*%
%TD*%
%TA.AperFunction,Conductor*%
%TO.N,+3.3V*%
G36*
X180021729Y-78093924D02*
G01*
X180022397Y-78094650D01*
X180563378Y-78735524D01*
X180566095Y-78744056D01*
X180563932Y-78749908D01*
X180152059Y-79321884D01*
X180144443Y-79326595D01*
X180136442Y-79325018D01*
X179693625Y-79053142D01*
X179447353Y-78901939D01*
X179442097Y-78894691D01*
X179442572Y-78887727D01*
X179589031Y-78511473D01*
X179591658Y-78507449D01*
X180005184Y-78093923D01*
X180013456Y-78090497D01*
X180021729Y-78093924D01*
G37*
%TD.AperFunction*%
%TD*%
%TA.AperFunction,Conductor*%
%TO.N,+3.3V*%
G36*
X135514484Y-75525863D02*
G01*
X136285065Y-75846029D01*
X136291390Y-75852368D01*
X136291609Y-75860729D01*
X135812755Y-77217195D01*
X135806769Y-77223855D01*
X135801722Y-77225000D01*
X135218278Y-77225000D01*
X135210005Y-77221573D01*
X135207245Y-77217195D01*
X134728390Y-75860729D01*
X134728868Y-75851787D01*
X134734932Y-75846030D01*
X135505511Y-75525864D01*
X135514466Y-75525856D01*
X135514484Y-75525863D01*
G37*
%TD.AperFunction*%
%TD*%
%TA.AperFunction,Conductor*%
%TO.N,+3.3V*%
G36*
X159057058Y-78101436D02*
G01*
X159058521Y-78103221D01*
X159524977Y-78803169D01*
X159526713Y-78811954D01*
X159524219Y-78817160D01*
X159047518Y-79387556D01*
X159039583Y-79391706D01*
X159031937Y-79389711D01*
X158366087Y-78934480D01*
X158361191Y-78926982D01*
X158362897Y-78918420D01*
X158625685Y-78516612D01*
X158627195Y-78514753D01*
X159040513Y-78101435D01*
X159048785Y-78098009D01*
X159057058Y-78101436D01*
G37*
%TD.AperFunction*%
%TD*%
%TA.AperFunction,Conductor*%
%TO.N,+3.3V*%
G36*
X125044484Y-71830863D02*
G01*
X125815065Y-72151029D01*
X125821390Y-72157368D01*
X125821609Y-72165729D01*
X125342755Y-73522195D01*
X125336769Y-73528855D01*
X125331722Y-73530000D01*
X124748278Y-73530000D01*
X124740005Y-73526573D01*
X124737245Y-73522195D01*
X124258390Y-72165729D01*
X124258868Y-72156787D01*
X124264932Y-72151030D01*
X125035511Y-71830864D01*
X125044466Y-71830856D01*
X125044484Y-71830863D01*
G37*
%TD.AperFunction*%
%TD*%
%TA.AperFunction,Conductor*%
%TO.N,+3.3V*%
G36*
X125339995Y-73733427D02*
G01*
X125342755Y-73737805D01*
X125821609Y-75094270D01*
X125821131Y-75103212D01*
X125815065Y-75108970D01*
X125044489Y-75429134D01*
X125035534Y-75429143D01*
X125035511Y-75429134D01*
X124264934Y-75108970D01*
X124258609Y-75102631D01*
X124258390Y-75094271D01*
X124737245Y-73737805D01*
X124743231Y-73731145D01*
X124748278Y-73730000D01*
X125331722Y-73730000D01*
X125339995Y-73733427D01*
G37*
%TD.AperFunction*%
%TD*%
%TA.AperFunction,Conductor*%
%TO.N,+3.3V*%
G36*
X178420117Y-75509991D02*
G01*
X178428386Y-75513425D01*
X178431643Y-75519746D01*
X178629884Y-76695673D01*
X178627880Y-76704401D01*
X178626620Y-76705891D01*
X178214149Y-77118362D01*
X178205876Y-77121789D01*
X178198421Y-77119107D01*
X176988861Y-76119226D01*
X176984668Y-76111313D01*
X176987298Y-76102753D01*
X176988026Y-76101952D01*
X177575860Y-75512733D01*
X177584128Y-75509297D01*
X178420117Y-75509991D01*
G37*
%TD.AperFunction*%
%TD*%
%TA.AperFunction,Conductor*%
%TO.N,+3.3V*%
G36*
X148555334Y-77978101D02*
G01*
X148556232Y-77979109D01*
X149076100Y-78635431D01*
X149078551Y-78644044D01*
X149076290Y-78649714D01*
X148647103Y-79222175D01*
X148639399Y-79226739D01*
X148631620Y-79225128D01*
X148626810Y-79222175D01*
X147942948Y-78802304D01*
X147937692Y-78795056D01*
X147938482Y-78787357D01*
X148006572Y-78642500D01*
X148122945Y-78394922D01*
X148125256Y-78391633D01*
X148538789Y-77978100D01*
X148547061Y-77974674D01*
X148555334Y-77978101D01*
G37*
%TD.AperFunction*%
%TD*%
%TA.AperFunction,Conductor*%
%TO.N,+3.3V*%
G36*
X157617641Y-78829052D02*
G01*
X158344783Y-79092207D01*
X158351395Y-79098244D01*
X158352500Y-79103208D01*
X158352500Y-79686791D01*
X158349073Y-79695064D01*
X158344782Y-79697793D01*
X157617644Y-79960946D01*
X157608698Y-79960539D01*
X157605412Y-79958240D01*
X157332434Y-79686791D01*
X157047341Y-79403294D01*
X157043892Y-79395033D01*
X157047296Y-79386750D01*
X157605412Y-78831758D01*
X157613695Y-78828355D01*
X157617641Y-78829052D01*
G37*
%TD.AperFunction*%
%TD*%
%TA.AperFunction,Conductor*%
%TO.N,+3.3V*%
G36*
X158471301Y-78829460D02*
G01*
X158474587Y-78831759D01*
X159032657Y-79386704D01*
X159036107Y-79394967D01*
X159032703Y-79403250D01*
X159032657Y-79403296D01*
X158474587Y-79958240D01*
X158466304Y-79961644D01*
X158462355Y-79960946D01*
X157735218Y-79697793D01*
X157728605Y-79691755D01*
X157727500Y-79686791D01*
X157727500Y-79103208D01*
X157730927Y-79094935D01*
X157735214Y-79092207D01*
X158462357Y-78829053D01*
X158471301Y-78829460D01*
G37*
%TD.AperFunction*%
%TD*%
%TA.AperFunction,Conductor*%
%TO.N,+3.3V*%
G36*
X177569484Y-71910863D02*
G01*
X178340065Y-72231029D01*
X178346390Y-72237368D01*
X178346609Y-72245729D01*
X177867755Y-73602195D01*
X177861769Y-73608855D01*
X177856722Y-73610000D01*
X177273278Y-73610000D01*
X177265005Y-73606573D01*
X177262245Y-73602195D01*
X176783390Y-72245729D01*
X176783868Y-72236787D01*
X176789932Y-72231030D01*
X177560511Y-71910864D01*
X177569466Y-71910856D01*
X177569484Y-71910863D01*
G37*
%TD.AperFunction*%
%TD*%
%TA.AperFunction,Conductor*%
%TO.N,+3.3V*%
G36*
X177865086Y-73816411D02*
G01*
X177867805Y-73820675D01*
X178361461Y-75174200D01*
X178361076Y-75183147D01*
X178354958Y-75189014D01*
X177584489Y-75509134D01*
X177575534Y-75509143D01*
X177575511Y-75509134D01*
X176804842Y-75188932D01*
X176798517Y-75182593D01*
X176798263Y-75174332D01*
X177262290Y-73820889D01*
X177268215Y-73814175D01*
X177273358Y-73812984D01*
X177856813Y-73812984D01*
X177865086Y-73816411D01*
G37*
%TD.AperFunction*%
%TD*%
%TA.AperFunction,Conductor*%
%TO.N,+3.3V*%
G36*
X169702701Y-77846192D02*
G01*
X169703868Y-77847553D01*
X170198327Y-78522833D01*
X170200450Y-78531532D01*
X170198082Y-78536980D01*
X169747148Y-79110021D01*
X169739338Y-79114404D01*
X169731831Y-79112757D01*
X169043614Y-78690213D01*
X169038357Y-78682964D01*
X169039531Y-78674519D01*
X169116663Y-78536980D01*
X169270755Y-78262208D01*
X169272680Y-78259667D01*
X169686156Y-77846191D01*
X169694428Y-77842765D01*
X169702701Y-77846192D01*
G37*
%TD.AperFunction*%
%TD*%
%TA.AperFunction,Conductor*%
%TO.N,+3.3V*%
G36*
X167922163Y-75034720D02*
G01*
X167928488Y-75041059D01*
X167928917Y-75042287D01*
X168342493Y-76478507D01*
X168341489Y-76487406D01*
X168339523Y-76490018D01*
X167927033Y-76902508D01*
X167918760Y-76905935D01*
X167912114Y-76903864D01*
X166550499Y-75964006D01*
X166545637Y-75956486D01*
X166547516Y-75947731D01*
X166548858Y-75946118D01*
X167137641Y-75355948D01*
X167141452Y-75353401D01*
X167913209Y-75034711D01*
X167922163Y-75034720D01*
G37*
%TD.AperFunction*%
%TD*%
%TA.AperFunction,Conductor*%
%TO.N,+3.3V*%
G36*
X155751533Y-78700974D02*
G01*
X157115642Y-78806531D01*
X157123625Y-78810586D01*
X157126403Y-78819099D01*
X157126311Y-78819913D01*
X157041846Y-79389296D01*
X157037243Y-79396977D01*
X157035961Y-79397803D01*
X156333925Y-79788393D01*
X156325030Y-79789421D01*
X156320726Y-79787140D01*
X155743126Y-79303507D01*
X155738983Y-79295568D01*
X155738937Y-79294536D01*
X155738937Y-78712640D01*
X155742364Y-78704367D01*
X155750637Y-78700940D01*
X155751533Y-78700974D01*
G37*
%TD.AperFunction*%
%TD*%
%TA.AperFunction,Conductor*%
%TO.N,+3.3V*%
G36*
X155135461Y-78486930D02*
G01*
X156055826Y-78697917D01*
X156063125Y-78703106D01*
X156064912Y-78709321D01*
X156064912Y-79290678D01*
X156061485Y-79298951D01*
X156055826Y-79302082D01*
X155135463Y-79513068D01*
X155126634Y-79511577D01*
X155122985Y-79507956D01*
X154984400Y-79290678D01*
X154803012Y-79006291D01*
X154801453Y-78997474D01*
X154803013Y-78993708D01*
X154990346Y-78700000D01*
X155122986Y-78492041D01*
X155130323Y-78486911D01*
X155135461Y-78486930D01*
G37*
%TD.AperFunction*%
%TD*%
%TA.AperFunction,Conductor*%
%TO.N,+3.3V*%
G36*
X169171301Y-78551960D02*
G01*
X169174587Y-78554259D01*
X169732657Y-79109204D01*
X169736107Y-79117467D01*
X169732703Y-79125750D01*
X169732657Y-79125796D01*
X169174587Y-79680740D01*
X169166304Y-79684144D01*
X169162355Y-79683446D01*
X168435218Y-79420293D01*
X168428605Y-79414255D01*
X168427500Y-79409291D01*
X168427500Y-78825708D01*
X168430927Y-78817435D01*
X168435214Y-78814707D01*
X169162357Y-78551553D01*
X169171301Y-78551960D01*
G37*
%TD.AperFunction*%
%TD*%
%TA.AperFunction,Conductor*%
%TO.N,+3.3V*%
G36*
X168317641Y-78551552D02*
G01*
X169044783Y-78814707D01*
X169051395Y-78820744D01*
X169052500Y-78825708D01*
X169052500Y-79409291D01*
X169049073Y-79417564D01*
X169044782Y-79420293D01*
X168317644Y-79683446D01*
X168308698Y-79683039D01*
X168305412Y-79680740D01*
X168032434Y-79409291D01*
X167747341Y-79125794D01*
X167743892Y-79117533D01*
X167747296Y-79109250D01*
X168305412Y-78554258D01*
X168313695Y-78550855D01*
X168317641Y-78551552D01*
G37*
%TD.AperFunction*%
%TD*%
%TA.AperFunction,Conductor*%
%TO.N,+3.3V*%
G36*
X126217641Y-78426552D02*
G01*
X126944783Y-78689707D01*
X126951395Y-78695744D01*
X126952500Y-78700708D01*
X126952500Y-79284291D01*
X126949073Y-79292564D01*
X126944782Y-79295293D01*
X126217644Y-79558446D01*
X126208698Y-79558039D01*
X126205412Y-79555740D01*
X125932434Y-79284291D01*
X125647341Y-79000794D01*
X125643892Y-78992533D01*
X125647296Y-78984250D01*
X126205412Y-78429258D01*
X126213695Y-78425855D01*
X126217641Y-78426552D01*
G37*
%TD.AperFunction*%
%TD*%
%TA.AperFunction,Conductor*%
%TO.N,+3.3V*%
G36*
X127071301Y-78426960D02*
G01*
X127074587Y-78429259D01*
X127632657Y-78984204D01*
X127636107Y-78992467D01*
X127632703Y-79000750D01*
X127632657Y-79000796D01*
X127074587Y-79555740D01*
X127066304Y-79559144D01*
X127062355Y-79558446D01*
X126335218Y-79295293D01*
X126328605Y-79289255D01*
X126327500Y-79284291D01*
X126327500Y-78700708D01*
X126330927Y-78692435D01*
X126335214Y-78689707D01*
X127062357Y-78426553D01*
X127071301Y-78426960D01*
G37*
%TD.AperFunction*%
%TD*%
%TA.AperFunction,Conductor*%
%TO.N,+3.3V*%
G36*
X147217641Y-78664052D02*
G01*
X147944783Y-78927207D01*
X147951395Y-78933244D01*
X147952500Y-78938208D01*
X147952500Y-79521791D01*
X147949073Y-79530064D01*
X147944782Y-79532793D01*
X147217644Y-79795946D01*
X147208698Y-79795539D01*
X147205412Y-79793240D01*
X146932434Y-79521791D01*
X146647341Y-79238294D01*
X146643892Y-79230033D01*
X146647296Y-79221750D01*
X147205412Y-78666758D01*
X147213695Y-78663355D01*
X147217641Y-78664052D01*
G37*
%TD.AperFunction*%
%TD*%
%TA.AperFunction,Conductor*%
%TO.N,+3.3V*%
G36*
X148071301Y-78664460D02*
G01*
X148074587Y-78666759D01*
X148632657Y-79221704D01*
X148636107Y-79229967D01*
X148632703Y-79238250D01*
X148632657Y-79238296D01*
X148074587Y-79793240D01*
X148066304Y-79796644D01*
X148062355Y-79795946D01*
X147335218Y-79532793D01*
X147328605Y-79526755D01*
X147327500Y-79521791D01*
X147327500Y-78938208D01*
X147330927Y-78929935D01*
X147335214Y-78927207D01*
X148062357Y-78664053D01*
X148071301Y-78664460D01*
G37*
%TD.AperFunction*%
%TD*%
%TA.AperFunction,Conductor*%
%TO.N,+3.3V*%
G36*
X127476362Y-77772973D02*
G01*
X127476777Y-77773410D01*
X128040258Y-78398133D01*
X128043254Y-78406571D01*
X128041201Y-78412612D01*
X127647006Y-78984074D01*
X127639487Y-78988939D01*
X127631253Y-78987402D01*
X126941681Y-78564026D01*
X126936424Y-78556777D01*
X126936587Y-78550724D01*
X127043418Y-78191366D01*
X127046358Y-78186431D01*
X127459817Y-77772972D01*
X127468089Y-77769546D01*
X127476362Y-77772973D01*
G37*
%TD.AperFunction*%
%TD*%
%TA.AperFunction,Conductor*%
%TO.N,+3.3V*%
G36*
X136687641Y-78721552D02*
G01*
X137414783Y-78984707D01*
X137421395Y-78990744D01*
X137422500Y-78995708D01*
X137422500Y-79579291D01*
X137419073Y-79587564D01*
X137414782Y-79590293D01*
X136687644Y-79853446D01*
X136678698Y-79853039D01*
X136675412Y-79850740D01*
X136402434Y-79579291D01*
X136117341Y-79295794D01*
X136113892Y-79287533D01*
X136117296Y-79279250D01*
X136675412Y-78724258D01*
X136683695Y-78720855D01*
X136687641Y-78721552D01*
G37*
%TD.AperFunction*%
%TD*%
%TA.AperFunction,Conductor*%
%TO.N,+3.3V*%
G36*
X137541301Y-78721960D02*
G01*
X137544587Y-78724259D01*
X138102657Y-79279204D01*
X138106107Y-79287467D01*
X138102703Y-79295750D01*
X138102657Y-79295796D01*
X137544587Y-79850740D01*
X137536304Y-79854144D01*
X137532355Y-79853446D01*
X136805218Y-79590293D01*
X136798605Y-79584255D01*
X136797500Y-79579291D01*
X136797500Y-78995708D01*
X136800927Y-78987435D01*
X136805214Y-78984707D01*
X137532357Y-78721553D01*
X137541301Y-78721960D01*
G37*
%TD.AperFunction*%
%TD*%
%TA.AperFunction,Conductor*%
%TO.N,+3.3V*%
G36*
X146836478Y-75110003D02*
G01*
X146842803Y-75116342D01*
X146843392Y-75118189D01*
X147030880Y-75934382D01*
X147051178Y-76022747D01*
X147183676Y-76599549D01*
X147182188Y-76608379D01*
X147180546Y-76610441D01*
X146768104Y-77022883D01*
X146759831Y-77026310D01*
X146752725Y-77023905D01*
X145464564Y-76039148D01*
X145460073Y-76031401D01*
X145462375Y-76022747D01*
X145463381Y-76021596D01*
X146052641Y-75430948D01*
X146056452Y-75428401D01*
X146827523Y-75109994D01*
X146836478Y-75110003D01*
G37*
%TD.AperFunction*%
%TD*%
%TA.AperFunction,Conductor*%
%TO.N,+3.3V*%
G36*
X135514484Y-71925863D02*
G01*
X136285065Y-72246029D01*
X136291390Y-72252368D01*
X136291609Y-72260729D01*
X135812755Y-73617195D01*
X135806769Y-73623855D01*
X135801722Y-73625000D01*
X135218278Y-73625000D01*
X135210005Y-73621573D01*
X135207245Y-73617195D01*
X134728390Y-72260729D01*
X134728868Y-72251787D01*
X134734932Y-72246030D01*
X135505511Y-71925864D01*
X135514466Y-71925856D01*
X135514484Y-71925863D01*
G37*
%TD.AperFunction*%
%TD*%
%TA.AperFunction,Conductor*%
%TO.N,+3.3V*%
G36*
X135809995Y-73828427D02*
G01*
X135812755Y-73832805D01*
X136291609Y-75189270D01*
X136291131Y-75198212D01*
X136285065Y-75203970D01*
X135514489Y-75524134D01*
X135505534Y-75524143D01*
X135505511Y-75524134D01*
X134734934Y-75203970D01*
X134728609Y-75197631D01*
X134728390Y-75189271D01*
X135207245Y-73832805D01*
X135213231Y-73826145D01*
X135218278Y-73825000D01*
X135801722Y-73825000D01*
X135809995Y-73828427D01*
G37*
%TD.AperFunction*%
%TD*%
%TA.AperFunction,Conductor*%
%TO.N,+3.3V*%
G36*
X123735461Y-78446930D02*
G01*
X124655826Y-78657917D01*
X124663125Y-78663106D01*
X124664912Y-78669321D01*
X124664912Y-79250678D01*
X124661485Y-79258951D01*
X124655826Y-79262082D01*
X123735463Y-79473068D01*
X123726634Y-79471577D01*
X123722985Y-79467956D01*
X123584400Y-79250678D01*
X123403012Y-78966291D01*
X123401453Y-78957474D01*
X123403013Y-78953708D01*
X123590346Y-78660000D01*
X123722986Y-78452041D01*
X123730323Y-78446911D01*
X123735461Y-78446930D01*
G37*
%TD.AperFunction*%
%TD*%
%TA.AperFunction,Conductor*%
%TO.N,+3.3V*%
G36*
X125071488Y-78426939D02*
G01*
X125074362Y-78429035D01*
X125632657Y-78984204D01*
X125636107Y-78992467D01*
X125632703Y-79000750D01*
X125632657Y-79000796D01*
X125074812Y-79555516D01*
X125066529Y-79558920D01*
X125062163Y-79558062D01*
X124334801Y-79262962D01*
X124328423Y-79256676D01*
X124327500Y-79252120D01*
X124327500Y-78668556D01*
X124330927Y-78660283D01*
X124335650Y-78657407D01*
X125062566Y-78426181D01*
X125071488Y-78426939D01*
G37*
%TD.AperFunction*%
%TD*%
%TA.AperFunction,Conductor*%
%TO.N,+3.3V*%
G36*
X125822273Y-75109674D02*
G01*
X125828598Y-75116013D01*
X125828997Y-75117139D01*
X126254401Y-76545445D01*
X126253478Y-76554352D01*
X126251461Y-76557058D01*
X125838967Y-76969552D01*
X125830694Y-76972979D01*
X125824124Y-76970961D01*
X124450656Y-76038978D01*
X124445735Y-76031497D01*
X124447544Y-76022726D01*
X124448943Y-76021033D01*
X125037641Y-75430948D01*
X125041452Y-75428401D01*
X125813320Y-75109665D01*
X125822273Y-75109674D01*
G37*
%TD.AperFunction*%
%TD*%
%TA.AperFunction,Conductor*%
%TO.N,+3.3V*%
G36*
X157221690Y-75149915D02*
G01*
X157228015Y-75156254D01*
X157228559Y-75157913D01*
X157591865Y-76627775D01*
X157590524Y-76636628D01*
X157588780Y-76638855D01*
X157176325Y-77051310D01*
X157168052Y-77054737D01*
X157161079Y-77052432D01*
X155849831Y-76079111D01*
X155845232Y-76071429D01*
X155847411Y-76062743D01*
X155848523Y-76061454D01*
X156437641Y-75470948D01*
X156441452Y-75468401D01*
X157212736Y-75149906D01*
X157221690Y-75149915D01*
G37*
%TD.AperFunction*%
%TD*%
%TA.AperFunction,Conductor*%
%TO.N,+3.3V*%
G36*
X144735461Y-78446930D02*
G01*
X145655826Y-78657917D01*
X145663125Y-78663106D01*
X145664912Y-78669321D01*
X145664912Y-79250678D01*
X145661485Y-79258951D01*
X145655826Y-79262082D01*
X144735463Y-79473068D01*
X144726634Y-79471577D01*
X144722985Y-79467956D01*
X144584400Y-79250678D01*
X144403012Y-78966291D01*
X144401453Y-78957474D01*
X144403013Y-78953708D01*
X144590346Y-78660000D01*
X144722986Y-78452041D01*
X144730323Y-78446911D01*
X144735461Y-78446930D01*
G37*
%TD.AperFunction*%
%TD*%
%TA.AperFunction,Conductor*%
%TO.N,+3.3V*%
G36*
X146167614Y-78645872D02*
G01*
X146168606Y-78646951D01*
X146632896Y-79219998D01*
X146635441Y-79228583D01*
X146631170Y-79236454D01*
X146630271Y-79237114D01*
X145957100Y-79683486D01*
X145948311Y-79685202D01*
X145944011Y-79683380D01*
X145332577Y-79263486D01*
X145327697Y-79255977D01*
X145327500Y-79253841D01*
X145327500Y-78671457D01*
X145330927Y-78663184D01*
X145338954Y-78659760D01*
X146159272Y-78642619D01*
X146167614Y-78645872D01*
G37*
%TD.AperFunction*%
%TD*%
%TA.AperFunction,Conductor*%
%TO.N,+3.3V*%
G36*
X165835461Y-78371930D02*
G01*
X166755826Y-78582917D01*
X166763125Y-78588106D01*
X166764912Y-78594321D01*
X166764912Y-79175678D01*
X166761485Y-79183951D01*
X166755826Y-79187082D01*
X165835463Y-79398068D01*
X165826634Y-79396577D01*
X165822985Y-79392956D01*
X165684400Y-79175678D01*
X165503012Y-78891291D01*
X165501453Y-78882474D01*
X165503013Y-78878708D01*
X165690346Y-78585000D01*
X165822986Y-78377041D01*
X165830323Y-78371911D01*
X165835461Y-78371930D01*
G37*
%TD.AperFunction*%
%TD*%
%TA.AperFunction,Conductor*%
%TO.N,+3.3V*%
G36*
X167267435Y-78533273D02*
G01*
X167268813Y-78534706D01*
X167733115Y-79107768D01*
X167735660Y-79116353D01*
X167731389Y-79124224D01*
X167730753Y-79124704D01*
X167069511Y-79589604D01*
X167060772Y-79591559D01*
X167056449Y-79589871D01*
X166432867Y-79188454D01*
X166427766Y-79181094D01*
X166427500Y-79178616D01*
X166427500Y-78595957D01*
X166430927Y-78587684D01*
X166438433Y-78584282D01*
X167258957Y-78530396D01*
X167267435Y-78533273D01*
G37*
%TD.AperFunction*%
%TD*%
%TA.AperFunction,Conductor*%
%TO.N,+3.3V*%
G36*
X177692614Y-78725872D02*
G01*
X177693606Y-78726951D01*
X178157896Y-79299998D01*
X178160441Y-79308583D01*
X178156170Y-79316454D01*
X178155271Y-79317114D01*
X177482100Y-79763486D01*
X177473311Y-79765202D01*
X177469011Y-79763380D01*
X176857577Y-79343486D01*
X176852697Y-79335977D01*
X176852500Y-79333841D01*
X176852500Y-78751457D01*
X176855927Y-78743184D01*
X176863954Y-78739760D01*
X177684272Y-78722619D01*
X177692614Y-78725872D01*
G37*
%TD.AperFunction*%
%TD*%
%TA.AperFunction,Conductor*%
%TO.N,+3.3V*%
G36*
X176260461Y-78526930D02*
G01*
X177180826Y-78737917D01*
X177188125Y-78743106D01*
X177189912Y-78749321D01*
X177189912Y-79330678D01*
X177186485Y-79338951D01*
X177180826Y-79342082D01*
X176260463Y-79553068D01*
X176251634Y-79551577D01*
X176247985Y-79547956D01*
X176109400Y-79330678D01*
X175928012Y-79046291D01*
X175926453Y-79037474D01*
X175928013Y-79033708D01*
X176115346Y-78740000D01*
X176247986Y-78532041D01*
X176255323Y-78526911D01*
X176260461Y-78526930D01*
G37*
%TD.AperFunction*%
%TD*%
%TA.AperFunction,Conductor*%
%TO.N,+3.3V*%
G36*
X146354995Y-73733427D02*
G01*
X146357755Y-73737805D01*
X146836609Y-75094270D01*
X146836131Y-75103212D01*
X146830065Y-75108970D01*
X146059489Y-75429134D01*
X146050534Y-75429143D01*
X146050511Y-75429134D01*
X145279934Y-75108970D01*
X145273609Y-75102631D01*
X145273390Y-75094271D01*
X145752245Y-73737805D01*
X145758231Y-73731145D01*
X145763278Y-73730000D01*
X146346722Y-73730000D01*
X146354995Y-73733427D01*
G37*
%TD.AperFunction*%
%TD*%
%TA.AperFunction,Conductor*%
%TO.N,+3.3V*%
G36*
X146059484Y-71830863D02*
G01*
X146830065Y-72151029D01*
X146836390Y-72157368D01*
X146836609Y-72165729D01*
X146357755Y-73522195D01*
X146351769Y-73528855D01*
X146346722Y-73530000D01*
X145763278Y-73530000D01*
X145755005Y-73526573D01*
X145752245Y-73522195D01*
X145273390Y-72165729D01*
X145273868Y-72156787D01*
X145279932Y-72151030D01*
X146050511Y-71830864D01*
X146059466Y-71830856D01*
X146059484Y-71830863D01*
G37*
%TD.AperFunction*%
%TD*%
%TA.AperFunction,Conductor*%
%TO.N,+3.3V*%
G36*
X137689916Y-78079308D02*
G01*
X138424731Y-78693841D01*
X138428879Y-78701776D01*
X138427492Y-78708425D01*
X138114272Y-79281681D01*
X138107298Y-79287298D01*
X138103285Y-79287749D01*
X137394252Y-79244062D01*
X137386206Y-79240133D01*
X137383439Y-79234354D01*
X137292167Y-78700000D01*
X137258461Y-78502669D01*
X137260446Y-78493939D01*
X137261715Y-78492434D01*
X137674139Y-78080010D01*
X137682411Y-78076584D01*
X137689916Y-78079308D01*
G37*
%TD.AperFunction*%
%TD*%
%TA.AperFunction,Conductor*%
%TO.N,+3.3V*%
G36*
X156444484Y-71870863D02*
G01*
X157215065Y-72191029D01*
X157221390Y-72197368D01*
X157221609Y-72205729D01*
X156742755Y-73562195D01*
X156736769Y-73568855D01*
X156731722Y-73570000D01*
X156148278Y-73570000D01*
X156140005Y-73566573D01*
X156137245Y-73562195D01*
X155658390Y-72205729D01*
X155658868Y-72196787D01*
X155664932Y-72191030D01*
X156435511Y-71870864D01*
X156444466Y-71870856D01*
X156444484Y-71870863D01*
G37*
%TD.AperFunction*%
%TD*%
%TA.AperFunction,Conductor*%
%TO.N,+3.3V*%
G36*
X156739995Y-73773427D02*
G01*
X156742755Y-73777805D01*
X157221609Y-75134270D01*
X157221131Y-75143212D01*
X157215065Y-75148970D01*
X156444489Y-75469134D01*
X156435534Y-75469143D01*
X156435511Y-75469134D01*
X155664934Y-75148970D01*
X155658609Y-75142631D01*
X155658390Y-75134271D01*
X156137245Y-73777805D01*
X156143231Y-73771145D01*
X156148278Y-73770000D01*
X156731722Y-73770000D01*
X156739995Y-73773427D01*
G37*
%TD.AperFunction*%
%TD*%
%TA.AperFunction,Conductor*%
%TO.N,1_Wire_U*%
G36*
X132978266Y-71932276D02*
G01*
X133364154Y-72318617D01*
X133813319Y-72768312D01*
X133816741Y-72776587D01*
X133814864Y-72782936D01*
X133273458Y-73619656D01*
X133266087Y-73624740D01*
X133263635Y-73625000D01*
X132676365Y-73625000D01*
X132668092Y-73621573D01*
X132666542Y-73619656D01*
X132125135Y-72782936D01*
X132123518Y-72774129D01*
X132126680Y-72768312D01*
X132961723Y-71932286D01*
X132969993Y-71928855D01*
X132978266Y-71932276D01*
G37*
%TD.AperFunction*%
%TD*%
%TA.AperFunction,Conductor*%
%TO.N,1_Wire_U*%
G36*
X133271908Y-73828427D02*
G01*
X133273458Y-73830344D01*
X133814864Y-74667063D01*
X133816481Y-74675870D01*
X133813319Y-74681687D01*
X132978278Y-75517712D01*
X132970007Y-75521144D01*
X132961732Y-75517722D01*
X132961722Y-75517712D01*
X132126680Y-74681687D01*
X132123258Y-74673412D01*
X132125134Y-74667065D01*
X132666542Y-73830343D01*
X132673914Y-73825260D01*
X132676365Y-73825000D01*
X133263635Y-73825000D01*
X133271908Y-73828427D01*
G37*
%TD.AperFunction*%
%TD*%
%TA.AperFunction,Conductor*%
%TO.N,1_Wire_U*%
G36*
X143523266Y-71837276D02*
G01*
X143909154Y-72223617D01*
X144358319Y-72673312D01*
X144361741Y-72681587D01*
X144359864Y-72687936D01*
X143818458Y-73524656D01*
X143811087Y-73529740D01*
X143808635Y-73530000D01*
X143221365Y-73530000D01*
X143213092Y-73526573D01*
X143211542Y-73524656D01*
X142670135Y-72687936D01*
X142668518Y-72679129D01*
X142671680Y-72673312D01*
X143506723Y-71837286D01*
X143514993Y-71833855D01*
X143523266Y-71837276D01*
G37*
%TD.AperFunction*%
%TD*%
%TA.AperFunction,Conductor*%
%TO.N,1_Wire_U*%
G36*
X143816908Y-73733427D02*
G01*
X143818458Y-73735344D01*
X144359864Y-74572063D01*
X144361481Y-74580870D01*
X144358319Y-74586687D01*
X143523278Y-75422712D01*
X143515007Y-75426144D01*
X143506732Y-75422722D01*
X143506722Y-75422712D01*
X142671680Y-74586687D01*
X142668258Y-74578412D01*
X142670134Y-74572065D01*
X143211542Y-73735343D01*
X143218914Y-73730260D01*
X143221365Y-73730000D01*
X143808635Y-73730000D01*
X143816908Y-73733427D01*
G37*
%TD.AperFunction*%
%TD*%
%TA.AperFunction,Conductor*%
%TO.N,1_Wire_U*%
G36*
X122508572Y-75437973D02*
G01*
X122508960Y-75438380D01*
X123266966Y-76272994D01*
X123269991Y-76281422D01*
X123267807Y-76287686D01*
X122564604Y-77266509D01*
X122556994Y-77271229D01*
X122548276Y-77269185D01*
X122546829Y-77267956D01*
X122132663Y-76853790D01*
X122131982Y-76853048D01*
X121656907Y-76288212D01*
X121654205Y-76279677D01*
X121657588Y-76272411D01*
X122492027Y-75437972D01*
X122500299Y-75434546D01*
X122508572Y-75437973D01*
G37*
%TD.AperFunction*%
%TD*%
%TA.AperFunction,Conductor*%
%TO.N,1_Wire_U*%
G36*
X153908667Y-75477878D02*
G01*
X153908968Y-75478190D01*
X154684288Y-76313120D01*
X154687406Y-76321514D01*
X154685343Y-76327727D01*
X153999897Y-77320785D01*
X153992377Y-77325647D01*
X153983622Y-77323768D01*
X153981995Y-77322412D01*
X153567926Y-76908343D01*
X153567417Y-76907801D01*
X153057254Y-76328240D01*
X153054360Y-76319765D01*
X153057762Y-76312237D01*
X153892122Y-75477877D01*
X153900394Y-75474451D01*
X153908667Y-75477878D01*
G37*
%TD.AperFunction*%
%TD*%
%TA.AperFunction,Conductor*%
%TO.N,1_Wire_U*%
G36*
X164608266Y-71762276D02*
G01*
X164994154Y-72148617D01*
X165443319Y-72598312D01*
X165446741Y-72606587D01*
X165444864Y-72612936D01*
X164903458Y-73449656D01*
X164896087Y-73454740D01*
X164893635Y-73455000D01*
X164306365Y-73455000D01*
X164298092Y-73451573D01*
X164296542Y-73449656D01*
X163755135Y-72612936D01*
X163753518Y-72604129D01*
X163756680Y-72598312D01*
X164591723Y-71762286D01*
X164599993Y-71758855D01*
X164608266Y-71762276D01*
G37*
%TD.AperFunction*%
%TD*%
%TA.AperFunction,Conductor*%
%TO.N,1_Wire_U*%
G36*
X164901908Y-73658427D02*
G01*
X164903458Y-73660344D01*
X165444864Y-74497063D01*
X165446481Y-74505870D01*
X165443319Y-74511687D01*
X164608278Y-75347712D01*
X164600007Y-75351144D01*
X164591732Y-75347722D01*
X164591722Y-75347712D01*
X163756680Y-74511687D01*
X163753258Y-74503412D01*
X163755134Y-74497065D01*
X164296542Y-73660343D01*
X164303914Y-73655260D01*
X164306365Y-73655000D01*
X164893635Y-73655000D01*
X164901908Y-73658427D01*
G37*
%TD.AperFunction*%
%TD*%
%TA.AperFunction,Conductor*%
%TO.N,1_Wire_U*%
G36*
X122508266Y-71837276D02*
G01*
X122894154Y-72223617D01*
X123343319Y-72673312D01*
X123346741Y-72681587D01*
X123344864Y-72687936D01*
X122803458Y-73524656D01*
X122796087Y-73529740D01*
X122793635Y-73530000D01*
X122206365Y-73530000D01*
X122198092Y-73526573D01*
X122196542Y-73524656D01*
X121655135Y-72687936D01*
X121653518Y-72679129D01*
X121656680Y-72673312D01*
X122491723Y-71837286D01*
X122499993Y-71833855D01*
X122508266Y-71837276D01*
G37*
%TD.AperFunction*%
%TD*%
%TA.AperFunction,Conductor*%
%TO.N,1_Wire_U*%
G36*
X122801908Y-73733427D02*
G01*
X122803458Y-73735344D01*
X123344864Y-74572063D01*
X123346481Y-74580870D01*
X123343319Y-74586687D01*
X122508278Y-75422712D01*
X122500007Y-75426144D01*
X122491732Y-75422722D01*
X122491722Y-75422712D01*
X121656680Y-74586687D01*
X121653258Y-74578412D01*
X121655134Y-74572065D01*
X122196542Y-73735343D01*
X122203914Y-73730260D01*
X122206365Y-73730000D01*
X122793635Y-73730000D01*
X122801908Y-73733427D01*
G37*
%TD.AperFunction*%
%TD*%
%TA.AperFunction,Conductor*%
%TO.N,1_Wire_U*%
G36*
X123072616Y-79718739D02*
G01*
X123077697Y-79723132D01*
X123396703Y-80224416D01*
X123398253Y-80233236D01*
X123396695Y-80236992D01*
X123077308Y-80737498D01*
X123069969Y-80742629D01*
X123064141Y-80742428D01*
X122277538Y-80510878D01*
X121955011Y-80415937D01*
X121948043Y-80410314D01*
X121947092Y-80401410D01*
X121950041Y-80396443D01*
X122358604Y-79987880D01*
X122362712Y-79985221D01*
X123063666Y-79718479D01*
X123072616Y-79718739D01*
G37*
%TD.AperFunction*%
%TD*%
%TA.AperFunction,Conductor*%
%TO.N,1_Wire_U*%
G36*
X132978686Y-75532859D02*
G01*
X132978969Y-75533152D01*
X133424454Y-76010782D01*
X133757765Y-76368145D01*
X133760902Y-76376531D01*
X133758863Y-76382734D01*
X133076955Y-77378640D01*
X133069453Y-77383530D01*
X133060691Y-77381684D01*
X133059028Y-77380303D01*
X132644977Y-76966252D01*
X132644501Y-76965747D01*
X132127320Y-76383244D01*
X132124390Y-76374782D01*
X132127795Y-76367204D01*
X132962141Y-75532858D01*
X132970413Y-75529432D01*
X132978686Y-75532859D01*
G37*
%TD.AperFunction*%
%TD*%
%TA.AperFunction,Conductor*%
%TO.N,1_Wire_U*%
G36*
X165173365Y-79643422D02*
G01*
X165177014Y-79647043D01*
X165496986Y-80148708D01*
X165498546Y-80157526D01*
X165496986Y-80161292D01*
X165177014Y-80662956D01*
X165169676Y-80668088D01*
X165164536Y-80668068D01*
X164244174Y-80457082D01*
X164236875Y-80451893D01*
X164235088Y-80445678D01*
X164235088Y-79864321D01*
X164238515Y-79856048D01*
X164244174Y-79852917D01*
X165164537Y-79641931D01*
X165173365Y-79643422D01*
G37*
%TD.AperFunction*%
%TD*%
%TA.AperFunction,Conductor*%
%TO.N,1_Wire_U*%
G36*
X144072636Y-79718727D02*
G01*
X144077678Y-79723102D01*
X144396703Y-80224416D01*
X144398253Y-80233236D01*
X144396695Y-80236992D01*
X144077324Y-80737474D01*
X144069985Y-80742605D01*
X144064121Y-80742393D01*
X142956389Y-80412442D01*
X142949438Y-80406796D01*
X142948516Y-80397889D01*
X142951454Y-80392958D01*
X143360053Y-79984359D01*
X143364199Y-79981686D01*
X144063687Y-79718434D01*
X144072636Y-79718727D01*
G37*
%TD.AperFunction*%
%TD*%
%TA.AperFunction,Conductor*%
%TO.N,1_Wire_U*%
G36*
X154473365Y-79758422D02*
G01*
X154477014Y-79762043D01*
X154796986Y-80263708D01*
X154798546Y-80272526D01*
X154796986Y-80276292D01*
X154477014Y-80777956D01*
X154469676Y-80783088D01*
X154464536Y-80783068D01*
X153544174Y-80572082D01*
X153536875Y-80566893D01*
X153535088Y-80560678D01*
X153535088Y-79979321D01*
X153538515Y-79971048D01*
X153544174Y-79967917D01*
X154464537Y-79756931D01*
X154473365Y-79758422D01*
G37*
%TD.AperFunction*%
%TD*%
%TA.AperFunction,Conductor*%
%TO.N,1_Wire_U*%
G36*
X164608887Y-75362658D02*
G01*
X164608934Y-75362705D01*
X165424751Y-76196865D01*
X165426267Y-76198415D01*
X165429601Y-76206726D01*
X165427818Y-76212806D01*
X164784574Y-77240033D01*
X164777279Y-77245226D01*
X164768448Y-77243739D01*
X164766385Y-77242096D01*
X164352593Y-76828304D01*
X164352454Y-76828163D01*
X163757995Y-76213270D01*
X163754709Y-76204940D01*
X163758133Y-76196866D01*
X164592342Y-75362657D01*
X164600614Y-75359231D01*
X164608887Y-75362658D01*
G37*
%TD.AperFunction*%
%TD*%
%TA.AperFunction,Conductor*%
%TO.N,1_Wire_U*%
G36*
X154201908Y-73773427D02*
G01*
X154203458Y-73775344D01*
X154744864Y-74612063D01*
X154746481Y-74620870D01*
X154743319Y-74626687D01*
X153908278Y-75462712D01*
X153900007Y-75466144D01*
X153891732Y-75462722D01*
X153891722Y-75462712D01*
X153056680Y-74626687D01*
X153053258Y-74618412D01*
X153055134Y-74612065D01*
X153596542Y-73775343D01*
X153603914Y-73770260D01*
X153606365Y-73770000D01*
X154193635Y-73770000D01*
X154201908Y-73773427D01*
G37*
%TD.AperFunction*%
%TD*%
%TA.AperFunction,Conductor*%
%TO.N,1_Wire_U*%
G36*
X153908266Y-71877276D02*
G01*
X154294154Y-72263617D01*
X154743319Y-72713312D01*
X154746741Y-72721587D01*
X154744864Y-72727936D01*
X154203458Y-73564656D01*
X154196087Y-73569740D01*
X154193635Y-73570000D01*
X153606365Y-73570000D01*
X153598092Y-73566573D01*
X153596542Y-73564656D01*
X153055135Y-72727936D01*
X153053518Y-72719129D01*
X153056680Y-72713312D01*
X153891723Y-71877286D01*
X153899993Y-71873855D01*
X153908266Y-71877276D01*
G37*
%TD.AperFunction*%
%TD*%
%TA.AperFunction,Conductor*%
%TO.N,1_Wire_U*%
G36*
X143523667Y-75437878D02*
G01*
X143523968Y-75438190D01*
X144299288Y-76273120D01*
X144302406Y-76281514D01*
X144300343Y-76287727D01*
X143614897Y-77280785D01*
X143607377Y-77285647D01*
X143598622Y-77283768D01*
X143596995Y-77282412D01*
X143182926Y-76868343D01*
X143182417Y-76867801D01*
X142672254Y-76288240D01*
X142669360Y-76279765D01*
X142672762Y-76272237D01*
X143507122Y-75437877D01*
X143515394Y-75434451D01*
X143523667Y-75437878D01*
G37*
%TD.AperFunction*%
%TD*%
%TA.AperFunction,Conductor*%
%TO.N,1_Wire_U*%
G36*
X175048860Y-75517685D02*
G01*
X175048978Y-75517804D01*
X175860991Y-76353379D01*
X175864299Y-76361700D01*
X175862482Y-76367797D01*
X175213993Y-77390752D01*
X175206669Y-77395905D01*
X175197847Y-77394370D01*
X175195838Y-77392761D01*
X174782001Y-76978924D01*
X174781819Y-76978738D01*
X174197909Y-76368268D01*
X174194667Y-76359921D01*
X174198090Y-76351909D01*
X175032315Y-75517684D01*
X175040587Y-75514258D01*
X175048860Y-75517685D01*
G37*
%TD.AperFunction*%
%TD*%
%TA.AperFunction,Conductor*%
%TO.N,1_Wire_U*%
G36*
X133583365Y-79813422D02*
G01*
X133587014Y-79817043D01*
X133906986Y-80318708D01*
X133908546Y-80327526D01*
X133906986Y-80331292D01*
X133587014Y-80832956D01*
X133579676Y-80838088D01*
X133574536Y-80838068D01*
X132654174Y-80627082D01*
X132646875Y-80621893D01*
X132645088Y-80615678D01*
X132645088Y-80034321D01*
X132648515Y-80026048D01*
X132654174Y-80022917D01*
X133574537Y-79811931D01*
X133583365Y-79813422D01*
G37*
%TD.AperFunction*%
%TD*%
%TA.AperFunction,Conductor*%
%TO.N,1_Wire_U*%
G36*
X175326955Y-73813427D02*
G01*
X175328465Y-73815283D01*
X175877334Y-74652081D01*
X175879006Y-74660878D01*
X175875865Y-74666730D01*
X175048277Y-75502639D01*
X175040022Y-75506107D01*
X175031731Y-75502721D01*
X175031685Y-75502675D01*
X174196594Y-74666602D01*
X174193172Y-74658327D01*
X174194969Y-74652105D01*
X174721558Y-73815467D01*
X174728865Y-73810291D01*
X174731460Y-73810000D01*
X175318682Y-73810000D01*
X175326955Y-73813427D01*
G37*
%TD.AperFunction*%
%TD*%
%TA.AperFunction,Conductor*%
%TO.N,1_Wire_U*%
G36*
X175033266Y-71917276D02*
G01*
X175419154Y-72303617D01*
X175868319Y-72753312D01*
X175871741Y-72761587D01*
X175869864Y-72767936D01*
X175328458Y-73604656D01*
X175321087Y-73609740D01*
X175318635Y-73610000D01*
X174731365Y-73610000D01*
X174723092Y-73606573D01*
X174721542Y-73604656D01*
X174180135Y-72767936D01*
X174178518Y-72759129D01*
X174181680Y-72753312D01*
X175016723Y-71917286D01*
X175024993Y-71913855D01*
X175033266Y-71917276D01*
G37*
%TD.AperFunction*%
%TD*%
%TA.AperFunction,Conductor*%
%TO.N,1_Wire_U*%
G36*
X175598365Y-79798422D02*
G01*
X175602014Y-79802043D01*
X175921986Y-80303708D01*
X175923546Y-80312526D01*
X175921986Y-80316292D01*
X175602014Y-80817956D01*
X175594676Y-80823088D01*
X175589536Y-80823068D01*
X174669174Y-80612082D01*
X174661875Y-80606893D01*
X174660088Y-80600678D01*
X174660088Y-80019321D01*
X174663515Y-80011048D01*
X174669174Y-80007917D01*
X175589537Y-79796931D01*
X175598365Y-79798422D01*
G37*
%TD.AperFunction*%
%TD*%
M02*
