M48
; DRILL file {KiCad 8.0.7} date 2025-02-07T22:13:37+0100
; FORMAT={-:-/ absolute / inch / decimal}
; #@! TF.CreationDate,2025-02-07T22:13:37+01:00
; #@! TF.GenerationSoftware,Kicad,Pcbnew,8.0.7
; #@! TF.FileFunction,Plated,1,2,PTH
FMAT,2
INCH
; #@! TA.AperFunction,Plated,PTH,ComponentDrill
T1C0.0295
; #@! TA.AperFunction,Plated,PTH,ComponentDrill
T2C0.0394
%
G90
G05
T1
X4.8583Y-3.1087
X4.8583Y-3.1587
X4.8583Y-3.2087
X5.272Y-3.1124
X5.272Y-3.1624
X5.272Y-3.2124
X5.685Y-3.1087
X5.685Y-3.1587
X5.685Y-3.2087
X6.0945Y-3.1102
X6.0945Y-3.1602
X6.0945Y-3.2102
X6.5157Y-3.1057
X6.5157Y-3.1557
X6.5157Y-3.2057
X6.9262Y-3.1118
X6.9262Y-3.1618
X6.9262Y-3.2118
T2
X4.8228Y-2.828
X4.8228Y-2.9697
X4.9228Y-2.828
X4.9228Y-2.9697
X5.0228Y-2.828
X5.0228Y-2.9697
X5.235Y-2.8317
X5.235Y-2.9734
X5.335Y-2.8317
X5.335Y-2.9734
X5.435Y-2.8317
X5.435Y-2.9734
X5.6502Y-2.828
X5.6502Y-2.9697
X5.7502Y-2.828
X5.7502Y-2.9697
X5.8502Y-2.828
X5.8502Y-2.9697
X6.0591Y-2.8295
X6.0591Y-2.9713
X6.1591Y-2.8295
X6.1591Y-2.9713
X6.2591Y-2.8295
X6.2591Y-2.9713
X6.4803Y-2.825
X6.4803Y-2.9667
X6.5803Y-2.825
X6.5803Y-2.9667
X6.6803Y-2.825
X6.6803Y-2.9667
X6.8907Y-2.8311
X6.8913Y-2.9728
X6.9907Y-2.8311
X6.9913Y-2.9728
X7.0907Y-2.8311
X7.0913Y-2.9728
M30
