%TF.GenerationSoftware,KiCad,Pcbnew,9.0.7+1*%
%TF.CreationDate,2026-03-02T00:26:23+01:00*%
%TF.ProjectId,sensor_position,73656e73-6f72-45f7-906f-736974696f6e,rev?*%
%TF.SameCoordinates,Original*%
%TF.FileFunction,Copper,L2,Inr*%
%TF.FilePolarity,Positive*%
%FSLAX46Y46*%
G04 Gerber Fmt 4.6, Leading zero omitted, Abs format (unit mm)*
G04 Created by KiCad (PCBNEW 9.0.7+1) date 2026-03-02 00:26:23*
%MOMM*%
%LPD*%
G01*
G04 APERTURE LIST*
%TA.AperFunction,ComponentPad*%
%ADD10C,0.970000*%
%TD*%
%TA.AperFunction,ComponentPad*%
%ADD11R,1.700000X1.700000*%
%TD*%
%TA.AperFunction,ComponentPad*%
%ADD12C,1.700000*%
%TD*%
%TA.AperFunction,ViaPad*%
%ADD13C,0.600000*%
%TD*%
%TA.AperFunction,ViaPad*%
%ADD14C,0.800000*%
%TD*%
%TA.AperFunction,Conductor*%
%ADD15C,0.150000*%
%TD*%
G04 APERTURE END LIST*
D10*
%TO.N,GND*%
%TO.C,J1*%
X157080000Y-81860000D03*
X148320000Y-81860000D03*
%TD*%
D11*
%TO.N,GND*%
%TO.C,J2*%
X163600000Y-101050000D03*
D12*
%TO.N,ANT_PPS*%
X163600000Y-103590000D03*
%TO.N,ANT_WK*%
X163600000Y-106130000D03*
%TO.N,ANT_RST*%
X163600000Y-108670000D03*
%TO.N,+3V3*%
X163600000Y-111210000D03*
%TD*%
D11*
%TO.N,GND*%
%TO.C,J3*%
X141800000Y-101050000D03*
D12*
%TO.N,ANT_SCL*%
X141800000Y-103590000D03*
%TO.N,ANT_SDA*%
X141800000Y-106130000D03*
%TO.N,ANT_TX*%
X141800000Y-108670000D03*
%TO.N,ANT_RX*%
X141800000Y-111210000D03*
%TD*%
D13*
%TO.N,GND*%
X140800000Y-88300000D03*
X152800000Y-96000000D03*
X164600000Y-88300000D03*
X156900000Y-109125000D03*
X161600000Y-101000000D03*
X154900000Y-78300000D03*
X157000000Y-97000000D03*
X164600000Y-97300000D03*
X146400000Y-93000000D03*
X158398411Y-96992058D03*
X156000000Y-87000000D03*
X156100000Y-81840000D03*
X155000000Y-91000000D03*
X154100000Y-93000000D03*
X158398411Y-85992058D03*
X160100000Y-76300000D03*
X164600000Y-95800000D03*
X152800000Y-98000000D03*
X147662500Y-83300000D03*
X158398411Y-90992058D03*
X156000000Y-88000000D03*
X164600000Y-94300000D03*
X158398411Y-86992058D03*
X140800000Y-86800000D03*
X155000000Y-94000000D03*
X157000000Y-95000000D03*
X151400000Y-97000000D03*
X150000000Y-96000000D03*
X157000000Y-90000000D03*
X148800000Y-93400000D03*
X148400000Y-91000000D03*
X140800000Y-97300000D03*
X155000000Y-92000000D03*
X158900000Y-109125000D03*
X158398411Y-95992058D03*
X146300000Y-77300000D03*
X140800000Y-79300000D03*
X142300000Y-98800000D03*
X149400000Y-91000000D03*
X163100000Y-98800000D03*
X155000000Y-87000000D03*
X164600000Y-80800000D03*
X155000000Y-95000000D03*
X155000000Y-93000000D03*
X158398411Y-92992058D03*
X164600000Y-76300000D03*
X140800000Y-77800000D03*
X150500000Y-77300000D03*
X151500000Y-85000000D03*
X150400000Y-89000000D03*
X157000000Y-89000000D03*
X140800000Y-94300000D03*
X149400000Y-87400000D03*
X151700000Y-81840000D03*
X157000000Y-91000000D03*
X158600000Y-98800000D03*
X148300000Y-98800000D03*
X150500000Y-85000000D03*
X157000000Y-96000000D03*
X147300000Y-81840000D03*
X151550000Y-87900000D03*
X150500000Y-80300000D03*
X151500000Y-86000000D03*
X150500000Y-79300000D03*
X159100000Y-78300000D03*
X149362500Y-86300000D03*
X159100000Y-81300000D03*
X164600000Y-98800000D03*
X140800000Y-82300000D03*
X151700000Y-90400000D03*
X150500000Y-81300000D03*
X158398411Y-89992058D03*
X158398411Y-87992058D03*
X164600000Y-77800000D03*
X163100000Y-76300000D03*
X155000000Y-89000000D03*
X164600000Y-89800000D03*
X157000000Y-88000000D03*
X154000000Y-90000000D03*
X151500000Y-84000000D03*
X153700000Y-81840000D03*
X158398411Y-93992058D03*
X156000000Y-94000000D03*
X140800000Y-89800000D03*
X150500000Y-76300000D03*
X142300000Y-76300000D03*
X150400000Y-91000000D03*
X156000000Y-96000000D03*
X156000000Y-95000000D03*
X155400000Y-83000000D03*
X147400000Y-92000000D03*
X156000000Y-89000000D03*
X157000000Y-94000000D03*
X154900000Y-77300000D03*
X150000000Y-98000000D03*
X146400000Y-94000000D03*
X155000000Y-88000000D03*
X154000000Y-88000000D03*
X149500000Y-85000000D03*
X164600000Y-82300000D03*
X154900000Y-76300000D03*
X160100000Y-98800000D03*
X158100000Y-81840000D03*
X143800000Y-76300000D03*
X158400000Y-85000000D03*
X156000000Y-97000000D03*
X154000000Y-87000000D03*
X154000000Y-86000000D03*
X145300000Y-76300000D03*
X149300000Y-81840000D03*
X147600000Y-94000000D03*
X151432500Y-92850000D03*
X157000000Y-92000000D03*
X155000000Y-90000000D03*
X152700000Y-94600000D03*
X154000000Y-89000000D03*
X148500000Y-85000000D03*
X157000000Y-86000000D03*
X164600000Y-83800000D03*
X158400000Y-98000000D03*
X154400000Y-83000000D03*
X156000000Y-91000000D03*
X147600000Y-97000000D03*
X156000000Y-93000000D03*
X158398411Y-91992058D03*
X158398411Y-94992058D03*
X157400000Y-84000000D03*
X146300000Y-81300000D03*
X146300000Y-79300000D03*
X159100000Y-80300000D03*
X150400000Y-90000000D03*
X151550000Y-82900000D03*
X150000000Y-94000000D03*
X140800000Y-91300000D03*
X152700000Y-90400000D03*
X157000000Y-93000000D03*
X147600000Y-98000000D03*
X146300000Y-80300000D03*
X140800000Y-83800000D03*
X157000000Y-87000000D03*
X145300000Y-98800000D03*
X154900000Y-80300000D03*
X164600000Y-79300000D03*
X146300000Y-76300000D03*
X156000000Y-92000000D03*
X164600000Y-86800000D03*
X146400000Y-92000000D03*
X161600000Y-76300000D03*
X156000000Y-90000000D03*
X143800000Y-98800000D03*
X150500000Y-84000000D03*
X154900000Y-81300000D03*
X164600000Y-85300000D03*
X140800000Y-98800000D03*
X164600000Y-91300000D03*
X157100000Y-98800000D03*
X147600000Y-96000000D03*
X158398411Y-88992058D03*
X146300000Y-78300000D03*
X159100000Y-79300000D03*
X150500000Y-78300000D03*
X161600000Y-98800000D03*
X151500000Y-87000000D03*
X156000000Y-86000000D03*
X155000000Y-86000000D03*
X151400000Y-98000000D03*
X151400000Y-99000000D03*
X140800000Y-80800000D03*
X148800000Y-92400000D03*
X159100000Y-76300000D03*
X152800000Y-99000000D03*
X151432500Y-95150000D03*
X154000000Y-92000000D03*
X143800000Y-101050000D03*
X154000000Y-91000000D03*
X154900000Y-79300000D03*
X152800000Y-97000000D03*
X140800000Y-76300000D03*
X164600000Y-92800000D03*
X146800000Y-98800000D03*
X140800000Y-85300000D03*
X149400000Y-88400000D03*
X140800000Y-95800000D03*
X156400000Y-83000000D03*
X140800000Y-92800000D03*
X159100000Y-77300000D03*
X151400000Y-96000000D03*
X150000000Y-97000000D03*
D14*
%TO.N,+3V3*%
X158900000Y-111200000D03*
X156900000Y-111200000D03*
X151900000Y-109700000D03*
X149500000Y-103590000D03*
X154100000Y-109700000D03*
X153000000Y-109700000D03*
X149500000Y-106130000D03*
%TO.N,ANT_PPS*%
X149700000Y-109700000D03*
%TO.N,ANT_WK*%
X150800000Y-109700000D03*
%TO.N,ANT_RST*%
X155200000Y-109700000D03*
%TO.N,ANT_SCL*%
X147500000Y-100500000D03*
%TO.N,ANT_TX*%
X147500000Y-109700000D03*
%TO.N,ANT_SDA*%
X148600000Y-100500000D03*
%TO.N,ANT_RX*%
X148600000Y-109700000D03*
%TD*%
D15*
%TO.N,GND*%
X149400000Y-94000000D02*
X148800000Y-93400000D01*
X148300000Y-98800000D02*
X146800000Y-98800000D01*
X148200000Y-94000000D02*
X148800000Y-93400000D01*
X154000000Y-86000000D02*
X151500000Y-86000000D01*
X150000000Y-94000000D02*
X149400000Y-94000000D01*
X147600000Y-94000000D02*
X148200000Y-94000000D01*
%TD*%
%TA.AperFunction,Conductor*%
%TO.N,GND*%
G36*
X164981694Y-75918306D02*
G01*
X165000000Y-75962500D01*
X165000000Y-112054112D01*
X164981694Y-112098306D01*
X162478306Y-114601694D01*
X162434112Y-114620000D01*
X140462500Y-114620000D01*
X140418306Y-114601694D01*
X140400000Y-114557500D01*
X140400000Y-111123076D01*
X140695500Y-111123076D01*
X140695500Y-111296923D01*
X140695501Y-111296937D01*
X140722696Y-111468637D01*
X140776419Y-111633979D01*
X140776423Y-111633987D01*
X140855348Y-111788886D01*
X140957534Y-111929532D01*
X140957541Y-111929540D01*
X141080459Y-112052458D01*
X141080467Y-112052465D01*
X141221116Y-112154653D01*
X141376019Y-112233580D01*
X141541362Y-112287303D01*
X141713074Y-112314500D01*
X141713076Y-112314500D01*
X141886924Y-112314500D01*
X141886926Y-112314500D01*
X142058638Y-112287303D01*
X142223981Y-112233580D01*
X142378884Y-112154653D01*
X142519533Y-112052465D01*
X142642465Y-111929533D01*
X142744653Y-111788884D01*
X142823580Y-111633981D01*
X142877303Y-111468638D01*
X142904500Y-111296926D01*
X142904500Y-111135536D01*
X156245500Y-111135536D01*
X156245500Y-111264463D01*
X156270651Y-111390909D01*
X156319989Y-111510023D01*
X156391616Y-111617219D01*
X156482780Y-111708383D01*
X156589976Y-111780010D01*
X156589977Y-111780010D01*
X156589978Y-111780011D01*
X156709089Y-111829348D01*
X156835537Y-111854500D01*
X156964463Y-111854500D01*
X157090911Y-111829348D01*
X157210022Y-111780011D01*
X157317220Y-111708383D01*
X157408383Y-111617220D01*
X157480011Y-111510022D01*
X157529348Y-111390911D01*
X157554500Y-111264463D01*
X157554500Y-111135537D01*
X157554500Y-111135536D01*
X158245500Y-111135536D01*
X158245500Y-111264463D01*
X158270651Y-111390909D01*
X158319989Y-111510023D01*
X158391616Y-111617219D01*
X158482780Y-111708383D01*
X158589976Y-111780010D01*
X158589977Y-111780010D01*
X158589978Y-111780011D01*
X158709089Y-111829348D01*
X158835537Y-111854500D01*
X158964463Y-111854500D01*
X159090911Y-111829348D01*
X159210022Y-111780011D01*
X159317220Y-111708383D01*
X159408383Y-111617220D01*
X159480011Y-111510022D01*
X159529348Y-111390911D01*
X159554500Y-111264463D01*
X159554500Y-111135537D01*
X159554499Y-111135531D01*
X159553958Y-111132809D01*
X159552022Y-111123076D01*
X162495500Y-111123076D01*
X162495500Y-111296923D01*
X162495501Y-111296937D01*
X162522696Y-111468637D01*
X162576419Y-111633979D01*
X162576423Y-111633987D01*
X162655348Y-111788886D01*
X162757534Y-111929532D01*
X162757541Y-111929540D01*
X162880459Y-112052458D01*
X162880467Y-112052465D01*
X163021116Y-112154653D01*
X163176019Y-112233580D01*
X163341362Y-112287303D01*
X163513074Y-112314500D01*
X163513076Y-112314500D01*
X163686924Y-112314500D01*
X163686926Y-112314500D01*
X163858638Y-112287303D01*
X164023981Y-112233580D01*
X164178884Y-112154653D01*
X164319533Y-112052465D01*
X164442465Y-111929533D01*
X164544653Y-111788884D01*
X164623580Y-111633981D01*
X164677303Y-111468638D01*
X164704500Y-111296926D01*
X164704500Y-111123074D01*
X164677303Y-110951362D01*
X164623580Y-110786019D01*
X164544653Y-110631116D01*
X164442465Y-110490467D01*
X164442458Y-110490459D01*
X164319540Y-110367541D01*
X164319532Y-110367534D01*
X164178886Y-110265348D01*
X164023987Y-110186423D01*
X164023979Y-110186419D01*
X163858636Y-110132696D01*
X163858637Y-110132696D01*
X163686937Y-110105501D01*
X163686927Y-110105500D01*
X163686926Y-110105500D01*
X163513074Y-110105500D01*
X163513072Y-110105500D01*
X163513062Y-110105501D01*
X163341362Y-110132696D01*
X163176020Y-110186419D01*
X163176012Y-110186423D01*
X163021113Y-110265348D01*
X162880467Y-110367534D01*
X162880459Y-110367541D01*
X162757541Y-110490459D01*
X162757534Y-110490467D01*
X162655348Y-110631113D01*
X162576423Y-110786012D01*
X162576419Y-110786020D01*
X162522696Y-110951362D01*
X162495501Y-111123062D01*
X162495500Y-111123076D01*
X159552022Y-111123076D01*
X159529348Y-111009090D01*
X159480010Y-110889976D01*
X159408383Y-110782780D01*
X159317219Y-110691616D01*
X159210023Y-110619989D01*
X159090909Y-110570651D01*
X158964463Y-110545500D01*
X158835537Y-110545500D01*
X158709090Y-110570651D01*
X158589976Y-110619989D01*
X158482780Y-110691616D01*
X158391616Y-110782780D01*
X158319989Y-110889976D01*
X158270651Y-111009090D01*
X158245500Y-111135536D01*
X157554500Y-111135536D01*
X157529348Y-111009089D01*
X157480011Y-110889978D01*
X157408383Y-110782780D01*
X157317220Y-110691617D01*
X157317219Y-110691616D01*
X157210023Y-110619989D01*
X157090909Y-110570651D01*
X156964463Y-110545500D01*
X156835537Y-110545500D01*
X156709090Y-110570651D01*
X156589976Y-110619989D01*
X156482780Y-110691616D01*
X156391616Y-110782780D01*
X156319989Y-110889976D01*
X156270651Y-111009090D01*
X156245500Y-111135536D01*
X142904500Y-111135536D01*
X142904500Y-111123074D01*
X142877303Y-110951362D01*
X142823580Y-110786019D01*
X142744653Y-110631116D01*
X142642465Y-110490467D01*
X142642458Y-110490459D01*
X142519540Y-110367541D01*
X142519532Y-110367534D01*
X142378886Y-110265348D01*
X142223987Y-110186423D01*
X142223979Y-110186419D01*
X142058636Y-110132696D01*
X142058637Y-110132696D01*
X141886937Y-110105501D01*
X141886927Y-110105500D01*
X141886926Y-110105500D01*
X141713074Y-110105500D01*
X141713072Y-110105500D01*
X141713062Y-110105501D01*
X141541362Y-110132696D01*
X141376020Y-110186419D01*
X141376012Y-110186423D01*
X141221113Y-110265348D01*
X141080467Y-110367534D01*
X141080459Y-110367541D01*
X140957541Y-110490459D01*
X140957534Y-110490467D01*
X140855348Y-110631113D01*
X140776423Y-110786012D01*
X140776419Y-110786020D01*
X140722696Y-110951362D01*
X140695501Y-111123062D01*
X140695500Y-111123076D01*
X140400000Y-111123076D01*
X140400000Y-108583076D01*
X140695500Y-108583076D01*
X140695500Y-108756923D01*
X140695501Y-108756937D01*
X140722696Y-108928637D01*
X140776419Y-109093979D01*
X140776423Y-109093987D01*
X140855348Y-109248886D01*
X140957534Y-109389532D01*
X140957541Y-109389540D01*
X141080459Y-109512458D01*
X141080467Y-109512465D01*
X141221116Y-109614653D01*
X141376019Y-109693580D01*
X141541362Y-109747303D01*
X141713074Y-109774500D01*
X141713076Y-109774500D01*
X141886924Y-109774500D01*
X141886926Y-109774500D01*
X142058638Y-109747303D01*
X142223981Y-109693580D01*
X142337899Y-109635536D01*
X146845500Y-109635536D01*
X146845500Y-109764463D01*
X146870651Y-109890909D01*
X146919989Y-110010023D01*
X146991616Y-110117219D01*
X147082780Y-110208383D01*
X147189976Y-110280010D01*
X147189977Y-110280010D01*
X147189978Y-110280011D01*
X147309089Y-110329348D01*
X147435537Y-110354500D01*
X147564463Y-110354500D01*
X147690911Y-110329348D01*
X147810022Y-110280011D01*
X147917220Y-110208383D01*
X148005806Y-110119797D01*
X148050000Y-110101491D01*
X148094194Y-110119797D01*
X148182780Y-110208383D01*
X148289976Y-110280010D01*
X148289977Y-110280010D01*
X148289978Y-110280011D01*
X148409089Y-110329348D01*
X148535537Y-110354500D01*
X148664463Y-110354500D01*
X148790911Y-110329348D01*
X148910022Y-110280011D01*
X149017220Y-110208383D01*
X149105806Y-110119797D01*
X149150000Y-110101491D01*
X149194194Y-110119797D01*
X149282780Y-110208383D01*
X149389976Y-110280010D01*
X149389977Y-110280010D01*
X149389978Y-110280011D01*
X149509089Y-110329348D01*
X149635537Y-110354500D01*
X149764463Y-110354500D01*
X149890911Y-110329348D01*
X150010022Y-110280011D01*
X150117220Y-110208383D01*
X150205806Y-110119797D01*
X150250000Y-110101491D01*
X150294194Y-110119797D01*
X150382780Y-110208383D01*
X150489976Y-110280010D01*
X150489977Y-110280010D01*
X150489978Y-110280011D01*
X150609089Y-110329348D01*
X150735537Y-110354500D01*
X150864463Y-110354500D01*
X150990911Y-110329348D01*
X151110022Y-110280011D01*
X151217220Y-110208383D01*
X151305806Y-110119797D01*
X151350000Y-110101491D01*
X151394194Y-110119797D01*
X151482780Y-110208383D01*
X151589976Y-110280010D01*
X151589977Y-110280010D01*
X151589978Y-110280011D01*
X151709089Y-110329348D01*
X151835537Y-110354500D01*
X151964463Y-110354500D01*
X152090911Y-110329348D01*
X152210022Y-110280011D01*
X152317220Y-110208383D01*
X152405806Y-110119797D01*
X152450000Y-110101491D01*
X152494194Y-110119797D01*
X152582780Y-110208383D01*
X152689976Y-110280010D01*
X152689977Y-110280010D01*
X152689978Y-110280011D01*
X152809089Y-110329348D01*
X152935537Y-110354500D01*
X153064463Y-110354500D01*
X153190911Y-110329348D01*
X153310022Y-110280011D01*
X153417220Y-110208383D01*
X153505806Y-110119797D01*
X153550000Y-110101491D01*
X153594194Y-110119797D01*
X153682780Y-110208383D01*
X153789976Y-110280010D01*
X153789977Y-110280010D01*
X153789978Y-110280011D01*
X153909089Y-110329348D01*
X154035537Y-110354500D01*
X154164463Y-110354500D01*
X154290911Y-110329348D01*
X154410022Y-110280011D01*
X154517220Y-110208383D01*
X154605806Y-110119797D01*
X154650000Y-110101491D01*
X154694194Y-110119797D01*
X154782780Y-110208383D01*
X154889976Y-110280010D01*
X154889977Y-110280010D01*
X154889978Y-110280011D01*
X155009089Y-110329348D01*
X155135537Y-110354500D01*
X155264463Y-110354500D01*
X155390911Y-110329348D01*
X155510022Y-110280011D01*
X155617220Y-110208383D01*
X155708383Y-110117220D01*
X155780011Y-110010022D01*
X155829348Y-109890911D01*
X155854500Y-109764463D01*
X155854500Y-109635537D01*
X155829348Y-109509089D01*
X155780011Y-109389978D01*
X155779718Y-109389540D01*
X155708383Y-109282780D01*
X155617219Y-109191616D01*
X155510023Y-109119989D01*
X155390909Y-109070651D01*
X155264463Y-109045500D01*
X155135537Y-109045500D01*
X155009090Y-109070651D01*
X154889976Y-109119989D01*
X154782780Y-109191616D01*
X154782778Y-109191618D01*
X154694194Y-109280203D01*
X154650000Y-109298509D01*
X154605806Y-109280203D01*
X154517219Y-109191616D01*
X154410023Y-109119989D01*
X154290909Y-109070651D01*
X154164463Y-109045500D01*
X154035537Y-109045500D01*
X153909090Y-109070651D01*
X153789976Y-109119989D01*
X153682780Y-109191616D01*
X153682778Y-109191618D01*
X153594194Y-109280203D01*
X153550000Y-109298509D01*
X153505806Y-109280203D01*
X153417219Y-109191616D01*
X153310023Y-109119989D01*
X153190909Y-109070651D01*
X153064463Y-109045500D01*
X152935537Y-109045500D01*
X152809090Y-109070651D01*
X152689976Y-109119989D01*
X152582780Y-109191616D01*
X152582778Y-109191618D01*
X152494194Y-109280203D01*
X152450000Y-109298509D01*
X152405806Y-109280203D01*
X152317219Y-109191616D01*
X152210023Y-109119989D01*
X152090909Y-109070651D01*
X151964463Y-109045500D01*
X151835537Y-109045500D01*
X151709090Y-109070651D01*
X151589976Y-109119989D01*
X151482780Y-109191616D01*
X151482778Y-109191618D01*
X151394194Y-109280203D01*
X151350000Y-109298509D01*
X151305806Y-109280203D01*
X151217219Y-109191616D01*
X151110023Y-109119989D01*
X150990909Y-109070651D01*
X150864463Y-109045500D01*
X150735537Y-109045500D01*
X150609090Y-109070651D01*
X150489976Y-109119989D01*
X150382780Y-109191616D01*
X150382778Y-109191618D01*
X150294194Y-109280203D01*
X150250000Y-109298509D01*
X150205806Y-109280203D01*
X150117219Y-109191616D01*
X150010023Y-109119989D01*
X149890909Y-109070651D01*
X149764463Y-109045500D01*
X149635537Y-109045500D01*
X149509090Y-109070651D01*
X149389976Y-109119989D01*
X149282780Y-109191616D01*
X149282778Y-109191618D01*
X149194194Y-109280203D01*
X149150000Y-109298509D01*
X149105806Y-109280203D01*
X149017219Y-109191616D01*
X148910023Y-109119989D01*
X148790909Y-109070651D01*
X148664463Y-109045500D01*
X148535537Y-109045500D01*
X148409090Y-109070651D01*
X148289976Y-109119989D01*
X148182780Y-109191616D01*
X148182778Y-109191618D01*
X148094194Y-109280203D01*
X148050000Y-109298509D01*
X148005806Y-109280203D01*
X147917219Y-109191616D01*
X147810023Y-109119989D01*
X147690909Y-109070651D01*
X147564463Y-109045500D01*
X147435537Y-109045500D01*
X147309090Y-109070651D01*
X147189976Y-109119989D01*
X147082780Y-109191616D01*
X146991616Y-109282780D01*
X146919989Y-109389976D01*
X146870651Y-109509090D01*
X146845500Y-109635536D01*
X142337899Y-109635536D01*
X142378884Y-109614653D01*
X142519533Y-109512465D01*
X142642465Y-109389533D01*
X142744653Y-109248884D01*
X142823580Y-109093981D01*
X142877303Y-108928638D01*
X142904500Y-108756926D01*
X142904500Y-108583076D01*
X162495500Y-108583076D01*
X162495500Y-108756923D01*
X162495501Y-108756937D01*
X162522696Y-108928637D01*
X162576419Y-109093979D01*
X162576423Y-109093987D01*
X162655348Y-109248886D01*
X162757534Y-109389532D01*
X162757541Y-109389540D01*
X162880459Y-109512458D01*
X162880467Y-109512465D01*
X163021116Y-109614653D01*
X163176019Y-109693580D01*
X163341362Y-109747303D01*
X163513074Y-109774500D01*
X163513076Y-109774500D01*
X163686924Y-109774500D01*
X163686926Y-109774500D01*
X163858638Y-109747303D01*
X164023981Y-109693580D01*
X164178884Y-109614653D01*
X164319533Y-109512465D01*
X164442465Y-109389533D01*
X164544653Y-109248884D01*
X164623580Y-109093981D01*
X164677303Y-108928638D01*
X164704500Y-108756926D01*
X164704500Y-108583074D01*
X164677303Y-108411362D01*
X164623580Y-108246019D01*
X164544653Y-108091116D01*
X164442465Y-107950467D01*
X164442458Y-107950459D01*
X164319540Y-107827541D01*
X164319532Y-107827534D01*
X164178886Y-107725348D01*
X164023987Y-107646423D01*
X164023979Y-107646419D01*
X163858636Y-107592696D01*
X163858637Y-107592696D01*
X163686937Y-107565501D01*
X163686927Y-107565500D01*
X163686926Y-107565500D01*
X163513074Y-107565500D01*
X163513072Y-107565500D01*
X163513062Y-107565501D01*
X163341362Y-107592696D01*
X163176020Y-107646419D01*
X163176012Y-107646423D01*
X163021113Y-107725348D01*
X162880467Y-107827534D01*
X162880459Y-107827541D01*
X162757541Y-107950459D01*
X162757534Y-107950467D01*
X162655348Y-108091113D01*
X162576423Y-108246012D01*
X162576419Y-108246020D01*
X162522696Y-108411362D01*
X162495501Y-108583062D01*
X162495500Y-108583076D01*
X142904500Y-108583076D01*
X142904500Y-108583074D01*
X142877303Y-108411362D01*
X142823580Y-108246019D01*
X142744653Y-108091116D01*
X142642465Y-107950467D01*
X142642458Y-107950459D01*
X142519540Y-107827541D01*
X142519532Y-107827534D01*
X142378886Y-107725348D01*
X142223987Y-107646423D01*
X142223979Y-107646419D01*
X142058636Y-107592696D01*
X142058637Y-107592696D01*
X141886937Y-107565501D01*
X141886927Y-107565500D01*
X141886926Y-107565500D01*
X141713074Y-107565500D01*
X141713072Y-107565500D01*
X141713062Y-107565501D01*
X141541362Y-107592696D01*
X141376020Y-107646419D01*
X141376012Y-107646423D01*
X141221113Y-107725348D01*
X141080467Y-107827534D01*
X141080459Y-107827541D01*
X140957541Y-107950459D01*
X140957534Y-107950467D01*
X140855348Y-108091113D01*
X140776423Y-108246012D01*
X140776419Y-108246020D01*
X140722696Y-108411362D01*
X140695501Y-108583062D01*
X140695500Y-108583076D01*
X140400000Y-108583076D01*
X140400000Y-106043076D01*
X140695500Y-106043076D01*
X140695500Y-106216923D01*
X140695501Y-106216937D01*
X140722696Y-106388637D01*
X140776419Y-106553979D01*
X140776423Y-106553987D01*
X140855348Y-106708886D01*
X140957534Y-106849532D01*
X140957541Y-106849540D01*
X141080459Y-106972458D01*
X141080467Y-106972465D01*
X141221116Y-107074653D01*
X141376019Y-107153580D01*
X141541362Y-107207303D01*
X141713074Y-107234500D01*
X141713076Y-107234500D01*
X141886924Y-107234500D01*
X141886926Y-107234500D01*
X142058638Y-107207303D01*
X142223981Y-107153580D01*
X142378884Y-107074653D01*
X142519533Y-106972465D01*
X142642465Y-106849533D01*
X142744653Y-106708884D01*
X142823580Y-106553981D01*
X142877303Y-106388638D01*
X142904500Y-106216926D01*
X142904500Y-106065536D01*
X148845500Y-106065536D01*
X148845500Y-106194463D01*
X148870651Y-106320909D01*
X148919989Y-106440023D01*
X148991616Y-106547219D01*
X149082780Y-106638383D01*
X149189976Y-106710010D01*
X149189977Y-106710010D01*
X149189978Y-106710011D01*
X149309089Y-106759348D01*
X149435537Y-106784500D01*
X149564463Y-106784500D01*
X149690911Y-106759348D01*
X149810022Y-106710011D01*
X149917220Y-106638383D01*
X150008383Y-106547220D01*
X150080011Y-106440022D01*
X150129348Y-106320911D01*
X150154500Y-106194463D01*
X150154500Y-106065537D01*
X150153814Y-106062088D01*
X150151969Y-106052810D01*
X150150033Y-106043076D01*
X162495500Y-106043076D01*
X162495500Y-106216923D01*
X162495501Y-106216937D01*
X162522696Y-106388637D01*
X162576419Y-106553979D01*
X162576423Y-106553987D01*
X162655348Y-106708886D01*
X162757534Y-106849532D01*
X162757541Y-106849540D01*
X162880459Y-106972458D01*
X162880467Y-106972465D01*
X163021116Y-107074653D01*
X163176019Y-107153580D01*
X163341362Y-107207303D01*
X163513074Y-107234500D01*
X163513076Y-107234500D01*
X163686924Y-107234500D01*
X163686926Y-107234500D01*
X163858638Y-107207303D01*
X164023981Y-107153580D01*
X164178884Y-107074653D01*
X164319533Y-106972465D01*
X164442465Y-106849533D01*
X164544653Y-106708884D01*
X164623580Y-106553981D01*
X164677303Y-106388638D01*
X164704500Y-106216926D01*
X164704500Y-106043074D01*
X164677303Y-105871362D01*
X164623580Y-105706019D01*
X164544653Y-105551116D01*
X164489714Y-105475500D01*
X164442465Y-105410467D01*
X164442458Y-105410459D01*
X164319540Y-105287541D01*
X164319532Y-105287534D01*
X164178886Y-105185348D01*
X164023987Y-105106423D01*
X164023979Y-105106419D01*
X163858636Y-105052696D01*
X163858637Y-105052696D01*
X163686937Y-105025501D01*
X163686927Y-105025500D01*
X163686926Y-105025500D01*
X163513074Y-105025500D01*
X163513072Y-105025500D01*
X163513062Y-105025501D01*
X163341362Y-105052696D01*
X163176020Y-105106419D01*
X163176012Y-105106423D01*
X163021113Y-105185348D01*
X162880467Y-105287534D01*
X162880459Y-105287541D01*
X162757541Y-105410459D01*
X162757534Y-105410467D01*
X162655348Y-105551113D01*
X162576423Y-105706012D01*
X162576419Y-105706020D01*
X162522696Y-105871362D01*
X162495501Y-106043062D01*
X162495500Y-106043076D01*
X150150033Y-106043076D01*
X150129348Y-105939090D01*
X150080010Y-105819976D01*
X150008383Y-105712780D01*
X149917219Y-105621616D01*
X149810023Y-105549989D01*
X149690909Y-105500651D01*
X149564463Y-105475500D01*
X149435537Y-105475500D01*
X149309090Y-105500651D01*
X149189976Y-105549989D01*
X149082780Y-105621616D01*
X148991616Y-105712780D01*
X148919989Y-105819976D01*
X148870651Y-105939090D01*
X148845500Y-106065536D01*
X142904500Y-106065536D01*
X142904500Y-106043074D01*
X142877303Y-105871362D01*
X142823580Y-105706019D01*
X142744653Y-105551116D01*
X142689714Y-105475500D01*
X142642465Y-105410467D01*
X142642458Y-105410459D01*
X142519540Y-105287541D01*
X142519532Y-105287534D01*
X142378886Y-105185348D01*
X142223987Y-105106423D01*
X142223979Y-105106419D01*
X142058636Y-105052696D01*
X142058637Y-105052696D01*
X141886937Y-105025501D01*
X141886927Y-105025500D01*
X141886926Y-105025500D01*
X141713074Y-105025500D01*
X141713072Y-105025500D01*
X141713062Y-105025501D01*
X141541362Y-105052696D01*
X141376020Y-105106419D01*
X141376012Y-105106423D01*
X141221113Y-105185348D01*
X141080467Y-105287534D01*
X141080459Y-105287541D01*
X140957541Y-105410459D01*
X140957534Y-105410467D01*
X140855348Y-105551113D01*
X140776423Y-105706012D01*
X140776419Y-105706020D01*
X140722696Y-105871362D01*
X140695501Y-106043062D01*
X140695500Y-106043076D01*
X140400000Y-106043076D01*
X140400000Y-103503076D01*
X140695500Y-103503076D01*
X140695500Y-103676923D01*
X140695501Y-103676937D01*
X140722696Y-103848637D01*
X140776419Y-104013979D01*
X140776423Y-104013987D01*
X140855348Y-104168886D01*
X140957534Y-104309532D01*
X140957541Y-104309540D01*
X141080459Y-104432458D01*
X141080467Y-104432465D01*
X141221116Y-104534653D01*
X141376019Y-104613580D01*
X141541362Y-104667303D01*
X141713074Y-104694500D01*
X141713076Y-104694500D01*
X141886924Y-104694500D01*
X141886926Y-104694500D01*
X142058638Y-104667303D01*
X142223981Y-104613580D01*
X142378884Y-104534653D01*
X142519533Y-104432465D01*
X142642465Y-104309533D01*
X142744653Y-104168884D01*
X142823580Y-104013981D01*
X142877303Y-103848638D01*
X142904500Y-103676926D01*
X142904500Y-103525536D01*
X148845500Y-103525536D01*
X148845500Y-103654463D01*
X148870651Y-103780909D01*
X148919989Y-103900023D01*
X148991616Y-104007219D01*
X149082780Y-104098383D01*
X149189976Y-104170010D01*
X149189977Y-104170010D01*
X149189978Y-104170011D01*
X149309089Y-104219348D01*
X149435537Y-104244500D01*
X149564463Y-104244500D01*
X149690911Y-104219348D01*
X149810022Y-104170011D01*
X149917220Y-104098383D01*
X150008383Y-104007220D01*
X150080011Y-103900022D01*
X150129348Y-103780911D01*
X150154500Y-103654463D01*
X150154500Y-103525537D01*
X150129348Y-103399089D01*
X150080011Y-103279978D01*
X150008383Y-103172780D01*
X149917220Y-103081617D01*
X149917219Y-103081616D01*
X149810023Y-103009989D01*
X149690909Y-102960651D01*
X149564463Y-102935500D01*
X149435537Y-102935500D01*
X149309090Y-102960651D01*
X149189976Y-103009989D01*
X149082780Y-103081616D01*
X148991616Y-103172780D01*
X148919989Y-103279976D01*
X148870651Y-103399090D01*
X148845500Y-103525536D01*
X142904500Y-103525536D01*
X142904500Y-103503074D01*
X142877303Y-103331362D01*
X142823580Y-103166019D01*
X142744653Y-103011116D01*
X142689714Y-102935500D01*
X142642465Y-102870467D01*
X142642458Y-102870459D01*
X142519540Y-102747541D01*
X142519532Y-102747534D01*
X142378886Y-102645348D01*
X142223987Y-102566423D01*
X142223979Y-102566419D01*
X142139261Y-102538893D01*
X142058636Y-102512696D01*
X142058637Y-102512696D01*
X141886937Y-102485501D01*
X141886927Y-102485500D01*
X141886926Y-102485500D01*
X141713074Y-102485500D01*
X141713072Y-102485500D01*
X141713062Y-102485501D01*
X141541362Y-102512696D01*
X141376020Y-102566419D01*
X141376012Y-102566423D01*
X141221113Y-102645348D01*
X141080467Y-102747534D01*
X141080459Y-102747541D01*
X140957541Y-102870459D01*
X140957534Y-102870467D01*
X140855348Y-103011113D01*
X140776423Y-103166012D01*
X140776419Y-103166020D01*
X140722696Y-103331362D01*
X140695501Y-103503062D01*
X140695500Y-103503076D01*
X140400000Y-103503076D01*
X140400000Y-102481908D01*
X157399500Y-102481908D01*
X157399500Y-102718092D01*
X157423632Y-102870459D01*
X157436448Y-102951372D01*
X157509431Y-103175990D01*
X157509435Y-103175998D01*
X157616658Y-103386435D01*
X157755482Y-103577509D01*
X157755489Y-103577517D01*
X157922482Y-103744510D01*
X157922490Y-103744517D01*
X158113567Y-103883343D01*
X158324008Y-103990568D01*
X158548632Y-104063553D01*
X158781908Y-104100500D01*
X158781910Y-104100500D01*
X159018090Y-104100500D01*
X159018092Y-104100500D01*
X159251368Y-104063553D01*
X159475992Y-103990568D01*
X159686433Y-103883343D01*
X159877510Y-103744517D01*
X160044517Y-103577510D01*
X160098597Y-103503076D01*
X162495500Y-103503076D01*
X162495500Y-103676923D01*
X162495501Y-103676937D01*
X162522696Y-103848637D01*
X162576419Y-104013979D01*
X162576423Y-104013987D01*
X162655348Y-104168886D01*
X162757534Y-104309532D01*
X162757541Y-104309540D01*
X162880459Y-104432458D01*
X162880467Y-104432465D01*
X163021116Y-104534653D01*
X163176019Y-104613580D01*
X163341362Y-104667303D01*
X163513074Y-104694500D01*
X163513076Y-104694500D01*
X163686924Y-104694500D01*
X163686926Y-104694500D01*
X163858638Y-104667303D01*
X164023981Y-104613580D01*
X164178884Y-104534653D01*
X164319533Y-104432465D01*
X164442465Y-104309533D01*
X164544653Y-104168884D01*
X164623580Y-104013981D01*
X164677303Y-103848638D01*
X164704500Y-103676926D01*
X164704500Y-103503074D01*
X164677303Y-103331362D01*
X164623580Y-103166019D01*
X164544653Y-103011116D01*
X164489714Y-102935500D01*
X164442465Y-102870467D01*
X164442458Y-102870459D01*
X164319540Y-102747541D01*
X164319532Y-102747534D01*
X164178886Y-102645348D01*
X164023987Y-102566423D01*
X164023979Y-102566419D01*
X163858636Y-102512696D01*
X163858637Y-102512696D01*
X163686937Y-102485501D01*
X163686927Y-102485500D01*
X163686926Y-102485500D01*
X163513074Y-102485500D01*
X163513072Y-102485500D01*
X163513062Y-102485501D01*
X163341362Y-102512696D01*
X163176020Y-102566419D01*
X163176012Y-102566423D01*
X163021113Y-102645348D01*
X162880467Y-102747534D01*
X162880459Y-102747541D01*
X162757541Y-102870459D01*
X162757534Y-102870467D01*
X162655348Y-103011113D01*
X162576423Y-103166012D01*
X162576419Y-103166020D01*
X162522696Y-103331362D01*
X162495501Y-103503062D01*
X162495500Y-103503076D01*
X160098597Y-103503076D01*
X160183343Y-103386433D01*
X160290568Y-103175992D01*
X160363553Y-102951368D01*
X160400500Y-102718092D01*
X160400500Y-102481908D01*
X160363553Y-102248632D01*
X160290568Y-102024008D01*
X160183343Y-101813567D01*
X160044517Y-101622490D01*
X160044510Y-101622482D01*
X159877517Y-101455489D01*
X159877509Y-101455482D01*
X159686435Y-101316658D01*
X159475994Y-101209433D01*
X159475993Y-101209432D01*
X159475992Y-101209432D01*
X159354959Y-101170106D01*
X159251372Y-101136448D01*
X159251370Y-101136447D01*
X159251368Y-101136447D01*
X159088489Y-101110649D01*
X159018093Y-101099500D01*
X159018092Y-101099500D01*
X158781908Y-101099500D01*
X158781906Y-101099500D01*
X158641113Y-101121799D01*
X158548632Y-101136447D01*
X158548630Y-101136447D01*
X158548627Y-101136448D01*
X158324009Y-101209431D01*
X158324001Y-101209435D01*
X158113564Y-101316658D01*
X157922490Y-101455482D01*
X157922482Y-101455489D01*
X157755489Y-101622482D01*
X157755482Y-101622490D01*
X157616658Y-101813564D01*
X157509435Y-102024001D01*
X157509431Y-102024009D01*
X157436448Y-102248627D01*
X157436447Y-102248630D01*
X157436447Y-102248632D01*
X157399500Y-102481908D01*
X140400000Y-102481908D01*
X140400000Y-100174982D01*
X140696000Y-100174982D01*
X140696000Y-100923000D01*
X141316392Y-100923000D01*
X141300000Y-100984174D01*
X141300000Y-101115826D01*
X141316392Y-101177000D01*
X140696001Y-101177000D01*
X140696001Y-101925018D01*
X140710736Y-101999104D01*
X140710738Y-101999108D01*
X140766876Y-102083123D01*
X140850891Y-102139261D01*
X140850895Y-102139263D01*
X140924982Y-102153999D01*
X141673000Y-102153999D01*
X141673000Y-101533608D01*
X141734174Y-101550000D01*
X141865826Y-101550000D01*
X141927000Y-101533608D01*
X141927000Y-102153999D01*
X142675015Y-102153999D01*
X142675018Y-102153998D01*
X142749104Y-102139263D01*
X142749108Y-102139261D01*
X142833123Y-102083123D01*
X142889261Y-101999108D01*
X142889263Y-101999104D01*
X142903999Y-101925017D01*
X142904000Y-101925017D01*
X142904000Y-101177000D01*
X142283608Y-101177000D01*
X142300000Y-101115826D01*
X142300000Y-100984174D01*
X142283608Y-100923000D01*
X142903999Y-100923000D01*
X142903999Y-100435536D01*
X146845500Y-100435536D01*
X146845500Y-100564463D01*
X146870651Y-100690909D01*
X146919989Y-100810023D01*
X146991616Y-100917219D01*
X147082780Y-101008383D01*
X147189976Y-101080010D01*
X147189977Y-101080010D01*
X147189978Y-101080011D01*
X147309089Y-101129348D01*
X147435537Y-101154500D01*
X147564463Y-101154500D01*
X147690911Y-101129348D01*
X147810022Y-101080011D01*
X147917220Y-101008383D01*
X148005806Y-100919797D01*
X148050000Y-100901491D01*
X148094194Y-100919797D01*
X148182780Y-101008383D01*
X148289976Y-101080010D01*
X148289977Y-101080010D01*
X148289978Y-101080011D01*
X148409089Y-101129348D01*
X148535537Y-101154500D01*
X148664463Y-101154500D01*
X148790911Y-101129348D01*
X148910022Y-101080011D01*
X149017220Y-101008383D01*
X149108383Y-100917220D01*
X149180011Y-100810022D01*
X149229348Y-100690911D01*
X149254500Y-100564463D01*
X149254500Y-100435537D01*
X149229348Y-100309089D01*
X149229347Y-100309088D01*
X149229347Y-100309085D01*
X149182436Y-100195831D01*
X149182435Y-100195830D01*
X149180011Y-100189979D01*
X149180010Y-100189976D01*
X149169991Y-100174982D01*
X162496000Y-100174982D01*
X162496000Y-100923000D01*
X163116392Y-100923000D01*
X163100000Y-100984174D01*
X163100000Y-101115826D01*
X163116392Y-101177000D01*
X162496001Y-101177000D01*
X162496001Y-101925018D01*
X162510736Y-101999104D01*
X162510738Y-101999108D01*
X162566876Y-102083123D01*
X162650891Y-102139261D01*
X162650895Y-102139263D01*
X162724982Y-102153999D01*
X163473000Y-102153999D01*
X163473000Y-101533608D01*
X163534174Y-101550000D01*
X163665826Y-101550000D01*
X163727000Y-101533608D01*
X163727000Y-102153999D01*
X164475015Y-102153999D01*
X164475018Y-102153998D01*
X164549104Y-102139263D01*
X164549108Y-102139261D01*
X164633123Y-102083123D01*
X164689261Y-101999108D01*
X164689263Y-101999104D01*
X164703999Y-101925017D01*
X164704000Y-101925017D01*
X164704000Y-101177000D01*
X164083608Y-101177000D01*
X164100000Y-101115826D01*
X164100000Y-100984174D01*
X164083608Y-100923000D01*
X164703999Y-100923000D01*
X164703999Y-100174985D01*
X164703998Y-100174981D01*
X164689263Y-100100895D01*
X164689261Y-100100891D01*
X164633123Y-100016876D01*
X164549108Y-99960738D01*
X164549104Y-99960736D01*
X164475017Y-99946000D01*
X163727000Y-99946000D01*
X163727000Y-100566391D01*
X163665826Y-100550000D01*
X163534174Y-100550000D01*
X163473000Y-100566391D01*
X163473000Y-99946000D01*
X162724985Y-99946000D01*
X162724981Y-99946001D01*
X162650895Y-99960736D01*
X162650891Y-99960738D01*
X162566876Y-100016876D01*
X162510738Y-100100891D01*
X162510736Y-100100895D01*
X162496000Y-100174982D01*
X149169991Y-100174982D01*
X149108383Y-100082780D01*
X149017219Y-99991616D01*
X148910023Y-99919989D01*
X148790909Y-99870651D01*
X148664463Y-99845500D01*
X148535537Y-99845500D01*
X148409090Y-99870651D01*
X148289976Y-99919989D01*
X148182780Y-99991616D01*
X148182778Y-99991618D01*
X148094194Y-100080203D01*
X148050000Y-100098509D01*
X148005806Y-100080203D01*
X147917219Y-99991616D01*
X147810023Y-99919989D01*
X147690909Y-99870651D01*
X147564463Y-99845500D01*
X147435537Y-99845500D01*
X147309090Y-99870651D01*
X147189976Y-99919989D01*
X147082780Y-99991616D01*
X146991616Y-100082780D01*
X146919989Y-100189976D01*
X146870651Y-100309090D01*
X146845500Y-100435536D01*
X142903999Y-100435536D01*
X142903999Y-100174985D01*
X142903998Y-100174981D01*
X142889263Y-100100895D01*
X142889261Y-100100891D01*
X142833123Y-100016876D01*
X142749108Y-99960738D01*
X142749104Y-99960736D01*
X142675017Y-99946000D01*
X141927000Y-99946000D01*
X141927000Y-100566391D01*
X141865826Y-100550000D01*
X141734174Y-100550000D01*
X141673000Y-100566391D01*
X141673000Y-99946000D01*
X140924985Y-99946000D01*
X140924981Y-99946001D01*
X140850895Y-99960736D01*
X140850891Y-99960738D01*
X140766876Y-100016876D01*
X140710738Y-100100891D01*
X140710736Y-100100895D01*
X140696000Y-100174982D01*
X140400000Y-100174982D01*
X140400000Y-81787214D01*
X147581000Y-81787214D01*
X147581000Y-81932785D01*
X147609399Y-82075557D01*
X147665107Y-82210049D01*
X147715269Y-82285124D01*
X148091360Y-81909033D01*
X148125015Y-81990285D01*
X148189715Y-82054985D01*
X148270965Y-82088639D01*
X147894874Y-82464729D01*
X147969950Y-82514892D01*
X148104442Y-82570600D01*
X148247214Y-82598999D01*
X148247215Y-82599000D01*
X148392785Y-82599000D01*
X148392785Y-82598999D01*
X148535557Y-82570600D01*
X148670049Y-82514893D01*
X148745124Y-82464729D01*
X148369034Y-82088639D01*
X148450285Y-82054985D01*
X148514985Y-81990285D01*
X148548639Y-81909034D01*
X148924729Y-82285124D01*
X148974893Y-82210049D01*
X149030600Y-82075557D01*
X149058999Y-81932785D01*
X149059000Y-81932785D01*
X149059000Y-81787215D01*
X149058999Y-81787214D01*
X156341000Y-81787214D01*
X156341000Y-81932785D01*
X156369399Y-82075557D01*
X156425107Y-82210049D01*
X156475269Y-82285124D01*
X156851360Y-81909033D01*
X156885015Y-81990285D01*
X156949715Y-82054985D01*
X157030965Y-82088639D01*
X156654874Y-82464729D01*
X156729950Y-82514892D01*
X156864442Y-82570600D01*
X157007214Y-82598999D01*
X157007215Y-82599000D01*
X157152785Y-82599000D01*
X157152785Y-82598999D01*
X157295557Y-82570600D01*
X157430049Y-82514893D01*
X157505124Y-82464729D01*
X157129034Y-82088639D01*
X157210285Y-82054985D01*
X157274985Y-81990285D01*
X157308639Y-81909034D01*
X157684729Y-82285124D01*
X157734893Y-82210049D01*
X157790600Y-82075557D01*
X157818999Y-81932785D01*
X157819000Y-81932785D01*
X157819000Y-81787215D01*
X157818999Y-81787214D01*
X157790600Y-81644442D01*
X157734892Y-81509950D01*
X157684729Y-81434874D01*
X157308639Y-81810964D01*
X157274985Y-81729715D01*
X157210285Y-81665015D01*
X157129033Y-81631359D01*
X157505124Y-81255269D01*
X157430049Y-81205107D01*
X157295557Y-81149399D01*
X157152785Y-81121000D01*
X157007215Y-81121000D01*
X156864442Y-81149399D01*
X156729950Y-81205107D01*
X156654875Y-81255270D01*
X157030965Y-81631360D01*
X156949715Y-81665015D01*
X156885015Y-81729715D01*
X156851360Y-81810965D01*
X156475270Y-81434875D01*
X156425107Y-81509950D01*
X156369399Y-81644442D01*
X156341000Y-81787214D01*
X149058999Y-81787214D01*
X149030600Y-81644442D01*
X148974892Y-81509950D01*
X148924729Y-81434874D01*
X148548639Y-81810964D01*
X148514985Y-81729715D01*
X148450285Y-81665015D01*
X148369033Y-81631359D01*
X148745124Y-81255269D01*
X148670049Y-81205107D01*
X148535557Y-81149399D01*
X148392785Y-81121000D01*
X148247215Y-81121000D01*
X148104442Y-81149399D01*
X147969950Y-81205107D01*
X147894875Y-81255270D01*
X148270965Y-81631360D01*
X148189715Y-81665015D01*
X148125015Y-81729715D01*
X148091360Y-81810965D01*
X147715270Y-81434875D01*
X147665107Y-81509950D01*
X147609399Y-81644442D01*
X147581000Y-81787214D01*
X140400000Y-81787214D01*
X140400000Y-75962500D01*
X140418306Y-75918306D01*
X140462500Y-75900000D01*
X164937500Y-75900000D01*
X164981694Y-75918306D01*
G37*
%TD.AperFunction*%
%TD*%
M02*
