%TF.GenerationSoftware,KiCad,Pcbnew,9.0.7+1*%
%TF.CreationDate,2026-03-02T00:26:23+01:00*%
%TF.ProjectId,sensor_position,73656e73-6f72-45f7-906f-736974696f6e,rev?*%
%TF.SameCoordinates,Original*%
%TF.FileFunction,Soldermask,Top*%
%TF.FilePolarity,Negative*%
%FSLAX46Y46*%
G04 Gerber Fmt 4.6, Leading zero omitted, Abs format (unit mm)*
G04 Created by KiCad (PCBNEW 9.0.7+1) date 2026-03-02 00:26:23*
%MOMM*%
%LPD*%
G01*
G04 APERTURE LIST*
G04 Aperture macros list*
%AMRoundRect*
0 Rectangle with rounded corners*
0 $1 Rounding radius*
0 $2 $3 $4 $5 $6 $7 $8 $9 X,Y pos of 4 corners*
0 Add a 4 corners polygon primitive as box body*
4,1,4,$2,$3,$4,$5,$6,$7,$8,$9,$2,$3,0*
0 Add four circle primitives for the rounded corners*
1,1,$1+$1,$2,$3*
1,1,$1+$1,$4,$5*
1,1,$1+$1,$6,$7*
1,1,$1+$1,$8,$9*
0 Add four rect primitives between the rounded corners*
20,1,$1+$1,$2,$3,$4,$5,0*
20,1,$1+$1,$4,$5,$6,$7,0*
20,1,$1+$1,$6,$7,$8,$9,0*
20,1,$1+$1,$8,$9,$2,$3,0*%
%AMFreePoly0*
4,1,19,0.159954,0.482520,0.172125,0.472125,0.572125,0.072125,0.600744,0.015956,0.602000,0.000000,0.602000,-0.400000,0.582520,-0.459954,0.531520,-0.497008,0.500000,-0.502000,-0.500000,-0.502000,-0.559954,-0.482520,-0.597008,-0.431520,-0.602000,-0.400000,-0.602000,0.400000,-0.582520,0.459954,-0.531520,0.497008,-0.500000,0.502000,0.100000,0.502000,0.159954,0.482520,0.159954,0.482520,
$1*%
G04 Aperture macros list end*
%ADD10RoundRect,0.075000X-0.125000X0.261250X-0.125000X-0.261250X0.125000X-0.261250X0.125000X0.261250X0*%
%ADD11RoundRect,0.075000X-0.950000X0.550000X-0.950000X-0.550000X0.950000X-0.550000X0.950000X0.550000X0*%
%ADD12RoundRect,0.250000X0.475000X-0.337500X0.475000X0.337500X-0.475000X0.337500X-0.475000X-0.337500X0*%
%ADD13RoundRect,0.250000X-0.475000X0.337500X-0.475000X-0.337500X0.475000X-0.337500X0.475000X0.337500X0*%
%ADD14RoundRect,0.250000X0.337500X0.475000X-0.337500X0.475000X-0.337500X-0.475000X0.337500X-0.475000X0*%
%ADD15RoundRect,0.250000X-0.350000X-0.450000X0.350000X-0.450000X0.350000X0.450000X-0.350000X0.450000X0*%
%ADD16C,2.500000*%
%ADD17RoundRect,0.018750X-0.168750X-0.191250X0.168750X-0.191250X0.168750X0.191250X-0.168750X0.191250X0*%
%ADD18FreePoly0,270.000000*%
%ADD19RoundRect,0.102000X-0.400000X0.500000X-0.400000X-0.500000X0.400000X-0.500000X0.400000X0.500000X0*%
%ADD20RoundRect,0.250000X-0.450000X0.350000X-0.450000X-0.350000X0.450000X-0.350000X0.450000X0.350000X0*%
%ADD21RoundRect,0.250000X-0.337500X-0.475000X0.337500X-0.475000X0.337500X0.475000X-0.337500X0.475000X0*%
%ADD22RoundRect,0.250000X0.275000X0.350000X-0.275000X0.350000X-0.275000X-0.350000X0.275000X-0.350000X0*%
%ADD23RoundRect,0.073000X0.450000X0.800000X-0.450000X0.800000X-0.450000X-0.800000X0.450000X-0.800000X0*%
%ADD24RoundRect,0.075000X0.450000X0.800000X-0.450000X0.800000X-0.450000X-0.800000X0.450000X-0.800000X0*%
%ADD25R,2.290000X5.080000*%
%ADD26R,2.420000X5.080000*%
%ADD27R,1.700000X1.700000*%
%ADD28C,1.700000*%
G04 APERTURE END LIST*
D10*
%TO.C,U1*%
X152700000Y-89411250D03*
X152200000Y-89411250D03*
X151700000Y-89411250D03*
X151700000Y-91388750D03*
X152200000Y-91388750D03*
X152700000Y-91388750D03*
D11*
X152200000Y-90400000D03*
%TD*%
D12*
%TO.C,C7*%
X158900000Y-111200000D03*
X158900000Y-109125000D03*
%TD*%
D13*
%TO.C,C2*%
X152700000Y-84400000D03*
X152700000Y-86475000D03*
%TD*%
D14*
%TO.C,C1*%
X148700000Y-83300000D03*
X146625000Y-83300000D03*
%TD*%
D15*
%TO.C,R1*%
X152700000Y-84400000D03*
X154700000Y-84400000D03*
%TD*%
%TO.C,R2*%
X154100000Y-98200000D03*
X156100000Y-98200000D03*
%TD*%
D16*
%TO.C,REF\u002A\u002A*%
X158900000Y-102600000D03*
%TD*%
D17*
%TO.C,D1*%
X152227500Y-81840000D03*
X152652500Y-81840000D03*
%TD*%
D18*
%TO.C,U4*%
X152700000Y-93000000D03*
D19*
X152700000Y-94600000D03*
X154100000Y-94600000D03*
X154100000Y-93000000D03*
%TD*%
D20*
%TO.C,R3*%
X147600000Y-93000000D03*
X147600000Y-95000000D03*
%TD*%
D21*
%TO.C,C3*%
X148325000Y-86300000D03*
X150400000Y-86300000D03*
%TD*%
D13*
%TO.C,C6*%
X156900000Y-109125000D03*
X156900000Y-111200000D03*
%TD*%
D22*
%TO.C,L1*%
X152700000Y-82900000D03*
X150400000Y-82900000D03*
%TD*%
D13*
%TO.C,C5*%
X154100000Y-96125000D03*
X154100000Y-98200000D03*
%TD*%
D12*
%TO.C,C4*%
X150000000Y-95037500D03*
X150000000Y-92962500D03*
%TD*%
D23*
%TO.C,U3*%
X146400000Y-109700000D03*
X147500000Y-109700000D03*
X148600000Y-109700000D03*
X149700000Y-109700000D03*
X150800000Y-109700000D03*
X151900000Y-109700000D03*
X153000000Y-109700000D03*
X154100000Y-109700000D03*
X155200000Y-109700000D03*
X155200000Y-100500000D03*
X154100000Y-100500000D03*
X153000000Y-100500000D03*
X151900000Y-100500000D03*
X150800000Y-100500000D03*
D24*
X149700000Y-100500000D03*
D23*
X148600000Y-100500000D03*
X147500000Y-100500000D03*
X146400000Y-100500000D03*
%TD*%
D22*
%TO.C,L2*%
X152700000Y-87900000D03*
X150400000Y-87900000D03*
%TD*%
D25*
%TO.C,J1*%
X152700000Y-78420000D03*
D26*
X157080000Y-78420000D03*
X148320000Y-78420000D03*
%TD*%
D27*
%TO.C,J2*%
X163600000Y-101050000D03*
D28*
X163600000Y-103590000D03*
X163600000Y-106130000D03*
X163600000Y-108670000D03*
X163600000Y-111210000D03*
%TD*%
D27*
%TO.C,J3*%
X141800000Y-101050000D03*
D28*
X141800000Y-103590000D03*
X141800000Y-106130000D03*
X141800000Y-108670000D03*
X141800000Y-111210000D03*
%TD*%
M02*
