%TF.GenerationSoftware,KiCad,Pcbnew,9.0.7+1*%
%TF.CreationDate,2026-03-02T00:26:23+01:00*%
%TF.ProjectId,sensor_position,73656e73-6f72-45f7-906f-736974696f6e,rev?*%
%TF.SameCoordinates,Original*%
%TF.FileFunction,Legend,Bot*%
%TF.FilePolarity,Positive*%
%FSLAX46Y46*%
G04 Gerber Fmt 4.6, Leading zero omitted, Abs format (unit mm)*
G04 Created by KiCad (PCBNEW 9.0.7+1) date 2026-03-02 00:26:23*
%MOMM*%
%LPD*%
G01*
G04 APERTURE LIST*
%ADD10C,0.100000*%
%ADD11C,0.150000*%
%ADD12C,0.120000*%
G04 APERTURE END LIST*
D10*
X148583333Y-106356109D02*
X148749999Y-106118014D01*
X148869047Y-106356109D02*
X148869047Y-105856109D01*
X148869047Y-105856109D02*
X148678571Y-105856109D01*
X148678571Y-105856109D02*
X148630952Y-105879919D01*
X148630952Y-105879919D02*
X148607142Y-105903728D01*
X148607142Y-105903728D02*
X148583333Y-105951347D01*
X148583333Y-105951347D02*
X148583333Y-106022776D01*
X148583333Y-106022776D02*
X148607142Y-106070395D01*
X148607142Y-106070395D02*
X148630952Y-106094204D01*
X148630952Y-106094204D02*
X148678571Y-106118014D01*
X148678571Y-106118014D02*
X148869047Y-106118014D01*
X148130952Y-105856109D02*
X148369047Y-105856109D01*
X148369047Y-105856109D02*
X148392856Y-106094204D01*
X148392856Y-106094204D02*
X148369047Y-106070395D01*
X148369047Y-106070395D02*
X148321428Y-106046585D01*
X148321428Y-106046585D02*
X148202380Y-106046585D01*
X148202380Y-106046585D02*
X148154761Y-106070395D01*
X148154761Y-106070395D02*
X148130952Y-106094204D01*
X148130952Y-106094204D02*
X148107142Y-106141823D01*
X148107142Y-106141823D02*
X148107142Y-106260871D01*
X148107142Y-106260871D02*
X148130952Y-106308490D01*
X148130952Y-106308490D02*
X148154761Y-106332300D01*
X148154761Y-106332300D02*
X148202380Y-106356109D01*
X148202380Y-106356109D02*
X148321428Y-106356109D01*
X148321428Y-106356109D02*
X148369047Y-106332300D01*
X148369047Y-106332300D02*
X148392856Y-106308490D01*
D11*
X163933333Y-98124819D02*
X163933333Y-98839104D01*
X163933333Y-98839104D02*
X163980952Y-98981961D01*
X163980952Y-98981961D02*
X164076190Y-99077200D01*
X164076190Y-99077200D02*
X164219047Y-99124819D01*
X164219047Y-99124819D02*
X164314285Y-99124819D01*
X163504761Y-98220057D02*
X163457142Y-98172438D01*
X163457142Y-98172438D02*
X163361904Y-98124819D01*
X163361904Y-98124819D02*
X163123809Y-98124819D01*
X163123809Y-98124819D02*
X163028571Y-98172438D01*
X163028571Y-98172438D02*
X162980952Y-98220057D01*
X162980952Y-98220057D02*
X162933333Y-98315295D01*
X162933333Y-98315295D02*
X162933333Y-98410533D01*
X162933333Y-98410533D02*
X162980952Y-98553390D01*
X162980952Y-98553390D02*
X163552380Y-99124819D01*
X163552380Y-99124819D02*
X162933333Y-99124819D01*
D10*
X148583333Y-103816109D02*
X148749999Y-103578014D01*
X148869047Y-103816109D02*
X148869047Y-103316109D01*
X148869047Y-103316109D02*
X148678571Y-103316109D01*
X148678571Y-103316109D02*
X148630952Y-103339919D01*
X148630952Y-103339919D02*
X148607142Y-103363728D01*
X148607142Y-103363728D02*
X148583333Y-103411347D01*
X148583333Y-103411347D02*
X148583333Y-103482776D01*
X148583333Y-103482776D02*
X148607142Y-103530395D01*
X148607142Y-103530395D02*
X148630952Y-103554204D01*
X148630952Y-103554204D02*
X148678571Y-103578014D01*
X148678571Y-103578014D02*
X148869047Y-103578014D01*
X148154761Y-103482776D02*
X148154761Y-103816109D01*
X148273809Y-103292300D02*
X148392856Y-103649442D01*
X148392856Y-103649442D02*
X148083333Y-103649442D01*
D11*
X142133333Y-98124819D02*
X142133333Y-98839104D01*
X142133333Y-98839104D02*
X142180952Y-98981961D01*
X142180952Y-98981961D02*
X142276190Y-99077200D01*
X142276190Y-99077200D02*
X142419047Y-99124819D01*
X142419047Y-99124819D02*
X142514285Y-99124819D01*
X141752380Y-98124819D02*
X141133333Y-98124819D01*
X141133333Y-98124819D02*
X141466666Y-98505771D01*
X141466666Y-98505771D02*
X141323809Y-98505771D01*
X141323809Y-98505771D02*
X141228571Y-98553390D01*
X141228571Y-98553390D02*
X141180952Y-98601009D01*
X141180952Y-98601009D02*
X141133333Y-98696247D01*
X141133333Y-98696247D02*
X141133333Y-98934342D01*
X141133333Y-98934342D02*
X141180952Y-99029580D01*
X141180952Y-99029580D02*
X141228571Y-99077200D01*
X141228571Y-99077200D02*
X141323809Y-99124819D01*
X141323809Y-99124819D02*
X141609523Y-99124819D01*
X141609523Y-99124819D02*
X141704761Y-99077200D01*
X141704761Y-99077200D02*
X141752380Y-99029580D01*
D12*
%TO.C,R5*%
X148727064Y-105395000D02*
X148272936Y-105395000D01*
X148727064Y-106865000D02*
X148272936Y-106865000D01*
%TO.C,J2*%
X162220000Y-102320000D02*
X162220000Y-112590000D01*
X164980000Y-99670000D02*
X163600000Y-99670000D01*
X164980000Y-101050000D02*
X164980000Y-99670000D01*
X164980000Y-102320000D02*
X162220000Y-102320000D01*
X164980000Y-102320000D02*
X164980000Y-112590000D01*
X164980000Y-112590000D02*
X162220000Y-112590000D01*
%TO.C,R4*%
X148727064Y-102855000D02*
X148272936Y-102855000D01*
X148727064Y-104325000D02*
X148272936Y-104325000D01*
%TO.C,J3*%
X140420000Y-102320000D02*
X140420000Y-112590000D01*
X143180000Y-99670000D02*
X141800000Y-99670000D01*
X143180000Y-101050000D02*
X143180000Y-99670000D01*
X143180000Y-102320000D02*
X140420000Y-102320000D01*
X143180000Y-102320000D02*
X143180000Y-112590000D01*
X143180000Y-112590000D02*
X140420000Y-112590000D01*
%TD*%
M02*
