M48
; DRILL file {KiCad 9.0.7+1} date 2026-03-02T00:26:25+0100
; FORMAT={-:-/ absolute / metric / decimal}
; #@! TF.CreationDate,2026-03-02T00:26:25+01:00
; #@! TF.GenerationSoftware,Kicad,Pcbnew,9.0.7+1
; #@! TF.FileFunction,Plated,1,4,PTH
FMAT,2
METRIC
; #@! TA.AperFunction,Plated,PTH,ViaDrill
T1C0.300
; #@! TA.AperFunction,Plated,PTH,ViaDrill
T2C0.400
; #@! TA.AperFunction,Plated,PTH,ComponentDrill
T3C0.460
; #@! TA.AperFunction,Plated,PTH,ComponentDrill
T4C1.000
%
G90
G05
T1
X140.8Y-76.3
X140.8Y-77.8
X140.8Y-79.3
X140.8Y-80.8
X140.8Y-82.3
X140.8Y-83.8
X140.8Y-85.3
X140.8Y-86.8
X140.8Y-88.3
X140.8Y-89.8
X140.8Y-91.3
X140.8Y-92.8
X140.8Y-94.3
X140.8Y-95.8
X140.8Y-97.3
X140.8Y-98.8
X142.3Y-76.3
X142.3Y-98.8
X143.8Y-76.3
X143.8Y-98.8
X143.8Y-101.05
X145.3Y-76.3
X145.3Y-98.8
X146.3Y-76.3
X146.3Y-77.3
X146.3Y-78.3
X146.3Y-79.3
X146.3Y-80.3
X146.3Y-81.3
X146.4Y-92.0
X146.4Y-93.0
X146.4Y-94.0
X146.8Y-98.8
X147.3Y-81.84
X147.4Y-92.0
X147.6Y-94.0
X147.6Y-96.0
X147.6Y-97.0
X147.6Y-98.0
X147.662Y-83.3
X148.3Y-98.8
X148.4Y-91.0
X148.5Y-85.0
X148.8Y-92.4
X148.8Y-93.4
X149.3Y-81.84
X149.362Y-86.3
X149.4Y-87.4
X149.4Y-88.4
X149.4Y-91.0
X149.5Y-85.0
X150.0Y-94.0
X150.0Y-96.0
X150.0Y-97.0
X150.0Y-98.0
X150.4Y-89.0
X150.4Y-90.0
X150.4Y-91.0
X150.5Y-76.3
X150.5Y-77.3
X150.5Y-78.3
X150.5Y-79.3
X150.5Y-80.3
X150.5Y-81.3
X150.5Y-84.0
X150.5Y-85.0
X151.4Y-96.0
X151.4Y-97.0
X151.4Y-98.0
X151.4Y-99.0
X151.433Y-92.85
X151.433Y-95.15
X151.5Y-84.0
X151.5Y-85.0
X151.5Y-86.0
X151.5Y-87.0
X151.55Y-82.9
X151.55Y-87.9
X151.7Y-81.84
X151.7Y-90.4
X152.7Y-90.4
X152.7Y-94.6
X152.8Y-96.0
X152.8Y-97.0
X152.8Y-98.0
X152.8Y-99.0
X153.7Y-81.84
X154.0Y-86.0
X154.0Y-87.0
X154.0Y-88.0
X154.0Y-89.0
X154.0Y-90.0
X154.0Y-91.0
X154.0Y-92.0
X154.1Y-93.0
X154.4Y-83.0
X154.9Y-76.3
X154.9Y-77.3
X154.9Y-78.3
X154.9Y-79.3
X154.9Y-80.3
X154.9Y-81.3
X155.0Y-86.0
X155.0Y-87.0
X155.0Y-88.0
X155.0Y-89.0
X155.0Y-90.0
X155.0Y-91.0
X155.0Y-92.0
X155.0Y-93.0
X155.0Y-94.0
X155.0Y-95.0
X155.4Y-83.0
X156.0Y-86.0
X156.0Y-87.0
X156.0Y-88.0
X156.0Y-89.0
X156.0Y-90.0
X156.0Y-91.0
X156.0Y-92.0
X156.0Y-93.0
X156.0Y-94.0
X156.0Y-95.0
X156.0Y-96.0
X156.0Y-97.0
X156.1Y-81.84
X156.4Y-83.0
X156.9Y-109.125
X157.0Y-86.0
X157.0Y-87.0
X157.0Y-88.0
X157.0Y-89.0
X157.0Y-90.0
X157.0Y-91.0
X157.0Y-92.0
X157.0Y-93.0
X157.0Y-94.0
X157.0Y-95.0
X157.0Y-96.0
X157.0Y-97.0
X157.1Y-98.8
X157.4Y-84.0
X158.1Y-81.84
X158.398Y-85.992
X158.398Y-86.992
X158.398Y-87.992
X158.398Y-88.992
X158.398Y-89.992
X158.398Y-90.992
X158.398Y-91.992
X158.398Y-92.992
X158.398Y-93.992
X158.398Y-94.992
X158.398Y-95.992
X158.398Y-96.992
X158.4Y-85.0
X158.4Y-98.0
X158.6Y-98.8
X158.9Y-109.125
X159.1Y-76.3
X159.1Y-77.3
X159.1Y-78.3
X159.1Y-79.3
X159.1Y-80.3
X159.1Y-81.3
X160.1Y-76.3
X160.1Y-98.8
X161.6Y-76.3
X161.6Y-98.8
X161.6Y-101.0
X163.1Y-76.3
X163.1Y-98.8
X164.6Y-76.3
X164.6Y-77.8
X164.6Y-79.3
X164.6Y-80.8
X164.6Y-82.3
X164.6Y-83.8
X164.6Y-85.3
X164.6Y-86.8
X164.6Y-88.3
X164.6Y-89.8
X164.6Y-91.3
X164.6Y-92.8
X164.6Y-94.3
X164.6Y-95.8
X164.6Y-97.3
X164.6Y-98.8
T2
X147.5Y-100.5
X147.5Y-109.7
X148.6Y-100.5
X148.6Y-109.7
X149.5Y-103.59
X149.5Y-106.13
X149.7Y-109.7
X150.8Y-109.7
X151.9Y-109.7
X153.0Y-109.7
X154.1Y-109.7
X155.2Y-109.7
X156.9Y-111.2
X158.9Y-111.2
T3
X148.32Y-81.86
X157.08Y-81.86
T4
X141.8Y-101.05
X141.8Y-103.59
X141.8Y-106.13
X141.8Y-108.67
X141.8Y-111.21
X163.6Y-101.05
X163.6Y-103.59
X163.6Y-106.13
X163.6Y-108.67
X163.6Y-111.21
M30
