%TF.GenerationSoftware,KiCad,Pcbnew,9.0.7+1*%
%TF.CreationDate,2026-03-02T00:26:23+01:00*%
%TF.ProjectId,sensor_position,73656e73-6f72-45f7-906f-736974696f6e,rev?*%
%TF.SameCoordinates,Original*%
%TF.FileFunction,Legend,Top*%
%TF.FilePolarity,Positive*%
%FSLAX46Y46*%
G04 Gerber Fmt 4.6, Leading zero omitted, Abs format (unit mm)*
G04 Created by KiCad (PCBNEW 9.0.7+1) date 2026-03-02 00:26:23*
%MOMM*%
%LPD*%
G01*
G04 APERTURE LIST*
%ADD10C,0.080000*%
%ADD11C,0.100000*%
%ADD12C,0.060000*%
%ADD13C,0.150000*%
%ADD14C,0.127000*%
%ADD15C,0.200000*%
%ADD16C,0.120000*%
G04 APERTURE END LIST*
D10*
X153323878Y-90643809D02*
X153582925Y-90643809D01*
X153582925Y-90643809D02*
X153613401Y-90628571D01*
X153613401Y-90628571D02*
X153628640Y-90613333D01*
X153628640Y-90613333D02*
X153643878Y-90582857D01*
X153643878Y-90582857D02*
X153643878Y-90521904D01*
X153643878Y-90521904D02*
X153628640Y-90491428D01*
X153628640Y-90491428D02*
X153613401Y-90476190D01*
X153613401Y-90476190D02*
X153582925Y-90460952D01*
X153582925Y-90460952D02*
X153323878Y-90460952D01*
X153643878Y-90140952D02*
X153643878Y-90323809D01*
X153643878Y-90232381D02*
X153323878Y-90232381D01*
X153323878Y-90232381D02*
X153369592Y-90262857D01*
X153369592Y-90262857D02*
X153400068Y-90293333D01*
X153400068Y-90293333D02*
X153415306Y-90323809D01*
D11*
X159078490Y-110245833D02*
X159102300Y-110269642D01*
X159102300Y-110269642D02*
X159126109Y-110341071D01*
X159126109Y-110341071D02*
X159126109Y-110388690D01*
X159126109Y-110388690D02*
X159102300Y-110460118D01*
X159102300Y-110460118D02*
X159054680Y-110507737D01*
X159054680Y-110507737D02*
X159007061Y-110531547D01*
X159007061Y-110531547D02*
X158911823Y-110555356D01*
X158911823Y-110555356D02*
X158840395Y-110555356D01*
X158840395Y-110555356D02*
X158745157Y-110531547D01*
X158745157Y-110531547D02*
X158697538Y-110507737D01*
X158697538Y-110507737D02*
X158649919Y-110460118D01*
X158649919Y-110460118D02*
X158626109Y-110388690D01*
X158626109Y-110388690D02*
X158626109Y-110341071D01*
X158626109Y-110341071D02*
X158649919Y-110269642D01*
X158649919Y-110269642D02*
X158673728Y-110245833D01*
X158626109Y-110079166D02*
X158626109Y-109745833D01*
X158626109Y-109745833D02*
X159126109Y-109960118D01*
X152878490Y-85520833D02*
X152902300Y-85544642D01*
X152902300Y-85544642D02*
X152926109Y-85616071D01*
X152926109Y-85616071D02*
X152926109Y-85663690D01*
X152926109Y-85663690D02*
X152902300Y-85735118D01*
X152902300Y-85735118D02*
X152854680Y-85782737D01*
X152854680Y-85782737D02*
X152807061Y-85806547D01*
X152807061Y-85806547D02*
X152711823Y-85830356D01*
X152711823Y-85830356D02*
X152640395Y-85830356D01*
X152640395Y-85830356D02*
X152545157Y-85806547D01*
X152545157Y-85806547D02*
X152497538Y-85782737D01*
X152497538Y-85782737D02*
X152449919Y-85735118D01*
X152449919Y-85735118D02*
X152426109Y-85663690D01*
X152426109Y-85663690D02*
X152426109Y-85616071D01*
X152426109Y-85616071D02*
X152449919Y-85544642D01*
X152449919Y-85544642D02*
X152473728Y-85520833D01*
X152473728Y-85330356D02*
X152449919Y-85306547D01*
X152449919Y-85306547D02*
X152426109Y-85258928D01*
X152426109Y-85258928D02*
X152426109Y-85139880D01*
X152426109Y-85139880D02*
X152449919Y-85092261D01*
X152449919Y-85092261D02*
X152473728Y-85068452D01*
X152473728Y-85068452D02*
X152521347Y-85044642D01*
X152521347Y-85044642D02*
X152568966Y-85044642D01*
X152568966Y-85044642D02*
X152640395Y-85068452D01*
X152640395Y-85068452D02*
X152926109Y-85354166D01*
X152926109Y-85354166D02*
X152926109Y-85044642D01*
X147579166Y-83478490D02*
X147555357Y-83502300D01*
X147555357Y-83502300D02*
X147483928Y-83526109D01*
X147483928Y-83526109D02*
X147436309Y-83526109D01*
X147436309Y-83526109D02*
X147364881Y-83502300D01*
X147364881Y-83502300D02*
X147317262Y-83454680D01*
X147317262Y-83454680D02*
X147293452Y-83407061D01*
X147293452Y-83407061D02*
X147269643Y-83311823D01*
X147269643Y-83311823D02*
X147269643Y-83240395D01*
X147269643Y-83240395D02*
X147293452Y-83145157D01*
X147293452Y-83145157D02*
X147317262Y-83097538D01*
X147317262Y-83097538D02*
X147364881Y-83049919D01*
X147364881Y-83049919D02*
X147436309Y-83026109D01*
X147436309Y-83026109D02*
X147483928Y-83026109D01*
X147483928Y-83026109D02*
X147555357Y-83049919D01*
X147555357Y-83049919D02*
X147579166Y-83073728D01*
X148055357Y-83526109D02*
X147769643Y-83526109D01*
X147912500Y-83526109D02*
X147912500Y-83026109D01*
X147912500Y-83026109D02*
X147864881Y-83097538D01*
X147864881Y-83097538D02*
X147817262Y-83145157D01*
X147817262Y-83145157D02*
X147769643Y-83168966D01*
X153616666Y-84626109D02*
X153450000Y-84388014D01*
X153330952Y-84626109D02*
X153330952Y-84126109D01*
X153330952Y-84126109D02*
X153521428Y-84126109D01*
X153521428Y-84126109D02*
X153569047Y-84149919D01*
X153569047Y-84149919D02*
X153592857Y-84173728D01*
X153592857Y-84173728D02*
X153616666Y-84221347D01*
X153616666Y-84221347D02*
X153616666Y-84292776D01*
X153616666Y-84292776D02*
X153592857Y-84340395D01*
X153592857Y-84340395D02*
X153569047Y-84364204D01*
X153569047Y-84364204D02*
X153521428Y-84388014D01*
X153521428Y-84388014D02*
X153330952Y-84388014D01*
X154092857Y-84626109D02*
X153807143Y-84626109D01*
X153950000Y-84626109D02*
X153950000Y-84126109D01*
X153950000Y-84126109D02*
X153902381Y-84197538D01*
X153902381Y-84197538D02*
X153854762Y-84245157D01*
X153854762Y-84245157D02*
X153807143Y-84268966D01*
X155016666Y-98426109D02*
X154850000Y-98188014D01*
X154730952Y-98426109D02*
X154730952Y-97926109D01*
X154730952Y-97926109D02*
X154921428Y-97926109D01*
X154921428Y-97926109D02*
X154969047Y-97949919D01*
X154969047Y-97949919D02*
X154992857Y-97973728D01*
X154992857Y-97973728D02*
X155016666Y-98021347D01*
X155016666Y-98021347D02*
X155016666Y-98092776D01*
X155016666Y-98092776D02*
X154992857Y-98140395D01*
X154992857Y-98140395D02*
X154969047Y-98164204D01*
X154969047Y-98164204D02*
X154921428Y-98188014D01*
X154921428Y-98188014D02*
X154730952Y-98188014D01*
X155207143Y-97973728D02*
X155230952Y-97949919D01*
X155230952Y-97949919D02*
X155278571Y-97926109D01*
X155278571Y-97926109D02*
X155397619Y-97926109D01*
X155397619Y-97926109D02*
X155445238Y-97949919D01*
X155445238Y-97949919D02*
X155469047Y-97973728D01*
X155469047Y-97973728D02*
X155492857Y-98021347D01*
X155492857Y-98021347D02*
X155492857Y-98068966D01*
X155492857Y-98068966D02*
X155469047Y-98140395D01*
X155469047Y-98140395D02*
X155183333Y-98426109D01*
X155183333Y-98426109D02*
X155492857Y-98426109D01*
D12*
X152265357Y-81607908D02*
X152265357Y-81367908D01*
X152265357Y-81367908D02*
X152322500Y-81367908D01*
X152322500Y-81367908D02*
X152356786Y-81379337D01*
X152356786Y-81379337D02*
X152379643Y-81402194D01*
X152379643Y-81402194D02*
X152391072Y-81425051D01*
X152391072Y-81425051D02*
X152402500Y-81470765D01*
X152402500Y-81470765D02*
X152402500Y-81505051D01*
X152402500Y-81505051D02*
X152391072Y-81550765D01*
X152391072Y-81550765D02*
X152379643Y-81573622D01*
X152379643Y-81573622D02*
X152356786Y-81596480D01*
X152356786Y-81596480D02*
X152322500Y-81607908D01*
X152322500Y-81607908D02*
X152265357Y-81607908D01*
X152631072Y-81607908D02*
X152493929Y-81607908D01*
X152562500Y-81607908D02*
X152562500Y-81367908D01*
X152562500Y-81367908D02*
X152539643Y-81402194D01*
X152539643Y-81402194D02*
X152516786Y-81425051D01*
X152516786Y-81425051D02*
X152493929Y-81436480D01*
D10*
X153223878Y-94043809D02*
X153482925Y-94043809D01*
X153482925Y-94043809D02*
X153513401Y-94028571D01*
X153513401Y-94028571D02*
X153528640Y-94013333D01*
X153528640Y-94013333D02*
X153543878Y-93982857D01*
X153543878Y-93982857D02*
X153543878Y-93921904D01*
X153543878Y-93921904D02*
X153528640Y-93891428D01*
X153528640Y-93891428D02*
X153513401Y-93876190D01*
X153513401Y-93876190D02*
X153482925Y-93860952D01*
X153482925Y-93860952D02*
X153223878Y-93860952D01*
X153330544Y-93571428D02*
X153543878Y-93571428D01*
X153208640Y-93647619D02*
X153437211Y-93723809D01*
X153437211Y-93723809D02*
X153437211Y-93525714D01*
D11*
X147826109Y-94083333D02*
X147588014Y-94249999D01*
X147826109Y-94369047D02*
X147326109Y-94369047D01*
X147326109Y-94369047D02*
X147326109Y-94178571D01*
X147326109Y-94178571D02*
X147349919Y-94130952D01*
X147349919Y-94130952D02*
X147373728Y-94107142D01*
X147373728Y-94107142D02*
X147421347Y-94083333D01*
X147421347Y-94083333D02*
X147492776Y-94083333D01*
X147492776Y-94083333D02*
X147540395Y-94107142D01*
X147540395Y-94107142D02*
X147564204Y-94130952D01*
X147564204Y-94130952D02*
X147588014Y-94178571D01*
X147588014Y-94178571D02*
X147588014Y-94369047D01*
X147326109Y-93916666D02*
X147326109Y-93607142D01*
X147326109Y-93607142D02*
X147516585Y-93773809D01*
X147516585Y-93773809D02*
X147516585Y-93702380D01*
X147516585Y-93702380D02*
X147540395Y-93654761D01*
X147540395Y-93654761D02*
X147564204Y-93630952D01*
X147564204Y-93630952D02*
X147611823Y-93607142D01*
X147611823Y-93607142D02*
X147730871Y-93607142D01*
X147730871Y-93607142D02*
X147778490Y-93630952D01*
X147778490Y-93630952D02*
X147802300Y-93654761D01*
X147802300Y-93654761D02*
X147826109Y-93702380D01*
X147826109Y-93702380D02*
X147826109Y-93845237D01*
X147826109Y-93845237D02*
X147802300Y-93892856D01*
X147802300Y-93892856D02*
X147778490Y-93916666D01*
X149279166Y-86478490D02*
X149255357Y-86502300D01*
X149255357Y-86502300D02*
X149183928Y-86526109D01*
X149183928Y-86526109D02*
X149136309Y-86526109D01*
X149136309Y-86526109D02*
X149064881Y-86502300D01*
X149064881Y-86502300D02*
X149017262Y-86454680D01*
X149017262Y-86454680D02*
X148993452Y-86407061D01*
X148993452Y-86407061D02*
X148969643Y-86311823D01*
X148969643Y-86311823D02*
X148969643Y-86240395D01*
X148969643Y-86240395D02*
X148993452Y-86145157D01*
X148993452Y-86145157D02*
X149017262Y-86097538D01*
X149017262Y-86097538D02*
X149064881Y-86049919D01*
X149064881Y-86049919D02*
X149136309Y-86026109D01*
X149136309Y-86026109D02*
X149183928Y-86026109D01*
X149183928Y-86026109D02*
X149255357Y-86049919D01*
X149255357Y-86049919D02*
X149279166Y-86073728D01*
X149445833Y-86026109D02*
X149755357Y-86026109D01*
X149755357Y-86026109D02*
X149588690Y-86216585D01*
X149588690Y-86216585D02*
X149660119Y-86216585D01*
X149660119Y-86216585D02*
X149707738Y-86240395D01*
X149707738Y-86240395D02*
X149731547Y-86264204D01*
X149731547Y-86264204D02*
X149755357Y-86311823D01*
X149755357Y-86311823D02*
X149755357Y-86430871D01*
X149755357Y-86430871D02*
X149731547Y-86478490D01*
X149731547Y-86478490D02*
X149707738Y-86502300D01*
X149707738Y-86502300D02*
X149660119Y-86526109D01*
X149660119Y-86526109D02*
X149517262Y-86526109D01*
X149517262Y-86526109D02*
X149469643Y-86502300D01*
X149469643Y-86502300D02*
X149445833Y-86478490D01*
X157078490Y-110245833D02*
X157102300Y-110269642D01*
X157102300Y-110269642D02*
X157126109Y-110341071D01*
X157126109Y-110341071D02*
X157126109Y-110388690D01*
X157126109Y-110388690D02*
X157102300Y-110460118D01*
X157102300Y-110460118D02*
X157054680Y-110507737D01*
X157054680Y-110507737D02*
X157007061Y-110531547D01*
X157007061Y-110531547D02*
X156911823Y-110555356D01*
X156911823Y-110555356D02*
X156840395Y-110555356D01*
X156840395Y-110555356D02*
X156745157Y-110531547D01*
X156745157Y-110531547D02*
X156697538Y-110507737D01*
X156697538Y-110507737D02*
X156649919Y-110460118D01*
X156649919Y-110460118D02*
X156626109Y-110388690D01*
X156626109Y-110388690D02*
X156626109Y-110341071D01*
X156626109Y-110341071D02*
X156649919Y-110269642D01*
X156649919Y-110269642D02*
X156673728Y-110245833D01*
X156626109Y-109817261D02*
X156626109Y-109912499D01*
X156626109Y-109912499D02*
X156649919Y-109960118D01*
X156649919Y-109960118D02*
X156673728Y-109983928D01*
X156673728Y-109983928D02*
X156745157Y-110031547D01*
X156745157Y-110031547D02*
X156840395Y-110055356D01*
X156840395Y-110055356D02*
X157030871Y-110055356D01*
X157030871Y-110055356D02*
X157078490Y-110031547D01*
X157078490Y-110031547D02*
X157102300Y-110007737D01*
X157102300Y-110007737D02*
X157126109Y-109960118D01*
X157126109Y-109960118D02*
X157126109Y-109864880D01*
X157126109Y-109864880D02*
X157102300Y-109817261D01*
X157102300Y-109817261D02*
X157078490Y-109793452D01*
X157078490Y-109793452D02*
X157030871Y-109769642D01*
X157030871Y-109769642D02*
X156911823Y-109769642D01*
X156911823Y-109769642D02*
X156864204Y-109793452D01*
X156864204Y-109793452D02*
X156840395Y-109817261D01*
X156840395Y-109817261D02*
X156816585Y-109864880D01*
X156816585Y-109864880D02*
X156816585Y-109960118D01*
X156816585Y-109960118D02*
X156840395Y-110007737D01*
X156840395Y-110007737D02*
X156864204Y-110031547D01*
X156864204Y-110031547D02*
X156911823Y-110055356D01*
X151466666Y-83126109D02*
X151228571Y-83126109D01*
X151228571Y-83126109D02*
X151228571Y-82626109D01*
X151895238Y-83126109D02*
X151609524Y-83126109D01*
X151752381Y-83126109D02*
X151752381Y-82626109D01*
X151752381Y-82626109D02*
X151704762Y-82697538D01*
X151704762Y-82697538D02*
X151657143Y-82745157D01*
X151657143Y-82745157D02*
X151609524Y-82768966D01*
X154278490Y-97245833D02*
X154302300Y-97269642D01*
X154302300Y-97269642D02*
X154326109Y-97341071D01*
X154326109Y-97341071D02*
X154326109Y-97388690D01*
X154326109Y-97388690D02*
X154302300Y-97460118D01*
X154302300Y-97460118D02*
X154254680Y-97507737D01*
X154254680Y-97507737D02*
X154207061Y-97531547D01*
X154207061Y-97531547D02*
X154111823Y-97555356D01*
X154111823Y-97555356D02*
X154040395Y-97555356D01*
X154040395Y-97555356D02*
X153945157Y-97531547D01*
X153945157Y-97531547D02*
X153897538Y-97507737D01*
X153897538Y-97507737D02*
X153849919Y-97460118D01*
X153849919Y-97460118D02*
X153826109Y-97388690D01*
X153826109Y-97388690D02*
X153826109Y-97341071D01*
X153826109Y-97341071D02*
X153849919Y-97269642D01*
X153849919Y-97269642D02*
X153873728Y-97245833D01*
X153826109Y-96793452D02*
X153826109Y-97031547D01*
X153826109Y-97031547D02*
X154064204Y-97055356D01*
X154064204Y-97055356D02*
X154040395Y-97031547D01*
X154040395Y-97031547D02*
X154016585Y-96983928D01*
X154016585Y-96983928D02*
X154016585Y-96864880D01*
X154016585Y-96864880D02*
X154040395Y-96817261D01*
X154040395Y-96817261D02*
X154064204Y-96793452D01*
X154064204Y-96793452D02*
X154111823Y-96769642D01*
X154111823Y-96769642D02*
X154230871Y-96769642D01*
X154230871Y-96769642D02*
X154278490Y-96793452D01*
X154278490Y-96793452D02*
X154302300Y-96817261D01*
X154302300Y-96817261D02*
X154326109Y-96864880D01*
X154326109Y-96864880D02*
X154326109Y-96983928D01*
X154326109Y-96983928D02*
X154302300Y-97031547D01*
X154302300Y-97031547D02*
X154278490Y-97055356D01*
X150178490Y-94083333D02*
X150202300Y-94107142D01*
X150202300Y-94107142D02*
X150226109Y-94178571D01*
X150226109Y-94178571D02*
X150226109Y-94226190D01*
X150226109Y-94226190D02*
X150202300Y-94297618D01*
X150202300Y-94297618D02*
X150154680Y-94345237D01*
X150154680Y-94345237D02*
X150107061Y-94369047D01*
X150107061Y-94369047D02*
X150011823Y-94392856D01*
X150011823Y-94392856D02*
X149940395Y-94392856D01*
X149940395Y-94392856D02*
X149845157Y-94369047D01*
X149845157Y-94369047D02*
X149797538Y-94345237D01*
X149797538Y-94345237D02*
X149749919Y-94297618D01*
X149749919Y-94297618D02*
X149726109Y-94226190D01*
X149726109Y-94226190D02*
X149726109Y-94178571D01*
X149726109Y-94178571D02*
X149749919Y-94107142D01*
X149749919Y-94107142D02*
X149773728Y-94083333D01*
X149892776Y-93654761D02*
X150226109Y-93654761D01*
X149702300Y-93773809D02*
X150059442Y-93892856D01*
X150059442Y-93892856D02*
X150059442Y-93583333D01*
D13*
X149732187Y-104339059D02*
X149732187Y-105473610D01*
X149732187Y-105473610D02*
X149798925Y-105607086D01*
X149798925Y-105607086D02*
X149865664Y-105673825D01*
X149865664Y-105673825D02*
X149999140Y-105740563D01*
X149999140Y-105740563D02*
X150266093Y-105740563D01*
X150266093Y-105740563D02*
X150399570Y-105673825D01*
X150399570Y-105673825D02*
X150466308Y-105607086D01*
X150466308Y-105607086D02*
X150533046Y-105473610D01*
X150533046Y-105473610D02*
X150533046Y-104339059D01*
X151066952Y-104339059D02*
X151934550Y-104339059D01*
X151934550Y-104339059D02*
X151467382Y-104872965D01*
X151467382Y-104872965D02*
X151667597Y-104872965D01*
X151667597Y-104872965D02*
X151801074Y-104939703D01*
X151801074Y-104939703D02*
X151867812Y-105006442D01*
X151867812Y-105006442D02*
X151934550Y-105139918D01*
X151934550Y-105139918D02*
X151934550Y-105473610D01*
X151934550Y-105473610D02*
X151867812Y-105607086D01*
X151867812Y-105607086D02*
X151801074Y-105673825D01*
X151801074Y-105673825D02*
X151667597Y-105740563D01*
X151667597Y-105740563D02*
X151267167Y-105740563D01*
X151267167Y-105740563D02*
X151133691Y-105673825D01*
X151133691Y-105673825D02*
X151066952Y-105607086D01*
X147394463Y-113089245D02*
X148195124Y-113089245D01*
X147794794Y-114490402D02*
X147794794Y-113089245D01*
X148662176Y-113756463D02*
X149129229Y-113756463D01*
X149329394Y-114490402D02*
X148662176Y-114490402D01*
X148662176Y-114490402D02*
X148662176Y-113089245D01*
X148662176Y-113089245D02*
X149329394Y-113089245D01*
X149863168Y-114423681D02*
X150063333Y-114490402D01*
X150063333Y-114490402D02*
X150396942Y-114490402D01*
X150396942Y-114490402D02*
X150530385Y-114423681D01*
X150530385Y-114423681D02*
X150597107Y-114356959D01*
X150597107Y-114356959D02*
X150663829Y-114223515D01*
X150663829Y-114223515D02*
X150663829Y-114090072D01*
X150663829Y-114090072D02*
X150597107Y-113956628D01*
X150597107Y-113956628D02*
X150530385Y-113889906D01*
X150530385Y-113889906D02*
X150396942Y-113823185D01*
X150396942Y-113823185D02*
X150130055Y-113756463D01*
X150130055Y-113756463D02*
X149996611Y-113689741D01*
X149996611Y-113689741D02*
X149929889Y-113623019D01*
X149929889Y-113623019D02*
X149863168Y-113489576D01*
X149863168Y-113489576D02*
X149863168Y-113356132D01*
X149863168Y-113356132D02*
X149929889Y-113222689D01*
X149929889Y-113222689D02*
X149996611Y-113155967D01*
X149996611Y-113155967D02*
X150130055Y-113089245D01*
X150130055Y-113089245D02*
X150463663Y-113089245D01*
X150463663Y-113089245D02*
X150663829Y-113155967D01*
X151264324Y-113756463D02*
X151731377Y-113756463D01*
X151931542Y-114490402D02*
X151264324Y-114490402D01*
X151264324Y-114490402D02*
X151264324Y-113089245D01*
X151264324Y-113089245D02*
X151931542Y-113089245D01*
X152798924Y-113089245D02*
X153065811Y-113089245D01*
X153065811Y-113089245D02*
X153199255Y-113155967D01*
X153199255Y-113155967D02*
X153332698Y-113289411D01*
X153332698Y-113289411D02*
X153399420Y-113556298D01*
X153399420Y-113556298D02*
X153399420Y-114023350D01*
X153399420Y-114023350D02*
X153332698Y-114290237D01*
X153332698Y-114290237D02*
X153199255Y-114423681D01*
X153199255Y-114423681D02*
X153065811Y-114490402D01*
X153065811Y-114490402D02*
X152798924Y-114490402D01*
X152798924Y-114490402D02*
X152665481Y-114423681D01*
X152665481Y-114423681D02*
X152532037Y-114290237D01*
X152532037Y-114290237D02*
X152465316Y-114023350D01*
X152465316Y-114023350D02*
X152465316Y-113556298D01*
X152465316Y-113556298D02*
X152532037Y-113289411D01*
X152532037Y-113289411D02*
X152665481Y-113155967D01*
X152665481Y-113155967D02*
X152798924Y-113089245D01*
X153999916Y-113956628D02*
X155067465Y-113956628D01*
X156401900Y-114490402D02*
X155734682Y-114490402D01*
X155734682Y-114490402D02*
X155734682Y-113089245D01*
X156868952Y-114490402D02*
X156868952Y-113089245D01*
X157336005Y-113089245D02*
X157803057Y-114490402D01*
X157803057Y-114490402D02*
X158270110Y-113089245D01*
X158603719Y-113089245D02*
X159471102Y-113089245D01*
X159471102Y-113089245D02*
X159004049Y-113623019D01*
X159004049Y-113623019D02*
X159204215Y-113623019D01*
X159204215Y-113623019D02*
X159337658Y-113689741D01*
X159337658Y-113689741D02*
X159404380Y-113756463D01*
X159404380Y-113756463D02*
X159471102Y-113889906D01*
X159471102Y-113889906D02*
X159471102Y-114223515D01*
X159471102Y-114223515D02*
X159404380Y-114356959D01*
X159404380Y-114356959D02*
X159337658Y-114423681D01*
X159337658Y-114423681D02*
X159204215Y-114490402D01*
X159204215Y-114490402D02*
X158803884Y-114490402D01*
X158803884Y-114490402D02*
X158670441Y-114423681D01*
X158670441Y-114423681D02*
X158603719Y-114356959D01*
X160538650Y-113756463D02*
X160071597Y-113756463D01*
X160071597Y-114490402D02*
X160071597Y-113089245D01*
X160071597Y-113089245D02*
X160738815Y-113089245D01*
D11*
X151466666Y-88126109D02*
X151228571Y-88126109D01*
X151228571Y-88126109D02*
X151228571Y-87626109D01*
X151609524Y-87673728D02*
X151633333Y-87649919D01*
X151633333Y-87649919D02*
X151680952Y-87626109D01*
X151680952Y-87626109D02*
X151800000Y-87626109D01*
X151800000Y-87626109D02*
X151847619Y-87649919D01*
X151847619Y-87649919D02*
X151871428Y-87673728D01*
X151871428Y-87673728D02*
X151895238Y-87721347D01*
X151895238Y-87721347D02*
X151895238Y-87768966D01*
X151895238Y-87768966D02*
X151871428Y-87840395D01*
X151871428Y-87840395D02*
X151585714Y-88126109D01*
X151585714Y-88126109D02*
X151895238Y-88126109D01*
D14*
%TO.C,U1*%
X151255000Y-89400000D02*
X151255000Y-91400000D01*
X153145000Y-89400000D02*
X153145000Y-91400000D01*
D15*
X152900000Y-88800000D02*
G75*
G02*
X152700000Y-88800000I-100000J0D01*
G01*
X152700000Y-88800000D02*
G75*
G02*
X152900000Y-88800000I100000J0D01*
G01*
D16*
%TO.C,C7*%
X158165000Y-110423752D02*
X158165000Y-109901248D01*
X159635000Y-110423752D02*
X159635000Y-109901248D01*
%TO.C,C2*%
X151965000Y-85176248D02*
X151965000Y-85698752D01*
X153435000Y-85176248D02*
X153435000Y-85698752D01*
%TO.C,C1*%
X147923752Y-82565000D02*
X147401248Y-82565000D01*
X147923752Y-84035000D02*
X147401248Y-84035000D01*
%TO.C,R1*%
X153472936Y-83665000D02*
X153927064Y-83665000D01*
X153472936Y-85135000D02*
X153927064Y-85135000D01*
%TO.C,R2*%
X154872936Y-97465000D02*
X155327064Y-97465000D01*
X154872936Y-98935000D02*
X155327064Y-98935000D01*
D15*
%TO.C,U4*%
X152200000Y-92300000D02*
G75*
G02*
X152000000Y-92300000I-100000J0D01*
G01*
X152000000Y-92300000D02*
G75*
G02*
X152200000Y-92300000I100000J0D01*
G01*
D16*
%TO.C,R3*%
X146865000Y-93772936D02*
X146865000Y-94227064D01*
X148335000Y-93772936D02*
X148335000Y-94227064D01*
%TO.C,C3*%
X149101248Y-85565000D02*
X149623752Y-85565000D01*
X149101248Y-87035000D02*
X149623752Y-87035000D01*
%TO.C,C6*%
X156165000Y-109901248D02*
X156165000Y-110423752D01*
X157635000Y-109901248D02*
X157635000Y-110423752D01*
%TO.C,L1*%
X151960242Y-82340000D02*
X151139758Y-82340000D01*
X151960242Y-83460000D02*
X151139758Y-83460000D01*
%TO.C,C5*%
X153365000Y-96901248D02*
X153365000Y-97423752D01*
X154835000Y-96901248D02*
X154835000Y-97423752D01*
%TO.C,C4*%
X149265000Y-94261252D02*
X149265000Y-93738748D01*
X150735000Y-94261252D02*
X150735000Y-93738748D01*
D14*
%TO.C,U3*%
X145750000Y-100250000D02*
X145750000Y-109950000D01*
X155850000Y-109950000D02*
X155850000Y-100250000D01*
D15*
X146500000Y-111200000D02*
G75*
G02*
X146300000Y-111200000I-100000J0D01*
G01*
X146300000Y-111200000D02*
G75*
G02*
X146500000Y-111200000I100000J0D01*
G01*
D16*
%TO.C,L2*%
X151960242Y-87340000D02*
X151139758Y-87340000D01*
X151960242Y-88460000D02*
X151139758Y-88460000D01*
%TO.C,J1*%
X152450000Y-82640000D02*
X152700000Y-82140000D01*
X152700000Y-82140000D02*
X152950000Y-82640000D01*
X152950000Y-82640000D02*
X152450000Y-82640000D01*
%TD*%
M02*
