M48
; DRILL file {KiCad 9.0.2+dfsg-1} date 2026-08-02T20:11:58+0200
; FORMAT={-:-/ absolute / metric / decimal}
; #@! TF.CreationDate,2026-08-02T20:11:58+02:00
; #@! TF.GenerationSoftware,Kicad,Pcbnew,9.0.2+dfsg-1
; #@! TF.FileFunction,NonPlated,1,6,NPTH
FMAT,2
METRIC
; #@! TA.AperFunction,NonPlated,NPTH,ComponentDrill
T1C0.500
; #@! TA.AperFunction,NonPlated,NPTH,ComponentDrill
T2C1.000
; #@! TA.AperFunction,NonPlated,NPTH,ComponentDrill
T3C1.270
; #@! TA.AperFunction,NonPlated,NPTH,ComponentDrill
T4C2.500
; #@! TA.AperFunction,NonPlated,NPTH,ComponentDrill
T5C3.000
; #@! TA.AperFunction,NonPlated,NPTH,ComponentDrill
T6C3.500
; #@! TA.AperFunction,NonPlated,NPTH,ComponentDrill
T7C8.000
%
G90
G05
T1
X94.91Y-61.408
X94.91Y-64.408
X95.684Y-61.408
X95.684Y-64.408
X96.434Y-61.408
X96.434Y-64.408
X97.184Y-64.408
X97.196Y-61.408
X97.946Y-61.408
X97.946Y-64.408
X115.51Y-61.408
X115.51Y-64.408
X116.284Y-61.408
X116.284Y-64.408
X117.034Y-61.408
X117.034Y-64.408
X117.784Y-64.408
X117.796Y-61.408
X118.546Y-61.408
X118.546Y-64.408
X136.11Y-61.408
X136.11Y-64.408
X136.884Y-61.408
X136.884Y-64.408
X137.634Y-61.408
X137.634Y-64.408
X138.384Y-64.408
X138.396Y-61.408
X139.146Y-61.408
X139.146Y-64.408
X156.71Y-61.405
X156.71Y-64.405
X157.484Y-61.405
X157.484Y-64.405
X158.984Y-64.405
X158.996Y-61.405
X159.746Y-61.405
X159.746Y-64.405
X177.31Y-61.401
X177.31Y-64.401
X178.084Y-61.401
X178.084Y-64.401
X178.834Y-61.401
X178.834Y-64.401
X179.584Y-64.401
X179.596Y-61.401
X180.346Y-61.401
X180.346Y-64.401
X203.334Y-30.687
X203.334Y-31.461
X203.334Y-32.211
X203.334Y-32.961
X203.334Y-33.723
X203.334Y-103.677
X203.334Y-104.451
X203.334Y-105.951
X203.334Y-106.713
X203.334Y-140.177
X203.334Y-140.951
X203.334Y-141.701
X203.334Y-142.451
X203.334Y-143.213
X206.334Y-30.687
X206.334Y-31.461
X206.334Y-32.211
X206.334Y-32.973
X206.334Y-33.723
X206.334Y-103.677
X206.334Y-104.451
X206.334Y-105.963
X206.334Y-106.713
X206.334Y-140.177
X206.334Y-140.951
X206.334Y-141.701
X206.334Y-142.463
X206.334Y-143.213
X209.972Y-123.398
X209.972Y-126.398
X210.022Y-50.401
X210.022Y-53.401
X210.022Y-86.898
X210.022Y-89.898
X210.722Y-126.398
X210.734Y-123.398
X210.772Y-53.401
X210.772Y-89.898
X210.784Y-50.401
X210.784Y-86.898
X212.234Y-123.398
X212.234Y-126.398
X212.284Y-50.401
X212.284Y-53.401
X212.284Y-86.898
X212.284Y-89.898
X213.008Y-123.398
X213.008Y-126.398
X213.058Y-50.401
X213.058Y-53.401
X213.058Y-86.898
X213.058Y-89.898
X216.734Y-103.677
X216.734Y-104.451
X216.734Y-105.951
X216.734Y-106.713
X216.734Y-140.177
X216.734Y-140.951
X216.734Y-141.701
X216.734Y-142.451
X216.734Y-143.213
X216.735Y-67.184
X216.735Y-67.958
X216.735Y-68.708
X216.735Y-69.458
X216.735Y-70.22
X216.737Y-30.687
X216.737Y-31.461
X216.737Y-32.211
X216.737Y-32.961
X216.737Y-33.723
X219.734Y-103.677
X219.734Y-104.451
X219.734Y-105.963
X219.734Y-106.713
X219.734Y-140.177
X219.734Y-140.951
X219.734Y-141.701
X219.734Y-142.463
X219.734Y-143.213
X219.735Y-67.184
X219.735Y-67.958
X219.735Y-68.708
X219.735Y-69.47
X219.735Y-70.22
X219.737Y-30.687
X219.737Y-31.461
X219.737Y-32.211
X219.737Y-32.973
X219.737Y-33.723
X223.422Y-50.398
X223.422Y-53.398
X223.422Y-86.901
X223.422Y-89.901
X223.422Y-123.398
X223.422Y-126.398
X224.172Y-53.398
X224.172Y-89.901
X224.172Y-126.398
X224.184Y-50.398
X224.184Y-86.901
X224.184Y-123.398
X225.684Y-50.398
X225.684Y-53.398
X225.684Y-86.901
X225.684Y-89.901
X225.684Y-123.398
X225.684Y-126.398
X226.458Y-50.398
X226.458Y-53.398
X226.458Y-86.901
X226.458Y-89.901
X226.458Y-123.398
X226.458Y-126.398
T2
X158.034Y-96.591
X167.034Y-96.591
X167.934Y-109.461
X176.934Y-109.461
X179.325Y-109.461
X188.325Y-109.461
X193.634Y-96.601
X193.634Y-109.461
X202.634Y-96.601
X202.634Y-109.461
T3
X52.125Y-80.901
X52.125Y-92.901
X52.125Y-94.901
X52.125Y-106.901
X52.125Y-108.901
X52.125Y-120.901
X52.125Y-122.901
X52.125Y-134.901
X52.165Y-136.901
X52.165Y-148.901
X73.625Y-88.401
X73.625Y-100.401
X73.625Y-102.401
X73.625Y-114.401
X73.625Y-116.401
X73.625Y-128.401
X73.625Y-130.401
X73.625Y-142.401
X73.625Y-148.401
X73.625Y-157.401
X83.625Y-92.441
X83.625Y-106.441
X83.625Y-124.361
X83.625Y-138.361
X94.597Y-59.846
X95.625Y-92.441
X95.625Y-106.441
X95.625Y-124.361
X95.625Y-138.361
X106.597Y-59.846
X121.187Y-59.821
X133.187Y-59.821
X141.987Y-59.836
X153.987Y-59.836
X168.687Y-59.821
X180.625Y-148.611
X180.625Y-158.901
X180.687Y-59.821
X192.625Y-158.901
X198.625Y-148.611
T4
X82.825Y-156.951
X96.425Y-156.951
X194.904Y-120.019
T5
X211.504Y-118.701
X211.509Y-45.708
X211.509Y-82.208
X211.509Y-94.581
X211.509Y-131.081
X211.509Y-155.201
X211.534Y-58.081
X224.909Y-45.705
X224.909Y-58.066
X224.909Y-82.205
X224.909Y-94.564
X224.909Y-118.701
X224.909Y-155.201
X224.934Y-131.066
T6
X194.479Y-77.581
X194.479Y-86.081
T7
X87.217Y-25.871
X87.217Y-55.871
X113.887Y-25.761
X113.887Y-55.761
X161.207Y-25.451
X161.207Y-55.451
X187.877Y-25.341
X187.877Y-55.341
M30
