M48
; DRILL file {KiCad 9.0.2+dfsg-1} date 2026-08-02T20:11:58+0200
; FORMAT={-:-/ absolute / metric / decimal}
; #@! TF.CreationDate,2026-08-02T20:11:58+02:00
; #@! TF.GenerationSoftware,Kicad,Pcbnew,9.0.2+dfsg-1
; #@! TF.FileFunction,Plated,1,6,PTH
FMAT,2
METRIC
; #@! TA.AperFunction,Plated,PTH,ViaDrill
T1C0.250
; #@! TA.AperFunction,Plated,PTH,ComponentDrill
T2C0.500
; #@! TA.AperFunction,Plated,PTH,ViaDrill
T3C0.625
; #@! TA.AperFunction,Plated,PTH,ComponentDrill
T4C0.800
; #@! TA.AperFunction,Plated,PTH,ComponentDrill
T5C1.000
; #@! TA.AperFunction,Plated,PTH,ComponentDrill
T6C1.020
; #@! TA.AperFunction,Plated,PTH,ComponentDrill
T7C1.100
; #@! TA.AperFunction,Plated,PTH,ComponentDrill
T8C1.200
; #@! TA.AperFunction,Plated,PTH,ComponentDrill
T9C1.300
; #@! TA.AperFunction,Plated,PTH,ComponentDrill
T10C1.500
; #@! TA.AperFunction,Plated,PTH,ComponentDrill
T11C2.000
; #@! TA.AperFunction,Plated,PTH,ComponentDrill
T12C2.500
; #@! TA.AperFunction,Plated,PTH,ComponentDrill
T13C3.400
; #@! TA.AperFunction,Plated,PTH,ComponentDrill
T14C5.000
%
G90
G05
T1
X57.134Y-88.701
X57.534Y-126.701
X57.634Y-102.201
X57.634Y-116.401
X57.834Y-143.501
X65.7Y-74.151
X65.7Y-77.161
X68.625Y-84.901
X68.625Y-96.901
X68.625Y-108.901
X68.625Y-120.901
X68.625Y-132.901
X77.625Y-94.401
X77.625Y-108.401
X77.625Y-136.401
X77.634Y-122.401
X79.35Y-79.0
X79.575Y-99.401
X79.6Y-113.401
X79.6Y-127.401
X79.6Y-141.401
X79.663Y-89.401
X79.663Y-103.401
X79.663Y-117.401
X79.663Y-131.401
X82.034Y-151.201
X87.536Y-78.029
X88.7Y-124.651
X88.7Y-138.651
X89.834Y-114.701
X90.55Y-92.151
X90.55Y-106.151
X90.625Y-150.651
X91.416Y-75.599
X92.588Y-144.401
X92.588Y-146.401
X95.125Y-131.401
X95.125Y-132.151
X95.125Y-132.901
X95.875Y-140.151
X99.834Y-116.901
X99.834Y-121.901
X102.507Y-54.711
X105.75Y-79.0
X113.834Y-149.201
X113.834Y-150.401
X114.036Y-78.029
X116.0Y-89.25
X117.816Y-77.499
X119.6Y-86.0
X119.8Y-87.25
X119.8Y-89.25
X122.0Y-88.9
X122.3Y-111.251
X122.3Y-113.251
X122.625Y-156.601
X123.334Y-127.826
X124.588Y-156.551
X125.234Y-127.826
X127.134Y-127.826
X127.934Y-110.601
X129.034Y-127.81
X129.107Y-54.711
X129.825Y-116.651
X130.034Y-127.101
X130.934Y-127.835
X131.95Y-111.251
X131.95Y-113.251
X132.1Y-79.0
X132.334Y-90.301
X132.534Y-125.801
X134.525Y-87.251
X134.534Y-89.251
X138.325Y-89.251
X138.534Y-123.801
X138.734Y-125.901
X140.29Y-78.14
X144.216Y-77.499
X149.907Y-54.711
X152.334Y-121.801
X156.024Y-151.292
X156.734Y-124.401
X158.5Y-79.0
X159.034Y-93.126
X159.788Y-117.001
X159.788Y-118.901
X161.584Y-112.001
X161.584Y-113.901
X162.134Y-100.701
X162.225Y-135.664
X162.645Y-133.801
X162.925Y-141.701
X163.025Y-148.664
X164.034Y-100.701
X164.225Y-135.664
X164.925Y-139.839
X164.925Y-141.701
X165.025Y-146.801
X165.025Y-148.664
X166.034Y-93.101
X166.671Y-78.14
X168.934Y-112.939
X169.742Y-97.376
X170.607Y-75.608
X170.692Y-92.601
X170.825Y-141.701
X170.925Y-148.664
X172.825Y-139.839
X172.825Y-141.701
X172.925Y-146.801
X172.925Y-148.664
X173.842Y-97.376
X174.792Y-92.601
X175.934Y-112.939
X176.607Y-54.711
X176.892Y-94.676
X178.825Y-83.064
X180.334Y-112.939
X181.092Y-98.001
X182.95Y-73.901
X182.95Y-76.911
X183.0Y-83.101
X183.0Y-85.101
X183.625Y-142.901
X184.234Y-90.001
X184.234Y-92.001
X185.625Y-152.826
X186.625Y-142.901
X187.334Y-112.939
X187.625Y-152.826
X188.734Y-90.901
X188.734Y-92.901
X189.034Y-110.401
X189.494Y-111.501
X189.625Y-142.901
X191.944Y-104.751
X192.394Y-111.006
X192.394Y-112.006
X192.625Y-142.901
X194.634Y-93.151
X194.659Y-112.939
X197.434Y-104.101
X198.134Y-97.301
X201.634Y-93.176
X201.634Y-112.939
X207.734Y-39.039
X207.734Y-75.539
X207.734Y-112.039
X207.734Y-148.539
X209.034Y-33.751
X209.034Y-70.251
X209.529Y-145.576
X209.561Y-36.076
X209.561Y-72.576
X209.561Y-109.076
X210.799Y-145.576
X210.831Y-36.076
X210.831Y-72.576
X210.831Y-109.076
X211.484Y-106.801
X211.534Y-33.751
X212.069Y-145.576
X212.101Y-32.501
X212.101Y-36.076
X212.101Y-72.576
X212.101Y-109.076
X212.709Y-105.576
X212.734Y-69.201
X212.734Y-142.101
X213.339Y-140.626
X213.371Y-31.126
X213.371Y-67.626
X213.371Y-104.126
X215.459Y-29.839
X215.484Y-64.764
X215.484Y-137.744
X215.534Y-101.281
X221.134Y-39.039
X221.134Y-75.539
X221.134Y-112.039
X221.134Y-148.539
X222.434Y-33.751
X222.434Y-70.301
X222.961Y-36.076
X222.961Y-72.576
X222.961Y-109.076
X222.961Y-145.576
X224.231Y-36.076
X224.231Y-72.576
X224.231Y-109.076
X224.231Y-145.576
X224.934Y-33.751
X224.934Y-106.751
X225.501Y-32.501
X225.501Y-36.076
X225.501Y-72.576
X225.501Y-109.076
X225.501Y-145.576
X226.134Y-69.201
X226.134Y-105.701
X226.309Y-142.126
X226.771Y-31.126
X226.771Y-67.626
X226.771Y-104.126
X226.771Y-140.626
X227.434Y-33.751
X227.434Y-70.251
X227.434Y-106.751
X227.434Y-143.251
X228.859Y-29.839
X228.884Y-64.801
X228.884Y-101.226
X228.909Y-137.729
T2
X91.647Y-30.956
X91.647Y-32.216
X92.397Y-29.926
X92.397Y-33.246
X92.433Y-24.261
X92.787Y-23.201
X92.787Y-25.322
X93.494Y-22.14
X93.494Y-26.383
X93.597Y-29.536
X93.597Y-33.636
X94.555Y-21.433
X94.555Y-27.09
X94.927Y-29.536
X94.927Y-33.636
X95.615Y-21.079
X95.615Y-27.443
X96.267Y-29.536
X96.267Y-33.636
X96.676Y-21.433
X96.676Y-27.09
X97.597Y-29.536
X97.597Y-33.636
X97.736Y-22.14
X97.736Y-26.383
X98.444Y-18.251
X98.444Y-23.201
X98.444Y-25.322
X98.797Y-17.19
X98.797Y-19.312
X98.797Y-24.261
X98.797Y-29.926
X98.797Y-33.246
X99.504Y-16.13
X99.504Y-20.372
X99.547Y-30.956
X99.547Y-32.216
X100.565Y-15.423
X100.565Y-21.079
X101.626Y-15.069
X101.626Y-21.433
X101.647Y-30.956
X101.647Y-32.216
X102.397Y-29.926
X102.397Y-33.246
X102.686Y-15.423
X102.686Y-21.079
X103.597Y-29.536
X103.597Y-33.636
X103.747Y-16.13
X103.747Y-20.372
X104.454Y-17.19
X104.454Y-19.312
X104.808Y-18.251
X104.927Y-29.536
X104.927Y-33.636
X106.267Y-29.536
X106.267Y-33.636
X107.597Y-29.536
X107.597Y-33.636
X108.797Y-29.926
X108.797Y-33.246
X109.547Y-30.956
X109.547Y-32.216
X118.247Y-30.956
X118.247Y-32.216
X118.997Y-29.926
X118.997Y-33.246
X119.005Y-24.261
X119.359Y-23.201
X119.359Y-25.322
X120.066Y-22.14
X120.066Y-26.383
X120.197Y-29.536
X120.197Y-33.636
X121.126Y-21.433
X121.126Y-27.09
X121.527Y-29.536
X121.527Y-33.636
X122.187Y-21.079
X122.187Y-27.443
X122.867Y-29.536
X122.867Y-33.636
X123.248Y-21.433
X123.248Y-27.09
X124.197Y-29.536
X124.197Y-33.636
X124.308Y-22.14
X124.308Y-26.383
X125.016Y-18.251
X125.016Y-23.201
X125.016Y-25.322
X125.369Y-17.19
X125.369Y-19.312
X125.369Y-24.261
X125.397Y-29.926
X125.397Y-33.246
X126.076Y-16.13
X126.076Y-20.372
X126.147Y-30.956
X126.147Y-32.216
X127.137Y-15.423
X127.137Y-21.079
X128.198Y-15.069
X128.198Y-21.433
X128.247Y-30.956
X128.247Y-32.216
X128.997Y-29.926
X128.997Y-33.246
X129.258Y-15.423
X129.258Y-21.079
X130.197Y-29.536
X130.197Y-33.636
X130.319Y-16.13
X130.319Y-20.372
X131.026Y-17.19
X131.026Y-19.312
X131.38Y-18.251
X131.527Y-29.536
X131.527Y-33.636
X132.867Y-29.536
X132.867Y-33.636
X134.197Y-29.536
X134.197Y-33.636
X135.397Y-29.926
X135.397Y-33.246
X136.147Y-30.956
X136.147Y-32.216
X139.047Y-30.956
X139.047Y-32.216
X139.797Y-29.926
X139.797Y-33.246
X139.805Y-24.261
X140.159Y-23.201
X140.159Y-25.322
X140.866Y-22.14
X140.866Y-26.383
X140.997Y-29.536
X140.997Y-33.636
X141.926Y-21.433
X141.926Y-27.09
X142.327Y-29.536
X142.327Y-33.636
X142.987Y-21.079
X142.987Y-27.443
X143.667Y-29.536
X143.667Y-33.636
X144.048Y-21.433
X144.048Y-27.09
X144.997Y-29.536
X144.997Y-33.636
X145.108Y-22.14
X145.108Y-26.383
X145.816Y-18.251
X145.816Y-23.201
X145.816Y-25.322
X146.169Y-17.19
X146.169Y-19.312
X146.169Y-24.261
X146.197Y-29.926
X146.197Y-33.246
X146.876Y-16.13
X146.876Y-20.372
X146.947Y-30.956
X146.947Y-32.216
X147.937Y-15.423
X147.937Y-21.079
X148.998Y-15.069
X148.998Y-21.433
X149.047Y-30.956
X149.047Y-32.216
X149.797Y-29.926
X149.797Y-33.246
X150.058Y-15.423
X150.058Y-21.079
X150.997Y-29.536
X150.997Y-33.636
X151.119Y-16.13
X151.119Y-20.372
X151.826Y-17.19
X151.826Y-19.312
X152.18Y-18.251
X152.327Y-29.536
X152.327Y-33.636
X153.667Y-29.536
X153.667Y-33.636
X154.997Y-29.536
X154.997Y-33.636
X156.197Y-29.926
X156.197Y-33.246
X156.947Y-30.956
X156.947Y-32.216
X165.747Y-30.956
X165.747Y-32.216
X166.497Y-29.926
X166.497Y-33.246
X166.505Y-24.261
X166.859Y-23.201
X166.859Y-25.322
X167.566Y-22.14
X167.566Y-26.383
X167.697Y-29.536
X167.697Y-33.636
X168.626Y-21.433
X168.626Y-27.09
X169.027Y-29.536
X169.027Y-33.636
X169.687Y-21.079
X169.687Y-27.443
X170.367Y-29.536
X170.367Y-33.636
X170.748Y-21.433
X170.748Y-27.09
X171.697Y-29.536
X171.697Y-33.636
X171.808Y-22.14
X171.808Y-26.383
X172.516Y-18.251
X172.516Y-23.201
X172.516Y-25.322
X172.869Y-17.19
X172.869Y-19.312
X172.869Y-24.261
X172.897Y-29.926
X172.897Y-33.246
X173.576Y-16.13
X173.576Y-20.372
X173.647Y-30.956
X173.647Y-32.216
X174.637Y-15.423
X174.637Y-21.079
X175.698Y-15.069
X175.698Y-21.433
X175.747Y-30.956
X175.747Y-32.216
X176.497Y-29.926
X176.497Y-33.246
X176.758Y-15.423
X176.758Y-21.079
X177.697Y-29.536
X177.697Y-33.636
X177.819Y-16.13
X177.819Y-20.372
X178.526Y-17.19
X178.526Y-19.312
X178.88Y-18.251
X179.027Y-29.536
X179.027Y-33.636
X180.367Y-29.536
X180.367Y-33.636
X181.697Y-29.536
X181.697Y-33.636
X182.897Y-29.926
X182.897Y-33.246
X183.647Y-30.956
X183.647Y-32.216
X188.205Y-33.161
X188.559Y-32.101
X188.559Y-34.222
X189.266Y-31.04
X189.266Y-35.283
X190.326Y-30.333
X190.326Y-35.99
X191.387Y-29.979
X191.387Y-36.343
X192.448Y-30.333
X192.448Y-35.99
X193.508Y-31.04
X193.508Y-35.283
X194.216Y-27.151
X194.216Y-32.101
X194.216Y-34.222
X194.569Y-26.09
X194.569Y-28.212
X194.569Y-33.161
X195.276Y-25.03
X195.276Y-29.272
X196.337Y-24.323
X196.337Y-29.979
X197.398Y-23.969
X197.398Y-30.333
X198.458Y-24.323
X198.458Y-29.979
X199.519Y-25.03
X199.519Y-29.272
X200.226Y-26.09
X200.226Y-28.212
X200.58Y-27.151
T3
X59.725Y-85.301
X59.725Y-97.401
X59.725Y-109.401
X59.725Y-121.401
X59.725Y-133.401
X60.825Y-126.151
X61.375Y-113.901
X61.375Y-138.157
X66.125Y-89.901
X66.125Y-101.901
X66.125Y-113.501
X66.125Y-125.501
X66.125Y-137.501
X73.125Y-152.401
X187.825Y-135.351
X189.125Y-135.351
T4
X98.687Y-52.986
X100.597Y-52.986
X102.507Y-52.986
X125.287Y-52.986
X125.855Y-93.421
X127.197Y-52.986
X128.307Y-105.661
X128.307Y-107.661
X128.395Y-93.421
X129.107Y-52.986
X130.307Y-105.661
X130.307Y-107.661
X132.307Y-105.661
X132.307Y-107.661
X146.087Y-52.986
X147.997Y-52.986
X149.907Y-52.986
X172.787Y-52.986
X174.697Y-52.986
X176.607Y-52.986
X182.42Y-137.651
X184.92Y-137.651
X198.42Y-137.651
X200.92Y-137.651
T5
X63.625Y-92.901
X63.625Y-104.901
X63.625Y-116.901
X63.625Y-128.901
X63.625Y-140.901
X63.625Y-152.901
X63.66Y-80.901
X68.625Y-92.901
X68.625Y-104.901
X68.625Y-116.901
X68.625Y-128.901
X68.625Y-140.901
X68.625Y-152.901
X68.66Y-80.901
X79.49Y-84.32
X82.03Y-84.32
X84.545Y-142.151
X84.57Y-84.32
X87.085Y-142.151
X87.11Y-84.32
X89.625Y-142.151
X89.65Y-84.32
X92.165Y-142.151
X92.19Y-84.32
X94.705Y-142.151
X105.89Y-84.32
X108.375Y-91.421
X108.375Y-93.961
X108.375Y-96.501
X108.375Y-99.041
X108.375Y-101.581
X108.375Y-104.121
X108.375Y-106.661
X108.375Y-109.201
X108.375Y-111.741
X108.375Y-114.281
X108.375Y-116.821
X108.375Y-119.361
X108.375Y-121.901
X108.375Y-124.441
X108.375Y-126.981
X108.375Y-129.521
X108.375Y-132.061
X108.375Y-134.601
X108.375Y-137.141
X108.375Y-139.681
X108.375Y-142.221
X108.375Y-144.761
X108.375Y-147.301
X108.375Y-149.841
X108.375Y-152.381
X108.375Y-154.921
X108.375Y-157.461
X108.43Y-84.32
X110.915Y-91.421
X110.915Y-93.961
X110.915Y-96.501
X110.915Y-99.041
X110.915Y-101.581
X110.915Y-104.121
X110.915Y-106.661
X110.915Y-109.201
X110.915Y-111.741
X110.915Y-114.281
X110.915Y-116.821
X110.915Y-119.361
X110.915Y-121.901
X110.915Y-124.441
X110.915Y-126.981
X110.915Y-129.521
X110.915Y-132.061
X110.915Y-134.601
X110.915Y-137.141
X110.915Y-139.681
X110.915Y-142.221
X110.915Y-144.761
X110.915Y-147.301
X110.915Y-149.841
X110.915Y-152.381
X110.915Y-154.921
X110.915Y-157.461
X110.97Y-84.32
X113.51Y-84.32
X116.05Y-84.32
X118.59Y-84.32
X132.29Y-84.32
X134.83Y-84.32
X137.37Y-84.32
X139.91Y-84.32
X142.45Y-84.32
X143.375Y-91.421
X143.375Y-93.961
X143.375Y-96.501
X143.375Y-99.041
X143.375Y-101.581
X143.375Y-104.121
X143.375Y-106.661
X143.375Y-109.201
X143.375Y-111.741
X143.375Y-114.281
X143.375Y-116.821
X143.375Y-119.361
X143.375Y-121.901
X143.375Y-124.441
X143.375Y-126.981
X143.375Y-129.521
X143.375Y-132.061
X143.375Y-134.601
X143.375Y-137.141
X143.375Y-139.681
X143.375Y-142.221
X143.375Y-144.761
X143.375Y-147.301
X143.375Y-149.841
X143.375Y-152.381
X143.375Y-154.921
X143.375Y-157.461
X144.99Y-84.32
X145.915Y-91.421
X145.915Y-93.961
X145.915Y-96.501
X145.915Y-99.041
X145.915Y-101.581
X145.915Y-104.121
X145.915Y-106.661
X145.915Y-109.201
X145.915Y-111.741
X145.915Y-114.281
X145.915Y-116.821
X145.915Y-119.361
X145.915Y-121.901
X145.915Y-124.441
X145.915Y-126.981
X145.915Y-129.521
X145.915Y-132.061
X145.915Y-134.601
X145.915Y-137.141
X145.915Y-139.681
X145.915Y-142.221
X145.915Y-144.761
X145.915Y-147.301
X145.915Y-149.841
X145.915Y-152.381
X145.915Y-154.921
X145.915Y-157.461
X158.7Y-84.32
X159.005Y-140.501
X159.005Y-143.041
X159.005Y-145.581
X159.005Y-148.121
X159.005Y-150.661
X159.005Y-153.201
X159.454Y-120.921
X159.454Y-123.461
X159.454Y-126.001
X159.454Y-128.541
X161.034Y-92.651
X161.034Y-95.651
X161.24Y-84.32
X161.994Y-120.921
X161.994Y-123.461
X161.994Y-126.001
X161.994Y-128.541
X163.78Y-84.32
X164.034Y-92.651
X164.034Y-95.651
X166.32Y-84.32
X168.86Y-84.32
X170.934Y-110.401
X170.934Y-113.401
X171.4Y-84.32
X173.934Y-110.401
X173.934Y-113.401
X176.785Y-140.501
X176.785Y-143.041
X176.785Y-145.581
X176.785Y-148.121
X176.785Y-150.661
X176.785Y-153.201
X180.97Y-80.901
X182.325Y-110.401
X182.325Y-113.401
X185.325Y-110.401
X185.325Y-113.401
X185.97Y-80.901
X190.729Y-76.751
X190.729Y-79.291
X190.729Y-81.831
X190.729Y-84.371
X190.729Y-86.911
X196.634Y-92.661
X196.634Y-95.661
X196.634Y-110.401
X196.634Y-113.401
X199.634Y-92.661
X199.634Y-95.661
X199.634Y-110.401
X199.634Y-113.401
T6
X54.085Y-83.901
X54.085Y-86.901
X54.085Y-89.901
X54.085Y-97.901
X54.085Y-100.901
X54.085Y-103.901
X54.085Y-111.901
X54.085Y-114.901
X54.085Y-117.901
X54.085Y-125.901
X54.085Y-128.901
X54.085Y-131.901
X54.125Y-139.901
X54.125Y-142.901
X54.125Y-145.901
X75.585Y-91.401
X75.585Y-94.401
X75.585Y-97.401
X75.585Y-105.401
X75.585Y-108.401
X75.585Y-111.401
X75.585Y-119.401
X75.585Y-122.401
X75.585Y-125.401
X75.585Y-133.401
X75.585Y-136.401
X75.585Y-139.401
X75.585Y-151.401
X75.585Y-154.401
X86.625Y-94.401
X86.625Y-108.401
X86.625Y-122.401
X86.625Y-136.401
X89.625Y-94.401
X89.625Y-108.401
X89.625Y-122.401
X89.625Y-136.401
X92.625Y-94.401
X92.625Y-108.401
X92.625Y-122.401
X92.625Y-136.401
X97.597Y-57.886
X100.597Y-57.886
X103.597Y-57.886
X124.187Y-57.861
X127.187Y-57.861
X130.187Y-57.861
X144.987Y-57.876
X147.987Y-57.876
X150.987Y-57.876
X171.687Y-57.861
X174.687Y-57.861
X177.687Y-57.861
X183.625Y-146.651
X183.625Y-156.941
X186.625Y-146.651
X186.625Y-156.941
X189.625Y-146.651
X189.625Y-156.941
X192.625Y-146.651
X195.625Y-146.651
X210.004Y-111.381
X210.004Y-114.381
X210.009Y-38.388
X210.009Y-41.388
X210.009Y-74.888
X210.009Y-77.888
X210.009Y-98.901
X210.009Y-101.901
X210.009Y-135.401
X210.009Y-138.401
X210.009Y-147.881
X210.009Y-150.881
X210.034Y-62.401
X210.034Y-65.401
X213.004Y-111.381
X213.004Y-114.381
X213.009Y-38.388
X213.009Y-41.388
X213.009Y-74.888
X213.009Y-77.888
X213.009Y-98.901
X213.009Y-101.901
X213.009Y-135.401
X213.009Y-138.401
X213.009Y-147.881
X213.009Y-150.881
X213.034Y-62.401
X213.034Y-65.401
X223.409Y-38.385
X223.409Y-41.385
X223.409Y-62.386
X223.409Y-65.386
X223.409Y-74.885
X223.409Y-77.885
X223.409Y-98.884
X223.409Y-101.884
X223.409Y-111.381
X223.409Y-114.381
X223.409Y-147.881
X223.409Y-150.881
X223.434Y-135.386
X223.434Y-138.386
X226.409Y-38.385
X226.409Y-41.385
X226.409Y-62.386
X226.409Y-65.386
X226.409Y-74.885
X226.409Y-77.885
X226.409Y-98.884
X226.409Y-101.884
X226.409Y-111.381
X226.409Y-114.381
X226.409Y-147.881
X226.409Y-150.881
X226.434Y-135.386
X226.434Y-138.386
T7
X119.505Y-92.691
X119.505Y-95.231
X119.505Y-97.771
X119.505Y-100.311
X119.505Y-102.851
X119.505Y-105.391
X119.505Y-107.931
X119.505Y-110.471
X119.505Y-113.011
X119.505Y-115.551
X119.505Y-118.091
X119.505Y-120.631
X119.505Y-123.171
X119.505Y-125.711
X119.505Y-128.251
X119.505Y-130.791
X119.505Y-133.331
X119.505Y-135.871
X119.505Y-138.411
X119.505Y-140.951
X119.505Y-143.491
X119.505Y-146.031
X119.505Y-148.571
X119.505Y-151.111
X122.045Y-138.411
X122.556Y-98.991
X122.556Y-101.531
X122.556Y-104.071
X122.556Y-106.611
X122.556Y-109.151
X124.585Y-138.411
X127.125Y-138.411
X129.665Y-138.411
X132.205Y-95.231
X132.205Y-138.411
X134.745Y-92.691
X134.745Y-95.231
X134.745Y-97.771
X134.745Y-100.311
X134.745Y-102.851
X134.745Y-105.391
X134.745Y-107.931
X134.745Y-110.471
X134.745Y-113.011
X134.745Y-115.551
X134.745Y-118.091
X134.745Y-120.631
X134.745Y-123.171
X134.745Y-125.711
X134.745Y-128.251
X134.745Y-130.791
X134.745Y-133.331
X134.745Y-135.871
X134.745Y-138.411
X134.745Y-140.951
X134.745Y-143.491
X134.745Y-146.031
X134.745Y-148.571
X134.745Y-151.111
T8
X84.14Y-70.35
X87.64Y-70.35
X110.54Y-70.35
X114.04Y-70.35
X136.94Y-70.35
X140.44Y-70.35
X163.34Y-70.35
X166.84Y-70.35
X191.387Y-44.761
X198.887Y-44.761
T9
X63.625Y-69.901
X68.705Y-69.901
X82.437Y-35.411
X86.029Y-39.003
X180.838Y-69.901
X185.918Y-69.901
T10
X53.225Y-77.401
X58.425Y-77.401
X100.125Y-93.961
X100.125Y-99.041
X100.125Y-104.121
X100.125Y-109.201
X100.125Y-114.281
X100.125Y-119.361
X100.125Y-124.441
X100.125Y-129.521
X100.125Y-134.601
X100.125Y-139.681
X100.125Y-144.761
X100.125Y-149.841
X100.125Y-154.921
X104.525Y-91.421
X104.525Y-96.501
X104.525Y-101.581
X104.525Y-106.661
X104.525Y-111.741
X104.525Y-116.821
X104.525Y-121.901
X104.525Y-126.981
X104.525Y-132.061
X104.525Y-137.141
X104.525Y-142.221
X104.525Y-147.301
X104.525Y-152.381
X104.525Y-157.461
X149.806Y-126.981
X149.825Y-91.421
X149.825Y-96.501
X149.825Y-101.581
X149.825Y-106.661
X149.825Y-111.741
X149.825Y-116.821
X149.825Y-121.901
X149.825Y-132.061
X149.825Y-137.141
X149.825Y-142.221
X149.825Y-147.301
X149.825Y-152.381
X149.825Y-157.461
X154.125Y-93.961
X154.125Y-99.041
X154.125Y-129.521
X154.125Y-154.921
X154.144Y-104.121
X154.144Y-109.201
X154.144Y-114.281
X154.144Y-119.361
X154.144Y-124.441
X154.144Y-134.601
X154.144Y-139.681
X154.144Y-144.761
X154.144Y-149.841
X191.125Y-67.151
X191.125Y-72.201
T12
X159.005Y-136.691
X159.005Y-157.011
X176.785Y-136.691
X176.785Y-157.011
T13
X56.916Y-153.901
X56.925Y-70.401
X75.9Y-84.129
X95.8Y-84.129
X102.3Y-84.129
X122.2Y-84.129
X127.125Y-102.401
X127.125Y-121.901
X128.7Y-84.129
X148.6Y-84.129
X155.1Y-84.129
X175.0Y-84.129
X197.335Y-153.901
X197.335Y-70.401
T14
X95.615Y-24.261
X101.626Y-18.251
X122.187Y-24.261
X128.198Y-18.251
X142.987Y-24.261
X148.998Y-18.251
X169.687Y-24.261
X175.698Y-18.251
X191.387Y-33.161
X197.398Y-27.151
T11
G00X93.597Y-31.586
M15
G01X97.597Y-31.586
M16
G05
G00X103.597Y-31.586
M15
G01X107.597Y-31.586
M16
G05
G00X120.197Y-31.586
M15
G01X124.197Y-31.586
M16
G05
G00X130.197Y-31.586
M15
G01X134.197Y-31.586
M16
G05
G00X140.997Y-31.586
M15
G01X144.997Y-31.586
M16
G05
G00X150.997Y-31.586
M15
G01X154.997Y-31.586
M16
G05
G00X167.697Y-31.586
M15
G01X171.697Y-31.586
M16
G05
G00X177.697Y-31.586
M15
G01X181.697Y-31.586
M16
G05
T13
G00X75.9Y-68.8
M15
G01X75.9Y-67.2
M16
G05
G00X95.8Y-68.8
M15
G01X95.8Y-67.2
M16
G05
G00X102.3Y-68.8
M15
G01X102.3Y-67.2
M16
G05
G00X122.2Y-68.8
M15
G01X122.2Y-67.2
M16
G05
G00X128.7Y-68.8
M15
G01X128.7Y-67.2
M16
G05
G00X148.6Y-68.8
M15
G01X148.6Y-67.2
M16
G05
G00X155.1Y-68.8
M15
G01X155.1Y-67.2
M16
G05
G00X175.0Y-68.8
M15
G01X175.0Y-67.2
M16
G05
M30
