%TF.GenerationSoftware,KiCad,Pcbnew,9.0.2+dfsg-1*%
%TF.CreationDate,2026-08-02T20:11:47+02:00*%
%TF.ProjectId,board_logic,626f6172-645f-46c6-9f67-69632e6b6963,rev?*%
%TF.SameCoordinates,Original*%
%TF.FileFunction,Paste,Top*%
%TF.FilePolarity,Positive*%
%FSLAX46Y46*%
G04 Gerber Fmt 4.6, Leading zero omitted, Abs format (unit mm)*
G04 Created by KiCad (PCBNEW 9.0.2+dfsg-1) date 2026-08-02 20:11:47*
%MOMM*%
%LPD*%
G01*
G04 APERTURE LIST*
G04 Aperture macros list*
%AMRoundRect*
0 Rectangle with rounded corners*
0 $1 Rounding radius*
0 $2 $3 $4 $5 $6 $7 $8 $9 X,Y pos of 4 corners*
0 Add a 4 corners polygon primitive as box body*
4,1,4,$2,$3,$4,$5,$6,$7,$8,$9,$2,$3,0*
0 Add four circle primitives for the rounded corners*
1,1,$1+$1,$2,$3*
1,1,$1+$1,$4,$5*
1,1,$1+$1,$6,$7*
1,1,$1+$1,$8,$9*
0 Add four rect primitives between the rounded corners*
20,1,$1+$1,$2,$3,$4,$5,0*
20,1,$1+$1,$4,$5,$6,$7,0*
20,1,$1+$1,$6,$7,$8,$9,0*
20,1,$1+$1,$8,$9,$2,$3,0*%
G04 Aperture macros list end*
%ADD10RoundRect,0.250000X-0.450000X0.350000X-0.450000X-0.350000X0.450000X-0.350000X0.450000X0.350000X0*%
%ADD11RoundRect,0.250000X0.500000X1.050000X-0.500000X1.050000X-0.500000X-1.050000X0.500000X-1.050000X0*%
%ADD12RoundRect,0.150000X-0.150000X0.825000X-0.150000X-0.825000X0.150000X-0.825000X0.150000X0.825000X0*%
%ADD13RoundRect,0.250000X1.050000X-0.500000X1.050000X0.500000X-1.050000X0.500000X-1.050000X-0.500000X0*%
%ADD14RoundRect,0.250000X0.450000X-0.350000X0.450000X0.350000X-0.450000X0.350000X-0.450000X-0.350000X0*%
%ADD15R,1.400000X0.400000*%
%ADD16R,1.600000X2.300000*%
%ADD17R,1.600000X1.800000*%
%ADD18RoundRect,0.150000X-0.587500X-0.150000X0.587500X-0.150000X0.587500X0.150000X-0.587500X0.150000X0*%
%ADD19RoundRect,0.375000X-0.625000X-0.375000X0.625000X-0.375000X0.625000X0.375000X-0.625000X0.375000X0*%
%ADD20RoundRect,0.500000X-0.500000X-1.400000X0.500000X-1.400000X0.500000X1.400000X-0.500000X1.400000X0*%
G04 APERTURE END LIST*
D10*
%TO.C,R2*%
X120625400Y-154601377D03*
X120625400Y-156601377D03*
%TD*%
D11*
%TO.C,D1*%
X128525400Y-155601377D03*
X131525400Y-155601377D03*
%TD*%
D12*
%TO.C,U23*%
X226771321Y-104126377D03*
X225501321Y-104126377D03*
X224231321Y-104126377D03*
X222961321Y-104126377D03*
X222961321Y-109076377D03*
X224231321Y-109076377D03*
X225501321Y-109076377D03*
X226771321Y-109076377D03*
%TD*%
%TO.C,U20*%
X213371321Y-31126377D03*
X212101321Y-31126377D03*
X210831321Y-31126377D03*
X209561321Y-31126377D03*
X209561321Y-36076377D03*
X210831321Y-36076377D03*
X212101321Y-36076377D03*
X213371321Y-36076377D03*
%TD*%
D13*
%TO.C,D16*%
X59725400Y-121401377D03*
X59725400Y-124401377D03*
%TD*%
D12*
%TO.C,U25*%
X226771321Y-140626377D03*
X225501321Y-140626377D03*
X224231321Y-140626377D03*
X222961321Y-140626377D03*
X222961321Y-145576377D03*
X224231321Y-145576377D03*
X225501321Y-145576377D03*
X226771321Y-145576377D03*
%TD*%
D11*
%TO.C,D14*%
X74425400Y-145401377D03*
X77425400Y-145401377D03*
%TD*%
D13*
%TO.C,D18*%
X59725400Y-97401377D03*
X59725400Y-100401377D03*
%TD*%
D12*
%TO.C,U21*%
X226771321Y-67626377D03*
X225501321Y-67626377D03*
X224231321Y-67626377D03*
X222961321Y-67626377D03*
X222961321Y-72576377D03*
X224231321Y-72576377D03*
X225501321Y-72576377D03*
X226771321Y-72576377D03*
%TD*%
D13*
%TO.C,D13*%
X59725400Y-85301377D03*
X59725400Y-88301377D03*
%TD*%
D12*
%TO.C,U24*%
X213371321Y-104126377D03*
X212101321Y-104126377D03*
X210831321Y-104126377D03*
X209561321Y-104126377D03*
X209561321Y-109076377D03*
X210831321Y-109076377D03*
X212101321Y-109076377D03*
X213371321Y-109076377D03*
%TD*%
%TO.C,U22*%
X213371321Y-67626377D03*
X212101321Y-67626377D03*
X210831321Y-67626377D03*
X209561321Y-67626377D03*
X209561321Y-72576377D03*
X210831321Y-72576377D03*
X212101321Y-72576377D03*
X213371321Y-72576377D03*
%TD*%
D13*
%TO.C,D17*%
X59725400Y-109401377D03*
X59725400Y-112401377D03*
%TD*%
D14*
%TO.C,R1*%
X133625400Y-156601377D03*
X133625400Y-154601377D03*
%TD*%
D15*
%TO.C,J22*%
X199378821Y-83131377D03*
X199378821Y-82481377D03*
X199378821Y-81831377D03*
X199378821Y-81181377D03*
D16*
X201928821Y-78081377D03*
D15*
X199378821Y-80531377D03*
D17*
X201928821Y-80681377D03*
X201928821Y-82981377D03*
D16*
X201928821Y-85581377D03*
%TD*%
D10*
%TO.C,R3*%
X122625400Y-154601377D03*
X122625400Y-156601377D03*
%TD*%
D18*
%TO.C,Q1*%
X124587900Y-154651377D03*
X124587900Y-156551377D03*
X126462900Y-155601377D03*
%TD*%
D13*
%TO.C,D15*%
X59725400Y-133401377D03*
X59725400Y-136401377D03*
%TD*%
D12*
%TO.C,U26*%
X213338821Y-140626377D03*
X212068821Y-140626377D03*
X210798821Y-140626377D03*
X209528821Y-140626377D03*
X209528821Y-145576377D03*
X210798821Y-145576377D03*
X212068821Y-145576377D03*
X213338821Y-145576377D03*
%TD*%
D19*
%TO.C,U1*%
X188475400Y-135351377D03*
X188475400Y-137651377D03*
D20*
X194775400Y-137651377D03*
D19*
X188475400Y-139951377D03*
%TD*%
D12*
%TO.C,U19*%
X226771321Y-31126377D03*
X225501321Y-31126377D03*
X224231321Y-31126377D03*
X222961321Y-31126377D03*
X222961321Y-36076377D03*
X224231321Y-36076377D03*
X225501321Y-36076377D03*
X226771321Y-36076377D03*
%TD*%
M02*
