%TF.GenerationSoftware,KiCad,Pcbnew,9.0.2+dfsg-1*%
%TF.CreationDate,2026-08-02T20:11:47+02:00*%
%TF.ProjectId,board_logic,626f6172-645f-46c6-9f67-69632e6b6963,rev?*%
%TF.SameCoordinates,Original*%
%TF.FileFunction,Profile,NP*%
%FSLAX46Y46*%
G04 Gerber Fmt 4.6, Leading zero omitted, Abs format (unit mm)*
G04 Created by KiCad (PCBNEW 9.0.2+dfsg-1) date 2026-08-02 20:11:47*
%MOMM*%
%LPD*%
G01*
G04 APERTURE LIST*
%TA.AperFunction,Profile*%
%ADD10C,0.050000*%
%TD*%
G04 APERTURE END LIST*
D10*
X175833821Y-61398047D02*
G75*
G02*
X175833821Y-64404707I0J-1503330D01*
G01*
X181833821Y-64401377D02*
G75*
G02*
X181833821Y-61401377I0J1500000D01*
G01*
X221933821Y-86904707D02*
X220733821Y-86904707D01*
X206333821Y-158901377D02*
X206333821Y-144701377D01*
X155233821Y-61401377D02*
G75*
G02*
X155233821Y-64408083I-21J-1503353D01*
G01*
X229133821Y-123401377D02*
X227933821Y-123398047D01*
X206333821Y-49408037D02*
X206333821Y-35211367D01*
X83687151Y-13911367D02*
X195437151Y-13911367D01*
X220733821Y-159901377D02*
X219733821Y-158901377D01*
X215733821Y-159901377D02*
X207333821Y-159901377D01*
X219733821Y-122401377D02*
X219733821Y-108201377D01*
X208533821Y-86908037D02*
X207333821Y-86908037D01*
X220733821Y-50404707D02*
X219733821Y-49404707D01*
X216733821Y-158901377D02*
X215733821Y-159901377D01*
X206333821Y-54404707D02*
X206333821Y-85908037D01*
X181833821Y-64401377D02*
X194325400Y-64401377D01*
X161233821Y-64404707D02*
G75*
G02*
X161233821Y-61404753I-21J1499977D01*
G01*
X229133800Y-126401377D02*
X227933800Y-126401377D01*
X221933821Y-123398047D02*
G75*
G02*
X221933821Y-126397953I-21J-1499953D01*
G01*
X216733821Y-122401377D02*
X215733821Y-123401377D01*
X83687151Y-61411367D02*
X93433821Y-61404707D01*
X229133821Y-86904707D02*
X227933821Y-86901377D01*
X208483821Y-126398047D02*
X207333821Y-126401377D01*
X220733821Y-123401377D02*
X219733821Y-122401377D01*
X221933821Y-50404707D02*
X220733821Y-50404707D01*
X215733821Y-89894717D02*
X214533821Y-89894717D01*
X219733821Y-158901377D02*
X219733821Y-144701377D01*
X208533821Y-89894717D02*
X207333821Y-89894717D01*
X219737151Y-102201377D02*
X219733821Y-90901377D01*
X216733821Y-49408037D02*
X216743811Y-35214697D01*
X75687151Y-21911367D02*
G75*
G02*
X83687151Y-13911371I7999999J-3D01*
G01*
X83687151Y-61411367D02*
G75*
G02*
X75687153Y-53411367I-1J7999997D01*
G01*
X194335300Y-64401377D02*
G75*
G02*
X203335323Y-73401377I0J-9000023D01*
G01*
X134633821Y-61404707D02*
G75*
G02*
X134633821Y-64411293I-21J-1503293D01*
G01*
X215733821Y-53404707D02*
X214533821Y-53404707D01*
X219733821Y-49404707D02*
X219737091Y-35211367D01*
X203335270Y-150901377D02*
X203333821Y-144701377D01*
X120033821Y-64408037D02*
X134633821Y-64408037D01*
X75687151Y-21911367D02*
X75687151Y-53411367D01*
X216733821Y-144701377D02*
G75*
G02*
X219733821Y-144701377I1500000J0D01*
G01*
X207333821Y-28201377D02*
X215733821Y-28201377D01*
X203333821Y-35211367D02*
X203437151Y-53411367D01*
X216730491Y-102201377D02*
X216733821Y-90901377D01*
X219733821Y-54401377D02*
X220733821Y-53401377D01*
X207333821Y-50408037D02*
X206333821Y-49408037D01*
X140633821Y-64408037D02*
X155233821Y-64404707D01*
X206337151Y-29211367D02*
X207333821Y-28201377D01*
X216735486Y-85908037D02*
X216735486Y-71708037D01*
X229133821Y-28201377D02*
X230133821Y-29201377D01*
X208533821Y-50401377D02*
G75*
G02*
X208533821Y-53401423I-21J-1500023D01*
G01*
X229133821Y-50404707D02*
X227933821Y-50401377D01*
X227933821Y-53401377D02*
G75*
G02*
X227933821Y-50394623I-21J1503377D01*
G01*
X203437151Y-53411367D02*
G75*
G02*
X195437151Y-61411371I-8000001J-3D01*
G01*
X215733821Y-126401377D02*
X214483821Y-126401377D01*
X114035609Y-64411409D02*
X99433800Y-64408037D01*
X227933821Y-89904707D02*
G75*
G02*
X227933821Y-86898093I-21J1503307D01*
G01*
X93433821Y-64411367D02*
X59925400Y-64401378D01*
X208533821Y-86898047D02*
G75*
G02*
X208533821Y-89897953I-21J-1499953D01*
G01*
X230133821Y-49404707D02*
X229133821Y-50404707D01*
X230133821Y-85904707D02*
X229133821Y-86904707D01*
X221933821Y-126401377D02*
X220733821Y-126401377D01*
X181833821Y-61401377D02*
X195437151Y-61411367D01*
X216733821Y-49408037D02*
X215733821Y-50408037D01*
X99433821Y-61408037D02*
X114033821Y-61404707D01*
X203335270Y-150901377D02*
G75*
G02*
X194335270Y-159901370I-8999970J-23D01*
G01*
X203333821Y-108201377D02*
X203333821Y-138701377D01*
X219738816Y-65708037D02*
X219733821Y-54401377D01*
X214483821Y-126401377D02*
G75*
G02*
X214483821Y-123394623I-21J1503377D01*
G01*
X229133821Y-89904707D02*
X227933821Y-89904707D01*
X114033821Y-61404707D02*
G75*
G02*
X114033821Y-64411293I-21J-1503293D01*
G01*
X221933821Y-53401377D02*
X220733821Y-53401377D01*
X140633821Y-64408037D02*
G75*
G02*
X140633821Y-61407963I-21J1500037D01*
G01*
X219740481Y-29211377D02*
X220733821Y-28201377D01*
X195437151Y-13911367D02*
G75*
G02*
X203437233Y-21911367I49J-8000033D01*
G01*
X220733821Y-159901377D02*
X229133821Y-159901377D01*
X207333821Y-86908037D02*
X206333821Y-85908037D01*
X216732156Y-65708037D02*
X216733821Y-54401377D01*
X219733821Y-85904707D02*
X219735486Y-71708037D01*
X221933821Y-123398047D02*
X220733821Y-123401377D01*
X219733821Y-127401377D02*
X220733821Y-126401377D01*
X208483821Y-123398047D02*
G75*
G02*
X208483821Y-126397953I-21J-1499953D01*
G01*
X216735486Y-71708037D02*
G75*
G02*
X219735486Y-71708037I1500000J-5D01*
G01*
X219737151Y-138701377D02*
X219733821Y-127401377D01*
X208533821Y-50408037D02*
X207333821Y-50408037D01*
X219738816Y-65708037D02*
G75*
G02*
X216732156Y-65708037I-1503330J-5D01*
G01*
X203333821Y-144701377D02*
G75*
G02*
X206333821Y-144701377I1500000J0D01*
G01*
X206333821Y-122401377D02*
X206333821Y-108201377D01*
X206337151Y-29211367D02*
G75*
G02*
X203330491Y-29211367I-1503330J-10D01*
G01*
X219733821Y-90901377D02*
X220733821Y-89901377D01*
X219737151Y-102201377D02*
G75*
G02*
X216730491Y-102201377I-1503330J0D01*
G01*
X215733821Y-28201377D02*
X216733821Y-29207936D01*
X203333821Y-35211367D02*
G75*
G02*
X206333821Y-35211367I1500000J-10D01*
G01*
X230133821Y-127401377D02*
X230133821Y-158901377D01*
X99433821Y-64408037D02*
G75*
G02*
X99433821Y-61407963I-21J1500037D01*
G01*
X215733821Y-89894717D02*
X216733821Y-90894717D01*
X206337151Y-138701377D02*
X206333821Y-127401377D01*
X221933821Y-89904707D02*
X220733821Y-89904707D01*
X120033821Y-64408037D02*
G75*
G02*
X120033821Y-61407963I-21J1500037D01*
G01*
X93433821Y-61404707D02*
G75*
G02*
X93433821Y-64411293I-21J-1503293D01*
G01*
X50925400Y-73401378D02*
G75*
G02*
X59925400Y-64401380I9000000J-2D01*
G01*
X216733821Y-144701377D02*
X216733821Y-158901377D01*
X206337151Y-138701377D02*
G75*
G02*
X203330491Y-138701377I-1503330J0D01*
G01*
X206337151Y-102201377D02*
X206333821Y-90901377D01*
X161233821Y-61404707D02*
X175833821Y-61398047D01*
X216733821Y-108201377D02*
G75*
G02*
X219733821Y-108201377I1500000J0D01*
G01*
X221933821Y-50398047D02*
G75*
G02*
X221933821Y-53397953I-21J-1499953D01*
G01*
X221933821Y-86901377D02*
G75*
G02*
X221933821Y-89901423I-21J-1500023D01*
G01*
X230133821Y-158901377D02*
X229133821Y-159901377D01*
X216733821Y-85908037D02*
X215733821Y-86908037D01*
X140633821Y-61408037D02*
X155233821Y-61401377D01*
X203333821Y-108201377D02*
G75*
G02*
X206333821Y-108201377I1500000J0D01*
G01*
X206333821Y-127401377D02*
X207333821Y-126401377D01*
X215733821Y-50408037D02*
X214533821Y-50404707D01*
X227933821Y-126401377D02*
G75*
G02*
X227933821Y-123394623I-21J1503377D01*
G01*
X207333821Y-159901377D02*
X206333821Y-158901377D01*
X161233821Y-64404707D02*
X175833821Y-64404707D01*
X230133821Y-29201377D02*
X230133821Y-49404707D01*
X229133821Y-53401377D02*
X230133821Y-54401377D01*
X216733821Y-122401377D02*
X216733821Y-108201377D01*
X229133821Y-89901377D02*
X230133821Y-90901377D01*
X219737151Y-138701377D02*
G75*
G02*
X216730491Y-138701377I-1503330J0D01*
G01*
X220733821Y-86904707D02*
X219733821Y-85904707D01*
X50916373Y-150901361D02*
X50925400Y-73401377D01*
X194335270Y-159901377D02*
X59916373Y-159901377D01*
X230133821Y-122401377D02*
X229133821Y-123401377D01*
X215733821Y-123401377D02*
X214483821Y-123397908D01*
X206337151Y-102201377D02*
G75*
G02*
X203330491Y-102201377I-1503330J0D01*
G01*
X219740481Y-29211367D02*
G75*
G02*
X216733821Y-29211367I-1503330J-40D01*
G01*
X203335321Y-73401377D02*
X203333821Y-102201377D01*
X230133821Y-54401377D02*
X230133821Y-85904707D01*
X203437151Y-21911367D02*
X203330491Y-29211377D01*
X206333821Y-54404707D02*
X207333821Y-53404707D01*
X215733821Y-86901377D02*
X214533821Y-86894717D01*
X229133821Y-53401377D02*
X227933821Y-53401377D01*
X208533821Y-53404707D02*
X207333821Y-53404707D01*
X120033821Y-61408037D02*
X134633821Y-61404707D01*
X215733821Y-126401377D02*
X216733821Y-127401377D01*
X220733821Y-28201377D02*
X229133821Y-28201377D01*
X215733821Y-53404707D02*
X216733821Y-54404707D01*
X216730491Y-138701377D02*
X216733821Y-127401377D01*
X208483821Y-123398047D02*
X207333821Y-123401377D01*
X230133821Y-90901377D02*
X230133821Y-122401377D01*
X59916373Y-159901377D02*
G75*
G02*
X50916373Y-150901377I-3J8999997D01*
G01*
X207333821Y-123401377D02*
X206333821Y-122401377D01*
X214533821Y-53404707D02*
G75*
G02*
X214533821Y-50398093I-21J1503307D01*
G01*
X206333821Y-90894717D02*
X207333821Y-89894717D01*
X229133821Y-126401377D02*
X230133821Y-127401377D01*
X216737151Y-35211367D02*
G75*
G02*
X219737151Y-35211367I1500000J-40D01*
G01*
X214533821Y-89901377D02*
G75*
G02*
X214533821Y-86894623I-21J1503377D01*
G01*
M02*
