M48
; DRILL file {KiCad 9.0.2+dfsg-1} date 2026-08-02T20:11:58+0200
; FORMAT={-:-/ absolute / metric / decimal}
; #@! TF.CreationDate,2026-08-02T20:11:58+02:00
; #@! TF.GenerationSoftware,Kicad,Pcbnew,9.0.2+dfsg-1
; #@! TF.FileFunction,Plated,3,6,Blind
FMAT,2
METRIC
; #@! TA.AperFunction,Plated,Buried,ViaDrill
T1C0.250
; #@! TA.AperFunction,Plated,Buried,ViaDrill
T2C0.625
; #@! TA.AperFunction,Plated,Buried,ViaDrill
T3C1.250
%
G90
G05
T1
X83.2Y-88.8
X84.915Y-79.099
X102.2Y-88.8
X111.315Y-79.099
X132.325Y-88.901
X137.715Y-79.099
X154.199Y-88.901
X164.115Y-79.099
X179.034Y-93.926
X186.234Y-88.726
X192.394Y-112.751
X207.734Y-36.964
X207.734Y-73.464
X207.734Y-109.964
X207.734Y-146.464
X207.834Y-140.601
X207.934Y-31.101
X207.934Y-67.601
X207.934Y-104.101
X208.834Y-143.251
X208.934Y-106.801
X211.434Y-143.251
X211.534Y-70.251
X211.584Y-140.601
X211.634Y-31.101
X211.634Y-67.601
X211.634Y-104.101
X213.934Y-143.251
X214.034Y-33.751
X214.034Y-70.251
X214.034Y-106.801
X215.459Y-31.914
X215.484Y-66.839
X215.484Y-103.356
X215.484Y-139.819
X221.134Y-36.964
X221.134Y-73.464
X221.134Y-109.964
X221.134Y-146.464
X221.334Y-31.101
X221.334Y-67.601
X221.334Y-104.101
X221.334Y-140.601
X222.334Y-143.251
X222.434Y-106.801
X224.834Y-143.251
X224.934Y-70.251
X225.034Y-31.101
X225.034Y-67.601
X225.034Y-104.101
X225.034Y-140.601
X228.859Y-31.914
X228.884Y-66.876
X228.884Y-103.301
X228.909Y-139.804
T2
X63.625Y-74.151
X63.625Y-77.161
X84.375Y-136.401
X84.625Y-122.401
X86.625Y-124.651
X86.625Y-138.651
X88.625Y-92.151
X88.625Y-106.151
X90.625Y-124.651
X90.625Y-138.651
X92.625Y-92.151
X92.625Y-106.151
X94.625Y-94.401
X94.625Y-108.401
X94.663Y-144.401
X94.663Y-146.401
X157.734Y-110.001
X157.734Y-115.901
X161.863Y-117.001
X161.863Y-119.001
X168.934Y-110.864
X175.934Y-110.864
X176.892Y-89.801
X176.892Y-92.601
X180.334Y-110.864
X187.334Y-110.864
X189.944Y-104.751
X194.634Y-95.226
X194.659Y-110.864
X197.634Y-90.701
X201.634Y-95.251
X201.634Y-110.864
T3
X82.84Y-76.172
X109.24Y-76.172
X135.64Y-76.172
X162.04Y-76.172
M30
