%TF.GenerationSoftware,KiCad,Pcbnew,9.0.2+dfsg-1*%
%TF.CreationDate,2026-08-02T20:11:47+02:00*%
%TF.ProjectId,board_logic,626f6172-645f-46c6-9f67-69632e6b6963,rev?*%
%TF.SameCoordinates,Original*%
%TF.FileFunction,Soldermask,Bot*%
%TF.FilePolarity,Negative*%
%FSLAX46Y46*%
G04 Gerber Fmt 4.6, Leading zero omitted, Abs format (unit mm)*
G04 Created by KiCad (PCBNEW 9.0.2+dfsg-1) date 2026-08-02 20:11:47*
%MOMM*%
%LPD*%
G01*
G04 APERTURE LIST*
G04 Aperture macros list*
%AMRoundRect*
0 Rectangle with rounded corners*
0 $1 Rounding radius*
0 $2 $3 $4 $5 $6 $7 $8 $9 X,Y pos of 4 corners*
0 Add a 4 corners polygon primitive as box body*
4,1,4,$2,$3,$4,$5,$6,$7,$8,$9,$2,$3,0*
0 Add four circle primitives for the rounded corners*
1,1,$1+$1,$2,$3*
1,1,$1+$1,$4,$5*
1,1,$1+$1,$6,$7*
1,1,$1+$1,$8,$9*
0 Add four rect primitives between the rounded corners*
20,1,$1+$1,$2,$3,$4,$5,0*
20,1,$1+$1,$4,$5,$6,$7,0*
20,1,$1+$1,$6,$7,$8,$9,0*
20,1,$1+$1,$8,$9,$2,$3,0*%
%AMHorizOval*
0 Thick line with rounded ends*
0 $1 width*
0 $2 $3 position (X,Y) of the first rounded end (center of the circle)*
0 $4 $5 position (X,Y) of the second rounded end (center of the circle)*
0 Add line between two ends*
20,1,$1,$2,$3,$4,$5,0*
0 Add two circle primitives to create the rounded ends*
1,1,$1,$2,$3*
1,1,$1,$4,$5*%
%AMFreePoly0*
4,1,23,0.500000,-0.750000,0.000000,-0.750000,0.000000,-0.745722,-0.065263,-0.745722,-0.191342,-0.711940,-0.304381,-0.646677,-0.396677,-0.554381,-0.461940,-0.441342,-0.495722,-0.315263,-0.495722,-0.250000,-0.500000,-0.250000,-0.500000,0.250000,-0.495722,0.250000,-0.495722,0.315263,-0.461940,0.441342,-0.396677,0.554381,-0.304381,0.646677,-0.191342,0.711940,-0.065263,0.745722,0.000000,0.745722,
0.000000,0.750000,0.500000,0.750000,0.500000,-0.750000,0.500000,-0.750000,$1*%
%AMFreePoly1*
4,1,23,0.000000,0.745722,0.065263,0.745722,0.191342,0.711940,0.304381,0.646677,0.396677,0.554381,0.461940,0.441342,0.495722,0.315263,0.495722,0.250000,0.500000,0.250000,0.500000,-0.250000,0.495722,-0.250000,0.495722,-0.315263,0.461940,-0.441342,0.396677,-0.554381,0.304381,-0.646677,0.191342,-0.711940,0.065263,-0.745722,0.000000,-0.745722,0.000000,-0.750000,-0.500000,-0.750000,
-0.500000,0.750000,0.000000,0.750000,0.000000,0.745722,0.000000,0.745722,$1*%
G04 Aperture macros list end*
%ADD10C,0.750000*%
%ADD11FreePoly0,0.000000*%
%ADD12FreePoly1,0.000000*%
%ADD13C,1.700000*%
%ADD14R,1.700000X1.700000*%
%ADD15C,4.504000*%
%ADD16RoundRect,0.250000X0.350000X0.450000X-0.350000X0.450000X-0.350000X-0.450000X0.350000X-0.450000X0*%
%ADD17RoundRect,0.250000X0.337500X0.475000X-0.337500X0.475000X-0.337500X-0.475000X0.337500X-0.475000X0*%
%ADD18C,2.400000*%
%ADD19RoundRect,0.250001X-0.949999X-0.949999X0.949999X-0.949999X0.949999X0.949999X-0.949999X0.949999X0*%
%ADD20RoundRect,0.249999X-0.450001X-1.425001X0.450001X-1.425001X0.450001X1.425001X-0.450001X1.425001X0*%
%ADD21RoundRect,0.125000X-0.125000X0.537500X-0.125000X-0.537500X0.125000X-0.537500X0.125000X0.537500X0*%
%ADD22O,4.504000X6.204000*%
%ADD23C,0.500000*%
%ADD24HorizOval,0.800000X0.000000X0.000000X0.000000X0.000000X0*%
%ADD25C,0.800000*%
%ADD26C,7.000000*%
%ADD27RoundRect,0.250000X-0.750000X-0.750000X0.750000X-0.750000X0.750000X0.750000X-0.750000X0.750000X0*%
%ADD28C,2.000000*%
%ADD29C,1.270000*%
%ADD30RoundRect,0.250001X0.759999X-0.499999X0.759999X0.499999X-0.759999X0.499999X-0.759999X-0.499999X0*%
%ADD31O,2.020000X1.500000*%
%ADD32RoundRect,0.250000X-0.550000X-0.550000X0.550000X-0.550000X0.550000X0.550000X-0.550000X0.550000X0*%
%ADD33C,1.600000*%
%ADD34R,1.500000X1.500000*%
%ADD35C,1.500000*%
%ADD36HorizOval,0.800000X0.000000X0.000000X0.000000X0.000000X0*%
%ADD37HorizOval,0.800000X0.000000X0.000000X0.000000X0.000000X0*%
%ADD38O,9.000000X6.000000*%
%ADD39C,1.000000*%
%ADD40RoundRect,0.250001X0.499999X0.499999X-0.499999X0.499999X-0.499999X-0.499999X0.499999X-0.499999X0*%
%ADD41C,3.000000*%
%ADD42RoundRect,0.250000X-1.484924X0.000000X0.000000X-1.484924X1.484924X0.000000X0.000000X1.484924X0*%
%ADD43C,2.600000*%
%ADD44RoundRect,0.250001X-0.499999X-0.499999X0.499999X-0.499999X0.499999X0.499999X-0.499999X0.499999X0*%
%ADD45C,2.500000*%
%ADD46RoundRect,0.250001X0.499999X0.759999X-0.499999X0.759999X-0.499999X-0.759999X0.499999X-0.759999X0*%
%ADD47O,1.500000X2.020000*%
%ADD48C,8.000000*%
%ADD49RoundRect,0.250001X-0.499999X-0.759999X0.499999X-0.759999X0.499999X0.759999X-0.499999X0.759999X0*%
%ADD50C,1.982000*%
%ADD51C,3.404000*%
%ADD52RoundRect,0.250000X1.050000X1.050000X-1.050000X1.050000X-1.050000X-1.050000X1.050000X-1.050000X0*%
%ADD53R,1.600000X1.600000*%
%ADD54R,1.300000X1.300000*%
%ADD55C,1.300000*%
%ADD56C,3.500000*%
%ADD57FreePoly0,270.000000*%
%ADD58FreePoly1,270.000000*%
%ADD59RoundRect,0.250000X-0.475000X0.337500X-0.475000X-0.337500X0.475000X-0.337500X0.475000X0.337500X0*%
%ADD60RoundRect,0.250000X-0.337500X-0.475000X0.337500X-0.475000X0.337500X0.475000X-0.337500X0.475000X0*%
%ADD61RoundRect,0.250000X-0.450000X0.350000X-0.450000X-0.350000X0.450000X-0.350000X0.450000X0.350000X0*%
%ADD62RoundRect,0.150000X0.675000X0.150000X-0.675000X0.150000X-0.675000X-0.150000X0.675000X-0.150000X0*%
%ADD63RoundRect,0.250000X0.574524X0.097227X0.097227X0.574524X-0.574524X-0.097227X-0.097227X-0.574524X0*%
%ADD64FreePoly0,90.000000*%
%ADD65FreePoly1,90.000000*%
%ADD66RoundRect,0.250000X-0.450000X0.325000X-0.450000X-0.325000X0.450000X-0.325000X0.450000X0.325000X0*%
%ADD67RoundRect,0.250000X0.450000X-0.325000X0.450000X0.325000X-0.450000X0.325000X-0.450000X-0.325000X0*%
%ADD68RoundRect,0.250000X0.475000X-0.337500X0.475000X0.337500X-0.475000X0.337500X-0.475000X-0.337500X0*%
%ADD69RoundRect,0.250000X0.450000X-0.350000X0.450000X0.350000X-0.450000X0.350000X-0.450000X-0.350000X0*%
%ADD70RoundRect,0.075000X0.175000X-0.075000X0.175000X0.075000X-0.175000X0.075000X-0.175000X-0.075000X0*%
%ADD71RoundRect,0.102000X-0.180312X-1.156120X1.156120X0.180312X0.180312X1.156120X-1.156120X-0.180312X0*%
%ADD72RoundRect,0.250000X-0.350000X-0.450000X0.350000X-0.450000X0.350000X0.450000X-0.350000X0.450000X0*%
%ADD73RoundRect,0.075000X-0.075000X-0.175000X0.075000X-0.175000X0.075000X0.175000X-0.075000X0.175000X0*%
%ADD74R,1.750000X0.450000*%
%ADD75RoundRect,0.250000X-0.325000X-0.450000X0.325000X-0.450000X0.325000X0.450000X-0.325000X0.450000X0*%
%ADD76RoundRect,0.075000X0.075000X0.175000X-0.075000X0.175000X-0.075000X-0.175000X0.075000X-0.175000X0*%
%ADD77RoundRect,0.250000X0.325000X0.450000X-0.325000X0.450000X-0.325000X-0.450000X0.325000X-0.450000X0*%
%ADD78RoundRect,0.062500X0.362500X0.062500X-0.362500X0.062500X-0.362500X-0.062500X0.362500X-0.062500X0*%
%ADD79R,1.650000X2.380000*%
%ADD80RoundRect,0.150000X0.150000X-0.587500X0.150000X0.587500X-0.150000X0.587500X-0.150000X-0.587500X0*%
%ADD81FreePoly0,180.000000*%
%ADD82FreePoly1,180.000000*%
G04 APERTURE END LIST*
%TO.C,JP24*%
G36*
X79850000Y-82350000D02*
G01*
X80150000Y-82350000D01*
X80150000Y-80850000D01*
X79850000Y-80850000D01*
X79850000Y-82350000D01*
G37*
%TO.C,JP23*%
G36*
X106250000Y-82350000D02*
G01*
X106550000Y-82350000D01*
X106550000Y-80850000D01*
X106250000Y-80850000D01*
X106250000Y-82350000D01*
G37*
%TO.C,JP22*%
G36*
X159050000Y-82350000D02*
G01*
X159350000Y-82350000D01*
X159350000Y-80850000D01*
X159050000Y-80850000D01*
X159050000Y-82350000D01*
G37*
%TO.C,JP21*%
G36*
X132650000Y-82350000D02*
G01*
X132950000Y-82350000D01*
X132950000Y-80850000D01*
X132650000Y-80850000D01*
X132650000Y-82350000D01*
G37*
%TO.C,JP20*%
G36*
X79850000Y-79750000D02*
G01*
X80150000Y-79750000D01*
X80150000Y-78250000D01*
X79850000Y-78250000D01*
X79850000Y-79750000D01*
G37*
%TO.C,JP19*%
G36*
X106250000Y-79750000D02*
G01*
X106550000Y-79750000D01*
X106550000Y-78250000D01*
X106250000Y-78250000D01*
X106250000Y-79750000D01*
G37*
%TO.C,JP18*%
G36*
X159000000Y-79750000D02*
G01*
X159300000Y-79750000D01*
X159300000Y-78250000D01*
X159000000Y-78250000D01*
X159000000Y-79750000D01*
G37*
%TO.C,JP17*%
G36*
X132600000Y-79750000D02*
G01*
X132900000Y-79750000D01*
X132900000Y-78250000D01*
X132600000Y-78250000D01*
X132600000Y-79750000D01*
G37*
%TO.C,JP1*%
G36*
X131575400Y-88101377D02*
G01*
X133075400Y-88101377D01*
X133075400Y-88401377D01*
X131575400Y-88401377D01*
X131575400Y-88101377D01*
G37*
%TO.C,JP2*%
G36*
X121250000Y-88100000D02*
G01*
X122750000Y-88100000D01*
X122750000Y-88400000D01*
X121250000Y-88400000D01*
X121250000Y-88100000D01*
G37*
%TO.C,JP30*%
G36*
X209783821Y-34551377D02*
G01*
X208283821Y-34551377D01*
X208283821Y-34251377D01*
X209783821Y-34251377D01*
X209783821Y-34551377D01*
G37*
%TO.C,JP38*%
G36*
X225683821Y-107551377D02*
G01*
X224183821Y-107551377D01*
X224183821Y-107251377D01*
X225683821Y-107251377D01*
X225683821Y-107551377D01*
G37*
%TO.C,JP45*%
G36*
X223083821Y-144051377D02*
G01*
X221583821Y-144051377D01*
X221583821Y-143751377D01*
X223083821Y-143751377D01*
X223083821Y-144051377D01*
G37*
%TO.C,JP29*%
G36*
X212283821Y-34551377D02*
G01*
X210783821Y-34551377D01*
X210783821Y-34251377D01*
X212283821Y-34251377D01*
X212283821Y-34551377D01*
G37*
%TO.C,JP10*%
G36*
X67875400Y-126001377D02*
G01*
X69375400Y-126001377D01*
X69375400Y-126301377D01*
X67875400Y-126301377D01*
X67875400Y-126001377D01*
G37*
%TO.C,JP40*%
G36*
X214783821Y-107601377D02*
G01*
X213283821Y-107601377D01*
X213283821Y-107301377D01*
X214783821Y-107301377D01*
X214783821Y-107601377D01*
G37*
%TO.C,JP28*%
G36*
X214783821Y-34551377D02*
G01*
X213283821Y-34551377D01*
X213283821Y-34251377D01*
X214783821Y-34251377D01*
X214783821Y-34551377D01*
G37*
%TO.C,JP4*%
G36*
X64375400Y-150401377D02*
G01*
X62875400Y-150401377D01*
X62875400Y-150101377D01*
X64375400Y-150101377D01*
X64375400Y-150401377D01*
G37*
%TO.C,JP34*%
G36*
X214783821Y-71051377D02*
G01*
X213283821Y-71051377D01*
X213283821Y-70751377D01*
X214783821Y-70751377D01*
X214783821Y-71051377D01*
G37*
%TO.C,JP7*%
G36*
X64375400Y-138301377D02*
G01*
X62875400Y-138301377D01*
X62875400Y-138001377D01*
X64375400Y-138001377D01*
X64375400Y-138301377D01*
G37*
%TO.C,JP33*%
G36*
X223183821Y-71051377D02*
G01*
X221683821Y-71051377D01*
X221683821Y-70751377D01*
X223183821Y-70751377D01*
X223183821Y-71051377D01*
G37*
%TO.C,JP14*%
G36*
X67875400Y-102001377D02*
G01*
X69375400Y-102001377D01*
X69375400Y-102301377D01*
X67875400Y-102301377D01*
X67875400Y-102001377D01*
G37*
%TO.C,JP31*%
G36*
X228183821Y-71051377D02*
G01*
X226683821Y-71051377D01*
X226683821Y-70751377D01*
X228183821Y-70751377D01*
X228183821Y-71051377D01*
G37*
%TO.C,JP37*%
G36*
X228183821Y-107551377D02*
G01*
X226683821Y-107551377D01*
X226683821Y-107251377D01*
X228183821Y-107251377D01*
X228183821Y-107551377D01*
G37*
%TO.C,JP6*%
G36*
X67875400Y-150101377D02*
G01*
X69375400Y-150101377D01*
X69375400Y-150401377D01*
X67875400Y-150401377D01*
X67875400Y-150101377D01*
G37*
%TO.C,JP26*%
G36*
X225683821Y-34551377D02*
G01*
X224183821Y-34551377D01*
X224183821Y-34251377D01*
X225683821Y-34251377D01*
X225683821Y-34551377D01*
G37*
%TO.C,JP43*%
G36*
X228183821Y-144051377D02*
G01*
X226683821Y-144051377D01*
X226683821Y-143751377D01*
X228183821Y-143751377D01*
X228183821Y-144051377D01*
G37*
%TO.C,JP44*%
G36*
X225583821Y-144051377D02*
G01*
X224083821Y-144051377D01*
X224083821Y-143751377D01*
X225583821Y-143751377D01*
X225583821Y-144051377D01*
G37*
%TO.C,JP47*%
G36*
X212183821Y-144051377D02*
G01*
X210683821Y-144051377D01*
X210683821Y-143751377D01*
X212183821Y-143751377D01*
X212183821Y-144051377D01*
G37*
%TO.C,JP42*%
G36*
X209683821Y-107601377D02*
G01*
X208183821Y-107601377D01*
X208183821Y-107301377D01*
X209683821Y-107301377D01*
X209683821Y-107601377D01*
G37*
%TO.C,JP13*%
G36*
X67875400Y-114001377D02*
G01*
X69375400Y-114001377D01*
X69375400Y-114301377D01*
X67875400Y-114301377D01*
X67875400Y-114001377D01*
G37*
%TO.C,JP8*%
G36*
X64375400Y-126301377D02*
G01*
X62875400Y-126301377D01*
X62875400Y-126001377D01*
X64375400Y-126001377D01*
X64375400Y-126301377D01*
G37*
%TO.C,JP46*%
G36*
X214683821Y-144051377D02*
G01*
X213183821Y-144051377D01*
X213183821Y-143751377D01*
X214683821Y-143751377D01*
X214683821Y-144051377D01*
G37*
%TO.C,JP5*%
G36*
X67875400Y-90001377D02*
G01*
X69375400Y-90001377D01*
X69375400Y-90301377D01*
X67875400Y-90301377D01*
X67875400Y-90001377D01*
G37*
%TO.C,JP3*%
G36*
X64375400Y-90301377D02*
G01*
X62875400Y-90301377D01*
X62875400Y-90001377D01*
X64375400Y-90001377D01*
X64375400Y-90301377D01*
G37*
%TO.C,JP35*%
G36*
X212283821Y-71051377D02*
G01*
X210783821Y-71051377D01*
X210783821Y-70751377D01*
X212283821Y-70751377D01*
X212283821Y-71051377D01*
G37*
%TO.C,JP27*%
G36*
X223183821Y-34551377D02*
G01*
X221683821Y-34551377D01*
X221683821Y-34251377D01*
X223183821Y-34251377D01*
X223183821Y-34551377D01*
G37*
%TO.C,JP48*%
G36*
X209683821Y-144051377D02*
G01*
X208183821Y-144051377D01*
X208183821Y-143751377D01*
X209683821Y-143751377D01*
X209683821Y-144051377D01*
G37*
%TO.C,JP9*%
G36*
X67875400Y-138001377D02*
G01*
X69375400Y-138001377D01*
X69375400Y-138301377D01*
X67875400Y-138301377D01*
X67875400Y-138001377D01*
G37*
%TO.C,JP36*%
G36*
X209783821Y-71051377D02*
G01*
X208283821Y-71051377D01*
X208283821Y-70751377D01*
X209783821Y-70751377D01*
X209783821Y-71051377D01*
G37*
%TO.C,JP32*%
G36*
X225683821Y-71051377D02*
G01*
X224183821Y-71051377D01*
X224183821Y-70751377D01*
X225683821Y-70751377D01*
X225683821Y-71051377D01*
G37*
%TO.C,JP12*%
G36*
X64375400Y-102301377D02*
G01*
X62875400Y-102301377D01*
X62875400Y-102001377D01*
X64375400Y-102001377D01*
X64375400Y-102301377D01*
G37*
%TO.C,JP16*%
G36*
X170892242Y-98951377D02*
G01*
X170592242Y-98951377D01*
X170592242Y-100451377D01*
X170892242Y-100451377D01*
X170892242Y-98951377D01*
G37*
%TO.C,JP15*%
G36*
X179242242Y-99301377D02*
G01*
X177742242Y-99301377D01*
X177742242Y-99001377D01*
X179242242Y-99001377D01*
X179242242Y-99301377D01*
G37*
%TO.C,JP25*%
G36*
X228183821Y-34551377D02*
G01*
X226683821Y-34551377D01*
X226683821Y-34251377D01*
X228183821Y-34251377D01*
X228183821Y-34551377D01*
G37*
%TO.C,JP41*%
G36*
X212233821Y-107601377D02*
G01*
X210733821Y-107601377D01*
X210733821Y-107301377D01*
X212233821Y-107301377D01*
X212233821Y-107601377D01*
G37*
%TO.C,JP11*%
G36*
X64375400Y-114301377D02*
G01*
X62875400Y-114301377D01*
X62875400Y-114001377D01*
X64375400Y-114001377D01*
X64375400Y-114301377D01*
G37*
%TO.C,JP39*%
G36*
X223183821Y-107601377D02*
G01*
X221683821Y-107601377D01*
X221683821Y-107301377D01*
X223183821Y-107301377D01*
X223183821Y-107601377D01*
G37*
%TD*%
D10*
%TO.C,TP122*%
X82600000Y-79000000D03*
%TD*%
D11*
%TO.C,JP24*%
X79350000Y-81600000D03*
D12*
X80650000Y-81600000D03*
%TD*%
D11*
%TO.C,JP23*%
X105750000Y-81600000D03*
D12*
X107050000Y-81600000D03*
%TD*%
D11*
%TO.C,JP22*%
X158550000Y-81600000D03*
D12*
X159850000Y-81600000D03*
%TD*%
D11*
%TO.C,JP21*%
X132150000Y-81600000D03*
D12*
X133450000Y-81600000D03*
%TD*%
D11*
%TO.C,JP20*%
X79350000Y-79000000D03*
D12*
X80650000Y-79000000D03*
%TD*%
D11*
%TO.C,JP19*%
X105750000Y-79000000D03*
D12*
X107050000Y-79000000D03*
%TD*%
D11*
%TO.C,JP18*%
X158500000Y-79000000D03*
D12*
X159800000Y-79000000D03*
%TD*%
D11*
%TO.C,JP17*%
X132100000Y-79000000D03*
D12*
X133400000Y-79000000D03*
%TD*%
D13*
%TO.C,J44*%
X92189992Y-84320000D03*
X89649992Y-84320000D03*
X87109992Y-84320000D03*
X84569992Y-84320000D03*
X82029992Y-84320000D03*
D14*
X79489992Y-84320000D03*
%TD*%
D15*
%TO.C,*%
X102300000Y-84129000D03*
%TD*%
D16*
%TO.C,R86*%
X117815750Y-77499250D03*
X119815750Y-77499250D03*
%TD*%
D17*
%TO.C,C77*%
X117778250Y-81499250D03*
X119853250Y-81499250D03*
%TD*%
D16*
%TO.C,R85*%
X117815750Y-75599250D03*
X119815750Y-75599250D03*
%TD*%
D18*
%TO.C,J41*%
X114040000Y-70350000D03*
D19*
X110540000Y-70350000D03*
%TD*%
D13*
%TO.C,J42*%
X118590000Y-84320000D03*
X116050000Y-84320000D03*
X113510000Y-84320000D03*
X110970000Y-84320000D03*
X108430000Y-84320000D03*
D14*
X105890000Y-84320000D03*
%TD*%
D10*
%TO.C,TP119*%
X109000000Y-81600000D03*
%TD*%
%TO.C,TP120*%
X109000000Y-79000000D03*
%TD*%
D17*
%TO.C,C78*%
X117778250Y-79499250D03*
X119853250Y-79499250D03*
%TD*%
D20*
%TO.C,R87*%
X115340000Y-76172000D03*
X109240000Y-76172000D03*
%TD*%
D15*
%TO.C,*%
X122200000Y-84129000D03*
%TD*%
D21*
%TO.C,U17*%
X111315000Y-81373500D03*
X111965000Y-81373500D03*
X112615000Y-81373500D03*
X113265000Y-81373500D03*
X113265000Y-79098500D03*
X112615000Y-79098500D03*
X111965000Y-79098500D03*
X111315000Y-79098500D03*
%TD*%
D22*
%TO.C,*%
X102300000Y-68000000D03*
%TD*%
%TO.C,*%
X122200000Y-68000000D03*
%TD*%
D23*
%TO.C,mouse-bite-3mm-slot*%
X180345821Y-64401377D03*
X180345821Y-61401377D03*
X179595821Y-61401377D03*
X179583821Y-64401377D03*
X178833821Y-64401377D03*
X178833821Y-61401377D03*
X178083821Y-64401377D03*
X178083821Y-61401377D03*
X177309821Y-64401377D03*
X177309821Y-61401377D03*
%TD*%
D24*
%TO.C,J31*%
X189265831Y-35282687D03*
D25*
X188558724Y-34222027D03*
X190326491Y-35989794D03*
X188205171Y-33161367D03*
X191387151Y-36343347D03*
X188558724Y-32100707D03*
X192447811Y-35989794D03*
X189265831Y-31040046D03*
D26*
X191387151Y-33161367D03*
D25*
X193508472Y-35282687D03*
X190326491Y-30332940D03*
X194215578Y-34222027D03*
X191387151Y-29979386D03*
X194569132Y-33161367D03*
X192447811Y-30332940D03*
X194215578Y-32100707D03*
X193508472Y-31040046D03*
D24*
X195276238Y-29272280D03*
D25*
X194569132Y-28211619D03*
X196336899Y-29979386D03*
X194215578Y-27150959D03*
X197397559Y-30332940D03*
X194569132Y-26090299D03*
X198458219Y-29979386D03*
X195276238Y-25029639D03*
D26*
X197397559Y-27150959D03*
D25*
X199518879Y-29272280D03*
X196336899Y-24322532D03*
X200225986Y-28211619D03*
X197397559Y-23968979D03*
X200579539Y-27150959D03*
X198458219Y-24322532D03*
X200225986Y-26090299D03*
X199518879Y-25029639D03*
%TD*%
D27*
%TO.C,C32*%
X63625400Y-152901377D03*
D28*
X68625400Y-152901377D03*
%TD*%
D17*
%TO.C,C80*%
X93453250Y-79499250D03*
X91378250Y-79499250D03*
%TD*%
D27*
%TO.C,C8*%
X180970268Y-80901377D03*
D28*
X185970268Y-80901377D03*
%TD*%
D29*
%TO.C,J9*%
X73625400Y-100401377D03*
X73625400Y-88401377D03*
D30*
X75585400Y-97401377D03*
D31*
X75585400Y-94401377D03*
X75585400Y-91401377D03*
%TD*%
D10*
%TO.C,TP116*%
X135400000Y-79000000D03*
%TD*%
D29*
%TO.C,J14*%
X52125400Y-120901377D03*
X52125400Y-108901377D03*
D30*
X54085400Y-117901377D03*
D31*
X54085400Y-114901377D03*
X54085400Y-111901377D03*
%TD*%
D16*
%TO.C,R90*%
X93415750Y-75599250D03*
X91415750Y-75599250D03*
%TD*%
D32*
%TO.C,C4*%
X182420288Y-137651377D03*
D33*
X184920288Y-137651377D03*
%TD*%
D24*
%TO.C,J28*%
X167565831Y-26382687D03*
D25*
X166858724Y-25322027D03*
X168626491Y-27089794D03*
X166505171Y-24261367D03*
X169687151Y-27443347D03*
X166858724Y-23200707D03*
X170747811Y-27089794D03*
X167565831Y-22140046D03*
D26*
X169687151Y-24261367D03*
D25*
X171808472Y-26382687D03*
X168626491Y-21432940D03*
X172515578Y-25322027D03*
X169687151Y-21079386D03*
X172869132Y-24261367D03*
X170747811Y-21432940D03*
X172515578Y-23200707D03*
X171808472Y-22140046D03*
D24*
X173576238Y-20372280D03*
D25*
X172869132Y-19311619D03*
X174636899Y-21079386D03*
X172515578Y-18250959D03*
X175697559Y-21432940D03*
X172869132Y-17190299D03*
X176758219Y-21079386D03*
X173576238Y-16129639D03*
D26*
X175697559Y-18250959D03*
D25*
X177818879Y-20372280D03*
X174636899Y-15422532D03*
X178525986Y-19311619D03*
X175697559Y-15068979D03*
X178879539Y-18250959D03*
X176758219Y-15422532D03*
X178525986Y-17190299D03*
X177818879Y-16129639D03*
%TD*%
D27*
%TO.C,C34*%
X63625400Y-140901377D03*
D28*
X68625400Y-140901377D03*
%TD*%
D23*
%TO.C,mouse-bite-3mm-slot*%
X159745821Y-64404707D03*
X159745821Y-61404707D03*
X158995821Y-61404707D03*
X158983821Y-64404707D03*
X157483821Y-64404707D03*
X157483821Y-61404707D03*
X156709821Y-64404707D03*
X156709821Y-61404707D03*
%TD*%
D34*
%TO.C,U5*%
X172787151Y-52986367D03*
D35*
X174697151Y-52986367D03*
X176607151Y-52986367D03*
D36*
X175747151Y-30956367D03*
D37*
X175747151Y-32216367D03*
D25*
X176497151Y-29926367D03*
X176497151Y-33246367D03*
X177697151Y-29536367D03*
X177697151Y-33636367D03*
X179027151Y-29536367D03*
X179027151Y-33636367D03*
D38*
X179697151Y-31586367D03*
D25*
X180367151Y-29536367D03*
X180367151Y-33636367D03*
X181697151Y-29536367D03*
X181697151Y-33636367D03*
X182897151Y-29926367D03*
X182897151Y-33246367D03*
X183647151Y-30956367D03*
X183647151Y-32216367D03*
X165747151Y-30956367D03*
X165747151Y-32216367D03*
X166497151Y-29926367D03*
X166497151Y-33246367D03*
X167697151Y-29536367D03*
X167697151Y-33636367D03*
X169027151Y-29536367D03*
X169027151Y-33636367D03*
D38*
X169697151Y-31586367D03*
D25*
X170367151Y-29536367D03*
X170367151Y-33636367D03*
X171697151Y-29536367D03*
X171697151Y-33636367D03*
X172897151Y-29926367D03*
X172897151Y-33246367D03*
D37*
X173647151Y-30956367D03*
D36*
X173647151Y-32216367D03*
%TD*%
D39*
%TO.C,J17*%
X176933821Y-109461377D03*
X167933821Y-109461377D03*
D40*
X173933821Y-113401377D03*
D35*
X170933821Y-113401377D03*
X173933821Y-110401377D03*
X170933821Y-110401377D03*
%TD*%
D41*
%TO.C,TP52*%
X154144400Y-149841377D03*
%TD*%
%TO.C,TP47*%
X100125400Y-144761377D03*
%TD*%
D23*
%TO.C,mouse-bite-3mm-slot*%
X139145821Y-64408037D03*
X139145821Y-61408037D03*
X138395821Y-61408037D03*
X138383821Y-64408037D03*
X137633821Y-64408037D03*
X137633821Y-61408037D03*
X136883821Y-64408037D03*
X136883821Y-61408037D03*
X136109821Y-64408037D03*
X136109821Y-61408037D03*
%TD*%
D42*
%TO.C,J32*%
X82437151Y-35411367D03*
D43*
X86029253Y-39003469D03*
%TD*%
D15*
%TO.C,*%
X155100000Y-84129000D03*
%TD*%
%TO.C,*%
X175000000Y-84129000D03*
%TD*%
D39*
%TO.C,J60*%
X193633821Y-96601377D03*
X202633821Y-96601377D03*
D44*
X196633821Y-92661377D03*
D35*
X199633821Y-92661377D03*
X196633821Y-95661377D03*
X199633821Y-95661377D03*
%TD*%
D23*
%TO.C,mouse-bite-3mm-slot*%
X209971821Y-123398047D03*
X209971821Y-126398047D03*
X210721821Y-126398047D03*
X210733821Y-123398047D03*
X212233821Y-123398047D03*
X212233821Y-126398047D03*
X213007821Y-123398047D03*
X213007821Y-126398047D03*
%TD*%
D41*
%TO.C,TP31*%
X100125400Y-124441377D03*
%TD*%
D15*
%TO.C,*%
X197335300Y-70401377D03*
%TD*%
D45*
%TO.C,J19*%
X194903821Y-120019177D03*
D14*
X159453821Y-120921377D03*
D13*
X161993821Y-120921377D03*
X159453821Y-123461377D03*
X161993821Y-123461377D03*
X159453821Y-126001377D03*
X161993821Y-126001377D03*
X159453821Y-128541377D03*
X161993821Y-128541377D03*
%TD*%
D41*
%TO.C,TP33*%
X104525400Y-126981377D03*
%TD*%
%TO.C,TP7*%
X100125400Y-93961377D03*
%TD*%
D16*
%TO.C,R76*%
X146215750Y-77499250D03*
X144215750Y-77499250D03*
%TD*%
D29*
%TO.C,J10*%
X52125400Y-92901377D03*
X52125400Y-80901377D03*
D30*
X54085400Y-89901377D03*
D31*
X54085400Y-86901377D03*
X54085400Y-83901377D03*
%TD*%
D15*
%TO.C,*%
X148600000Y-84129000D03*
%TD*%
D23*
%TO.C,mouse-bite-3mm-slot*%
X216735486Y-70220037D03*
X219735486Y-70220037D03*
X219735486Y-69470037D03*
X216735486Y-69458037D03*
X216735486Y-68708037D03*
X219735486Y-68708037D03*
X216735486Y-67958037D03*
X219735486Y-67958037D03*
X216735486Y-67184037D03*
X219735486Y-67184037D03*
%TD*%
%TO.C,mouse-bite-3mm-slot*%
X210021821Y-86898047D03*
X210021821Y-89898047D03*
X210771821Y-89898047D03*
X210783821Y-86898047D03*
X212283821Y-86898047D03*
X212283821Y-89898047D03*
X213057821Y-86898047D03*
X213057821Y-89898047D03*
%TD*%
%TO.C,mouse-bite-3mm-slot*%
X216733821Y-143213377D03*
X219733821Y-143213377D03*
X219733821Y-142463377D03*
X216733821Y-142451377D03*
X216733821Y-141701377D03*
X219733821Y-141701377D03*
X216733821Y-140951377D03*
X219733821Y-140951377D03*
X216733821Y-140177377D03*
X219733821Y-140177377D03*
%TD*%
D29*
%TO.C,J11*%
X73625400Y-157401377D03*
X73625400Y-148401377D03*
D30*
X75585400Y-154401377D03*
D31*
X75585400Y-151401377D03*
%TD*%
D41*
%TO.C,TP37*%
X104525400Y-132061377D03*
%TD*%
D15*
%TO.C,*%
X197335270Y-153901377D03*
%TD*%
D24*
%TO.C,J34*%
X120065831Y-26382687D03*
D25*
X119358724Y-25322027D03*
X121126491Y-27089794D03*
X119005171Y-24261367D03*
X122187151Y-27443347D03*
X119358724Y-23200707D03*
X123247811Y-27089794D03*
X120065831Y-22140046D03*
D26*
X122187151Y-24261367D03*
D25*
X124308472Y-26382687D03*
X121126491Y-21432940D03*
X125015578Y-25322027D03*
X122187151Y-21079386D03*
X125369132Y-24261367D03*
X123247811Y-21432940D03*
X125015578Y-23200707D03*
X124308472Y-22140046D03*
D24*
X126076238Y-20372280D03*
D25*
X125369132Y-19311619D03*
X127136899Y-21079386D03*
X125015578Y-18250959D03*
X128197559Y-21432940D03*
X125369132Y-17190299D03*
X129258219Y-21079386D03*
X126076238Y-16129639D03*
D26*
X128197559Y-18250959D03*
D25*
X130318879Y-20372280D03*
X127136899Y-15422532D03*
X131025986Y-19311619D03*
X128197559Y-15068979D03*
X131379539Y-18250959D03*
X129258219Y-15422532D03*
X131025986Y-17190299D03*
X130318879Y-16129639D03*
%TD*%
D41*
%TO.C,TP24*%
X154144400Y-114281377D03*
%TD*%
D24*
%TO.C,J36*%
X93493850Y-26382687D03*
D25*
X92786743Y-25322027D03*
X94554510Y-27089794D03*
X92433190Y-24261367D03*
X95615170Y-27443347D03*
X92786743Y-23200707D03*
X96675830Y-27089794D03*
X93493850Y-22140046D03*
D26*
X95615170Y-24261367D03*
D25*
X97736491Y-26382687D03*
X94554510Y-21432940D03*
X98443597Y-25322027D03*
X95615170Y-21079386D03*
X98797151Y-24261367D03*
X96675830Y-21432940D03*
X98443597Y-23200707D03*
X97736491Y-22140046D03*
D24*
X99504257Y-20372280D03*
D25*
X98797151Y-19311619D03*
X100564918Y-21079386D03*
X98443597Y-18250959D03*
X101625578Y-21432940D03*
X98797151Y-17190299D03*
X102686238Y-21079386D03*
X99504257Y-16129639D03*
D26*
X101625578Y-18250959D03*
D25*
X103746898Y-20372280D03*
X100564918Y-15422532D03*
X104454005Y-19311619D03*
X101625578Y-15068979D03*
X104807558Y-18250959D03*
X102686238Y-15422532D03*
X104454005Y-17190299D03*
X103746898Y-16129639D03*
%TD*%
D41*
%TO.C,TP22*%
X149825400Y-111741377D03*
%TD*%
D17*
%TO.C,C74*%
X146253250Y-79499250D03*
X144178250Y-79499250D03*
%TD*%
D20*
%TO.C,R92*%
X82840000Y-76172000D03*
X88940000Y-76172000D03*
%TD*%
D22*
%TO.C,*%
X155100000Y-68000000D03*
%TD*%
D41*
%TO.C,TP42*%
X149825400Y-137141377D03*
%TD*%
D23*
%TO.C,mouse-bite-3mm-slot*%
X203333821Y-106713377D03*
X206333821Y-106713377D03*
X206333821Y-105963377D03*
X203333821Y-105951377D03*
X203333821Y-104451377D03*
X206333821Y-104451377D03*
X203333821Y-103677377D03*
X206333821Y-103677377D03*
%TD*%
D14*
%TO.C,J4*%
X143375400Y-91421377D03*
D13*
X145915400Y-91421377D03*
X143375400Y-93961377D03*
X145915400Y-93961377D03*
X143375400Y-96501377D03*
X145915400Y-96501377D03*
X143375400Y-99041377D03*
X145915400Y-99041377D03*
X143375400Y-101581377D03*
X145915400Y-101581377D03*
X143375400Y-104121377D03*
X145915400Y-104121377D03*
X143375400Y-106661377D03*
X145915400Y-106661377D03*
X143375400Y-109201377D03*
X145915400Y-109201377D03*
X143375400Y-111741377D03*
X145915400Y-111741377D03*
X143375400Y-114281377D03*
X145915400Y-114281377D03*
X143375400Y-116821377D03*
X145915400Y-116821377D03*
X143375400Y-119361377D03*
X145915400Y-119361377D03*
X143375400Y-121901377D03*
X145915400Y-121901377D03*
X143375400Y-124441377D03*
X145915400Y-124441377D03*
X143375400Y-126981377D03*
X145915400Y-126981377D03*
X143375400Y-129521377D03*
X145915400Y-129521377D03*
X143375400Y-132061377D03*
X145915400Y-132061377D03*
X143375400Y-134601377D03*
X145915400Y-134601377D03*
X143375400Y-137141377D03*
X145915400Y-137141377D03*
X143375400Y-139681377D03*
X145915400Y-139681377D03*
X143375400Y-142221377D03*
X145915400Y-142221377D03*
X143375400Y-144761377D03*
X145915400Y-144761377D03*
X143375400Y-147301377D03*
X145915400Y-147301377D03*
X143375400Y-149841377D03*
X145915400Y-149841377D03*
X143375400Y-152381377D03*
X145915400Y-152381377D03*
X143375400Y-154921377D03*
X145915400Y-154921377D03*
X143375400Y-157461377D03*
X145915400Y-157461377D03*
%TD*%
D27*
%TO.C,C38*%
X63625400Y-116901377D03*
D28*
X68625400Y-116901377D03*
%TD*%
D22*
%TO.C,*%
X128700000Y-68000000D03*
%TD*%
D41*
%TO.C,TP27*%
X100125400Y-119361377D03*
%TD*%
D15*
%TO.C,*%
X95800000Y-84129000D03*
%TD*%
D41*
%TO.C,TP50*%
X149825400Y-147301377D03*
%TD*%
%TO.C,TP15*%
X100125400Y-104121377D03*
%TD*%
D15*
%TO.C,*%
X127125400Y-121901377D03*
%TD*%
D41*
%TO.C,TP41*%
X104525400Y-137141377D03*
%TD*%
D29*
%TO.C,J7*%
X73625400Y-128401377D03*
X73625400Y-116401377D03*
D30*
X75585400Y-125401377D03*
D31*
X75585400Y-122401377D03*
X75585400Y-119401377D03*
%TD*%
D29*
%TO.C,J27*%
X180687151Y-59821367D03*
X168687151Y-59821367D03*
D46*
X177687151Y-57861367D03*
D47*
X174687151Y-57861367D03*
X171687151Y-57861367D03*
%TD*%
D34*
%TO.C,U8*%
X98687151Y-52986367D03*
D35*
X100597151Y-52986367D03*
X102507151Y-52986367D03*
D36*
X101647151Y-30956367D03*
D37*
X101647151Y-32216367D03*
D25*
X102397151Y-29926367D03*
X102397151Y-33246367D03*
X103597151Y-29536367D03*
X103597151Y-33636367D03*
X104927151Y-29536367D03*
X104927151Y-33636367D03*
D38*
X105597151Y-31586367D03*
D25*
X106267151Y-29536367D03*
X106267151Y-33636367D03*
X107597151Y-29536367D03*
X107597151Y-33636367D03*
X108797151Y-29926367D03*
X108797151Y-33246367D03*
X109547151Y-30956367D03*
X109547151Y-32216367D03*
X91647151Y-30956367D03*
X91647151Y-32216367D03*
X92397151Y-29926367D03*
X92397151Y-33246367D03*
X93597151Y-29536367D03*
X93597151Y-33636367D03*
X94927151Y-29536367D03*
X94927151Y-33636367D03*
D38*
X95597151Y-31586367D03*
D25*
X96267151Y-29536367D03*
X96267151Y-33636367D03*
X97597151Y-29536367D03*
X97597151Y-33636367D03*
X98797151Y-29926367D03*
X98797151Y-33246367D03*
D37*
X99547151Y-30956367D03*
D36*
X99547151Y-32216367D03*
%TD*%
D41*
%TO.C,TP36*%
X154125400Y-129521377D03*
%TD*%
D23*
%TO.C,mouse-bite-3mm-slot*%
X223421821Y-50398047D03*
X223421821Y-53398047D03*
X224171821Y-53398047D03*
X224183821Y-50398047D03*
X225683821Y-50398047D03*
X225683821Y-53398047D03*
X226457821Y-50398047D03*
X226457821Y-53398047D03*
%TD*%
%TO.C,mouse-bite-3mm-slot*%
X210021821Y-50401377D03*
X210021821Y-53401377D03*
X210771821Y-53401377D03*
X210783821Y-50401377D03*
X212283821Y-50401377D03*
X212283821Y-53401377D03*
X213057821Y-50401377D03*
X213057821Y-53401377D03*
%TD*%
D17*
%TO.C,C73*%
X146253250Y-81499250D03*
X144178250Y-81499250D03*
%TD*%
D41*
%TO.C,TP1*%
X53225400Y-77401377D03*
%TD*%
%TO.C,TP30*%
X149825400Y-121901377D03*
%TD*%
D23*
%TO.C,mouse-bite-3mm-slot*%
X203333821Y-33723367D03*
X206333821Y-33723367D03*
X206333821Y-32973367D03*
X203333821Y-32961367D03*
X203333821Y-32211367D03*
X206333821Y-32211367D03*
X203333821Y-31461367D03*
X206333821Y-31461367D03*
X203333821Y-30687367D03*
X206333821Y-30687367D03*
%TD*%
D41*
%TO.C,TP2*%
X58425400Y-77401377D03*
%TD*%
D22*
%TO.C,*%
X175000000Y-68000000D03*
%TD*%
D41*
%TO.C,TP26*%
X149825400Y-116821377D03*
%TD*%
D48*
%TO.C,REF\u002A\u002A*%
X87217151Y-25871367D03*
%TD*%
D10*
%TO.C,TP115*%
X135400000Y-81600000D03*
%TD*%
D41*
%TO.C,TP43*%
X100125400Y-139681377D03*
%TD*%
D22*
%TO.C,*%
X95800000Y-68000000D03*
%TD*%
D48*
%TO.C,REF\u002A\u002A*%
X113887151Y-25761367D03*
%TD*%
D20*
%TO.C,R77*%
X135640000Y-76172000D03*
X141740000Y-76172000D03*
%TD*%
D29*
%TO.C,J25*%
X83625400Y-106441377D03*
X95625400Y-106441377D03*
D49*
X86625400Y-108401377D03*
D47*
X89625400Y-108401377D03*
X92625400Y-108401377D03*
%TD*%
D17*
%TO.C,C79*%
X93453250Y-81499250D03*
X91378250Y-81499250D03*
%TD*%
D41*
%TO.C,TP35*%
X100125400Y-129521377D03*
%TD*%
D48*
%TO.C,REF\u002A\u002A*%
X161207151Y-25451367D03*
%TD*%
%TO.C,REF\u002A\u002A*%
X87217151Y-55871367D03*
%TD*%
D23*
%TO.C,mouse-bite-3mm-slot*%
X223421821Y-86901377D03*
X223421821Y-89901377D03*
X224171821Y-89901377D03*
X224183821Y-86901377D03*
X225683821Y-86901377D03*
X225683821Y-89901377D03*
X226457821Y-86901377D03*
X226457821Y-89901377D03*
%TD*%
D41*
%TO.C,TP9*%
X104525400Y-96501377D03*
%TD*%
D50*
%TO.C,U3*%
X159005400Y-140501377D03*
X159005400Y-143041377D03*
X159005400Y-145581377D03*
X159005400Y-148121377D03*
X159005400Y-150661377D03*
X159005400Y-153201377D03*
X176785400Y-140501377D03*
X176785400Y-143041377D03*
X176785400Y-145581377D03*
X176785400Y-148121377D03*
X176785400Y-150661377D03*
X176785400Y-153201377D03*
D51*
X176785400Y-136691377D03*
X176785400Y-157011377D03*
X159005400Y-136691377D03*
X159005400Y-157011377D03*
%TD*%
D39*
%TO.C,J16*%
X188325400Y-109461377D03*
X179325400Y-109461377D03*
D40*
X185325400Y-113401377D03*
D35*
X182325400Y-113401377D03*
X185325400Y-110401377D03*
X182325400Y-110401377D03*
%TD*%
D29*
%TO.C,J5*%
X198625400Y-148611377D03*
X180625400Y-148611377D03*
D46*
X195625400Y-146651377D03*
D47*
X192625400Y-146651377D03*
X189625400Y-146651377D03*
X186625400Y-146651377D03*
X183625400Y-146651377D03*
%TD*%
D45*
%TO.C,J18*%
X96425400Y-156951377D03*
X82825400Y-156951377D03*
D14*
X84545400Y-142151377D03*
D13*
X87085400Y-142151377D03*
X89625400Y-142151377D03*
X92165400Y-142151377D03*
X94705400Y-142151377D03*
%TD*%
D41*
%TO.C,TP28*%
X154144400Y-119361377D03*
%TD*%
D20*
%TO.C,R82*%
X162040000Y-76172000D03*
X168140000Y-76172000D03*
%TD*%
D41*
%TO.C,TP51*%
X100125400Y-149841377D03*
%TD*%
D39*
%TO.C,J20*%
X158033821Y-96591377D03*
X167033821Y-96591377D03*
D44*
X161033821Y-92651377D03*
D35*
X164033821Y-92651377D03*
X161033821Y-95651377D03*
X164033821Y-95651377D03*
%TD*%
D32*
%TO.C,C5*%
X198420288Y-137651377D03*
D33*
X200920288Y-137651377D03*
%TD*%
D48*
%TO.C,REF\u002A\u002A*%
X161207151Y-55451367D03*
%TD*%
D52*
%TO.C,J1*%
X68705400Y-69901377D03*
D43*
X63625400Y-69901377D03*
%TD*%
D41*
%TO.C,TP11*%
X100125400Y-99041377D03*
%TD*%
D29*
%TO.C,J35*%
X106597151Y-59846367D03*
X94597151Y-59846367D03*
D46*
X103597151Y-57886367D03*
D47*
X100597151Y-57886367D03*
X97597151Y-57886367D03*
%TD*%
D15*
%TO.C,*%
X127125400Y-102401377D03*
%TD*%
D41*
%TO.C,TP49*%
X104525400Y-147301377D03*
%TD*%
D53*
%TO.C,U2*%
X119505400Y-92691377D03*
D33*
X119505400Y-95231377D03*
X119505400Y-97771377D03*
X119505400Y-100311377D03*
X119505400Y-102851377D03*
X119505400Y-105391377D03*
X119505400Y-107931377D03*
X119505400Y-110471377D03*
X119505400Y-113011377D03*
X119505400Y-115551377D03*
X119505400Y-118091377D03*
X119505400Y-120631377D03*
X119505400Y-123171377D03*
X119505400Y-125711377D03*
X119505400Y-128251377D03*
X119505400Y-130791377D03*
X119505400Y-133331377D03*
X119505400Y-135871377D03*
X119505400Y-138411377D03*
X119505400Y-140951377D03*
X119505400Y-143491377D03*
X119505400Y-146031377D03*
X119505400Y-148571377D03*
X119505400Y-151111377D03*
X134745400Y-151111377D03*
X134745400Y-148571377D03*
X134745400Y-146031377D03*
X134745400Y-143491377D03*
X134745400Y-140951377D03*
X134745400Y-138411377D03*
X134745400Y-135871377D03*
X134745400Y-133331377D03*
X134745400Y-130791377D03*
X134745400Y-128251377D03*
X134745400Y-125711377D03*
X134745400Y-123171377D03*
X134745400Y-120631377D03*
X134745400Y-118091377D03*
X134745400Y-115551377D03*
X134745400Y-113011377D03*
X134745400Y-110471377D03*
X134745400Y-107931377D03*
X134745400Y-105391377D03*
X134745400Y-102851377D03*
X134745400Y-100311377D03*
X134745400Y-97771377D03*
X134745400Y-95231377D03*
X134745400Y-92691377D03*
X132205400Y-95231377D03*
X122045400Y-138411377D03*
X124585400Y-138411377D03*
X127125400Y-138411377D03*
X129665400Y-138411377D03*
X132205400Y-138411377D03*
D53*
X122556200Y-98990577D03*
D33*
X122556200Y-101530577D03*
X122556200Y-104070577D03*
X122556200Y-106610577D03*
X122556200Y-109150577D03*
D54*
X132307000Y-105661377D03*
D55*
X130307000Y-105661377D03*
X128307000Y-105661377D03*
X128307000Y-107661377D03*
X130307000Y-107661377D03*
X132307000Y-107661377D03*
X128395400Y-93421377D03*
X125855400Y-93421377D03*
%TD*%
D56*
%TO.C,J22*%
X194478821Y-77581377D03*
X194478821Y-86081377D03*
D14*
X190728821Y-86911377D03*
D13*
X190728821Y-84371377D03*
X190728821Y-81831377D03*
X190728821Y-79291377D03*
X190728821Y-76751377D03*
%TD*%
D41*
%TO.C,TP16*%
X154144400Y-104121377D03*
%TD*%
D39*
%TO.C,J59*%
X202633821Y-109461377D03*
X193633821Y-109461377D03*
D40*
X199633821Y-113401377D03*
D35*
X196633821Y-113401377D03*
X199633821Y-110401377D03*
X196633821Y-110401377D03*
%TD*%
D29*
%TO.C,J13*%
X52125400Y-134901377D03*
X52125400Y-122901377D03*
D30*
X54085400Y-131901377D03*
D31*
X54085400Y-128901377D03*
X54085400Y-125901377D03*
%TD*%
D48*
%TO.C,REF\u002A\u002A*%
X113887151Y-55761367D03*
%TD*%
D29*
%TO.C,J21*%
X192625400Y-158901377D03*
X180625400Y-158901377D03*
D46*
X189625400Y-156941377D03*
D47*
X186625400Y-156941377D03*
X183625400Y-156941377D03*
%TD*%
D27*
%TO.C,C3*%
X63660400Y-80901377D03*
D28*
X68660400Y-80901377D03*
%TD*%
D19*
%TO.C,C69*%
X191387151Y-44761367D03*
D18*
X198887151Y-44761367D03*
%TD*%
D41*
%TO.C,TP21*%
X104525400Y-111741377D03*
%TD*%
%TO.C,TP45*%
X104525400Y-142221377D03*
%TD*%
%TO.C,TP19*%
X100125400Y-109201377D03*
%TD*%
%TO.C,TP44*%
X154144400Y-139681377D03*
%TD*%
D23*
%TO.C,mouse-bite-3mm-slot*%
X118545821Y-64408037D03*
X118545821Y-61408037D03*
X117795821Y-61408037D03*
X117783821Y-64408037D03*
X117033821Y-64408037D03*
X117033821Y-61408037D03*
X116283821Y-64408037D03*
X116283821Y-61408037D03*
X115509821Y-64408037D03*
X115509821Y-61408037D03*
%TD*%
D21*
%TO.C,U18*%
X84915000Y-79098500D03*
X85565000Y-79098500D03*
X86215000Y-79098500D03*
X86865000Y-79098500D03*
X86865000Y-81373500D03*
X86215000Y-81373500D03*
X85565000Y-81373500D03*
X84915000Y-81373500D03*
%TD*%
D10*
%TO.C,TP117*%
X161800000Y-81600000D03*
%TD*%
D41*
%TO.C,TP4*%
X191125400Y-72201377D03*
%TD*%
D14*
%TO.C,J40*%
X158700000Y-84320000D03*
D13*
X161240000Y-84320000D03*
X163780000Y-84320000D03*
X166320000Y-84320000D03*
X168860000Y-84320000D03*
X171400000Y-84320000D03*
%TD*%
D41*
%TO.C,TP5*%
X104525400Y-91421377D03*
%TD*%
D15*
%TO.C,*%
X56925400Y-70401378D03*
%TD*%
D41*
%TO.C,TP46*%
X149825400Y-142221377D03*
%TD*%
D48*
%TO.C,REF\u002A\u002A*%
X187877151Y-55341367D03*
%TD*%
D22*
%TO.C,*%
X148600000Y-68000000D03*
%TD*%
D17*
%TO.C,C76*%
X172653250Y-79499250D03*
X170578250Y-79499250D03*
%TD*%
D29*
%TO.C,J29*%
X153987151Y-59836367D03*
X141987151Y-59836367D03*
D46*
X150987151Y-57876367D03*
D47*
X147987151Y-57876367D03*
X144987151Y-57876367D03*
%TD*%
D41*
%TO.C,TP20*%
X154144400Y-109201377D03*
%TD*%
D23*
%TO.C,mouse-bite-3mm-slot*%
X223421821Y-123398047D03*
X223421821Y-126398047D03*
X224171821Y-126398047D03*
X224183821Y-123398047D03*
X225683821Y-123398047D03*
X225683821Y-126398047D03*
X226457821Y-123398047D03*
X226457821Y-126398047D03*
%TD*%
%TO.C,mouse-bite-3mm-slot*%
X97945821Y-64408037D03*
X97945821Y-61408037D03*
X97195821Y-61408037D03*
X97183821Y-64408037D03*
X96433821Y-64408037D03*
X96433821Y-61408037D03*
X95683821Y-64408037D03*
X95683821Y-61408037D03*
X94909821Y-64408037D03*
X94909821Y-61408037D03*
%TD*%
D17*
%TO.C,C75*%
X172653250Y-81499250D03*
X170578250Y-81499250D03*
%TD*%
D27*
%TO.C,C40*%
X63625400Y-104901377D03*
D28*
X68625400Y-104901377D03*
%TD*%
D21*
%TO.C,U16*%
X164115000Y-79098500D03*
X164765000Y-79098500D03*
X165415000Y-79098500D03*
X166065000Y-79098500D03*
X166065000Y-81373500D03*
X165415000Y-81373500D03*
X164765000Y-81373500D03*
X164115000Y-81373500D03*
%TD*%
D10*
%TO.C,TP118*%
X161800000Y-79000000D03*
%TD*%
D29*
%TO.C,J15*%
X52125400Y-106901377D03*
X52125400Y-94901377D03*
D30*
X54085400Y-103901377D03*
D31*
X54085400Y-100901377D03*
X54085400Y-97901377D03*
%TD*%
D22*
%TO.C,*%
X75900000Y-68000000D03*
%TD*%
D41*
%TO.C,TP29*%
X104525400Y-121901377D03*
%TD*%
%TO.C,TP25*%
X104525400Y-116821377D03*
%TD*%
D15*
%TO.C,*%
X75900000Y-84129000D03*
%TD*%
D41*
%TO.C,TP3*%
X191125400Y-67151377D03*
%TD*%
D27*
%TO.C,C36*%
X63625400Y-128901377D03*
D28*
X68625400Y-128901377D03*
%TD*%
D29*
%TO.C,J8*%
X73625400Y-114401377D03*
X73625400Y-102401377D03*
D30*
X75585400Y-111401377D03*
D31*
X75585400Y-108401377D03*
X75585400Y-105401377D03*
%TD*%
D41*
%TO.C,TP17*%
X104525400Y-106661377D03*
%TD*%
%TO.C,TP56*%
X154125400Y-154921377D03*
%TD*%
D34*
%TO.C,U6*%
X146087151Y-52986367D03*
D35*
X147997151Y-52986367D03*
X149907151Y-52986367D03*
D36*
X149047151Y-30956367D03*
D37*
X149047151Y-32216367D03*
D25*
X149797151Y-29926367D03*
X149797151Y-33246367D03*
X150997151Y-29536367D03*
X150997151Y-33636367D03*
X152327151Y-29536367D03*
X152327151Y-33636367D03*
D38*
X152997151Y-31586367D03*
D25*
X153667151Y-29536367D03*
X153667151Y-33636367D03*
X154997151Y-29536367D03*
X154997151Y-33636367D03*
X156197151Y-29926367D03*
X156197151Y-33246367D03*
X156947151Y-30956367D03*
X156947151Y-32216367D03*
X139047151Y-30956367D03*
X139047151Y-32216367D03*
X139797151Y-29926367D03*
X139797151Y-33246367D03*
X140997151Y-29536367D03*
X140997151Y-33636367D03*
X142327151Y-29536367D03*
X142327151Y-33636367D03*
D38*
X142997151Y-31586367D03*
D25*
X143667151Y-29536367D03*
X143667151Y-33636367D03*
X144997151Y-29536367D03*
X144997151Y-33636367D03*
X146197151Y-29926367D03*
X146197151Y-33246367D03*
D37*
X146947151Y-30956367D03*
D36*
X146947151Y-32216367D03*
%TD*%
D23*
%TO.C,mouse-bite-3mm-slot*%
X216733821Y-106713377D03*
X219733821Y-106713377D03*
X219733821Y-105963377D03*
X216733821Y-105951377D03*
X216733821Y-104451377D03*
X219733821Y-104451377D03*
X216733821Y-103677377D03*
X219733821Y-103677377D03*
%TD*%
D41*
%TO.C,TP57*%
X104525400Y-157461377D03*
%TD*%
%TO.C,TP23*%
X100125400Y-114281377D03*
%TD*%
D48*
%TO.C,REF\u002A\u002A*%
X187877151Y-25341367D03*
%TD*%
D15*
%TO.C,*%
X128700000Y-84129000D03*
%TD*%
D41*
%TO.C,TP39*%
X100125400Y-134601377D03*
%TD*%
D29*
%TO.C,J12*%
X52165400Y-148901377D03*
X52165400Y-136901377D03*
D30*
X54125400Y-145901377D03*
D31*
X54125400Y-142901377D03*
X54125400Y-139901377D03*
%TD*%
D16*
%TO.C,R91*%
X93415750Y-77499250D03*
X91415750Y-77499250D03*
%TD*%
D52*
%TO.C,J2*%
X185917945Y-69901377D03*
D43*
X180837945Y-69901377D03*
%TD*%
D10*
%TO.C,TP121*%
X82600000Y-81600000D03*
%TD*%
D41*
%TO.C,TP54*%
X149825400Y-152381377D03*
%TD*%
D29*
%TO.C,J33*%
X133187151Y-59821367D03*
X121187151Y-59821367D03*
D46*
X130187151Y-57861367D03*
D47*
X127187151Y-57861367D03*
X124187151Y-57861367D03*
%TD*%
D41*
%TO.C,TP34*%
X149806400Y-126981377D03*
%TD*%
%TO.C,TP32*%
X154144400Y-124441377D03*
%TD*%
D16*
%TO.C,R81*%
X172615750Y-77499250D03*
X170615750Y-77499250D03*
%TD*%
D14*
%TO.C,J38*%
X132290000Y-84320000D03*
D13*
X134830000Y-84320000D03*
X137370000Y-84320000D03*
X139910000Y-84320000D03*
X142450000Y-84320000D03*
X144990000Y-84320000D03*
%TD*%
D16*
%TO.C,R80*%
X172615750Y-75599250D03*
X170615750Y-75599250D03*
%TD*%
D29*
%TO.C,J6*%
X73625400Y-142401377D03*
X73625400Y-130401377D03*
D30*
X75585400Y-139401377D03*
D31*
X75585400Y-136401377D03*
X75585400Y-133401377D03*
%TD*%
D29*
%TO.C,J23*%
X95625400Y-138361377D03*
X83625400Y-138361377D03*
D46*
X92625400Y-136401377D03*
D47*
X89625400Y-136401377D03*
X86625400Y-136401377D03*
%TD*%
D15*
%TO.C,*%
X56916373Y-153901377D03*
%TD*%
D23*
%TO.C,mouse-bite-3mm-slot*%
X203333821Y-143213377D03*
X206333821Y-143213377D03*
X206333821Y-142463377D03*
X203333821Y-142451377D03*
X203333821Y-141701377D03*
X206333821Y-141701377D03*
X203333821Y-140951377D03*
X206333821Y-140951377D03*
X203333821Y-140177377D03*
X206333821Y-140177377D03*
%TD*%
D41*
%TO.C,TP58*%
X149825400Y-157461377D03*
%TD*%
%TO.C,TP40*%
X154144400Y-134601377D03*
%TD*%
D19*
%TO.C,J37*%
X136940000Y-70350000D03*
D18*
X140440000Y-70350000D03*
%TD*%
D19*
%TO.C,J39*%
X163340000Y-70350000D03*
D18*
X166840000Y-70350000D03*
%TD*%
D27*
%TO.C,C30*%
X63625400Y-92901377D03*
D28*
X68625400Y-92901377D03*
%TD*%
D41*
%TO.C,TP55*%
X100125400Y-154921377D03*
%TD*%
%TO.C,TP18*%
X149825400Y-106661377D03*
%TD*%
D16*
%TO.C,R75*%
X146215750Y-75599250D03*
X144215750Y-75599250D03*
%TD*%
D14*
%TO.C,J3*%
X108375400Y-91421377D03*
D13*
X110915400Y-91421377D03*
X108375400Y-93961377D03*
X110915400Y-93961377D03*
X108375400Y-96501377D03*
X110915400Y-96501377D03*
X108375400Y-99041377D03*
X110915400Y-99041377D03*
X108375400Y-101581377D03*
X110915400Y-101581377D03*
X108375400Y-104121377D03*
X110915400Y-104121377D03*
X108375400Y-106661377D03*
X110915400Y-106661377D03*
X108375400Y-109201377D03*
X110915400Y-109201377D03*
X108375400Y-111741377D03*
X110915400Y-111741377D03*
X108375400Y-114281377D03*
X110915400Y-114281377D03*
X108375400Y-116821377D03*
X110915400Y-116821377D03*
X108375400Y-119361377D03*
X110915400Y-119361377D03*
X108375400Y-121901377D03*
X110915400Y-121901377D03*
X108375400Y-124441377D03*
X110915400Y-124441377D03*
X108375400Y-126981377D03*
X110915400Y-126981377D03*
X108375400Y-129521377D03*
X110915400Y-129521377D03*
X108375400Y-132061377D03*
X110915400Y-132061377D03*
X108375400Y-134601377D03*
X110915400Y-134601377D03*
X108375400Y-137141377D03*
X110915400Y-137141377D03*
X108375400Y-139681377D03*
X110915400Y-139681377D03*
X108375400Y-142221377D03*
X110915400Y-142221377D03*
X108375400Y-144761377D03*
X110915400Y-144761377D03*
X108375400Y-147301377D03*
X110915400Y-147301377D03*
X108375400Y-149841377D03*
X110915400Y-149841377D03*
X108375400Y-152381377D03*
X110915400Y-152381377D03*
X108375400Y-154921377D03*
X110915400Y-154921377D03*
X108375400Y-157461377D03*
X110915400Y-157461377D03*
%TD*%
D41*
%TO.C,TP13*%
X104525400Y-101581377D03*
%TD*%
D29*
%TO.C,J26*%
X83625400Y-92441377D03*
X95625400Y-92441377D03*
D49*
X86625400Y-94401377D03*
D47*
X89625400Y-94401377D03*
X92625400Y-94401377D03*
%TD*%
D34*
%TO.C,U7*%
X125287151Y-52986367D03*
D35*
X127197151Y-52986367D03*
X129107151Y-52986367D03*
D36*
X128247151Y-30956367D03*
D37*
X128247151Y-32216367D03*
D25*
X128997151Y-29926367D03*
X128997151Y-33246367D03*
X130197151Y-29536367D03*
X130197151Y-33636367D03*
X131527151Y-29536367D03*
X131527151Y-33636367D03*
D38*
X132197151Y-31586367D03*
D25*
X132867151Y-29536367D03*
X132867151Y-33636367D03*
X134197151Y-29536367D03*
X134197151Y-33636367D03*
X135397151Y-29926367D03*
X135397151Y-33246367D03*
X136147151Y-30956367D03*
X136147151Y-32216367D03*
X118247151Y-30956367D03*
X118247151Y-32216367D03*
X118997151Y-29926367D03*
X118997151Y-33246367D03*
X120197151Y-29536367D03*
X120197151Y-33636367D03*
X121527151Y-29536367D03*
X121527151Y-33636367D03*
D38*
X122197151Y-31586367D03*
D25*
X122867151Y-29536367D03*
X122867151Y-33636367D03*
X124197151Y-29536367D03*
X124197151Y-33636367D03*
X125397151Y-29926367D03*
X125397151Y-33246367D03*
D37*
X126147151Y-30956367D03*
D36*
X126147151Y-32216367D03*
%TD*%
D21*
%TO.C,U15*%
X137715000Y-79098500D03*
X138365000Y-79098500D03*
X139015000Y-79098500D03*
X139665000Y-79098500D03*
X139665000Y-81373500D03*
X139015000Y-81373500D03*
X138365000Y-81373500D03*
X137715000Y-81373500D03*
%TD*%
D23*
%TO.C,mouse-bite-3mm-slot*%
X216737151Y-33723367D03*
X219737151Y-33723367D03*
X219737151Y-32973367D03*
X216737151Y-32961367D03*
X216737151Y-32211367D03*
X219737151Y-32211367D03*
X216737151Y-31461367D03*
X219737151Y-31461367D03*
X216737151Y-30687367D03*
X219737151Y-30687367D03*
%TD*%
D41*
%TO.C,TP10*%
X149825400Y-96501377D03*
%TD*%
%TO.C,TP8*%
X154125400Y-93961377D03*
%TD*%
%TO.C,TP14*%
X149825400Y-101581377D03*
%TD*%
D19*
%TO.C,J43*%
X84140000Y-70350000D03*
D18*
X87640000Y-70350000D03*
%TD*%
D41*
%TO.C,TP38*%
X149825400Y-132061377D03*
%TD*%
%TO.C,TP12*%
X154125400Y-99041377D03*
%TD*%
%TO.C,TP53*%
X104525400Y-152381377D03*
%TD*%
D24*
%TO.C,J30*%
X140865831Y-26382687D03*
D25*
X140158724Y-25322027D03*
X141926491Y-27089794D03*
X139805171Y-24261367D03*
X142987151Y-27443347D03*
X140158724Y-23200707D03*
X144047811Y-27089794D03*
X140865831Y-22140046D03*
D26*
X142987151Y-24261367D03*
D25*
X145108472Y-26382687D03*
X141926491Y-21432940D03*
X145815578Y-25322027D03*
X142987151Y-21079386D03*
X146169132Y-24261367D03*
X144047811Y-21432940D03*
X145815578Y-23200707D03*
X145108472Y-22140046D03*
D24*
X146876238Y-20372280D03*
D25*
X146169132Y-19311619D03*
X147936899Y-21079386D03*
X145815578Y-18250959D03*
X148997559Y-21432940D03*
X146169132Y-17190299D03*
X150058219Y-21079386D03*
X146876238Y-16129639D03*
D26*
X148997559Y-18250959D03*
D25*
X151118879Y-20372280D03*
X147936899Y-15422532D03*
X151825986Y-19311619D03*
X148997559Y-15068979D03*
X152179539Y-18250959D03*
X150058219Y-15422532D03*
X151825986Y-17190299D03*
X151118879Y-16129639D03*
%TD*%
D41*
%TO.C,TP48*%
X154144400Y-144761377D03*
%TD*%
%TO.C,TP6*%
X149825400Y-91421377D03*
%TD*%
D29*
%TO.C,J24*%
X95625400Y-124361377D03*
X83625400Y-124361377D03*
D46*
X92625400Y-122401377D03*
D47*
X89625400Y-122401377D03*
X86625400Y-122401377D03*
%TD*%
D57*
%TO.C,JP1*%
X132325400Y-87601377D03*
D58*
X132325400Y-88901377D03*
%TD*%
D59*
%TO.C,C41*%
X175933821Y-110863877D03*
X175933821Y-112938877D03*
%TD*%
D60*
%TO.C,C33*%
X65087900Y-142651377D03*
X67162900Y-142651377D03*
%TD*%
D57*
%TO.C,JP2*%
X122000000Y-87600000D03*
D58*
X122000000Y-88900000D03*
%TD*%
D61*
%TO.C,R114*%
X191943821Y-104751377D03*
X191943821Y-106751377D03*
%TD*%
D62*
%TO.C,U14*%
X64500400Y-96266377D03*
X64500400Y-97536377D03*
X58250400Y-97536377D03*
X58250400Y-96266377D03*
%TD*%
D17*
%TO.C,C26*%
X79662900Y-91901377D03*
X77587900Y-91901377D03*
%TD*%
D16*
%TO.C,R99*%
X227033821Y-67601377D03*
X225033821Y-67601377D03*
%TD*%
D17*
%TO.C,C22*%
X79662900Y-133901377D03*
X77587900Y-133901377D03*
%TD*%
D63*
%TO.C,C70*%
X86654397Y-35578613D03*
X85187151Y-34111367D03*
%TD*%
D17*
%TO.C,C28*%
X79662900Y-105901377D03*
X77587900Y-105901377D03*
%TD*%
D61*
%TO.C,R34*%
X157733821Y-113901377D03*
X157733821Y-115901377D03*
%TD*%
D64*
%TO.C,JP30*%
X209033821Y-35051377D03*
D65*
X209033821Y-33751377D03*
%TD*%
D41*
%TO.C,J55*%
X224933821Y-131066377D03*
D40*
X226433821Y-135386377D03*
D35*
X223433821Y-135386377D03*
X226433821Y-138386377D03*
X223433821Y-138386377D03*
%TD*%
D17*
%TO.C,C20*%
X124375400Y-111251377D03*
X122300400Y-111251377D03*
%TD*%
D66*
%TO.C,F31*%
X84625400Y-108401377D03*
X84625400Y-110451377D03*
%TD*%
D61*
%TO.C,R68*%
X56125400Y-126151377D03*
X56125400Y-128151377D03*
%TD*%
D64*
%TO.C,JP38*%
X224933821Y-108051377D03*
D65*
X224933821Y-106751377D03*
%TD*%
D67*
%TO.C,F9*%
X164033821Y-100701377D03*
X164033821Y-98651377D03*
%TD*%
D68*
%TO.C,C82*%
X221133821Y-39038877D03*
X221133821Y-36963877D03*
%TD*%
D69*
%TO.C,R36*%
X181092242Y-100001377D03*
X181092242Y-98001377D03*
%TD*%
D16*
%TO.C,R46*%
X92625400Y-124651377D03*
X90625400Y-124651377D03*
%TD*%
D68*
%TO.C,C14*%
X170925400Y-150738877D03*
X170925400Y-148663877D03*
%TD*%
D61*
%TO.C,R59*%
X56125400Y-85901377D03*
X56125400Y-87901377D03*
%TD*%
D70*
%TO.C,D11*%
X81625400Y-111751377D03*
X81625400Y-111051377D03*
%TD*%
D68*
%TO.C,C94*%
X221133821Y-148538877D03*
X221133821Y-146463877D03*
%TD*%
D71*
%TO.C,D2*%
X97769313Y-39029205D03*
X100937151Y-35861367D03*
%TD*%
D59*
%TO.C,C81*%
X228858821Y-29838877D03*
X228858821Y-31913877D03*
%TD*%
D64*
%TO.C,JP45*%
X222333821Y-144551377D03*
D65*
X222333821Y-143251377D03*
%TD*%
D70*
%TO.C,D12*%
X81625400Y-97751377D03*
X81625400Y-97051377D03*
%TD*%
D64*
%TO.C,JP29*%
X211533821Y-35051377D03*
D65*
X211533821Y-33751377D03*
%TD*%
D67*
%TO.C,F7*%
X123333821Y-127826377D03*
X123333821Y-125776377D03*
%TD*%
%TO.C,F6*%
X125233821Y-127826377D03*
X125233821Y-125776377D03*
%TD*%
D59*
%TO.C,C100*%
X194658821Y-110863877D03*
X194658821Y-112938877D03*
%TD*%
D72*
%TO.C,R28*%
X75625400Y-113401377D03*
X77625400Y-113401377D03*
%TD*%
D57*
%TO.C,JP10*%
X68625400Y-125501377D03*
D58*
X68625400Y-126801377D03*
%TD*%
D64*
%TO.C,JP40*%
X214033821Y-108101377D03*
D65*
X214033821Y-106801377D03*
%TD*%
D16*
%TO.C,R30*%
X79625400Y-108401377D03*
X77625400Y-108401377D03*
%TD*%
D66*
%TO.C,F18*%
X126175400Y-113251377D03*
X126175400Y-115301377D03*
%TD*%
D67*
%TO.C,F4*%
X129033821Y-127809798D03*
X129033821Y-125759798D03*
%TD*%
D73*
%TO.C,D3*%
X168825400Y-139838877D03*
X169525400Y-139838877D03*
%TD*%
D68*
%TO.C,C15*%
X165025400Y-150738877D03*
X165025400Y-148663877D03*
%TD*%
D73*
%TO.C,D5*%
X168925400Y-146801377D03*
X169625400Y-146801377D03*
%TD*%
D61*
%TO.C,R43*%
X188733821Y-90901377D03*
X188733821Y-92901377D03*
%TD*%
D59*
%TO.C,C43*%
X187333821Y-110863877D03*
X187333821Y-112938877D03*
%TD*%
D74*
%TO.C,U4*%
X179033821Y-95876377D03*
X179033821Y-95226377D03*
X179033821Y-94576377D03*
X179033821Y-93926377D03*
X179033821Y-93276377D03*
X179033821Y-92626377D03*
X179033821Y-91976377D03*
X179033821Y-91326377D03*
X179033821Y-90676377D03*
X179033821Y-90026377D03*
X179033821Y-89376377D03*
X179033821Y-88726377D03*
X179033821Y-88076377D03*
X179033821Y-87426377D03*
X186233821Y-87426377D03*
X186233821Y-88076377D03*
X186233821Y-88726377D03*
X186233821Y-89376377D03*
X186233821Y-90026377D03*
X186233821Y-90676377D03*
X186233821Y-91326377D03*
X186233821Y-91976377D03*
X186233821Y-92626377D03*
X186233821Y-93276377D03*
X186233821Y-93926377D03*
X186233821Y-94576377D03*
X186233821Y-95226377D03*
X186233821Y-95876377D03*
%TD*%
D60*
%TO.C,C39*%
X65087900Y-106651377D03*
X67162900Y-106651377D03*
%TD*%
D64*
%TO.C,JP28*%
X214033821Y-35051377D03*
D65*
X214033821Y-33751377D03*
%TD*%
D66*
%TO.C,F28*%
X61375400Y-99376377D03*
X61375400Y-101426377D03*
%TD*%
D17*
%TO.C,C67*%
X174162151Y-59911367D03*
X172087151Y-59911367D03*
%TD*%
D60*
%TO.C,C1*%
X63625400Y-77161377D03*
X65700400Y-77161377D03*
%TD*%
D62*
%TO.C,U11*%
X64500400Y-132266377D03*
X64500400Y-133536377D03*
X58250400Y-133536377D03*
X58250400Y-132266377D03*
%TD*%
D68*
%TO.C,C12*%
X162925400Y-143776377D03*
X162925400Y-141701377D03*
%TD*%
D61*
%TO.C,R74*%
X56125400Y-99901377D03*
X56125400Y-101901377D03*
%TD*%
D64*
%TO.C,JP4*%
X63625400Y-150901377D03*
D65*
X63625400Y-149601377D03*
%TD*%
D60*
%TO.C,C61*%
X86625400Y-124651377D03*
X88700400Y-124651377D03*
%TD*%
%TO.C,C31*%
X65087900Y-154651377D03*
X67162900Y-154651377D03*
%TD*%
D75*
%TO.C,F22*%
X79575400Y-99401377D03*
X81625400Y-99401377D03*
%TD*%
D64*
%TO.C,JP34*%
X214033821Y-71551377D03*
D65*
X214033821Y-70251377D03*
%TD*%
D64*
%TO.C,JP7*%
X63625400Y-138801377D03*
D65*
X63625400Y-137501377D03*
%TD*%
D16*
%TO.C,R73*%
X58125400Y-103901377D03*
X56125400Y-103901377D03*
%TD*%
D68*
%TO.C,C16*%
X163025400Y-150738877D03*
X163025400Y-148663877D03*
%TD*%
%TO.C,C54*%
X159033821Y-95201377D03*
X159033821Y-93126377D03*
%TD*%
D64*
%TO.C,JP33*%
X222433821Y-71551377D03*
D65*
X222433821Y-70251377D03*
%TD*%
D68*
%TO.C,C11*%
X164925400Y-143776377D03*
X164925400Y-141701377D03*
%TD*%
D16*
%TO.C,R95*%
X227033821Y-31101377D03*
X225033821Y-31101377D03*
%TD*%
D68*
%TO.C,C88*%
X207733821Y-75538877D03*
X207733821Y-73463877D03*
%TD*%
D59*
%TO.C,C95*%
X215483821Y-137743877D03*
X215483821Y-139818877D03*
%TD*%
D73*
%TO.C,D4*%
X160925400Y-139838877D03*
X161625400Y-139838877D03*
%TD*%
D57*
%TO.C,JP14*%
X68625400Y-101501377D03*
D58*
X68625400Y-102801377D03*
%TD*%
D69*
%TO.C,R13*%
X183625400Y-144901377D03*
X183625400Y-142901377D03*
%TD*%
%TO.C,R10*%
X186625400Y-144901377D03*
X186625400Y-142901377D03*
%TD*%
D16*
%TO.C,R104*%
X223333821Y-104101377D03*
X221333821Y-104101377D03*
%TD*%
D17*
%TO.C,C49*%
X161862900Y-117001377D03*
X159787900Y-117001377D03*
%TD*%
D59*
%TO.C,C83*%
X215458821Y-29838877D03*
X215458821Y-31913877D03*
%TD*%
D60*
%TO.C,C37*%
X65087900Y-118651377D03*
X67162900Y-118651377D03*
%TD*%
D66*
%TO.C,F17*%
X128075400Y-113251377D03*
X128075400Y-115301377D03*
%TD*%
D17*
%TO.C,C65*%
X92625400Y-92151377D03*
X90550400Y-92151377D03*
%TD*%
D64*
%TO.C,JP31*%
X227433821Y-71551377D03*
D65*
X227433821Y-70251377D03*
%TD*%
D17*
%TO.C,C72*%
X100097151Y-60011367D03*
X98022151Y-60011367D03*
%TD*%
D59*
%TO.C,C93*%
X228908821Y-137728877D03*
X228908821Y-139803877D03*
%TD*%
D60*
%TO.C,C57*%
X180925400Y-85101377D03*
X183000400Y-85101377D03*
%TD*%
%TO.C,C55*%
X180925400Y-83101377D03*
X183000400Y-83101377D03*
%TD*%
D59*
%TO.C,C85*%
X228883821Y-64801377D03*
X228883821Y-66876377D03*
%TD*%
D41*
%TO.C,J50*%
X211508821Y-82208037D03*
D44*
X210008821Y-77888037D03*
D35*
X213008821Y-77888037D03*
X210008821Y-74888037D03*
X213008821Y-74888037D03*
%TD*%
D62*
%TO.C,U13*%
X64500400Y-108266377D03*
X64500400Y-109536377D03*
X58250400Y-109536377D03*
X58250400Y-108266377D03*
%TD*%
D17*
%TO.C,C25*%
X79662900Y-89401377D03*
X77587900Y-89401377D03*
%TD*%
D64*
%TO.C,JP37*%
X227433821Y-108051377D03*
D65*
X227433821Y-106751377D03*
%TD*%
D72*
%TO.C,R25*%
X75625400Y-127401377D03*
X77625400Y-127401377D03*
%TD*%
D41*
%TO.C,J57*%
X211508821Y-131081377D03*
D40*
X213008821Y-135401377D03*
D35*
X210008821Y-135401377D03*
X213008821Y-138401377D03*
X210008821Y-138401377D03*
%TD*%
D67*
%TO.C,F33*%
X198133821Y-99351377D03*
X198133821Y-97301377D03*
%TD*%
D16*
%TO.C,R15*%
X167025400Y-146801377D03*
X165025400Y-146801377D03*
%TD*%
D57*
%TO.C,JP6*%
X68625400Y-149601377D03*
D58*
X68625400Y-150901377D03*
%TD*%
D61*
%TO.C,R37*%
X182992242Y-98001377D03*
X182992242Y-100001377D03*
%TD*%
D60*
%TO.C,C35*%
X65087900Y-130651377D03*
X67162900Y-130651377D03*
%TD*%
D16*
%TO.C,R66*%
X68625400Y-120901377D03*
X66625400Y-120901377D03*
%TD*%
D68*
%TO.C,C97*%
X194633821Y-95226377D03*
X194633821Y-93151377D03*
%TD*%
D59*
%TO.C,C87*%
X215483821Y-64763877D03*
X215483821Y-66838877D03*
%TD*%
D61*
%TO.C,R61*%
X73125400Y-152401377D03*
X73125400Y-154401377D03*
%TD*%
D68*
%TO.C,C86*%
X221133821Y-75538877D03*
X221133821Y-73463877D03*
%TD*%
D41*
%TO.C,J49*%
X211533821Y-58081377D03*
D40*
X213033821Y-62401377D03*
D35*
X210033821Y-62401377D03*
X213033821Y-65401377D03*
X210033821Y-65401377D03*
%TD*%
D16*
%TO.C,R42*%
X175792242Y-99701377D03*
X173792242Y-99701377D03*
%TD*%
D61*
%TO.C,R18*%
X138325400Y-87251377D03*
X138325400Y-89251377D03*
%TD*%
D69*
%TO.C,R38*%
X170692242Y-92601377D03*
X170692242Y-90601377D03*
%TD*%
D17*
%TO.C,C23*%
X79662900Y-117401377D03*
X77587900Y-117401377D03*
%TD*%
D61*
%TO.C,R35*%
X157733821Y-110001377D03*
X157733821Y-112001377D03*
%TD*%
D75*
%TO.C,F21*%
X79600400Y-113401377D03*
X81650400Y-113401377D03*
%TD*%
D16*
%TO.C,R97*%
X213633821Y-31101377D03*
X211633821Y-31101377D03*
%TD*%
D41*
%TO.C,J47*%
X224908821Y-58066377D03*
D40*
X226408821Y-62386377D03*
D35*
X223408821Y-62386377D03*
X226408821Y-65386377D03*
X223408821Y-65386377D03*
%TD*%
D16*
%TO.C,R96*%
X223333821Y-31101377D03*
X221333821Y-31101377D03*
%TD*%
%TO.C,R106*%
X209933821Y-104101377D03*
X207933821Y-104101377D03*
%TD*%
D41*
%TO.C,J51*%
X224908821Y-94563877D03*
D40*
X226408821Y-98883877D03*
D35*
X223408821Y-98883877D03*
X226408821Y-101883877D03*
X223408821Y-101883877D03*
%TD*%
D68*
%TO.C,C53*%
X166033821Y-95176377D03*
X166033821Y-93101377D03*
%TD*%
D67*
%TO.C,F3*%
X130933821Y-127834798D03*
X130933821Y-125784798D03*
%TD*%
D68*
%TO.C,C47*%
X162225400Y-137738877D03*
X162225400Y-135663877D03*
%TD*%
D69*
%TO.C,R20*%
X117900000Y-89250000D03*
X117900000Y-87250000D03*
%TD*%
D68*
%TO.C,C62*%
X84625400Y-122401377D03*
X84625400Y-120326377D03*
%TD*%
D41*
%TO.C,J56*%
X224908821Y-155201377D03*
D44*
X223408821Y-150881377D03*
D35*
X226408821Y-150881377D03*
X223408821Y-147881377D03*
X226408821Y-147881377D03*
%TD*%
D16*
%TO.C,R45*%
X92625400Y-138651377D03*
X90625400Y-138651377D03*
%TD*%
D64*
%TO.C,JP26*%
X224933821Y-35051377D03*
D65*
X224933821Y-33751377D03*
%TD*%
D41*
%TO.C,J53*%
X211508821Y-94581377D03*
D40*
X213008821Y-98901377D03*
D35*
X210008821Y-98901377D03*
X213008821Y-101901377D03*
X210008821Y-101901377D03*
%TD*%
D41*
%TO.C,J54*%
X211503821Y-118701377D03*
D44*
X210003821Y-114381377D03*
D35*
X213003821Y-114381377D03*
X210003821Y-111381377D03*
X213003821Y-111381377D03*
%TD*%
D16*
%TO.C,R98*%
X209933821Y-31101377D03*
X207933821Y-31101377D03*
%TD*%
D64*
%TO.C,JP43*%
X227433821Y-144551377D03*
D65*
X227433821Y-143251377D03*
%TD*%
D59*
%TO.C,C44*%
X180333821Y-110863877D03*
X180333821Y-112938877D03*
%TD*%
D72*
%TO.C,R29*%
X77625400Y-110901377D03*
X79625400Y-110901377D03*
%TD*%
D67*
%TO.C,F13*%
X168825400Y-143763877D03*
X168825400Y-141713877D03*
%TD*%
D76*
%TO.C,D19*%
X92875400Y-134401377D03*
X92175400Y-134401377D03*
%TD*%
D67*
%TO.C,F14*%
X160925400Y-143763877D03*
X160925400Y-141713877D03*
%TD*%
D17*
%TO.C,C50*%
X161862900Y-119001377D03*
X159787900Y-119001377D03*
%TD*%
D72*
%TO.C,R47*%
X86625400Y-106151377D03*
X88625400Y-106151377D03*
%TD*%
D69*
%TO.C,R64*%
X56375400Y-145901377D03*
X56375400Y-143901377D03*
%TD*%
D17*
%TO.C,C27*%
X79662900Y-103401377D03*
X77587900Y-103401377D03*
%TD*%
D59*
%TO.C,C89*%
X228883821Y-101226377D03*
X228883821Y-103301377D03*
%TD*%
D69*
%TO.C,R11*%
X174925400Y-150701377D03*
X174925400Y-148701377D03*
%TD*%
D41*
%TO.C,J48*%
X224908821Y-82204707D03*
D44*
X223408821Y-77884707D03*
D35*
X226408821Y-77884707D03*
X223408821Y-74884707D03*
X226408821Y-74884707D03*
%TD*%
D64*
%TO.C,JP44*%
X224833821Y-144551377D03*
D65*
X224833821Y-143251377D03*
%TD*%
D16*
%TO.C,R50*%
X176687151Y-54896367D03*
X174687151Y-54896367D03*
%TD*%
D68*
%TO.C,C84*%
X207733821Y-39038877D03*
X207733821Y-36963877D03*
%TD*%
D64*
%TO.C,JP47*%
X211433821Y-144551377D03*
D65*
X211433821Y-143251377D03*
%TD*%
D61*
%TO.C,R55*%
X104797151Y-52936367D03*
X104797151Y-54936367D03*
%TD*%
D16*
%TO.C,R52*%
X149987151Y-54911367D03*
X147987151Y-54911367D03*
%TD*%
D75*
%TO.C,F19*%
X79600400Y-141401377D03*
X81650400Y-141401377D03*
%TD*%
D61*
%TO.C,R51*%
X152187151Y-52911367D03*
X152187151Y-54911367D03*
%TD*%
D59*
%TO.C,C91*%
X215483821Y-101281377D03*
X215483821Y-103356377D03*
%TD*%
D64*
%TO.C,JP42*%
X208933821Y-108101377D03*
D65*
X208933821Y-106801377D03*
%TD*%
D67*
%TO.C,F10*%
X189625400Y-154926377D03*
X189625400Y-152876377D03*
%TD*%
D61*
%TO.C,R16*%
X134525400Y-87251377D03*
X134525400Y-89251377D03*
%TD*%
D16*
%TO.C,R6*%
X174825400Y-139838877D03*
X172825400Y-139838877D03*
%TD*%
D66*
%TO.C,F25*%
X61375400Y-135376377D03*
X61375400Y-137426377D03*
%TD*%
D76*
%TO.C,D20*%
X92875400Y-120401377D03*
X92175400Y-120401377D03*
%TD*%
D61*
%TO.C,R39*%
X174792242Y-90601377D03*
X174792242Y-92601377D03*
%TD*%
D69*
%TO.C,R5*%
X174825400Y-143738877D03*
X174825400Y-141738877D03*
%TD*%
D16*
%TO.C,R9*%
X166925400Y-139838877D03*
X164925400Y-139838877D03*
%TD*%
D77*
%TO.C,F1*%
X161583821Y-112001377D03*
X159533821Y-112001377D03*
%TD*%
D72*
%TO.C,R31*%
X75625400Y-99401377D03*
X77625400Y-99401377D03*
%TD*%
D67*
%TO.C,F15*%
X168925400Y-150726377D03*
X168925400Y-148676377D03*
%TD*%
%TO.C,F30*%
X94625400Y-122401377D03*
X94625400Y-120351377D03*
%TD*%
D77*
%TO.C,F24*%
X65650400Y-147651377D03*
X63600400Y-147651377D03*
%TD*%
D16*
%TO.C,R58*%
X58125400Y-89901377D03*
X56125400Y-89901377D03*
%TD*%
D68*
%TO.C,C60*%
X84375400Y-136401377D03*
X84375400Y-134326377D03*
%TD*%
%TO.C,C92*%
X207733821Y-112038877D03*
X207733821Y-109963877D03*
%TD*%
%TO.C,C51*%
X185625400Y-154901377D03*
X185625400Y-152826377D03*
%TD*%
%TO.C,C9*%
X172825400Y-143776377D03*
X172825400Y-141701377D03*
%TD*%
D62*
%TO.C,U9*%
X64500400Y-84166377D03*
X64500400Y-85436377D03*
X58250400Y-85436377D03*
X58250400Y-84166377D03*
%TD*%
D16*
%TO.C,R108*%
X223333821Y-140601377D03*
X221333821Y-140601377D03*
%TD*%
D69*
%TO.C,R40*%
X172792242Y-94601377D03*
X172792242Y-92601377D03*
%TD*%
D78*
%TO.C,U27*%
X192393821Y-111006377D03*
X192393821Y-111506377D03*
X192393821Y-112006377D03*
X192393821Y-112506377D03*
X192393821Y-113006377D03*
X189493821Y-113006377D03*
X189493821Y-112506377D03*
X189493821Y-112006377D03*
X189493821Y-111506377D03*
X189493821Y-111006377D03*
D79*
X190943821Y-112006377D03*
%TD*%
D17*
%TO.C,C71*%
X126662151Y-59911367D03*
X124587151Y-59911367D03*
%TD*%
D67*
%TO.C,F29*%
X94625400Y-136401377D03*
X94625400Y-134351377D03*
%TD*%
D72*
%TO.C,R26*%
X77625400Y-124901377D03*
X79625400Y-124901377D03*
%TD*%
D70*
%TO.C,D10*%
X81625400Y-125901377D03*
X81625400Y-125201377D03*
%TD*%
D59*
%TO.C,C58*%
X176892242Y-92601377D03*
X176892242Y-94676377D03*
%TD*%
D57*
%TO.C,JP13*%
X68625400Y-113501377D03*
D58*
X68625400Y-114801377D03*
%TD*%
D69*
%TO.C,R8*%
X166925400Y-143738877D03*
X166925400Y-141738877D03*
%TD*%
D66*
%TO.C,F27*%
X61375400Y-111376377D03*
X61375400Y-113426377D03*
%TD*%
D67*
%TO.C,F8*%
X162133821Y-100701377D03*
X162133821Y-98651377D03*
%TD*%
D61*
%TO.C,R53*%
X131387151Y-52911367D03*
X131387151Y-54911367D03*
%TD*%
%TO.C,R65*%
X56375400Y-139901377D03*
X56375400Y-141901377D03*
%TD*%
D64*
%TO.C,JP8*%
X63625400Y-126801377D03*
D65*
X63625400Y-125501377D03*
%TD*%
D16*
%TO.C,R70*%
X58125400Y-117901377D03*
X56125400Y-117901377D03*
%TD*%
D64*
%TO.C,JP46*%
X213933821Y-144551377D03*
D65*
X213933821Y-143251377D03*
%TD*%
D59*
%TO.C,C66*%
X94625400Y-94401377D03*
X94625400Y-96476377D03*
%TD*%
D57*
%TO.C,JP5*%
X68625400Y-89501377D03*
D58*
X68625400Y-90801377D03*
%TD*%
D69*
%TO.C,R14*%
X167025400Y-150701377D03*
X167025400Y-148701377D03*
%TD*%
D72*
%TO.C,R48*%
X86625400Y-92151377D03*
X88625400Y-92151377D03*
%TD*%
D75*
%TO.C,F11*%
X176442242Y-101801377D03*
X178492242Y-101801377D03*
%TD*%
D17*
%TO.C,C24*%
X79662900Y-119901377D03*
X77587900Y-119901377D03*
%TD*%
D60*
%TO.C,C29*%
X65087900Y-94651377D03*
X67162900Y-94651377D03*
%TD*%
D68*
%TO.C,C48*%
X164225400Y-137738877D03*
X164225400Y-135663877D03*
%TD*%
%TO.C,C56*%
X178825400Y-85138877D03*
X178825400Y-83063877D03*
%TD*%
D16*
%TO.C,R12*%
X174925400Y-146801377D03*
X172925400Y-146801377D03*
%TD*%
D73*
%TO.C,D22*%
X86275400Y-96401377D03*
X86975400Y-96401377D03*
%TD*%
D16*
%TO.C,R102*%
X209933821Y-67601377D03*
X207933821Y-67601377D03*
%TD*%
D60*
%TO.C,C19*%
X122300400Y-113251377D03*
X124375400Y-113251377D03*
%TD*%
D73*
%TO.C,D6*%
X161025400Y-146801377D03*
X161725400Y-146801377D03*
%TD*%
D59*
%TO.C,C42*%
X168933821Y-110863877D03*
X168933821Y-112938877D03*
%TD*%
D76*
%TO.C,D8*%
X126175400Y-116651377D03*
X125475400Y-116651377D03*
%TD*%
D16*
%TO.C,R56*%
X102597151Y-54936367D03*
X100597151Y-54936367D03*
%TD*%
D75*
%TO.C,F2*%
X159533821Y-113901377D03*
X161583821Y-113901377D03*
%TD*%
D16*
%TO.C,R72*%
X68625400Y-96901377D03*
X66625400Y-96901377D03*
%TD*%
%TO.C,R107*%
X227033821Y-140601377D03*
X225033821Y-140601377D03*
%TD*%
D41*
%TO.C,J45*%
X224908821Y-45704707D03*
D44*
X223408821Y-41384707D03*
D35*
X226408821Y-41384707D03*
X223408821Y-38384707D03*
X226408821Y-38384707D03*
%TD*%
D68*
%TO.C,C10*%
X170825400Y-143776377D03*
X170825400Y-141701377D03*
%TD*%
D66*
%TO.C,F32*%
X84625400Y-94401377D03*
X84625400Y-96451377D03*
%TD*%
D60*
%TO.C,C7*%
X180875400Y-73901377D03*
X182950400Y-73901377D03*
%TD*%
D16*
%TO.C,R63*%
X68625400Y-132901377D03*
X66625400Y-132901377D03*
%TD*%
%TO.C,R110*%
X209833821Y-140601377D03*
X207833821Y-140601377D03*
%TD*%
D64*
%TO.C,JP3*%
X63625400Y-90801377D03*
D65*
X63625400Y-89501377D03*
%TD*%
D69*
%TO.C,R112*%
X189943821Y-106751377D03*
X189943821Y-104751377D03*
%TD*%
D59*
%TO.C,C99*%
X201633821Y-110863877D03*
X201633821Y-112938877D03*
%TD*%
D62*
%TO.C,U12*%
X64500400Y-120266377D03*
X64500400Y-121536377D03*
X58250400Y-121536377D03*
X58250400Y-120266377D03*
%TD*%
D72*
%TO.C,R41*%
X188733821Y-88901377D03*
X190733821Y-88901377D03*
%TD*%
D16*
%TO.C,R27*%
X79625400Y-122401377D03*
X77625400Y-122401377D03*
%TD*%
D64*
%TO.C,JP35*%
X211533821Y-71551377D03*
D65*
X211533821Y-70251377D03*
%TD*%
D72*
%TO.C,R111*%
X197633821Y-90701377D03*
X199633821Y-90701377D03*
%TD*%
D75*
%TO.C,F20*%
X79600400Y-127401377D03*
X81650400Y-127401377D03*
%TD*%
D64*
%TO.C,JP27*%
X222433821Y-35051377D03*
D65*
X222433821Y-33751377D03*
%TD*%
D72*
%TO.C,R23*%
X77625400Y-138901377D03*
X79625400Y-138901377D03*
%TD*%
D64*
%TO.C,JP48*%
X208933821Y-144551377D03*
D65*
X208933821Y-143251377D03*
%TD*%
D67*
%TO.C,F5*%
X127133821Y-127826377D03*
X127133821Y-125776377D03*
%TD*%
D60*
%TO.C,C59*%
X86625400Y-138651377D03*
X88700400Y-138651377D03*
%TD*%
D17*
%TO.C,C63*%
X92625400Y-106151377D03*
X90550400Y-106151377D03*
%TD*%
D69*
%TO.C,R17*%
X136425400Y-89251377D03*
X136425400Y-87251377D03*
%TD*%
D16*
%TO.C,R33*%
X79625400Y-94401377D03*
X77625400Y-94401377D03*
%TD*%
D57*
%TO.C,JP9*%
X68625400Y-137501377D03*
D58*
X68625400Y-138801377D03*
%TD*%
D64*
%TO.C,JP36*%
X209033821Y-71551377D03*
D65*
X209033821Y-70251377D03*
%TD*%
D69*
%TO.C,R7*%
X189625400Y-144901377D03*
X189625400Y-142901377D03*
%TD*%
D64*
%TO.C,JP32*%
X224933821Y-71551377D03*
D65*
X224933821Y-70251377D03*
%TD*%
D60*
%TO.C,C2*%
X63625400Y-74151377D03*
X65700400Y-74151377D03*
%TD*%
%TO.C,C18*%
X129875400Y-111251377D03*
X131950400Y-111251377D03*
%TD*%
D80*
%TO.C,Q2*%
X171642242Y-97376377D03*
X169742242Y-97376377D03*
X170692242Y-95501377D03*
%TD*%
D68*
%TO.C,C13*%
X172925400Y-150738877D03*
X172925400Y-148663877D03*
%TD*%
%TO.C,C90*%
X221133821Y-112038877D03*
X221133821Y-109963877D03*
%TD*%
D64*
%TO.C,JP12*%
X63625400Y-102801377D03*
D65*
X63625400Y-101501377D03*
%TD*%
D81*
%TO.C,JP16*%
X171392242Y-99701377D03*
D82*
X170092242Y-99701377D03*
%TD*%
D64*
%TO.C,JP15*%
X178492242Y-99801377D03*
D65*
X178492242Y-98501377D03*
%TD*%
D16*
%TO.C,R109*%
X213583821Y-140601377D03*
X211583821Y-140601377D03*
%TD*%
D68*
%TO.C,C98*%
X201633821Y-95251377D03*
X201633821Y-93176377D03*
%TD*%
D16*
%TO.C,R105*%
X213633821Y-104101377D03*
X211633821Y-104101377D03*
%TD*%
%TO.C,R100*%
X223333821Y-67601377D03*
X221333821Y-67601377D03*
%TD*%
D66*
%TO.C,F23*%
X61375400Y-87376377D03*
X61375400Y-89426377D03*
%TD*%
D16*
%TO.C,R113*%
X191943821Y-108551377D03*
X189943821Y-108551377D03*
%TD*%
D61*
%TO.C,R19*%
X119800000Y-87250000D03*
X119800000Y-89250000D03*
%TD*%
D59*
%TO.C,C64*%
X94625400Y-108401377D03*
X94625400Y-110476377D03*
%TD*%
D16*
%TO.C,R60*%
X90625400Y-150651377D03*
X88625400Y-150651377D03*
%TD*%
D68*
%TO.C,C96*%
X207733821Y-148538877D03*
X207733821Y-146463877D03*
%TD*%
D64*
%TO.C,JP25*%
X227433821Y-35051377D03*
D65*
X227433821Y-33751377D03*
%TD*%
D70*
%TO.C,D9*%
X81625400Y-139901377D03*
X81625400Y-139201377D03*
%TD*%
D16*
%TO.C,R57*%
X68625400Y-84901377D03*
X66625400Y-84901377D03*
%TD*%
D17*
%TO.C,C17*%
X131950400Y-113251377D03*
X129875400Y-113251377D03*
%TD*%
D41*
%TO.C,J52*%
X224908821Y-118701377D03*
D44*
X223408821Y-114381377D03*
D35*
X226408821Y-114381377D03*
X223408821Y-111381377D03*
X226408821Y-111381377D03*
%TD*%
D72*
%TO.C,R32*%
X77625400Y-96901377D03*
X79625400Y-96901377D03*
%TD*%
D64*
%TO.C,JP41*%
X211483821Y-108101377D03*
D65*
X211483821Y-106801377D03*
%TD*%
D17*
%TO.C,C45*%
X94662900Y-144401377D03*
X92587900Y-144401377D03*
%TD*%
D66*
%TO.C,F26*%
X61375400Y-123376377D03*
X61375400Y-125426377D03*
%TD*%
D67*
%TO.C,F16*%
X161025400Y-150726377D03*
X161025400Y-148676377D03*
%TD*%
D16*
%TO.C,R24*%
X79625400Y-136401377D03*
X77625400Y-136401377D03*
%TD*%
D73*
%TO.C,D7*%
X128075400Y-116651377D03*
X128775400Y-116651377D03*
%TD*%
D16*
%TO.C,R103*%
X227033821Y-104101377D03*
X225033821Y-104101377D03*
%TD*%
D73*
%TO.C,D21*%
X86375400Y-110401377D03*
X87075400Y-110401377D03*
%TD*%
D16*
%TO.C,R69*%
X68625400Y-108901377D03*
X66625400Y-108901377D03*
%TD*%
D69*
%TO.C,R67*%
X56125400Y-131901377D03*
X56125400Y-129901377D03*
%TD*%
D60*
%TO.C,C6*%
X180875400Y-76911377D03*
X182950400Y-76911377D03*
%TD*%
D68*
%TO.C,C52*%
X187625400Y-154901377D03*
X187625400Y-152826377D03*
%TD*%
D64*
%TO.C,JP11*%
X63625400Y-114801377D03*
D65*
X63625400Y-113501377D03*
%TD*%
D41*
%TO.C,J58*%
X211508821Y-155201377D03*
D44*
X210008821Y-150881377D03*
D35*
X213008821Y-150881377D03*
X210008821Y-147881377D03*
X213008821Y-147881377D03*
%TD*%
D72*
%TO.C,R22*%
X75625400Y-141401377D03*
X77625400Y-141401377D03*
%TD*%
D16*
%TO.C,R54*%
X129187151Y-54911367D03*
X127187151Y-54911367D03*
%TD*%
D61*
%TO.C,R49*%
X178887151Y-52911367D03*
X178887151Y-54911367D03*
%TD*%
%TO.C,R62*%
X78125400Y-151901377D03*
X78125400Y-153901377D03*
%TD*%
D16*
%TO.C,R101*%
X213633821Y-67601377D03*
X211633821Y-67601377D03*
%TD*%
D61*
%TO.C,R21*%
X116000000Y-87250000D03*
X116000000Y-89250000D03*
%TD*%
D69*
%TO.C,R44*%
X176892242Y-89801377D03*
X176892242Y-87801377D03*
%TD*%
D62*
%TO.C,U10*%
X86625400Y-150631377D03*
X86625400Y-151901377D03*
X80375400Y-151901377D03*
X80375400Y-150631377D03*
%TD*%
D41*
%TO.C,J46*%
X211508821Y-45708037D03*
D44*
X210008821Y-41388037D03*
D35*
X213008821Y-41388037D03*
X210008821Y-38388037D03*
X213008821Y-38388037D03*
%TD*%
D17*
%TO.C,C68*%
X147424651Y-59911367D03*
X145349651Y-59911367D03*
%TD*%
D67*
%TO.C,F12*%
X171392242Y-103851377D03*
X171392242Y-101801377D03*
%TD*%
D64*
%TO.C,JP39*%
X222433821Y-108101377D03*
D65*
X222433821Y-106801377D03*
%TD*%
D69*
%TO.C,R4*%
X192625400Y-144901377D03*
X192625400Y-142901377D03*
%TD*%
D80*
%TO.C,Q3*%
X175742242Y-97376377D03*
X173842242Y-97376377D03*
X174792242Y-95501377D03*
%TD*%
D17*
%TO.C,C21*%
X79662900Y-131401377D03*
X77587900Y-131401377D03*
%TD*%
%TO.C,C46*%
X94662900Y-146401377D03*
X92587900Y-146401377D03*
%TD*%
D61*
%TO.C,R71*%
X56125400Y-113901377D03*
X56125400Y-115901377D03*
%TD*%
M02*
