M48
; DRILL file {KiCad 9.0.2+dfsg-1} date 2026-08-02T20:11:58+0200
; FORMAT={-:-/ absolute / metric / decimal}
; #@! TF.CreationDate,2026-08-02T20:11:58+02:00
; #@! TF.GenerationSoftware,Kicad,Pcbnew,9.0.2+dfsg-1
; #@! TF.FileFunction,Plated,4,6,Blind
FMAT,2
METRIC
; #@! TA.AperFunction,Plated,Buried,ViaDrill
T1C0.250
; #@! TA.AperFunction,Plated,Buried,ViaDrill
T2C0.625
; #@! TA.AperFunction,Plated,Buried,ViaDrill
T3C1.250
%
G90
G05
T1
X85.565Y-79.099
X111.965Y-79.099
X138.365Y-79.099
X164.765Y-79.099
X186.234Y-90.676
T2
X65.088Y-94.651
X65.088Y-118.651
X65.088Y-130.651
X65.088Y-142.651
X65.088Y-154.651
X65.125Y-106.651
X77.588Y-91.901
X77.588Y-131.401
X77.588Y-133.901
X77.625Y-89.401
X77.625Y-103.401
X77.625Y-105.901
X77.625Y-117.401
X77.625Y-119.901
X159.034Y-95.201
X162.225Y-137.739
X164.225Y-137.739
X166.034Y-95.176
X170.692Y-90.601
X174.792Y-90.601
X178.825Y-85.139
X180.838Y-73.901
X180.875Y-76.911
X180.925Y-83.101
X180.925Y-85.101
X185.625Y-154.901
X187.625Y-154.901
T3
X88.94Y-76.172
X115.34Y-76.172
X141.74Y-76.172
X168.14Y-76.172
M30
