<?xml version="1.0" standalone="no"?>
<!DOCTYPE svg PUBLIC "-//W3C//DTD SVG 1.1//EN"
"http://www.w3.org/Graphics/SVG/1.1/DTD/svg11.dtd">
<svg width="259.087" height="181.606" viewBox="0 0 5397.64 3783.46" version="1.1"
xmlns="http://www.w3.org/2000/svg"
xmlns:xlink="http://www.w3.org/1999/xlink">
<g fill-rule="evenodd"><path d="M 120.116,3653.58 L 120.116,2002.13 L 120.116,1927.98 L 120.116,868.277 L 120.116,746.877 L 120.116,631.075 L 120.116,129.881 L 121.666,124.603 L 125.824,120.999 L 129.88,120.117 L 5267.75,120.117 L 5273.03,121.667 L 5276.64,125.825 L 5277.52,129.881 L 5277.52,3653.58 L 5275.97,3658.86 L 5271.81,3662.46 L 5267.75,3663.34 L 129.88,3663.34 L 124.602,3661.79 L 121,3657.64 L 120.116,3653.58M 1360.2,2993.93 L 1360.7,2998.62 L 1364.66,3009.24 L 1371.45,3018.31 L 1380.52,3025.1 L 1384.06,3026.42 L 1391.14,3029.06 L 1395.84,3029.57 L 1425.73,3029.57 L 1430.62,3030.88 L 1505.94,3074.51 L 1507.95,3076.06 L 1515.33,3083.44 L 1526.55,3094.65 L 1539.45,3103.28 L 1549.59,3107.48 L 1553.79,3109.21 L 1560.11,3110.47 L 1562.33,3110.91 L 1569.01,3112.24 L 3442.8,3112.24 L 3448.73,3111.06 L 3451.7,3110.47 L 3458.02,3109.21 L 3462.22,3107.48 L 3472.35,3103.28 L 3485.26,3094.65 L 3496.23,3083.68 L 3496.79,3083.13 L 3625.02,2954.89 L 3635.99,2943.92 L 3644.62,2931.02 L 3650.55,2916.68 L 3652.24,2908.2 L 3653.58,2901.46 L 3653.58,2855.59 L 3653.85,2853.33 L 3653.89,2853.16 L 3655.41,2836.43 L 3657.43,2831.31 L 3661.9,2828.1 L 3667.39,2827.82 L 3672.04,2830.41 L 3673.73,2832.1 L 3685.48,2839.35 L 3698.6,2843.7 L 3706.69,2844.53 L 3765.75,2844.53 L 3770.43,2844.05 L 3773.84,2843.7 L 3786.95,2839.35 L 3795.28,2834.22 L 3799.22,2832.83 L 3811.94,2831.28 L 3813.61,2831.22 L 3837.71,2832.43 L 3842.91,2834.24 L 3846.3,2838.57 L 3846.81,2844.05 L 3846.25,2845.89 L 3835.47,2872.07 L 3833.98,2877.03 L 3833.78,2877.62 L 3833.14,2879.33 L 3832.64,2884.02 L 3832.64,2891.52 L 3832.63,2891.87 L 3832.62,2892.09 L 3832.64,2892.36 L 3832.64,3025.42 L 3833.14,3030.12 L 3837.1,3040.73 L 3843.89,3049.8 L 3852.96,3056.6 L 3863.58,3060.56 L 3864.13,3060.62 L 3868.28,3061.06 L 4009.67,3061.06 L 4014.37,3060.56 L 4024.99,3056.6 L 4034.06,3049.81 L 4040.85,3040.73 L 4044.81,3030.12 L 4045.31,3025.42 L 4045.31,2889.81 L 4045.42,2888.4 L 4045.47,2888.02 L 4045.47,2887.31 L 4045.33,2884.45 L 4045.32,2884.09 L 4045.31,2883.9 L 4045.28,2883.59 L 4045.25,2883.05 L 4045.18,2882.58 L 4045.1,2882.06 L 4044.81,2879.33 L 4044.06,2877.32 L 4043.45,2875.69 L 4043.13,2874.67 L 4042.48,2872.07 L 4031.32,2844.99 L 4030.75,2839.52 L 4033.22,2834.6 L 4037.28,2832 L 4037.62,2831.89 L 4050.73,2827.54 L 4062.49,2820.29 L 4072.26,2810.52 L 4079.51,2798.76 L 4083.86,2785.65 L 4084.68,2777.56 L 4084.68,2690.94 L 4083.86,2682.85 L 4079.51,2669.74 L 4072.26,2657.98 L 4062.49,2648.21 L 4050.73,2640.96 L 4037.62,2636.61 L 4029.53,2635.79 L 3848.42,2635.79 L 3840.33,2636.61 L 3827.22,2640.96 L 3815.46,2648.21 L 3813.52,2650.15 L 3810.36,2652.26 L 3792.11,2659.84 L 3786.64,2660.44 L 3785.3,2660.09 L 3784.09,2659.69 L 3773.84,2656.3 L 3765.75,2655.47 L 3749.96,2655.47 L 3744.68,2653.92 L 3741.08,2649.76 L 3740.2,2645.71 L 3740.2,2532.65 L 3739.69,2527.95 L 3738.73,2525.37 L 3735.73,2517.33 L 3728.94,2508.26 L 3719.87,2501.47 L 3709.25,2497.51 L 3704.55,2497.01 L 3606.46,2497.01 L 3601.77,2497.51 L 3591.15,2501.47 L 3582.08,2508.26 L 3575.29,2517.33 L 3571.33,2527.95 L 3571.06,2530.48 L 3570.83,2532.65 L 3570.83,2552.68 L 3569.28,2557.96 L 3568.4,2559.12 L 3563.47,2564.74 L 3534.86,2597.35 L 3530.21,2600.29 L 3524.71,2600.26 L 3520.1,2597.25 L 3517.85,2592.23 L 3517.75,2590.91 L 3517.75,2533.46 L 3516.93,2525.37 L 3514.91,2519.28 L 3512.58,2512.26 L 3505.33,2500.5 L 3495.56,2490.73 L 3483.8,2483.48 L 3470.69,2479.13 L 3462.6,2478.31 L 3281.49,2478.31 L 3273.4,2479.13 L 3260.29,2483.48 L 3248.53,2490.73 L 3246.59,2492.67 L 3243.44,2494.78 L 3225.18,2502.36 L 3219.72,2502.96 L 3218.37,2502.61 L 3214.92,2501.47 L 3206.91,2498.82 L 3198.82,2497.99 L 3183.03,2497.99 L 3177.75,2496.44 L 3174.15,2492.28 L 3173.27,2488.23 L 3173.27,2400.42 L 3173.27,2375.16 L 3172.76,2370.47 L 3171.8,2367.89 L 3168.8,2359.85 L 3162.01,2350.78 L 3152.94,2343.99 L 3142.32,2340.03 L 3137.63,2339.53 L 3039.54,2339.53 L 3034.84,2340.03 L 3024.22,2343.99 L 3015.15,2350.78 L 3008.36,2359.85 L 3004.4,2370.47 L 3004.1,2373.27 L 3003.9,2375.17 L 3003.9,2395.2 L 3002.35,2400.48 L 3001.47,2401.64 L 2996.55,2407.25 L 2967.93,2439.87 L 2963.28,2442.81 L 2957.78,2442.78 L 2953.17,2439.77 L 2950.92,2434.75 L 2950.83,2433.43 L 2950.83,2375.98 L 2950,2367.89 L 2947.98,2361.8 L 2945.65,2354.78 L 2938.4,2343.02 L 2928.63,2333.25 L 2916.88,2326 L 2903.76,2321.65 L 2895.67,2320.83 L 2714.56,2320.83 L 2706.47,2321.65 L 2693.36,2326 L 2681.6,2333.25 L 2679.66,2335.19 L 2676.51,2337.3 L 2658.26,2344.88 L 2652.79,2345.48 L 2651.44,2345.13 L 2647.99,2343.99 L 2639.98,2341.34 L 2631.89,2340.51 L 2616.1,2340.51 L 2610.82,2338.96 L 2607.22,2334.8 L 2606.34,2330.75 L 2606.34,2242.94 L 2606.34,2217.68 L 2605.83,2212.99 L 2604.87,2210.41 L 2601.87,2202.37 L 2595.08,2193.3 L 2586.01,2186.51 L 2575.39,2182.55 L 2570.7,2182.05 L 2472.61,2182.05 L 2467.91,2182.55 L 2457.29,2186.51 L 2448.22,2193.3 L 2441.43,2202.37 L 2437.47,2212.99 L 2436.97,2217.69 L 2436.97,2237.72 L 2435.42,2243 L 2434.54,2244.16 L 2429.62,2249.77 L 2401,2282.39 L 2396.35,2285.33 L 2390.85,2285.3 L 2386.24,2282.29 L 2383.99,2277.27 L 2383.9,2275.95 L 2383.9,2218.5 L 2383.07,2210.41 L 2381.19,2204.72 L 2378.72,2197.29 L 2371.47,2185.54 L 2361.7,2175.77 L 2349.95,2168.52 L 2336.83,2164.17 L 2328.74,2163.34 L 2147.63,2163.34 L 2139.54,2164.17 L 2126.43,2168.52 L 2114.67,2175.77 L 2112.73,2177.71 L 2109.58,2179.82 L 2091.33,2187.4 L 2085.86,2188 L 2084.51,2187.65 L 2081.06,2186.51 L 2073.05,2183.86 L 2064.96,2183.03 L 2049.17,2183.03 L 2043.89,2181.48 L 2040.29,2177.32 L 2039.41,2173.27 L 2039.41,2085.46 L 2039.41,2060.2 L 2038.9,2055.51 L 2038.02,2053.15 L 2034.94,2044.89 L 2028.15,2035.82 L 2019.08,2029.03 L 2008.46,2025.07 L 2003.77,2024.57 L 1905.68,2024.57 L 1900.98,2025.07 L 1890.37,2029.03 L 1881.29,2035.82 L 1874.5,2044.89 L 1870.54,2055.51 L 1870.31,2057.64 L 1870.04,2060.21 L 1870.04,2080.24 L 1868.49,2085.52 L 1867.61,2086.68 L 1862.69,2092.29 L 1820.25,2140.66 L 1818.31,2143.04 L 1817.64,2143.78 L 1812.82,2148.6 L 1804.2,2161.5 L 1801.37,2168.33 L 1798.26,2175.84 L 1798.23,2176.01 L 1795.47,2189.86 L 1792.92,2194.73 L 1788.14,2197.46 L 1787.08,2197.65 L 1779.44,2198.58 L 1778.78,2198.68 L 1777.37,2198.78 L 1707.93,2198.78 L 1702.66,2197.23 L 1701.03,2195.92 L 1641.42,2136.31 L 1640.17,2134.77 L 1628.2,2116.6 L 1574.48,2035.03 L 1572.87,2029.77 L 1572.87,2029.66 L 1572.87,2002.13 L 1572.37,1997.44 L 1568.41,1986.84 L 1568.41,1986.82 L 1561.62,1977.75 L 1552.54,1970.96 L 1541.93,1967 L 1537.23,1966.49 L 1395.84,1966.49 L 1391.14,1967 L 1380.52,1970.96 L 1371.45,1977.75 L 1364.66,1986.82 L 1360.7,1997.44 L 1360.64,1998.03 L 1360.2,2002.13 L 1360.2,2143.53 L 1360.7,2148.23 L 1364.66,2158.84 L 1371.45,2167.92 L 1380.52,2174.71 L 1383.37,2175.77 L 1391.14,2178.67 L 1395.84,2179.17 L 1423.36,2179.17 L 1428.64,2180.72 L 1428.73,2180.78 L 1486.01,2218.5 L 1506.57,2232.04 L 1510.12,2236.24 L 1510.85,2241.69 L 1508.5,2246.67 L 1503.84,2249.59 L 1501.2,2249.96 L 1395.84,2249.96 L 1391.14,2250.46 L 1380.52,2254.42 L 1371.45,2261.22 L 1364.66,2270.29 L 1360.7,2280.91 L 1360.2,2285.6 L 1360.2,2427 L 1360.7,2431.69 L 1364.66,2442.31 L 1371.45,2451.38 L 1380.52,2458.17 L 1383.86,2459.41 L 1391.14,2462.13 L 1395.84,2462.64 L 1423.36,2462.64 L 1428.64,2464.19 L 1428.73,2464.25 L 1506.57,2515.51 L 1510.12,2519.7 L 1510.85,2525.16 L 1508.5,2530.14 L 1503.84,2533.06 L 1501.2,2533.42 L 1395.84,2533.42 L 1391.14,2533.93 L 1380.52,2537.89 L 1371.45,2544.68 L 1364.66,2553.75 L 1360.7,2564.37 L 1360.2,2569.06 L 1360.2,2710.46 L 1360.7,2715.15 L 1364.66,2725.77 L 1371.45,2734.84 L 1380.52,2741.64 L 1384.06,2742.96 L 1391.14,2745.6 L 1395.84,2746.1 L 1423.36,2746.1 L 1428.64,2747.65 L 1428.73,2747.71 L 1506.57,2798.97 L 1510.12,2803.17 L 1510.85,2808.62 L 1508.5,2813.6 L 1503.84,2816.52 L 1501.2,2816.89 L 1395.84,2816.89 L 1391.14,2817.39 L 1380.52,2821.35 L 1371.45,2828.14 L 1364.66,2837.22 L 1360.7,2847.83 L 1360.2,2852.53 L 1360.2,2993.93M 1360.2,1860.07 L 1360.7,1864.76 L 1364.66,1875.38 L 1371.45,1884.45 L 1380.52,1891.24 L 1391.14,1895.2 L 1391.69,1895.26 L 1395.84,1895.71 L 1537.23,1895.71 L 1541.93,1895.2 L 1552.54,1891.24 L 1561.62,1884.45 L 1568.41,1875.38 L 1572.37,1864.76 L 1572.87,1860.07 L 1572.88,1859.88 L 1572.9,1859.84 L 1572.9,1859.81 L 1574.71,1854.69 L 1576.42,1852.87 L 1612.46,1823.14 L 1617.52,1820.97 L 1618.67,1820.9 L 1860.31,1820.9 L 1865.59,1822.45 L 1869.19,1826.61 L 1870.08,1830.67 L 1870.08,1850.39 L 1909.45,1850.39 L 1909.45,1815.94 L 2000,1815.94 L 2000,1844.49 L 2039.37,1844.49 L 2039.37,1830.67 L 2040.92,1825.39 L 2045.08,1821.79 L 2049.13,1820.9 L 2083.74,1820.9 L 2089.02,1822.45 L 2092.63,1826.61 L 2093.39,1831.93 L 2093.4,1831.97 L 2093.41,1832.06 L 2093.36,1832.35 L 2092.52,1840.55 L 2092.52,1844.49 L 2131.89,1844.49 L 2132.27,1840.65 L 2133.39,1836.96 L 2135.21,1833.55 L 2137.66,1830.57 L 2140.64,1828.12 L 2144.04,1826.3 L 2147.73,1825.18 L 2151.57,1824.8 L 2324.8,1824.8 L 2328.64,1825.18 L 2332.34,1826.3 L 2335.74,1828.12 L 2338.72,1830.57 L 2341.17,1833.55 L 2342.99,1836.96 L 2344.11,1840.65 L 2344.49,1844.49 L 2344.49,1864.17 L 2383.86,1864.17 L 2383.86,1840.55 L 2382.98,1831.93 L 2383.14,1831.92 L 2383.49,1827.22 L 2386.81,1822.83 L 2391.97,1820.93 L 2392.63,1820.9 L 3114.9,1820.9 L 3120.18,1822.45 L 3121.8,1823.76 L 3184.87,1886.83 L 3193.24,1895.2 L 3195.84,1897.8 L 3208.74,1906.43 L 3218.88,1910.63 L 3222.26,1912.02 L 3223.08,1912.36 L 3230.69,1913.88 L 3234.5,1914.64 L 3238.3,1915.39 L 3474.29,1915.39 L 3475.82,1915.09 L 3481.9,1913.88 L 3489.51,1912.36 L 3493.71,1910.63 L 3503.85,1906.43 L 3516.75,1897.8 L 3527.73,1886.83 L 3528.53,1886.03 L 3635.99,1778.56 L 3644.62,1765.66 L 3650.55,1751.32 L 3653.58,1736.1 L 3653.58,1720.59 L 3653.58,1674.49 L 3653.85,1672.23 L 3653.89,1672.06 L 3655.41,1655.33 L 3657.43,1650.21 L 3661.9,1647 L 3667.39,1646.71 L 3672.04,1649.31 L 3673.73,1651 L 3685.48,1658.25 L 3698.6,1662.6 L 3706.69,1663.42 L 3765.75,1663.42 L 3770.43,1662.95 L 3773.84,1662.6 L 3786.95,1658.25 L 3795.28,1653.11 L 3799.22,1651.73 L 3811.94,1650.18 L 3813.61,1650.12 L 3837.71,1651.32 L 3842.91,1653.14 L 3846.3,1657.47 L 3846.81,1662.95 L 3846.25,1664.79 L 3835.47,1690.97 L 3833.98,1695.92 L 3833.78,1696.51 L 3833.14,1698.23 L 3832.64,1702.92 L 3832.64,1710.41 L 3832.63,1710.77 L 3832.62,1710.99 L 3832.64,1711.26 L 3832.64,1844.32 L 3833.14,1849.01 L 3837.1,1859.63 L 3843.89,1868.7 L 3852.96,1875.49 L 3863.58,1879.45 L 3864.13,1879.51 L 3868.28,1879.96 L 4009.67,1879.96 L 4014.37,1879.45 L 4024.99,1875.49 L 4034.06,1868.7 L 4040.85,1859.63 L 4044.81,1849.01 L 4045.31,1844.32 L 4045.31,1708.71 L 4045.42,1707.3 L 4045.47,1706.91 L 4045.47,1706.21 L 4045.33,1703.35 L 4045.32,1702.99 L 4045.31,1702.8 L 4045.28,1702.48 L 4045.25,1701.95 L 4045.18,1701.48 L 4045.1,1700.96 L 4044.81,1698.23 L 4044.06,1696.22 L 4043.45,1694.59 L 4043.13,1693.57 L 4042.48,1690.97 L 4031.32,1663.88 L 4030.75,1658.41 L 4033.22,1653.5 L 4037.28,1650.9 L 4037.62,1650.79 L 4050.73,1646.44 L 4062.49,1639.19 L 4072.26,1629.42 L 4072.83,1628.49 L 4072.83,1477.81 L 4072.26,1476.88 L 4062.49,1467.11 L 4050.73,1459.86 L 4037.62,1455.51 L 4029.53,1454.68 L 3848.42,1454.68 L 3840.33,1455.51 L 3827.22,1459.86 L 3815.46,1467.11 L 3813.52,1469.04 L 3810.36,1471.16 L 3792.11,1478.74 L 3786.64,1479.33 L 3785.3,1478.99 L 3784.09,1478.59 L 3773.84,1475.2 L 3765.75,1474.37 L 3749.96,1474.37 L 3744.68,1472.82 L 3741.08,1468.66 L 3740.2,1464.6 L 3740.2,1351.54 L 3739.69,1346.85 L 3738.73,1344.27 L 3735.73,1336.23 L 3728.94,1327.16 L 3719.87,1320.37 L 3709.25,1316.41 L 3704.55,1315.9 L 3606.46,1315.9 L 3601.77,1316.41 L 3591.15,1320.37 L 3582.08,1327.16 L 3575.29,1336.23 L 3571.33,1346.85 L 3571.03,1349.65 L 3570.83,1351.54 L 3570.83,1371.58 L 3569.28,1376.86 L 3568.4,1378.02 L 3563.47,1383.63 L 3534.86,1416.24 L 3530.21,1419.19 L 3524.71,1419.15 L 3520.1,1416.15 L 3517.85,1411.13 L 3517.75,1409.8 L 3517.75,1352.36 L 3516.93,1344.27 L 3515.83,1340.95 L 3512.58,1331.15 L 3505.33,1319.4 L 3495.56,1309.63 L 3483.8,1302.38 L 3470.69,1298.03 L 3462.6,1297.2 L 3281.49,1297.2 L 3273.4,1298.03 L 3260.29,1302.38 L 3248.53,1309.63 L 3246.59,1311.56 L 3243.44,1313.68 L 3225.18,1321.26 L 3219.72,1321.85 L 3218.37,1321.51 L 3214.92,1320.37 L 3206.91,1317.71 L 3198.82,1316.89 L 3183.03,1316.89 L 3177.75,1315.34 L 3174.15,1311.18 L 3173.27,1307.12 L 3173.27,1219.32 L 3173.27,1194.06 L 3172.76,1189.37 L 3171.8,1186.79 L 3168.8,1178.75 L 3162.01,1169.68 L 3152.94,1162.89 L 3142.32,1158.93 L 3137.63,1158.42 L 3039.54,1158.42 L 3034.84,1158.93 L 3024.22,1162.89 L 3015.15,1169.68 L 3008.36,1178.75 L 3004.4,1189.37 L 3004.1,1192.17 L 3003.9,1194.06 L 3003.9,1214.1 L 3002.35,1219.38 L 3001.47,1220.54 L 2996.55,1226.15 L 2967.93,1258.76 L 2963.28,1261.71 L 2957.78,1261.67 L 2953.17,1258.67 L 2950.92,1253.65 L 2950.83,1252.32 L 2950.83,1194.88 L 2950,1186.79 L 2947.98,1180.69 L 2945.65,1173.67 L 2938.4,1161.92 L 2928.63,1152.15 L 2916.88,1144.89 L 2903.76,1140.55 L 2895.67,1139.72 L 2714.56,1139.72 L 2706.47,1140.55 L 2693.36,1144.9 L 2681.6,1152.15 L 2679.66,1154.08 L 2676.51,1156.2 L 2658.26,1163.78 L 2652.79,1164.37 L 2651.44,1164.03 L 2647.99,1162.89 L 2639.98,1160.23 L 2631.89,1159.41 L 2616.1,1159.41 L 2610.82,1157.86 L 2607.22,1153.7 L 2606.34,1149.64 L 2606.34,1061.84 L 2606.34,1036.58 L 2605.83,1031.89 L 2604.87,1029.31 L 2601.87,1021.27 L 2595.08,1012.2 L 2586.01,1005.41 L 2575.39,1001.45 L 2570.7,1000.94 L 2472.61,1000.94 L 2467.91,1001.45 L 2457.29,1005.41 L 2448.22,1012.2 L 2441.43,1021.27 L 2437.47,1031.89 L 2436.97,1036.58 L 2436.97,1056.62 L 2435.42,1061.9 L 2434.54,1063.06 L 2429.62,1068.67 L 2401,1101.28 L 2396.35,1104.23 L 2390.85,1104.19 L 2386.24,1101.19 L 2383.99,1096.17 L 2383.9,1094.84 L 2383.9,1037.4 L 2383.07,1029.31 L 2378.72,1016.19 L 2371.47,1004.43 L 2361.7,994.667 L 2349.95,987.415 L 2336.83,983.071 L 2328.74,982.243 L 2147.63,982.243 L 2139.54,983.071 L 2126.43,987.415 L 2114.67,994.667 L 2112.73,996.605 L 2109.58,998.717 L 2091.33,1006.3 L 2085.86,1006.89 L 2084.51,1006.55 L 2081.06,1005.41 L 2073.05,1002.75 L 2064.96,1001.93 L 2049.17,1001.93 L 2043.89,1000.38 L 2040.29,996.221 L 2039.41,992.165 L 2039.41,904.357 L 2039.41,879.103 L 2038.9,874.411 L 2036.62,868.277 L 2034.94,863.791 L 2028.15,854.719 L 2019.08,847.929 L 2008.46,843.969 L 2003.77,843.463 L 1905.68,843.463 L 1900.98,843.969 L 1890.37,847.929 L 1881.29,854.721 L 1874.5,863.793 L 1870.54,874.411 L 1870.04,879.105 L 1870.04,899.139 L 1868.49,904.419 L 1867.61,905.579 L 1862.69,911.193 L 1820.25,959.557 L 1818.31,961.941 L 1817.64,962.683 L 1812.82,967.497 L 1804.2,980.401 L 1802.91,983.511 L 1798.26,994.737 L 1798.23,994.911 L 1795.47,1008.76 L 1792.92,1013.63 L 1788.14,1016.35 L 1787.08,1016.54 L 1779.44,1017.48 L 1778.78,1017.57 L 1777.37,1017.68 L 1660.69,1017.68 L 1655.41,1016.13 L 1653.79,1014.82 L 1641.42,1002.45 L 1640.17,1000.91 L 1638.27,998.031 L 1574.48,901.169 L 1572.87,895.909 L 1572.87,895.799 L 1572.87,868.277 L 1572.37,863.583 L 1568.41,852.965 L 1561.62,843.893 L 1552.54,837.101 L 1541.93,833.141 L 1537.23,832.637 L 1395.84,832.637 L 1391.14,833.141 L 1380.52,837.103 L 1371.45,843.893 L 1364.66,852.965 L 1360.7,863.583 L 1360.2,868.277 L 1360.2,1009.67 L 1360.7,1014.37 L 1364.66,1024.98 L 1371.45,1034.06 L 1380.52,1040.85 L 1384.06,1042.17 L 1391.14,1044.81 L 1395.84,1045.31 L 1423.36,1045.31 L 1428.64,1046.86 L 1428.73,1046.92 L 1506.57,1098.18 L 1510.12,1102.38 L 1510.85,1107.83 L 1508.5,1112.81 L 1503.84,1115.74 L 1501.2,1116.1 L 1395.84,1116.1 L 1391.14,1116.61 L 1380.52,1120.57 L 1371.45,1127.36 L 1364.66,1136.43 L 1360.7,1147.05 L 1360.2,1151.74 L 1360.2,1293.14 L 1360.7,1297.83 L 1364.66,1308.45 L 1371.45,1317.52 L 1380.52,1324.31 L 1384.06,1325.63 L 1391.14,1328.27 L 1395.84,1328.78 L 1423.36,1328.78 L 1428.64,1330.33 L 1428.73,1330.39 L 1506.57,1381.65 L 1510.12,1385.84 L 1510.85,1391.3 L 1508.5,1396.28 L 1503.84,1399.2 L 1501.2,1399.57 L 1395.84,1399.57 L 1391.14,1400.07 L 1380.52,1404.03 L 1371.45,1410.82 L 1364.66,1419.89 L 1360.7,1430.51 L 1360.2,1435.21 L 1360.2,1576.6 L 1360.7,1581.3 L 1364.66,1591.91 L 1371.45,1600.99 L 1380.52,1607.78 L 1382.28,1608.43 L 1391.14,1611.74 L 1395.84,1612.24 L 1423.36,1612.24 L 1428.64,1613.79 L 1428.73,1613.85 L 1486.27,1651.75 L 1489.83,1655.95 L 1490.55,1661.4 L 1488.21,1666.38 L 1484.64,1668.92 L 1476.46,1672.31 L 1465.1,1679.91 L 1460.98,1681.46 L 1450.6,1682.87 L 1450.18,1682.93 L 1448.78,1683.03 L 1395.84,1683.03 L 1391.14,1683.53 L 1380.52,1687.49 L 1371.45,1694.29 L 1364.66,1703.36 L 1360.7,1713.98 L 1360.2,1718.67 L 1360.2,1860.07M 1870.08,1927.98 L 1870.58,1932.67 L 1874.54,1943.27 L 1881.32,1952.34 L 1890.38,1959.12 L 1900.99,1963.08 L 1905.68,1963.58 L 1935.04,1963.58 L 1935.04,1924.21 L 1909.45,1924.21 L 1909.45,1889.76 L 1870.08,1889.76 L 1870.08,1927.98M 1870.08,746.877 L 1870.58,751.565 L 1874.54,762.171 L 1881.32,771.235 L 1890.38,778.019 L 1900.99,781.975 L 1905.68,782.479 L 1935.04,782.479 L 1935.04,743.11 L 1909.45,743.11 L 1909.45,708.661 L 1870.08,708.661 L 1870.08,746.877M 1870.08,669.291 L 1909.45,669.291 L 1909.45,634.843 L 1935.04,634.843 L 1935.04,595.471 L 1905.68,595.471 L 1900.99,595.975 L 1890.38,599.933 L 1881.32,606.717 L 1874.54,615.779 L 1870.58,626.387 L 1870.08,631.075 L 1870.08,669.291M 1974.41,1963.58 L 2003.76,1963.58 L 2008.45,1963.08 L 2019.06,1959.12 L 2028.12,1952.34 L 2034.91,1943.27 L 2038.86,1932.67 L 2039.37,1927.98 L 2039.37,1923.23 L 2000,1923.23 L 2000,1924.21 L 1974.41,1924.21 L 1974.41,1963.58M 1974.41,782.479 L 2003.76,782.479 L 2008.45,781.975 L 2019.06,778.019 L 2028.12,771.235 L 2034.91,762.173 L 2038.86,751.565 L 2039.37,746.877 L 2039.37,742.125 L 2000,742.125 L 2000,743.11 L 1974.41,743.11 L 1974.41,782.479M 1974.41,634.843 L 2000,634.843 L 2000,663.384 L 2039.37,663.385 L 2039.37,659.449 L 2039.37,631.075 L 2038.86,626.387 L 2034.91,615.779 L 2028.12,606.717 L 2019.06,599.933 L 2008.45,595.975 L 2003.77,595.471 L 1974.41,595.471 L 1974.41,634.843M 2092.52,1927.16 L 2093.34,1935.25 L 2097.69,1948.35 L 2104.93,1960.1 L 2114.7,1969.87 L 2126.45,1977.11 L 2139.55,1981.46 L 2147.64,1982.28 L 2218.5,1982.28 L 2218.5,1942.91 L 2151.57,1942.91 L 2147.73,1942.54 L 2144.04,1941.41 L 2140.64,1939.6 L 2137.66,1937.15 L 2135.21,1934.16 L 2133.39,1930.76 L 2132.27,1927.07 L 2131.89,1923.23 L 2131.89,1923.23 L 2092.52,1923.23 L 2092.52,1927.16M 2092.52,746.061 L 2093.34,754.149 L 2097.69,767.253 L 2104.93,779.003 L 2114.7,788.765 L 2126.45,796.011 L 2139.55,800.355 L 2147.64,801.181 L 2218.5,801.181 L 2218.5,761.811 L 2151.57,761.811 L 2147.73,761.433 L 2144.04,760.313 L 2140.64,758.493 L 2137.66,756.045 L 2135.21,753.062 L 2133.39,749.659 L 2132.27,745.966 L 2131.89,742.126 L 2131.89,742.125 L 2092.52,742.125 L 2092.52,746.061M 2092.52,663.385 L 2131.89,663.385 L 2132.27,659.545 L 2133.39,655.853 L 2135.21,652.449 L 2137.66,649.466 L 2140.64,647.018 L 2144.04,645.199 L 2147.73,644.079 L 2151.57,643.701 L 2218.5,643.701 L 2218.5,604.331 L 2147.64,604.331 L 2139.55,605.157 L 2126.45,609.499 L 2114.7,616.747 L 2104.93,626.507 L 2097.69,638.257 L 2093.34,651.363 L 2092.52,659.449 L 2092.52,663.385M 2257.87,1982.28 L 2280.94,1982.28 L 2257.87,1959.22 L 2257.87,1982.28M 2257.87,801.181 L 2280.94,801.181 L 2257.87,778.117 L 2257.87,801.181M 2257.87,643.701 L 2324.8,643.701 L 2328.64,644.079 L 2332.34,645.199 L 2335.74,647.018 L 2338.72,649.466 L 2341.17,652.449 L 2342.99,655.853 L 2344.11,659.545 L 2344.49,663.386 L 2344.49,683.071 L 2383.86,683.071 L 2383.86,659.449 L 2383.03,651.361 L 2378.69,638.257 L 2371.44,626.507 L 2361.68,616.747 L 2349.93,609.499 L 2336.82,605.157 L 2328.74,604.331 L 2257.87,604.331 L 2257.87,643.701M 2342.22,751.106 L 2370.78,779.666 L 2371.44,779.003 L 2378.69,767.253 L 2383.03,754.149 L 2383.86,746.061 L 2383.86,722.441 L 2344.49,722.441 L 2344.49,742.126 L 2344.11,745.966 L 2342.99,749.659 L 2342.22,751.106M 2342.22,1932.21 L 2370.78,1960.77 L 2371.44,1960.1 L 2378.69,1948.35 L 2383.03,1935.25 L 2383.86,1927.16 L 2383.86,1903.54 L 2344.49,1903.54 L 2344.49,1923.23 L 2344.11,1927.07 L 2342.99,1930.76 L 2342.22,1932.21M 2437.01,2085.46 L 2437.51,2090.15 L 2441.47,2100.75 L 2448.25,2109.82 L 2457.31,2116.6 L 2467.92,2120.56 L 2472.61,2121.06 L 2501.97,2121.06 L 2501.97,2081.69 L 2476.38,2081.69 L 2476.38,2066.93 L 2437.01,2066.93 L 2437.01,2085.46M 2437.01,1988.19 L 2476.38,1988.19 L 2476.38,1973.43 L 2501.97,1973.43 L 2501.97,1934.05 L 2472.61,1934.05 L 2467.92,1934.56 L 2457.31,1938.51 L 2448.25,1945.3 L 2441.47,1954.36 L 2437.51,1964.97 L 2437.01,1969.66 L 2437.01,1988.19M 2437.01,904.357 L 2437.51,909.045 L 2441.47,919.651 L 2448.25,928.715 L 2457.31,935.499 L 2467.92,939.455 L 2472.61,939.959 L 2501.97,939.959 L 2501.97,900.591 L 2476.38,900.591 L 2476.38,885.827 L 2437.01,885.827 L 2437.01,904.357M 2437.01,807.086 L 2476.38,807.086 L 2476.38,792.323 L 2501.97,792.323 L 2501.97,752.953 L 2472.61,752.953 L 2467.92,753.457 L 2457.31,757.413 L 2448.25,764.197 L 2441.47,773.261 L 2437.51,783.867 L 2437.01,788.555 L 2437.01,807.086M 2541.34,2121.06 L 2570.69,2121.06 L 2575.38,2120.56 L 2585.99,2116.6 L 2595.05,2109.82 L 2601.84,2100.75 L 2605.79,2090.15 L 2606.3,2085.46 L 2606.3,2080.71 L 2566.93,2080.71 L 2566.93,2081.69 L 2541.34,2081.69 L 2541.34,2121.06M 2541.34,1973.43 L 2566.93,1973.43 L 2566.93,2001.97 L 2606.3,2001.97 L 2606.3,1998.03 L 2606.3,1969.66 L 2605.79,1964.97 L 2601.84,1954.36 L 2595.05,1945.3 L 2585.99,1938.51 L 2575.38,1934.56 L 2570.69,1934.05 L 2541.34,1934.05 L 2541.34,1973.43M 2541.34,939.959 L 2570.69,939.959 L 2575.38,939.455 L 2585.99,935.499 L 2595.05,928.715 L 2601.84,919.653 L 2605.79,909.045 L 2606.3,904.357 L 2606.3,899.605 L 2566.93,899.605 L 2566.93,900.591 L 2541.34,900.591 L 2541.34,939.959M 2541.34,792.323 L 2566.93,792.323 L 2566.93,820.864 L 2606.3,820.864 L 2606.3,816.929 L 2606.3,788.555 L 2605.79,783.867 L 2601.84,773.259 L 2595.05,764.197 L 2585.99,757.413 L 2575.38,753.457 L 2570.69,752.953 L 2541.34,752.953 L 2541.34,792.323M 2659.45,2084.64 L 2660.27,2092.73 L 2664.62,2105.83 L 2671.86,2117.58 L 2681.62,2127.35 L 2693.37,2134.59 L 2706.48,2138.94 L 2714.57,2139.76 L 2785.43,2139.76 L 2785.43,2100.39 L 2718.5,2100.39 L 2714.66,2100.02 L 2710.97,2098.9 L 2707.57,2097.08 L 2704.58,2094.63 L 2702.14,2091.65 L 2700.32,2088.24 L 2699.2,2084.55 L 2698.82,2080.71 L 2698.82,2080.71 L 2659.45,2080.71 L 2659.45,2084.64M 2659.45,2001.97 L 2698.82,2001.97 L 2699.2,1998.13 L 2700.32,1994.44 L 2702.14,1991.03 L 2704.58,1988.05 L 2707.57,1985.6 L 2710.97,1983.78 L 2714.66,1982.66 L 2718.5,1982.28 L 2785.43,1982.28 L 2785.43,1942.91 L 2714.57,1942.91 L 2706.48,1943.74 L 2693.37,1948.08 L 2681.62,1955.33 L 2671.86,1965.09 L 2664.62,1976.84 L 2660.27,1989.94 L 2659.45,1998.03 L 2659.45,2001.97M 2659.45,903.541 L 2660.27,911.629 L 2664.62,924.733 L 2671.86,936.483 L 2681.62,946.245 L 2693.37,953.491 L 2706.48,957.835 L 2714.57,958.661 L 2785.43,958.661 L 2785.43,919.291 L 2718.5,919.291 L 2714.66,918.913 L 2710.97,917.793 L 2707.57,915.974 L 2704.58,913.526 L 2702.14,910.543 L 2700.32,907.139 L 2699.2,903.447 L 2698.82,899.606 L 2698.82,899.605 L 2659.45,899.605 L 2659.45,903.541M 2659.45,820.864 L 2698.82,820.865 L 2699.2,817.026 L 2700.32,813.333 L 2702.14,809.93 L 2704.58,806.947 L 2707.57,804.499 L 2710.97,802.68 L 2714.66,801.559 L 2718.5,801.181 L 2785.43,801.181 L 2785.43,761.811 L 2714.57,761.811 L 2706.48,762.637 L 2693.37,766.979 L 2681.62,774.227 L 2671.86,783.987 L 2664.62,795.737 L 2660.27,808.843 L 2659.45,816.929 L 2659.45,820.864M 2824.8,2139.76 L 2847.87,2139.76 L 2824.8,2116.7 L 2824.8,2139.76M 2824.8,1982.28 L 2891.73,1982.28 L 2895.57,1982.66 L 2899.27,1983.78 L 2902.67,1985.6 L 2905.65,1988.05 L 2908.1,1991.03 L 2909.92,1994.44 L 2911.04,1998.13 L 2911.42,2001.97 L 2911.42,2021.65 L 2950.79,2021.65 L 2950.79,2002.14 L 2950.79,1998.03 L 2949.96,1989.94 L 2945.62,1976.84 L 2938.37,1965.09 L 2928.61,1955.33 L 2916.86,1948.08 L 2903.75,1943.74 L 2895.67,1942.91 L 2824.8,1942.91 L 2824.8,1982.28M 2824.8,958.661 L 2847.86,958.661 L 2824.8,935.598 L 2824.8,958.661M 2824.8,801.181 L 2891.73,801.181 L 2895.57,801.559 L 2899.27,802.68 L 2902.67,804.499 L 2905.65,806.947 L 2908.1,809.93 L 2909.92,813.333 L 2911.04,817.026 L 2911.42,820.866 L 2911.42,840.551 L 2950.79,840.551 L 2950.79,816.929 L 2949.96,808.843 L 2945.62,795.737 L 2938.37,783.987 L 2928.61,774.227 L 2916.86,766.979 L 2903.75,762.637 L 2895.67,761.811 L 2824.8,761.811 L 2824.8,801.181M 2909.15,908.586 L 2937.71,937.147 L 2938.37,936.483 L 2945.62,924.733 L 2949.96,911.629 L 2950.79,903.541 L 2950.79,879.921 L 2911.42,879.921 L 2911.42,899.606 L 2911.04,903.447 L 2909.92,907.139 L 2909.15,908.586M 2909.15,2089.69 L 2937.71,2118.25 L 2938.37,2117.58 L 2945.62,2105.83 L 2949.96,2092.73 L 2950.79,2084.64 L 2950.79,2061.02 L 2911.42,2061.02 L 2911.42,2080.71 L 2911.04,2084.55 L 2909.92,2088.24 L 2909.15,2089.69M 3003.94,2242.94 L 3004.44,2247.63 L 3008.4,2258.23 L 3015.18,2267.3 L 3024.24,2274.08 L 3034.85,2278.04 L 3039.54,2278.54 L 3068.9,2278.54 L 3068.9,2239.17 L 3043.31,2239.17 L 3043.31,2224.41 L 3003.94,2224.41 L 3003.94,2242.94M 3003.94,2145.67 L 3043.31,2145.67 L 3043.31,2130.91 L 3068.9,2130.91 L 3068.9,2091.53 L 3039.54,2091.53 L 3034.85,2092.04 L 3024.24,2095.99 L 3015.18,2102.78 L 3008.4,2111.84 L 3004.44,2122.45 L 3003.94,2127.14 L 3003.94,2145.67M 3003.94,1061.84 L 3004.44,1066.52 L 3008.4,1077.13 L 3015.18,1086.19 L 3024.24,1092.98 L 3034.85,1096.94 L 3039.54,1097.44 L 3068.9,1097.44 L 3068.9,1058.07 L 3043.31,1058.07 L 3043.31,1043.31 L 3003.94,1043.31 L 3003.94,1061.84M 3003.94,964.567 L 3043.31,964.567 L 3043.31,949.803 L 3068.9,949.803 L 3068.9,910.433 L 3039.54,910.433 L 3034.85,910.937 L 3024.24,914.893 L 3015.18,921.677 L 3008.4,930.741 L 3004.44,941.347 L 3003.94,946.035 L 3003.94,964.567M 3108.27,2278.54 L 3137.62,2278.54 L 3142.31,2278.04 L 3152.92,2274.08 L 3161.98,2267.3 L 3168.77,2258.23 L 3172.72,2247.63 L 3173.23,2242.94 L 3173.23,2238.19 L 3133.86,2238.19 L 3133.86,2239.17 L 3108.27,2239.17 L 3108.27,2278.54M 3108.27,2130.91 L 3133.86,2130.91 L 3133.86,2159.45 L 3173.23,2159.45 L 3173.23,2155.51 L 3173.23,2127.14 L 3172.72,2122.45 L 3168.77,2111.84 L 3161.98,2102.78 L 3152.92,2095.99 L 3142.31,2092.04 L 3137.62,2091.53 L 3108.27,2091.53 L 3108.27,2130.91M 3108.27,1097.44 L 3137.62,1097.44 L 3142.31,1096.94 L 3152.92,1092.98 L 3161.98,1086.19 L 3168.77,1077.13 L 3172.72,1066.52 L 3173.23,1061.84 L 3173.23,1057.08 L 3133.86,1057.08 L 3133.86,1058.07 L 3108.27,1058.07 L 3108.27,1097.44M 3108.27,949.803 L 3133.86,949.803 L 3133.86,978.344 L 3173.23,978.345 L 3173.23,974.409 L 3173.23,946.035 L 3172.72,941.347 L 3168.77,930.739 L 3161.98,921.677 L 3152.92,914.893 L 3142.31,910.937 L 3137.62,910.433 L 3108.27,910.433 L 3108.27,949.803M 3226.38,2242.12 L 3227.2,2250.21 L 3231.55,2263.31 L 3238.79,2275.06 L 3248.55,2284.83 L 3260.3,2292.07 L 3273.41,2296.42 L 3281.5,2297.24 L 3352.36,2297.24 L 3352.36,2257.87 L 3285.43,2257.87 L 3281.59,2257.5 L 3277.9,2256.38 L 3274.5,2254.56 L 3271.51,2252.11 L 3269.07,2249.13 L 3267.25,2245.72 L 3266.13,2242.03 L 3265.75,2238.19 L 3226.38,2238.19 L 3226.38,2242.12M 3226.38,2159.45 L 3265.75,2159.45 L 3266.13,2155.61 L 3267.25,2151.92 L 3269.07,2148.51 L 3271.51,2145.53 L 3274.5,2143.08 L 3277.9,2141.26 L 3281.59,2140.14 L 3285.43,2139.76 L 3352.36,2139.76 L 3352.36,2100.39 L 3281.5,2100.39 L 3273.41,2101.22 L 3260.3,2105.56 L 3248.55,2112.81 L 3238.79,2122.57 L 3231.55,2134.32 L 3227.2,2147.42 L 3226.38,2155.51 L 3226.38,2159.45M 3226.38,1061.02 L 3227.2,1069.11 L 3231.55,1082.21 L 3238.79,1093.96 L 3248.55,1103.72 L 3260.3,1110.97 L 3273.41,1115.31 L 3281.5,1116.14 L 3352.36,1116.14 L 3352.36,1076.77 L 3285.43,1076.77 L 3281.59,1076.39 L 3277.9,1075.27 L 3274.5,1073.45 L 3271.51,1071.01 L 3269.07,1068.02 L 3267.25,1064.62 L 3266.13,1060.93 L 3265.75,1057.09 L 3265.75,1057.08 L 3226.38,1057.08 L 3226.38,1061.02M 3226.38,978.345 L 3265.75,978.344 L 3266.13,974.506 L 3267.25,970.813 L 3269.07,967.41 L 3271.51,964.427 L 3274.5,961.979 L 3277.9,960.16 L 3281.59,959.04 L 3285.43,958.661 L 3352.36,958.661 L 3352.36,919.291 L 3281.5,919.291 L 3273.41,920.117 L 3260.3,924.459 L 3248.55,931.707 L 3238.79,941.469 L 3231.55,953.219 L 3227.2,966.323 L 3226.38,974.409 L 3226.38,978.345M 3391.73,2297.24 L 3414.79,2297.24 L 3391.73,2274.18 L 3391.73,2297.24M 3391.73,2139.76 L 3458.66,2139.76 L 3462.5,2140.14 L 3466.19,2141.26 L 3469.6,2143.08 L 3472.58,2145.53 L 3475.03,2148.51 L 3476.85,2151.92 L 3477.97,2155.61 L 3478.35,2159.45 L 3478.35,2179.13 L 3517.72,2179.13 L 3517.71,2155.51 L 3516.89,2147.42 L 3512.55,2134.32 L 3505.3,2122.57 L 3495.54,2112.81 L 3483.79,2105.56 L 3470.68,2101.22 L 3462.6,2100.39 L 3391.73,2100.39 L 3391.73,2139.76M 3391.73,1116.14 L 3414.79,1116.14 L 3391.73,1093.08 L 3391.73,1116.14M 3391.73,958.661 L 3458.66,958.661 L 3462.5,959.04 L 3466.19,960.16 L 3469.6,961.979 L 3472.58,964.427 L 3475.03,967.41 L 3476.85,970.813 L 3477.97,974.506 L 3478.35,978.346 L 3478.35,998.03 L 3517.72,998.031 L 3517.71,974.409 L 3516.89,966.323 L 3512.55,953.217 L 3505.3,941.469 L 3495.54,931.707 L 3483.79,924.459 L 3470.68,920.117 L 3462.6,919.291 L 3391.73,919.291 L 3391.73,958.661M 3476.07,2247.17 L 3504.63,2275.73 L 3505.3,2275.06 L 3512.55,2263.32 L 3516.89,2250.21 L 3517.72,2242.12 L 3517.72,2218.5 L 3478.35,2218.5 L 3478.35,2238.19 L 3477.97,2242.03 L 3476.85,2245.72 L 3476.07,2247.17M 3476.07,1066.07 L 3504.63,1094.63 L 3505.3,1093.96 L 3512.55,1082.21 L 3516.89,1069.11 L 3517.72,1061.02 L 3517.72,1037.4 L 3478.35,1037.4 L 3478.35,1057.09 L 3477.97,1060.93 L 3476.85,1064.62 L 3476.07,1066.07M 3549.21,2143.53 L 3549.72,2148.22 L 3553.67,2158.82 L 3560.46,2167.89 L 3569.52,2174.67 L 3580.13,2178.63 L 3584.81,2179.13 L 3616.14,2179.13 L 3616.14,2139.76 L 3588.58,2139.76 L 3588.58,2092.52 L 3549.21,2092.52 L 3549.21,2143.53M 3549.21,2053.15 L 3588.58,2053.15 L 3588.58,2005.91 L 3635.83,2005.91 L 3635.83,1966.53 L 3584.81,1966.53 L 3580.13,1967.04 L 3569.52,1970.99 L 3560.46,1977.78 L 3553.67,1986.84 L 3549.72,1997.45 L 3549.21,2002.14 L 3549.21,2053.15M 3570.86,2400.42 L 3571.37,2405.11 L 3575.32,2415.71 L 3582.11,2424.78 L 3591.17,2431.56 L 3601.78,2435.52 L 3606.47,2436.02 L 3635.83,2436.02 L 3635.83,2396.65 L 3610.24,2396.65 L 3610.24,2381.89 L 3570.86,2381.89 L 3570.86,2400.42M 3570.86,2303.15 L 3610.24,2303.15 L 3610.24,2288.39 L 3616.14,2288.39 L 3616.14,2249.01 L 3606.47,2249.01 L 3601.78,2249.52 L 3591.17,2253.47 L 3582.11,2260.26 L 3575.32,2269.32 L 3571.37,2279.93 L 3570.86,2284.62 L 3570.86,2303.15M 3570.86,1219.32 L 3571.37,1224 L 3575.32,1234.61 L 3582.11,1243.67 L 3591.17,1250.46 L 3601.78,1254.42 L 3606.47,1254.92 L 3635.83,1254.92 L 3635.83,1215.55 L 3610.24,1215.55 L 3610.24,1200.79 L 3570.86,1200.79 L 3570.86,1219.32M 3570.86,1122.05 L 3610.24,1122.05 L 3610.24,1107.28 L 3635.83,1107.28 L 3635.83,1067.91 L 3606.47,1067.91 L 3601.78,1068.42 L 3591.17,1072.37 L 3582.11,1079.16 L 3575.32,1088.22 L 3571.37,1098.83 L 3570.86,1103.51 L 3570.86,1122.05M 3675.2,2436.02 L 3704.55,2436.02 L 3709.24,2435.52 L 3719.85,2431.56 L 3728.91,2424.78 L 3735.7,2415.71 L 3739.65,2405.11 L 3740.16,2400.42 L 3740.16,2381.89 L 3700.79,2381.89 L 3700.79,2396.65 L 3675.2,2396.65 L 3675.2,2436.02M 3675.2,2005.91 L 3722.44,2005.91 L 3722.44,2033.46 L 3761.81,2033.46 L 3761.81,2002.14 L 3761.31,1997.45 L 3757.35,1986.84 L 3750.56,1977.78 L 3741.5,1970.99 L 3730.89,1967.04 L 3726.21,1966.53 L 3675.2,1966.53 L 3675.2,2005.91M 3675.2,1254.92 L 3704.55,1254.92 L 3709.24,1254.42 L 3719.85,1250.46 L 3728.91,1243.67 L 3735.7,1234.61 L 3739.65,1224 L 3740.16,1219.32 L 3740.16,1214.57 L 3700.79,1214.57 L 3700.79,1215.55 L 3675.2,1215.55 L 3675.2,1254.92M 3675.2,1107.28 L 3700.79,1107.28 L 3700.79,1135.83 L 3740.16,1135.83 L 3740.16,1131.89 L 3740.16,1103.51 L 3739.65,1098.83 L 3735.7,1088.22 L 3728.91,1079.16 L 3719.85,1072.37 L 3709.24,1068.42 L 3704.55,1067.91 L 3675.2,1067.91 L 3675.2,1107.28M 3694.88,2288.39 L 3700.79,2288.39 L 3700.79,2303.15 L 3740.16,2303.15 L 3740.16,2284.62 L 3739.65,2279.93 L 3735.7,2269.32 L 3728.91,2260.26 L 3719.85,2253.47 L 3709.24,2249.52 L 3704.55,2249.01 L 3694.88,2249.01 L 3694.88,2288.39M 3694.88,2139.76 L 3694.88,2179.13 L 3726.21,2179.13 L 3730.89,2178.63 L 3741.5,2174.67 L 3750.56,2167.89 L 3757.35,2158.82 L 3761.31,2148.22 L 3761.81,2143.53 L 3761.81,2112.2 L 3722.44,2112.2 L 3722.44,2139.76 L 3694.88,2139.76M 3793.31,2399.6 L 3794.13,2407.69 L 3798.47,2420.8 L 3805.72,2432.55 L 3815.48,2442.31 L 3827.23,2449.55 L 3840.34,2453.9 L 3848.43,2454.72 L 3919.29,2454.72 L 3919.29,2415.35 L 3852.36,2415.35 L 3848.52,2414.98 L 3844.83,2413.86 L 3841.43,2412.04 L 3838.44,2409.59 L 3835.99,2406.61 L 3834.18,2403.2 L 3833.06,2399.51 L 3832.68,2395.67 L 3832.68,2381.89 L 3793.31,2381.89 L 3793.31,2399.6M 3793.31,1218.5 L 3794.13,1226.59 L 3798.47,1239.69 L 3805.72,1251.44 L 3815.48,1261.2 L 3827.23,1268.45 L 3840.34,1272.79 L 3848.43,1273.62 L 3919.29,1273.62 L 3919.29,1234.25 L 3852.36,1234.25 L 3848.52,1233.87 L 3844.83,1232.75 L 3841.43,1230.93 L 3838.44,1228.49 L 3835.99,1225.5 L 3834.18,1222.1 L 3833.06,1218.41 L 3832.68,1214.57 L 3832.68,1214.57 L 3793.31,1214.57 L 3793.31,1218.5M 3793.31,1135.83 L 3832.68,1135.83 L 3833.06,1131.99 L 3834.18,1128.29 L 3835.99,1124.89 L 3838.44,1121.91 L 3841.43,1119.46 L 3844.83,1117.64 L 3848.52,1116.52 L 3852.36,1116.14 L 3919.29,1116.14 L 3919.29,1076.77 L 3848.42,1076.77 L 3840.34,1077.6 L 3827.23,1081.94 L 3815.48,1089.19 L 3805.72,1098.95 L 3798.47,1110.7 L 3794.13,1123.8 L 3793.31,1131.89 L 3793.31,1135.83M 3794.71,2303.15 L 3838.33,2303.15 L 3838.44,2303.01 L 3841.43,2300.56 L 3844.83,2298.74 L 3848.52,2297.62 L 3852.36,2297.24 L 3899.6,2297.24 L 3899.6,2257.87 L 3848.42,2257.87 L 3840.34,2258.7 L 3827.23,2263.04 L 3815.48,2270.29 L 3805.72,2280.05 L 3798.47,2291.8 L 3794.71,2303.15M 3832.68,2143.53 L 3833.18,2148.22 L 3837.14,2158.82 L 3843.92,2167.89 L 3852.98,2174.67 L 3863.59,2178.63 L 3868.28,2179.13 L 3899.6,2179.13 L 3899.6,2139.76 L 3872.05,2139.76 L 3872.05,2112.2 L 3832.68,2112.2 L 3832.68,2143.53M 3832.68,2033.46 L 3872.05,2033.46 L 3872.05,2005.91 L 3919.29,2005.91 L 3919.29,1966.53 L 3868.28,1966.53 L 3863.59,1967.04 L 3852.98,1970.99 L 3843.92,1977.78 L 3837.14,1986.84 L 3833.18,1997.45 L 3832.68,2002.14 L 3832.68,2033.46M 3958.66,2454.72 L 4029.52,2454.72 L 4037.61,2453.9 L 4050.72,2449.55 L 4062.47,2442.31 L 4072.23,2432.55 L 4079.48,2420.8 L 4083.82,2407.69 L 4084.64,2399.6 L 4084.64,2375.98 L 4045.28,2375.98 L 4045.28,2395.67 L 4044.9,2399.51 L 4043.78,2403.2 L 4041.96,2406.61 L 4039.51,2409.59 L 4036.53,2412.04 L 4033.12,2413.86 L 4029.43,2414.98 L 4025.59,2415.35 L 3958.66,2415.35 L 3958.66,2454.72M 3958.66,2005.91 L 4005.91,2005.91 L 4005.91,2033.46 L 4017.16,2033.46 L 4045.27,2005.35 L 4045.27,2002.14 L 4044.77,1997.45 L 4040.81,1986.84 L 4034.03,1977.78 L 4024.97,1970.99 L 4014.36,1967.04 L 4009.67,1966.53 L 3958.66,1966.53 L 3958.66,2005.91M 3958.66,1273.62 L 4029.52,1273.62 L 4037.61,1272.79 L 4050.72,1268.45 L 4062.47,1261.2 L 4072.23,1251.44 L 4072.83,1250.46 L 4072.83,1238.75 L 4048.65,1214.57 L 4045.28,1214.57 L 4045.28,1214.57 L 4044.9,1218.41 L 4043.78,1222.1 L 4041.96,1225.5 L 4039.51,1228.49 L 4036.53,1230.93 L 4033.12,1232.75 L 4029.43,1233.87 L 4025.59,1234.25 L 3958.66,1234.25 L 3958.66,1273.62M 3958.66,1116.14 L 4025.59,1116.14 L 4029.43,1116.52 L 4033.12,1117.64 L 4036.53,1119.46 L 4039.51,1121.91 L 4041.96,1124.89 L 4043.78,1128.29 L 4044.9,1131.99 L 4045.28,1135.83 L 4064.96,1135.83 L 4072.64,1136.58 L 4080.03,1138.82 L 4084.64,1141.29 L 4084.64,1131.89 L 4083.82,1123.8 L 4079.48,1110.7 L 4072.23,1098.95 L 4062.47,1089.19 L 4050.72,1081.94 L 4037.61,1077.6 L 4029.53,1076.77 L 3958.66,1076.77 L 3958.66,1116.14M 3978.34,2139.76 L 3978.34,2179.13 L 4009.67,2179.13 L 4014.36,2178.63 L 4024.97,2174.67 L 4034.03,2167.89 L 4040.81,2158.82 L 4044.77,2148.22 L 4045.27,2143.53 L 4045.27,2110.19 L 4041.15,2111.45 L 4033.46,2112.2 L 4005.91,2112.2 L 4005.91,2139.76 L 3978.34,2139.76M 3978.34,2257.87 L 3978.34,2297.24 L 4025.59,2297.24 L 4029.43,2297.62 L 4033.12,2298.74 L 4036.53,2300.56 L 4039.51,2303.01 L 4041.96,2305.99 L 4043.78,2309.4 L 4044.9,2313.09 L 4045.28,2316.93 L 4045.28,2336.61 L 4084.64,2336.61 L 4084.64,2312.99 L 4083.82,2304.9 L 4079.48,2291.8 L 4072.23,2280.05 L 4062.47,2270.29 L 4050.72,2263.04 L 4037.61,2258.7 L 4029.53,2257.87 L 3978.34,2257.87 z " style="fill-opacity:1.000000;fill:rgb(103,198,105);stroke:rgb(0,0,0);stroke-width:2"/></g>
<g fill-rule="evenodd"><path d="M 1399.61,2990.16 L 1399.61,2856.3 L 1533.46,2856.3 L 1533.46,2895 L 1533.85,2895.36 L 1572.15,2973.17 L 1593.08,2994.09 L 3418.73,2994.09 L 3535.43,2877.39 L 3535.43,2849.72 L 3535.36,2849.55 L 3529.57,2785.93 L 3529.58,2785.92 L 3529.53,2785.43 L 3529.53,2714.57 L 3529.91,2710.73 L 3531.03,2707.03 L 3532.85,2703.63 L 3535.29,2700.65 L 3535.43,2700.53 L 3535.43,2671.26 L 3535.92,2665.1 L 3537.36,2659.09 L 3539.72,2653.38 L 3542.95,2648.12 L 3546.96,2643.42 L 3550.9,2639.48 L 3550.95,2639.35 L 3593.39,2590.99 L 3609.8,2572.29 L 3610.24,2572.08 L 3610.24,2536.42 L 3700.79,2536.42 L 3700.79,2644.69 L 3665.2,2644.69 L 3665.16,2644.85 L 3665.01,2645.03 L 3618.06,2685.37 L 3620.04,2714.08 L 3620.03,2714.11 L 3620.08,2714.57 L 3620.08,2785.43 L 3620.03,2785.91 L 3620.03,2785.93 L 3614.25,2849.55 L 3614.17,2849.7 L 3614.17,2893.7 L 3613.69,2899.86 L 3612.25,2905.87 L 3609.88,2911.57 L 3606.65,2916.84 L 3602.64,2921.54 L 3462.88,3061.3 L 3456.91,3066.2 L 3450.1,3069.84 L 3442.72,3072.08 L 3435.04,3072.83 L 1576.77,3072.83 L 1569.09,3072.08 L 1561.7,3069.84 L 1554.9,3066.2 L 1548.93,3061.3 L 1530.19,3042.56 L 1440.41,2990.55 L 1440.11,2990.16 L 1399.61,2990.16 z " style="fill-opacity:1.000000;fill:rgb(115,81,255);stroke:rgb(0,0,0);stroke-width:2"/></g>
<g fill-rule="evenodd"><path d="M 1399.61,2706.69 L 1399.61,2572.83 L 1533.46,2572.83 L 1533.46,2612.33 L 1533.47,2612.33 L 1533.88,2612.67 L 1608.22,2725.55 L 1608.27,2725.82 L 1766.31,2883.86 L 2914.79,2883.86 L 2968.5,2830.15 L 2968.5,2692.24 L 2968.43,2692.07 L 2962.64,2628.45 L 2962.65,2628.44 L 2962.6,2627.95 L 2962.6,2557.09 L 2962.98,2553.25 L 2964.1,2549.55 L 2965.92,2546.15 L 2968.36,2543.17 L 2968.5,2543.05 L 2968.5,2513.78 L 2968.99,2507.62 L 2970.43,2501.61 L 2972.79,2495.9 L 2976.02,2490.64 L 2980.03,2485.94 L 2983.97,2482 L 2984.02,2481.87 L 3026.46,2433.51 L 3042.87,2414.81 L 3043.31,2414.6 L 3043.31,2378.94 L 3133.86,2378.94 L 3133.86,2487.2 L 3098.27,2487.2 L 3098.23,2487.37 L 3098.08,2487.55 L 3051.13,2527.89 L 3053.11,2556.6 L 3053.1,2556.63 L 3053.15,2557.09 L 3053.15,2627.95 L 3053.1,2628.44 L 3053.1,2628.45 L 3047.32,2692.07 L 3047.24,2692.22 L 3047.24,2846.45 L 3046.49,2854.14 L 3044.25,2861.52 L 3040.61,2868.33 L 3035.71,2874.29 L 2958.94,2951.07 L 2952.97,2955.96 L 2946.17,2959.6 L 2938.78,2961.84 L 2931.1,2962.6 L 1750,2962.6 L 1742.32,2961.84 L 1734.93,2959.6 L 1728.13,2955.96 L 1722.16,2951.07 L 1552.63,2781.53 L 1552.32,2781.44 L 1439.45,2707.11 L 1439.16,2706.69 L 1399.61,2706.69 z " style="fill-opacity:1.000000;fill:rgb(74,236,41);stroke:rgb(0,0,0);stroke-width:2"/></g>
<g fill-rule="evenodd"><path d="M 1399.61,2423.23 L 1399.61,2289.37 L 1533.46,2289.37 L 1533.46,2328.87 L 1533.47,2328.87 L 1533.88,2329.21 L 1608.22,2442.09 L 1608.27,2442.35 L 1939.53,2773.62 L 2284.87,2773.62 L 2401.57,2656.92 L 2401.57,2534.76 L 2401.5,2534.59 L 2395.71,2470.97 L 2395.72,2470.96 L 2395.67,2470.47 L 2395.67,2399.61 L 2396.05,2395.77 L 2397.17,2392.07 L 2398.99,2388.67 L 2401.43,2385.69 L 2401.57,2385.57 L 2401.57,2356.3 L 2402.33,2348.62 L 2404.57,2341.23 L 2408.21,2334.43 L 2413.11,2328.46 L 2417.04,2324.52 L 2417.09,2324.39 L 2459.53,2276.03 L 2475.94,2257.33 L 2476.38,2257.12 L 2476.38,2221.46 L 2566.93,2221.46 L 2566.93,2329.72 L 2531.34,2329.72 L 2531.3,2329.89 L 2531.15,2330.07 L 2484.2,2370.41 L 2486.19,2399.12 L 2486.18,2399.15 L 2486.22,2399.61 L 2486.22,2470.47 L 2486.17,2470.94 L 2486.17,2470.97 L 2480.39,2534.59 L 2480.31,2534.74 L 2480.31,2673.23 L 2479.56,2680.91 L 2477.32,2688.29 L 2473.68,2695.1 L 2468.78,2701.07 L 2329.02,2840.83 L 2323.05,2845.73 L 2316.25,2849.36 L 2308.86,2851.6 L 2301.18,2852.36 L 1923.23,2852.36 L 1915.55,2851.6 L 1908.16,2849.36 L 1901.35,2845.73 L 1895.39,2840.83 L 1552.63,2498.07 L 1552.32,2497.98 L 1439.45,2423.64 L 1439.16,2423.23 L 1399.61,2423.23 z " style="fill-opacity:1.000000;fill:rgb(205,186,171);stroke:rgb(0,0,0);stroke-width:2"/></g>
<g fill-rule="evenodd"><path d="M 1399.61,2139.76 L 1399.61,2005.91 L 1533.46,2005.91 L 1533.46,2045.4 L 1533.47,2045.4 L 1533.88,2045.74 L 1608.22,2158.62 L 1608.27,2158.89 L 1687.57,2238.19 L 1784.07,2238.19 L 1784.27,2238.09 L 1831.32,2232.34 L 1831.43,2232.37 L 1832.06,2231.19 L 1834.51,2228.21 L 1834.64,2228.09 L 1834.64,2198.82 L 1835.4,2191.14 L 1837.64,2183.75 L 1841.28,2176.95 L 1846.18,2170.98 L 1850.12,2167.04 L 1850.16,2166.91 L 1892.6,2118.55 L 1909.01,2099.85 L 1909.45,2099.64 L 1909.45,2063.98 L 2000,2063.98 L 2000,2172.24 L 1964.41,2172.24 L 1964.37,2172.41 L 1964.22,2172.59 L 1917.27,2212.93 L 1919.26,2241.64 L 1919.25,2241.67 L 1919.29,2242.13 L 1919.29,2312.99 L 1918.91,2316.83 L 1917.79,2320.53 L 1915.97,2323.93 L 1913.53,2326.91 L 1910.54,2329.36 L 1907.14,2331.18 L 1903.45,2332.3 L 1899.61,2332.68 L 1848.43,2332.68 L 1844.58,2332.3 L 1840.89,2331.18 L 1837.49,2329.36 L 1834.51,2326.91 L 1832.06,2323.93 L 1831.44,2322.78 L 1831.32,2322.78 L 1784.27,2317.03 L 1784.1,2316.93 L 1671.26,2316.93 L 1665.1,2316.44 L 1659.09,2315 L 1653.38,2312.64 L 1648.12,2309.41 L 1643.42,2305.4 L 1552.63,2214.61 L 1552.32,2214.51 L 1439.45,2140.18 L 1439.16,2139.76 L 1399.61,2139.76 z " style="fill-opacity:1.000000;fill:rgb(242,251,227);stroke:rgb(0,0,0);stroke-width:2"/></g>
<g fill-rule="evenodd"><path d="M 1399.61,1856.3 L 1399.61,1722.44 L 1455.71,1722.44 L 1455.91,1722.32 L 1455.94,1722.31 L 1481.35,1718.87 L 1485.94,1714.29 L 1491.91,1709.39 L 1498.71,1705.75 L 1506.1,1703.51 L 1513.78,1702.75 L 3151.57,1702.75 L 3159.26,1703.51 L 3166.64,1705.75 L 3173.45,1709.39 L 3179.41,1714.29 L 3262.37,1797.24 L 3450.23,1797.24 L 3535.43,1712.04 L 3535.43,1668.62 L 3535.36,1668.45 L 3529.57,1604.83 L 3529.58,1604.82 L 3529.53,1604.33 L 3529.53,1533.46 L 3529.91,1529.62 L 3531.03,1525.93 L 3532.85,1522.53 L 3535.29,1519.55 L 3535.43,1519.43 L 3535.43,1490.16 L 3536.19,1482.48 L 3538.43,1475.09 L 3542.07,1468.28 L 3546.96,1462.32 L 3550.9,1458.38 L 3550.95,1458.25 L 3593.39,1409.89 L 3609.8,1391.19 L 3610.24,1390.97 L 3610.24,1355.31 L 3700.79,1355.31 L 3700.79,1463.58 L 3665.2,1463.58 L 3665.16,1463.75 L 3665.01,1463.92 L 3618.06,1504.26 L 3620.04,1532.98 L 3620.03,1533.01 L 3620.08,1533.46 L 3620.08,1604.33 L 3620.03,1604.81 L 3620.03,1604.83 L 3614.25,1668.45 L 3614.17,1668.6 L 3614.17,1728.34 L 3613.42,1736.03 L 3611.18,1743.41 L 3607.54,1750.22 L 3602.64,1756.18 L 3494.37,1864.45 L 3488.41,1869.35 L 3481.6,1872.99 L 3474.22,1875.23 L 3466.53,1875.98 L 3246.06,1875.98 L 3238.38,1875.23 L 3231,1872.99 L 3224.19,1869.35 L 3218.22,1864.45 L 3135.27,1781.49 L 1600.21,1781.49 L 1600.12,1781.71 L 1600.06,1781.77 L 1534.01,1836.26 L 1533.46,1836.42 L 1533.46,1856.3 L 1399.61,1856.3 z " style="fill-opacity:1.000000;fill:rgb(70,124,194);stroke:rgb(0,0,0);stroke-width:2"/></g>
<g fill-rule="evenodd"><path d="M 1399.61,1572.83 L 1399.61,1438.98 L 1533.46,1438.98 L 1533.46,1478.47 L 1533.47,1478.47 L 1533.88,1478.82 L 1608.22,1591.69 L 1608.27,1591.96 L 1608.83,1592.52 L 2899.04,1592.52 L 2968.5,1523.06 L 2968.5,1511.13 L 2968.43,1510.97 L 2962.64,1447.35 L 2962.65,1447.34 L 2962.6,1446.85 L 2962.6,1375.98 L 2962.98,1372.14 L 2964.1,1368.45 L 2965.92,1365.05 L 2968.36,1362.06 L 2968.5,1361.95 L 2968.5,1332.68 L 2969.26,1325 L 2971.5,1317.61 L 2975.14,1310.8 L 2980.03,1304.84 L 2983.97,1300.9 L 2984.02,1300.77 L 3026.46,1252.41 L 3042.87,1233.71 L 3043.31,1233.49 L 3043.31,1197.83 L 3133.86,1197.83 L 3133.86,1306.1 L 3098.27,1306.1 L 3098.23,1306.27 L 3098.08,1306.44 L 3051.13,1346.78 L 3053.11,1375.49 L 3053.1,1375.52 L 3053.15,1375.98 L 3053.15,1446.85 L 3053.1,1447.33 L 3053.1,1447.35 L 3047.32,1510.97 L 3047.24,1511.12 L 3047.24,1539.37 L 3046.49,1547.05 L 3044.25,1554.43 L 3040.61,1561.24 L 3035.71,1567.21 L 2943.19,1659.73 L 2937.23,1664.62 L 2930.42,1668.26 L 2923.03,1670.5 L 2915.35,1671.26 L 1592.52,1671.26 L 1584.84,1670.5 L 1577.45,1668.26 L 1570.65,1664.62 L 1564.68,1659.73 L 1552.63,1647.68 L 1552.32,1647.58 L 1439.45,1573.25 L 1439.16,1572.83 L 1399.61,1572.83 z " style="fill-opacity:1.000000;fill:rgb(84,248,27);stroke:rgb(0,0,0);stroke-width:2"/></g>
<g fill-rule="evenodd"><path d="M 1399.61,1289.37 L 1399.61,1155.51 L 1533.46,1155.51 L 1533.46,1195.01 L 1533.47,1195.01 L 1533.88,1195.35 L 1608.22,1308.23 L 1608.27,1308.5 L 1719.06,1419.29 L 2316.37,1419.29 L 2401.57,1334.09 L 2401.57,1306.43 L 2397.44,1297.49 L 2397.43,1297.4 L 2397.17,1296.9 L 2396.05,1293.21 L 2395.67,1289.37 L 2395.67,1218.5 L 2396.05,1214.66 L 2397.17,1210.97 L 2398.99,1207.57 L 2401.43,1204.58 L 2401.57,1204.47 L 2401.57,1175.2 L 2402.33,1167.52 L 2404.57,1160.13 L 2408.21,1153.32 L 2413.11,1147.36 L 2417.04,1143.42 L 2417.09,1143.29 L 2459.53,1094.93 L 2475.94,1076.23 L 2476.38,1076.01 L 2476.38,1040.35 L 2566.93,1040.35 L 2566.93,1148.62 L 2531.34,1148.62 L 2531.3,1148.79 L 2531.15,1148.96 L 2484.2,1189.3 L 2486.19,1218.01 L 2486.18,1218.05 L 2486.22,1218.5 L 2486.22,1289.37 L 2485.84,1293.21 L 2484.72,1296.9 L 2484.6,1297.12 L 2484.63,1297.19 L 2484.61,1297.4 L 2480.31,1316.7 L 2480.31,1350.39 L 2479.56,1358.07 L 2477.32,1365.46 L 2473.68,1372.27 L 2468.78,1378.23 L 2360.52,1486.5 L 2354.55,1491.4 L 2347.74,1495.03 L 2340.36,1497.27 L 2332.68,1498.03 L 1702.75,1498.03 L 1695.07,1497.27 L 1687.69,1495.03 L 1680.88,1491.4 L 1674.92,1486.5 L 1552.63,1364.21 L 1552.32,1364.12 L 1439.45,1289.79 L 1439.16,1289.37 L 1399.61,1289.37 z " style="fill-opacity:1.000000;fill:rgb(232,231,141);stroke:rgb(0,0,0);stroke-width:2"/></g>
<g fill-rule="evenodd"><path d="M 1399.61,1005.91 L 1399.61,872.047 L 1533.46,872.047 L 1533.46,911.543 L 1533.47,911.543 L 1533.88,911.887 L 1608.22,1024.76 L 1608.27,1025.03 L 1640.32,1057.09 L 1784.07,1057.09 L 1784.27,1056.99 L 1831.32,1051.24 L 1831.43,1051.27 L 1832.06,1050.09 L 1834.51,1047.1 L 1834.64,1046.99 L 1834.64,1017.71 L 1835.13,1011.56 L 1836.57,1005.55 L 1838.94,999.841 L 1842.16,994.573 L 1846.18,989.875 L 1850.12,985.935 L 1850.16,985.809 L 1892.6,937.447 L 1909.01,918.749 L 1909.45,918.534 L 1909.45,882.874 L 2000,882.874 L 2000,991.142 L 1964.41,991.142 L 1964.37,991.311 L 1964.22,991.485 L 1917.27,1031.82 L 1919.26,1060.53 L 1919.25,1060.56 L 1919.29,1061.02 L 1919.29,1131.89 L 1918.91,1135.73 L 1917.79,1139.42 L 1915.97,1142.83 L 1913.53,1145.81 L 1910.54,1148.26 L 1907.14,1150.08 L 1903.45,1151.2 L 1899.61,1151.57 L 1848.43,1151.57 L 1844.58,1151.2 L 1840.89,1150.08 L 1837.49,1148.26 L 1834.51,1145.81 L 1832.06,1142.83 L 1831.45,1141.68 L 1831.32,1141.67 L 1784.27,1135.92 L 1784.1,1135.83 L 1624.01,1135.83 L 1617.86,1135.34 L 1611.85,1133.9 L 1606.14,1131.54 L 1600.87,1128.31 L 1596.18,1124.3 L 1552.63,1080.75 L 1552.32,1080.66 L 1439.45,1006.32 L 1439.16,1005.91 L 1399.61,1005.91 z " style="fill-opacity:1.000000;fill:rgb(118,90,46);stroke:rgb(0,0,0);stroke-width:2"/></g>
<g fill-rule="evenodd"><path d="M 1990.16,2312.99 L 1990.16,2242.13 L 1990.54,2238.29 L 1991.66,2234.59 L 1993.48,2231.19 L 1995.92,2228.21 L 1998.91,2225.76 L 2002.31,2223.94 L 2006,2222.82 L 2009.84,2222.44 L 2061.02,2222.44 L 2064.86,2222.82 L 2068.56,2223.94 L 2071.96,2225.76 L 2074.94,2228.21 L 2077.39,2231.19 L 2078,2232.33 L 2078.13,2232.34 L 2084.92,2233.17 L 2134.68,2212.49 L 2135.21,2211.5 L 2137.66,2208.52 L 2140.64,2206.07 L 2144.04,2204.25 L 2147.73,2203.13 L 2151.57,2202.76 L 2324.8,2202.76 L 2328.64,2203.13 L 2332.34,2204.25 L 2335.74,2206.07 L 2338.72,2208.52 L 2341.17,2211.5 L 2342.99,2214.91 L 2344.11,2218.6 L 2344.49,2222.44 L 2344.49,2301.18 L 2344.11,2305.02 L 2342.99,2308.71 L 2341.17,2312.12 L 2338.72,2315.1 L 2335.74,2317.55 L 2332.34,2319.37 L 2328.64,2320.49 L 2324.8,2320.87 L 2297.01,2320.87 L 2297.11,2321.11 L 2297.06,2321.4 L 2283.36,2362.52 L 2304.88,2414.79 L 2304.88,2415.35 L 2305.12,2415.35 L 2305.12,2549.21 L 2171.26,2549.21 L 2171.26,2415.35 L 2171.51,2415.35 L 2171.42,2415.14 L 2171.49,2414.79 L 2193.02,2362.51 L 2179.31,2321.4 L 2179.35,2320.87 L 2151.57,2320.87 L 2151.3,2320.84 L 2151.26,2320.85 L 2110.55,2318.81 L 2078.13,2322.78 L 2078.02,2322.75 L 2077.39,2323.93 L 2074.94,2326.91 L 2071.96,2329.36 L 2068.56,2331.18 L 2064.86,2332.3 L 2061.02,2332.68 L 2009.84,2332.68 L 2006,2332.3 L 2002.31,2331.18 L 1998.91,2329.36 L 1995.92,2326.91 L 1993.48,2323.93 L 1991.66,2320.53 L 1990.54,2316.83 L 1990.16,2312.99 z " style="fill-opacity:1.000000;fill:rgb(99,51,159);stroke:rgb(0,0,0);stroke-width:2"/></g>
<g fill-rule="evenodd"><path d="M 1990.16,1131.89 L 1990.16,1061.02 L 1990.54,1057.18 L 1991.66,1053.49 L 1993.48,1050.09 L 1995.92,1047.1 L 1998.91,1044.66 L 2002.31,1042.84 L 2006,1041.72 L 2009.84,1041.34 L 2061.02,1041.34 L 2064.86,1041.72 L 2068.56,1042.84 L 2071.96,1044.66 L 2074.94,1047.1 L 2077.39,1050.09 L 2078,1051.23 L 2078.13,1051.24 L 2084.92,1052.07 L 2134.68,1031.39 L 2135.21,1030.4 L 2137.66,1027.42 L 2140.64,1024.97 L 2144.04,1023.15 L 2147.73,1022.03 L 2151.57,1021.65 L 2324.8,1021.65 L 2328.64,1022.03 L 2332.34,1023.15 L 2335.74,1024.97 L 2338.72,1027.42 L 2341.17,1030.4 L 2342.99,1033.81 L 2344.11,1037.5 L 2344.49,1041.34 L 2344.49,1120.08 L 2344.11,1123.92 L 2342.99,1127.61 L 2341.17,1131.02 L 2338.72,1134 L 2335.74,1136.45 L 2332.34,1138.27 L 2328.64,1139.39 L 2324.8,1139.76 L 2297.01,1139.76 L 2297.11,1140.01 L 2297.06,1140.3 L 2283.36,1181.41 L 2304.88,1233.68 L 2304.88,1234.25 L 2305.12,1234.25 L 2305.12,1368.11 L 2171.26,1368.11 L 2171.26,1234.25 L 2171.51,1234.25 L 2171.42,1234.03 L 2171.49,1233.68 L 2193.02,1181.41 L 2179.31,1140.3 L 2179.35,1139.76 L 2151.57,1139.76 L 2151.3,1139.74 L 2151.26,1139.75 L 2110.56,1137.71 L 2078.13,1141.67 L 2078.02,1141.64 L 2077.39,1142.83 L 2074.94,1145.81 L 2071.96,1148.26 L 2068.56,1150.08 L 2064.86,1151.2 L 2061.02,1151.57 L 2009.84,1151.57 L 2006,1151.2 L 2002.31,1150.08 L 1998.91,1148.26 L 1995.92,1145.81 L 1993.48,1142.83 L 1991.66,1139.42 L 1990.54,1135.73 L 1990.16,1131.89 z " style="fill-opacity:1.000000;fill:rgb(201,154,102);stroke:rgb(0,0,0);stroke-width:2"/></g>
<g fill-rule="evenodd"><path d="M 2557.09,2470.47 L 2557.09,2399.61 L 2557.46,2395.77 L 2558.59,2392.07 L 2560.4,2388.67 L 2562.85,2385.69 L 2565.84,2383.24 L 2569.24,2381.42 L 2572.93,2380.3 L 2576.77,2379.92 L 2627.95,2379.92 L 2631.79,2380.3 L 2635.49,2381.42 L 2638.89,2383.24 L 2641.87,2385.69 L 2644.32,2388.67 L 2644.93,2389.81 L 2645.06,2389.82 L 2651.85,2390.65 L 2701.61,2369.97 L 2702.14,2368.98 L 2704.58,2366 L 2707.57,2363.55 L 2710.97,2361.73 L 2714.66,2360.61 L 2718.5,2360.24 L 2891.73,2360.24 L 2895.57,2360.61 L 2899.27,2361.73 L 2902.67,2363.55 L 2905.65,2366 L 2908.1,2368.98 L 2909.92,2372.39 L 2911.04,2376.08 L 2911.42,2379.92 L 2911.42,2458.66 L 2911.04,2462.5 L 2909.92,2466.19 L 2908.1,2469.6 L 2905.65,2472.58 L 2902.67,2475.03 L 2899.27,2476.85 L 2895.57,2477.97 L 2891.73,2478.35 L 2863.94,2478.35 L 2864.04,2478.59 L 2863.99,2478.88 L 2850.29,2519.99 L 2871.81,2572.27 L 2871.81,2572.83 L 2872.05,2572.83 L 2872.05,2706.69 L 2738.19,2706.69 L 2738.19,2572.83 L 2738.44,2572.83 L 2738.35,2572.62 L 2738.42,2572.27 L 2759.95,2520 L 2746.24,2478.88 L 2746.28,2478.35 L 2718.5,2478.35 L 2718.23,2478.32 L 2718.19,2478.33 L 2677.48,2476.29 L 2645.06,2480.26 L 2644.95,2480.23 L 2644.32,2481.41 L 2641.87,2484.39 L 2638.89,2486.84 L 2635.49,2488.66 L 2631.79,2489.78 L 2627.95,2490.16 L 2576.77,2490.16 L 2572.93,2489.78 L 2569.24,2488.66 L 2565.84,2486.84 L 2562.85,2484.39 L 2560.4,2481.41 L 2558.59,2478.01 L 2557.46,2474.31 L 2557.09,2470.47 z " style="fill-opacity:1.000000;fill:rgb(50,13,183);stroke:rgb(0,0,0);stroke-width:2"/></g>
<g fill-rule="evenodd"><path d="M 2557.09,1289.37 L 2557.09,1218.5 L 2557.46,1214.66 L 2558.59,1210.97 L 2560.4,1207.57 L 2562.85,1204.58 L 2565.84,1202.14 L 2569.24,1200.32 L 2572.93,1199.2 L 2576.77,1198.82 L 2627.95,1198.82 L 2631.79,1199.2 L 2635.49,1200.32 L 2638.89,1202.14 L 2641.87,1204.58 L 2644.32,1207.57 L 2644.93,1208.71 L 2645.06,1208.72 L 2651.85,1209.55 L 2701.61,1188.87 L 2702.14,1187.88 L 2704.58,1184.9 L 2707.57,1182.45 L 2710.97,1180.63 L 2714.66,1179.51 L 2718.5,1179.13 L 2891.73,1179.13 L 2895.57,1179.51 L 2899.27,1180.63 L 2902.67,1182.45 L 2905.65,1184.9 L 2908.1,1187.88 L 2909.92,1191.29 L 2911.04,1194.98 L 2911.42,1198.82 L 2911.42,1277.56 L 2911.04,1281.4 L 2909.92,1285.09 L 2908.1,1288.5 L 2905.65,1291.48 L 2902.67,1293.93 L 2899.27,1295.75 L 2895.57,1296.87 L 2891.73,1297.24 L 2863.94,1297.24 L 2864.04,1297.49 L 2863.99,1297.78 L 2850.29,1338.89 L 2871.81,1391.16 L 2871.81,1391.73 L 2872.05,1391.73 L 2872.05,1525.59 L 2738.19,1525.59 L 2738.19,1391.73 L 2738.44,1391.73 L 2738.35,1391.51 L 2738.42,1391.16 L 2759.95,1338.89 L 2746.24,1297.78 L 2746.28,1297.24 L 2718.5,1297.24 L 2718.23,1297.22 L 2718.19,1297.23 L 2677.48,1295.19 L 2645.06,1299.15 L 2644.95,1299.12 L 2644.32,1300.31 L 2641.87,1303.29 L 2638.89,1305.74 L 2635.49,1307.56 L 2631.79,1308.68 L 2627.95,1309.06 L 2576.77,1309.06 L 2572.93,1308.68 L 2569.24,1307.56 L 2565.84,1305.74 L 2562.85,1303.29 L 2560.4,1300.31 L 2558.59,1296.9 L 2557.46,1293.21 L 2557.09,1289.37 z " style="fill-opacity:1.000000;fill:rgb(49,88,163);stroke:rgb(0,0,0);stroke-width:2"/></g>
<g fill-rule="evenodd"><path d="M 3124.02,2627.95 L 3124.02,2557.09 L 3124.39,2553.25 L 3125.51,2549.55 L 3127.33,2546.15 L 3129.78,2543.17 L 3132.76,2540.72 L 3136.17,2538.9 L 3139.86,2537.78 L 3143.7,2537.4 L 3194.88,2537.4 L 3198.72,2537.78 L 3202.42,2538.9 L 3205.82,2540.72 L 3208.8,2543.17 L 3211.25,2546.15 L 3211.86,2547.29 L 3211.99,2547.3 L 3218.77,2548.13 L 3268.54,2527.45 L 3269.07,2526.47 L 3271.51,2523.48 L 3274.5,2521.03 L 3277.9,2519.21 L 3281.59,2518.09 L 3285.43,2517.72 L 3458.66,2517.72 L 3462.5,2518.09 L 3466.19,2519.21 L 3469.6,2521.03 L 3472.58,2523.48 L 3475.03,2526.47 L 3476.85,2529.87 L 3477.97,2533.56 L 3478.35,2537.4 L 3478.35,2616.14 L 3477.97,2619.98 L 3476.85,2623.67 L 3475.03,2627.08 L 3472.58,2630.06 L 3469.6,2632.51 L 3466.19,2634.33 L 3462.5,2635.45 L 3458.66,2635.83 L 3430.87,2635.83 L 3430.97,2636.07 L 3430.92,2636.36 L 3417.22,2677.48 L 3438.74,2729.75 L 3438.74,2730.31 L 3438.98,2730.31 L 3438.98,2864.17 L 3305.12,2864.17 L 3305.12,2730.31 L 3305.37,2730.31 L 3305.28,2730.1 L 3305.35,2729.75 L 3326.87,2677.47 L 3313.17,2636.36 L 3313.21,2635.83 L 3285.43,2635.83 L 3285.16,2635.8 L 3285.12,2635.81 L 3244.4,2633.77 L 3211.99,2637.74 L 3211.88,2637.71 L 3211.25,2638.89 L 3208.8,2641.87 L 3205.82,2644.32 L 3202.42,2646.14 L 3198.72,2647.26 L 3194.88,2647.64 L 3143.7,2647.64 L 3139.86,2647.26 L 3136.17,2646.14 L 3132.76,2644.32 L 3129.78,2641.87 L 3127.33,2638.89 L 3125.51,2635.49 L 3124.39,2631.79 L 3124.02,2627.95 z " style="fill-opacity:1.000000;fill:rgb(90,37,93);stroke:rgb(0,0,0);stroke-width:2"/></g>
<g fill-rule="evenodd"><path d="M 3124.02,1446.85 L 3124.02,1375.98 L 3124.39,1372.14 L 3125.51,1368.45 L 3127.33,1365.05 L 3129.78,1362.06 L 3132.76,1359.62 L 3136.17,1357.8 L 3139.86,1356.68 L 3143.7,1356.3 L 3194.88,1356.3 L 3198.72,1356.68 L 3202.42,1357.8 L 3205.82,1359.62 L 3208.8,1362.06 L 3211.25,1365.05 L 3211.86,1366.19 L 3211.99,1366.2 L 3218.77,1367.03 L 3268.54,1346.35 L 3269.07,1345.36 L 3271.51,1342.38 L 3274.5,1339.93 L 3277.9,1338.11 L 3281.59,1336.99 L 3285.43,1336.61 L 3458.66,1336.61 L 3462.5,1336.99 L 3466.19,1338.11 L 3469.6,1339.93 L 3472.58,1342.38 L 3475.03,1345.36 L 3476.85,1348.77 L 3477.97,1352.46 L 3478.35,1356.3 L 3478.35,1435.04 L 3477.97,1438.88 L 3476.85,1442.57 L 3475.03,1445.98 L 3472.58,1448.96 L 3469.6,1451.41 L 3466.19,1453.23 L 3462.5,1454.35 L 3458.66,1454.72 L 3430.87,1454.72 L 3430.97,1454.97 L 3430.92,1455.26 L 3417.22,1496.37 L 3438.74,1548.64 L 3438.74,1549.21 L 3438.98,1549.21 L 3438.98,1683.07 L 3305.12,1683.07 L 3305.12,1549.21 L 3305.37,1549.21 L 3305.28,1548.99 L 3305.35,1548.64 L 3326.87,1496.37 L 3313.17,1455.26 L 3313.21,1454.72 L 3285.43,1454.72 L 3285.16,1454.7 L 3285.12,1454.71 L 3244.4,1452.67 L 3211.99,1456.63 L 3211.88,1456.6 L 3211.25,1457.79 L 3208.8,1460.77 L 3205.82,1463.22 L 3202.42,1465.04 L 3198.72,1466.16 L 3194.88,1466.54 L 3143.7,1466.54 L 3139.86,1466.16 L 3136.17,1465.04 L 3132.76,1463.22 L 3129.78,1460.77 L 3127.33,1457.79 L 3125.51,1454.38 L 3124.39,1450.69 L 3124.02,1446.85 z " style="fill-opacity:1.000000;fill:rgb(5,23,88);stroke:rgb(0,0,0);stroke-width:2"/></g>
<g fill-rule="evenodd"><path d="M 3690.94,2785.43 L 3690.94,2714.57 L 3691.32,2710.73 L 3692.44,2707.03 L 3694.26,2703.63 L 3696.71,2700.65 L 3699.69,2698.2 L 3703.1,2696.38 L 3706.79,2695.26 L 3710.63,2694.88 L 3761.81,2694.88 L 3765.65,2695.26 L 3769.34,2696.38 L 3772.75,2698.2 L 3775.73,2700.65 L 3778.18,2703.63 L 3778.79,2704.78 L 3778.92,2704.78 L 3785.7,2705.61 L 3835.47,2684.93 L 3835.99,2683.95 L 3838.44,2680.96 L 3841.43,2678.51 L 3844.83,2676.7 L 3848.52,2675.58 L 3852.36,2675.2 L 4025.59,2675.2 L 4029.43,2675.58 L 4033.12,2676.7 L 4036.53,2678.51 L 4039.51,2680.96 L 4041.96,2683.95 L 4043.78,2687.35 L 4044.9,2691.04 L 4045.28,2694.88 L 4045.28,2773.62 L 4044.9,2777.46 L 4043.78,2781.16 L 4041.96,2784.56 L 4039.51,2787.54 L 4036.53,2789.99 L 4033.12,2791.81 L 4029.43,2792.93 L 4025.59,2793.31 L 3997.8,2793.31 L 3997.9,2793.55 L 3997.85,2793.85 L 3984.15,2834.96 L 4005.67,2887.23 L 4005.67,2887.8 L 4005.91,2887.8 L 4005.91,3021.65 L 3872.05,3021.65 L 3872.05,2887.8 L 3872.3,2887.8 L 3872.21,2887.58 L 3872.28,2887.23 L 3893.8,2834.96 L 3880.1,2793.85 L 3880.14,2793.31 L 3852.36,2793.31 L 3852.09,2793.28 L 3852.05,2793.29 L 3811.34,2791.26 L 3778.92,2795.22 L 3778.81,2795.19 L 3778.18,2796.37 L 3775.73,2799.35 L 3772.75,2801.8 L 3769.34,2803.62 L 3765.65,2804.74 L 3761.81,2805.12 L 3710.63,2805.12 L 3706.79,2804.74 L 3703.1,2803.62 L 3699.69,2801.8 L 3696.71,2799.35 L 3694.26,2796.37 L 3692.44,2792.97 L 3691.32,2789.27 L 3690.94,2785.43 z " style="fill-opacity:1.000000;fill:rgb(233,94,212);stroke:rgb(0,0,0);stroke-width:2"/></g>
<g fill-rule="evenodd"><path d="M 3690.94,1604.33 L 3690.94,1533.46 L 3691.32,1529.62 L 3692.44,1525.93 L 3694.26,1522.53 L 3696.71,1519.55 L 3699.69,1517.1 L 3703.1,1515.28 L 3706.79,1514.16 L 3710.63,1513.78 L 3761.81,1513.78 L 3765.65,1514.16 L 3769.34,1515.28 L 3772.75,1517.1 L 3775.73,1519.55 L 3778.18,1522.53 L 3778.79,1523.67 L 3778.92,1523.68 L 3785.7,1524.51 L 3835.47,1503.83 L 3835.99,1502.84 L 3838.44,1499.86 L 3841.43,1497.41 L 3844.83,1495.59 L 3848.52,1494.47 L 3852.36,1494.09 L 4025.59,1494.09 L 4029.43,1494.47 L 4033.12,1495.59 L 4036.53,1497.41 L 4039.51,1499.86 L 4041.96,1502.84 L 4043.78,1506.25 L 4044.9,1509.94 L 4045.28,1513.78 L 4045.28,1592.52 L 4044.9,1596.36 L 4043.78,1600.05 L 4041.96,1603.46 L 4039.51,1606.44 L 4036.53,1608.89 L 4033.12,1610.71 L 4029.43,1611.83 L 4025.59,1612.2 L 3997.8,1612.21 L 3997.9,1612.45 L 3997.85,1612.74 L 3984.15,1653.85 L 4005.67,1706.12 L 4005.67,1706.69 L 4005.91,1706.69 L 4005.91,1840.55 L 3872.05,1840.55 L 3872.05,1706.69 L 3872.3,1706.69 L 3872.21,1706.47 L 3872.28,1706.12 L 3893.8,1653.85 L 3880.1,1612.74 L 3880.14,1612.2 L 3852.36,1612.2 L 3852.09,1612.18 L 3852.05,1612.19 L 3811.33,1610.15 L 3778.92,1614.11 L 3778.81,1614.08 L 3778.18,1615.27 L 3775.73,1618.25 L 3772.75,1620.7 L 3769.34,1622.52 L 3765.65,1623.64 L 3761.81,1624.02 L 3710.63,1624.02 L 3706.79,1623.64 L 3703.1,1622.52 L 3699.69,1620.7 L 3696.71,1618.25 L 3694.26,1615.27 L 3692.44,1611.86 L 3691.32,1608.17 L 3690.94,1604.33 z " style="fill-opacity:1.000000;fill:rgb(171,178,205);stroke:rgb(0,0,0);stroke-width:2"/></g>
</svg>
